ISO-10303-21;
HEADER;
/* SOT-23-5.step 3D STEP model for use in ECAD systems
 * Copyright (C) 2025, KiCAD
 *
 * This work is licensed under the
 * [Creative Commons CC-BY-SA 4.0 License](https://creativecommons.org/licenses/by-sa/4.0/legalcode),
 * with the following exception:
 *
 * To the extent that the creation of electronic designs that use 'Licensed Material' can be
 * considered to be 'Adapted Material', then the copyright holder waives article 3 of the license
 * with respect to these designs and any generated files which use data provided as part of the
 * 'Licensed Material'.
 *
 * You are free to use the library data in your own projects without the obligation to share your
 * project files under this or any other license agreement. However, if you wish to distribute
 * these libraries, or parts thereof (including in modified form) as a collection then the exception
 * above does not apply. Please refer to
 * https://gitlab.com/kicad/libraries/kicad-packages3D/-/blob/master/LICENSE.md for further clarification
 * of the exception.
 *
 * Disclaimer of Warranties and Limitation of Liability.
 * These libraries are provided in the hope that they will be useful, but are provided without warranty of any kind, express or implied.
 * USE 3D CAD DATA AT YOUR OWN RISK
 * DO NOT RELY UPON ANY INFORMATION FOUND HERE WITHOUT INDEPENDENT VERIFICATION.
 */

FILE_DESCRIPTION(
/* description */ ('model of SOT-23-5'),
/* implementation_level */ '2;1');

FILE_NAME(
/* name */ 'SOT-23-5.step',
/* time_stamp */ '1970-01-01T00:00:00',
/* author */ ('KiCAD','kicad'),
/* organization */ ('OCCT'),
/* preprocessor_version */ '',
/* originating_system */ 'KiCAD',
/* authorisation */ '');

FILE_SCHEMA(('AUTOMOTIVE_DESIGN { 1 0 10303 214 1 1 1 1 }'));
ENDSEC;

DATA;
#1=APPLICATION_PROTOCOL_DEFINITION('international standard','automotive_design',2000,#2);
#2=APPLICATION_CONTEXT('core data for automotive mechanical design processes');
#3=SHAPE_DEFINITION_REPRESENTATION(#4,#10);
#4=PRODUCT_DEFINITION_SHAPE('','',#5);
#5=PRODUCT_DEFINITION('design','',#6,#9);
#6=PRODUCT_DEFINITION_FORMATION('','',#7);
#7=PRODUCT('SOT-23-5','SOT-23-5','',(#8));
#8=PRODUCT_CONTEXT('',#2,'mechanical');
#9=PRODUCT_DEFINITION_CONTEXT('part definition',#2,'design');
#10=ADVANCED_BREP_SHAPE_REPRESENTATION('',(#11,#15),#1923);
#11=AXIS2_PLACEMENT_3D('',#12,#13,#14);
#12=CARTESIAN_POINT('',(0.,0.,0.));
#13=DIRECTION('',(0.,0.,1.));
#14=DIRECTION('',(1.,0.,-0.));
#15=MANIFOLD_SOLID_BREP('',#16);
#16=CLOSED_SHELL('',(#17,#42,#95,#108,#127,#140,#177,#206,#219,#232,#241,#256,#317,#328,#347,#368,#386,#407,#425,#446,#456,#468,#489,#507,#528,#545,#560,#575,#586,#609,#647,#661,#675,#689,#719,#739,#770,#836,#852,#905,#916,#976,#992,#1045,#1053,#1111,#1127,#1175,#1239,#1255,#1303,#1313,#1373,#1389,#1440,#1450,#1462,#1474,#1502,#1511,#1523,#1532,#1542,#1549,#1559,#1570,#1579,#1589,#1599,#1609,#1619,#1628,#1638,#1648,#1657,#1667,#1677,#1687,#1697,#1705,#1715,#1724,#1734,#1744,#1754,#1764,#1772,#1783,#1792,#1802,#1812,#1822,#1832,#1841,#1851,#1861,#1870,#1880,#1890,#1900,#1910,#1918));
#17=ADVANCED_FACE('',(#18),#41,.F.);
#18=FACE_BOUND('',#19,.F.);
#19=EDGE_LOOP('',(#20,#28,#33,#38));
#20=ORIENTED_EDGE('',*,*,#21,.T.);
#21=EDGE_CURVE('',#22,#24,#26,.T.);
#22=VERTEX_POINT('',#23);
#23=CARTESIAN_POINT('',(-0.659324228722,1.358648457443,0.1));
#24=VERTEX_POINT('',#25);
#25=CARTESIAN_POINT('',(0.659324228722,1.358648457443,0.1));
#26=LINE('',#23,#27);
#27=VECTOR('',#14,1.);
#28=ORIENTED_EDGE('',*,*,#29,.T.);
#29=EDGE_CURVE('',#24,#30,#32,.T.);
#30=VERTEX_POINT('',#31);
#31=CARTESIAN_POINT('',(0.705,1.45,0.75));
#32=B_SPLINE_CURVE_WITH_KNOTS('',1,(#25,#31),.UNSPECIFIED.,.F.,.F.,(2,2),(0.,1.),.PIECEWISE_BEZIER_KNOTS.);
#33=ORIENTED_EDGE('',*,*,#34,.F.);
#34=EDGE_CURVE('',#35,#30,#37,.T.);
#35=VERTEX_POINT('',#36);
#36=CARTESIAN_POINT('',(-0.705,1.45,0.75));
#37=LINE('',#36,#27);
#38=ORIENTED_EDGE('',*,*,#39,.F.);
#39=EDGE_CURVE('',#22,#35,#40,.T.);
#40=B_SPLINE_CURVE_WITH_KNOTS('',1,(#23,#36),.UNSPECIFIED.,.F.,.F.,(2,2),(0.,1.),.PIECEWISE_BEZIER_KNOTS.);
#41=B_SPLINE_SURFACE_WITH_KNOTS('',1,1,((#23,#36),(#25,#31)),.UNSPECIFIED.,.F.,.F.,.F.,(2,2),(2,2),(0.,1.41),(0.,1.),.PIECEWISE_BEZIER_KNOTS.);
#42=ADVANCED_FACE('',(#43),#92,.F.);
#43=FACE_BOUND('',#44,.T.);
#44=EDGE_LOOP('',(#20,#45,#52,#59,#66,#73,#80,#87));
#45=ORIENTED_EDGE('',*,*,#46,.T.);
#46=EDGE_CURVE('',#24,#47,#49,.T.);
#47=VERTEX_POINT('',#48);
#48=CARTESIAN_POINT('',(0.708648457443,1.309324228722,0.1));
#49=LINE('',#25,#50);
#50=VECTOR('',#51,1.);
#51=DIRECTION('',(0.707106781187,-0.707106781187,0.));
#52=ORIENTED_EDGE('',*,*,#53,.T.);
#53=EDGE_CURVE('',#47,#54,#56,.T.);
#54=VERTEX_POINT('',#55);
#55=CARTESIAN_POINT('',(0.708648457443,-1.309324228722,0.1));
#56=LINE('',#48,#57);
#57=VECTOR('',#58,1.);
#58=DIRECTION('',(1.110223024625E-16,-1.,0.));
#59=ORIENTED_EDGE('',*,*,#60,.T.);
#60=EDGE_CURVE('',#54,#61,#63,.T.);
#61=VERTEX_POINT('',#62);
#62=CARTESIAN_POINT('',(0.659324228722,-1.358648457443,0.1));
#63=LINE('',#55,#64);
#64=VECTOR('',#65,1.);
#65=DIRECTION('',(-0.707106781187,-0.707106781187,0.));
#66=ORIENTED_EDGE('',*,*,#67,.T.);
#67=EDGE_CURVE('',#61,#68,#70,.T.);
#68=VERTEX_POINT('',#69);
#69=CARTESIAN_POINT('',(-0.659324228722,-1.358648457443,0.1));
#70=LINE('',#62,#71);
#71=VECTOR('',#72,1.);
#72=DIRECTION('',(-1.,-1.110223024625E-16,0.));
#73=ORIENTED_EDGE('',*,*,#74,.T.);
#74=EDGE_CURVE('',#68,#75,#77,.T.);
#75=VERTEX_POINT('',#76);
#76=CARTESIAN_POINT('',(-0.708648457443,-1.309324228722,0.1));
#77=LINE('',#69,#78);
#78=VECTOR('',#79,1.);
#79=DIRECTION('',(-0.707106781187,0.707106781187,0.));
#80=ORIENTED_EDGE('',*,*,#81,.T.);
#81=EDGE_CURVE('',#75,#82,#84,.T.);
#82=VERTEX_POINT('',#83);
#83=CARTESIAN_POINT('',(-0.708648457443,1.309324228722,0.1));
#84=LINE('',#76,#85);
#85=VECTOR('',#86,1.);
#86=DIRECTION('',(-1.110223024625E-16,1.,0.));
#87=ORIENTED_EDGE('',*,*,#88,.T.);
#88=EDGE_CURVE('',#82,#22,#89,.T.);
#89=LINE('',#83,#90);
#90=VECTOR('',#91,1.);
#91=DIRECTION('',(0.707106781187,0.707106781187,0.));
#92=PLANE('',#93);
#93=AXIS2_PLACEMENT_3D('',#23,#13,#94);
#94=DIRECTION('',(0.436587433964,-0.899661832304,0.));
#95=ADVANCED_FACE('',(#96),#107,.F.);
#96=FACE_BOUND('',#97,.F.);
#97=EDGE_LOOP('',(#45,#98,#103,#106));
#98=ORIENTED_EDGE('',*,*,#99,.T.);
#99=EDGE_CURVE('',#47,#100,#102,.T.);
#100=VERTEX_POINT('',#101);
#101=CARTESIAN_POINT('',(0.8,1.355,0.75));
#102=B_SPLINE_CURVE_WITH_KNOTS('',1,(#48,#101),.UNSPECIFIED.,.F.,.F.,(2,2),(0.,1.),.PIECEWISE_BEZIER_KNOTS.);
#103=ORIENTED_EDGE('',*,*,#104,.F.);
#104=EDGE_CURVE('',#30,#100,#105,.T.);
#105=LINE('',#31,#50);
#106=ORIENTED_EDGE('',*,*,#29,.F.);
#107=B_SPLINE_SURFACE_WITH_KNOTS('',1,1,((#25,#31),(#48,#101)),.UNSPECIFIED.,.F.,.F.,.F.,(2,2),(2,2),(0.,0.134350288425),(0.,1.),.PIECEWISE_BEZIER_KNOTS.);
#108=ADVANCED_FACE('',(#109),#125,.F.);
#109=FACE_BOUND('',#110,.F.);
#110=EDGE_LOOP('',(#111,#112,#117,#122));
#111=ORIENTED_EDGE('',*,*,#34,.T.);
#112=ORIENTED_EDGE('',*,*,#113,.T.);
#113=EDGE_CURVE('',#30,#114,#116,.T.);
#114=VERTEX_POINT('',#115);
#115=CARTESIAN_POINT('',(0.705,1.45,0.9));
#116=B_SPLINE_CURVE_WITH_KNOTS('',1,(#31,#115),.UNSPECIFIED.,.F.,.F.,(2,2),(0.,1.),.PIECEWISE_BEZIER_KNOTS.);
#117=ORIENTED_EDGE('',*,*,#118,.F.);
#118=EDGE_CURVE('',#119,#114,#121,.T.);
#119=VERTEX_POINT('',#120);
#120=CARTESIAN_POINT('',(-0.705,1.45,0.9));
#121=LINE('',#120,#27);
#122=ORIENTED_EDGE('',*,*,#123,.F.);
#123=EDGE_CURVE('',#35,#119,#124,.T.);
#124=B_SPLINE_CURVE_WITH_KNOTS('',1,(#36,#120),.UNSPECIFIED.,.F.,.F.,(2,2),(0.,1.),.PIECEWISE_BEZIER_KNOTS.);
#125=PLANE('',#126);
#126=AXIS2_PLACEMENT_3D('',#120,#58,#14);
#127=ADVANCED_FACE('',(#128),#139,.F.);
#128=FACE_BOUND('',#129,.F.);
#129=EDGE_LOOP('',(#87,#130,#131,#136));
#130=ORIENTED_EDGE('',*,*,#39,.T.);
#131=ORIENTED_EDGE('',*,*,#132,.F.);
#132=EDGE_CURVE('',#133,#35,#135,.T.);
#133=VERTEX_POINT('',#134);
#134=CARTESIAN_POINT('',(-0.8,1.355,0.75));
#135=LINE('',#134,#90);
#136=ORIENTED_EDGE('',*,*,#137,.F.);
#137=EDGE_CURVE('',#82,#133,#138,.T.);
#138=B_SPLINE_CURVE_WITH_KNOTS('',1,(#83,#134),.UNSPECIFIED.,.F.,.F.,(2,2),(0.,1.),.PIECEWISE_BEZIER_KNOTS.);
#139=B_SPLINE_SURFACE_WITH_KNOTS('',1,1,((#83,#134),(#23,#36)),.UNSPECIFIED.,.F.,.F.,.F.,(2,2),(2,2),(0.,0.134350288425),(0.,1.),.PIECEWISE_BEZIER_KNOTS.);
#140=ADVANCED_FACE('',(#141),#176,.F.);
#141=FACE_BOUND('',#142,.F.);
#142=EDGE_LOOP('',(#80,#143,#144,#150,#154,#158,#162,#166,#170,#173));
#143=ORIENTED_EDGE('',*,*,#137,.T.);
#144=ORIENTED_EDGE('',*,*,#145,.F.);
#145=EDGE_CURVE('',#146,#133,#148,.T.);
#146=VERTEX_POINT('',#147);
#147=CARTESIAN_POINT('',(-0.8,1.2,0.75));
#148=LINE('',#149,#85);
#149=CARTESIAN_POINT('',(-0.8,-1.355,0.75));
#150=ORIENTED_EDGE('',*,*,#151,.F.);
#151=EDGE_CURVE('',#152,#146,#148,.T.);
#152=VERTEX_POINT('',#153);
#153=CARTESIAN_POINT('',(-0.8,0.7,0.75));
#154=ORIENTED_EDGE('',*,*,#155,.F.);
#155=EDGE_CURVE('',#156,#152,#148,.T.);
#156=VERTEX_POINT('',#157);
#157=CARTESIAN_POINT('',(-0.8,0.25,0.75));
#158=ORIENTED_EDGE('',*,*,#159,.F.);
#159=EDGE_CURVE('',#160,#156,#148,.T.);
#160=VERTEX_POINT('',#161);
#161=CARTESIAN_POINT('',(-0.8,-0.25,0.75));
#162=ORIENTED_EDGE('',*,*,#163,.F.);
#163=EDGE_CURVE('',#164,#160,#148,.T.);
#164=VERTEX_POINT('',#165);
#165=CARTESIAN_POINT('',(-0.8,-0.7,0.75));
#166=ORIENTED_EDGE('',*,*,#167,.F.);
#167=EDGE_CURVE('',#168,#164,#148,.T.);
#168=VERTEX_POINT('',#169);
#169=CARTESIAN_POINT('',(-0.8,-1.2,0.75));
#170=ORIENTED_EDGE('',*,*,#171,.F.);
#171=EDGE_CURVE('',#172,#168,#148,.T.);
#172=VERTEX_POINT('',#149);
#173=ORIENTED_EDGE('',*,*,#174,.F.);
#174=EDGE_CURVE('',#75,#172,#175,.T.);
#175=B_SPLINE_CURVE_WITH_KNOTS('',1,(#76,#149),.UNSPECIFIED.,.F.,.F.,(2,2),(0.,1.),.PIECEWISE_BEZIER_KNOTS.);
#176=B_SPLINE_SURFACE_WITH_KNOTS('',1,1,((#76,#149),(#83,#134)),.UNSPECIFIED.,.F.,.F.,.F.,(2,2),(2,2),(0.,2.71),(0.,1.),.PIECEWISE_BEZIER_KNOTS.);
#177=ADVANCED_FACE('',(#178),#205,.F.);
#178=FACE_BOUND('',#179,.F.);
#179=EDGE_LOOP('',(#52,#180,#185,#190,#194,#198,#202,#204));
#180=ORIENTED_EDGE('',*,*,#181,.T.);
#181=EDGE_CURVE('',#54,#182,#184,.T.);
#182=VERTEX_POINT('',#183);
#183=CARTESIAN_POINT('',(0.8,-1.355,0.75));
#184=B_SPLINE_CURVE_WITH_KNOTS('',1,(#55,#183),.UNSPECIFIED.,.F.,.F.,(2,2),(0.,1.),.PIECEWISE_BEZIER_KNOTS.);
#185=ORIENTED_EDGE('',*,*,#186,.F.);
#186=EDGE_CURVE('',#187,#182,#189,.T.);
#187=VERTEX_POINT('',#188);
#188=CARTESIAN_POINT('',(0.8,-1.2,0.75));
#189=LINE('',#101,#57);
#190=ORIENTED_EDGE('',*,*,#191,.F.);
#191=EDGE_CURVE('',#192,#187,#189,.T.);
#192=VERTEX_POINT('',#193);
#193=CARTESIAN_POINT('',(0.8,-0.7,0.75));
#194=ORIENTED_EDGE('',*,*,#195,.F.);
#195=EDGE_CURVE('',#196,#192,#189,.T.);
#196=VERTEX_POINT('',#197);
#197=CARTESIAN_POINT('',(0.8,0.7,0.75));
#198=ORIENTED_EDGE('',*,*,#199,.F.);
#199=EDGE_CURVE('',#200,#196,#189,.T.);
#200=VERTEX_POINT('',#201);
#201=CARTESIAN_POINT('',(0.8,1.2,0.75));
#202=ORIENTED_EDGE('',*,*,#203,.F.);
#203=EDGE_CURVE('',#100,#200,#189,.T.);
#204=ORIENTED_EDGE('',*,*,#99,.F.);
#205=B_SPLINE_SURFACE_WITH_KNOTS('',1,1,((#48,#101),(#55,#183)),.UNSPECIFIED.,.F.,.F.,.F.,(2,2),(2,2),(0.,2.71),(0.,1.),.PIECEWISE_BEZIER_KNOTS.);
#206=ADVANCED_FACE('',(#207),#218,.F.);
#207=FACE_BOUND('',#208,.F.);
#208=EDGE_LOOP('',(#73,#209,#210,#215));
#209=ORIENTED_EDGE('',*,*,#174,.T.);
#210=ORIENTED_EDGE('',*,*,#211,.F.);
#211=EDGE_CURVE('',#212,#172,#214,.T.);
#212=VERTEX_POINT('',#213);
#213=CARTESIAN_POINT('',(-0.705,-1.45,0.75));
#214=LINE('',#213,#78);
#215=ORIENTED_EDGE('',*,*,#216,.F.);
#216=EDGE_CURVE('',#68,#212,#217,.T.);
#217=B_SPLINE_CURVE_WITH_KNOTS('',1,(#69,#213),.UNSPECIFIED.,.F.,.F.,(2,2),(0.,1.),.PIECEWISE_BEZIER_KNOTS.);
#218=B_SPLINE_SURFACE_WITH_KNOTS('',1,1,((#69,#213),(#76,#149)),.UNSPECIFIED.,.F.,.F.,.F.,(2,2),(2,2),(0.,0.134350288425),(0.,1.),.PIECEWISE_BEZIER_KNOTS.);
#219=ADVANCED_FACE('',(#220),#231,.F.);
#220=FACE_BOUND('',#221,.F.);
#221=EDGE_LOOP('',(#59,#222,#227,#230));
#222=ORIENTED_EDGE('',*,*,#223,.T.);
#223=EDGE_CURVE('',#61,#224,#226,.T.);
#224=VERTEX_POINT('',#225);
#225=CARTESIAN_POINT('',(0.705,-1.45,0.75));
#226=B_SPLINE_CURVE_WITH_KNOTS('',1,(#62,#225),.UNSPECIFIED.,.F.,.F.,(2,2),(0.,1.),.PIECEWISE_BEZIER_KNOTS.);
#227=ORIENTED_EDGE('',*,*,#228,.F.);
#228=EDGE_CURVE('',#182,#224,#229,.T.);
#229=LINE('',#183,#64);
#230=ORIENTED_EDGE('',*,*,#181,.F.);
#231=B_SPLINE_SURFACE_WITH_KNOTS('',1,1,((#55,#183),(#62,#225)),.UNSPECIFIED.,.F.,.F.,.F.,(2,2),(2,2),(0.,0.134350288425),(0.,1.),.PIECEWISE_BEZIER_KNOTS.);
#232=ADVANCED_FACE('',(#233),#240,.F.);
#233=FACE_BOUND('',#234,.F.);
#234=EDGE_LOOP('',(#66,#235,#236,#239));
#235=ORIENTED_EDGE('',*,*,#216,.T.);
#236=ORIENTED_EDGE('',*,*,#237,.F.);
#237=EDGE_CURVE('',#224,#212,#238,.T.);
#238=LINE('',#225,#71);
#239=ORIENTED_EDGE('',*,*,#223,.F.);
#240=B_SPLINE_SURFACE_WITH_KNOTS('',1,1,((#62,#225),(#69,#213)),.UNSPECIFIED.,.F.,.F.,.F.,(2,2),(2,2),(0.,1.41),(0.,1.),.PIECEWISE_BEZIER_KNOTS.);
#241=ADVANCED_FACE('',(#242),#254,.F.);
#242=FACE_BOUND('',#243,.F.);
#243=EDGE_LOOP('',(#244,#245,#250,#253));
#244=ORIENTED_EDGE('',*,*,#104,.T.);
#245=ORIENTED_EDGE('',*,*,#246,.T.);
#246=EDGE_CURVE('',#100,#247,#249,.T.);
#247=VERTEX_POINT('',#248);
#248=CARTESIAN_POINT('',(0.8,1.355,0.9));
#249=B_SPLINE_CURVE_WITH_KNOTS('',1,(#101,#248),.UNSPECIFIED.,.F.,.F.,(2,2),(0.,1.),.PIECEWISE_BEZIER_KNOTS.);
#250=ORIENTED_EDGE('',*,*,#251,.F.);
#251=EDGE_CURVE('',#114,#247,#252,.T.);
#252=LINE('',#115,#50);
#253=ORIENTED_EDGE('',*,*,#113,.F.);
#254=PLANE('',#255);
#255=AXIS2_PLACEMENT_3D('',#115,#65,#51);
#256=ADVANCED_FACE('',(#257),#313,.F.);
#257=FACE_BOUND('',#258,.F.);
#258=EDGE_LOOP('',(#259,#264,#265,#266,#271,#277,#282,#287,#292,#297,#303,#309));
#259=ORIENTED_EDGE('',*,*,#260,.T.);
#260=EDGE_CURVE('',#261,#119,#263,.T.);
#261=VERTEX_POINT('',#262);
#262=CARTESIAN_POINT('',(-0.8,1.355,0.9));
#263=LINE('',#262,#90);
#264=ORIENTED_EDGE('',*,*,#118,.T.);
#265=ORIENTED_EDGE('',*,*,#251,.T.);
#266=ORIENTED_EDGE('',*,*,#267,.T.);
#267=EDGE_CURVE('',#247,#268,#270,.T.);
#268=VERTEX_POINT('',#269);
#269=CARTESIAN_POINT('',(0.8,1.2,0.9));
#270=LINE('',#248,#57);
#271=ORIENTED_EDGE('',*,*,#272,.T.);
#272=EDGE_CURVE('',#268,#273,#275,.T.);
#273=VERTEX_POINT('',#274);
#274=CARTESIAN_POINT('',(0.775,1.2,0.9));
#275=LINE('',#276,#71);
#276=CARTESIAN_POINT('',(0.85,1.2,0.9));
#277=ORIENTED_EDGE('',*,*,#278,.F.);
#278=EDGE_CURVE('',#279,#273,#281,.T.);
#279=VERTEX_POINT('',#280);
#280=CARTESIAN_POINT('',(0.775,1.3425,0.9));
#281=LINE('',#280,#57);
#282=ORIENTED_EDGE('',*,*,#283,.F.);
#283=EDGE_CURVE('',#284,#279,#286,.T.);
#284=VERTEX_POINT('',#285);
#285=CARTESIAN_POINT('',(0.6925,1.425,0.9));
#286=LINE('',#285,#50);
#287=ORIENTED_EDGE('',*,*,#288,.F.);
#288=EDGE_CURVE('',#289,#284,#291,.T.);
#289=VERTEX_POINT('',#290);
#290=CARTESIAN_POINT('',(-0.6925,1.425,0.9));
#291=LINE('',#290,#27);
#292=ORIENTED_EDGE('',*,*,#293,.F.);
#293=EDGE_CURVE('',#294,#289,#296,.T.);
#294=VERTEX_POINT('',#295);
#295=CARTESIAN_POINT('',(-0.775,1.3425,0.9));
#296=LINE('',#295,#90);
#297=ORIENTED_EDGE('',*,*,#298,.F.);
#298=EDGE_CURVE('',#299,#294,#301,.T.);
#299=VERTEX_POINT('',#300);
#300=CARTESIAN_POINT('',(-0.775,1.2,0.9));
#301=LINE('',#302,#85);
#302=CARTESIAN_POINT('',(-0.775,-1.3425,0.9));
#303=ORIENTED_EDGE('',*,*,#304,.F.);
#304=EDGE_CURVE('',#305,#299,#307,.T.);
#305=VERTEX_POINT('',#306);
#306=CARTESIAN_POINT('',(-0.8,1.2,0.9));
#307=LINE('',#308,#27);
#308=CARTESIAN_POINT('',(-0.85,1.2,0.9));
#309=ORIENTED_EDGE('',*,*,#310,.T.);
#310=EDGE_CURVE('',#305,#261,#311,.T.);
#311=LINE('',#312,#85);
#312=CARTESIAN_POINT('',(-0.8,-1.355,0.9));
#313=PLANE('',#314);
#314=AXIS2_PLACEMENT_3D('',#315,#316,#14);
#315=CARTESIAN_POINT('',(-2.091417030376E-16,1.4375,0.9));
#316=DIRECTION('',(4.595758349624E-18,6.551522493592E-27,-1.));
#317=ADVANCED_FACE('',(#318),#326,.F.);
#318=FACE_BOUND('',#319,.F.);
#319=EDGE_LOOP('',(#320,#321,#322,#323));
#320=ORIENTED_EDGE('',*,*,#132,.T.);
#321=ORIENTED_EDGE('',*,*,#123,.T.);
#322=ORIENTED_EDGE('',*,*,#260,.F.);
#323=ORIENTED_EDGE('',*,*,#324,.F.);
#324=EDGE_CURVE('',#133,#261,#325,.T.);
#325=B_SPLINE_CURVE_WITH_KNOTS('',1,(#134,#262),.UNSPECIFIED.,.F.,.F.,(2,2),(0.,1.),.PIECEWISE_BEZIER_KNOTS.);
#326=PLANE('',#327);
#327=AXIS2_PLACEMENT_3D('',#262,#51,#91);
#328=ADVANCED_FACE('',(#329),#345,.F.);
#329=FACE_BOUND('',#330,.F.);
#330=EDGE_LOOP('',(#331,#335,#336,#343));
#331=ORIENTED_EDGE('',*,*,#332,.F.);
#332=EDGE_CURVE('',#172,#333,#334,.T.);
#333=VERTEX_POINT('',#312);
#334=B_SPLINE_CURVE_WITH_KNOTS('',1,(#149,#312),.UNSPECIFIED.,.F.,.F.,(2,2),(0.,1.),.PIECEWISE_BEZIER_KNOTS.);
#335=ORIENTED_EDGE('',*,*,#171,.T.);
#336=ORIENTED_EDGE('',*,*,#337,.T.);
#337=EDGE_CURVE('',#168,#338,#340,.T.);
#338=VERTEX_POINT('',#339);
#339=CARTESIAN_POINT('',(-0.8,-1.2,0.9));
#340=LINE('',#341,#342);
#341=CARTESIAN_POINT('',(-0.8,-1.2,0.670847817658));
#342=VECTOR('',#13,1.);
#343=ORIENTED_EDGE('',*,*,#344,.F.);
#344=EDGE_CURVE('',#333,#338,#311,.T.);
#345=PLANE('',#346);
#346=AXIS2_PLACEMENT_3D('',#312,#14,#86);
#347=ADVANCED_FACE('',(#348),#366,.F.);
#348=FACE_BOUND('',#349,.F.);
#349=EDGE_LOOP('',(#350,#356,#357,#363));
#350=ORIENTED_EDGE('',*,*,#351,.F.);
#351=EDGE_CURVE('',#168,#352,#354,.T.);
#352=VERTEX_POINT('',#353);
#353=CARTESIAN_POINT('',(-0.85,-1.2,0.75));
#354=LINE('',#355,#71);
#355=CARTESIAN_POINT('',(-0.75,-1.2,0.75));
#356=ORIENTED_EDGE('',*,*,#167,.T.);
#357=ORIENTED_EDGE('',*,*,#358,.T.);
#358=EDGE_CURVE('',#164,#359,#361,.T.);
#359=VERTEX_POINT('',#360);
#360=CARTESIAN_POINT('',(-0.85,-0.7,0.75));
#361=LINE('',#362,#71);
#362=CARTESIAN_POINT('',(-0.75,-0.7,0.75));
#363=ORIENTED_EDGE('',*,*,#364,.F.);
#364=EDGE_CURVE('',#352,#359,#365,.T.);
#365=LINE('',#353,#85);
#366=PLANE('',#367);
#367=AXIS2_PLACEMENT_3D('',#355,#13,#72);
#368=ADVANCED_FACE('',(#369),#345,.F.);
#369=FACE_BOUND('',#370,.F.);
#370=EDGE_LOOP('',(#371,#377,#378,#384));
#371=ORIENTED_EDGE('',*,*,#372,.F.);
#372=EDGE_CURVE('',#164,#373,#375,.T.);
#373=VERTEX_POINT('',#374);
#374=CARTESIAN_POINT('',(-0.8,-0.7,0.9));
#375=LINE('',#376,#342);
#376=CARTESIAN_POINT('',(-0.8,-0.7,0.670847817658));
#377=ORIENTED_EDGE('',*,*,#163,.T.);
#378=ORIENTED_EDGE('',*,*,#379,.T.);
#379=EDGE_CURVE('',#160,#380,#382,.T.);
#380=VERTEX_POINT('',#381);
#381=CARTESIAN_POINT('',(-0.8,-0.25,0.9));
#382=LINE('',#383,#342);
#383=CARTESIAN_POINT('',(-0.8,-0.25,0.670847817658));
#384=ORIENTED_EDGE('',*,*,#385,.F.);
#385=EDGE_CURVE('',#373,#380,#311,.T.);
#386=ADVANCED_FACE('',(#387),#405,.F.);
#387=FACE_BOUND('',#388,.F.);
#388=EDGE_LOOP('',(#389,#395,#396,#402));
#389=ORIENTED_EDGE('',*,*,#390,.F.);
#390=EDGE_CURVE('',#160,#391,#393,.T.);
#391=VERTEX_POINT('',#392);
#392=CARTESIAN_POINT('',(-0.85,-0.25,0.75));
#393=LINE('',#394,#71);
#394=CARTESIAN_POINT('',(-0.75,-0.25,0.75));
#395=ORIENTED_EDGE('',*,*,#159,.T.);
#396=ORIENTED_EDGE('',*,*,#397,.T.);
#397=EDGE_CURVE('',#156,#398,#400,.T.);
#398=VERTEX_POINT('',#399);
#399=CARTESIAN_POINT('',(-0.85,0.25,0.75));
#400=LINE('',#401,#71);
#401=CARTESIAN_POINT('',(-0.75,0.25,0.75));
#402=ORIENTED_EDGE('',*,*,#403,.F.);
#403=EDGE_CURVE('',#391,#398,#404,.T.);
#404=LINE('',#392,#85);
#405=PLANE('',#406);
#406=AXIS2_PLACEMENT_3D('',#394,#13,#72);
#407=ADVANCED_FACE('',(#408),#345,.F.);
#408=FACE_BOUND('',#409,.F.);
#409=EDGE_LOOP('',(#410,#416,#417,#423));
#410=ORIENTED_EDGE('',*,*,#411,.F.);
#411=EDGE_CURVE('',#156,#412,#414,.T.);
#412=VERTEX_POINT('',#413);
#413=CARTESIAN_POINT('',(-0.8,0.25,0.9));
#414=LINE('',#415,#342);
#415=CARTESIAN_POINT('',(-0.8,0.25,0.670847817658));
#416=ORIENTED_EDGE('',*,*,#155,.T.);
#417=ORIENTED_EDGE('',*,*,#418,.T.);
#418=EDGE_CURVE('',#152,#419,#421,.T.);
#419=VERTEX_POINT('',#420);
#420=CARTESIAN_POINT('',(-0.8,0.7,0.9));
#421=LINE('',#422,#342);
#422=CARTESIAN_POINT('',(-0.8,0.7,0.670847817658));
#423=ORIENTED_EDGE('',*,*,#424,.F.);
#424=EDGE_CURVE('',#412,#419,#311,.T.);
#425=ADVANCED_FACE('',(#426),#444,.F.);
#426=FACE_BOUND('',#427,.F.);
#427=EDGE_LOOP('',(#428,#434,#435,#441));
#428=ORIENTED_EDGE('',*,*,#429,.F.);
#429=EDGE_CURVE('',#152,#430,#432,.T.);
#430=VERTEX_POINT('',#431);
#431=CARTESIAN_POINT('',(-0.85,0.7,0.75));
#432=LINE('',#433,#71);
#433=CARTESIAN_POINT('',(-0.75,0.7,0.75));
#434=ORIENTED_EDGE('',*,*,#151,.T.);
#435=ORIENTED_EDGE('',*,*,#436,.T.);
#436=EDGE_CURVE('',#146,#437,#439,.T.);
#437=VERTEX_POINT('',#438);
#438=CARTESIAN_POINT('',(-0.85,1.2,0.75));
#439=LINE('',#440,#71);
#440=CARTESIAN_POINT('',(-0.75,1.2,0.75));
#441=ORIENTED_EDGE('',*,*,#442,.F.);
#442=EDGE_CURVE('',#430,#437,#443,.T.);
#443=LINE('',#431,#85);
#444=PLANE('',#445);
#445=AXIS2_PLACEMENT_3D('',#433,#13,#72);
#446=ADVANCED_FACE('',(#447),#345,.F.);
#447=FACE_BOUND('',#448,.F.);
#448=EDGE_LOOP('',(#449,#453,#454,#455));
#449=ORIENTED_EDGE('',*,*,#450,.F.);
#450=EDGE_CURVE('',#146,#305,#451,.T.);
#451=LINE('',#452,#342);
#452=CARTESIAN_POINT('',(-0.8,1.2,0.670847817658));
#453=ORIENTED_EDGE('',*,*,#145,.T.);
#454=ORIENTED_EDGE('',*,*,#324,.T.);
#455=ORIENTED_EDGE('',*,*,#310,.F.);
#456=ADVANCED_FACE('',(#457),#466,.F.);
#457=FACE_BOUND('',#458,.F.);
#458=EDGE_LOOP('',(#459,#460,#461,#465));
#459=ORIENTED_EDGE('',*,*,#246,.F.);
#460=ORIENTED_EDGE('',*,*,#203,.T.);
#461=ORIENTED_EDGE('',*,*,#462,.T.);
#462=EDGE_CURVE('',#200,#268,#463,.T.);
#463=LINE('',#464,#342);
#464=CARTESIAN_POINT('',(0.8,1.2,0.670847817658));
#465=ORIENTED_EDGE('',*,*,#267,.F.);
#466=PLANE('',#467);
#467=AXIS2_PLACEMENT_3D('',#248,#72,#58);
#468=ADVANCED_FACE('',(#469),#487,.F.);
#469=FACE_BOUND('',#470,.F.);
#470=EDGE_LOOP('',(#471,#477,#478,#484));
#471=ORIENTED_EDGE('',*,*,#472,.F.);
#472=EDGE_CURVE('',#200,#473,#475,.T.);
#473=VERTEX_POINT('',#474);
#474=CARTESIAN_POINT('',(0.85,1.2,0.75));
#475=LINE('',#476,#27);
#476=CARTESIAN_POINT('',(0.75,1.2,0.75));
#477=ORIENTED_EDGE('',*,*,#199,.T.);
#478=ORIENTED_EDGE('',*,*,#479,.T.);
#479=EDGE_CURVE('',#196,#480,#482,.T.);
#480=VERTEX_POINT('',#481);
#481=CARTESIAN_POINT('',(0.85,0.7,0.75));
#482=LINE('',#483,#27);
#483=CARTESIAN_POINT('',(0.75,0.7,0.75));
#484=ORIENTED_EDGE('',*,*,#485,.F.);
#485=EDGE_CURVE('',#473,#480,#486,.T.);
#486=LINE('',#474,#57);
#487=PLANE('',#488);
#488=AXIS2_PLACEMENT_3D('',#476,#13,#14);
#489=ADVANCED_FACE('',(#490),#466,.F.);
#490=FACE_BOUND('',#491,.F.);
#491=EDGE_LOOP('',(#492,#498,#499,#505));
#492=ORIENTED_EDGE('',*,*,#493,.F.);
#493=EDGE_CURVE('',#196,#494,#496,.T.);
#494=VERTEX_POINT('',#495);
#495=CARTESIAN_POINT('',(0.8,0.7,0.9));
#496=LINE('',#497,#342);
#497=CARTESIAN_POINT('',(0.8,0.7,0.670847817658));
#498=ORIENTED_EDGE('',*,*,#195,.T.);
#499=ORIENTED_EDGE('',*,*,#500,.T.);
#500=EDGE_CURVE('',#192,#501,#503,.T.);
#501=VERTEX_POINT('',#502);
#502=CARTESIAN_POINT('',(0.8,-0.7,0.9));
#503=LINE('',#504,#342);
#504=CARTESIAN_POINT('',(0.8,-0.7,0.670847817658));
#505=ORIENTED_EDGE('',*,*,#506,.F.);
#506=EDGE_CURVE('',#494,#501,#270,.T.);
#507=ADVANCED_FACE('',(#508),#526,.F.);
#508=FACE_BOUND('',#509,.F.);
#509=EDGE_LOOP('',(#510,#516,#517,#523));
#510=ORIENTED_EDGE('',*,*,#511,.F.);
#511=EDGE_CURVE('',#192,#512,#514,.T.);
#512=VERTEX_POINT('',#513);
#513=CARTESIAN_POINT('',(0.85,-0.7,0.75));
#514=LINE('',#515,#27);
#515=CARTESIAN_POINT('',(0.75,-0.7,0.75));
#516=ORIENTED_EDGE('',*,*,#191,.T.);
#517=ORIENTED_EDGE('',*,*,#518,.T.);
#518=EDGE_CURVE('',#187,#519,#521,.T.);
#519=VERTEX_POINT('',#520);
#520=CARTESIAN_POINT('',(0.85,-1.2,0.75));
#521=LINE('',#522,#27);
#522=CARTESIAN_POINT('',(0.75,-1.2,0.75));
#523=ORIENTED_EDGE('',*,*,#524,.F.);
#524=EDGE_CURVE('',#512,#519,#525,.T.);
#525=LINE('',#513,#57);
#526=PLANE('',#527);
#527=AXIS2_PLACEMENT_3D('',#515,#13,#14);
#528=ADVANCED_FACE('',(#529),#466,.F.);
#529=FACE_BOUND('',#530,.F.);
#530=EDGE_LOOP('',(#531,#537,#538,#543));
#531=ORIENTED_EDGE('',*,*,#532,.F.);
#532=EDGE_CURVE('',#187,#533,#535,.T.);
#533=VERTEX_POINT('',#534);
#534=CARTESIAN_POINT('',(0.8,-1.2,0.9));
#535=LINE('',#536,#342);
#536=CARTESIAN_POINT('',(0.8,-1.2,0.670847817658));
#537=ORIENTED_EDGE('',*,*,#186,.T.);
#538=ORIENTED_EDGE('',*,*,#539,.T.);
#539=EDGE_CURVE('',#182,#540,#542,.T.);
#540=VERTEX_POINT('',#541);
#541=CARTESIAN_POINT('',(0.8,-1.355,0.9));
#542=B_SPLINE_CURVE_WITH_KNOTS('',1,(#183,#541),.UNSPECIFIED.,.F.,.F.,(2,2),(0.,1.),.PIECEWISE_BEZIER_KNOTS.);
#543=ORIENTED_EDGE('',*,*,#544,.F.);
#544=EDGE_CURVE('',#533,#540,#270,.T.);
#545=ADVANCED_FACE('',(#546),#558,.F.);
#546=FACE_BOUND('',#547,.F.);
#547=EDGE_LOOP('',(#548,#549,#550,#555));
#548=ORIENTED_EDGE('',*,*,#211,.T.);
#549=ORIENTED_EDGE('',*,*,#332,.T.);
#550=ORIENTED_EDGE('',*,*,#551,.F.);
#551=EDGE_CURVE('',#552,#333,#554,.T.);
#552=VERTEX_POINT('',#553);
#553=CARTESIAN_POINT('',(-0.705,-1.45,0.9));
#554=LINE('',#553,#78);
#555=ORIENTED_EDGE('',*,*,#556,.F.);
#556=EDGE_CURVE('',#212,#552,#557,.T.);
#557=B_SPLINE_CURVE_WITH_KNOTS('',1,(#213,#553),.UNSPECIFIED.,.F.,.F.,(2,2),(0.,1.),.PIECEWISE_BEZIER_KNOTS.);
#558=PLANE('',#559);
#559=AXIS2_PLACEMENT_3D('',#553,#91,#79);
#560=ADVANCED_FACE('',(#561),#573,.F.);
#561=FACE_BOUND('',#562,.F.);
#562=EDGE_LOOP('',(#563,#564,#569,#572));
#563=ORIENTED_EDGE('',*,*,#228,.T.);
#564=ORIENTED_EDGE('',*,*,#565,.T.);
#565=EDGE_CURVE('',#224,#566,#568,.T.);
#566=VERTEX_POINT('',#567);
#567=CARTESIAN_POINT('',(0.705,-1.45,0.9));
#568=B_SPLINE_CURVE_WITH_KNOTS('',1,(#225,#567),.UNSPECIFIED.,.F.,.F.,(2,2),(0.,1.),.PIECEWISE_BEZIER_KNOTS.);
#569=ORIENTED_EDGE('',*,*,#570,.F.);
#570=EDGE_CURVE('',#540,#566,#571,.T.);
#571=LINE('',#541,#64);
#572=ORIENTED_EDGE('',*,*,#539,.F.);
#573=PLANE('',#574);
#574=AXIS2_PLACEMENT_3D('',#541,#79,#65);
#575=ADVANCED_FACE('',(#576),#584,.F.);
#576=FACE_BOUND('',#577,.F.);
#577=EDGE_LOOP('',(#578,#579,#580,#583));
#578=ORIENTED_EDGE('',*,*,#237,.T.);
#579=ORIENTED_EDGE('',*,*,#556,.T.);
#580=ORIENTED_EDGE('',*,*,#581,.F.);
#581=EDGE_CURVE('',#566,#552,#582,.T.);
#582=LINE('',#567,#71);
#583=ORIENTED_EDGE('',*,*,#565,.F.);
#584=PLANE('',#585);
#585=AXIS2_PLACEMENT_3D('',#567,#86,#72);
#586=ADVANCED_FACE('',(#587),#607,.F.);
#587=FACE_BOUND('',#588,.F.);
#588=EDGE_LOOP('',(#589,#594,#598,#600,#601,#605));
#589=ORIENTED_EDGE('',*,*,#590,.F.);
#590=EDGE_CURVE('',#591,#419,#593,.T.);
#591=VERTEX_POINT('',#592);
#592=CARTESIAN_POINT('',(-0.85,0.7,0.9));
#593=LINE('',#592,#27);
#594=ORIENTED_EDGE('',*,*,#595,.T.);
#595=EDGE_CURVE('',#591,#596,#597,.T.);
#596=VERTEX_POINT('',#308);
#597=LINE('',#592,#85);
#598=ORIENTED_EDGE('',*,*,#599,.T.);
#599=EDGE_CURVE('',#596,#305,#307,.T.);
#600=ORIENTED_EDGE('',*,*,#304,.T.);
#601=ORIENTED_EDGE('',*,*,#602,.F.);
#602=EDGE_CURVE('',#603,#299,#301,.T.);
#603=VERTEX_POINT('',#604);
#604=CARTESIAN_POINT('',(-0.775,0.7,0.9));
#605=ORIENTED_EDGE('',*,*,#606,.F.);
#606=EDGE_CURVE('',#419,#603,#593,.T.);
#607=PLANE('',#608);
#608=AXIS2_PLACEMENT_3D('',#592,#316,#14);
#609=ADVANCED_FACE('',(#610),#646,.F.);
#610=FACE_BOUND('',#611,.F.);
#611=EDGE_LOOP('',(#612,#617,#621,#625,#629,#631,#632,#633,#638,#643));
#612=ORIENTED_EDGE('',*,*,#613,.T.);
#613=EDGE_CURVE('',#614,#615,#301,.T.);
#614=VERTEX_POINT('',#302);
#615=VERTEX_POINT('',#616);
#616=CARTESIAN_POINT('',(-0.775,-1.2,0.9));
#617=ORIENTED_EDGE('',*,*,#618,.T.);
#618=EDGE_CURVE('',#615,#619,#301,.T.);
#619=VERTEX_POINT('',#620);
#620=CARTESIAN_POINT('',(-0.775,-0.7,0.9));
#621=ORIENTED_EDGE('',*,*,#622,.T.);
#622=EDGE_CURVE('',#619,#623,#301,.T.);
#623=VERTEX_POINT('',#624);
#624=CARTESIAN_POINT('',(-0.775,-0.25,0.9));
#625=ORIENTED_EDGE('',*,*,#626,.T.);
#626=EDGE_CURVE('',#623,#627,#301,.T.);
#627=VERTEX_POINT('',#628);
#628=CARTESIAN_POINT('',(-0.775,0.25,0.9));
#629=ORIENTED_EDGE('',*,*,#630,.T.);
#630=EDGE_CURVE('',#627,#603,#301,.T.);
#631=ORIENTED_EDGE('',*,*,#602,.T.);
#632=ORIENTED_EDGE('',*,*,#298,.T.);
#633=ORIENTED_EDGE('',*,*,#634,.T.);
#634=EDGE_CURVE('',#294,#635,#637,.T.);
#635=VERTEX_POINT('',#636);
#636=CARTESIAN_POINT('',(-0.683648457443,1.296824228722,1.55));
#637=B_SPLINE_CURVE_WITH_KNOTS('',1,(#295,#636),.UNSPECIFIED.,.F.,.F.,(2,2),(0.,1.),.PIECEWISE_BEZIER_KNOTS.);
#638=ORIENTED_EDGE('',*,*,#639,.F.);
#639=EDGE_CURVE('',#640,#635,#642,.T.);
#640=VERTEX_POINT('',#641);
#641=CARTESIAN_POINT('',(-0.683648457443,-1.296824228722,1.55));
#642=LINE('',#641,#85);
#643=ORIENTED_EDGE('',*,*,#644,.F.);
#644=EDGE_CURVE('',#614,#640,#645,.T.);
#645=B_SPLINE_CURVE_WITH_KNOTS('',1,(#302,#641),.UNSPECIFIED.,.F.,.F.,(2,2),(0.,1.),.PIECEWISE_BEZIER_KNOTS.);
#646=B_SPLINE_SURFACE_WITH_KNOTS('',1,1,((#302,#641),(#295,#636)),.UNSPECIFIED.,.F.,.F.,.F.,(2,2),(2,2),(0.,2.685),(0.,1.),.PIECEWISE_BEZIER_KNOTS.);
#647=ADVANCED_FACE('',(#648),#660,.F.);
#648=FACE_BOUND('',#649,.F.);
#649=EDGE_LOOP('',(#650,#651,#656,#659));
#650=ORIENTED_EDGE('',*,*,#293,.T.);
#651=ORIENTED_EDGE('',*,*,#652,.T.);
#652=EDGE_CURVE('',#289,#653,#655,.T.);
#653=VERTEX_POINT('',#654);
#654=CARTESIAN_POINT('',(-0.646824228722,1.333648457443,1.55));
#655=B_SPLINE_CURVE_WITH_KNOTS('',1,(#290,#654),.UNSPECIFIED.,.F.,.F.,(2,2),(0.,1.),.PIECEWISE_BEZIER_KNOTS.);
#656=ORIENTED_EDGE('',*,*,#657,.F.);
#657=EDGE_CURVE('',#635,#653,#658,.T.);
#658=LINE('',#636,#90);
#659=ORIENTED_EDGE('',*,*,#634,.F.);
#660=B_SPLINE_SURFACE_WITH_KNOTS('',1,1,((#295,#636),(#290,#654)),.UNSPECIFIED.,.F.,.F.,.F.,(2,2),(2,2),(0.,0.116672618896),(0.,1.),.PIECEWISE_BEZIER_KNOTS.);
#661=ADVANCED_FACE('',(#662),#674,.F.);
#662=FACE_BOUND('',#663,.F.);
#663=EDGE_LOOP('',(#664,#665,#670,#673));
#664=ORIENTED_EDGE('',*,*,#288,.T.);
#665=ORIENTED_EDGE('',*,*,#666,.T.);
#666=EDGE_CURVE('',#284,#667,#669,.T.);
#667=VERTEX_POINT('',#668);
#668=CARTESIAN_POINT('',(0.646824228722,1.333648457443,1.55));
#669=B_SPLINE_CURVE_WITH_KNOTS('',1,(#285,#668),.UNSPECIFIED.,.F.,.F.,(2,2),(0.,1.),.PIECEWISE_BEZIER_KNOTS.);
#670=ORIENTED_EDGE('',*,*,#671,.F.);
#671=EDGE_CURVE('',#653,#667,#672,.T.);
#672=LINE('',#654,#27);
#673=ORIENTED_EDGE('',*,*,#652,.F.);
#674=B_SPLINE_SURFACE_WITH_KNOTS('',1,1,((#290,#654),(#285,#668)),.UNSPECIFIED.,.F.,.F.,.F.,(2,2),(2,2),(0.,1.385),(0.,1.),.PIECEWISE_BEZIER_KNOTS.);
#675=ADVANCED_FACE('',(#676),#688,.F.);
#676=FACE_BOUND('',#677,.F.);
#677=EDGE_LOOP('',(#678,#679,#684,#687));
#678=ORIENTED_EDGE('',*,*,#283,.T.);
#679=ORIENTED_EDGE('',*,*,#680,.T.);
#680=EDGE_CURVE('',#279,#681,#683,.T.);
#681=VERTEX_POINT('',#682);
#682=CARTESIAN_POINT('',(0.683648457443,1.296824228722,1.55));
#683=B_SPLINE_CURVE_WITH_KNOTS('',1,(#280,#682),.UNSPECIFIED.,.F.,.F.,(2,2),(0.,1.),.PIECEWISE_BEZIER_KNOTS.);
#684=ORIENTED_EDGE('',*,*,#685,.F.);
#685=EDGE_CURVE('',#667,#681,#686,.T.);
#686=LINE('',#668,#50);
#687=ORIENTED_EDGE('',*,*,#666,.F.);
#688=B_SPLINE_SURFACE_WITH_KNOTS('',1,1,((#285,#668),(#280,#682)),.UNSPECIFIED.,.F.,.F.,.F.,(2,2),(2,2),(0.,0.116672618896),(0.,1.),.PIECEWISE_BEZIER_KNOTS.);
#689=ADVANCED_FACE('',(#690),#718,.F.);
#690=FACE_BOUND('',#691,.F.);
#691=EDGE_LOOP('',(#692,#693,#697,#701,#705,#709,#714,#717));
#692=ORIENTED_EDGE('',*,*,#278,.T.);
#693=ORIENTED_EDGE('',*,*,#694,.T.);
#694=EDGE_CURVE('',#273,#695,#281,.T.);
#695=VERTEX_POINT('',#696);
#696=CARTESIAN_POINT('',(0.775,0.7,0.9));
#697=ORIENTED_EDGE('',*,*,#698,.T.);
#698=EDGE_CURVE('',#695,#699,#281,.T.);
#699=VERTEX_POINT('',#700);
#700=CARTESIAN_POINT('',(0.775,-0.7,0.9));
#701=ORIENTED_EDGE('',*,*,#702,.T.);
#702=EDGE_CURVE('',#699,#703,#281,.T.);
#703=VERTEX_POINT('',#704);
#704=CARTESIAN_POINT('',(0.775,-1.2,0.9));
#705=ORIENTED_EDGE('',*,*,#706,.T.);
#706=EDGE_CURVE('',#703,#707,#281,.T.);
#707=VERTEX_POINT('',#708);
#708=CARTESIAN_POINT('',(0.775,-1.3425,0.9));
#709=ORIENTED_EDGE('',*,*,#710,.T.);
#710=EDGE_CURVE('',#707,#711,#713,.T.);
#711=VERTEX_POINT('',#712);
#712=CARTESIAN_POINT('',(0.683648457443,-1.296824228722,1.55));
#713=B_SPLINE_CURVE_WITH_KNOTS('',1,(#708,#712),.UNSPECIFIED.,.F.,.F.,(2,2),(0.,1.),.PIECEWISE_BEZIER_KNOTS.);
#714=ORIENTED_EDGE('',*,*,#715,.F.);
#715=EDGE_CURVE('',#681,#711,#716,.T.);
#716=LINE('',#682,#57);
#717=ORIENTED_EDGE('',*,*,#680,.F.);
#718=B_SPLINE_SURFACE_WITH_KNOTS('',1,1,((#280,#682),(#708,#712)),.UNSPECIFIED.,.F.,.F.,.F.,(2,2),(2,2),(0.,2.685),(0.,1.),.PIECEWISE_BEZIER_KNOTS.);
#719=ADVANCED_FACE('',(#720),#737,.F.);
#720=FACE_BOUND('',#721,.F.);
#721=EDGE_LOOP('',(#722,#725,#730,#733,#735,#736));
#722=ORIENTED_EDGE('',*,*,#723,.F.);
#723=EDGE_CURVE('',#724,#268,#275,.T.);
#724=VERTEX_POINT('',#276);
#725=ORIENTED_EDGE('',*,*,#726,.T.);
#726=EDGE_CURVE('',#724,#727,#729,.T.);
#727=VERTEX_POINT('',#728);
#728=CARTESIAN_POINT('',(0.85,0.7,0.9));
#729=LINE('',#276,#57);
#730=ORIENTED_EDGE('',*,*,#731,.T.);
#731=EDGE_CURVE('',#727,#494,#732,.T.);
#732=LINE('',#728,#71);
#733=ORIENTED_EDGE('',*,*,#734,.T.);
#734=EDGE_CURVE('',#494,#695,#732,.T.);
#735=ORIENTED_EDGE('',*,*,#694,.F.);
#736=ORIENTED_EDGE('',*,*,#272,.F.);
#737=PLANE('',#738);
#738=AXIS2_PLACEMENT_3D('',#276,#316,#72);
#739=ADVANCED_FACE('',(#740),#313,.F.);
#740=FACE_BOUND('',#741,.F.);
#741=EDGE_LOOP('',(#742,#746,#747,#748,#749,#750,#751,#755,#756,#761,#766,#769));
#742=ORIENTED_EDGE('',*,*,#743,.F.);
#743=EDGE_CURVE('',#533,#703,#744,.T.);
#744=LINE('',#745,#71);
#745=CARTESIAN_POINT('',(0.85,-1.2,0.9));
#746=ORIENTED_EDGE('',*,*,#544,.T.);
#747=ORIENTED_EDGE('',*,*,#570,.T.);
#748=ORIENTED_EDGE('',*,*,#581,.T.);
#749=ORIENTED_EDGE('',*,*,#551,.T.);
#750=ORIENTED_EDGE('',*,*,#344,.T.);
#751=ORIENTED_EDGE('',*,*,#752,.T.);
#752=EDGE_CURVE('',#338,#615,#753,.T.);
#753=LINE('',#754,#27);
#754=CARTESIAN_POINT('',(-0.85,-1.2,0.9));
#755=ORIENTED_EDGE('',*,*,#613,.F.);
#756=ORIENTED_EDGE('',*,*,#757,.F.);
#757=EDGE_CURVE('',#758,#614,#760,.T.);
#758=VERTEX_POINT('',#759);
#759=CARTESIAN_POINT('',(-0.6925,-1.425,0.9));
#760=LINE('',#759,#78);
#761=ORIENTED_EDGE('',*,*,#762,.F.);
#762=EDGE_CURVE('',#763,#758,#765,.T.);
#763=VERTEX_POINT('',#764);
#764=CARTESIAN_POINT('',(0.6925,-1.425,0.9));
#765=LINE('',#764,#71);
#766=ORIENTED_EDGE('',*,*,#767,.F.);
#767=EDGE_CURVE('',#707,#763,#768,.T.);
#768=LINE('',#708,#64);
#769=ORIENTED_EDGE('',*,*,#706,.F.);
#770=ADVANCED_FACE('',(#771),#833,.F.);
#771=FACE_BOUND('',#772,.F.);
#772=EDGE_LOOP('',(#773,#774,#775,#782,#789,#797,#802,#807,#812,#818,#825,#831));
#773=ORIENTED_EDGE('',*,*,#337,.F.);
#774=ORIENTED_EDGE('',*,*,#351,.T.);
#775=ORIENTED_EDGE('',*,*,#776,.T.);
#776=EDGE_CURVE('',#352,#777,#779,.T.);
#777=VERTEX_POINT('',#778);
#778=CARTESIAN_POINT('',(-0.948480775301,-1.2,0.667364817767));
#779=CIRCLE('',#780,0.1);
#780=AXIS2_PLACEMENT_3D('',#781,#58,#13);
#781=CARTESIAN_POINT('',(-0.85,-1.2,0.65));
#782=ORIENTED_EDGE('',*,*,#783,.T.);
#783=EDGE_CURVE('',#777,#784,#786,.T.);
#784=VERTEX_POINT('',#785);
#785=CARTESIAN_POINT('',(-1.02432885403,-1.2,0.206587955583));
#786=LINE('',#778,#787);
#787=VECTOR('',#788,1.);
#788=DIRECTION('',(-0.162423314012,1.858508865964E-18,-0.986721169868));
#789=ORIENTED_EDGE('',*,*,#790,.T.);
#790=EDGE_CURVE('',#784,#791,#793,.T.);
#791=VERTEX_POINT('',#792);
#792=CARTESIAN_POINT('',(-1.270530792283,-1.2,0.));
#793=CIRCLE('',#794,0.25);
#794=AXIS2_PLACEMENT_3D('',#795,#86,#796);
#795=CARTESIAN_POINT('',(-1.270530792283,-1.2,0.25));
#796=DIRECTION('',(0.984807753012,-1.126854202784E-17,-0.173648177667));
#797=ORIENTED_EDGE('',*,*,#798,.T.);
#798=EDGE_CURVE('',#791,#799,#801,.T.);
#799=VERTEX_POINT('',#800);
#800=CARTESIAN_POINT('',(-1.4,-1.2,0.));
#801=LINE('',#792,#71);
#802=ORIENTED_EDGE('',*,*,#803,.T.);
#803=EDGE_CURVE('',#799,#804,#806,.T.);
#804=VERTEX_POINT('',#805);
#805=CARTESIAN_POINT('',(-1.4,-1.2,0.15));
#806=LINE('',#800,#342);
#807=ORIENTED_EDGE('',*,*,#808,.T.);
#808=EDGE_CURVE('',#804,#809,#811,.T.);
#809=VERTEX_POINT('',#810);
#810=CARTESIAN_POINT('',(-1.270530792283,-1.2,0.15));
#811=LINE('',#805,#27);
#812=ORIENTED_EDGE('',*,*,#813,.T.);
#813=EDGE_CURVE('',#809,#814,#816,.T.);
#814=VERTEX_POINT('',#815);
#815=CARTESIAN_POINT('',(-1.172050016982,-1.2,0.232635182233));
#816=CIRCLE('',#817,1.E-01);
#817=AXIS2_PLACEMENT_3D('',#795,#58,#316);
#818=ORIENTED_EDGE('',*,*,#819,.T.);
#819=EDGE_CURVE('',#814,#820,#822,.T.);
#820=VERTEX_POINT('',#821);
#821=CARTESIAN_POINT('',(-1.096201938253,-1.2,0.693412044417));
#822=LINE('',#815,#823);
#823=VECTOR('',#824,1.);
#824=DIRECTION('',(0.162423314012,-1.858508865964E-18,0.986721169868));
#825=ORIENTED_EDGE('',*,*,#826,.T.);
#826=EDGE_CURVE('',#820,#827,#828,.T.);
#827=VERTEX_POINT('',#754);
#828=CIRCLE('',#829,0.25);
#829=AXIS2_PLACEMENT_3D('',#781,#86,#830);
#830=DIRECTION('',(-0.984807753012,1.126854202784E-17,0.173648177667));
#831=ORIENTED_EDGE('',*,*,#832,.T.);
#832=EDGE_CURVE('',#827,#338,#753,.T.);
#833=PLANE('',#834);
#834=AXIS2_PLACEMENT_3D('',#835,#86,#13);
#835=CARTESIAN_POINT('',(-1.069123385139,-1.2,0.441695635315));
#836=ADVANCED_FACE('',(#837),#851,.F.);
#837=FACE_BOUND('',#838,.F.);
#838=EDGE_LOOP('',(#839,#840,#847,#850));
#839=ORIENTED_EDGE('',*,*,#364,.T.);
#840=ORIENTED_EDGE('',*,*,#841,.T.);
#841=EDGE_CURVE('',#359,#842,#844,.T.);
#842=VERTEX_POINT('',#843);
#843=CARTESIAN_POINT('',(-0.948480775301,-0.7,0.667364817767));
#844=CIRCLE('',#845,0.1);
#845=AXIS2_PLACEMENT_3D('',#846,#58,#13);
#846=CARTESIAN_POINT('',(-0.85,-0.7,0.65));
#847=ORIENTED_EDGE('',*,*,#848,.F.);
#848=EDGE_CURVE('',#777,#842,#849,.T.);
#849=LINE('',#778,#85);
#850=ORIENTED_EDGE('',*,*,#776,.F.);
#851=CYLINDRICAL_SURFACE('',#780,0.1);
#852=ADVANCED_FACE('',(#853),#902,.T.);
#853=FACE_BOUND('',#854,.T.);
#854=EDGE_LOOP('',(#371,#357,#840,#855,#860,#867,#872,#877,#882,#888,#893,#899));
#855=ORIENTED_EDGE('',*,*,#856,.T.);
#856=EDGE_CURVE('',#842,#857,#859,.T.);
#857=VERTEX_POINT('',#858);
#858=CARTESIAN_POINT('',(-1.02432885403,-0.7,0.206587955583));
#859=LINE('',#843,#787);
#860=ORIENTED_EDGE('',*,*,#861,.T.);
#861=EDGE_CURVE('',#857,#862,#864,.T.);
#862=VERTEX_POINT('',#863);
#863=CARTESIAN_POINT('',(-1.270530792283,-0.7,0.));
#864=CIRCLE('',#865,0.25);
#865=AXIS2_PLACEMENT_3D('',#866,#86,#796);
#866=CARTESIAN_POINT('',(-1.270530792283,-0.7,0.25));
#867=ORIENTED_EDGE('',*,*,#868,.T.);
#868=EDGE_CURVE('',#862,#869,#871,.T.);
#869=VERTEX_POINT('',#870);
#870=CARTESIAN_POINT('',(-1.4,-0.7,0.));
#871=LINE('',#863,#71);
#872=ORIENTED_EDGE('',*,*,#873,.T.);
#873=EDGE_CURVE('',#869,#874,#876,.T.);
#874=VERTEX_POINT('',#875);
#875=CARTESIAN_POINT('',(-1.4,-0.7,0.15));
#876=LINE('',#870,#342);
#877=ORIENTED_EDGE('',*,*,#878,.T.);
#878=EDGE_CURVE('',#874,#879,#881,.T.);
#879=VERTEX_POINT('',#880);
#880=CARTESIAN_POINT('',(-1.270530792283,-0.7,0.15));
#881=LINE('',#875,#27);
#882=ORIENTED_EDGE('',*,*,#883,.T.);
#883=EDGE_CURVE('',#879,#884,#886,.T.);
#884=VERTEX_POINT('',#885);
#885=CARTESIAN_POINT('',(-1.172050016982,-0.7,0.232635182233));
#886=CIRCLE('',#887,1.E-01);
#887=AXIS2_PLACEMENT_3D('',#866,#58,#316);
#888=ORIENTED_EDGE('',*,*,#889,.T.);
#889=EDGE_CURVE('',#884,#890,#892,.T.);
#890=VERTEX_POINT('',#891);
#891=CARTESIAN_POINT('',(-1.096201938253,-0.7,0.693412044417));
#892=LINE('',#885,#823);
#893=ORIENTED_EDGE('',*,*,#894,.T.);
#894=EDGE_CURVE('',#890,#895,#897,.T.);
#895=VERTEX_POINT('',#896);
#896=CARTESIAN_POINT('',(-0.85,-0.7,0.9));
#897=CIRCLE('',#898,0.25);
#898=AXIS2_PLACEMENT_3D('',#846,#86,#830);
#899=ORIENTED_EDGE('',*,*,#900,.T.);
#900=EDGE_CURVE('',#895,#373,#901,.T.);
#901=LINE('',#896,#27);
#902=PLANE('',#903);
#903=AXIS2_PLACEMENT_3D('',#904,#86,#13);
#904=CARTESIAN_POINT('',(-1.069123385139,-0.7,0.441695635315));
#905=ADVANCED_FACE('',(#906),#313,.F.);
#906=FACE_BOUND('',#907,.F.);
#907=EDGE_LOOP('',(#908,#909,#913,#914));
#908=ORIENTED_EDGE('',*,*,#385,.T.);
#909=ORIENTED_EDGE('',*,*,#910,.T.);
#910=EDGE_CURVE('',#380,#623,#911,.T.);
#911=LINE('',#912,#27);
#912=CARTESIAN_POINT('',(-0.85,-0.25,0.9));
#913=ORIENTED_EDGE('',*,*,#622,.F.);
#914=ORIENTED_EDGE('',*,*,#915,.F.);
#915=EDGE_CURVE('',#373,#619,#901,.T.);
#916=ADVANCED_FACE('',(#917),#973,.F.);
#917=FACE_BOUND('',#918,.F.);
#918=EDGE_LOOP('',(#919,#920,#921,#928,#933,#940,#945,#950,#955,#961,#966,#971));
#919=ORIENTED_EDGE('',*,*,#379,.F.);
#920=ORIENTED_EDGE('',*,*,#390,.T.);
#921=ORIENTED_EDGE('',*,*,#922,.T.);
#922=EDGE_CURVE('',#391,#923,#925,.T.);
#923=VERTEX_POINT('',#924);
#924=CARTESIAN_POINT('',(-0.948480775301,-0.25,0.667364817767));
#925=CIRCLE('',#926,0.1);
#926=AXIS2_PLACEMENT_3D('',#927,#58,#13);
#927=CARTESIAN_POINT('',(-0.85,-0.25,0.65));
#928=ORIENTED_EDGE('',*,*,#929,.T.);
#929=EDGE_CURVE('',#923,#930,#932,.T.);
#930=VERTEX_POINT('',#931);
#931=CARTESIAN_POINT('',(-1.02432885403,-0.25,0.206587955583));
#932=LINE('',#924,#787);
#933=ORIENTED_EDGE('',*,*,#934,.T.);
#934=EDGE_CURVE('',#930,#935,#937,.T.);
#935=VERTEX_POINT('',#936);
#936=CARTESIAN_POINT('',(-1.270530792283,-0.25,0.));
#937=CIRCLE('',#938,0.25);
#938=AXIS2_PLACEMENT_3D('',#939,#86,#796);
#939=CARTESIAN_POINT('',(-1.270530792283,-0.25,0.25));
#940=ORIENTED_EDGE('',*,*,#941,.T.);
#941=EDGE_CURVE('',#935,#942,#944,.T.);
#942=VERTEX_POINT('',#943);
#943=CARTESIAN_POINT('',(-1.4,-0.25,0.));
#944=LINE('',#936,#71);
#945=ORIENTED_EDGE('',*,*,#946,.T.);
#946=EDGE_CURVE('',#942,#947,#949,.T.);
#947=VERTEX_POINT('',#948);
#948=CARTESIAN_POINT('',(-1.4,-0.25,0.15));
#949=LINE('',#943,#342);
#950=ORIENTED_EDGE('',*,*,#951,.T.);
#951=EDGE_CURVE('',#947,#952,#954,.T.);
#952=VERTEX_POINT('',#953);
#953=CARTESIAN_POINT('',(-1.270530792283,-0.25,0.15));
#954=LINE('',#948,#27);
#955=ORIENTED_EDGE('',*,*,#956,.T.);
#956=EDGE_CURVE('',#952,#957,#959,.T.);
#957=VERTEX_POINT('',#958);
#958=CARTESIAN_POINT('',(-1.172050016982,-0.25,0.232635182233));
#959=CIRCLE('',#960,1.E-01);
#960=AXIS2_PLACEMENT_3D('',#939,#58,#316);
#961=ORIENTED_EDGE('',*,*,#962,.T.);
#962=EDGE_CURVE('',#957,#963,#965,.T.);
#963=VERTEX_POINT('',#964);
#964=CARTESIAN_POINT('',(-1.096201938253,-0.25,0.693412044417));
#965=LINE('',#958,#823);
#966=ORIENTED_EDGE('',*,*,#967,.T.);
#967=EDGE_CURVE('',#963,#968,#969,.T.);
#968=VERTEX_POINT('',#912);
#969=CIRCLE('',#970,0.25);
#970=AXIS2_PLACEMENT_3D('',#927,#86,#830);
#971=ORIENTED_EDGE('',*,*,#972,.T.);
#972=EDGE_CURVE('',#968,#380,#911,.T.);
#973=PLANE('',#974);
#974=AXIS2_PLACEMENT_3D('',#975,#86,#13);
#975=CARTESIAN_POINT('',(-1.069123385139,-0.25,0.441695635315));
#976=ADVANCED_FACE('',(#977),#991,.F.);
#977=FACE_BOUND('',#978,.F.);
#978=EDGE_LOOP('',(#979,#980,#987,#990));
#979=ORIENTED_EDGE('',*,*,#403,.T.);
#980=ORIENTED_EDGE('',*,*,#981,.T.);
#981=EDGE_CURVE('',#398,#982,#984,.T.);
#982=VERTEX_POINT('',#983);
#983=CARTESIAN_POINT('',(-0.948480775301,0.25,0.667364817767));
#984=CIRCLE('',#985,0.1);
#985=AXIS2_PLACEMENT_3D('',#986,#58,#13);
#986=CARTESIAN_POINT('',(-0.85,0.25,0.65));
#987=ORIENTED_EDGE('',*,*,#988,.F.);
#988=EDGE_CURVE('',#923,#982,#989,.T.);
#989=LINE('',#924,#85);
#990=ORIENTED_EDGE('',*,*,#922,.F.);
#991=CYLINDRICAL_SURFACE('',#926,0.1);
#992=ADVANCED_FACE('',(#993),#1042,.T.);
#993=FACE_BOUND('',#994,.T.);
#994=EDGE_LOOP('',(#410,#396,#980,#995,#1000,#1007,#1012,#1017,#1022,#1028,#1033,#1039));
#995=ORIENTED_EDGE('',*,*,#996,.T.);
#996=EDGE_CURVE('',#982,#997,#999,.T.);
#997=VERTEX_POINT('',#998);
#998=CARTESIAN_POINT('',(-1.02432885403,0.25,0.206587955583));
#999=LINE('',#983,#787);
#1000=ORIENTED_EDGE('',*,*,#1001,.T.);
#1001=EDGE_CURVE('',#997,#1002,#1004,.T.);
#1002=VERTEX_POINT('',#1003);
#1003=CARTESIAN_POINT('',(-1.270530792283,0.25,0.));
#1004=CIRCLE('',#1005,0.25);
#1005=AXIS2_PLACEMENT_3D('',#1006,#86,#796);
#1006=CARTESIAN_POINT('',(-1.270530792283,0.25,0.25));
#1007=ORIENTED_EDGE('',*,*,#1008,.T.);
#1008=EDGE_CURVE('',#1002,#1009,#1011,.T.);
#1009=VERTEX_POINT('',#1010);
#1010=CARTESIAN_POINT('',(-1.4,0.25,0.));
#1011=LINE('',#1003,#71);
#1012=ORIENTED_EDGE('',*,*,#1013,.T.);
#1013=EDGE_CURVE('',#1009,#1014,#1016,.T.);
#1014=VERTEX_POINT('',#1015);
#1015=CARTESIAN_POINT('',(-1.4,0.25,0.15));
#1016=LINE('',#1010,#342);
#1017=ORIENTED_EDGE('',*,*,#1018,.T.);
#1018=EDGE_CURVE('',#1014,#1019,#1021,.T.);
#1019=VERTEX_POINT('',#1020);
#1020=CARTESIAN_POINT('',(-1.270530792283,0.25,0.15));
#1021=LINE('',#1015,#27);
#1022=ORIENTED_EDGE('',*,*,#1023,.T.);
#1023=EDGE_CURVE('',#1019,#1024,#1026,.T.);
#1024=VERTEX_POINT('',#1025);
#1025=CARTESIAN_POINT('',(-1.172050016982,0.25,0.232635182233));
#1026=CIRCLE('',#1027,1.E-01);
#1027=AXIS2_PLACEMENT_3D('',#1006,#58,#316);
#1028=ORIENTED_EDGE('',*,*,#1029,.T.);
#1029=EDGE_CURVE('',#1024,#1030,#1032,.T.);
#1030=VERTEX_POINT('',#1031);
#1031=CARTESIAN_POINT('',(-1.096201938253,0.25,0.693412044417));
#1032=LINE('',#1025,#823);
#1033=ORIENTED_EDGE('',*,*,#1034,.T.);
#1034=EDGE_CURVE('',#1030,#1035,#1037,.T.);
#1035=VERTEX_POINT('',#1036);
#1036=CARTESIAN_POINT('',(-0.85,0.25,0.9));
#1037=CIRCLE('',#1038,0.25);
#1038=AXIS2_PLACEMENT_3D('',#986,#86,#830);
#1039=ORIENTED_EDGE('',*,*,#1040,.T.);
#1040=EDGE_CURVE('',#1035,#412,#1041,.T.);
#1041=LINE('',#1036,#27);
#1042=PLANE('',#1043);
#1043=AXIS2_PLACEMENT_3D('',#1044,#86,#13);
#1044=CARTESIAN_POINT('',(-1.069123385139,0.25,0.441695635315));
#1045=ADVANCED_FACE('',(#1046),#313,.F.);
#1046=FACE_BOUND('',#1047,.F.);
#1047=EDGE_LOOP('',(#1048,#1049,#1050,#1051));
#1048=ORIENTED_EDGE('',*,*,#424,.T.);
#1049=ORIENTED_EDGE('',*,*,#606,.T.);
#1050=ORIENTED_EDGE('',*,*,#630,.F.);
#1051=ORIENTED_EDGE('',*,*,#1052,.F.);
#1052=EDGE_CURVE('',#412,#627,#1041,.T.);
#1053=ADVANCED_FACE('',(#1054),#1108,.F.);
#1054=FACE_BOUND('',#1055,.F.);
#1055=EDGE_LOOP('',(#1056,#1057,#1058,#1065,#1070,#1077,#1082,#1087,#1092,#1098,#1103,#1107));
#1056=ORIENTED_EDGE('',*,*,#418,.F.);
#1057=ORIENTED_EDGE('',*,*,#429,.T.);
#1058=ORIENTED_EDGE('',*,*,#1059,.T.);
#1059=EDGE_CURVE('',#430,#1060,#1062,.T.);
#1060=VERTEX_POINT('',#1061);
#1061=CARTESIAN_POINT('',(-0.948480775301,0.7,0.667364817767));
#1062=CIRCLE('',#1063,0.1);
#1063=AXIS2_PLACEMENT_3D('',#1064,#58,#13);
#1064=CARTESIAN_POINT('',(-0.85,0.7,0.65));
#1065=ORIENTED_EDGE('',*,*,#1066,.T.);
#1066=EDGE_CURVE('',#1060,#1067,#1069,.T.);
#1067=VERTEX_POINT('',#1068);
#1068=CARTESIAN_POINT('',(-1.02432885403,0.7,0.206587955583));
#1069=LINE('',#1061,#787);
#1070=ORIENTED_EDGE('',*,*,#1071,.T.);
#1071=EDGE_CURVE('',#1067,#1072,#1074,.T.);
#1072=VERTEX_POINT('',#1073);
#1073=CARTESIAN_POINT('',(-1.270530792283,0.7,0.));
#1074=CIRCLE('',#1075,0.25);
#1075=AXIS2_PLACEMENT_3D('',#1076,#86,#796);
#1076=CARTESIAN_POINT('',(-1.270530792283,0.7,0.25));
#1077=ORIENTED_EDGE('',*,*,#1078,.T.);
#1078=EDGE_CURVE('',#1072,#1079,#1081,.T.);
#1079=VERTEX_POINT('',#1080);
#1080=CARTESIAN_POINT('',(-1.4,0.7,0.));
#1081=LINE('',#1073,#71);
#1082=ORIENTED_EDGE('',*,*,#1083,.T.);
#1083=EDGE_CURVE('',#1079,#1084,#1086,.T.);
#1084=VERTEX_POINT('',#1085);
#1085=CARTESIAN_POINT('',(-1.4,0.7,0.15));
#1086=LINE('',#1080,#342);
#1087=ORIENTED_EDGE('',*,*,#1088,.T.);
#1088=EDGE_CURVE('',#1084,#1089,#1091,.T.);
#1089=VERTEX_POINT('',#1090);
#1090=CARTESIAN_POINT('',(-1.270530792283,0.7,0.15));
#1091=LINE('',#1085,#27);
#1092=ORIENTED_EDGE('',*,*,#1093,.T.);
#1093=EDGE_CURVE('',#1089,#1094,#1096,.T.);
#1094=VERTEX_POINT('',#1095);
#1095=CARTESIAN_POINT('',(-1.172050016982,0.7,0.232635182233));
#1096=CIRCLE('',#1097,1.E-01);
#1097=AXIS2_PLACEMENT_3D('',#1076,#58,#316);
#1098=ORIENTED_EDGE('',*,*,#1099,.T.);
#1099=EDGE_CURVE('',#1094,#1100,#1102,.T.);
#1100=VERTEX_POINT('',#1101);
#1101=CARTESIAN_POINT('',(-1.096201938253,0.7,0.693412044417));
#1102=LINE('',#1095,#823);
#1103=ORIENTED_EDGE('',*,*,#1104,.T.);
#1104=EDGE_CURVE('',#1100,#591,#1105,.T.);
#1105=CIRCLE('',#1106,0.25);
#1106=AXIS2_PLACEMENT_3D('',#1064,#86,#830);
#1107=ORIENTED_EDGE('',*,*,#590,.T.);
#1108=PLANE('',#1109);
#1109=AXIS2_PLACEMENT_3D('',#1110,#86,#13);
#1110=CARTESIAN_POINT('',(-1.069123385139,0.7,0.441695635315));
#1111=ADVANCED_FACE('',(#1112),#1126,.F.);
#1112=FACE_BOUND('',#1113,.F.);
#1113=EDGE_LOOP('',(#1114,#1115,#1122,#1125));
#1114=ORIENTED_EDGE('',*,*,#442,.T.);
#1115=ORIENTED_EDGE('',*,*,#1116,.T.);
#1116=EDGE_CURVE('',#437,#1117,#1119,.T.);
#1117=VERTEX_POINT('',#1118);
#1118=CARTESIAN_POINT('',(-0.948480775301,1.2,0.667364817767));
#1119=CIRCLE('',#1120,0.1);
#1120=AXIS2_PLACEMENT_3D('',#1121,#58,#13);
#1121=CARTESIAN_POINT('',(-0.85,1.2,0.65));
#1122=ORIENTED_EDGE('',*,*,#1123,.F.);
#1123=EDGE_CURVE('',#1060,#1117,#1124,.T.);
#1124=LINE('',#1061,#85);
#1125=ORIENTED_EDGE('',*,*,#1059,.F.);
#1126=CYLINDRICAL_SURFACE('',#1063,0.1);
#1127=ADVANCED_FACE('',(#1128),#1172,.T.);
#1128=FACE_BOUND('',#1129,.T.);
#1129=EDGE_LOOP('',(#449,#435,#1115,#1130,#1135,#1142,#1147,#1152,#1157,#1163,#1168,#598));
#1130=ORIENTED_EDGE('',*,*,#1131,.T.);
#1131=EDGE_CURVE('',#1117,#1132,#1134,.T.);
#1132=VERTEX_POINT('',#1133);
#1133=CARTESIAN_POINT('',(-1.02432885403,1.2,0.206587955583));
#1134=LINE('',#1118,#787);
#1135=ORIENTED_EDGE('',*,*,#1136,.T.);
#1136=EDGE_CURVE('',#1132,#1137,#1139,.T.);
#1137=VERTEX_POINT('',#1138);
#1138=CARTESIAN_POINT('',(-1.270530792283,1.2,0.));
#1139=CIRCLE('',#1140,0.25);
#1140=AXIS2_PLACEMENT_3D('',#1141,#86,#796);
#1141=CARTESIAN_POINT('',(-1.270530792283,1.2,0.25));
#1142=ORIENTED_EDGE('',*,*,#1143,.T.);
#1143=EDGE_CURVE('',#1137,#1144,#1146,.T.);
#1144=VERTEX_POINT('',#1145);
#1145=CARTESIAN_POINT('',(-1.4,1.2,0.));
#1146=LINE('',#1138,#71);
#1147=ORIENTED_EDGE('',*,*,#1148,.T.);
#1148=EDGE_CURVE('',#1144,#1149,#1151,.T.);
#1149=VERTEX_POINT('',#1150);
#1150=CARTESIAN_POINT('',(-1.4,1.2,0.15));
#1151=LINE('',#1145,#342);
#1152=ORIENTED_EDGE('',*,*,#1153,.T.);
#1153=EDGE_CURVE('',#1149,#1154,#1156,.T.);
#1154=VERTEX_POINT('',#1155);
#1155=CARTESIAN_POINT('',(-1.270530792283,1.2,0.15));
#1156=LINE('',#1150,#27);
#1157=ORIENTED_EDGE('',*,*,#1158,.T.);
#1158=EDGE_CURVE('',#1154,#1159,#1161,.T.);
#1159=VERTEX_POINT('',#1160);
#1160=CARTESIAN_POINT('',(-1.172050016982,1.2,0.232635182233));
#1161=CIRCLE('',#1162,1.E-01);
#1162=AXIS2_PLACEMENT_3D('',#1141,#58,#316);
#1163=ORIENTED_EDGE('',*,*,#1164,.T.);
#1164=EDGE_CURVE('',#1159,#1165,#1167,.T.);
#1165=VERTEX_POINT('',#1166);
#1166=CARTESIAN_POINT('',(-1.096201938253,1.2,0.693412044417));
#1167=LINE('',#1160,#823);
#1168=ORIENTED_EDGE('',*,*,#1169,.T.);
#1169=EDGE_CURVE('',#1165,#596,#1170,.T.);
#1170=CIRCLE('',#1171,0.25);
#1171=AXIS2_PLACEMENT_3D('',#1121,#86,#830);
#1172=PLANE('',#1173);
#1173=AXIS2_PLACEMENT_3D('',#1174,#86,#13);
#1174=CARTESIAN_POINT('',(-1.069123385139,1.2,0.441695635315));
#1175=ADVANCED_FACE('',(#1176),#1236,.F.);
#1176=FACE_BOUND('',#1177,.F.);
#1177=EDGE_LOOP('',(#1178,#1179,#1180,#1187,#1194,#1202,#1207,#1212,#1217,#1223,#1230,#1235));
#1178=ORIENTED_EDGE('',*,*,#462,.F.);
#1179=ORIENTED_EDGE('',*,*,#472,.T.);
#1180=ORIENTED_EDGE('',*,*,#1181,.T.);
#1181=EDGE_CURVE('',#473,#1182,#1184,.T.);
#1182=VERTEX_POINT('',#1183);
#1183=CARTESIAN_POINT('',(0.948480775301,1.2,0.667364817767));
#1184=CIRCLE('',#1185,0.1);
#1185=AXIS2_PLACEMENT_3D('',#1186,#86,#13);
#1186=CARTESIAN_POINT('',(0.85,1.2,0.65));
#1187=ORIENTED_EDGE('',*,*,#1188,.T.);
#1188=EDGE_CURVE('',#1182,#1189,#1191,.T.);
#1189=VERTEX_POINT('',#1190);
#1190=CARTESIAN_POINT('',(1.02432885403,1.2,0.206587955583));
#1191=LINE('',#1183,#1192);
#1192=VECTOR('',#1193,1.);
#1193=DIRECTION('',(0.162423314012,1.803261029519E-17,-0.986721169868));
#1194=ORIENTED_EDGE('',*,*,#1195,.T.);
#1195=EDGE_CURVE('',#1189,#1196,#1198,.T.);
#1196=VERTEX_POINT('',#1197);
#1197=CARTESIAN_POINT('',(1.270530792283,1.2,0.));
#1198=CIRCLE('',#1199,0.25);
#1199=AXIS2_PLACEMENT_3D('',#1200,#58,#1201);
#1200=CARTESIAN_POINT('',(1.270530792283,1.2,0.25));
#1201=DIRECTION('',(-0.984807753012,-1.093356242224E-16,-0.173648177667));
#1202=ORIENTED_EDGE('',*,*,#1203,.T.);
#1203=EDGE_CURVE('',#1196,#1204,#1206,.T.);
#1204=VERTEX_POINT('',#1205);
#1205=CARTESIAN_POINT('',(1.4,1.2,0.));
#1206=LINE('',#1197,#27);
#1207=ORIENTED_EDGE('',*,*,#1208,.T.);
#1208=EDGE_CURVE('',#1204,#1209,#1211,.T.);
#1209=VERTEX_POINT('',#1210);
#1210=CARTESIAN_POINT('',(1.4,1.2,0.15));
#1211=LINE('',#1205,#342);
#1212=ORIENTED_EDGE('',*,*,#1213,.T.);
#1213=EDGE_CURVE('',#1209,#1214,#1216,.T.);
#1214=VERTEX_POINT('',#1215);
#1215=CARTESIAN_POINT('',(1.270530792283,1.2,0.15));
#1216=LINE('',#1210,#71);
#1217=ORIENTED_EDGE('',*,*,#1218,.T.);
#1218=EDGE_CURVE('',#1214,#1219,#1221,.T.);
#1219=VERTEX_POINT('',#1220);
#1220=CARTESIAN_POINT('',(1.172050016982,1.2,0.232635182233));
#1221=CIRCLE('',#1222,1.E-01);
#1222=AXIS2_PLACEMENT_3D('',#1200,#86,#316);
#1223=ORIENTED_EDGE('',*,*,#1224,.T.);
#1224=EDGE_CURVE('',#1219,#1225,#1227,.T.);
#1225=VERTEX_POINT('',#1226);
#1226=CARTESIAN_POINT('',(1.096201938253,1.2,0.693412044417));
#1227=LINE('',#1220,#1228);
#1228=VECTOR('',#1229,1.);
#1229=DIRECTION('',(-0.162423314012,-1.803261029519E-17,0.986721169868));
#1230=ORIENTED_EDGE('',*,*,#1231,.T.);
#1231=EDGE_CURVE('',#1225,#724,#1232,.T.);
#1232=CIRCLE('',#1233,0.25);
#1233=AXIS2_PLACEMENT_3D('',#1186,#58,#1234);
#1234=DIRECTION('',(0.984807753012,1.093356242224E-16,0.173648177667));
#1235=ORIENTED_EDGE('',*,*,#723,.T.);
#1236=PLANE('',#1237);
#1237=AXIS2_PLACEMENT_3D('',#1238,#58,#13);
#1238=CARTESIAN_POINT('',(1.069123385139,1.2,0.441695635315));
#1239=ADVANCED_FACE('',(#1240),#1254,.F.);
#1240=FACE_BOUND('',#1241,.F.);
#1241=EDGE_LOOP('',(#1242,#1243,#1250,#1253));
#1242=ORIENTED_EDGE('',*,*,#485,.T.);
#1243=ORIENTED_EDGE('',*,*,#1244,.T.);
#1244=EDGE_CURVE('',#480,#1245,#1247,.T.);
#1245=VERTEX_POINT('',#1246);
#1246=CARTESIAN_POINT('',(0.948480775301,0.7,0.667364817767));
#1247=CIRCLE('',#1248,0.1);
#1248=AXIS2_PLACEMENT_3D('',#1249,#86,#13);
#1249=CARTESIAN_POINT('',(0.85,0.7,0.65));
#1250=ORIENTED_EDGE('',*,*,#1251,.F.);
#1251=EDGE_CURVE('',#1182,#1245,#1252,.T.);
#1252=LINE('',#1183,#57);
#1253=ORIENTED_EDGE('',*,*,#1181,.F.);
#1254=CYLINDRICAL_SURFACE('',#1185,0.1);
#1255=ADVANCED_FACE('',(#1256),#1300,.T.);
#1256=FACE_BOUND('',#1257,.T.);
#1257=EDGE_LOOP('',(#492,#478,#1243,#1258,#1263,#1270,#1275,#1280,#1285,#1291,#1296,#730));
#1258=ORIENTED_EDGE('',*,*,#1259,.T.);
#1259=EDGE_CURVE('',#1245,#1260,#1262,.T.);
#1260=VERTEX_POINT('',#1261);
#1261=CARTESIAN_POINT('',(1.02432885403,0.7,0.206587955583));
#1262=LINE('',#1246,#1192);
#1263=ORIENTED_EDGE('',*,*,#1264,.T.);
#1264=EDGE_CURVE('',#1260,#1265,#1267,.T.);
#1265=VERTEX_POINT('',#1266);
#1266=CARTESIAN_POINT('',(1.270530792283,0.7,0.));
#1267=CIRCLE('',#1268,0.25);
#1268=AXIS2_PLACEMENT_3D('',#1269,#58,#1201);
#1269=CARTESIAN_POINT('',(1.270530792283,0.7,0.25));
#1270=ORIENTED_EDGE('',*,*,#1271,.T.);
#1271=EDGE_CURVE('',#1265,#1272,#1274,.T.);
#1272=VERTEX_POINT('',#1273);
#1273=CARTESIAN_POINT('',(1.4,0.7,0.));
#1274=LINE('',#1266,#27);
#1275=ORIENTED_EDGE('',*,*,#1276,.T.);
#1276=EDGE_CURVE('',#1272,#1277,#1279,.T.);
#1277=VERTEX_POINT('',#1278);
#1278=CARTESIAN_POINT('',(1.4,0.7,0.15));
#1279=LINE('',#1273,#342);
#1280=ORIENTED_EDGE('',*,*,#1281,.T.);
#1281=EDGE_CURVE('',#1277,#1282,#1284,.T.);
#1282=VERTEX_POINT('',#1283);
#1283=CARTESIAN_POINT('',(1.270530792283,0.7,0.15));
#1284=LINE('',#1278,#71);
#1285=ORIENTED_EDGE('',*,*,#1286,.T.);
#1286=EDGE_CURVE('',#1282,#1287,#1289,.T.);
#1287=VERTEX_POINT('',#1288);
#1288=CARTESIAN_POINT('',(1.172050016982,0.7,0.232635182233));
#1289=CIRCLE('',#1290,1.E-01);
#1290=AXIS2_PLACEMENT_3D('',#1269,#86,#316);
#1291=ORIENTED_EDGE('',*,*,#1292,.T.);
#1292=EDGE_CURVE('',#1287,#1293,#1295,.T.);
#1293=VERTEX_POINT('',#1294);
#1294=CARTESIAN_POINT('',(1.096201938253,0.7,0.693412044417));
#1295=LINE('',#1288,#1228);
#1296=ORIENTED_EDGE('',*,*,#1297,.T.);
#1297=EDGE_CURVE('',#1293,#727,#1298,.T.);
#1298=CIRCLE('',#1299,0.25);
#1299=AXIS2_PLACEMENT_3D('',#1249,#58,#1234);
#1300=PLANE('',#1301);
#1301=AXIS2_PLACEMENT_3D('',#1302,#58,#13);
#1302=CARTESIAN_POINT('',(1.069123385139,0.7,0.441695635315));
#1303=ADVANCED_FACE('',(#1304),#313,.F.);
#1304=FACE_BOUND('',#1305,.F.);
#1305=EDGE_LOOP('',(#1306,#1307,#1308,#1312));
#1306=ORIENTED_EDGE('',*,*,#734,.F.);
#1307=ORIENTED_EDGE('',*,*,#506,.T.);
#1308=ORIENTED_EDGE('',*,*,#1309,.T.);
#1309=EDGE_CURVE('',#501,#699,#1310,.T.);
#1310=LINE('',#1311,#71);
#1311=CARTESIAN_POINT('',(0.85,-0.7,0.9));
#1312=ORIENTED_EDGE('',*,*,#698,.F.);
#1313=ADVANCED_FACE('',(#1314),#1370,.F.);
#1314=FACE_BOUND('',#1315,.F.);
#1315=EDGE_LOOP('',(#1316,#1317,#1318,#1325,#1330,#1337,#1342,#1347,#1352,#1358,#1363,#1368));
#1316=ORIENTED_EDGE('',*,*,#500,.F.);
#1317=ORIENTED_EDGE('',*,*,#511,.T.);
#1318=ORIENTED_EDGE('',*,*,#1319,.T.);
#1319=EDGE_CURVE('',#512,#1320,#1322,.T.);
#1320=VERTEX_POINT('',#1321);
#1321=CARTESIAN_POINT('',(0.948480775301,-0.7,0.667364817767));
#1322=CIRCLE('',#1323,0.1);
#1323=AXIS2_PLACEMENT_3D('',#1324,#86,#13);
#1324=CARTESIAN_POINT('',(0.85,-0.7,0.65));
#1325=ORIENTED_EDGE('',*,*,#1326,.T.);
#1326=EDGE_CURVE('',#1320,#1327,#1329,.T.);
#1327=VERTEX_POINT('',#1328);
#1328=CARTESIAN_POINT('',(1.02432885403,-0.7,0.206587955583));
#1329=LINE('',#1321,#1192);
#1330=ORIENTED_EDGE('',*,*,#1331,.T.);
#1331=EDGE_CURVE('',#1327,#1332,#1334,.T.);
#1332=VERTEX_POINT('',#1333);
#1333=CARTESIAN_POINT('',(1.270530792283,-0.7,0.));
#1334=CIRCLE('',#1335,0.25);
#1335=AXIS2_PLACEMENT_3D('',#1336,#58,#1201);
#1336=CARTESIAN_POINT('',(1.270530792283,-0.7,0.25));
#1337=ORIENTED_EDGE('',*,*,#1338,.T.);
#1338=EDGE_CURVE('',#1332,#1339,#1341,.T.);
#1339=VERTEX_POINT('',#1340);
#1340=CARTESIAN_POINT('',(1.4,-0.7,0.));
#1341=LINE('',#1333,#27);
#1342=ORIENTED_EDGE('',*,*,#1343,.T.);
#1343=EDGE_CURVE('',#1339,#1344,#1346,.T.);
#1344=VERTEX_POINT('',#1345);
#1345=CARTESIAN_POINT('',(1.4,-0.7,0.15));
#1346=LINE('',#1340,#342);
#1347=ORIENTED_EDGE('',*,*,#1348,.T.);
#1348=EDGE_CURVE('',#1344,#1349,#1351,.T.);
#1349=VERTEX_POINT('',#1350);
#1350=CARTESIAN_POINT('',(1.270530792283,-0.7,0.15));
#1351=LINE('',#1345,#71);
#1352=ORIENTED_EDGE('',*,*,#1353,.T.);
#1353=EDGE_CURVE('',#1349,#1354,#1356,.T.);
#1354=VERTEX_POINT('',#1355);
#1355=CARTESIAN_POINT('',(1.172050016982,-0.7,0.232635182233));
#1356=CIRCLE('',#1357,1.E-01);
#1357=AXIS2_PLACEMENT_3D('',#1336,#86,#316);
#1358=ORIENTED_EDGE('',*,*,#1359,.T.);
#1359=EDGE_CURVE('',#1354,#1360,#1362,.T.);
#1360=VERTEX_POINT('',#1361);
#1361=CARTESIAN_POINT('',(1.096201938253,-0.7,0.693412044417));
#1362=LINE('',#1355,#1228);
#1363=ORIENTED_EDGE('',*,*,#1364,.T.);
#1364=EDGE_CURVE('',#1360,#1365,#1366,.T.);
#1365=VERTEX_POINT('',#1311);
#1366=CIRCLE('',#1367,0.25);
#1367=AXIS2_PLACEMENT_3D('',#1324,#58,#1234);
#1368=ORIENTED_EDGE('',*,*,#1369,.T.);
#1369=EDGE_CURVE('',#1365,#501,#1310,.T.);
#1370=PLANE('',#1371);
#1371=AXIS2_PLACEMENT_3D('',#1372,#58,#13);
#1372=CARTESIAN_POINT('',(1.069123385139,-0.7,0.441695635315));
#1373=ADVANCED_FACE('',(#1374),#1388,.F.);
#1374=FACE_BOUND('',#1375,.F.);
#1375=EDGE_LOOP('',(#1376,#1377,#1384,#1387));
#1376=ORIENTED_EDGE('',*,*,#524,.T.);
#1377=ORIENTED_EDGE('',*,*,#1378,.T.);
#1378=EDGE_CURVE('',#519,#1379,#1381,.T.);
#1379=VERTEX_POINT('',#1380);
#1380=CARTESIAN_POINT('',(0.948480775301,-1.2,0.667364817767));
#1381=CIRCLE('',#1382,0.1);
#1382=AXIS2_PLACEMENT_3D('',#1383,#86,#13);
#1383=CARTESIAN_POINT('',(0.85,-1.2,0.65));
#1384=ORIENTED_EDGE('',*,*,#1385,.F.);
#1385=EDGE_CURVE('',#1320,#1379,#1386,.T.);
#1386=LINE('',#1321,#57);
#1387=ORIENTED_EDGE('',*,*,#1319,.F.);
#1388=CYLINDRICAL_SURFACE('',#1323,0.1);
#1389=ADVANCED_FACE('',(#1390),#1437,.T.);
#1390=FACE_BOUND('',#1391,.T.);
#1391=EDGE_LOOP('',(#531,#517,#1377,#1392,#1397,#1404,#1409,#1414,#1419,#1425,#1430,#1435));
#1392=ORIENTED_EDGE('',*,*,#1393,.T.);
#1393=EDGE_CURVE('',#1379,#1394,#1396,.T.);
#1394=VERTEX_POINT('',#1395);
#1395=CARTESIAN_POINT('',(1.02432885403,-1.2,0.206587955583));
#1396=LINE('',#1380,#1192);
#1397=ORIENTED_EDGE('',*,*,#1398,.T.);
#1398=EDGE_CURVE('',#1394,#1399,#1401,.T.);
#1399=VERTEX_POINT('',#1400);
#1400=CARTESIAN_POINT('',(1.270530792283,-1.2,0.));
#1401=CIRCLE('',#1402,0.25);
#1402=AXIS2_PLACEMENT_3D('',#1403,#58,#1201);
#1403=CARTESIAN_POINT('',(1.270530792283,-1.2,0.25));
#1404=ORIENTED_EDGE('',*,*,#1405,.T.);
#1405=EDGE_CURVE('',#1399,#1406,#1408,.T.);
#1406=VERTEX_POINT('',#1407);
#1407=CARTESIAN_POINT('',(1.4,-1.2,0.));
#1408=LINE('',#1400,#27);
#1409=ORIENTED_EDGE('',*,*,#1410,.T.);
#1410=EDGE_CURVE('',#1406,#1411,#1413,.T.);
#1411=VERTEX_POINT('',#1412);
#1412=CARTESIAN_POINT('',(1.4,-1.2,0.15));
#1413=LINE('',#1407,#342);
#1414=ORIENTED_EDGE('',*,*,#1415,.T.);
#1415=EDGE_CURVE('',#1411,#1416,#1418,.T.);
#1416=VERTEX_POINT('',#1417);
#1417=CARTESIAN_POINT('',(1.270530792283,-1.2,0.15));
#1418=LINE('',#1412,#71);
#1419=ORIENTED_EDGE('',*,*,#1420,.T.);
#1420=EDGE_CURVE('',#1416,#1421,#1423,.T.);
#1421=VERTEX_POINT('',#1422);
#1422=CARTESIAN_POINT('',(1.172050016982,-1.2,0.232635182233));
#1423=CIRCLE('',#1424,1.E-01);
#1424=AXIS2_PLACEMENT_3D('',#1403,#86,#316);
#1425=ORIENTED_EDGE('',*,*,#1426,.T.);
#1426=EDGE_CURVE('',#1421,#1427,#1429,.T.);
#1427=VERTEX_POINT('',#1428);
#1428=CARTESIAN_POINT('',(1.096201938253,-1.2,0.693412044417));
#1429=LINE('',#1422,#1228);
#1430=ORIENTED_EDGE('',*,*,#1431,.T.);
#1431=EDGE_CURVE('',#1427,#1432,#1433,.T.);
#1432=VERTEX_POINT('',#745);
#1433=CIRCLE('',#1434,0.25);
#1434=AXIS2_PLACEMENT_3D('',#1383,#58,#1234);
#1435=ORIENTED_EDGE('',*,*,#1436,.T.);
#1436=EDGE_CURVE('',#1432,#533,#744,.T.);
#1437=PLANE('',#1438);
#1438=AXIS2_PLACEMENT_3D('',#1439,#58,#13);
#1439=CARTESIAN_POINT('',(1.069123385139,-1.2,0.441695635315));
#1440=ADVANCED_FACE('',(#1441),#1448,.T.);
#1441=FACE_BOUND('',#1442,.F.);
#1442=EDGE_LOOP('',(#1443,#1168,#1446,#1447));
#1443=ORIENTED_EDGE('',*,*,#1444,.T.);
#1444=EDGE_CURVE('',#1100,#1165,#1445,.T.);
#1445=LINE('',#1101,#85);
#1446=ORIENTED_EDGE('',*,*,#595,.F.);
#1447=ORIENTED_EDGE('',*,*,#1104,.F.);
#1448=CYLINDRICAL_SURFACE('',#1449,0.25);
#1449=AXIS2_PLACEMENT_3D('',#1064,#58,#830);
#1450=ADVANCED_FACE('',(#1451),#1460,.F.);
#1451=FACE_BOUND('',#1452,.F.);
#1452=EDGE_LOOP('',(#1453,#1454,#899,#1457,#1458,#1459));
#1453=ORIENTED_EDGE('',*,*,#832,.F.);
#1454=ORIENTED_EDGE('',*,*,#1455,.T.);
#1455=EDGE_CURVE('',#827,#895,#1456,.T.);
#1456=LINE('',#754,#85);
#1457=ORIENTED_EDGE('',*,*,#915,.T.);
#1458=ORIENTED_EDGE('',*,*,#618,.F.);
#1459=ORIENTED_EDGE('',*,*,#752,.F.);
#1460=PLANE('',#1461);
#1461=AXIS2_PLACEMENT_3D('',#754,#316,#14);
#1462=ADVANCED_FACE('',(#1463),#1472,.F.);
#1463=FACE_BOUND('',#1464,.F.);
#1464=EDGE_LOOP('',(#1465,#1466,#1039,#1469,#1470,#1471));
#1465=ORIENTED_EDGE('',*,*,#972,.F.);
#1466=ORIENTED_EDGE('',*,*,#1467,.T.);
#1467=EDGE_CURVE('',#968,#1035,#1468,.T.);
#1468=LINE('',#912,#85);
#1469=ORIENTED_EDGE('',*,*,#1052,.T.);
#1470=ORIENTED_EDGE('',*,*,#626,.F.);
#1471=ORIENTED_EDGE('',*,*,#910,.F.);
#1472=PLANE('',#1473);
#1473=AXIS2_PLACEMENT_3D('',#912,#316,#14);
#1474=ADVANCED_FACE('',(#1475,#1490),#1499,.T.);
#1475=FACE_BOUND('',#1476,.T.);
#1476=EDGE_LOOP('',(#670,#656,#638,#1477,#1482,#1487,#714,#684));
#1477=ORIENTED_EDGE('',*,*,#1478,.F.);
#1478=EDGE_CURVE('',#1479,#640,#1481,.T.);
#1479=VERTEX_POINT('',#1480);
#1480=CARTESIAN_POINT('',(-0.646824228722,-1.333648457443,1.55));
#1481=LINE('',#1480,#78);
#1482=ORIENTED_EDGE('',*,*,#1483,.F.);
#1483=EDGE_CURVE('',#1484,#1479,#1486,.T.);
#1484=VERTEX_POINT('',#1485);
#1485=CARTESIAN_POINT('',(0.646824228722,-1.333648457443,1.55));
#1486=LINE('',#1485,#71);
#1487=ORIENTED_EDGE('',*,*,#1488,.F.);
#1488=EDGE_CURVE('',#711,#1484,#1489,.T.);
#1489=LINE('',#712,#64);
#1490=FACE_BOUND('',#1491,.T.);
#1491=EDGE_LOOP('',(#1492));
#1492=ORIENTED_EDGE('',*,*,#1493,.T.);
#1493=EDGE_CURVE('',#1494,#1494,#1496,.T.);
#1494=VERTEX_POINT('',#1495);
#1495=CARTESIAN_POINT('',(-0.483648457443,1.083648457443,1.55));
#1496=CIRCLE('',#1497,5.E-02);
#1497=AXIS2_PLACEMENT_3D('',#1498,#316,#58);
#1498=CARTESIAN_POINT('',(-0.483648457443,1.133648457443,1.55));
#1499=PLANE('',#1500);
#1500=AXIS2_PLACEMENT_3D('',#654,#13,#1501);
#1501=DIRECTION('',(0.436386464522,-0.899759330922,0.));
#1502=ADVANCED_FACE('',(#1503),#1510,.F.);
#1503=FACE_BOUND('',#1504,.F.);
#1504=EDGE_LOOP('',(#1505,#1506,#1477,#1507));
#1505=ORIENTED_EDGE('',*,*,#757,.T.);
#1506=ORIENTED_EDGE('',*,*,#644,.T.);
#1507=ORIENTED_EDGE('',*,*,#1508,.F.);
#1508=EDGE_CURVE('',#758,#1479,#1509,.T.);
#1509=B_SPLINE_CURVE_WITH_KNOTS('',1,(#759,#1480),.UNSPECIFIED.,.F.,.F.,(2,2),(0.,1.),.PIECEWISE_BEZIER_KNOTS.);
#1510=B_SPLINE_SURFACE_WITH_KNOTS('',1,1,((#759,#1480),(#302,#641)),.UNSPECIFIED.,.F.,.F.,.F.,(2,2),(2,2),(0.,0.116672618896),(0.,1.),.PIECEWISE_BEZIER_KNOTS.);
#1511=ADVANCED_FACE('',(#1512),#1521,.F.);
#1512=FACE_BOUND('',#1513,.F.);
#1513=EDGE_LOOP('',(#1514,#1515,#1435,#1518,#1519,#1520));
#1514=ORIENTED_EDGE('',*,*,#1369,.F.);
#1515=ORIENTED_EDGE('',*,*,#1516,.T.);
#1516=EDGE_CURVE('',#1365,#1432,#1517,.T.);
#1517=LINE('',#1311,#57);
#1518=ORIENTED_EDGE('',*,*,#743,.T.);
#1519=ORIENTED_EDGE('',*,*,#702,.F.);
#1520=ORIENTED_EDGE('',*,*,#1309,.F.);
#1521=PLANE('',#1522);
#1522=AXIS2_PLACEMENT_3D('',#1311,#316,#72);
#1523=ADVANCED_FACE('',(#1524),#1531,.F.);
#1524=FACE_BOUND('',#1525,.F.);
#1525=EDGE_LOOP('',(#1526,#1527,#1487,#1530));
#1526=ORIENTED_EDGE('',*,*,#767,.T.);
#1527=ORIENTED_EDGE('',*,*,#1528,.T.);
#1528=EDGE_CURVE('',#763,#1484,#1529,.T.);
#1529=B_SPLINE_CURVE_WITH_KNOTS('',1,(#764,#1485),.UNSPECIFIED.,.F.,.F.,(2,2),(0.,1.),.PIECEWISE_BEZIER_KNOTS.);
#1530=ORIENTED_EDGE('',*,*,#710,.F.);
#1531=B_SPLINE_SURFACE_WITH_KNOTS('',1,1,((#708,#712),(#764,#1485)),.UNSPECIFIED.,.F.,.F.,.F.,(2,2),(2,2),(0.,0.116672618896),(0.,1.),.PIECEWISE_BEZIER_KNOTS.);
#1532=ADVANCED_FACE('',(#1533),#1540,.T.);
#1533=FACE_BOUND('',#1534,.F.);
#1534=EDGE_LOOP('',(#1535,#1296,#1538,#1539));
#1535=ORIENTED_EDGE('',*,*,#1536,.T.);
#1536=EDGE_CURVE('',#1225,#1293,#1537,.T.);
#1537=LINE('',#1226,#57);
#1538=ORIENTED_EDGE('',*,*,#726,.F.);
#1539=ORIENTED_EDGE('',*,*,#1231,.F.);
#1540=CYLINDRICAL_SURFACE('',#1541,0.25);
#1541=AXIS2_PLACEMENT_3D('',#1186,#86,#1234);
#1542=ADVANCED_FACE('',(#1543),#1548,.F.);
#1543=FACE_BOUND('',#1544,.F.);
#1544=EDGE_LOOP('',(#1545,#1546,#1482,#1547));
#1545=ORIENTED_EDGE('',*,*,#762,.T.);
#1546=ORIENTED_EDGE('',*,*,#1508,.T.);
#1547=ORIENTED_EDGE('',*,*,#1528,.F.);
#1548=B_SPLINE_SURFACE_WITH_KNOTS('',1,1,((#764,#1485),(#759,#1480)),.UNSPECIFIED.,.F.,.F.,.F.,(2,2),(2,2),(0.,1.385),(0.,1.),.PIECEWISE_BEZIER_KNOTS.);
#1549=ADVANCED_FACE('',(#1550),#1557,.T.);
#1550=FACE_BOUND('',#1551,.F.);
#1551=EDGE_LOOP('',(#1552,#893,#1555,#1556));
#1552=ORIENTED_EDGE('',*,*,#1553,.T.);
#1553=EDGE_CURVE('',#820,#890,#1554,.T.);
#1554=LINE('',#821,#85);
#1555=ORIENTED_EDGE('',*,*,#1455,.F.);
#1556=ORIENTED_EDGE('',*,*,#826,.F.);
#1557=CYLINDRICAL_SURFACE('',#1558,0.25);
#1558=AXIS2_PLACEMENT_3D('',#781,#58,#830);
#1559=ADVANCED_FACE('',(#1560),#1567,.F.);
#1560=FACE_BOUND('',#1561,.F.);
#1561=EDGE_LOOP('',(#1562,#888,#1565,#1566));
#1562=ORIENTED_EDGE('',*,*,#1563,.T.);
#1563=EDGE_CURVE('',#814,#884,#1564,.T.);
#1564=LINE('',#815,#85);
#1565=ORIENTED_EDGE('',*,*,#1553,.F.);
#1566=ORIENTED_EDGE('',*,*,#819,.F.);
#1567=PLANE('',#1568);
#1568=AXIS2_PLACEMENT_3D('',#815,#1569,#824);
#1569=DIRECTION('',(0.986721169868,-1.129043606572E-17,-0.162423314012));
#1570=ADVANCED_FACE('',(#1571),#1578,.F.);
#1571=FACE_BOUND('',#1572,.F.);
#1572=EDGE_LOOP('',(#1573,#882,#1576,#1577));
#1573=ORIENTED_EDGE('',*,*,#1574,.T.);
#1574=EDGE_CURVE('',#809,#879,#1575,.T.);
#1575=LINE('',#810,#85);
#1576=ORIENTED_EDGE('',*,*,#1563,.F.);
#1577=ORIENTED_EDGE('',*,*,#813,.F.);
#1578=CYLINDRICAL_SURFACE('',#817,1.E-01);
#1579=ADVANCED_FACE('',(#1580),#1587,.F.);
#1580=FACE_BOUND('',#1581,.F.);
#1581=EDGE_LOOP('',(#1582,#877,#1585,#1586));
#1582=ORIENTED_EDGE('',*,*,#1583,.T.);
#1583=EDGE_CURVE('',#804,#874,#1584,.T.);
#1584=LINE('',#805,#85);
#1585=ORIENTED_EDGE('',*,*,#1574,.F.);
#1586=ORIENTED_EDGE('',*,*,#808,.F.);
#1587=PLANE('',#1588);
#1588=AXIS2_PLACEMENT_3D('',#805,#316,#14);
#1589=ADVANCED_FACE('',(#1590),#1597,.F.);
#1590=FACE_BOUND('',#1591,.F.);
#1591=EDGE_LOOP('',(#1592,#872,#1595,#1596));
#1592=ORIENTED_EDGE('',*,*,#1593,.T.);
#1593=EDGE_CURVE('',#799,#869,#1594,.T.);
#1594=LINE('',#800,#85);
#1595=ORIENTED_EDGE('',*,*,#1583,.F.);
#1596=ORIENTED_EDGE('',*,*,#803,.F.);
#1597=PLANE('',#1598);
#1598=AXIS2_PLACEMENT_3D('',#800,#14,#13);
#1599=ADVANCED_FACE('',(#1600),#1607,.F.);
#1600=FACE_BOUND('',#1601,.F.);
#1601=EDGE_LOOP('',(#1602,#867,#1605,#1606));
#1602=ORIENTED_EDGE('',*,*,#1603,.T.);
#1603=EDGE_CURVE('',#791,#862,#1604,.T.);
#1604=LINE('',#792,#85);
#1605=ORIENTED_EDGE('',*,*,#1593,.F.);
#1606=ORIENTED_EDGE('',*,*,#798,.F.);
#1607=PLANE('',#1608);
#1608=AXIS2_PLACEMENT_3D('',#792,#13,#72);
#1609=ADVANCED_FACE('',(#1610),#1617,.T.);
#1610=FACE_BOUND('',#1611,.F.);
#1611=EDGE_LOOP('',(#1612,#860,#1615,#1616));
#1612=ORIENTED_EDGE('',*,*,#1613,.T.);
#1613=EDGE_CURVE('',#784,#857,#1614,.T.);
#1614=LINE('',#785,#85);
#1615=ORIENTED_EDGE('',*,*,#1603,.F.);
#1616=ORIENTED_EDGE('',*,*,#790,.F.);
#1617=CYLINDRICAL_SURFACE('',#1618,0.25);
#1618=AXIS2_PLACEMENT_3D('',#795,#58,#796);
#1619=ADVANCED_FACE('',(#1620),#1625,.F.);
#1620=FACE_BOUND('',#1621,.F.);
#1621=EDGE_LOOP('',(#1622,#855,#1623,#1624));
#1622=ORIENTED_EDGE('',*,*,#848,.T.);
#1623=ORIENTED_EDGE('',*,*,#1613,.F.);
#1624=ORIENTED_EDGE('',*,*,#783,.F.);
#1625=PLANE('',#1626);
#1626=AXIS2_PLACEMENT_3D('',#778,#1627,#788);
#1627=DIRECTION('',(-0.986721169868,1.129043606572E-17,0.162423314012));
#1628=ADVANCED_FACE('',(#1629),#1636,.T.);
#1629=FACE_BOUND('',#1630,.F.);
#1630=EDGE_LOOP('',(#1631,#1033,#1634,#1635));
#1631=ORIENTED_EDGE('',*,*,#1632,.T.);
#1632=EDGE_CURVE('',#963,#1030,#1633,.T.);
#1633=LINE('',#964,#85);
#1634=ORIENTED_EDGE('',*,*,#1467,.F.);
#1635=ORIENTED_EDGE('',*,*,#967,.F.);
#1636=CYLINDRICAL_SURFACE('',#1637,0.25);
#1637=AXIS2_PLACEMENT_3D('',#927,#58,#830);
#1638=ADVANCED_FACE('',(#1639),#1646,.F.);
#1639=FACE_BOUND('',#1640,.F.);
#1640=EDGE_LOOP('',(#1641,#1028,#1644,#1645));
#1641=ORIENTED_EDGE('',*,*,#1642,.T.);
#1642=EDGE_CURVE('',#957,#1024,#1643,.T.);
#1643=LINE('',#958,#85);
#1644=ORIENTED_EDGE('',*,*,#1632,.F.);
#1645=ORIENTED_EDGE('',*,*,#962,.F.);
#1646=PLANE('',#1647);
#1647=AXIS2_PLACEMENT_3D('',#958,#1569,#824);
#1648=ADVANCED_FACE('',(#1649),#1656,.F.);
#1649=FACE_BOUND('',#1650,.F.);
#1650=EDGE_LOOP('',(#1651,#1022,#1654,#1655));
#1651=ORIENTED_EDGE('',*,*,#1652,.T.);
#1652=EDGE_CURVE('',#952,#1019,#1653,.T.);
#1653=LINE('',#953,#85);
#1654=ORIENTED_EDGE('',*,*,#1642,.F.);
#1655=ORIENTED_EDGE('',*,*,#956,.F.);
#1656=CYLINDRICAL_SURFACE('',#960,1.E-01);
#1657=ADVANCED_FACE('',(#1658),#1665,.F.);
#1658=FACE_BOUND('',#1659,.F.);
#1659=EDGE_LOOP('',(#1660,#1017,#1663,#1664));
#1660=ORIENTED_EDGE('',*,*,#1661,.T.);
#1661=EDGE_CURVE('',#947,#1014,#1662,.T.);
#1662=LINE('',#948,#85);
#1663=ORIENTED_EDGE('',*,*,#1652,.F.);
#1664=ORIENTED_EDGE('',*,*,#951,.F.);
#1665=PLANE('',#1666);
#1666=AXIS2_PLACEMENT_3D('',#948,#316,#14);
#1667=ADVANCED_FACE('',(#1668),#1675,.F.);
#1668=FACE_BOUND('',#1669,.F.);
#1669=EDGE_LOOP('',(#1670,#1012,#1673,#1674));
#1670=ORIENTED_EDGE('',*,*,#1671,.T.);
#1671=EDGE_CURVE('',#942,#1009,#1672,.T.);
#1672=LINE('',#943,#85);
#1673=ORIENTED_EDGE('',*,*,#1661,.F.);
#1674=ORIENTED_EDGE('',*,*,#946,.F.);
#1675=PLANE('',#1676);
#1676=AXIS2_PLACEMENT_3D('',#943,#14,#13);
#1677=ADVANCED_FACE('',(#1678),#1685,.F.);
#1678=FACE_BOUND('',#1679,.F.);
#1679=EDGE_LOOP('',(#1680,#1007,#1683,#1684));
#1680=ORIENTED_EDGE('',*,*,#1681,.T.);
#1681=EDGE_CURVE('',#935,#1002,#1682,.T.);
#1682=LINE('',#936,#85);
#1683=ORIENTED_EDGE('',*,*,#1671,.F.);
#1684=ORIENTED_EDGE('',*,*,#941,.F.);
#1685=PLANE('',#1686);
#1686=AXIS2_PLACEMENT_3D('',#936,#13,#72);
#1687=ADVANCED_FACE('',(#1688),#1695,.T.);
#1688=FACE_BOUND('',#1689,.F.);
#1689=EDGE_LOOP('',(#1690,#1000,#1693,#1694));
#1690=ORIENTED_EDGE('',*,*,#1691,.T.);
#1691=EDGE_CURVE('',#930,#997,#1692,.T.);
#1692=LINE('',#931,#85);
#1693=ORIENTED_EDGE('',*,*,#1681,.F.);
#1694=ORIENTED_EDGE('',*,*,#934,.F.);
#1695=CYLINDRICAL_SURFACE('',#1696,0.25);
#1696=AXIS2_PLACEMENT_3D('',#939,#58,#796);
#1697=ADVANCED_FACE('',(#1698),#1703,.F.);
#1698=FACE_BOUND('',#1699,.F.);
#1699=EDGE_LOOP('',(#1700,#995,#1701,#1702));
#1700=ORIENTED_EDGE('',*,*,#988,.T.);
#1701=ORIENTED_EDGE('',*,*,#1691,.F.);
#1702=ORIENTED_EDGE('',*,*,#929,.F.);
#1703=PLANE('',#1704);
#1704=AXIS2_PLACEMENT_3D('',#924,#1627,#788);
#1705=ADVANCED_FACE('',(#1706),#1713,.F.);
#1706=FACE_BOUND('',#1707,.F.);
#1707=EDGE_LOOP('',(#1708,#1163,#1711,#1712));
#1708=ORIENTED_EDGE('',*,*,#1709,.T.);
#1709=EDGE_CURVE('',#1094,#1159,#1710,.T.);
#1710=LINE('',#1095,#85);
#1711=ORIENTED_EDGE('',*,*,#1444,.F.);
#1712=ORIENTED_EDGE('',*,*,#1099,.F.);
#1713=PLANE('',#1714);
#1714=AXIS2_PLACEMENT_3D('',#1095,#1569,#824);
#1715=ADVANCED_FACE('',(#1716),#1723,.F.);
#1716=FACE_BOUND('',#1717,.F.);
#1717=EDGE_LOOP('',(#1718,#1157,#1721,#1722));
#1718=ORIENTED_EDGE('',*,*,#1719,.T.);
#1719=EDGE_CURVE('',#1089,#1154,#1720,.T.);
#1720=LINE('',#1090,#85);
#1721=ORIENTED_EDGE('',*,*,#1709,.F.);
#1722=ORIENTED_EDGE('',*,*,#1093,.F.);
#1723=CYLINDRICAL_SURFACE('',#1097,1.E-01);
#1724=ADVANCED_FACE('',(#1725),#1732,.F.);
#1725=FACE_BOUND('',#1726,.F.);
#1726=EDGE_LOOP('',(#1727,#1152,#1730,#1731));
#1727=ORIENTED_EDGE('',*,*,#1728,.T.);
#1728=EDGE_CURVE('',#1084,#1149,#1729,.T.);
#1729=LINE('',#1085,#85);
#1730=ORIENTED_EDGE('',*,*,#1719,.F.);
#1731=ORIENTED_EDGE('',*,*,#1088,.F.);
#1732=PLANE('',#1733);
#1733=AXIS2_PLACEMENT_3D('',#1085,#316,#14);
#1734=ADVANCED_FACE('',(#1735),#1742,.F.);
#1735=FACE_BOUND('',#1736,.F.);
#1736=EDGE_LOOP('',(#1737,#1147,#1740,#1741));
#1737=ORIENTED_EDGE('',*,*,#1738,.T.);
#1738=EDGE_CURVE('',#1079,#1144,#1739,.T.);
#1739=LINE('',#1080,#85);
#1740=ORIENTED_EDGE('',*,*,#1728,.F.);
#1741=ORIENTED_EDGE('',*,*,#1083,.F.);
#1742=PLANE('',#1743);
#1743=AXIS2_PLACEMENT_3D('',#1080,#14,#13);
#1744=ADVANCED_FACE('',(#1745),#1752,.F.);
#1745=FACE_BOUND('',#1746,.F.);
#1746=EDGE_LOOP('',(#1747,#1142,#1750,#1751));
#1747=ORIENTED_EDGE('',*,*,#1748,.T.);
#1748=EDGE_CURVE('',#1072,#1137,#1749,.T.);
#1749=LINE('',#1073,#85);
#1750=ORIENTED_EDGE('',*,*,#1738,.F.);
#1751=ORIENTED_EDGE('',*,*,#1078,.F.);
#1752=PLANE('',#1753);
#1753=AXIS2_PLACEMENT_3D('',#1073,#13,#72);
#1754=ADVANCED_FACE('',(#1755),#1762,.T.);
#1755=FACE_BOUND('',#1756,.F.);
#1756=EDGE_LOOP('',(#1757,#1135,#1760,#1761));
#1757=ORIENTED_EDGE('',*,*,#1758,.T.);
#1758=EDGE_CURVE('',#1067,#1132,#1759,.T.);
#1759=LINE('',#1068,#85);
#1760=ORIENTED_EDGE('',*,*,#1748,.F.);
#1761=ORIENTED_EDGE('',*,*,#1071,.F.);
#1762=CYLINDRICAL_SURFACE('',#1763,0.25);
#1763=AXIS2_PLACEMENT_3D('',#1076,#58,#796);
#1764=ADVANCED_FACE('',(#1765),#1770,.F.);
#1765=FACE_BOUND('',#1766,.F.);
#1766=EDGE_LOOP('',(#1767,#1130,#1768,#1769));
#1767=ORIENTED_EDGE('',*,*,#1123,.T.);
#1768=ORIENTED_EDGE('',*,*,#1758,.F.);
#1769=ORIENTED_EDGE('',*,*,#1066,.F.);
#1770=PLANE('',#1771);
#1771=AXIS2_PLACEMENT_3D('',#1061,#1627,#788);
#1772=ADVANCED_FACE('',(#1773),#1780,.F.);
#1773=FACE_BOUND('',#1774,.F.);
#1774=EDGE_LOOP('',(#1775,#1291,#1778,#1779));
#1775=ORIENTED_EDGE('',*,*,#1776,.T.);
#1776=EDGE_CURVE('',#1219,#1287,#1777,.T.);
#1777=LINE('',#1220,#57);
#1778=ORIENTED_EDGE('',*,*,#1536,.F.);
#1779=ORIENTED_EDGE('',*,*,#1224,.F.);
#1780=PLANE('',#1781);
#1781=AXIS2_PLACEMENT_3D('',#1220,#1782,#1229);
#1782=DIRECTION('',(-0.986721169868,-1.095480561672E-16,-0.162423314012));
#1783=ADVANCED_FACE('',(#1784),#1791,.F.);
#1784=FACE_BOUND('',#1785,.F.);
#1785=EDGE_LOOP('',(#1786,#1285,#1789,#1790));
#1786=ORIENTED_EDGE('',*,*,#1787,.T.);
#1787=EDGE_CURVE('',#1214,#1282,#1788,.T.);
#1788=LINE('',#1215,#57);
#1789=ORIENTED_EDGE('',*,*,#1776,.F.);
#1790=ORIENTED_EDGE('',*,*,#1218,.F.);
#1791=CYLINDRICAL_SURFACE('',#1222,1.E-01);
#1792=ADVANCED_FACE('',(#1793),#1800,.F.);
#1793=FACE_BOUND('',#1794,.F.);
#1794=EDGE_LOOP('',(#1795,#1280,#1798,#1799));
#1795=ORIENTED_EDGE('',*,*,#1796,.T.);
#1796=EDGE_CURVE('',#1209,#1277,#1797,.T.);
#1797=LINE('',#1210,#57);
#1798=ORIENTED_EDGE('',*,*,#1787,.F.);
#1799=ORIENTED_EDGE('',*,*,#1213,.F.);
#1800=PLANE('',#1801);
#1801=AXIS2_PLACEMENT_3D('',#1210,#316,#72);
#1802=ADVANCED_FACE('',(#1803),#1810,.F.);
#1803=FACE_BOUND('',#1804,.F.);
#1804=EDGE_LOOP('',(#1805,#1275,#1808,#1809));
#1805=ORIENTED_EDGE('',*,*,#1806,.T.);
#1806=EDGE_CURVE('',#1204,#1272,#1807,.T.);
#1807=LINE('',#1205,#57);
#1808=ORIENTED_EDGE('',*,*,#1796,.F.);
#1809=ORIENTED_EDGE('',*,*,#1208,.F.);
#1810=PLANE('',#1811);
#1811=AXIS2_PLACEMENT_3D('',#1205,#72,#13);
#1812=ADVANCED_FACE('',(#1813),#1820,.F.);
#1813=FACE_BOUND('',#1814,.F.);
#1814=EDGE_LOOP('',(#1815,#1270,#1818,#1819));
#1815=ORIENTED_EDGE('',*,*,#1816,.T.);
#1816=EDGE_CURVE('',#1196,#1265,#1817,.T.);
#1817=LINE('',#1197,#57);
#1818=ORIENTED_EDGE('',*,*,#1806,.F.);
#1819=ORIENTED_EDGE('',*,*,#1203,.F.);
#1820=PLANE('',#1821);
#1821=AXIS2_PLACEMENT_3D('',#1197,#13,#14);
#1822=ADVANCED_FACE('',(#1823),#1830,.T.);
#1823=FACE_BOUND('',#1824,.F.);
#1824=EDGE_LOOP('',(#1825,#1263,#1828,#1829));
#1825=ORIENTED_EDGE('',*,*,#1826,.T.);
#1826=EDGE_CURVE('',#1189,#1260,#1827,.T.);
#1827=LINE('',#1190,#57);
#1828=ORIENTED_EDGE('',*,*,#1816,.F.);
#1829=ORIENTED_EDGE('',*,*,#1195,.F.);
#1830=CYLINDRICAL_SURFACE('',#1831,0.25);
#1831=AXIS2_PLACEMENT_3D('',#1200,#86,#1201);
#1832=ADVANCED_FACE('',(#1833),#1838,.F.);
#1833=FACE_BOUND('',#1834,.F.);
#1834=EDGE_LOOP('',(#1835,#1258,#1836,#1837));
#1835=ORIENTED_EDGE('',*,*,#1251,.T.);
#1836=ORIENTED_EDGE('',*,*,#1826,.F.);
#1837=ORIENTED_EDGE('',*,*,#1188,.F.);
#1838=PLANE('',#1839);
#1839=AXIS2_PLACEMENT_3D('',#1183,#1840,#1193);
#1840=DIRECTION('',(0.986721169868,1.095480561672E-16,0.162423314012));
#1841=ADVANCED_FACE('',(#1842),#1849,.T.);
#1842=FACE_BOUND('',#1843,.F.);
#1843=EDGE_LOOP('',(#1844,#1430,#1847,#1848));
#1844=ORIENTED_EDGE('',*,*,#1845,.T.);
#1845=EDGE_CURVE('',#1360,#1427,#1846,.T.);
#1846=LINE('',#1361,#57);
#1847=ORIENTED_EDGE('',*,*,#1516,.F.);
#1848=ORIENTED_EDGE('',*,*,#1364,.F.);
#1849=CYLINDRICAL_SURFACE('',#1850,0.25);
#1850=AXIS2_PLACEMENT_3D('',#1324,#86,#1234);
#1851=ADVANCED_FACE('',(#1852),#1859,.F.);
#1852=FACE_BOUND('',#1853,.F.);
#1853=EDGE_LOOP('',(#1854,#1425,#1857,#1858));
#1854=ORIENTED_EDGE('',*,*,#1855,.T.);
#1855=EDGE_CURVE('',#1354,#1421,#1856,.T.);
#1856=LINE('',#1355,#57);
#1857=ORIENTED_EDGE('',*,*,#1845,.F.);
#1858=ORIENTED_EDGE('',*,*,#1359,.F.);
#1859=PLANE('',#1860);
#1860=AXIS2_PLACEMENT_3D('',#1355,#1782,#1229);
#1861=ADVANCED_FACE('',(#1862),#1869,.F.);
#1862=FACE_BOUND('',#1863,.F.);
#1863=EDGE_LOOP('',(#1864,#1419,#1867,#1868));
#1864=ORIENTED_EDGE('',*,*,#1865,.T.);
#1865=EDGE_CURVE('',#1349,#1416,#1866,.T.);
#1866=LINE('',#1350,#57);
#1867=ORIENTED_EDGE('',*,*,#1855,.F.);
#1868=ORIENTED_EDGE('',*,*,#1353,.F.);
#1869=CYLINDRICAL_SURFACE('',#1357,1.E-01);
#1870=ADVANCED_FACE('',(#1871),#1878,.F.);
#1871=FACE_BOUND('',#1872,.F.);
#1872=EDGE_LOOP('',(#1873,#1414,#1876,#1877));
#1873=ORIENTED_EDGE('',*,*,#1874,.T.);
#1874=EDGE_CURVE('',#1344,#1411,#1875,.T.);
#1875=LINE('',#1345,#57);
#1876=ORIENTED_EDGE('',*,*,#1865,.F.);
#1877=ORIENTED_EDGE('',*,*,#1348,.F.);
#1878=PLANE('',#1879);
#1879=AXIS2_PLACEMENT_3D('',#1345,#316,#72);
#1880=ADVANCED_FACE('',(#1881),#1888,.F.);
#1881=FACE_BOUND('',#1882,.F.);
#1882=EDGE_LOOP('',(#1883,#1409,#1886,#1887));
#1883=ORIENTED_EDGE('',*,*,#1884,.T.);
#1884=EDGE_CURVE('',#1339,#1406,#1885,.T.);
#1885=LINE('',#1340,#57);
#1886=ORIENTED_EDGE('',*,*,#1874,.F.);
#1887=ORIENTED_EDGE('',*,*,#1343,.F.);
#1888=PLANE('',#1889);
#1889=AXIS2_PLACEMENT_3D('',#1340,#72,#13);
#1890=ADVANCED_FACE('',(#1891),#1898,.F.);
#1891=FACE_BOUND('',#1892,.F.);
#1892=EDGE_LOOP('',(#1893,#1404,#1896,#1897));
#1893=ORIENTED_EDGE('',*,*,#1894,.T.);
#1894=EDGE_CURVE('',#1332,#1399,#1895,.T.);
#1895=LINE('',#1333,#57);
#1896=ORIENTED_EDGE('',*,*,#1884,.F.);
#1897=ORIENTED_EDGE('',*,*,#1338,.F.);
#1898=PLANE('',#1899);
#1899=AXIS2_PLACEMENT_3D('',#1333,#13,#14);
#1900=ADVANCED_FACE('',(#1901),#1908,.T.);
#1901=FACE_BOUND('',#1902,.F.);
#1902=EDGE_LOOP('',(#1903,#1397,#1906,#1907));
#1903=ORIENTED_EDGE('',*,*,#1904,.T.);
#1904=EDGE_CURVE('',#1327,#1394,#1905,.T.);
#1905=LINE('',#1328,#57);
#1906=ORIENTED_EDGE('',*,*,#1894,.F.);
#1907=ORIENTED_EDGE('',*,*,#1331,.F.);
#1908=CYLINDRICAL_SURFACE('',#1909,0.25);
#1909=AXIS2_PLACEMENT_3D('',#1336,#86,#1201);
#1910=ADVANCED_FACE('',(#1911),#1916,.F.);
#1911=FACE_BOUND('',#1912,.F.);
#1912=EDGE_LOOP('',(#1913,#1392,#1914,#1915));
#1913=ORIENTED_EDGE('',*,*,#1385,.T.);
#1914=ORIENTED_EDGE('',*,*,#1904,.F.);
#1915=ORIENTED_EDGE('',*,*,#1326,.F.);
#1916=PLANE('',#1917);
#1917=AXIS2_PLACEMENT_3D('',#1321,#1840,#1193);
#1918=ADVANCED_FACE('',(#1919),#1922,.F.);
#1919=FACE_BOUND('',#1920,.T.);
#1920=EDGE_LOOP('',(#1921));
#1921=ORIENTED_EDGE('',*,*,#1493,.F.);
#1922=PLANE('',#1497);
#1923=( GEOMETRIC_REPRESENTATION_CONTEXT(3) GLOBAL_UNCERTAINTY_ASSIGNED_CONTEXT((#1927)) GLOBAL_UNIT_ASSIGNED_CONTEXT((#1924,#1925,#1926)) REPRESENTATION_CONTEXT('Context #1','3D Context with UNIT and UNCERTAINTY') );
#1924=( LENGTH_UNIT() NAMED_UNIT(*) SI_UNIT(.MILLI.,.METRE.) );
#1925=( NAMED_UNIT(*) PLANE_ANGLE_UNIT() SI_UNIT($,.RADIAN.) );
#1926=( NAMED_UNIT(*) SI_UNIT($,.STERADIAN.) SOLID_ANGLE_UNIT() );
#1927=UNCERTAINTY_MEASURE_WITH_UNIT(LENGTH_MEASURE(1.E-07),#1924,'distance_accuracy_value','confusion accuracy');
#1928=MECHANICAL_DESIGN_GEOMETRIC_PRESENTATION_REPRESENTATION('',(#1929,#1939,#1940,#1941,#1942,#1943,#1944,#1945,#1946,#1947,#1948,#1949,#1950,#1951,#1952,#1961,#1962,#1963,#1964,#1965,#1966,#1967,#1968,#1969,#1970,#1971,#1972,#1973,#1974,#1975,#1976,#1977,#1978,#1979,#1980,#1981,#1982,#1983,#1984,#1985,#1986,#1987,#1988,#1989,#1990,#1991,#1992,#1993,#1994,#1995,#1996,#1997,#1998,#1999,#2000,#2001,#2002,#2003,#2004,#2005,#2006,#2007,#2008,#2009,#2010,#2011,#2012,#2013,#2014,#2015,#2016,#2017,#2018,#2019,#2020,#2021,#2022,#2023,#2024,#2025,#2026,#2027,#2028,#2029,#2030,#2031,#2032,#2033,#2034,#2035,#2036,#2037,#2038,#2039,#2040,#2041,#2042,#2043,#2044,#2045,#2046,#2047),#1923);
#1929=STYLED_ITEM('color',(#1930),#17);
#1930=PRESENTATION_STYLE_ASSIGNMENT((#1931,#1937));
#1931=SURFACE_STYLE_USAGE(.BOTH.,#1932);
#1932=SURFACE_SIDE_STYLE('',(#1933));
#1933=SURFACE_STYLE_FILL_AREA(#1934);
#1934=FILL_AREA_STYLE('',(#1935));
#1935=FILL_AREA_STYLE_COLOUR('',#1936);
#1936=COLOUR_RGB('',0.147999998088,0.145000001626,0.145000001626);
#1937=CURVE_STYLE('',#1938,POSITIVE_LENGTH_MEASURE(0.1),#1936);
#1938=DRAUGHTING_PRE_DEFINED_CURVE_FONT('continuous');
#1939=STYLED_ITEM('color',(#1930),#42);
#1940=STYLED_ITEM('color',(#1930),#95);
#1941=STYLED_ITEM('color',(#1930),#108);
#1942=STYLED_ITEM('color',(#1930),#127);
#1943=STYLED_ITEM('color',(#1930),#140);
#1944=STYLED_ITEM('color',(#1930),#177);
#1945=STYLED_ITEM('color',(#1930),#206);
#1946=STYLED_ITEM('color',(#1930),#219);
#1947=STYLED_ITEM('color',(#1930),#232);
#1948=STYLED_ITEM('color',(#1930),#241);
#1949=STYLED_ITEM('color',(#1930),#256);
#1950=STYLED_ITEM('color',(#1930),#317);
#1951=STYLED_ITEM('color',(#1930),#328);
#1952=STYLED_ITEM('color',(#1953),#347);
#1953=PRESENTATION_STYLE_ASSIGNMENT((#1954,#1960));
#1954=SURFACE_STYLE_USAGE(.BOTH.,#1955);
#1955=SURFACE_SIDE_STYLE('',(#1956));
#1956=SURFACE_STYLE_FILL_AREA(#1957);
#1957=FILL_AREA_STYLE('',(#1958));
#1958=FILL_AREA_STYLE_COLOUR('',#1959);
#1959=COLOUR_RGB('',0.823999987314,0.819999987296,0.781000009244);
#1960=CURVE_STYLE('',#1938,POSITIVE_LENGTH_MEASURE(0.1),#1959);
#1961=STYLED_ITEM('color',(#1930),#368);
#1962=STYLED_ITEM('color',(#1953),#386);
#1963=STYLED_ITEM('color',(#1930),#407);
#1964=STYLED_ITEM('color',(#1953),#425);
#1965=STYLED_ITEM('color',(#1930),#446);
#1966=STYLED_ITEM('color',(#1930),#456);
#1967=STYLED_ITEM('color',(#1953),#468);
#1968=STYLED_ITEM('color',(#1930),#489);
#1969=STYLED_ITEM('color',(#1953),#507);
#1970=STYLED_ITEM('color',(#1930),#528);
#1971=STYLED_ITEM('color',(#1930),#545);
#1972=STYLED_ITEM('color',(#1930),#560);
#1973=STYLED_ITEM('color',(#1930),#575);
#1974=STYLED_ITEM('color',(#1953),#586);
#1975=STYLED_ITEM('color',(#1930),#609);
#1976=STYLED_ITEM('color',(#1930),#647);
#1977=STYLED_ITEM('color',(#1930),#661);
#1978=STYLED_ITEM('color',(#1930),#675);
#1979=STYLED_ITEM('color',(#1930),#689);
#1980=STYLED_ITEM('color',(#1953),#719);
#1981=STYLED_ITEM('color',(#1930),#739);
#1982=STYLED_ITEM('color',(#1953),#770);
#1983=STYLED_ITEM('color',(#1953),#836);
#1984=STYLED_ITEM('color',(#1953),#852);
#1985=STYLED_ITEM('color',(#1930),#905);
#1986=STYLED_ITEM('color',(#1953),#916);
#1987=STYLED_ITEM('color',(#1953),#976);
#1988=STYLED_ITEM('color',(#1953),#992);
#1989=STYLED_ITEM('color',(#1930),#1045);
#1990=STYLED_ITEM('color',(#1953),#1053);
#1991=STYLED_ITEM('color',(#1953),#1111);
#1992=STYLED_ITEM('color',(#1953),#1127);
#1993=STYLED_ITEM('color',(#1953),#1175);
#1994=STYLED_ITEM('color',(#1953),#1239);
#1995=STYLED_ITEM('color',(#1953),#1255);
#1996=STYLED_ITEM('color',(#1930),#1303);
#1997=STYLED_ITEM('color',(#1953),#1313);
#1998=STYLED_ITEM('color',(#1953),#1373);
#1999=STYLED_ITEM('color',(#1953),#1389);
#2000=STYLED_ITEM('color',(#1953),#1440);
#2001=STYLED_ITEM('color',(#1953),#1450);
#2002=STYLED_ITEM('color',(#1953),#1462);
#2003=STYLED_ITEM('color',(#1930),#1474);
#2004=STYLED_ITEM('color',(#1930),#1502);
#2005=STYLED_ITEM('color',(#1953),#1511);
#2006=STYLED_ITEM('color',(#1930),#1523);
#2007=STYLED_ITEM('color',(#1953),#1532);
#2008=STYLED_ITEM('color',(#1930),#1542);
#2009=STYLED_ITEM('color',(#1953),#1549);
#2010=STYLED_ITEM('color',(#1953),#1559);
#2011=STYLED_ITEM('color',(#1953),#1570);
#2012=STYLED_ITEM('color',(#1953),#1579);
#2013=STYLED_ITEM('color',(#1953),#1589);
#2014=STYLED_ITEM('color',(#1953),#1599);
#2015=STYLED_ITEM('color',(#1953),#1609);
#2016=STYLED_ITEM('color',(#1953),#1619);
#2017=STYLED_ITEM('color',(#1953),#1628);
#2018=STYLED_ITEM('color',(#1953),#1638);
#2019=STYLED_ITEM('color',(#1953),#1648);
#2020=STYLED_ITEM('color',(#1953),#1657);
#2021=STYLED_ITEM('color',(#1953),#1667);
#2022=STYLED_ITEM('color',(#1953),#1677);
#2023=STYLED_ITEM('color',(#1953),#1687);
#2024=STYLED_ITEM('color',(#1953),#1697);
#2025=STYLED_ITEM('color',(#1953),#1705);
#2026=STYLED_ITEM('color',(#1953),#1715);
#2027=STYLED_ITEM('color',(#1953),#1724);
#2028=STYLED_ITEM('color',(#1953),#1734);
#2029=STYLED_ITEM('color',(#1953),#1744);
#2030=STYLED_ITEM('color',(#1953),#1754);
#2031=STYLED_ITEM('color',(#1953),#1764);
#2032=STYLED_ITEM('color',(#1953),#1772);
#2033=STYLED_ITEM('color',(#1953),#1783);
#2034=STYLED_ITEM('color',(#1953),#1792);
#2035=STYLED_ITEM('color',(#1953),#1802);
#2036=STYLED_ITEM('color',(#1953),#1812);
#2037=STYLED_ITEM('color',(#1953),#1822);
#2038=STYLED_ITEM('color',(#1953),#1832);
#2039=STYLED_ITEM('color',(#1953),#1841);
#2040=STYLED_ITEM('color',(#1953),#1851);
#2041=STYLED_ITEM('color',(#1953),#1861);
#2042=STYLED_ITEM('color',(#1953),#1870);
#2043=STYLED_ITEM('color',(#1953),#1880);
#2044=STYLED_ITEM('color',(#1953),#1890);
#2045=STYLED_ITEM('color',(#1953),#1900);
#2046=STYLED_ITEM('color',(#1953),#1910);
#2047=STYLED_ITEM('color',(#2048),#1918);
#2048=PRESENTATION_STYLE_ASSIGNMENT((#2049,#2055));
#2049=SURFACE_STYLE_USAGE(.BOTH.,#2050);
#2050=SURFACE_SIDE_STYLE('',(#2051));
#2051=SURFACE_STYLE_FILL_AREA(#2052);
#2052=FILL_AREA_STYLE('',(#2053));
#2053=FILL_AREA_STYLE_COLOUR('',#2054);
#2054=COLOUR_RGB('',0.690999998585,0.664000007176,0.597999987832);
#2055=CURVE_STYLE('',#1938,POSITIVE_LENGTH_MEASURE(0.1),#2054);
ENDSEC;
END-ISO-10303-21;
