%TF.GenerationSoftware,KiCad,Pcbnew,10.0.6*%
%TF.CreationDate,2026-10-02T21:02:28+07:00*%
%TF.ProjectId,led_ir_driver,6c65645f-6972-45f6-9472-697665722e6b,rev?*%
%TF.SameCoordinates,Original*%
%TF.FileFunction,Soldermask,Top*%
%TF.FilePolarity,Negative*%
%FSLAX46Y46*%
G04 Gerber Fmt 4.6, Leading zero omitted, Abs format (unit mm)*
G04 Created by KiCad (PCBNEW 10.0.6) date 2026-10-02 21:02:28*
%MOMM*%
%LPD*%
G01*
G04 APERTURE LIST*
G04 Aperture macros list*
%AMRoundRect*
0 Rectangle with rounded corners*
0 $1 Rounding radius*
0 $2 $3 $4 $5 $6 $7 $8 $9 X,Y pos of 4 corners*
0 Add a 4 corners polygon primitive as box body*
4,1,4,$2,$3,$4,$5,$6,$7,$8,$9,$2,$3,0*
0 Add four circle primitives for the rounded corners*
1,1,$1+$1,$2,$3*
1,1,$1+$1,$4,$5*
1,1,$1+$1,$6,$7*
1,1,$1+$1,$8,$9*
0 Add four rect primitives between the rounded corners*
20,1,$1+$1,$2,$3,$4,$5,0*
20,1,$1+$1,$4,$5,$6,$7,0*
20,1,$1+$1,$6,$7,$8,$9,0*
20,1,$1+$1,$8,$9,$2,$3,0*%
G04 Aperture macros list end*
%ADD10RoundRect,0.250000X0.350000X0.450000X-0.350000X0.450000X-0.350000X-0.450000X0.350000X-0.450000X0*%
%ADD11R,1.500000X1.500000*%
%ADD12C,1.500000*%
%ADD13R,1.700000X1.700000*%
%ADD14C,1.700000*%
%ADD15RoundRect,0.250000X-0.400000X-0.625000X0.400000X-0.625000X0.400000X0.625000X-0.400000X0.625000X0*%
%ADD16RoundRect,0.250000X-0.475000X0.337500X-0.475000X-0.337500X0.475000X-0.337500X0.475000X0.337500X0*%
%ADD17RoundRect,0.250000X-0.450000X0.350000X-0.450000X-0.350000X0.450000X-0.350000X0.450000X0.350000X0*%
%ADD18RoundRect,0.250000X-0.337500X-0.475000X0.337500X-0.475000X0.337500X0.475000X-0.337500X0.475000X0*%
%ADD19C,3.200000*%
%ADD20RoundRect,0.250000X-0.350000X-0.450000X0.350000X-0.450000X0.350000X0.450000X-0.350000X0.450000X0*%
%ADD21O,1.700000X1.700000*%
%ADD22R,1.350000X1.350000*%
%ADD23O,1.350000X1.350000*%
%ADD24RoundRect,0.250000X-0.550000X-0.550000X0.550000X-0.550000X0.550000X0.550000X-0.550000X0.550000X0*%
%ADD25C,1.600000*%
G04 APERTURE END LIST*
D10*
%TO.C,R7*%
X150810000Y-122000000D03*
X148810000Y-122000000D03*
%TD*%
D11*
%TO.C,Q2*%
X147000000Y-131500000D03*
D12*
X149540000Y-131500000D03*
X152080000Y-131500000D03*
%TD*%
D13*
%TO.C,J5*%
X123000000Y-137000000D03*
D14*
X125540000Y-137000000D03*
%TD*%
D13*
%TO.C,J7*%
X134000000Y-137000000D03*
D14*
X136540000Y-137000000D03*
%TD*%
D15*
%TO.C,R9*%
X159450000Y-132500000D03*
X162550000Y-132500000D03*
%TD*%
D16*
%TO.C,C2*%
X127000000Y-129462500D03*
X127000000Y-131537500D03*
%TD*%
D17*
%TO.C,R3*%
X123000000Y-124310000D03*
X123000000Y-126310000D03*
%TD*%
D11*
%TO.C,Q1*%
X118000000Y-131500000D03*
D12*
X120540000Y-131500000D03*
X123080000Y-131500000D03*
%TD*%
D18*
%TO.C,C5*%
X142962500Y-121500000D03*
X145037500Y-121500000D03*
%TD*%
D13*
%TO.C,J3*%
X140000000Y-105000000D03*
D14*
X140000000Y-107540000D03*
X140000000Y-110080000D03*
X140000000Y-112620000D03*
X140000000Y-115160000D03*
X140000000Y-117700000D03*
%TD*%
D16*
%TO.C,C4*%
X143000000Y-129462500D03*
X143000000Y-131537500D03*
%TD*%
D19*
%TO.C,H1*%
X104000000Y-124000000D03*
%TD*%
%TO.C,H2*%
X166000000Y-124000000D03*
%TD*%
D20*
%TO.C,R6*%
X148810000Y-119000000D03*
X150810000Y-119000000D03*
%TD*%
D13*
%TO.C,J2*%
X129000000Y-105000000D03*
D21*
X129000000Y-107540000D03*
D22*
X129000000Y-111500000D03*
D23*
X129000000Y-113500000D03*
X129000000Y-115500000D03*
X129000000Y-117500000D03*
%TD*%
D15*
%TO.C,R4*%
X109450000Y-137000000D03*
X112550000Y-137000000D03*
%TD*%
D20*
%TO.C,R1*%
X111810000Y-119000000D03*
X113810000Y-119000000D03*
%TD*%
D19*
%TO.C,H3*%
X104000000Y-136000000D03*
%TD*%
D24*
%TO.C,U1*%
X131190000Y-122190000D03*
D25*
X131190000Y-124730000D03*
X131190000Y-127270000D03*
X131190000Y-129810000D03*
X138810000Y-129810000D03*
X138810000Y-127270000D03*
X138810000Y-124730000D03*
X138810000Y-122190000D03*
%TD*%
D13*
%TO.C,J4*%
X162000000Y-105000000D03*
D14*
X162000000Y-107540000D03*
%TD*%
D10*
%TO.C,R2*%
X113810000Y-122000000D03*
X111810000Y-122000000D03*
%TD*%
D13*
%TO.C,J6*%
X146000000Y-137000000D03*
D14*
X148540000Y-137000000D03*
%TD*%
D19*
%TO.C,H4*%
X166000000Y-136000000D03*
%TD*%
D20*
%TO.C,R8*%
X148810000Y-127000000D03*
X150810000Y-127000000D03*
%TD*%
D13*
%TO.C,J1*%
X107000000Y-105000000D03*
D14*
X107000000Y-107540000D03*
X107000000Y-110080000D03*
X107000000Y-112620000D03*
X107000000Y-115160000D03*
X107000000Y-117700000D03*
%TD*%
M02*
