%TF.GenerationSoftware,KiCad,Pcbnew,10.0.6*%
%TF.CreationDate,2026-10-02T09:46:16+07:00*%
%TF.ProjectId,led_ir_driver,6c65645f-6972-45f6-9472-697665722e6b,rev?*%
%TF.SameCoordinates,Original*%
%TF.FileFunction,Copper,L2,Bot*%
%TF.FilePolarity,Positive*%
%FSLAX46Y46*%
G04 Gerber Fmt 4.6, Leading zero omitted, Abs format (unit mm)*
G04 Created by KiCad (PCBNEW 10.0.6) date 2026-10-02 09:46:16*
%MOMM*%
%LPD*%
G01*
G04 APERTURE LIST*
G04 Aperture macros list*
%AMRoundRect*
0 Rectangle with rounded corners*
0 $1 Rounding radius*
0 $2 $3 $4 $5 $6 $7 $8 $9 X,Y pos of 4 corners*
0 Add a 4 corners polygon primitive as box body*
4,1,4,$2,$3,$4,$5,$6,$7,$8,$9,$2,$3,0*
0 Add four circle primitives for the rounded corners*
1,1,$1+$1,$2,$3*
1,1,$1+$1,$4,$5*
1,1,$1+$1,$6,$7*
1,1,$1+$1,$8,$9*
0 Add four rect primitives between the rounded corners*
20,1,$1+$1,$2,$3,$4,$5,0*
20,1,$1+$1,$4,$5,$6,$7,0*
20,1,$1+$1,$6,$7,$8,$9,0*
20,1,$1+$1,$8,$9,$2,$3,0*%
G04 Aperture macros list end*
%TA.AperFunction,ComponentPad*%
%ADD10R,1.700000X1.700000*%
%TD*%
%TA.AperFunction,ComponentPad*%
%ADD11C,1.700000*%
%TD*%
%TA.AperFunction,ComponentPad*%
%ADD12R,1.500000X1.500000*%
%TD*%
%TA.AperFunction,ComponentPad*%
%ADD13C,1.500000*%
%TD*%
%TA.AperFunction,ComponentPad*%
%ADD14O,1.700000X1.700000*%
%TD*%
%TA.AperFunction,ComponentPad*%
%ADD15R,1.350000X1.350000*%
%TD*%
%TA.AperFunction,ComponentPad*%
%ADD16O,1.350000X1.350000*%
%TD*%
%TA.AperFunction,ComponentPad*%
%ADD17RoundRect,0.250000X-0.550000X-0.550000X0.550000X-0.550000X0.550000X0.550000X-0.550000X0.550000X0*%
%TD*%
%TA.AperFunction,ComponentPad*%
%ADD18C,1.600000*%
%TD*%
%TA.AperFunction,ViaPad*%
%ADD19C,0.800000*%
%TD*%
%TA.AperFunction,Conductor*%
%ADD20C,0.600000*%
%TD*%
%TA.AperFunction,Conductor*%
%ADD21C,0.800000*%
%TD*%
%TA.AperFunction,Conductor*%
%ADD22C,0.350000*%
%TD*%
G04 APERTURE END LIST*
D10*
%TO.P,J4,1*%
%TO.N,/DAC_RED*%
X162000000Y-105000000D03*
D11*
%TO.P,J4,2*%
%TO.N,/GND*%
X162000000Y-107540000D03*
%TD*%
D10*
%TO.P,J6,1*%
%TO.N,/5V*%
X146000000Y-145000000D03*
D11*
%TO.P,J6,2*%
%TO.N,/LED_K_RED*%
X148540000Y-145000000D03*
%TD*%
D12*
%TO.P,Q2,1*%
%TO.N,/SENSE_RED*%
X147000000Y-136000000D03*
D13*
%TO.P,Q2,2*%
%TO.N,/BASE_RED*%
X149540000Y-136000000D03*
%TO.P,Q2,3*%
%TO.N,/LED_K_RED*%
X152080000Y-136000000D03*
%TD*%
D10*
%TO.P,J2,1*%
%TO.N,/DAC_IR*%
X129000000Y-105000000D03*
D14*
%TO.P,J2,2*%
%TO.N,/GND*%
X129000000Y-107540000D03*
D15*
%TO.P,J2,3*%
%TO.N,/SCL*%
X129000000Y-111500000D03*
D16*
%TO.P,J2,4*%
%TO.N,/SDA*%
X129000000Y-113500000D03*
%TO.P,J2,5*%
%TO.N,/3V3*%
X129000000Y-115500000D03*
%TO.P,J2,6*%
%TO.N,/GND*%
X129000000Y-117500000D03*
%TD*%
D10*
%TO.P,J1,1*%
%TO.N,/DAC_IR*%
X107000000Y-105000000D03*
D11*
%TO.P,J1,2*%
%TO.N,/GND*%
X107000000Y-107540000D03*
%TO.P,J1,3*%
%TO.N,/SCL*%
X107000000Y-110080000D03*
%TO.P,J1,4*%
%TO.N,/SDA*%
X107000000Y-112620000D03*
%TO.P,J1,5*%
%TO.N,/3V3*%
X107000000Y-115160000D03*
%TO.P,J1,6*%
%TO.N,/GND*%
X107000000Y-117700000D03*
%TD*%
D10*
%TO.P,J5,1*%
%TO.N,/5V*%
X123000000Y-145000000D03*
D11*
%TO.P,J5,2*%
%TO.N,/LED_K_IR*%
X125540000Y-145000000D03*
%TD*%
D12*
%TO.P,Q1,1*%
%TO.N,/SENSE_IR*%
X118000000Y-136000000D03*
D13*
%TO.P,Q1,2*%
%TO.N,/BASE_IR*%
X120540000Y-136000000D03*
%TO.P,Q1,3*%
%TO.N,/LED_K_IR*%
X123080000Y-136000000D03*
%TD*%
D10*
%TO.P,J3,1*%
%TO.N,/DAC_RED*%
X140000000Y-105000000D03*
D11*
%TO.P,J3,2*%
%TO.N,/GND*%
X140000000Y-107540000D03*
%TO.P,J3,3*%
%TO.N,/SCL*%
X140000000Y-110080000D03*
%TO.P,J3,4*%
%TO.N,/SDA*%
X140000000Y-112620000D03*
%TO.P,J3,5*%
%TO.N,/3V3*%
X140000000Y-115160000D03*
%TO.P,J3,6*%
%TO.N,/GND*%
X140000000Y-117700000D03*
%TD*%
D10*
%TO.P,J7,1*%
%TO.N,/5V*%
X134000000Y-145000000D03*
D11*
%TO.P,J7,2*%
%TO.N,/GND*%
X136540000Y-145000000D03*
%TD*%
D17*
%TO.P,U1,1*%
%TO.N,/AMP_IR*%
X131190000Y-125190000D03*
D18*
%TO.P,U1,2*%
%TO.N,/SENSE_IR*%
X131190000Y-127730000D03*
%TO.P,U1,3*%
%TO.N,/CMD_IR*%
X131190000Y-130270000D03*
%TO.P,U1,4*%
%TO.N,/GND*%
X131190000Y-132810000D03*
%TO.P,U1,5*%
%TO.N,/CMD_RED*%
X138810000Y-132810000D03*
%TO.P,U1,6*%
%TO.N,/SENSE_RED*%
X138810000Y-130270000D03*
%TO.P,U1,7*%
%TO.N,/AMP_RED*%
X138810000Y-127730000D03*
%TO.P,U1,8*%
%TO.N,/5V*%
X138810000Y-125190000D03*
%TD*%
D19*
%TO.N,/5V*%
X138810000Y-121000000D03*
%TO.N,/AMP_IR*%
X127000000Y-133000000D03*
%TO.N,/CMD_IR*%
X116620000Y-128000000D03*
X125000000Y-128000000D03*
%TO.N,/CMD_RED*%
X153620000Y-126000000D03*
%TO.N,/DAC_IR*%
X109000000Y-122000000D03*
%TO.N,/DAC_RED*%
X146000000Y-122000000D03*
%TO.N,/GND*%
X141310000Y-121000000D03*
X132000000Y-140000000D03*
X119620000Y-141000000D03*
X109000000Y-126000000D03*
X155620000Y-141000000D03*
X146000000Y-126000000D03*
%TO.N,/SENSE_IR*%
X127000000Y-135500000D03*
X112000000Y-141000000D03*
%TO.N,/SENSE_RED*%
X143000000Y-135500000D03*
X148000000Y-141000000D03*
%TD*%
%TO.N,/5V*%
D20*
X135000000Y-144000000D02*
X135000000Y-123000000D01*
D21*
X146000000Y-147000000D02*
X146000000Y-145000000D01*
D20*
X135000000Y-123000000D02*
X138810000Y-123000000D01*
D21*
X123000000Y-147000000D02*
X123000000Y-145000000D01*
D20*
X138810000Y-123000000D02*
X138810000Y-125190000D01*
X134000000Y-145000000D02*
X135000000Y-144000000D01*
D21*
X134000000Y-145000000D02*
X134000000Y-147000000D01*
D20*
X138810000Y-121000000D02*
X138810000Y-123000000D01*
D21*
X134000000Y-147000000D02*
X146000000Y-147000000D01*
X134000000Y-147000000D02*
X123000000Y-147000000D01*
%TO.N,/AMP_IR*%
D22*
X127000000Y-125190000D02*
X127000000Y-133000000D01*
X131190000Y-125190000D02*
X127000000Y-125190000D01*
%TO.N,/CMD_IR*%
X116620000Y-128000000D02*
X125000000Y-128000000D01*
%TO.N,/CMD_RED*%
X141200000Y-132810000D02*
X138810000Y-132810000D01*
X153620000Y-124000000D02*
X141200000Y-124000000D01*
X141200000Y-124000000D02*
X141200000Y-132810000D01*
X153620000Y-126000000D02*
X153620000Y-124000000D01*
%TO.N,/DAC_IR*%
X107000000Y-105000000D02*
X105000000Y-107000000D01*
X105000000Y-118000000D02*
X109000000Y-122000000D01*
X105000000Y-107000000D02*
X105000000Y-118000000D01*
X107000000Y-105000000D02*
X129000000Y-105000000D01*
%TO.N,/DAC_RED*%
X138000000Y-107000000D02*
X138000000Y-119300000D01*
X140000000Y-105000000D02*
X138000000Y-107000000D01*
X140000000Y-105000000D02*
X162000000Y-105000000D01*
X138000000Y-119300000D02*
X144000000Y-119300000D01*
X146000000Y-121300000D02*
X146000000Y-122000000D01*
X144000000Y-119300000D02*
X146000000Y-121300000D01*
%TO.N,/SENSE_IR*%
X131190000Y-127729999D02*
X129199999Y-127729999D01*
X127000000Y-135500000D02*
X127000000Y-138200000D01*
X129199999Y-127729999D02*
X129199999Y-138200000D01*
X112000000Y-138200000D02*
X112000000Y-141000000D01*
X129199999Y-138200000D02*
X112000000Y-138200000D01*
%TO.N,/SENSE_RED*%
X143000000Y-135500000D02*
X143000000Y-141000000D01*
X143000000Y-141000000D02*
X148000000Y-141000000D01*
%TD*%
%TA.AperFunction,Conductor*%
%TO.N,/GND*%
G36*
X105886014Y-106888958D02*
G01*
X105941947Y-106930830D01*
X105966364Y-106996294D01*
X105953165Y-107061434D01*
X105934255Y-107098546D01*
X105934251Y-107098555D01*
X105878317Y-107270706D01*
X105850000Y-107449493D01*
X105850000Y-107630506D01*
X105878317Y-107809293D01*
X105934251Y-107981444D01*
X105934252Y-107981447D01*
X106016431Y-108142730D01*
X106027913Y-108158532D01*
X106027913Y-108158533D01*
X106517037Y-107669408D01*
X106534075Y-107732993D01*
X106599901Y-107847007D01*
X106692993Y-107940099D01*
X106807007Y-108005925D01*
X106870590Y-108022962D01*
X106381466Y-108512085D01*
X106381466Y-108512086D01*
X106397267Y-108523566D01*
X106397275Y-108523571D01*
X106558552Y-108605747D01*
X106558555Y-108605748D01*
X106730706Y-108661682D01*
X106892279Y-108687273D01*
X106955413Y-108717202D01*
X106992345Y-108776513D01*
X106991347Y-108846376D01*
X106952738Y-108904609D01*
X106892280Y-108932219D01*
X106730589Y-108957829D01*
X106558363Y-109013787D01*
X106558360Y-109013788D01*
X106397002Y-109096006D01*
X106250505Y-109202441D01*
X106250500Y-109202445D01*
X106122445Y-109330500D01*
X106122441Y-109330505D01*
X106016006Y-109477002D01*
X105933788Y-109638360D01*
X105933787Y-109638363D01*
X105877829Y-109810589D01*
X105849500Y-109989448D01*
X105849500Y-110170551D01*
X105877829Y-110349410D01*
X105933787Y-110521636D01*
X105933788Y-110521639D01*
X105989664Y-110631300D01*
X106000331Y-110652235D01*
X106016006Y-110682997D01*
X106122441Y-110829494D01*
X106122445Y-110829499D01*
X106250500Y-110957554D01*
X106250505Y-110957558D01*
X106378287Y-111050396D01*
X106397006Y-111063996D01*
X106502484Y-111117740D01*
X106558360Y-111146211D01*
X106558363Y-111146212D01*
X106644476Y-111174191D01*
X106730591Y-111202171D01*
X106803639Y-111213740D01*
X106890678Y-111227527D01*
X106953813Y-111257456D01*
X106990744Y-111316768D01*
X106989746Y-111386631D01*
X106951136Y-111444863D01*
X106890678Y-111472473D01*
X106730589Y-111497829D01*
X106558363Y-111553787D01*
X106558360Y-111553788D01*
X106397002Y-111636006D01*
X106250505Y-111742441D01*
X106250500Y-111742445D01*
X106122445Y-111870500D01*
X106122441Y-111870505D01*
X106016006Y-112017002D01*
X105933788Y-112178360D01*
X105933787Y-112178363D01*
X105877829Y-112350589D01*
X105849500Y-112529448D01*
X105849500Y-112710551D01*
X105877829Y-112889410D01*
X105933787Y-113061636D01*
X105933788Y-113061639D01*
X105989664Y-113171300D01*
X106012167Y-113215464D01*
X106016006Y-113222997D01*
X106122441Y-113369494D01*
X106122445Y-113369499D01*
X106250500Y-113497554D01*
X106250505Y-113497558D01*
X106378287Y-113590396D01*
X106397006Y-113603996D01*
X106502484Y-113657740D01*
X106558360Y-113686211D01*
X106558363Y-113686212D01*
X106644476Y-113714191D01*
X106730591Y-113742171D01*
X106803639Y-113753740D01*
X106890678Y-113767527D01*
X106953813Y-113797456D01*
X106990744Y-113856768D01*
X106989746Y-113926631D01*
X106951136Y-113984863D01*
X106890678Y-114012473D01*
X106730589Y-114037829D01*
X106558363Y-114093787D01*
X106558360Y-114093788D01*
X106397002Y-114176006D01*
X106250505Y-114282441D01*
X106250500Y-114282445D01*
X106122445Y-114410500D01*
X106122441Y-114410505D01*
X106016006Y-114557002D01*
X105933788Y-114718360D01*
X105933787Y-114718363D01*
X105877829Y-114890589D01*
X105849500Y-115069448D01*
X105849500Y-115250551D01*
X105877829Y-115429410D01*
X105933787Y-115601636D01*
X105933788Y-115601639D01*
X106016006Y-115762997D01*
X106122441Y-115909494D01*
X106122445Y-115909499D01*
X106250500Y-116037554D01*
X106250505Y-116037558D01*
X106366516Y-116121844D01*
X106397006Y-116143996D01*
X106502484Y-116197740D01*
X106558360Y-116226211D01*
X106558363Y-116226212D01*
X106644476Y-116254191D01*
X106730591Y-116282171D01*
X106850038Y-116301089D01*
X106892279Y-116307780D01*
X106955414Y-116337709D01*
X106992345Y-116397021D01*
X106991347Y-116466883D01*
X106952737Y-116525116D01*
X106892279Y-116552726D01*
X106730706Y-116578317D01*
X106558555Y-116634251D01*
X106558547Y-116634254D01*
X106397269Y-116716432D01*
X106381466Y-116727912D01*
X106381466Y-116727913D01*
X106870591Y-117217037D01*
X106807007Y-117234075D01*
X106692993Y-117299901D01*
X106599901Y-117392993D01*
X106534075Y-117507007D01*
X106517037Y-117570591D01*
X106027913Y-117081466D01*
X106027912Y-117081466D01*
X106016432Y-117097269D01*
X105934254Y-117258547D01*
X105934251Y-117258555D01*
X105878317Y-117430706D01*
X105850000Y-117609493D01*
X105850000Y-117790506D01*
X105863136Y-117873444D01*
X105854181Y-117942738D01*
X105809185Y-117996190D01*
X105742434Y-118016829D01*
X105675120Y-117998104D01*
X105652982Y-117980523D01*
X105511819Y-117839360D01*
X105478334Y-117778037D01*
X105475500Y-117751679D01*
X105475500Y-107248320D01*
X105495185Y-107181281D01*
X105511814Y-107160643D01*
X105755000Y-106917458D01*
X105816322Y-106883974D01*
X105886014Y-106888958D01*
G37*
%TD.AperFunction*%
%TA.AperFunction,Conductor*%
G36*
X138886014Y-106888958D02*
G01*
X138941947Y-106930830D01*
X138966364Y-106996294D01*
X138953165Y-107061434D01*
X138934255Y-107098546D01*
X138934251Y-107098555D01*
X138878317Y-107270706D01*
X138850000Y-107449493D01*
X138850000Y-107630506D01*
X138878317Y-107809293D01*
X138934251Y-107981444D01*
X138934252Y-107981447D01*
X139016431Y-108142730D01*
X139027913Y-108158532D01*
X139027913Y-108158533D01*
X139517037Y-107669408D01*
X139534075Y-107732993D01*
X139599901Y-107847007D01*
X139692993Y-107940099D01*
X139807007Y-108005925D01*
X139870590Y-108022962D01*
X139381466Y-108512085D01*
X139381466Y-108512086D01*
X139397267Y-108523566D01*
X139397275Y-108523571D01*
X139558552Y-108605747D01*
X139558555Y-108605748D01*
X139730706Y-108661682D01*
X139892279Y-108687273D01*
X139955413Y-108717202D01*
X139992345Y-108776513D01*
X139991347Y-108846376D01*
X139952738Y-108904609D01*
X139892280Y-108932219D01*
X139730589Y-108957829D01*
X139558363Y-109013787D01*
X139558360Y-109013788D01*
X139397002Y-109096006D01*
X139250505Y-109202441D01*
X139250500Y-109202445D01*
X139122445Y-109330500D01*
X139122441Y-109330505D01*
X139016006Y-109477002D01*
X138933788Y-109638360D01*
X138933787Y-109638363D01*
X138877829Y-109810589D01*
X138849500Y-109989448D01*
X138849500Y-110170551D01*
X138877829Y-110349410D01*
X138933787Y-110521636D01*
X138933788Y-110521639D01*
X138989664Y-110631300D01*
X139000331Y-110652235D01*
X139016006Y-110682997D01*
X139122441Y-110829494D01*
X139122445Y-110829499D01*
X139250500Y-110957554D01*
X139250505Y-110957558D01*
X139378287Y-111050396D01*
X139397006Y-111063996D01*
X139502484Y-111117740D01*
X139558360Y-111146211D01*
X139558363Y-111146212D01*
X139644476Y-111174191D01*
X139730591Y-111202171D01*
X139803639Y-111213740D01*
X139890678Y-111227527D01*
X139953813Y-111257456D01*
X139990744Y-111316768D01*
X139989746Y-111386631D01*
X139951136Y-111444863D01*
X139890678Y-111472473D01*
X139730589Y-111497829D01*
X139558363Y-111553787D01*
X139558360Y-111553788D01*
X139397002Y-111636006D01*
X139250505Y-111742441D01*
X139250500Y-111742445D01*
X139122445Y-111870500D01*
X139122441Y-111870505D01*
X139016006Y-112017002D01*
X138933788Y-112178360D01*
X138933787Y-112178363D01*
X138877829Y-112350589D01*
X138849500Y-112529448D01*
X138849500Y-112710551D01*
X138877829Y-112889410D01*
X138933787Y-113061636D01*
X138933788Y-113061639D01*
X138989664Y-113171300D01*
X139012167Y-113215464D01*
X139016006Y-113222997D01*
X139122441Y-113369494D01*
X139122445Y-113369499D01*
X139250500Y-113497554D01*
X139250505Y-113497558D01*
X139378287Y-113590396D01*
X139397006Y-113603996D01*
X139502484Y-113657740D01*
X139558360Y-113686211D01*
X139558363Y-113686212D01*
X139644476Y-113714191D01*
X139730591Y-113742171D01*
X139803639Y-113753740D01*
X139890678Y-113767527D01*
X139953813Y-113797456D01*
X139990744Y-113856768D01*
X139989746Y-113926631D01*
X139951136Y-113984863D01*
X139890678Y-114012473D01*
X139730589Y-114037829D01*
X139558363Y-114093787D01*
X139558360Y-114093788D01*
X139397002Y-114176006D01*
X139250505Y-114282441D01*
X139250500Y-114282445D01*
X139122445Y-114410500D01*
X139122441Y-114410505D01*
X139016006Y-114557002D01*
X138933788Y-114718360D01*
X138933787Y-114718363D01*
X138877829Y-114890589D01*
X138849500Y-115069448D01*
X138849500Y-115250551D01*
X138877829Y-115429410D01*
X138933787Y-115601636D01*
X138933788Y-115601639D01*
X139016006Y-115762997D01*
X139122441Y-115909494D01*
X139122445Y-115909499D01*
X139250500Y-116037554D01*
X139250505Y-116037558D01*
X139366516Y-116121844D01*
X139397006Y-116143996D01*
X139502484Y-116197740D01*
X139558360Y-116226211D01*
X139558363Y-116226212D01*
X139644476Y-116254191D01*
X139730591Y-116282171D01*
X139850038Y-116301089D01*
X139892279Y-116307780D01*
X139955414Y-116337709D01*
X139992345Y-116397021D01*
X139991347Y-116466883D01*
X139952737Y-116525116D01*
X139892279Y-116552726D01*
X139730706Y-116578317D01*
X139558555Y-116634251D01*
X139558547Y-116634254D01*
X139397269Y-116716432D01*
X139381466Y-116727912D01*
X139381466Y-116727913D01*
X139870591Y-117217037D01*
X139807007Y-117234075D01*
X139692993Y-117299901D01*
X139599901Y-117392993D01*
X139534075Y-117507007D01*
X139517037Y-117570590D01*
X139027912Y-117081466D01*
X139016432Y-117097269D01*
X138934254Y-117258547D01*
X138934251Y-117258555D01*
X138878317Y-117430706D01*
X138850000Y-117609493D01*
X138850000Y-117790506D01*
X138878317Y-117969293D01*
X138934251Y-118141444D01*
X138934252Y-118141447D01*
X139016431Y-118302730D01*
X139027913Y-118318532D01*
X139027913Y-118318533D01*
X139517037Y-117829409D01*
X139534075Y-117892993D01*
X139599901Y-118007007D01*
X139692993Y-118100099D01*
X139807007Y-118165925D01*
X139870590Y-118182962D01*
X139381466Y-118672085D01*
X139382937Y-118690772D01*
X139368572Y-118759149D01*
X139319520Y-118808906D01*
X139259319Y-118824500D01*
X138599500Y-118824500D01*
X138532461Y-118804815D01*
X138486706Y-118752011D01*
X138475500Y-118700500D01*
X138475500Y-107248320D01*
X138495185Y-107181281D01*
X138511814Y-107160643D01*
X138755000Y-106917458D01*
X138816322Y-106883974D01*
X138886014Y-106888958D01*
G37*
%TD.AperFunction*%
%TA.AperFunction,Conductor*%
G36*
X169343039Y-100619685D02*
G01*
X169388794Y-100672489D01*
X169400000Y-100724000D01*
X169400000Y-147276000D01*
X169380315Y-147343039D01*
X169327511Y-147388794D01*
X169276000Y-147400000D01*
X146778109Y-147400000D01*
X146711070Y-147380315D01*
X146665315Y-147327511D01*
X146655371Y-147258353D01*
X146663548Y-147228547D01*
X146673580Y-147204328D01*
X146700500Y-147068993D01*
X146700500Y-146274499D01*
X146720185Y-146207460D01*
X146772989Y-146161705D01*
X146824500Y-146150499D01*
X146894856Y-146150499D01*
X146894864Y-146150499D01*
X146894879Y-146150497D01*
X146894882Y-146150497D01*
X146919987Y-146147586D01*
X146919988Y-146147585D01*
X146919991Y-146147585D01*
X147022765Y-146102206D01*
X147102206Y-146022765D01*
X147147585Y-145919991D01*
X147150500Y-145894865D01*
X147150499Y-145157125D01*
X147170183Y-145090089D01*
X147222987Y-145044334D01*
X147292146Y-145034390D01*
X147355702Y-145063415D01*
X147393476Y-145122193D01*
X147396972Y-145137729D01*
X147417829Y-145269410D01*
X147473787Y-145441636D01*
X147473788Y-145441639D01*
X147529664Y-145551300D01*
X147555869Y-145602730D01*
X147556006Y-145602997D01*
X147662441Y-145749494D01*
X147662445Y-145749499D01*
X147790500Y-145877554D01*
X147790505Y-145877558D01*
X147918287Y-145970396D01*
X147937006Y-145983996D01*
X148013094Y-146022765D01*
X148098360Y-146066211D01*
X148098363Y-146066212D01*
X148184476Y-146094191D01*
X148270591Y-146122171D01*
X148353429Y-146135291D01*
X148449449Y-146150500D01*
X148449454Y-146150500D01*
X148630551Y-146150500D01*
X148717259Y-146136765D01*
X148809409Y-146122171D01*
X148981639Y-146066211D01*
X149142994Y-145983996D01*
X149289501Y-145877553D01*
X149417553Y-145749501D01*
X149523996Y-145602994D01*
X149606211Y-145441639D01*
X149662171Y-145269409D01*
X149679025Y-145162997D01*
X149690500Y-145090551D01*
X149690500Y-144909448D01*
X149662189Y-144730706D01*
X149662171Y-144730591D01*
X149606211Y-144558361D01*
X149606211Y-144558360D01*
X149576474Y-144500000D01*
X149523996Y-144397006D01*
X149473389Y-144327351D01*
X149417558Y-144250505D01*
X149417554Y-144250500D01*
X149289499Y-144122445D01*
X149289494Y-144122441D01*
X149142997Y-144016006D01*
X149142996Y-144016005D01*
X149142994Y-144016004D01*
X149057017Y-143972196D01*
X149057016Y-143972195D01*
X148981644Y-143933790D01*
X148981636Y-143933787D01*
X148809410Y-143877829D01*
X148729587Y-143865186D01*
X163599500Y-143865186D01*
X163599500Y-144134813D01*
X163629686Y-144402719D01*
X163629688Y-144402731D01*
X163689684Y-144665594D01*
X163689687Y-144665602D01*
X163778734Y-144920082D01*
X163895714Y-145162994D01*
X163895716Y-145162997D01*
X164039162Y-145391289D01*
X164207266Y-145602085D01*
X164397915Y-145792734D01*
X164608711Y-145960838D01*
X164837003Y-146104284D01*
X165079921Y-146221267D01*
X165232050Y-146274499D01*
X165334397Y-146310312D01*
X165334405Y-146310315D01*
X165334408Y-146310315D01*
X165334409Y-146310316D01*
X165597268Y-146370312D01*
X165865187Y-146400499D01*
X165865188Y-146400500D01*
X165865191Y-146400500D01*
X166134812Y-146400500D01*
X166134812Y-146400499D01*
X166402732Y-146370312D01*
X166665591Y-146310316D01*
X166920079Y-146221267D01*
X167162997Y-146104284D01*
X167391289Y-145960838D01*
X167602085Y-145792734D01*
X167792734Y-145602085D01*
X167960838Y-145391289D01*
X168104284Y-145162997D01*
X168221267Y-144920079D01*
X168310316Y-144665591D01*
X168370312Y-144402732D01*
X168400500Y-144134809D01*
X168400500Y-143865191D01*
X168370312Y-143597268D01*
X168310316Y-143334409D01*
X168221267Y-143079921D01*
X168104284Y-142837003D01*
X167960838Y-142608711D01*
X167792734Y-142397915D01*
X167602085Y-142207266D01*
X167391289Y-142039162D01*
X167162997Y-141895716D01*
X167162994Y-141895714D01*
X166920082Y-141778734D01*
X166665602Y-141689687D01*
X166665594Y-141689684D01*
X166468446Y-141644687D01*
X166402732Y-141629688D01*
X166402728Y-141629687D01*
X166402719Y-141629686D01*
X166134813Y-141599500D01*
X166134809Y-141599500D01*
X165865191Y-141599500D01*
X165865186Y-141599500D01*
X165597280Y-141629686D01*
X165597268Y-141629688D01*
X165334405Y-141689684D01*
X165334397Y-141689687D01*
X165079917Y-141778734D01*
X164837005Y-141895714D01*
X164608712Y-142039161D01*
X164397915Y-142207265D01*
X164207265Y-142397915D01*
X164039161Y-142608712D01*
X163895714Y-142837005D01*
X163778734Y-143079917D01*
X163689687Y-143334397D01*
X163689684Y-143334405D01*
X163629688Y-143597268D01*
X163629686Y-143597280D01*
X163599500Y-143865186D01*
X148729587Y-143865186D01*
X148630551Y-143849500D01*
X148630546Y-143849500D01*
X148449454Y-143849500D01*
X148449449Y-143849500D01*
X148270589Y-143877829D01*
X148098363Y-143933787D01*
X148098360Y-143933788D01*
X147937002Y-144016006D01*
X147790505Y-144122441D01*
X147790500Y-144122445D01*
X147662445Y-144250500D01*
X147662441Y-144250505D01*
X147556006Y-144397002D01*
X147473788Y-144558360D01*
X147473787Y-144558363D01*
X147417829Y-144730589D01*
X147396972Y-144862271D01*
X147367042Y-144925405D01*
X147307731Y-144962336D01*
X147237868Y-144961338D01*
X147179636Y-144922728D01*
X147151522Y-144858764D01*
X147150499Y-144842872D01*
X147150499Y-144105143D01*
X147150499Y-144105136D01*
X147150497Y-144105117D01*
X147147586Y-144080012D01*
X147147585Y-144080010D01*
X147147585Y-144080009D01*
X147102206Y-143977235D01*
X147022765Y-143897794D01*
X146978654Y-143878317D01*
X146919992Y-143852415D01*
X146894865Y-143849500D01*
X145105143Y-143849500D01*
X145105117Y-143849502D01*
X145080012Y-143852413D01*
X145080008Y-143852415D01*
X144977235Y-143897793D01*
X144897794Y-143977234D01*
X144852415Y-144080006D01*
X144852415Y-144080008D01*
X144849500Y-144105131D01*
X144849500Y-145894856D01*
X144849502Y-145894882D01*
X144852413Y-145919987D01*
X144852415Y-145919991D01*
X144897793Y-146022764D01*
X144962848Y-146087819D01*
X144996333Y-146149142D01*
X144991349Y-146218834D01*
X144949477Y-146274767D01*
X144884013Y-146299184D01*
X144875167Y-146299500D01*
X137039179Y-146299500D01*
X136972140Y-146279815D01*
X136926385Y-146227011D01*
X136916441Y-146157853D01*
X136945466Y-146094297D01*
X136982883Y-146065016D01*
X137142730Y-145983568D01*
X137158532Y-145972085D01*
X137158533Y-145972085D01*
X136669410Y-145482962D01*
X136732993Y-145465925D01*
X136847007Y-145400099D01*
X136940099Y-145307007D01*
X137005925Y-145192993D01*
X137022962Y-145129409D01*
X137512085Y-145618532D01*
X137523568Y-145602730D01*
X137605745Y-145441452D01*
X137605748Y-145441444D01*
X137661682Y-145269293D01*
X137690000Y-145090506D01*
X137690000Y-144909493D01*
X137661682Y-144730706D01*
X137605748Y-144558555D01*
X137605747Y-144558552D01*
X137523571Y-144397275D01*
X137523566Y-144397267D01*
X137512085Y-144381466D01*
X137022962Y-144870589D01*
X137005925Y-144807007D01*
X136940099Y-144692993D01*
X136847007Y-144599901D01*
X136732993Y-144534075D01*
X136669409Y-144517037D01*
X137158533Y-144027913D01*
X137142730Y-144016431D01*
X136981447Y-143934252D01*
X136981444Y-143934251D01*
X136809293Y-143878317D01*
X136630506Y-143850000D01*
X136449494Y-143850000D01*
X136270706Y-143878317D01*
X136098555Y-143934251D01*
X136098547Y-143934254D01*
X135937269Y-144016432D01*
X135921466Y-144027912D01*
X135921466Y-144027913D01*
X136410591Y-144517037D01*
X136347007Y-144534075D01*
X136232993Y-144599901D01*
X136139901Y-144692993D01*
X136074075Y-144807007D01*
X136057037Y-144870591D01*
X135575120Y-144388674D01*
X135541635Y-144327351D01*
X135543185Y-144268311D01*
X135547404Y-144252867D01*
X135559577Y-144231784D01*
X135600501Y-144079057D01*
X135600501Y-143920942D01*
X135600501Y-143913347D01*
X135600500Y-143913329D01*
X135600500Y-135568995D01*
X142299499Y-135568995D01*
X142326418Y-135704322D01*
X142326421Y-135704332D01*
X142379221Y-135831804D01*
X142379228Y-135831817D01*
X142455885Y-135946541D01*
X142455888Y-135946545D01*
X142488180Y-135978836D01*
X142521666Y-136040158D01*
X142524500Y-136066518D01*
X142524500Y-141062601D01*
X142556905Y-141183536D01*
X142619505Y-141291964D01*
X142708036Y-141380495D01*
X142816464Y-141443095D01*
X142937399Y-141475500D01*
X143062601Y-141475500D01*
X147433482Y-141475500D01*
X147500521Y-141495185D01*
X147521164Y-141511820D01*
X147553454Y-141544111D01*
X147553458Y-141544114D01*
X147668182Y-141620771D01*
X147668195Y-141620778D01*
X147795667Y-141673578D01*
X147795672Y-141673580D01*
X147795676Y-141673580D01*
X147795677Y-141673581D01*
X147931004Y-141700500D01*
X147931007Y-141700500D01*
X148068995Y-141700500D01*
X148160041Y-141682389D01*
X148204328Y-141673580D01*
X148331811Y-141620775D01*
X148446542Y-141544114D01*
X148544114Y-141446542D01*
X148620775Y-141331811D01*
X148673580Y-141204328D01*
X148700500Y-141068993D01*
X148700500Y-140931007D01*
X148700500Y-140931004D01*
X148673581Y-140795677D01*
X148673580Y-140795676D01*
X148673580Y-140795672D01*
X148673578Y-140795667D01*
X148620778Y-140668195D01*
X148620771Y-140668182D01*
X148544114Y-140553458D01*
X148544111Y-140553454D01*
X148446545Y-140455888D01*
X148446541Y-140455885D01*
X148331817Y-140379228D01*
X148331804Y-140379221D01*
X148204332Y-140326421D01*
X148204322Y-140326418D01*
X148068995Y-140299500D01*
X148068993Y-140299500D01*
X147931007Y-140299500D01*
X147931005Y-140299500D01*
X147795677Y-140326418D01*
X147795667Y-140326421D01*
X147668195Y-140379221D01*
X147668182Y-140379228D01*
X147553458Y-140455885D01*
X147553454Y-140455888D01*
X147521164Y-140488180D01*
X147459842Y-140521666D01*
X147433482Y-140524500D01*
X143599500Y-140524500D01*
X143532461Y-140504815D01*
X143486706Y-140452011D01*
X143475500Y-140400500D01*
X143475500Y-136066518D01*
X143495185Y-135999479D01*
X143511820Y-135978836D01*
X143544111Y-135946545D01*
X143544114Y-135946542D01*
X143620775Y-135831811D01*
X143673580Y-135704328D01*
X143700500Y-135568993D01*
X143700500Y-135431007D01*
X143700500Y-135431004D01*
X143673581Y-135295677D01*
X143673580Y-135295676D01*
X143673580Y-135295672D01*
X143673578Y-135295667D01*
X143654251Y-135249006D01*
X143636077Y-135205131D01*
X145949500Y-135205131D01*
X145949500Y-136794856D01*
X145949502Y-136794882D01*
X145952413Y-136819987D01*
X145952415Y-136819991D01*
X145997793Y-136922764D01*
X145997794Y-136922765D01*
X146077235Y-137002206D01*
X146180009Y-137047585D01*
X146205135Y-137050500D01*
X147794864Y-137050499D01*
X147794879Y-137050497D01*
X147794882Y-137050497D01*
X147819987Y-137047586D01*
X147819988Y-137047585D01*
X147819991Y-137047585D01*
X147922765Y-137002206D01*
X148002206Y-136922765D01*
X148047585Y-136819991D01*
X148050500Y-136794865D01*
X148050499Y-135896530D01*
X148489500Y-135896530D01*
X148489500Y-136103469D01*
X148529868Y-136306412D01*
X148529870Y-136306420D01*
X148609058Y-136497596D01*
X148724024Y-136669657D01*
X148870342Y-136815975D01*
X148870345Y-136815977D01*
X149042402Y-136930941D01*
X149233580Y-137010130D01*
X149421875Y-137047584D01*
X149436530Y-137050499D01*
X149436534Y-137050500D01*
X149436535Y-137050500D01*
X149643466Y-137050500D01*
X149643467Y-137050499D01*
X149846420Y-137010130D01*
X150037598Y-136930941D01*
X150209655Y-136815977D01*
X150355977Y-136669655D01*
X150470941Y-136497598D01*
X150550130Y-136306420D01*
X150590500Y-136103465D01*
X150590500Y-135896535D01*
X150590499Y-135896530D01*
X151029500Y-135896530D01*
X151029500Y-136103469D01*
X151069868Y-136306412D01*
X151069870Y-136306420D01*
X151149058Y-136497596D01*
X151264024Y-136669657D01*
X151410342Y-136815975D01*
X151410345Y-136815977D01*
X151582402Y-136930941D01*
X151773580Y-137010130D01*
X151961875Y-137047584D01*
X151976530Y-137050499D01*
X151976534Y-137050500D01*
X151976535Y-137050500D01*
X152183466Y-137050500D01*
X152183467Y-137050499D01*
X152386420Y-137010130D01*
X152577598Y-136930941D01*
X152749655Y-136815977D01*
X152895977Y-136669655D01*
X153010941Y-136497598D01*
X153090130Y-136306420D01*
X153130500Y-136103465D01*
X153130500Y-135896535D01*
X153090130Y-135693580D01*
X153010941Y-135502402D01*
X152895977Y-135330345D01*
X152895975Y-135330342D01*
X152749657Y-135184024D01*
X152589834Y-135077235D01*
X152577598Y-135069059D01*
X152539924Y-135053454D01*
X152386420Y-134989870D01*
X152386412Y-134989868D01*
X152183469Y-134949500D01*
X152183465Y-134949500D01*
X151976535Y-134949500D01*
X151976530Y-134949500D01*
X151773587Y-134989868D01*
X151773579Y-134989870D01*
X151582403Y-135069058D01*
X151410342Y-135184024D01*
X151264024Y-135330342D01*
X151149058Y-135502403D01*
X151069870Y-135693579D01*
X151069868Y-135693587D01*
X151029500Y-135896530D01*
X150590499Y-135896530D01*
X150550130Y-135693580D01*
X150470941Y-135502402D01*
X150355977Y-135330345D01*
X150355975Y-135330342D01*
X150209657Y-135184024D01*
X150049834Y-135077235D01*
X150037598Y-135069059D01*
X149999924Y-135053454D01*
X149846420Y-134989870D01*
X149846412Y-134989868D01*
X149643469Y-134949500D01*
X149643465Y-134949500D01*
X149436535Y-134949500D01*
X149436530Y-134949500D01*
X149233587Y-134989868D01*
X149233579Y-134989870D01*
X149042403Y-135069058D01*
X148870342Y-135184024D01*
X148724024Y-135330342D01*
X148609058Y-135502403D01*
X148529870Y-135693579D01*
X148529868Y-135693587D01*
X148489500Y-135896530D01*
X148050499Y-135896530D01*
X148050499Y-135205136D01*
X148048051Y-135184023D01*
X148047586Y-135180012D01*
X148047585Y-135180010D01*
X148047585Y-135180009D01*
X148002206Y-135077235D01*
X147922765Y-134997794D01*
X147904814Y-134989868D01*
X147819992Y-134952415D01*
X147794865Y-134949500D01*
X146205143Y-134949500D01*
X146205117Y-134949502D01*
X146180012Y-134952413D01*
X146180008Y-134952415D01*
X146077235Y-134997793D01*
X145997794Y-135077234D01*
X145952415Y-135180006D01*
X145952415Y-135180008D01*
X145949500Y-135205131D01*
X143636077Y-135205131D01*
X143620776Y-135168191D01*
X143620771Y-135168182D01*
X143544114Y-135053458D01*
X143544111Y-135053454D01*
X143446545Y-134955888D01*
X143446541Y-134955885D01*
X143331817Y-134879228D01*
X143331804Y-134879221D01*
X143204332Y-134826421D01*
X143204322Y-134826418D01*
X143068995Y-134799500D01*
X143068993Y-134799500D01*
X142931007Y-134799500D01*
X142931005Y-134799500D01*
X142795677Y-134826418D01*
X142795667Y-134826421D01*
X142668195Y-134879221D01*
X142668182Y-134879228D01*
X142553458Y-134955885D01*
X142553454Y-134955888D01*
X142455888Y-135053454D01*
X142455885Y-135053458D01*
X142379228Y-135168182D01*
X142379221Y-135168195D01*
X142326421Y-135295667D01*
X142326418Y-135295677D01*
X142299500Y-135431004D01*
X142299500Y-135431007D01*
X142299500Y-135568993D01*
X142299500Y-135568995D01*
X142299499Y-135568995D01*
X135600500Y-135568995D01*
X135600500Y-132723389D01*
X137709500Y-132723389D01*
X137709500Y-132896611D01*
X137736598Y-133067701D01*
X137790127Y-133232445D01*
X137868768Y-133386788D01*
X137970586Y-133526928D01*
X138093072Y-133649414D01*
X138233212Y-133751232D01*
X138387555Y-133829873D01*
X138552299Y-133883402D01*
X138723389Y-133910500D01*
X138723390Y-133910500D01*
X138896610Y-133910500D01*
X138896611Y-133910500D01*
X139067701Y-133883402D01*
X139232445Y-133829873D01*
X139386788Y-133751232D01*
X139526928Y-133649414D01*
X139649414Y-133526928D01*
X139751232Y-133386788D01*
X139768343Y-133353204D01*
X139816315Y-133302410D01*
X139878827Y-133285500D01*
X141262599Y-133285500D01*
X141262601Y-133285500D01*
X141383536Y-133253095D01*
X141491964Y-133190495D01*
X141580495Y-133101964D01*
X141643095Y-132993536D01*
X141675500Y-132872601D01*
X141675500Y-124599500D01*
X141695185Y-124532461D01*
X141747989Y-124486706D01*
X141799500Y-124475500D01*
X153020500Y-124475500D01*
X153087539Y-124495185D01*
X153133294Y-124547989D01*
X153144500Y-124599500D01*
X153144500Y-125433481D01*
X153124815Y-125500520D01*
X153108181Y-125521162D01*
X153075888Y-125553454D01*
X153075885Y-125553458D01*
X152999228Y-125668182D01*
X152999221Y-125668195D01*
X152946421Y-125795667D01*
X152946418Y-125795677D01*
X152919500Y-125931004D01*
X152919500Y-125931007D01*
X152919500Y-126068993D01*
X152919500Y-126068995D01*
X152919499Y-126068995D01*
X152946418Y-126204322D01*
X152946421Y-126204332D01*
X152999221Y-126331804D01*
X152999228Y-126331817D01*
X153075885Y-126446541D01*
X153075888Y-126446545D01*
X153173454Y-126544111D01*
X153173458Y-126544114D01*
X153288182Y-126620771D01*
X153288195Y-126620778D01*
X153415667Y-126673578D01*
X153415672Y-126673580D01*
X153415676Y-126673580D01*
X153415677Y-126673581D01*
X153551004Y-126700500D01*
X153551007Y-126700500D01*
X153688995Y-126700500D01*
X153780041Y-126682389D01*
X153824328Y-126673580D01*
X153951811Y-126620775D01*
X154066542Y-126544114D01*
X154164114Y-126446542D01*
X154240775Y-126331811D01*
X154293580Y-126204328D01*
X154320500Y-126068993D01*
X154320500Y-125931007D01*
X154320500Y-125931004D01*
X154293581Y-125795677D01*
X154293580Y-125795676D01*
X154293580Y-125795672D01*
X154293578Y-125795667D01*
X154240778Y-125668195D01*
X154240771Y-125668182D01*
X154164114Y-125553458D01*
X154164111Y-125553454D01*
X154131819Y-125521162D01*
X154098334Y-125459839D01*
X154095500Y-125433481D01*
X154095500Y-124865186D01*
X163599500Y-124865186D01*
X163599500Y-125134813D01*
X163629686Y-125402719D01*
X163629688Y-125402731D01*
X163689684Y-125665594D01*
X163689687Y-125665602D01*
X163778734Y-125920082D01*
X163895714Y-126162994D01*
X163895716Y-126162997D01*
X164039162Y-126391289D01*
X164207266Y-126602085D01*
X164397915Y-126792734D01*
X164608711Y-126960838D01*
X164837003Y-127104284D01*
X165079921Y-127221267D01*
X165267501Y-127286904D01*
X165334397Y-127310312D01*
X165334405Y-127310315D01*
X165334408Y-127310315D01*
X165334409Y-127310316D01*
X165597268Y-127370312D01*
X165865187Y-127400499D01*
X165865188Y-127400500D01*
X165865191Y-127400500D01*
X166134812Y-127400500D01*
X166134812Y-127400499D01*
X166402732Y-127370312D01*
X166665591Y-127310316D01*
X166920079Y-127221267D01*
X167162997Y-127104284D01*
X167391289Y-126960838D01*
X167602085Y-126792734D01*
X167792734Y-126602085D01*
X167960838Y-126391289D01*
X168104284Y-126162997D01*
X168221267Y-125920079D01*
X168310316Y-125665591D01*
X168370312Y-125402732D01*
X168400500Y-125134809D01*
X168400500Y-124865191D01*
X168370312Y-124597268D01*
X168310316Y-124334409D01*
X168221267Y-124079921D01*
X168104284Y-123837003D01*
X167960838Y-123608711D01*
X167792734Y-123397915D01*
X167602085Y-123207266D01*
X167391289Y-123039162D01*
X167162997Y-122895716D01*
X167162994Y-122895714D01*
X166920082Y-122778734D01*
X166665602Y-122689687D01*
X166665594Y-122689684D01*
X166468446Y-122644687D01*
X166402732Y-122629688D01*
X166402728Y-122629687D01*
X166402719Y-122629686D01*
X166134813Y-122599500D01*
X166134809Y-122599500D01*
X165865191Y-122599500D01*
X165865186Y-122599500D01*
X165597280Y-122629686D01*
X165597268Y-122629688D01*
X165334405Y-122689684D01*
X165334397Y-122689687D01*
X165079917Y-122778734D01*
X164837005Y-122895714D01*
X164608712Y-123039161D01*
X164397915Y-123207265D01*
X164207265Y-123397915D01*
X164039161Y-123608712D01*
X163895714Y-123837005D01*
X163778734Y-124079917D01*
X163689687Y-124334397D01*
X163689684Y-124334405D01*
X163629688Y-124597268D01*
X163629686Y-124597280D01*
X163599500Y-124865186D01*
X154095500Y-124865186D01*
X154095500Y-123937400D01*
X154095500Y-123937399D01*
X154063095Y-123816464D01*
X154000495Y-123708036D01*
X153911964Y-123619505D01*
X153803536Y-123556905D01*
X153803537Y-123556905D01*
X153763224Y-123546103D01*
X153682601Y-123524500D01*
X141262601Y-123524500D01*
X141137399Y-123524500D01*
X141056775Y-123546103D01*
X141016463Y-123556905D01*
X140908037Y-123619504D01*
X140908034Y-123619506D01*
X140819506Y-123708034D01*
X140819504Y-123708037D01*
X140756905Y-123816463D01*
X140724500Y-123937400D01*
X140724500Y-132210500D01*
X140704815Y-132277539D01*
X140652011Y-132323294D01*
X140600500Y-132334500D01*
X139878827Y-132334500D01*
X139811788Y-132314815D01*
X139768343Y-132266795D01*
X139751232Y-132233212D01*
X139751230Y-132233209D01*
X139751229Y-132233207D01*
X139721672Y-132192526D01*
X139649414Y-132093072D01*
X139526928Y-131970586D01*
X139386788Y-131868768D01*
X139232445Y-131790127D01*
X139067701Y-131736598D01*
X139067699Y-131736597D01*
X139067698Y-131736597D01*
X138936271Y-131715781D01*
X138896611Y-131709500D01*
X138723389Y-131709500D01*
X138683728Y-131715781D01*
X138552302Y-131736597D01*
X138387552Y-131790128D01*
X138233211Y-131868768D01*
X138153256Y-131926859D01*
X138093072Y-131970586D01*
X138093070Y-131970588D01*
X138093069Y-131970588D01*
X137970588Y-132093069D01*
X137970588Y-132093070D01*
X137970586Y-132093072D01*
X137926859Y-132153256D01*
X137868768Y-132233211D01*
X137790128Y-132387552D01*
X137736597Y-132552302D01*
X137736415Y-132553454D01*
X137709500Y-132723389D01*
X135600500Y-132723389D01*
X135600500Y-130183389D01*
X137709500Y-130183389D01*
X137709500Y-130356611D01*
X137736598Y-130527701D01*
X137790127Y-130692445D01*
X137868768Y-130846788D01*
X137970586Y-130986928D01*
X138093072Y-131109414D01*
X138233212Y-131211232D01*
X138387555Y-131289873D01*
X138552299Y-131343402D01*
X138723389Y-131370500D01*
X138723390Y-131370500D01*
X138896610Y-131370500D01*
X138896611Y-131370500D01*
X139067701Y-131343402D01*
X139232445Y-131289873D01*
X139386788Y-131211232D01*
X139526928Y-131109414D01*
X139649414Y-130986928D01*
X139751232Y-130846788D01*
X139829873Y-130692445D01*
X139883402Y-130527701D01*
X139910500Y-130356611D01*
X139910500Y-130183389D01*
X139883402Y-130012299D01*
X139829873Y-129847555D01*
X139751232Y-129693212D01*
X139649414Y-129553072D01*
X139526928Y-129430586D01*
X139386788Y-129328768D01*
X139232445Y-129250127D01*
X139067701Y-129196598D01*
X139067699Y-129196597D01*
X139067698Y-129196597D01*
X138936271Y-129175781D01*
X138896611Y-129169500D01*
X138723389Y-129169500D01*
X138683728Y-129175781D01*
X138552302Y-129196597D01*
X138387552Y-129250128D01*
X138233211Y-129328768D01*
X138153256Y-129386859D01*
X138093072Y-129430586D01*
X138093070Y-129430588D01*
X138093069Y-129430588D01*
X137970588Y-129553069D01*
X137970588Y-129553070D01*
X137970586Y-129553072D01*
X137926859Y-129613256D01*
X137868768Y-129693211D01*
X137790128Y-129847552D01*
X137736597Y-130012302D01*
X137709500Y-130183389D01*
X135600500Y-130183389D01*
X135600500Y-127643389D01*
X137709500Y-127643389D01*
X137709500Y-127816610D01*
X137727618Y-127931007D01*
X137736598Y-127987701D01*
X137790127Y-128152445D01*
X137868768Y-128306788D01*
X137970586Y-128446928D01*
X138093072Y-128569414D01*
X138233212Y-128671232D01*
X138387555Y-128749873D01*
X138552299Y-128803402D01*
X138723389Y-128830500D01*
X138723390Y-128830500D01*
X138896610Y-128830500D01*
X138896611Y-128830500D01*
X139067701Y-128803402D01*
X139232445Y-128749873D01*
X139386788Y-128671232D01*
X139526928Y-128569414D01*
X139649414Y-128446928D01*
X139751232Y-128306788D01*
X139829873Y-128152445D01*
X139883402Y-127987701D01*
X139910500Y-127816611D01*
X139910500Y-127643389D01*
X139883402Y-127472299D01*
X139829873Y-127307555D01*
X139751232Y-127153212D01*
X139649414Y-127013072D01*
X139526928Y-126890586D01*
X139386788Y-126788768D01*
X139232445Y-126710127D01*
X139067701Y-126656598D01*
X139067699Y-126656597D01*
X139067698Y-126656597D01*
X138936271Y-126635781D01*
X138896611Y-126629500D01*
X138723389Y-126629500D01*
X138683728Y-126635781D01*
X138552302Y-126656597D01*
X138387552Y-126710128D01*
X138233211Y-126788768D01*
X138153256Y-126846859D01*
X138093072Y-126890586D01*
X138093070Y-126890588D01*
X138093069Y-126890588D01*
X137970588Y-127013069D01*
X137970588Y-127013070D01*
X137970586Y-127013072D01*
X137926859Y-127073256D01*
X137868768Y-127153211D01*
X137790128Y-127307552D01*
X137736597Y-127472302D01*
X137709500Y-127643389D01*
X135600500Y-127643389D01*
X135600500Y-123724500D01*
X135620185Y-123657461D01*
X135672989Y-123611706D01*
X135724500Y-123600500D01*
X138085500Y-123600500D01*
X138152539Y-123620185D01*
X138198294Y-123672989D01*
X138209500Y-123724500D01*
X138209500Y-124202814D01*
X138189815Y-124269853D01*
X138158387Y-124303131D01*
X138093072Y-124350585D01*
X137970588Y-124473069D01*
X137970588Y-124473070D01*
X137970586Y-124473072D01*
X137944891Y-124508438D01*
X137868768Y-124613211D01*
X137790128Y-124767552D01*
X137736597Y-124932302D01*
X137709500Y-125103389D01*
X137709500Y-125276610D01*
X137734345Y-125433481D01*
X137736598Y-125447701D01*
X137790127Y-125612445D01*
X137868768Y-125766788D01*
X137970586Y-125906928D01*
X138093072Y-126029414D01*
X138233212Y-126131232D01*
X138387555Y-126209873D01*
X138552299Y-126263402D01*
X138723389Y-126290500D01*
X138723390Y-126290500D01*
X138896610Y-126290500D01*
X138896611Y-126290500D01*
X139067701Y-126263402D01*
X139232445Y-126209873D01*
X139386788Y-126131232D01*
X139526928Y-126029414D01*
X139649414Y-125906928D01*
X139751232Y-125766788D01*
X139829873Y-125612445D01*
X139883402Y-125447701D01*
X139910500Y-125276611D01*
X139910500Y-125103389D01*
X139883402Y-124932299D01*
X139829873Y-124767555D01*
X139751232Y-124613212D01*
X139649414Y-124473072D01*
X139526928Y-124350586D01*
X139461613Y-124303131D01*
X139418948Y-124247801D01*
X139410500Y-124202814D01*
X139410500Y-121399769D01*
X139428746Y-121337627D01*
X139427906Y-121337178D01*
X139430064Y-121333140D01*
X139430185Y-121332730D01*
X139430721Y-121331910D01*
X139430771Y-121331816D01*
X139430775Y-121331811D01*
X139483580Y-121204328D01*
X139492389Y-121160041D01*
X139510500Y-121068995D01*
X139510500Y-120931004D01*
X139483581Y-120795677D01*
X139483580Y-120795676D01*
X139483580Y-120795672D01*
X139483578Y-120795667D01*
X139430778Y-120668195D01*
X139430771Y-120668182D01*
X139354114Y-120553458D01*
X139354111Y-120553454D01*
X139256545Y-120455888D01*
X139256541Y-120455885D01*
X139141817Y-120379228D01*
X139141804Y-120379221D01*
X139014332Y-120326421D01*
X139014322Y-120326418D01*
X138878995Y-120299500D01*
X138878993Y-120299500D01*
X138741007Y-120299500D01*
X138741005Y-120299500D01*
X138605677Y-120326418D01*
X138605667Y-120326421D01*
X138478195Y-120379221D01*
X138478182Y-120379228D01*
X138363458Y-120455885D01*
X138363454Y-120455888D01*
X138265888Y-120553454D01*
X138265885Y-120553458D01*
X138189228Y-120668182D01*
X138189221Y-120668195D01*
X138136421Y-120795667D01*
X138136418Y-120795677D01*
X138109500Y-120931004D01*
X138109500Y-120931007D01*
X138109500Y-121068993D01*
X138109500Y-121068995D01*
X138109499Y-121068995D01*
X138136418Y-121204322D01*
X138136421Y-121204332D01*
X138189222Y-121331806D01*
X138192094Y-121337178D01*
X138190792Y-121337874D01*
X138209480Y-121397554D01*
X138209500Y-121399769D01*
X138209500Y-122275500D01*
X138189815Y-122342539D01*
X138137011Y-122388294D01*
X138085500Y-122399500D01*
X134920943Y-122399500D01*
X134768216Y-122440423D01*
X134768209Y-122440426D01*
X134631290Y-122519475D01*
X134631282Y-122519481D01*
X134519481Y-122631282D01*
X134519475Y-122631290D01*
X134440426Y-122768209D01*
X134440423Y-122768216D01*
X134399500Y-122920943D01*
X134399500Y-143699900D01*
X134379815Y-143766939D01*
X134363181Y-143787581D01*
X134337581Y-143813181D01*
X134276258Y-143846666D01*
X134249900Y-143849500D01*
X133105143Y-143849500D01*
X133105117Y-143849502D01*
X133080012Y-143852413D01*
X133080008Y-143852415D01*
X132977235Y-143897793D01*
X132897794Y-143977234D01*
X132852415Y-144080006D01*
X132852415Y-144080008D01*
X132849500Y-144105131D01*
X132849500Y-145894856D01*
X132849502Y-145894882D01*
X132852413Y-145919987D01*
X132852415Y-145919991D01*
X132897793Y-146022764D01*
X132962848Y-146087819D01*
X132996333Y-146149142D01*
X132991349Y-146218834D01*
X132949477Y-146274767D01*
X132884013Y-146299184D01*
X132875167Y-146299500D01*
X126040282Y-146299500D01*
X125973243Y-146279815D01*
X125927488Y-146227011D01*
X125917544Y-146157853D01*
X125946569Y-146094297D01*
X125983987Y-146065015D01*
X126016167Y-146048617D01*
X126142994Y-145983996D01*
X126289501Y-145877553D01*
X126417553Y-145749501D01*
X126523996Y-145602994D01*
X126606211Y-145441639D01*
X126662171Y-145269409D01*
X126679025Y-145162997D01*
X126690500Y-145090551D01*
X126690500Y-144909448D01*
X126662189Y-144730706D01*
X126662171Y-144730591D01*
X126606211Y-144558361D01*
X126606211Y-144558360D01*
X126576474Y-144500000D01*
X126523996Y-144397006D01*
X126473389Y-144327351D01*
X126417558Y-144250505D01*
X126417554Y-144250500D01*
X126289499Y-144122445D01*
X126289494Y-144122441D01*
X126142997Y-144016006D01*
X126142996Y-144016005D01*
X126142994Y-144016004D01*
X126066906Y-143977235D01*
X125981639Y-143933788D01*
X125981636Y-143933787D01*
X125809410Y-143877829D01*
X125630551Y-143849500D01*
X125630546Y-143849500D01*
X125449454Y-143849500D01*
X125449449Y-143849500D01*
X125270589Y-143877829D01*
X125098363Y-143933787D01*
X125098360Y-143933788D01*
X124937002Y-144016006D01*
X124790505Y-144122441D01*
X124790500Y-144122445D01*
X124662445Y-144250500D01*
X124662441Y-144250505D01*
X124556006Y-144397002D01*
X124473788Y-144558360D01*
X124473787Y-144558363D01*
X124417829Y-144730589D01*
X124396972Y-144862271D01*
X124367042Y-144925405D01*
X124307731Y-144962336D01*
X124237868Y-144961338D01*
X124179636Y-144922728D01*
X124151522Y-144858764D01*
X124150499Y-144842872D01*
X124150499Y-144105143D01*
X124150499Y-144105136D01*
X124150497Y-144105117D01*
X124147586Y-144080012D01*
X124147585Y-144080010D01*
X124147585Y-144080009D01*
X124102206Y-143977235D01*
X124022765Y-143897794D01*
X123978654Y-143878317D01*
X123919992Y-143852415D01*
X123894865Y-143849500D01*
X122105143Y-143849500D01*
X122105117Y-143849502D01*
X122080012Y-143852413D01*
X122080008Y-143852415D01*
X121977235Y-143897793D01*
X121897794Y-143977234D01*
X121852415Y-144080006D01*
X121852415Y-144080008D01*
X121849500Y-144105131D01*
X121849500Y-145894856D01*
X121849502Y-145894882D01*
X121852413Y-145919987D01*
X121852415Y-145919991D01*
X121897793Y-146022764D01*
X121897794Y-146022765D01*
X121977235Y-146102206D01*
X122080009Y-146147585D01*
X122105135Y-146150500D01*
X122175500Y-146150499D01*
X122242538Y-146170183D01*
X122288294Y-146222986D01*
X122299500Y-146274499D01*
X122299500Y-146931007D01*
X122299500Y-147068993D01*
X122299500Y-147068995D01*
X122299499Y-147068995D01*
X122326418Y-147204322D01*
X122326420Y-147204328D01*
X122336452Y-147228547D01*
X122343921Y-147298017D01*
X122312646Y-147360496D01*
X122252557Y-147396148D01*
X122221891Y-147400000D01*
X100724000Y-147400000D01*
X100656961Y-147380315D01*
X100611206Y-147327511D01*
X100600000Y-147276000D01*
X100600000Y-143865186D01*
X101599500Y-143865186D01*
X101599500Y-144134813D01*
X101629686Y-144402719D01*
X101629688Y-144402731D01*
X101689684Y-144665594D01*
X101689687Y-144665602D01*
X101778734Y-144920082D01*
X101895714Y-145162994D01*
X101895716Y-145162997D01*
X102039162Y-145391289D01*
X102207266Y-145602085D01*
X102397915Y-145792734D01*
X102608711Y-145960838D01*
X102837003Y-146104284D01*
X103079921Y-146221267D01*
X103232050Y-146274499D01*
X103334397Y-146310312D01*
X103334405Y-146310315D01*
X103334408Y-146310315D01*
X103334409Y-146310316D01*
X103597268Y-146370312D01*
X103865187Y-146400499D01*
X103865188Y-146400500D01*
X103865191Y-146400500D01*
X104134812Y-146400500D01*
X104134812Y-146400499D01*
X104402732Y-146370312D01*
X104665591Y-146310316D01*
X104920079Y-146221267D01*
X105162997Y-146104284D01*
X105391289Y-145960838D01*
X105602085Y-145792734D01*
X105792734Y-145602085D01*
X105960838Y-145391289D01*
X106104284Y-145162997D01*
X106221267Y-144920079D01*
X106310316Y-144665591D01*
X106370312Y-144402732D01*
X106400500Y-144134809D01*
X106400500Y-143865191D01*
X106370312Y-143597268D01*
X106310316Y-143334409D01*
X106221267Y-143079921D01*
X106104284Y-142837003D01*
X105960838Y-142608711D01*
X105792734Y-142397915D01*
X105602085Y-142207266D01*
X105391289Y-142039162D01*
X105162997Y-141895716D01*
X105162994Y-141895714D01*
X104920082Y-141778734D01*
X104665602Y-141689687D01*
X104665594Y-141689684D01*
X104468446Y-141644687D01*
X104402732Y-141629688D01*
X104402728Y-141629687D01*
X104402719Y-141629686D01*
X104134813Y-141599500D01*
X104134809Y-141599500D01*
X103865191Y-141599500D01*
X103865186Y-141599500D01*
X103597280Y-141629686D01*
X103597268Y-141629688D01*
X103334405Y-141689684D01*
X103334397Y-141689687D01*
X103079917Y-141778734D01*
X102837005Y-141895714D01*
X102608712Y-142039161D01*
X102397915Y-142207265D01*
X102207265Y-142397915D01*
X102039161Y-142608712D01*
X101895714Y-142837005D01*
X101778734Y-143079917D01*
X101689687Y-143334397D01*
X101689684Y-143334405D01*
X101629688Y-143597268D01*
X101629686Y-143597280D01*
X101599500Y-143865186D01*
X100600000Y-143865186D01*
X100600000Y-141068995D01*
X111299499Y-141068995D01*
X111326418Y-141204322D01*
X111326421Y-141204332D01*
X111379221Y-141331804D01*
X111379228Y-141331817D01*
X111455885Y-141446541D01*
X111455888Y-141446545D01*
X111553454Y-141544111D01*
X111553458Y-141544114D01*
X111668182Y-141620771D01*
X111668195Y-141620778D01*
X111795667Y-141673578D01*
X111795672Y-141673580D01*
X111795676Y-141673580D01*
X111795677Y-141673581D01*
X111931004Y-141700500D01*
X111931007Y-141700500D01*
X112068995Y-141700500D01*
X112160041Y-141682389D01*
X112204328Y-141673580D01*
X112331811Y-141620775D01*
X112446542Y-141544114D01*
X112544114Y-141446542D01*
X112620775Y-141331811D01*
X112673580Y-141204328D01*
X112700500Y-141068993D01*
X112700500Y-140931007D01*
X112700500Y-140931004D01*
X112673581Y-140795677D01*
X112673580Y-140795676D01*
X112673580Y-140795672D01*
X112673578Y-140795667D01*
X112620778Y-140668195D01*
X112620771Y-140668182D01*
X112544114Y-140553458D01*
X112544111Y-140553454D01*
X112511819Y-140521162D01*
X112478334Y-140459839D01*
X112475500Y-140433481D01*
X112475500Y-138799500D01*
X112495185Y-138732461D01*
X112547989Y-138686706D01*
X112599500Y-138675500D01*
X129262598Y-138675500D01*
X129262600Y-138675500D01*
X129383535Y-138643095D01*
X129491963Y-138580495D01*
X129580494Y-138491964D01*
X129643094Y-138383536D01*
X129675499Y-138262601D01*
X129675499Y-132723428D01*
X130090000Y-132723428D01*
X130090000Y-132896571D01*
X130117085Y-133067584D01*
X130170592Y-133232259D01*
X130249196Y-133386525D01*
X130253709Y-133392736D01*
X130253709Y-133392737D01*
X130790000Y-132856446D01*
X130790000Y-132862661D01*
X130817259Y-132964394D01*
X130869920Y-133055606D01*
X130944394Y-133130080D01*
X131035606Y-133182741D01*
X131137339Y-133210000D01*
X131143553Y-133210000D01*
X130607261Y-133746289D01*
X130607262Y-133746290D01*
X130613471Y-133750801D01*
X130767742Y-133829408D01*
X130932415Y-133882914D01*
X131103429Y-133910000D01*
X131276571Y-133910000D01*
X131447584Y-133882914D01*
X131612257Y-133829408D01*
X131766525Y-133750803D01*
X131772736Y-133746289D01*
X131772737Y-133746289D01*
X131236448Y-133210000D01*
X131242661Y-133210000D01*
X131344394Y-133182741D01*
X131435606Y-133130080D01*
X131510080Y-133055606D01*
X131562741Y-132964394D01*
X131590000Y-132862661D01*
X131590000Y-132856447D01*
X132126289Y-133392736D01*
X132130803Y-133386525D01*
X132209408Y-133232257D01*
X132262914Y-133067584D01*
X132290000Y-132896571D01*
X132290000Y-132723428D01*
X132262914Y-132552415D01*
X132209408Y-132387742D01*
X132130801Y-132233471D01*
X132126290Y-132227262D01*
X132126289Y-132227261D01*
X131590000Y-132763551D01*
X131590000Y-132757339D01*
X131562741Y-132655606D01*
X131510080Y-132564394D01*
X131435606Y-132489920D01*
X131344394Y-132437259D01*
X131242661Y-132410000D01*
X131236447Y-132410000D01*
X131772737Y-131873709D01*
X131766525Y-131869196D01*
X131612259Y-131790592D01*
X131447584Y-131737085D01*
X131276571Y-131710000D01*
X131103429Y-131710000D01*
X130932415Y-131737085D01*
X130767740Y-131790592D01*
X130613480Y-131869193D01*
X130613463Y-131869203D01*
X130607261Y-131873708D01*
X130607261Y-131873709D01*
X131143554Y-132410000D01*
X131137339Y-132410000D01*
X131035606Y-132437259D01*
X130944394Y-132489920D01*
X130869920Y-132564394D01*
X130817259Y-132655606D01*
X130790000Y-132757339D01*
X130790000Y-132763552D01*
X130253709Y-132227261D01*
X130253708Y-132227261D01*
X130249203Y-132233463D01*
X130249193Y-132233480D01*
X130170592Y-132387740D01*
X130117085Y-132552415D01*
X130090000Y-132723428D01*
X129675499Y-132723428D01*
X129675499Y-130183389D01*
X130089500Y-130183389D01*
X130089500Y-130356611D01*
X130116598Y-130527701D01*
X130170127Y-130692445D01*
X130248768Y-130846788D01*
X130350586Y-130986928D01*
X130473072Y-131109414D01*
X130613212Y-131211232D01*
X130767555Y-131289873D01*
X130932299Y-131343402D01*
X131103389Y-131370500D01*
X131103390Y-131370500D01*
X131276610Y-131370500D01*
X131276611Y-131370500D01*
X131447701Y-131343402D01*
X131612445Y-131289873D01*
X131766788Y-131211232D01*
X131906928Y-131109414D01*
X132029414Y-130986928D01*
X132131232Y-130846788D01*
X132209873Y-130692445D01*
X132263402Y-130527701D01*
X132290500Y-130356611D01*
X132290500Y-130183389D01*
X132263402Y-130012299D01*
X132209873Y-129847555D01*
X132131232Y-129693212D01*
X132029414Y-129553072D01*
X131906928Y-129430586D01*
X131766788Y-129328768D01*
X131612445Y-129250127D01*
X131447701Y-129196598D01*
X131447699Y-129196597D01*
X131447698Y-129196597D01*
X131316271Y-129175781D01*
X131276611Y-129169500D01*
X131103389Y-129169500D01*
X131063728Y-129175781D01*
X130932302Y-129196597D01*
X130767552Y-129250128D01*
X130613211Y-129328768D01*
X130533256Y-129386859D01*
X130473072Y-129430586D01*
X130473070Y-129430588D01*
X130473069Y-129430588D01*
X130350588Y-129553069D01*
X130350588Y-129553070D01*
X130350586Y-129553072D01*
X130306859Y-129613256D01*
X130248768Y-129693211D01*
X130170128Y-129847552D01*
X130116597Y-130012302D01*
X130089500Y-130183389D01*
X129675499Y-130183389D01*
X129675499Y-128329499D01*
X129695184Y-128262460D01*
X129747988Y-128216705D01*
X129799499Y-128205499D01*
X130121171Y-128205499D01*
X130188210Y-128225184D01*
X130231656Y-128273204D01*
X130248768Y-128306788D01*
X130350586Y-128446928D01*
X130473072Y-128569414D01*
X130613212Y-128671232D01*
X130767555Y-128749873D01*
X130932299Y-128803402D01*
X131103389Y-128830500D01*
X131103390Y-128830500D01*
X131276610Y-128830500D01*
X131276611Y-128830500D01*
X131447701Y-128803402D01*
X131612445Y-128749873D01*
X131766788Y-128671232D01*
X131906928Y-128569414D01*
X132029414Y-128446928D01*
X132131232Y-128306788D01*
X132209873Y-128152445D01*
X132263402Y-127987701D01*
X132290500Y-127816611D01*
X132290500Y-127643389D01*
X132263402Y-127472299D01*
X132209873Y-127307555D01*
X132131232Y-127153212D01*
X132029414Y-127013072D01*
X131906928Y-126890586D01*
X131766788Y-126788768D01*
X131612445Y-126710127D01*
X131447701Y-126656598D01*
X131447699Y-126656597D01*
X131447698Y-126656597D01*
X131316271Y-126635781D01*
X131276611Y-126629500D01*
X131103389Y-126629500D01*
X131063728Y-126635781D01*
X130932302Y-126656597D01*
X130767552Y-126710128D01*
X130613211Y-126788768D01*
X130533256Y-126846859D01*
X130473072Y-126890586D01*
X130473070Y-126890588D01*
X130473069Y-126890588D01*
X130350588Y-127013069D01*
X130350588Y-127013070D01*
X130350586Y-127013072D01*
X130316646Y-127059785D01*
X130248764Y-127153216D01*
X130231656Y-127186794D01*
X130183682Y-127237590D01*
X130121172Y-127254499D01*
X129262600Y-127254499D01*
X129137398Y-127254499D01*
X129056774Y-127276102D01*
X129016462Y-127286904D01*
X128908036Y-127349503D01*
X128908033Y-127349505D01*
X128819505Y-127438033D01*
X128819503Y-127438036D01*
X128756904Y-127546462D01*
X128724499Y-127667399D01*
X128724499Y-137600500D01*
X128704814Y-137667539D01*
X128652010Y-137713294D01*
X128600499Y-137724500D01*
X127599500Y-137724500D01*
X127532461Y-137704815D01*
X127486706Y-137652011D01*
X127475500Y-137600500D01*
X127475500Y-136066518D01*
X127495185Y-135999479D01*
X127511820Y-135978836D01*
X127544111Y-135946545D01*
X127544114Y-135946542D01*
X127620775Y-135831811D01*
X127673580Y-135704328D01*
X127700500Y-135568993D01*
X127700500Y-135431007D01*
X127700500Y-135431004D01*
X127673581Y-135295677D01*
X127673580Y-135295676D01*
X127673580Y-135295672D01*
X127673578Y-135295667D01*
X127620778Y-135168195D01*
X127620771Y-135168182D01*
X127544114Y-135053458D01*
X127544111Y-135053454D01*
X127446545Y-134955888D01*
X127446541Y-134955885D01*
X127331817Y-134879228D01*
X127331804Y-134879221D01*
X127204332Y-134826421D01*
X127204322Y-134826418D01*
X127068995Y-134799500D01*
X127068993Y-134799500D01*
X126931007Y-134799500D01*
X126931005Y-134799500D01*
X126795677Y-134826418D01*
X126795667Y-134826421D01*
X126668195Y-134879221D01*
X126668182Y-134879228D01*
X126553458Y-134955885D01*
X126553454Y-134955888D01*
X126455888Y-135053454D01*
X126455885Y-135053458D01*
X126379228Y-135168182D01*
X126379221Y-135168195D01*
X126326421Y-135295667D01*
X126326418Y-135295677D01*
X126299500Y-135431004D01*
X126299500Y-135431007D01*
X126299500Y-135568993D01*
X126299500Y-135568995D01*
X126299499Y-135568995D01*
X126326418Y-135704322D01*
X126326421Y-135704332D01*
X126379221Y-135831804D01*
X126379228Y-135831817D01*
X126455885Y-135946541D01*
X126455888Y-135946545D01*
X126488180Y-135978836D01*
X126521666Y-136040158D01*
X126524500Y-136066518D01*
X126524500Y-137600500D01*
X126504815Y-137667539D01*
X126452011Y-137713294D01*
X126400500Y-137724500D01*
X112062601Y-137724500D01*
X111937399Y-137724500D01*
X111856775Y-137746103D01*
X111816463Y-137756905D01*
X111708037Y-137819504D01*
X111708034Y-137819506D01*
X111619506Y-137908034D01*
X111619504Y-137908037D01*
X111556905Y-138016463D01*
X111524500Y-138137400D01*
X111524500Y-140433481D01*
X111504815Y-140500520D01*
X111488181Y-140521162D01*
X111455888Y-140553454D01*
X111455885Y-140553458D01*
X111379228Y-140668182D01*
X111379221Y-140668195D01*
X111326421Y-140795667D01*
X111326418Y-140795677D01*
X111299500Y-140931004D01*
X111299500Y-140931007D01*
X111299500Y-141068993D01*
X111299500Y-141068995D01*
X111299499Y-141068995D01*
X100600000Y-141068995D01*
X100600000Y-135205131D01*
X116949500Y-135205131D01*
X116949500Y-136794856D01*
X116949502Y-136794882D01*
X116952413Y-136819987D01*
X116952415Y-136819991D01*
X116997793Y-136922764D01*
X116997794Y-136922765D01*
X117077235Y-137002206D01*
X117180009Y-137047585D01*
X117205135Y-137050500D01*
X118794864Y-137050499D01*
X118794879Y-137050497D01*
X118794882Y-137050497D01*
X118819987Y-137047586D01*
X118819988Y-137047585D01*
X118819991Y-137047585D01*
X118922765Y-137002206D01*
X119002206Y-136922765D01*
X119047585Y-136819991D01*
X119050500Y-136794865D01*
X119050499Y-135896530D01*
X119489500Y-135896530D01*
X119489500Y-136103469D01*
X119529868Y-136306412D01*
X119529870Y-136306420D01*
X119609058Y-136497596D01*
X119724024Y-136669657D01*
X119870342Y-136815975D01*
X119870345Y-136815977D01*
X120042402Y-136930941D01*
X120233580Y-137010130D01*
X120421875Y-137047584D01*
X120436530Y-137050499D01*
X120436534Y-137050500D01*
X120436535Y-137050500D01*
X120643466Y-137050500D01*
X120643467Y-137050499D01*
X120846420Y-137010130D01*
X121037598Y-136930941D01*
X121209655Y-136815977D01*
X121355977Y-136669655D01*
X121470941Y-136497598D01*
X121550130Y-136306420D01*
X121590500Y-136103465D01*
X121590500Y-135896535D01*
X121590499Y-135896530D01*
X122029500Y-135896530D01*
X122029500Y-136103469D01*
X122069868Y-136306412D01*
X122069870Y-136306420D01*
X122149058Y-136497596D01*
X122264024Y-136669657D01*
X122410342Y-136815975D01*
X122410345Y-136815977D01*
X122582402Y-136930941D01*
X122773580Y-137010130D01*
X122961875Y-137047584D01*
X122976530Y-137050499D01*
X122976534Y-137050500D01*
X122976535Y-137050500D01*
X123183466Y-137050500D01*
X123183467Y-137050499D01*
X123386420Y-137010130D01*
X123577598Y-136930941D01*
X123749655Y-136815977D01*
X123895977Y-136669655D01*
X124010941Y-136497598D01*
X124090130Y-136306420D01*
X124130500Y-136103465D01*
X124130500Y-135896535D01*
X124090130Y-135693580D01*
X124010941Y-135502402D01*
X123895977Y-135330345D01*
X123895975Y-135330342D01*
X123749657Y-135184024D01*
X123589834Y-135077235D01*
X123577598Y-135069059D01*
X123539924Y-135053454D01*
X123386420Y-134989870D01*
X123386412Y-134989868D01*
X123183469Y-134949500D01*
X123183465Y-134949500D01*
X122976535Y-134949500D01*
X122976530Y-134949500D01*
X122773587Y-134989868D01*
X122773579Y-134989870D01*
X122582403Y-135069058D01*
X122410342Y-135184024D01*
X122264024Y-135330342D01*
X122149058Y-135502403D01*
X122069870Y-135693579D01*
X122069868Y-135693587D01*
X122029500Y-135896530D01*
X121590499Y-135896530D01*
X121550130Y-135693580D01*
X121470941Y-135502402D01*
X121355977Y-135330345D01*
X121355975Y-135330342D01*
X121209657Y-135184024D01*
X121049834Y-135077235D01*
X121037598Y-135069059D01*
X120999924Y-135053454D01*
X120846420Y-134989870D01*
X120846412Y-134989868D01*
X120643469Y-134949500D01*
X120643465Y-134949500D01*
X120436535Y-134949500D01*
X120436530Y-134949500D01*
X120233587Y-134989868D01*
X120233579Y-134989870D01*
X120042403Y-135069058D01*
X119870342Y-135184024D01*
X119724024Y-135330342D01*
X119609058Y-135502403D01*
X119529870Y-135693579D01*
X119529868Y-135693587D01*
X119489500Y-135896530D01*
X119050499Y-135896530D01*
X119050499Y-135205136D01*
X119048051Y-135184023D01*
X119047586Y-135180012D01*
X119047585Y-135180010D01*
X119047585Y-135180009D01*
X119002206Y-135077235D01*
X118922765Y-134997794D01*
X118904814Y-134989868D01*
X118819992Y-134952415D01*
X118794865Y-134949500D01*
X117205143Y-134949500D01*
X117205117Y-134949502D01*
X117180012Y-134952413D01*
X117180008Y-134952415D01*
X117077235Y-134997793D01*
X116997794Y-135077234D01*
X116952415Y-135180006D01*
X116952415Y-135180008D01*
X116949500Y-135205131D01*
X100600000Y-135205131D01*
X100600000Y-133068995D01*
X126299499Y-133068995D01*
X126326418Y-133204322D01*
X126326421Y-133204332D01*
X126379221Y-133331804D01*
X126379228Y-133331817D01*
X126455885Y-133446541D01*
X126455888Y-133446545D01*
X126553454Y-133544111D01*
X126553458Y-133544114D01*
X126668182Y-133620771D01*
X126668195Y-133620778D01*
X126795667Y-133673578D01*
X126795672Y-133673580D01*
X126795676Y-133673580D01*
X126795677Y-133673581D01*
X126931004Y-133700500D01*
X126931007Y-133700500D01*
X127068995Y-133700500D01*
X127160041Y-133682389D01*
X127204328Y-133673580D01*
X127331811Y-133620775D01*
X127446542Y-133544114D01*
X127544114Y-133446542D01*
X127620775Y-133331811D01*
X127673580Y-133204328D01*
X127688349Y-133130080D01*
X127700500Y-133068995D01*
X127700500Y-132931004D01*
X127673581Y-132795677D01*
X127673580Y-132795676D01*
X127673580Y-132795672D01*
X127643640Y-132723389D01*
X127620778Y-132668195D01*
X127620771Y-132668182D01*
X127544114Y-132553458D01*
X127544111Y-132553454D01*
X127511819Y-132521162D01*
X127478334Y-132459839D01*
X127475500Y-132433481D01*
X127475500Y-125789500D01*
X127495185Y-125722461D01*
X127547989Y-125676706D01*
X127599500Y-125665500D01*
X129965661Y-125665500D01*
X130032700Y-125685185D01*
X130078455Y-125737989D01*
X130088784Y-125779456D01*
X130089059Y-125779424D01*
X130089322Y-125781614D01*
X130089439Y-125782084D01*
X130089499Y-125783091D01*
X130089500Y-125783096D01*
X130089500Y-125783102D01*
X130091010Y-125795677D01*
X130100122Y-125871561D01*
X130155639Y-126012343D01*
X130247077Y-126132922D01*
X130367656Y-126224360D01*
X130367657Y-126224360D01*
X130367658Y-126224361D01*
X130508436Y-126279877D01*
X130596898Y-126290500D01*
X130596903Y-126290500D01*
X131783097Y-126290500D01*
X131783102Y-126290500D01*
X131871564Y-126279877D01*
X132012342Y-126224361D01*
X132132922Y-126132922D01*
X132224361Y-126012342D01*
X132279877Y-125871564D01*
X132290500Y-125783102D01*
X132290500Y-124596898D01*
X132279877Y-124508436D01*
X132224361Y-124367658D01*
X132224360Y-124367657D01*
X132224360Y-124367656D01*
X132132922Y-124247077D01*
X132012343Y-124155639D01*
X131871561Y-124100122D01*
X131825926Y-124094642D01*
X131783102Y-124089500D01*
X130596898Y-124089500D01*
X130557853Y-124094188D01*
X130508438Y-124100122D01*
X130367656Y-124155639D01*
X130247077Y-124247077D01*
X130155639Y-124367656D01*
X130100122Y-124508438D01*
X130089499Y-124596908D01*
X130089439Y-124597916D01*
X130089348Y-124598168D01*
X130089059Y-124600576D01*
X130088505Y-124600509D01*
X130065781Y-124663658D01*
X130010335Y-124706173D01*
X129965661Y-124714500D01*
X127062601Y-124714500D01*
X126937399Y-124714500D01*
X126856775Y-124736103D01*
X126816463Y-124746905D01*
X126708037Y-124809504D01*
X126708034Y-124809506D01*
X126619506Y-124898034D01*
X126619504Y-124898037D01*
X126556905Y-125006463D01*
X126524500Y-125127400D01*
X126524500Y-132433481D01*
X126504815Y-132500520D01*
X126488181Y-132521162D01*
X126455888Y-132553454D01*
X126455885Y-132553458D01*
X126379228Y-132668182D01*
X126379221Y-132668195D01*
X126326421Y-132795667D01*
X126326418Y-132795677D01*
X126299500Y-132931004D01*
X126299500Y-132931007D01*
X126299500Y-133068993D01*
X126299500Y-133068995D01*
X126299499Y-133068995D01*
X100600000Y-133068995D01*
X100600000Y-128068995D01*
X115919499Y-128068995D01*
X115946418Y-128204322D01*
X115946421Y-128204332D01*
X115999221Y-128331804D01*
X115999228Y-128331817D01*
X116075885Y-128446541D01*
X116075888Y-128446545D01*
X116173454Y-128544111D01*
X116173458Y-128544114D01*
X116288182Y-128620771D01*
X116288195Y-128620778D01*
X116410001Y-128671231D01*
X116415672Y-128673580D01*
X116415676Y-128673580D01*
X116415677Y-128673581D01*
X116551004Y-128700500D01*
X116551007Y-128700500D01*
X116688995Y-128700500D01*
X116780041Y-128682389D01*
X116824328Y-128673580D01*
X116951811Y-128620775D01*
X117066542Y-128544114D01*
X117098836Y-128511820D01*
X117160158Y-128478334D01*
X117186518Y-128475500D01*
X124433482Y-128475500D01*
X124500521Y-128495185D01*
X124521164Y-128511820D01*
X124553454Y-128544111D01*
X124553458Y-128544114D01*
X124668182Y-128620771D01*
X124668195Y-128620778D01*
X124790001Y-128671231D01*
X124795672Y-128673580D01*
X124795676Y-128673580D01*
X124795677Y-128673581D01*
X124931004Y-128700500D01*
X124931007Y-128700500D01*
X125068995Y-128700500D01*
X125160041Y-128682389D01*
X125204328Y-128673580D01*
X125331811Y-128620775D01*
X125446542Y-128544114D01*
X125544114Y-128446542D01*
X125620775Y-128331811D01*
X125673580Y-128204328D01*
X125700500Y-128068993D01*
X125700500Y-127931007D01*
X125700500Y-127931004D01*
X125673581Y-127795677D01*
X125673580Y-127795676D01*
X125673580Y-127795672D01*
X125673578Y-127795667D01*
X125620778Y-127668195D01*
X125620771Y-127668182D01*
X125544114Y-127553458D01*
X125544111Y-127553454D01*
X125446545Y-127455888D01*
X125446541Y-127455885D01*
X125331817Y-127379228D01*
X125331804Y-127379221D01*
X125204332Y-127326421D01*
X125204322Y-127326418D01*
X125068995Y-127299500D01*
X125068993Y-127299500D01*
X124931007Y-127299500D01*
X124931005Y-127299500D01*
X124795677Y-127326418D01*
X124795667Y-127326421D01*
X124668195Y-127379221D01*
X124668182Y-127379228D01*
X124553458Y-127455885D01*
X124553454Y-127455888D01*
X124521164Y-127488180D01*
X124459842Y-127521666D01*
X124433482Y-127524500D01*
X117186518Y-127524500D01*
X117119479Y-127504815D01*
X117098836Y-127488180D01*
X117066545Y-127455888D01*
X117066541Y-127455885D01*
X116951817Y-127379228D01*
X116951804Y-127379221D01*
X116824332Y-127326421D01*
X116824322Y-127326418D01*
X116688995Y-127299500D01*
X116688993Y-127299500D01*
X116551007Y-127299500D01*
X116551005Y-127299500D01*
X116415677Y-127326418D01*
X116415667Y-127326421D01*
X116288195Y-127379221D01*
X116288182Y-127379228D01*
X116173458Y-127455885D01*
X116173454Y-127455888D01*
X116075888Y-127553454D01*
X116075885Y-127553458D01*
X115999228Y-127668182D01*
X115999221Y-127668195D01*
X115946421Y-127795667D01*
X115946418Y-127795677D01*
X115919500Y-127931004D01*
X115919500Y-127931007D01*
X115919500Y-128068993D01*
X115919500Y-128068995D01*
X115919499Y-128068995D01*
X100600000Y-128068995D01*
X100600000Y-124865186D01*
X101599500Y-124865186D01*
X101599500Y-125134813D01*
X101629686Y-125402719D01*
X101629688Y-125402731D01*
X101689684Y-125665594D01*
X101689687Y-125665602D01*
X101778734Y-125920082D01*
X101895714Y-126162994D01*
X101895716Y-126162997D01*
X102039162Y-126391289D01*
X102207266Y-126602085D01*
X102397915Y-126792734D01*
X102608711Y-126960838D01*
X102837003Y-127104284D01*
X103079921Y-127221267D01*
X103267501Y-127286904D01*
X103334397Y-127310312D01*
X103334405Y-127310315D01*
X103334408Y-127310315D01*
X103334409Y-127310316D01*
X103597268Y-127370312D01*
X103865187Y-127400499D01*
X103865188Y-127400500D01*
X103865191Y-127400500D01*
X104134812Y-127400500D01*
X104134812Y-127400499D01*
X104402732Y-127370312D01*
X104665591Y-127310316D01*
X104920079Y-127221267D01*
X105162997Y-127104284D01*
X105391289Y-126960838D01*
X105602085Y-126792734D01*
X105792734Y-126602085D01*
X105960838Y-126391289D01*
X106104284Y-126162997D01*
X106221267Y-125920079D01*
X106310316Y-125665591D01*
X106370312Y-125402732D01*
X106400500Y-125134809D01*
X106400500Y-124865191D01*
X106370312Y-124597268D01*
X106310316Y-124334409D01*
X106221267Y-124079921D01*
X106104284Y-123837003D01*
X105960838Y-123608711D01*
X105792734Y-123397915D01*
X105602085Y-123207266D01*
X105391289Y-123039162D01*
X105162997Y-122895716D01*
X105162994Y-122895714D01*
X104920082Y-122778734D01*
X104665602Y-122689687D01*
X104665594Y-122689684D01*
X104468446Y-122644687D01*
X104402732Y-122629688D01*
X104402728Y-122629687D01*
X104402719Y-122629686D01*
X104134813Y-122599500D01*
X104134809Y-122599500D01*
X103865191Y-122599500D01*
X103865186Y-122599500D01*
X103597280Y-122629686D01*
X103597268Y-122629688D01*
X103334405Y-122689684D01*
X103334397Y-122689687D01*
X103079917Y-122778734D01*
X102837005Y-122895714D01*
X102608712Y-123039161D01*
X102397915Y-123207265D01*
X102207265Y-123397915D01*
X102039161Y-123608712D01*
X101895714Y-123837005D01*
X101778734Y-124079917D01*
X101689687Y-124334397D01*
X101689684Y-124334405D01*
X101629688Y-124597268D01*
X101629686Y-124597280D01*
X101599500Y-124865186D01*
X100600000Y-124865186D01*
X100600000Y-106937399D01*
X104524500Y-106937399D01*
X104524500Y-117937399D01*
X104524500Y-118062601D01*
X104552186Y-118165925D01*
X104556905Y-118183536D01*
X104619504Y-118291962D01*
X104619506Y-118291965D01*
X108263181Y-121935640D01*
X108296666Y-121996963D01*
X108299500Y-122023321D01*
X108299500Y-122068993D01*
X108299500Y-122068995D01*
X108299499Y-122068995D01*
X108326418Y-122204322D01*
X108326421Y-122204332D01*
X108379221Y-122331804D01*
X108379228Y-122331817D01*
X108455885Y-122446541D01*
X108455888Y-122446545D01*
X108553454Y-122544111D01*
X108553458Y-122544114D01*
X108668182Y-122620771D01*
X108668195Y-122620778D01*
X108795667Y-122673578D01*
X108795672Y-122673580D01*
X108795676Y-122673580D01*
X108795677Y-122673581D01*
X108931004Y-122700500D01*
X108931007Y-122700500D01*
X109068995Y-122700500D01*
X109160041Y-122682389D01*
X109204328Y-122673580D01*
X109331811Y-122620775D01*
X109446542Y-122544114D01*
X109544114Y-122446542D01*
X109620775Y-122331811D01*
X109673580Y-122204328D01*
X109700500Y-122068993D01*
X109700500Y-121931007D01*
X109700500Y-121931004D01*
X109673581Y-121795677D01*
X109673580Y-121795676D01*
X109673580Y-121795672D01*
X109673578Y-121795667D01*
X109620778Y-121668195D01*
X109620771Y-121668182D01*
X109544114Y-121553458D01*
X109544111Y-121553454D01*
X109446545Y-121455888D01*
X109446541Y-121455885D01*
X109331817Y-121379228D01*
X109331804Y-121379221D01*
X109204332Y-121326421D01*
X109204322Y-121326418D01*
X109068995Y-121299500D01*
X109068993Y-121299500D01*
X109023321Y-121299500D01*
X108956282Y-121279815D01*
X108935640Y-121263181D01*
X106719476Y-119047017D01*
X106685991Y-118985694D01*
X106690975Y-118916002D01*
X106732847Y-118860069D01*
X106798311Y-118835652D01*
X106826556Y-118836863D01*
X106909495Y-118850000D01*
X107090506Y-118850000D01*
X107269293Y-118821682D01*
X107441444Y-118765748D01*
X107441452Y-118765745D01*
X107602730Y-118683568D01*
X107618532Y-118672085D01*
X107129409Y-118182962D01*
X107192993Y-118165925D01*
X107307007Y-118100099D01*
X107400099Y-118007007D01*
X107465925Y-117892993D01*
X107482962Y-117829410D01*
X107972085Y-118318533D01*
X107972085Y-118318532D01*
X107983568Y-118302730D01*
X108065745Y-118141452D01*
X108065748Y-118141444D01*
X108121682Y-117969293D01*
X108150000Y-117790506D01*
X108150000Y-117609493D01*
X108121682Y-117430706D01*
X108065748Y-117258555D01*
X108065747Y-117258552D01*
X107983571Y-117097275D01*
X107983566Y-117097267D01*
X107972085Y-117081466D01*
X107482962Y-117570589D01*
X107465925Y-117507007D01*
X107400099Y-117392993D01*
X107307007Y-117299901D01*
X107192993Y-117234075D01*
X107129409Y-117217037D01*
X107618533Y-116727913D01*
X107602730Y-116716431D01*
X107441447Y-116634252D01*
X107441444Y-116634251D01*
X107269293Y-116578317D01*
X107107720Y-116552726D01*
X107044585Y-116522797D01*
X107007654Y-116463485D01*
X107008652Y-116393623D01*
X107047262Y-116335390D01*
X107107720Y-116307780D01*
X107122270Y-116305475D01*
X107269409Y-116282171D01*
X107441639Y-116226211D01*
X107602994Y-116143996D01*
X107749501Y-116037553D01*
X107877553Y-115909501D01*
X107983996Y-115762994D01*
X108066211Y-115601639D01*
X108122171Y-115429409D01*
X108136765Y-115337259D01*
X108150500Y-115250551D01*
X108150500Y-115069448D01*
X108134019Y-114965397D01*
X108122171Y-114890591D01*
X108094191Y-114804476D01*
X108066212Y-114718363D01*
X108066211Y-114718360D01*
X108037740Y-114662484D01*
X107983996Y-114557006D01*
X107924779Y-114475500D01*
X107877558Y-114410505D01*
X107877554Y-114410500D01*
X107749499Y-114282445D01*
X107749494Y-114282441D01*
X107602997Y-114176006D01*
X107602996Y-114176005D01*
X107602994Y-114176004D01*
X107551300Y-114149664D01*
X107441639Y-114093788D01*
X107441636Y-114093787D01*
X107269410Y-114037829D01*
X107109321Y-114012473D01*
X107046186Y-113982544D01*
X107009255Y-113923232D01*
X107010253Y-113853370D01*
X107048863Y-113795137D01*
X107109321Y-113767527D01*
X107179425Y-113756422D01*
X107269409Y-113742171D01*
X107441639Y-113686211D01*
X107602994Y-113603996D01*
X107749501Y-113497553D01*
X107877553Y-113369501D01*
X107983996Y-113222994D01*
X108066211Y-113061639D01*
X108122171Y-112889409D01*
X108145474Y-112742280D01*
X108150500Y-112710551D01*
X108150500Y-112529448D01*
X108134019Y-112425397D01*
X108122171Y-112350591D01*
X108079696Y-112219864D01*
X108066212Y-112178363D01*
X108066211Y-112178360D01*
X108037740Y-112122484D01*
X107983996Y-112017006D01*
X107970396Y-111998287D01*
X107877558Y-111870505D01*
X107877554Y-111870500D01*
X107749499Y-111742445D01*
X107749494Y-111742441D01*
X107602997Y-111636006D01*
X107602996Y-111636005D01*
X107602994Y-111636004D01*
X107551300Y-111609664D01*
X107441639Y-111553788D01*
X107441636Y-111553787D01*
X107269410Y-111497829D01*
X107109321Y-111472473D01*
X107046186Y-111442544D01*
X107009255Y-111383232D01*
X107010253Y-111313370D01*
X107048863Y-111255137D01*
X107109321Y-111227527D01*
X107179425Y-111216422D01*
X107269409Y-111202171D01*
X107441639Y-111146211D01*
X107602994Y-111063996D01*
X107749501Y-110957553D01*
X107877553Y-110829501D01*
X107883719Y-110821013D01*
X107913422Y-110780131D01*
X128024500Y-110780131D01*
X128024500Y-112219856D01*
X128024502Y-112219882D01*
X128027413Y-112244987D01*
X128027415Y-112244991D01*
X128072793Y-112347764D01*
X128072794Y-112347765D01*
X128152235Y-112427206D01*
X128255009Y-112472585D01*
X128280135Y-112475500D01*
X128368647Y-112475499D01*
X128435683Y-112495183D01*
X128481439Y-112547986D01*
X128491383Y-112617145D01*
X128462359Y-112680701D01*
X128437537Y-112702600D01*
X128378158Y-112742277D01*
X128378151Y-112742282D01*
X128242282Y-112878151D01*
X128242279Y-112878155D01*
X128135521Y-113037929D01*
X128135520Y-113037931D01*
X128061989Y-113215452D01*
X128061986Y-113215464D01*
X128024500Y-113403917D01*
X128024500Y-113596082D01*
X128061986Y-113784535D01*
X128061989Y-113784547D01*
X128135520Y-113962068D01*
X128135521Y-113962070D01*
X128242279Y-114121844D01*
X128242282Y-114121848D01*
X128378151Y-114257717D01*
X128378155Y-114257720D01*
X128537927Y-114364477D01*
X128537928Y-114364477D01*
X128537929Y-114364478D01*
X128588533Y-114385439D01*
X128642936Y-114429280D01*
X128665001Y-114495574D01*
X128647722Y-114563274D01*
X128596584Y-114610884D01*
X128588533Y-114614561D01*
X128537929Y-114635521D01*
X128378155Y-114742279D01*
X128378151Y-114742282D01*
X128242282Y-114878151D01*
X128242279Y-114878155D01*
X128135521Y-115037929D01*
X128135520Y-115037931D01*
X128061989Y-115215452D01*
X128061986Y-115215464D01*
X128024500Y-115403917D01*
X128024500Y-115596082D01*
X128061986Y-115784535D01*
X128061989Y-115784547D01*
X128135520Y-115962068D01*
X128135521Y-115962070D01*
X128242279Y-116121844D01*
X128242282Y-116121848D01*
X128378151Y-116257717D01*
X128378155Y-116257720D01*
X128537927Y-116364477D01*
X128537928Y-116364477D01*
X128537929Y-116364478D01*
X128537931Y-116364479D01*
X128589185Y-116385709D01*
X128643589Y-116429549D01*
X128665654Y-116495843D01*
X128648375Y-116563543D01*
X128597238Y-116611154D01*
X128589187Y-116614830D01*
X128538172Y-116635961D01*
X128538157Y-116635969D01*
X128378473Y-116742667D01*
X128378469Y-116742670D01*
X128242670Y-116878469D01*
X128242667Y-116878473D01*
X128135969Y-117038157D01*
X128135964Y-117038166D01*
X128062468Y-117215602D01*
X128062466Y-117215610D01*
X128055626Y-117250000D01*
X128684314Y-117250000D01*
X128679920Y-117254394D01*
X128627259Y-117345606D01*
X128600000Y-117447339D01*
X128600000Y-117552661D01*
X128627259Y-117654394D01*
X128679920Y-117745606D01*
X128684314Y-117750000D01*
X128055626Y-117750000D01*
X128062466Y-117784389D01*
X128062468Y-117784397D01*
X128135964Y-117961833D01*
X128135969Y-117961842D01*
X128242667Y-118121526D01*
X128242670Y-118121530D01*
X128378469Y-118257329D01*
X128378473Y-118257332D01*
X128538157Y-118364030D01*
X128538167Y-118364035D01*
X128715599Y-118437530D01*
X128715606Y-118437533D01*
X128750000Y-118444373D01*
X128750000Y-117815686D01*
X128754394Y-117820080D01*
X128845606Y-117872741D01*
X128947339Y-117900000D01*
X129052661Y-117900000D01*
X129154394Y-117872741D01*
X129245606Y-117820080D01*
X129250000Y-117815686D01*
X129250000Y-118444372D01*
X129284393Y-118437533D01*
X129284400Y-118437530D01*
X129461832Y-118364035D01*
X129461842Y-118364030D01*
X129621526Y-118257332D01*
X129621530Y-118257329D01*
X129757329Y-118121530D01*
X129757332Y-118121526D01*
X129864030Y-117961842D01*
X129864035Y-117961833D01*
X129937531Y-117784397D01*
X129937533Y-117784389D01*
X129944374Y-117750000D01*
X129315686Y-117750000D01*
X129320080Y-117745606D01*
X129372741Y-117654394D01*
X129400000Y-117552661D01*
X129400000Y-117447339D01*
X129372741Y-117345606D01*
X129320080Y-117254394D01*
X129315686Y-117250000D01*
X129944374Y-117250000D01*
X129937533Y-117215610D01*
X129937531Y-117215602D01*
X129864035Y-117038166D01*
X129864030Y-117038157D01*
X129757332Y-116878473D01*
X129757329Y-116878469D01*
X129621530Y-116742670D01*
X129621526Y-116742667D01*
X129461842Y-116635969D01*
X129461832Y-116635964D01*
X129410813Y-116614831D01*
X129356409Y-116570989D01*
X129334345Y-116504695D01*
X129351625Y-116436996D01*
X129402762Y-116389386D01*
X129410799Y-116385715D01*
X129462073Y-116364477D01*
X129621845Y-116257720D01*
X129757720Y-116121845D01*
X129864477Y-115962073D01*
X129938012Y-115784543D01*
X129975500Y-115596078D01*
X129975500Y-115403922D01*
X129975500Y-115403919D01*
X129975499Y-115403917D01*
X129938012Y-115215457D01*
X129877536Y-115069454D01*
X129864479Y-115037931D01*
X129864478Y-115037929D01*
X129757720Y-114878155D01*
X129757717Y-114878151D01*
X129621848Y-114742282D01*
X129621844Y-114742279D01*
X129462070Y-114635521D01*
X129462068Y-114635520D01*
X129411467Y-114614561D01*
X129357063Y-114570720D01*
X129334998Y-114504426D01*
X129352277Y-114436727D01*
X129403414Y-114389116D01*
X129411467Y-114385439D01*
X129462068Y-114364479D01*
X129462067Y-114364479D01*
X129462073Y-114364477D01*
X129621845Y-114257720D01*
X129757720Y-114121845D01*
X129864477Y-113962073D01*
X129938012Y-113784543D01*
X129975500Y-113596078D01*
X129975500Y-113403922D01*
X129975500Y-113403919D01*
X129975499Y-113403917D01*
X129968652Y-113369494D01*
X129938012Y-113215457D01*
X129864477Y-113037927D01*
X129757720Y-112878155D01*
X129757717Y-112878151D01*
X129621847Y-112742281D01*
X129603211Y-112729829D01*
X129562460Y-112702600D01*
X129517656Y-112648990D01*
X129508949Y-112579665D01*
X129539103Y-112516637D01*
X129598546Y-112479917D01*
X129631351Y-112475499D01*
X129719864Y-112475499D01*
X129719879Y-112475497D01*
X129719882Y-112475497D01*
X129744987Y-112472586D01*
X129744988Y-112472585D01*
X129744991Y-112472585D01*
X129847765Y-112427206D01*
X129927206Y-112347765D01*
X129972585Y-112244991D01*
X129975500Y-112219865D01*
X129975499Y-110780136D01*
X129975497Y-110780117D01*
X129972586Y-110755012D01*
X129972585Y-110755010D01*
X129972585Y-110755009D01*
X129927206Y-110652235D01*
X129847765Y-110572794D01*
X129847763Y-110572793D01*
X129744992Y-110527415D01*
X129719865Y-110524500D01*
X128280143Y-110524500D01*
X128280117Y-110524502D01*
X128255012Y-110527413D01*
X128255008Y-110527415D01*
X128152235Y-110572793D01*
X128072794Y-110652234D01*
X128027415Y-110755006D01*
X128027415Y-110755008D01*
X128024500Y-110780131D01*
X107913422Y-110780131D01*
X107968976Y-110703669D01*
X107979256Y-110689517D01*
X107983996Y-110682994D01*
X108066211Y-110521639D01*
X108122171Y-110349409D01*
X108136765Y-110257259D01*
X108150500Y-110170551D01*
X108150500Y-109989448D01*
X108134019Y-109885397D01*
X108122171Y-109810591D01*
X108066211Y-109638361D01*
X108066211Y-109638360D01*
X108037740Y-109582484D01*
X107983996Y-109477006D01*
X107970396Y-109458287D01*
X107877558Y-109330505D01*
X107877554Y-109330500D01*
X107749499Y-109202445D01*
X107749494Y-109202441D01*
X107602997Y-109096006D01*
X107602996Y-109096005D01*
X107602994Y-109096004D01*
X107551300Y-109069664D01*
X107441639Y-109013788D01*
X107441636Y-109013787D01*
X107269410Y-108957828D01*
X107107720Y-108932219D01*
X107044585Y-108902289D01*
X107007654Y-108842978D01*
X107008652Y-108773115D01*
X107047262Y-108714883D01*
X107107721Y-108687273D01*
X107269292Y-108661683D01*
X107441444Y-108605748D01*
X107441452Y-108605745D01*
X107602730Y-108523568D01*
X107618532Y-108512085D01*
X107618533Y-108512085D01*
X107129410Y-108022962D01*
X107192993Y-108005925D01*
X107307007Y-107940099D01*
X107400099Y-107847007D01*
X107465925Y-107732993D01*
X107482962Y-107669410D01*
X107972085Y-108158533D01*
X107972085Y-108158532D01*
X107983568Y-108142730D01*
X108065745Y-107981452D01*
X108065748Y-107981444D01*
X108121682Y-107809293D01*
X108133681Y-107733541D01*
X108150000Y-107630506D01*
X108150000Y-107449493D01*
X108121682Y-107270706D01*
X108065748Y-107098555D01*
X108065747Y-107098552D01*
X107983571Y-106937275D01*
X107983566Y-106937267D01*
X107972085Y-106921466D01*
X107482962Y-107410589D01*
X107465925Y-107347007D01*
X107400099Y-107232993D01*
X107307007Y-107139901D01*
X107192993Y-107074075D01*
X107129408Y-107057037D01*
X107618533Y-106567913D01*
X107602730Y-106556431D01*
X107441447Y-106474252D01*
X107441444Y-106474251D01*
X107269293Y-106418317D01*
X107134526Y-106396972D01*
X107071391Y-106367043D01*
X107034460Y-106307731D01*
X107035458Y-106237869D01*
X107074068Y-106179636D01*
X107138031Y-106151522D01*
X107153924Y-106150499D01*
X107894856Y-106150499D01*
X107894864Y-106150499D01*
X107894879Y-106150497D01*
X107894882Y-106150497D01*
X107919987Y-106147586D01*
X107919988Y-106147585D01*
X107919991Y-106147585D01*
X108022765Y-106102206D01*
X108102206Y-106022765D01*
X108147585Y-105919991D01*
X108150500Y-105894865D01*
X108150500Y-105599500D01*
X108170185Y-105532461D01*
X108222989Y-105486706D01*
X108274500Y-105475500D01*
X127725501Y-105475500D01*
X127792540Y-105495185D01*
X127838295Y-105547989D01*
X127849501Y-105599500D01*
X127849501Y-105894856D01*
X127849502Y-105894882D01*
X127852413Y-105919987D01*
X127852415Y-105919991D01*
X127897793Y-106022764D01*
X127897794Y-106022765D01*
X127977235Y-106102206D01*
X128080009Y-106147585D01*
X128105135Y-106150500D01*
X128846073Y-106150499D01*
X128913111Y-106170183D01*
X128958866Y-106222987D01*
X128968810Y-106292146D01*
X128939785Y-106355702D01*
X128881007Y-106393476D01*
X128865470Y-106396972D01*
X128730706Y-106418316D01*
X128558555Y-106474251D01*
X128558552Y-106474252D01*
X128397265Y-106556434D01*
X128250830Y-106662823D01*
X128122823Y-106790830D01*
X128016434Y-106937265D01*
X127934252Y-107098552D01*
X127934250Y-107098558D01*
X127878318Y-107270704D01*
X127878315Y-107270714D01*
X127875261Y-107290000D01*
X128566988Y-107290000D01*
X128534075Y-107347007D01*
X128500000Y-107474174D01*
X128500000Y-107605826D01*
X128534075Y-107732993D01*
X128566988Y-107790000D01*
X127875261Y-107790000D01*
X127878315Y-107809285D01*
X127878318Y-107809295D01*
X127934250Y-107981441D01*
X127934252Y-107981447D01*
X128016434Y-108142734D01*
X128122823Y-108289169D01*
X128250830Y-108417176D01*
X128397265Y-108523565D01*
X128558552Y-108605747D01*
X128558555Y-108605748D01*
X128730699Y-108661680D01*
X128730712Y-108661683D01*
X128750000Y-108664738D01*
X128750000Y-107973012D01*
X128807007Y-108005925D01*
X128934174Y-108040000D01*
X129065826Y-108040000D01*
X129192993Y-108005925D01*
X129250000Y-107973012D01*
X129250000Y-108664737D01*
X129269287Y-108661683D01*
X129269300Y-108661680D01*
X129441444Y-108605748D01*
X129441447Y-108605747D01*
X129602734Y-108523565D01*
X129749169Y-108417176D01*
X129877176Y-108289169D01*
X129983565Y-108142734D01*
X130065747Y-107981447D01*
X130065749Y-107981441D01*
X130121681Y-107809295D01*
X130121684Y-107809285D01*
X130124739Y-107790000D01*
X129433012Y-107790000D01*
X129465925Y-107732993D01*
X129500000Y-107605826D01*
X129500000Y-107474174D01*
X129465925Y-107347007D01*
X129433012Y-107290000D01*
X130124739Y-107290000D01*
X130121684Y-107270714D01*
X130121681Y-107270704D01*
X130065749Y-107098558D01*
X130065747Y-107098552D01*
X130008177Y-106985566D01*
X130008176Y-106985564D01*
X129983634Y-106937399D01*
X137524500Y-106937399D01*
X137524500Y-119362601D01*
X137556905Y-119483536D01*
X137619505Y-119591964D01*
X137708036Y-119680495D01*
X137816464Y-119743095D01*
X137937399Y-119775500D01*
X138062601Y-119775500D01*
X143751679Y-119775500D01*
X143818718Y-119795185D01*
X143839360Y-119811819D01*
X145434040Y-121406499D01*
X145467525Y-121467822D01*
X145462541Y-121537514D01*
X145449462Y-121563070D01*
X145379227Y-121668184D01*
X145379221Y-121668195D01*
X145326421Y-121795667D01*
X145326418Y-121795677D01*
X145299500Y-121931004D01*
X145299500Y-121931007D01*
X145299500Y-122068993D01*
X145299500Y-122068995D01*
X145299499Y-122068995D01*
X145326418Y-122204322D01*
X145326421Y-122204332D01*
X145379221Y-122331804D01*
X145379228Y-122331817D01*
X145455885Y-122446541D01*
X145455888Y-122446545D01*
X145553454Y-122544111D01*
X145553458Y-122544114D01*
X145668182Y-122620771D01*
X145668195Y-122620778D01*
X145795667Y-122673578D01*
X145795672Y-122673580D01*
X145795676Y-122673580D01*
X145795677Y-122673581D01*
X145931004Y-122700500D01*
X145931007Y-122700500D01*
X146068995Y-122700500D01*
X146160041Y-122682389D01*
X146204328Y-122673580D01*
X146331811Y-122620775D01*
X146446542Y-122544114D01*
X146544114Y-122446542D01*
X146620775Y-122331811D01*
X146673580Y-122204328D01*
X146700500Y-122068993D01*
X146700500Y-121931007D01*
X146700500Y-121931004D01*
X146673581Y-121795677D01*
X146673580Y-121795676D01*
X146673580Y-121795672D01*
X146673578Y-121795667D01*
X146620778Y-121668195D01*
X146620771Y-121668182D01*
X146544114Y-121553458D01*
X146544111Y-121553454D01*
X146511819Y-121521162D01*
X146478334Y-121459839D01*
X146475500Y-121433481D01*
X146475500Y-121237400D01*
X146475500Y-121237399D01*
X146443095Y-121116464D01*
X146380495Y-121008036D01*
X146291964Y-120919505D01*
X144291964Y-118919505D01*
X144183536Y-118856905D01*
X144183537Y-118856905D01*
X144143224Y-118846103D01*
X144062601Y-118824500D01*
X144062599Y-118824500D01*
X140740681Y-118824500D01*
X140673642Y-118804815D01*
X140627887Y-118752011D01*
X140617063Y-118690774D01*
X140618533Y-118672085D01*
X140129410Y-118182962D01*
X140192993Y-118165925D01*
X140307007Y-118100099D01*
X140400099Y-118007007D01*
X140465925Y-117892993D01*
X140482962Y-117829409D01*
X140972085Y-118318532D01*
X140983568Y-118302730D01*
X141065745Y-118141452D01*
X141065748Y-118141444D01*
X141121682Y-117969293D01*
X141150000Y-117790506D01*
X141150000Y-117609493D01*
X141121682Y-117430706D01*
X141065748Y-117258555D01*
X141065747Y-117258552D01*
X140983571Y-117097275D01*
X140983566Y-117097267D01*
X140972085Y-117081466D01*
X140482962Y-117570589D01*
X140465925Y-117507007D01*
X140400099Y-117392993D01*
X140307007Y-117299901D01*
X140192993Y-117234075D01*
X140129409Y-117217037D01*
X140618533Y-116727913D01*
X140602730Y-116716431D01*
X140441447Y-116634252D01*
X140441444Y-116634251D01*
X140269293Y-116578317D01*
X140107720Y-116552726D01*
X140044585Y-116522797D01*
X140007654Y-116463485D01*
X140008652Y-116393623D01*
X140047262Y-116335390D01*
X140107720Y-116307780D01*
X140122270Y-116305475D01*
X140269409Y-116282171D01*
X140441639Y-116226211D01*
X140602994Y-116143996D01*
X140749501Y-116037553D01*
X140877553Y-115909501D01*
X140983996Y-115762994D01*
X141066211Y-115601639D01*
X141122171Y-115429409D01*
X141136765Y-115337259D01*
X141150500Y-115250551D01*
X141150500Y-115069448D01*
X141134019Y-114965397D01*
X141122171Y-114890591D01*
X141094191Y-114804476D01*
X141066212Y-114718363D01*
X141066211Y-114718360D01*
X141037740Y-114662484D01*
X140983996Y-114557006D01*
X140924779Y-114475500D01*
X140877558Y-114410505D01*
X140877554Y-114410500D01*
X140749499Y-114282445D01*
X140749494Y-114282441D01*
X140602997Y-114176006D01*
X140602996Y-114176005D01*
X140602994Y-114176004D01*
X140551300Y-114149664D01*
X140441639Y-114093788D01*
X140441636Y-114093787D01*
X140269410Y-114037829D01*
X140109321Y-114012473D01*
X140046186Y-113982544D01*
X140009255Y-113923232D01*
X140010253Y-113853370D01*
X140048863Y-113795137D01*
X140109321Y-113767527D01*
X140179425Y-113756422D01*
X140269409Y-113742171D01*
X140441639Y-113686211D01*
X140602994Y-113603996D01*
X140749501Y-113497553D01*
X140877553Y-113369501D01*
X140983996Y-113222994D01*
X141066211Y-113061639D01*
X141122171Y-112889409D01*
X141145474Y-112742280D01*
X141150500Y-112710551D01*
X141150500Y-112529448D01*
X141134019Y-112425397D01*
X141122171Y-112350591D01*
X141079696Y-112219864D01*
X141066212Y-112178363D01*
X141066211Y-112178360D01*
X141037740Y-112122484D01*
X140983996Y-112017006D01*
X140970396Y-111998287D01*
X140877558Y-111870505D01*
X140877554Y-111870500D01*
X140749499Y-111742445D01*
X140749494Y-111742441D01*
X140602997Y-111636006D01*
X140602996Y-111636005D01*
X140602994Y-111636004D01*
X140551300Y-111609664D01*
X140441639Y-111553788D01*
X140441636Y-111553787D01*
X140269410Y-111497829D01*
X140109321Y-111472473D01*
X140046186Y-111442544D01*
X140009255Y-111383232D01*
X140010253Y-111313370D01*
X140048863Y-111255137D01*
X140109321Y-111227527D01*
X140179425Y-111216422D01*
X140269409Y-111202171D01*
X140441639Y-111146211D01*
X140602994Y-111063996D01*
X140749501Y-110957553D01*
X140877553Y-110829501D01*
X140983996Y-110682994D01*
X141066211Y-110521639D01*
X141122171Y-110349409D01*
X141136765Y-110257259D01*
X141150500Y-110170551D01*
X141150500Y-109989448D01*
X141134019Y-109885397D01*
X141122171Y-109810591D01*
X141066211Y-109638361D01*
X141066211Y-109638360D01*
X141037740Y-109582484D01*
X140983996Y-109477006D01*
X140970396Y-109458287D01*
X140877558Y-109330505D01*
X140877554Y-109330500D01*
X140749499Y-109202445D01*
X140749494Y-109202441D01*
X140602997Y-109096006D01*
X140602996Y-109096005D01*
X140602994Y-109096004D01*
X140551300Y-109069664D01*
X140441639Y-109013788D01*
X140441636Y-109013787D01*
X140269410Y-108957828D01*
X140107720Y-108932219D01*
X140044585Y-108902289D01*
X140007654Y-108842978D01*
X140008652Y-108773115D01*
X140047262Y-108714883D01*
X140107721Y-108687273D01*
X140269292Y-108661683D01*
X140441444Y-108605748D01*
X140441452Y-108605745D01*
X140602730Y-108523568D01*
X140618532Y-108512085D01*
X140618533Y-108512085D01*
X140129410Y-108022962D01*
X140192993Y-108005925D01*
X140307007Y-107940099D01*
X140400099Y-107847007D01*
X140465925Y-107732993D01*
X140482962Y-107669409D01*
X140972085Y-108158532D01*
X140983568Y-108142730D01*
X141065745Y-107981452D01*
X141065748Y-107981444D01*
X141121682Y-107809293D01*
X141150000Y-107630506D01*
X141150000Y-107449493D01*
X141121682Y-107270706D01*
X141065748Y-107098555D01*
X141065747Y-107098552D01*
X140983571Y-106937275D01*
X140983566Y-106937267D01*
X140972085Y-106921466D01*
X140482962Y-107410589D01*
X140465925Y-107347007D01*
X140400099Y-107232993D01*
X140307007Y-107139901D01*
X140192993Y-107074075D01*
X140129408Y-107057037D01*
X140618533Y-106567913D01*
X140602730Y-106556431D01*
X140441447Y-106474252D01*
X140441444Y-106474251D01*
X140269293Y-106418317D01*
X140134526Y-106396972D01*
X140071391Y-106367043D01*
X140034460Y-106307731D01*
X140035458Y-106237869D01*
X140074068Y-106179636D01*
X140138031Y-106151522D01*
X140153924Y-106150499D01*
X140894856Y-106150499D01*
X140894864Y-106150499D01*
X140894879Y-106150497D01*
X140894882Y-106150497D01*
X140919987Y-106147586D01*
X140919988Y-106147585D01*
X140919991Y-106147585D01*
X141022765Y-106102206D01*
X141102206Y-106022765D01*
X141147585Y-105919991D01*
X141150500Y-105894865D01*
X141150500Y-105599500D01*
X141170185Y-105532461D01*
X141222989Y-105486706D01*
X141274500Y-105475500D01*
X160725501Y-105475500D01*
X160792540Y-105495185D01*
X160838295Y-105547989D01*
X160849501Y-105599500D01*
X160849501Y-105894856D01*
X160849502Y-105894882D01*
X160852413Y-105919987D01*
X160852415Y-105919991D01*
X160897793Y-106022764D01*
X160897794Y-106022765D01*
X160977235Y-106102206D01*
X161080009Y-106147585D01*
X161105135Y-106150500D01*
X161846073Y-106150499D01*
X161913111Y-106170183D01*
X161958866Y-106222987D01*
X161968810Y-106292146D01*
X161939785Y-106355702D01*
X161881007Y-106393476D01*
X161865470Y-106396972D01*
X161730706Y-106418316D01*
X161558555Y-106474251D01*
X161558547Y-106474254D01*
X161397269Y-106556432D01*
X161381466Y-106567912D01*
X161381466Y-106567913D01*
X161870591Y-107057037D01*
X161807007Y-107074075D01*
X161692993Y-107139901D01*
X161599901Y-107232993D01*
X161534075Y-107347007D01*
X161517037Y-107410590D01*
X161027912Y-106921466D01*
X161016432Y-106937269D01*
X160934254Y-107098547D01*
X160934251Y-107098555D01*
X160878317Y-107270706D01*
X160850000Y-107449493D01*
X160850000Y-107630506D01*
X160878317Y-107809293D01*
X160934251Y-107981444D01*
X160934252Y-107981447D01*
X161016431Y-108142730D01*
X161027913Y-108158532D01*
X161027913Y-108158533D01*
X161517037Y-107669409D01*
X161534075Y-107732993D01*
X161599901Y-107847007D01*
X161692993Y-107940099D01*
X161807007Y-108005925D01*
X161870590Y-108022962D01*
X161381466Y-108512085D01*
X161381466Y-108512086D01*
X161397267Y-108523566D01*
X161397275Y-108523571D01*
X161558552Y-108605747D01*
X161558555Y-108605748D01*
X161730706Y-108661682D01*
X161909494Y-108690000D01*
X162090506Y-108690000D01*
X162269293Y-108661682D01*
X162441444Y-108605748D01*
X162441452Y-108605745D01*
X162602730Y-108523568D01*
X162618532Y-108512085D01*
X162618533Y-108512085D01*
X162129410Y-108022962D01*
X162192993Y-108005925D01*
X162307007Y-107940099D01*
X162400099Y-107847007D01*
X162465925Y-107732993D01*
X162482962Y-107669409D01*
X162972085Y-108158532D01*
X162983568Y-108142730D01*
X163065745Y-107981452D01*
X163065748Y-107981444D01*
X163121682Y-107809293D01*
X163150000Y-107630506D01*
X163150000Y-107449493D01*
X163121682Y-107270706D01*
X163065748Y-107098555D01*
X163065747Y-107098552D01*
X162983571Y-106937275D01*
X162983566Y-106937267D01*
X162972085Y-106921466D01*
X162482962Y-107410589D01*
X162465925Y-107347007D01*
X162400099Y-107232993D01*
X162307007Y-107139901D01*
X162192993Y-107074075D01*
X162129409Y-107057037D01*
X162618533Y-106567913D01*
X162602730Y-106556431D01*
X162441447Y-106474252D01*
X162441444Y-106474251D01*
X162269293Y-106418317D01*
X162134528Y-106396972D01*
X162071393Y-106367043D01*
X162034462Y-106307731D01*
X162035460Y-106237869D01*
X162074070Y-106179636D01*
X162138034Y-106151522D01*
X162153919Y-106150499D01*
X162894864Y-106150499D01*
X162894879Y-106150497D01*
X162894882Y-106150497D01*
X162919987Y-106147586D01*
X162919988Y-106147585D01*
X162919991Y-106147585D01*
X163022765Y-106102206D01*
X163102206Y-106022765D01*
X163147585Y-105919991D01*
X163150500Y-105894865D01*
X163150499Y-104105136D01*
X163150497Y-104105117D01*
X163147586Y-104080012D01*
X163147585Y-104080010D01*
X163147585Y-104080009D01*
X163102206Y-103977235D01*
X163022765Y-103897794D01*
X163022763Y-103897793D01*
X162919992Y-103852415D01*
X162894865Y-103849500D01*
X161105143Y-103849500D01*
X161105117Y-103849502D01*
X161080012Y-103852413D01*
X161080008Y-103852415D01*
X160977235Y-103897793D01*
X160897794Y-103977234D01*
X160852415Y-104080006D01*
X160852415Y-104080008D01*
X160849500Y-104105131D01*
X160849500Y-104400500D01*
X160829815Y-104467539D01*
X160777011Y-104513294D01*
X160725500Y-104524500D01*
X141274499Y-104524500D01*
X141207460Y-104504815D01*
X141161705Y-104452011D01*
X141150499Y-104400500D01*
X141150499Y-104105143D01*
X141150499Y-104105136D01*
X141150497Y-104105117D01*
X141147586Y-104080012D01*
X141147585Y-104080010D01*
X141147585Y-104080009D01*
X141102206Y-103977235D01*
X141022765Y-103897794D01*
X141022763Y-103897793D01*
X140919992Y-103852415D01*
X140894865Y-103849500D01*
X139105143Y-103849500D01*
X139105117Y-103849502D01*
X139080012Y-103852413D01*
X139080008Y-103852415D01*
X138977235Y-103897793D01*
X138897794Y-103977234D01*
X138852415Y-104080006D01*
X138852415Y-104080008D01*
X138849500Y-104105131D01*
X138849500Y-105426678D01*
X138829815Y-105493717D01*
X138813181Y-105514359D01*
X137708036Y-106619505D01*
X137619506Y-106708034D01*
X137619504Y-106708037D01*
X137556905Y-106816463D01*
X137556905Y-106816464D01*
X137524500Y-106937399D01*
X129983634Y-106937399D01*
X129983567Y-106937267D01*
X129877176Y-106790830D01*
X129749169Y-106662823D01*
X129602734Y-106556434D01*
X129441447Y-106474252D01*
X129441444Y-106474251D01*
X129269293Y-106418317D01*
X129134528Y-106396972D01*
X129071393Y-106367043D01*
X129034462Y-106307731D01*
X129035460Y-106237869D01*
X129074070Y-106179636D01*
X129138034Y-106151522D01*
X129153919Y-106150499D01*
X129894864Y-106150499D01*
X129894879Y-106150497D01*
X129894882Y-106150497D01*
X129919987Y-106147586D01*
X129919988Y-106147585D01*
X129919991Y-106147585D01*
X130022765Y-106102206D01*
X130102206Y-106022765D01*
X130147585Y-105919991D01*
X130150500Y-105894865D01*
X130150499Y-104105136D01*
X130150497Y-104105117D01*
X130147586Y-104080012D01*
X130147585Y-104080010D01*
X130147585Y-104080009D01*
X130102206Y-103977235D01*
X130022765Y-103897794D01*
X130022763Y-103897793D01*
X129919992Y-103852415D01*
X129894865Y-103849500D01*
X128105143Y-103849500D01*
X128105117Y-103849502D01*
X128080012Y-103852413D01*
X128080008Y-103852415D01*
X127977235Y-103897793D01*
X127897794Y-103977234D01*
X127852415Y-104080006D01*
X127852415Y-104080008D01*
X127849500Y-104105131D01*
X127849500Y-104400500D01*
X127829815Y-104467539D01*
X127777011Y-104513294D01*
X127725500Y-104524500D01*
X108274499Y-104524500D01*
X108207460Y-104504815D01*
X108161705Y-104452011D01*
X108150499Y-104400500D01*
X108150499Y-104105143D01*
X108150499Y-104105136D01*
X108150497Y-104105117D01*
X108147586Y-104080012D01*
X108147585Y-104080010D01*
X108147585Y-104080009D01*
X108102206Y-103977235D01*
X108022765Y-103897794D01*
X108022763Y-103897793D01*
X107919992Y-103852415D01*
X107894865Y-103849500D01*
X106105143Y-103849500D01*
X106105117Y-103849502D01*
X106080012Y-103852413D01*
X106080008Y-103852415D01*
X105977235Y-103897793D01*
X105897794Y-103977234D01*
X105852415Y-104080006D01*
X105852415Y-104080008D01*
X105849500Y-104105131D01*
X105849500Y-105426678D01*
X105829815Y-105493717D01*
X105813181Y-105514359D01*
X104708036Y-106619505D01*
X104619506Y-106708034D01*
X104619504Y-106708037D01*
X104556905Y-106816463D01*
X104556905Y-106816464D01*
X104524500Y-106937399D01*
X100600000Y-106937399D01*
X100600000Y-100724000D01*
X100619685Y-100656961D01*
X100672489Y-100611206D01*
X100724000Y-100600000D01*
X169276000Y-100600000D01*
X169343039Y-100619685D01*
G37*
%TD.AperFunction*%
%TD*%
M02*
