M48
; DRILL file KiCad 10.0.6 date 2026-10-02T21:55:37
; FORMAT={-:-/ absolute / metric / decimal}
; #@! TF.CreationDate,2026-10-02T21:55:37+07:00
; #@! TF.GenerationSoftware,Kicad,Pcbnew,10.0.6
; #@! TF.FileFunction,Plated,1,2,PTH
FMAT,2
METRIC
; #@! TA.AperFunction,Plated,PTH,ViaDrill
T1C0.400
; #@! TA.AperFunction,Plated,PTH,ComponentDrill
T2C0.800
; #@! TA.AperFunction,Plated,PTH,ComponentDrill
T3C1.000
%
G90
G05
T1
X109.0Y-119.75
X112.0Y-135.0
X116.62Y-124.571
X125.0Y-124.571
X127.0Y-128.875
X127.0Y-131.062
X139.8Y-122.2
X146.0Y-119.75
X153.62Y-122.857
X159.45Y-134.5
T2
X118.0Y-131.5
X120.54Y-131.5
X123.08Y-131.5
X129.0Y-111.5
X129.0Y-113.5
X129.0Y-115.5
X129.0Y-117.5
X131.19Y-122.19
X131.19Y-124.73
X131.19Y-127.27
X131.19Y-129.81
X138.81Y-122.19
X138.81Y-124.73
X138.81Y-127.27
X138.81Y-129.81
X147.0Y-131.5
X149.54Y-131.5
X152.08Y-131.5
T3
X107.0Y-105.0
X107.0Y-107.54
X107.0Y-110.08
X107.0Y-112.62
X107.0Y-115.16
X107.0Y-117.7
X123.0Y-137.0
X125.54Y-137.0
X129.0Y-105.0
X129.0Y-107.54
X134.0Y-137.0
X136.54Y-137.0
X140.0Y-105.0
X140.0Y-107.54
X140.0Y-110.08
X140.0Y-112.62
X140.0Y-115.16
X140.0Y-117.7
X146.0Y-137.0
X148.54Y-137.0
X162.0Y-105.0
X162.0Y-107.54
M30
