M48
; DRILL file KiCad 10.0.6 date 2026-10-01T22:33:47
; FORMAT={-:-/ absolute / metric / decimal}
; #@! TF.CreationDate,2026-10-01T22:33:47+07:00
; #@! TF.GenerationSoftware,Kicad,Pcbnew,10.0.6
; #@! TF.FileFunction,Plated,1,2,PTH
FMAT,2
METRIC
; #@! TA.AperFunction,Plated,PTH,ComponentDrill
T1C0.800
; #@! TA.AperFunction,Plated,PTH,ComponentDrill
T2C1.000
%
G90
G05
T1
X109.0Y-122.0
X109.0Y-126.0
X112.0Y-141.0
X116.62Y-122.0
X116.62Y-126.0
X118.0Y-136.0
X119.62Y-141.0
X120.54Y-136.0
X123.0Y-124.5
X123.0Y-132.12
X123.08Y-136.0
X127.0Y-133.0
X127.0Y-135.5
X129.0Y-111.5
X129.0Y-113.5
X129.0Y-115.5
X129.0Y-117.5
X130.0Y-140.0
X131.19Y-125.19
X131.19Y-127.73
X131.19Y-130.27
X131.19Y-132.81
X132.0Y-140.0
X138.81Y-121.0
X138.81Y-125.19
X138.81Y-127.73
X138.81Y-130.27
X138.81Y-132.81
X141.31Y-121.0
X143.0Y-133.0
X143.0Y-135.5
X146.0Y-122.0
X146.0Y-126.0
X146.0Y-130.0
X147.0Y-136.0
X148.0Y-141.0
X149.54Y-136.0
X152.08Y-136.0
X153.62Y-122.0
X153.62Y-126.0
X153.62Y-130.0
X155.62Y-141.0
T2
X107.0Y-105.0
X107.0Y-107.54
X107.0Y-110.08
X107.0Y-112.62
X107.0Y-115.16
X107.0Y-117.7
X123.0Y-145.0
X125.54Y-145.0
X129.0Y-105.0
X129.0Y-107.54
X134.0Y-145.0
X136.54Y-145.0
X140.0Y-105.0
X140.0Y-107.54
X140.0Y-110.08
X140.0Y-112.62
X140.0Y-115.16
X140.0Y-117.7
X146.0Y-145.0
X148.54Y-145.0
X162.0Y-105.0
X162.0Y-107.54
M30
