%TF.GenerationSoftware,KiCad,Pcbnew,10.0.6*%
%TF.CreationDate,2026-10-02T21:02:28+07:00*%
%TF.ProjectId,led_ir_driver,6c65645f-6972-45f6-9472-697665722e6b,rev?*%
%TF.SameCoordinates,Original*%
%TF.FileFunction,Legend,Top*%
%TF.FilePolarity,Positive*%
%FSLAX46Y46*%
G04 Gerber Fmt 4.6, Leading zero omitted, Abs format (unit mm)*
G04 Created by KiCad (PCBNEW 10.0.6) date 2026-10-02 21:02:28*
%MOMM*%
%LPD*%
G01*
G04 APERTURE LIST*
G04 Aperture macros list*
%AMRoundRect*
0 Rectangle with rounded corners*
0 $1 Rounding radius*
0 $2 $3 $4 $5 $6 $7 $8 $9 X,Y pos of 4 corners*
0 Add a 4 corners polygon primitive as box body*
4,1,4,$2,$3,$4,$5,$6,$7,$8,$9,$2,$3,0*
0 Add four circle primitives for the rounded corners*
1,1,$1+$1,$2,$3*
1,1,$1+$1,$4,$5*
1,1,$1+$1,$6,$7*
1,1,$1+$1,$8,$9*
0 Add four rect primitives between the rounded corners*
20,1,$1+$1,$2,$3,$4,$5,0*
20,1,$1+$1,$4,$5,$6,$7,0*
20,1,$1+$1,$6,$7,$8,$9,0*
20,1,$1+$1,$8,$9,$2,$3,0*%
G04 Aperture macros list end*
%ADD10C,0.100000*%
%ADD11C,0.120000*%
%ADD12RoundRect,0.250000X0.350000X0.450000X-0.350000X0.450000X-0.350000X-0.450000X0.350000X-0.450000X0*%
%ADD13R,1.500000X1.500000*%
%ADD14C,1.500000*%
%ADD15R,1.700000X1.700000*%
%ADD16C,1.700000*%
%ADD17RoundRect,0.250000X-0.400000X-0.625000X0.400000X-0.625000X0.400000X0.625000X-0.400000X0.625000X0*%
%ADD18RoundRect,0.250000X-0.475000X0.337500X-0.475000X-0.337500X0.475000X-0.337500X0.475000X0.337500X0*%
%ADD19RoundRect,0.250000X-0.450000X0.350000X-0.450000X-0.350000X0.450000X-0.350000X0.450000X0.350000X0*%
%ADD20RoundRect,0.250000X-0.337500X-0.475000X0.337500X-0.475000X0.337500X0.475000X-0.337500X0.475000X0*%
%ADD21C,3.200000*%
%ADD22RoundRect,0.250000X-0.350000X-0.450000X0.350000X-0.450000X0.350000X0.450000X-0.350000X0.450000X0*%
%ADD23O,1.700000X1.700000*%
%ADD24R,1.350000X1.350000*%
%ADD25O,1.350000X1.350000*%
%ADD26RoundRect,0.250000X-0.550000X-0.550000X0.550000X-0.550000X0.550000X0.550000X-0.550000X0.550000X0*%
%ADD27C,1.600000*%
G04 APERTURE END LIST*
D10*
X118600000Y-101864895D02*
X118600000Y-101064895D01*
X119438095Y-101864895D02*
X119171428Y-101483942D01*
X118980952Y-101864895D02*
X118980952Y-101064895D01*
X118980952Y-101064895D02*
X119285714Y-101064895D01*
X119285714Y-101064895D02*
X119361904Y-101102990D01*
X119361904Y-101102990D02*
X119399999Y-101141085D01*
X119399999Y-101141085D02*
X119438095Y-101217276D01*
X119438095Y-101217276D02*
X119438095Y-101331561D01*
X119438095Y-101331561D02*
X119399999Y-101407752D01*
X119399999Y-101407752D02*
X119361904Y-101445847D01*
X119361904Y-101445847D02*
X119285714Y-101483942D01*
X119285714Y-101483942D02*
X118980952Y-101483942D01*
X128447618Y-101864895D02*
X128447618Y-101064895D01*
X128447618Y-101064895D02*
X128752380Y-101064895D01*
X128752380Y-101064895D02*
X128828570Y-101102990D01*
X128828570Y-101102990D02*
X128866665Y-101141085D01*
X128866665Y-101141085D02*
X128904761Y-101217276D01*
X128904761Y-101217276D02*
X128904761Y-101331561D01*
X128904761Y-101331561D02*
X128866665Y-101407752D01*
X128866665Y-101407752D02*
X128828570Y-101445847D01*
X128828570Y-101445847D02*
X128752380Y-101483942D01*
X128752380Y-101483942D02*
X128447618Y-101483942D01*
X129247618Y-101864895D02*
X129247618Y-101064895D01*
X129247618Y-101064895D02*
X129552380Y-101064895D01*
X129552380Y-101064895D02*
X129628570Y-101102990D01*
X129628570Y-101102990D02*
X129666665Y-101141085D01*
X129666665Y-101141085D02*
X129704761Y-101217276D01*
X129704761Y-101217276D02*
X129704761Y-101331561D01*
X129704761Y-101331561D02*
X129666665Y-101407752D01*
X129666665Y-101407752D02*
X129628570Y-101445847D01*
X129628570Y-101445847D02*
X129552380Y-101483942D01*
X129552380Y-101483942D02*
X129247618Y-101483942D01*
X130466665Y-101102990D02*
X130390475Y-101064895D01*
X130390475Y-101064895D02*
X130276189Y-101064895D01*
X130276189Y-101064895D02*
X130161903Y-101102990D01*
X130161903Y-101102990D02*
X130085713Y-101179180D01*
X130085713Y-101179180D02*
X130047618Y-101255371D01*
X130047618Y-101255371D02*
X130009522Y-101407752D01*
X130009522Y-101407752D02*
X130009522Y-101522038D01*
X130009522Y-101522038D02*
X130047618Y-101674419D01*
X130047618Y-101674419D02*
X130085713Y-101750609D01*
X130085713Y-101750609D02*
X130161903Y-101826800D01*
X130161903Y-101826800D02*
X130276189Y-101864895D01*
X130276189Y-101864895D02*
X130352380Y-101864895D01*
X130352380Y-101864895D02*
X130466665Y-101826800D01*
X130466665Y-101826800D02*
X130504761Y-101788704D01*
X130504761Y-101788704D02*
X130504761Y-101522038D01*
X130504761Y-101522038D02*
X130352380Y-101522038D01*
X131838094Y-101864895D02*
X131457142Y-101864895D01*
X131457142Y-101864895D02*
X131457142Y-101064895D01*
X132104761Y-101445847D02*
X132371427Y-101445847D01*
X132485713Y-101864895D02*
X132104761Y-101864895D01*
X132104761Y-101864895D02*
X132104761Y-101064895D01*
X132104761Y-101064895D02*
X132485713Y-101064895D01*
X132828571Y-101864895D02*
X132828571Y-101064895D01*
X132828571Y-101064895D02*
X133019047Y-101064895D01*
X133019047Y-101064895D02*
X133133333Y-101102990D01*
X133133333Y-101102990D02*
X133209523Y-101179180D01*
X133209523Y-101179180D02*
X133247618Y-101255371D01*
X133247618Y-101255371D02*
X133285714Y-101407752D01*
X133285714Y-101407752D02*
X133285714Y-101522038D01*
X133285714Y-101522038D02*
X133247618Y-101674419D01*
X133247618Y-101674419D02*
X133209523Y-101750609D01*
X133209523Y-101750609D02*
X133133333Y-101826800D01*
X133133333Y-101826800D02*
X133019047Y-101864895D01*
X133019047Y-101864895D02*
X132828571Y-101864895D01*
X134199999Y-101026800D02*
X133514285Y-102055371D01*
X134466666Y-101864895D02*
X134466666Y-101064895D01*
X135304761Y-101864895D02*
X135038094Y-101483942D01*
X134847618Y-101864895D02*
X134847618Y-101064895D01*
X134847618Y-101064895D02*
X135152380Y-101064895D01*
X135152380Y-101064895D02*
X135228570Y-101102990D01*
X135228570Y-101102990D02*
X135266665Y-101141085D01*
X135266665Y-101141085D02*
X135304761Y-101217276D01*
X135304761Y-101217276D02*
X135304761Y-101331561D01*
X135304761Y-101331561D02*
X135266665Y-101407752D01*
X135266665Y-101407752D02*
X135228570Y-101445847D01*
X135228570Y-101445847D02*
X135152380Y-101483942D01*
X135152380Y-101483942D02*
X134847618Y-101483942D01*
X136142856Y-101064895D02*
X136599999Y-101064895D01*
X136371427Y-101864895D02*
X136371427Y-101064895D01*
X136790475Y-101064895D02*
X137323809Y-101864895D01*
X137323809Y-101064895D02*
X136790475Y-101864895D01*
X138161904Y-101064895D02*
X138695238Y-101064895D01*
X138695238Y-101064895D02*
X138352380Y-101864895D01*
X139152381Y-101064895D02*
X139228571Y-101064895D01*
X139228571Y-101064895D02*
X139304762Y-101102990D01*
X139304762Y-101102990D02*
X139342857Y-101141085D01*
X139342857Y-101141085D02*
X139380952Y-101217276D01*
X139380952Y-101217276D02*
X139419047Y-101369657D01*
X139419047Y-101369657D02*
X139419047Y-101560133D01*
X139419047Y-101560133D02*
X139380952Y-101712514D01*
X139380952Y-101712514D02*
X139342857Y-101788704D01*
X139342857Y-101788704D02*
X139304762Y-101826800D01*
X139304762Y-101826800D02*
X139228571Y-101864895D01*
X139228571Y-101864895D02*
X139152381Y-101864895D01*
X139152381Y-101864895D02*
X139076190Y-101826800D01*
X139076190Y-101826800D02*
X139038095Y-101788704D01*
X139038095Y-101788704D02*
X139000000Y-101712514D01*
X139000000Y-101712514D02*
X138961904Y-101560133D01*
X138961904Y-101560133D02*
X138961904Y-101369657D01*
X138961904Y-101369657D02*
X139000000Y-101217276D01*
X139000000Y-101217276D02*
X139038095Y-101141085D01*
X139038095Y-101141085D02*
X139076190Y-101102990D01*
X139076190Y-101102990D02*
X139152381Y-101064895D01*
X139685714Y-101864895D02*
X140104762Y-101331561D01*
X139685714Y-101331561D02*
X140104762Y-101864895D01*
X140752381Y-101331561D02*
X140752381Y-101864895D01*
X140561905Y-101026800D02*
X140371428Y-101598228D01*
X140371428Y-101598228D02*
X140866667Y-101598228D01*
X141323810Y-101064895D02*
X141400000Y-101064895D01*
X141400000Y-101064895D02*
X141476191Y-101102990D01*
X141476191Y-101102990D02*
X141514286Y-101141085D01*
X141514286Y-101141085D02*
X141552381Y-101217276D01*
X141552381Y-101217276D02*
X141590476Y-101369657D01*
X141590476Y-101369657D02*
X141590476Y-101560133D01*
X141590476Y-101560133D02*
X141552381Y-101712514D01*
X141552381Y-101712514D02*
X141514286Y-101788704D01*
X141514286Y-101788704D02*
X141476191Y-101826800D01*
X141476191Y-101826800D02*
X141400000Y-101864895D01*
X141400000Y-101864895D02*
X141323810Y-101864895D01*
X141323810Y-101864895D02*
X141247619Y-101826800D01*
X141247619Y-101826800D02*
X141209524Y-101788704D01*
X141209524Y-101788704D02*
X141171429Y-101712514D01*
X141171429Y-101712514D02*
X141133333Y-101560133D01*
X141133333Y-101560133D02*
X141133333Y-101369657D01*
X141133333Y-101369657D02*
X141171429Y-101217276D01*
X141171429Y-101217276D02*
X141209524Y-101141085D01*
X141209524Y-101141085D02*
X141247619Y-101102990D01*
X141247619Y-101102990D02*
X141323810Y-101064895D01*
X150485714Y-101864895D02*
X150219047Y-101483942D01*
X150028571Y-101864895D02*
X150028571Y-101064895D01*
X150028571Y-101064895D02*
X150333333Y-101064895D01*
X150333333Y-101064895D02*
X150409523Y-101102990D01*
X150409523Y-101102990D02*
X150447618Y-101141085D01*
X150447618Y-101141085D02*
X150485714Y-101217276D01*
X150485714Y-101217276D02*
X150485714Y-101331561D01*
X150485714Y-101331561D02*
X150447618Y-101407752D01*
X150447618Y-101407752D02*
X150409523Y-101445847D01*
X150409523Y-101445847D02*
X150333333Y-101483942D01*
X150333333Y-101483942D02*
X150028571Y-101483942D01*
X150828571Y-101445847D02*
X151095237Y-101445847D01*
X151209523Y-101864895D02*
X150828571Y-101864895D01*
X150828571Y-101864895D02*
X150828571Y-101064895D01*
X150828571Y-101064895D02*
X151209523Y-101064895D01*
X151552381Y-101864895D02*
X151552381Y-101064895D01*
X151552381Y-101064895D02*
X151742857Y-101064895D01*
X151742857Y-101064895D02*
X151857143Y-101102990D01*
X151857143Y-101102990D02*
X151933333Y-101179180D01*
X151933333Y-101179180D02*
X151971428Y-101255371D01*
X151971428Y-101255371D02*
X152009524Y-101407752D01*
X152009524Y-101407752D02*
X152009524Y-101522038D01*
X152009524Y-101522038D02*
X151971428Y-101674419D01*
X151971428Y-101674419D02*
X151933333Y-101750609D01*
X151933333Y-101750609D02*
X151857143Y-101826800D01*
X151857143Y-101826800D02*
X151742857Y-101864895D01*
X151742857Y-101864895D02*
X151552381Y-101864895D01*
%TO.C,R7*%
D11*
X150037064Y-121265000D02*
X149582936Y-121265000D01*
X150037064Y-122735000D02*
X149582936Y-122735000D01*
%TO.C,Q2*%
X147740000Y-133350000D02*
X151340000Y-133350000D01*
X147183600Y-130401193D02*
G75*
G02*
X149540000Y-128900000I2356400J-1098807D01*
G01*
X147740000Y-133350000D02*
G75*
G02*
X147215816Y-132622795I1800000J1850000D01*
G01*
X149540000Y-128900000D02*
G75*
G02*
X151896400Y-130401193I0J-2600000D01*
G01*
X151864184Y-132622795D02*
G75*
G02*
X151340000Y-133350000I-2324184J1122795D01*
G01*
%TO.C,J5*%
X121620000Y-138380000D02*
X121620000Y-137000000D01*
X123000000Y-138380000D02*
X121620000Y-138380000D01*
X124270000Y-135620000D02*
X126920000Y-135620000D01*
X124270000Y-138380000D02*
X124270000Y-135620000D01*
X124270000Y-138380000D02*
X126920000Y-138380000D01*
X126920000Y-138380000D02*
X126920000Y-135620000D01*
%TO.C,J7*%
X132620000Y-138380000D02*
X132620000Y-137000000D01*
X134000000Y-138380000D02*
X132620000Y-138380000D01*
X135270000Y-135620000D02*
X137920000Y-135620000D01*
X135270000Y-138380000D02*
X135270000Y-135620000D01*
X135270000Y-138380000D02*
X137920000Y-138380000D01*
X137920000Y-138380000D02*
X137920000Y-135620000D01*
%TO.C,R9*%
X160272936Y-131590000D02*
X161727064Y-131590000D01*
X160272936Y-133410000D02*
X161727064Y-133410000D01*
%TO.C,C2*%
X126265000Y-130238748D02*
X126265000Y-130761252D01*
X127735000Y-130238748D02*
X127735000Y-130761252D01*
%TO.C,R3*%
X122265000Y-125082936D02*
X122265000Y-125537064D01*
X123735000Y-125082936D02*
X123735000Y-125537064D01*
%TO.C,Q1*%
X118740000Y-133350000D02*
X122340000Y-133350000D01*
X118183600Y-130401193D02*
G75*
G02*
X120540000Y-128900000I2356400J-1098807D01*
G01*
X118740000Y-133350000D02*
G75*
G02*
X118215816Y-132622795I1800000J1850000D01*
G01*
X120540000Y-128900000D02*
G75*
G02*
X122896400Y-130401193I0J-2600000D01*
G01*
X122864184Y-132622795D02*
G75*
G02*
X122340000Y-133350000I-2324184J1122795D01*
G01*
%TO.C,C5*%
X143738748Y-120765000D02*
X144261252Y-120765000D01*
X143738748Y-122235000D02*
X144261252Y-122235000D01*
%TO.C,J3*%
X138670000Y-106270000D02*
X138670000Y-119030000D01*
X138670000Y-106270000D02*
X141330000Y-106270000D01*
X138670000Y-119030000D02*
X141330000Y-119030000D01*
X140000000Y-103670000D02*
X141330000Y-103670000D01*
X141330000Y-103670000D02*
X141330000Y-105000000D01*
X141330000Y-106270000D02*
X141330000Y-119030000D01*
%TO.C,C4*%
X142265000Y-130238748D02*
X142265000Y-130761252D01*
X143735000Y-130238748D02*
X143735000Y-130761252D01*
%TO.C,R6*%
X149582936Y-118265000D02*
X150037064Y-118265000D01*
X149582936Y-119735000D02*
X150037064Y-119735000D01*
%TO.C,J2*%
X127650000Y-103650000D02*
X130350000Y-103650000D01*
X130350000Y-108890000D01*
X127650000Y-108890000D01*
X127650000Y-103650000D01*
X127900000Y-110400000D02*
X130100000Y-110400000D01*
X130100000Y-118600000D01*
X127900000Y-118600000D01*
X127900000Y-110400000D01*
%TO.C,R4*%
X110272936Y-136090000D02*
X111727064Y-136090000D01*
X110272936Y-137910000D02*
X111727064Y-137910000D01*
%TO.C,R1*%
X112582936Y-118265000D02*
X113037064Y-118265000D01*
X112582936Y-119735000D02*
X113037064Y-119735000D01*
%TO.C,U1*%
X132350000Y-120860000D02*
X132350000Y-131140000D01*
X132350000Y-131140000D02*
X137650000Y-131140000D01*
X134000000Y-120860000D02*
X132350000Y-120860000D01*
X137650000Y-120860000D02*
X136000000Y-120860000D01*
X137650000Y-131140000D02*
X137650000Y-120860000D01*
X129860000Y-120800000D02*
X140140000Y-120800000D01*
X140140000Y-131200000D01*
X129860000Y-131200000D01*
X129860000Y-120800000D01*
X136000000Y-120860000D02*
G75*
G02*
X134000000Y-120860000I-1000000J0D01*
G01*
%TO.C,J4*%
X160620000Y-103620000D02*
X162000000Y-103620000D01*
X160620000Y-105000000D02*
X160620000Y-103620000D01*
X160620000Y-106270000D02*
X160620000Y-108920000D01*
X160620000Y-106270000D02*
X163380000Y-106270000D01*
X160620000Y-108920000D02*
X163380000Y-108920000D01*
X163380000Y-106270000D02*
X163380000Y-108920000D01*
%TO.C,R2*%
X113037064Y-121265000D02*
X112582936Y-121265000D01*
X113037064Y-122735000D02*
X112582936Y-122735000D01*
%TO.C,J6*%
X144620000Y-138380000D02*
X144620000Y-137000000D01*
X146000000Y-138380000D02*
X144620000Y-138380000D01*
X147270000Y-135620000D02*
X149920000Y-135620000D01*
X147270000Y-138380000D02*
X147270000Y-135620000D01*
X147270000Y-138380000D02*
X149920000Y-138380000D01*
X149920000Y-138380000D02*
X149920000Y-135620000D01*
%TO.C,R8*%
X149582936Y-126265000D02*
X150037064Y-126265000D01*
X149582936Y-127735000D02*
X150037064Y-127735000D01*
%TO.C,J1*%
X105670000Y-106270000D02*
X105670000Y-119030000D01*
X105670000Y-106270000D02*
X108330000Y-106270000D01*
X105670000Y-119030000D02*
X108330000Y-119030000D01*
X107000000Y-103670000D02*
X108330000Y-103670000D01*
X108330000Y-103670000D02*
X108330000Y-105000000D01*
X108330000Y-106270000D02*
X108330000Y-119030000D01*
%TD*%
%LPC*%
D12*
%TO.C,R7*%
X150810000Y-122000000D03*
X148810000Y-122000000D03*
%TD*%
D13*
%TO.C,Q2*%
X147000000Y-131500000D03*
D14*
X149540000Y-131500000D03*
X152080000Y-131500000D03*
%TD*%
D15*
%TO.C,J5*%
X123000000Y-137000000D03*
D16*
X125540000Y-137000000D03*
%TD*%
D15*
%TO.C,J7*%
X134000000Y-137000000D03*
D16*
X136540000Y-137000000D03*
%TD*%
D17*
%TO.C,R9*%
X159450000Y-132500000D03*
X162550000Y-132500000D03*
%TD*%
D18*
%TO.C,C2*%
X127000000Y-129462500D03*
X127000000Y-131537500D03*
%TD*%
D19*
%TO.C,R3*%
X123000000Y-124310000D03*
X123000000Y-126310000D03*
%TD*%
D13*
%TO.C,Q1*%
X118000000Y-131500000D03*
D14*
X120540000Y-131500000D03*
X123080000Y-131500000D03*
%TD*%
D20*
%TO.C,C5*%
X142962500Y-121500000D03*
X145037500Y-121500000D03*
%TD*%
D15*
%TO.C,J3*%
X140000000Y-105000000D03*
D16*
X140000000Y-107540000D03*
X140000000Y-110080000D03*
X140000000Y-112620000D03*
X140000000Y-115160000D03*
X140000000Y-117700000D03*
%TD*%
D18*
%TO.C,C4*%
X143000000Y-129462500D03*
X143000000Y-131537500D03*
%TD*%
D21*
%TO.C,H1*%
X104000000Y-124000000D03*
%TD*%
%TO.C,H2*%
X166000000Y-124000000D03*
%TD*%
D22*
%TO.C,R6*%
X148810000Y-119000000D03*
X150810000Y-119000000D03*
%TD*%
D15*
%TO.C,J2*%
X129000000Y-105000000D03*
D23*
X129000000Y-107540000D03*
D24*
X129000000Y-111500000D03*
D25*
X129000000Y-113500000D03*
X129000000Y-115500000D03*
X129000000Y-117500000D03*
%TD*%
D17*
%TO.C,R4*%
X109450000Y-137000000D03*
X112550000Y-137000000D03*
%TD*%
D22*
%TO.C,R1*%
X111810000Y-119000000D03*
X113810000Y-119000000D03*
%TD*%
D21*
%TO.C,H3*%
X104000000Y-136000000D03*
%TD*%
D26*
%TO.C,U1*%
X131190000Y-122190000D03*
D27*
X131190000Y-124730000D03*
X131190000Y-127270000D03*
X131190000Y-129810000D03*
X138810000Y-129810000D03*
X138810000Y-127270000D03*
X138810000Y-124730000D03*
X138810000Y-122190000D03*
%TD*%
D15*
%TO.C,J4*%
X162000000Y-105000000D03*
D16*
X162000000Y-107540000D03*
%TD*%
D12*
%TO.C,R2*%
X113810000Y-122000000D03*
X111810000Y-122000000D03*
%TD*%
D15*
%TO.C,J6*%
X146000000Y-137000000D03*
D16*
X148540000Y-137000000D03*
%TD*%
D21*
%TO.C,H4*%
X166000000Y-136000000D03*
%TD*%
D22*
%TO.C,R8*%
X148810000Y-127000000D03*
X150810000Y-127000000D03*
%TD*%
D15*
%TO.C,J1*%
X107000000Y-105000000D03*
D16*
X107000000Y-107540000D03*
X107000000Y-110080000D03*
X107000000Y-112620000D03*
X107000000Y-115160000D03*
X107000000Y-117700000D03*
%TD*%
%LPD*%
M02*
