%TF.GenerationSoftware,KiCad,Pcbnew,10.0.6*%
%TF.CreationDate,2026-10-02T09:46:16+07:00*%
%TF.ProjectId,led_ir_driver,6c65645f-6972-45f6-9472-697665722e6b,rev?*%
%TF.SameCoordinates,Original*%
%TF.FileFunction,Soldermask,Bot*%
%TF.FilePolarity,Negative*%
%FSLAX46Y46*%
G04 Gerber Fmt 4.6, Leading zero omitted, Abs format (unit mm)*
G04 Created by KiCad (PCBNEW 10.0.6) date 2026-10-02 09:46:16*
%MOMM*%
%LPD*%
G01*
G04 APERTURE LIST*
G04 Aperture macros list*
%AMRoundRect*
0 Rectangle with rounded corners*
0 $1 Rounding radius*
0 $2 $3 $4 $5 $6 $7 $8 $9 X,Y pos of 4 corners*
0 Add a 4 corners polygon primitive as box body*
4,1,4,$2,$3,$4,$5,$6,$7,$8,$9,$2,$3,0*
0 Add four circle primitives for the rounded corners*
1,1,$1+$1,$2,$3*
1,1,$1+$1,$4,$5*
1,1,$1+$1,$6,$7*
1,1,$1+$1,$8,$9*
0 Add four rect primitives between the rounded corners*
20,1,$1+$1,$2,$3,$4,$5,0*
20,1,$1+$1,$4,$5,$6,$7,0*
20,1,$1+$1,$6,$7,$8,$9,0*
20,1,$1+$1,$8,$9,$2,$3,0*%
G04 Aperture macros list end*
%ADD10R,1.700000X1.700000*%
%ADD11C,1.700000*%
%ADD12C,3.200000*%
%ADD13R,1.500000X1.500000*%
%ADD14C,1.500000*%
%ADD15O,1.700000X1.700000*%
%ADD16R,1.350000X1.350000*%
%ADD17O,1.350000X1.350000*%
%ADD18RoundRect,0.250000X-0.550000X-0.550000X0.550000X-0.550000X0.550000X0.550000X-0.550000X0.550000X0*%
%ADD19C,1.600000*%
G04 APERTURE END LIST*
D10*
%TO.C,J4*%
X162000000Y-105000000D03*
D11*
X162000000Y-107540000D03*
%TD*%
D12*
%TO.C,H1*%
X104000000Y-125000000D03*
%TD*%
D10*
%TO.C,J6*%
X146000000Y-145000000D03*
D11*
X148540000Y-145000000D03*
%TD*%
D13*
%TO.C,Q2*%
X147000000Y-136000000D03*
D14*
X149540000Y-136000000D03*
X152080000Y-136000000D03*
%TD*%
D12*
%TO.C,H3*%
X104000000Y-144000000D03*
%TD*%
D10*
%TO.C,J2*%
X129000000Y-105000000D03*
D15*
X129000000Y-107540000D03*
D16*
X129000000Y-111500000D03*
D17*
X129000000Y-113500000D03*
X129000000Y-115500000D03*
X129000000Y-117500000D03*
%TD*%
D12*
%TO.C,H4*%
X166000000Y-144000000D03*
%TD*%
D10*
%TO.C,J1*%
X107000000Y-105000000D03*
D11*
X107000000Y-107540000D03*
X107000000Y-110080000D03*
X107000000Y-112620000D03*
X107000000Y-115160000D03*
X107000000Y-117700000D03*
%TD*%
D10*
%TO.C,J5*%
X123000000Y-145000000D03*
D11*
X125540000Y-145000000D03*
%TD*%
D13*
%TO.C,Q1*%
X118000000Y-136000000D03*
D14*
X120540000Y-136000000D03*
X123080000Y-136000000D03*
%TD*%
D10*
%TO.C,J3*%
X140000000Y-105000000D03*
D11*
X140000000Y-107540000D03*
X140000000Y-110080000D03*
X140000000Y-112620000D03*
X140000000Y-115160000D03*
X140000000Y-117700000D03*
%TD*%
D10*
%TO.C,J7*%
X134000000Y-145000000D03*
D11*
X136540000Y-145000000D03*
%TD*%
D12*
%TO.C,H2*%
X166000000Y-125000000D03*
%TD*%
D18*
%TO.C,U1*%
X131190000Y-125190000D03*
D19*
X131190000Y-127730000D03*
X131190000Y-130270000D03*
X131190000Y-132810000D03*
X138810000Y-132810000D03*
X138810000Y-130270000D03*
X138810000Y-127730000D03*
X138810000Y-125190000D03*
%TD*%
M02*
