%TF.GenerationSoftware,KiCad,Pcbnew,10.0.6*%
%TF.CreationDate,2026-10-01T22:33:47+07:00*%
%TF.ProjectId,led_ir_driver,6c65645f-6972-45f6-9472-697665722e6b,rev?*%
%TF.SameCoordinates,Original*%
%TF.FileFunction,Copper,L1,Top*%
%TF.FilePolarity,Positive*%
%FSLAX46Y46*%
G04 Gerber Fmt 4.6, Leading zero omitted, Abs format (unit mm)*
G04 Created by KiCad (PCBNEW 10.0.6) date 2026-10-01 22:33:47*
%MOMM*%
%LPD*%
G01*
G04 APERTURE LIST*
G04 Aperture macros list*
%AMRoundRect*
0 Rectangle with rounded corners*
0 $1 Rounding radius*
0 $2 $3 $4 $5 $6 $7 $8 $9 X,Y pos of 4 corners*
0 Add a 4 corners polygon primitive as box body*
4,1,4,$2,$3,$4,$5,$6,$7,$8,$9,$2,$3,0*
0 Add four circle primitives for the rounded corners*
1,1,$1+$1,$2,$3*
1,1,$1+$1,$4,$5*
1,1,$1+$1,$6,$7*
1,1,$1+$1,$8,$9*
0 Add four rect primitives between the rounded corners*
20,1,$1+$1,$2,$3,$4,$5,0*
20,1,$1+$1,$4,$5,$6,$7,0*
20,1,$1+$1,$6,$7,$8,$9,0*
20,1,$1+$1,$8,$9,$2,$3,0*%
G04 Aperture macros list end*
%TA.AperFunction,ComponentPad*%
%ADD10C,1.600000*%
%TD*%
%TA.AperFunction,ComponentPad*%
%ADD11RoundRect,0.250000X-0.550000X-0.550000X0.550000X-0.550000X0.550000X0.550000X-0.550000X0.550000X0*%
%TD*%
%TA.AperFunction,ComponentPad*%
%ADD12R,1.700000X1.700000*%
%TD*%
%TA.AperFunction,ComponentPad*%
%ADD13C,1.700000*%
%TD*%
%TA.AperFunction,ComponentPad*%
%ADD14R,1.500000X1.500000*%
%TD*%
%TA.AperFunction,ComponentPad*%
%ADD15C,1.500000*%
%TD*%
%TA.AperFunction,ComponentPad*%
%ADD16O,1.700000X1.700000*%
%TD*%
%TA.AperFunction,ComponentPad*%
%ADD17R,1.350000X1.350000*%
%TD*%
%TA.AperFunction,ComponentPad*%
%ADD18O,1.350000X1.350000*%
%TD*%
%TA.AperFunction,Conductor*%
%ADD19C,0.350000*%
%TD*%
%TA.AperFunction,Conductor*%
%ADD20C,0.600000*%
%TD*%
%TA.AperFunction,Conductor*%
%ADD21C,0.800000*%
%TD*%
G04 APERTURE END LIST*
D10*
%TO.P,R7,1*%
%TO.N,/CMD_RED*%
X153620000Y-126000000D03*
%TO.P,R7,2*%
%TO.N,/GND*%
X146000000Y-126000000D03*
%TD*%
%TO.P,R2,1*%
%TO.N,/CMD_IR*%
X116620000Y-126000000D03*
%TO.P,R2,2*%
%TO.N,/GND*%
X109000000Y-126000000D03*
%TD*%
%TO.P,C4,1*%
%TO.N,/AMP_RED*%
X143000000Y-133000000D03*
%TO.P,C4,2*%
%TO.N,/SENSE_RED*%
X143000000Y-135500000D03*
%TD*%
D11*
%TO.P,U1,1*%
%TO.N,/AMP_IR*%
X131190000Y-125190000D03*
D10*
%TO.P,U1,2*%
%TO.N,/SENSE_IR*%
X131190000Y-127730000D03*
%TO.P,U1,3*%
%TO.N,/CMD_IR*%
X131190000Y-130270000D03*
%TO.P,U1,4*%
%TO.N,/GND*%
X131190000Y-132810000D03*
%TO.P,U1,5*%
%TO.N,/CMD_RED*%
X138810000Y-132810000D03*
%TO.P,U1,6*%
%TO.N,/SENSE_RED*%
X138810000Y-130270000D03*
%TO.P,U1,7*%
%TO.N,/AMP_RED*%
X138810000Y-127730000D03*
%TO.P,U1,8*%
%TO.N,/5V*%
X138810000Y-125190000D03*
%TD*%
%TO.P,R4,1*%
%TO.N,/SENSE_IR*%
X112000000Y-141000000D03*
%TO.P,R4,2*%
%TO.N,/GND*%
X119620000Y-141000000D03*
%TD*%
D12*
%TO.P,J1,1*%
%TO.N,/DAC_IR*%
X107000000Y-105000000D03*
D13*
%TO.P,J1,2*%
%TO.N,/GND*%
X107000000Y-107540000D03*
%TO.P,J1,3*%
%TO.N,/SCL*%
X107000000Y-110080000D03*
%TO.P,J1,4*%
%TO.N,/SDA*%
X107000000Y-112620000D03*
%TO.P,J1,5*%
%TO.N,/3V3*%
X107000000Y-115160000D03*
%TO.P,J1,6*%
%TO.N,/GND*%
X107000000Y-117700000D03*
%TD*%
D12*
%TO.P,J5,1*%
%TO.N,/5V*%
X123000000Y-145000000D03*
D13*
%TO.P,J5,2*%
%TO.N,/LED_K_IR*%
X125540000Y-145000000D03*
%TD*%
D12*
%TO.P,J7,1*%
%TO.N,/5V*%
X134000000Y-145000000D03*
D13*
%TO.P,J7,2*%
%TO.N,/GND*%
X136540000Y-145000000D03*
%TD*%
D12*
%TO.P,J3,1*%
%TO.N,/DAC_RED*%
X140000000Y-105000000D03*
D13*
%TO.P,J3,2*%
%TO.N,/GND*%
X140000000Y-107540000D03*
%TO.P,J3,3*%
%TO.N,/SCL*%
X140000000Y-110080000D03*
%TO.P,J3,4*%
%TO.N,/SDA*%
X140000000Y-112620000D03*
%TO.P,J3,5*%
%TO.N,/3V3*%
X140000000Y-115160000D03*
%TO.P,J3,6*%
%TO.N,/GND*%
X140000000Y-117700000D03*
%TD*%
D10*
%TO.P,R1,1*%
%TO.N,/DAC_IR*%
X109000000Y-122000000D03*
%TO.P,R1,2*%
%TO.N,/CMD_IR*%
X116620000Y-122000000D03*
%TD*%
%TO.P,R8,1*%
%TO.N,/AMP_RED*%
X146000000Y-130000000D03*
%TO.P,R8,2*%
%TO.N,/BASE_RED*%
X153620000Y-130000000D03*
%TD*%
D14*
%TO.P,Q1,1*%
%TO.N,/SENSE_IR*%
X118000000Y-136000000D03*
D15*
%TO.P,Q1,2*%
%TO.N,/BASE_IR*%
X120540000Y-136000000D03*
%TO.P,Q1,3*%
%TO.N,/LED_K_IR*%
X123080000Y-136000000D03*
%TD*%
D14*
%TO.P,Q2,1*%
%TO.N,/SENSE_RED*%
X147000000Y-136000000D03*
D15*
%TO.P,Q2,2*%
%TO.N,/BASE_RED*%
X149540000Y-136000000D03*
%TO.P,Q2,3*%
%TO.N,/LED_K_RED*%
X152080000Y-136000000D03*
%TD*%
D12*
%TO.P,J2,1*%
%TO.N,/DAC_IR*%
X129000000Y-105000000D03*
D16*
%TO.P,J2,2*%
%TO.N,/GND*%
X129000000Y-107540000D03*
D17*
%TO.P,J2,3*%
%TO.N,/SCL*%
X129000000Y-111500000D03*
D18*
%TO.P,J2,4*%
%TO.N,/SDA*%
X129000000Y-113500000D03*
%TO.P,J2,5*%
%TO.N,/3V3*%
X129000000Y-115500000D03*
%TO.P,J2,6*%
%TO.N,/GND*%
X129000000Y-117500000D03*
%TD*%
D12*
%TO.P,J4,1*%
%TO.N,/DAC_RED*%
X162000000Y-105000000D03*
D13*
%TO.P,J4,2*%
%TO.N,/GND*%
X162000000Y-107540000D03*
%TD*%
D10*
%TO.P,C5,1*%
%TO.N,/5V*%
X138810000Y-121000000D03*
%TO.P,C5,2*%
%TO.N,/GND*%
X141310000Y-121000000D03*
%TD*%
%TO.P,C2,1*%
%TO.N,/AMP_IR*%
X127000000Y-133000000D03*
%TO.P,C2,2*%
%TO.N,/SENSE_IR*%
X127000000Y-135500000D03*
%TD*%
%TO.P,R9,1*%
%TO.N,/SENSE_RED*%
X148000000Y-141000000D03*
%TO.P,R9,2*%
%TO.N,/GND*%
X155620000Y-141000000D03*
%TD*%
D11*
%TO.P,C7,1*%
%TO.N,/5V*%
X130000000Y-140000000D03*
D10*
%TO.P,C7,2*%
%TO.N,/GND*%
X132000000Y-140000000D03*
%TD*%
%TO.P,R3,1*%
%TO.N,/AMP_IR*%
X123000000Y-124500000D03*
%TO.P,R3,2*%
%TO.N,/BASE_IR*%
X123000000Y-132120000D03*
%TD*%
%TO.P,R6,1*%
%TO.N,/DAC_RED*%
X146000000Y-122000000D03*
%TO.P,R6,2*%
%TO.N,/CMD_RED*%
X153620000Y-122000000D03*
%TD*%
D12*
%TO.P,J6,1*%
%TO.N,/5V*%
X146000000Y-145000000D03*
D13*
%TO.P,J6,2*%
%TO.N,/LED_K_RED*%
X148540000Y-145000000D03*
%TD*%
%TO.N,/CMD_RED*%
D19*
X153620000Y-122000000D02*
X153620000Y-126000000D01*
%TO.N,/CMD_IR*%
X116620000Y-128000000D02*
X127000000Y-128000000D01*
X116620000Y-122000000D02*
X116620000Y-126000000D01*
X116620000Y-126000000D02*
X116620000Y-128000000D01*
X129000000Y-130000000D02*
X129000000Y-130270000D01*
X129000000Y-130270000D02*
X131190000Y-130270000D01*
X127000000Y-128000000D02*
X129000000Y-130000000D01*
%TO.N,/AMP_RED*%
X144000000Y-127729999D02*
X146000000Y-129730000D01*
X146000000Y-130000000D02*
X143000000Y-130000000D01*
X146000000Y-129730000D02*
X146000000Y-130000000D01*
X143000000Y-130000000D02*
X143000000Y-133000000D01*
X138810000Y-127729999D02*
X144000000Y-127729999D01*
%TO.N,/SENSE_RED*%
D20*
X148000000Y-137000000D02*
X148000000Y-141000000D01*
D19*
X138810000Y-130270000D02*
X140800000Y-130270000D01*
D20*
X147000000Y-136000000D02*
X148000000Y-137000000D01*
D19*
X140800000Y-130270000D02*
X140800000Y-141000000D01*
X140800000Y-141000000D02*
X148000000Y-141000000D01*
%TO.N,/AMP_IR*%
X129000000Y-125190000D02*
X127810000Y-124000000D01*
X123000000Y-124000000D02*
X123000000Y-124500000D01*
X127810000Y-124000000D02*
X123000000Y-124000000D01*
X131190000Y-125190000D02*
X129000000Y-125190000D01*
%TO.N,/SENSE_IR*%
D20*
X112000000Y-136000000D02*
X112000000Y-141000000D01*
X118000000Y-136000000D02*
X112000000Y-136000000D01*
%TO.N,/5V*%
D21*
X130000000Y-142000000D02*
X130000000Y-140000000D01*
X134000000Y-142000000D02*
X130000000Y-142000000D01*
X134000000Y-145000000D02*
X134000000Y-142000000D01*
%TO.N,/SCL*%
D19*
X126000000Y-111500000D02*
X129000000Y-111500000D01*
X131000000Y-110080000D02*
X140000000Y-110080000D01*
X129000000Y-111500000D02*
X131000000Y-111500000D01*
X107000000Y-110080000D02*
X126000000Y-110080000D01*
X131000000Y-111500000D02*
X131000000Y-110080000D01*
X126000000Y-110080000D02*
X126000000Y-111500000D01*
%TO.N,/SDA*%
X126000000Y-113500000D02*
X129000000Y-113500000D01*
X131000000Y-112620000D02*
X140000000Y-112620000D01*
X126000000Y-112620000D02*
X126000000Y-113500000D01*
X129000000Y-113500000D02*
X131000000Y-113500000D01*
X131000000Y-113500000D02*
X131000000Y-112620000D01*
X107000000Y-112620000D02*
X126000000Y-112620000D01*
%TO.N,/3V3*%
D20*
X131000000Y-115500000D02*
X131000000Y-115160000D01*
X126000000Y-115500000D02*
X129000000Y-115500000D01*
X131000000Y-115160000D02*
X140000000Y-115160000D01*
X126000000Y-115160000D02*
X126000000Y-115500000D01*
X129000000Y-115500000D02*
X131000000Y-115500000D01*
X107000000Y-115160000D02*
X126000000Y-115160000D01*
%TO.N,/LED_K_IR*%
X123080000Y-136000000D02*
X124800000Y-137720000D01*
X125539999Y-144240000D02*
X125539999Y-145000000D01*
X124800000Y-143500000D02*
X125539999Y-144240000D01*
X124800000Y-137720000D02*
X124800000Y-143500000D01*
%TO.N,/BASE_RED*%
D19*
X149540000Y-133500000D02*
X149540000Y-136000000D01*
X153620000Y-130000000D02*
X153620000Y-133500000D01*
X153620000Y-133500000D02*
X149540000Y-133500000D01*
%TO.N,/BASE_IR*%
X120539999Y-133500000D02*
X120539999Y-136000000D01*
X123000000Y-133500000D02*
X120539999Y-133500000D01*
X123000000Y-132120000D02*
X123000000Y-133500000D01*
%TO.N,/LED_K_RED*%
D20*
X148540000Y-144000000D02*
X148540000Y-145000000D01*
X158000000Y-144000000D02*
X148540000Y-144000000D01*
X155000000Y-136000000D02*
X158000000Y-139000000D01*
X152079999Y-136000000D02*
X155000000Y-136000000D01*
X158000000Y-139000000D02*
X158000000Y-144000000D01*
%TD*%
M02*
