%TF.GenerationSoftware,KiCad,Pcbnew,10.0.6*%
%TF.CreationDate,2026-10-02T21:55:37+07:00*%
%TF.ProjectId,led_ir_driver,6c65645f-6972-45f6-9472-697665722e6b,rev?*%
%TF.SameCoordinates,Original*%
%TF.FileFunction,Copper,L2,Bot*%
%TF.FilePolarity,Positive*%
%FSLAX46Y46*%
G04 Gerber Fmt 4.6, Leading zero omitted, Abs format (unit mm)*
G04 Created by KiCad (PCBNEW 10.0.6) date 2026-10-02 21:55:37*
%MOMM*%
%LPD*%
G01*
G04 APERTURE LIST*
G04 Aperture macros list*
%AMRoundRect*
0 Rectangle with rounded corners*
0 $1 Rounding radius*
0 $2 $3 $4 $5 $6 $7 $8 $9 X,Y pos of 4 corners*
0 Add a 4 corners polygon primitive as box body*
4,1,4,$2,$3,$4,$5,$6,$7,$8,$9,$2,$3,0*
0 Add four circle primitives for the rounded corners*
1,1,$1+$1,$2,$3*
1,1,$1+$1,$4,$5*
1,1,$1+$1,$6,$7*
1,1,$1+$1,$8,$9*
0 Add four rect primitives between the rounded corners*
20,1,$1+$1,$2,$3,$4,$5,0*
20,1,$1+$1,$4,$5,$6,$7,0*
20,1,$1+$1,$6,$7,$8,$9,0*
20,1,$1+$1,$8,$9,$2,$3,0*%
G04 Aperture macros list end*
%TA.AperFunction,ComponentPad*%
%ADD10R,1.500000X1.500000*%
%TD*%
%TA.AperFunction,ComponentPad*%
%ADD11C,1.500000*%
%TD*%
%TA.AperFunction,ComponentPad*%
%ADD12R,1.700000X1.700000*%
%TD*%
%TA.AperFunction,ComponentPad*%
%ADD13C,1.700000*%
%TD*%
%TA.AperFunction,ComponentPad*%
%ADD14O,1.700000X1.700000*%
%TD*%
%TA.AperFunction,ComponentPad*%
%ADD15R,1.350000X1.350000*%
%TD*%
%TA.AperFunction,ComponentPad*%
%ADD16O,1.350000X1.350000*%
%TD*%
%TA.AperFunction,ComponentPad*%
%ADD17RoundRect,0.250000X-0.550000X-0.550000X0.550000X-0.550000X0.550000X0.550000X-0.550000X0.550000X0*%
%TD*%
%TA.AperFunction,ComponentPad*%
%ADD18C,1.600000*%
%TD*%
%TA.AperFunction,SMDPad,CuDef*%
%ADD19RoundRect,0.250000X0.550000X-1.250000X0.550000X1.250000X-0.550000X1.250000X-0.550000X-1.250000X0*%
%TD*%
%TA.AperFunction,ViaPad*%
%ADD20C,0.800000*%
%TD*%
%TA.AperFunction,Conductor*%
%ADD21C,0.350000*%
%TD*%
%TA.AperFunction,Conductor*%
%ADD22C,0.600000*%
%TD*%
%TA.AperFunction,Conductor*%
%ADD23C,0.800000*%
%TD*%
%TA.AperFunction,Conductor*%
%ADD24C,0.300000*%
%TD*%
G04 APERTURE END LIST*
D10*
%TO.P,Q2,1*%
%TO.N,/SENSE_RED*%
X147000000Y-131500000D03*
D11*
%TO.P,Q2,2*%
%TO.N,/BASE_RED*%
X149540000Y-131500000D03*
%TO.P,Q2,3*%
%TO.N,/LED_K_RED*%
X152080000Y-131500000D03*
%TD*%
D12*
%TO.P,J5,1*%
%TO.N,/5V*%
X123000000Y-137000000D03*
D13*
%TO.P,J5,2*%
%TO.N,/LED_K_IR*%
X125540000Y-137000000D03*
%TD*%
D12*
%TO.P,J7,1*%
%TO.N,/5V*%
X134000000Y-137000000D03*
D13*
%TO.P,J7,2*%
%TO.N,/GND*%
X136540000Y-137000000D03*
%TD*%
D10*
%TO.P,Q1,1*%
%TO.N,/SENSE_IR*%
X118000000Y-131500000D03*
D11*
%TO.P,Q1,2*%
%TO.N,/BASE_IR*%
X120540000Y-131500000D03*
%TO.P,Q1,3*%
%TO.N,/LED_K_IR*%
X123080000Y-131500000D03*
%TD*%
D12*
%TO.P,J3,1*%
%TO.N,/DAC_RED*%
X140000000Y-105000000D03*
D13*
%TO.P,J3,2*%
%TO.N,/GND*%
X140000000Y-107540000D03*
%TO.P,J3,3*%
%TO.N,/SCL*%
X140000000Y-110080000D03*
%TO.P,J3,4*%
%TO.N,/SDA*%
X140000000Y-112620000D03*
%TO.P,J3,5*%
%TO.N,/3V3*%
X140000000Y-115160000D03*
%TO.P,J3,6*%
%TO.N,/GND*%
X140000000Y-117700000D03*
%TD*%
D12*
%TO.P,J2,1*%
%TO.N,/DAC_IR*%
X129000000Y-105000000D03*
D14*
%TO.P,J2,2*%
%TO.N,/GND*%
X129000000Y-107540000D03*
D15*
%TO.P,J2,3*%
%TO.N,/SCL*%
X129000000Y-111500000D03*
D16*
%TO.P,J2,4*%
%TO.N,/SDA*%
X129000000Y-113500000D03*
%TO.P,J2,5*%
%TO.N,/3V3*%
X129000000Y-115500000D03*
%TO.P,J2,6*%
%TO.N,/GND*%
X129000000Y-117500000D03*
%TD*%
D17*
%TO.P,U1,1*%
%TO.N,/AMP_IR*%
X131190000Y-122190000D03*
D18*
%TO.P,U1,2*%
%TO.N,/SENSE_IR*%
X131190000Y-124730000D03*
%TO.P,U1,3*%
%TO.N,/CMD_IR*%
X131190000Y-127270000D03*
%TO.P,U1,4*%
%TO.N,/GND*%
X131190000Y-129810000D03*
%TO.P,U1,5*%
%TO.N,/CMD_RED*%
X138810000Y-129810000D03*
%TO.P,U1,6*%
%TO.N,/SENSE_RED*%
X138810000Y-127270000D03*
%TO.P,U1,7*%
%TO.N,/AMP_RED*%
X138810000Y-124730000D03*
%TO.P,U1,8*%
%TO.N,/5V*%
X138810000Y-122190000D03*
%TD*%
D12*
%TO.P,J4,1*%
%TO.N,/DAC_RED*%
X162000000Y-105000000D03*
D13*
%TO.P,J4,2*%
%TO.N,/GND*%
X162000000Y-107540000D03*
%TD*%
D12*
%TO.P,J6,1*%
%TO.N,/5V*%
X146000000Y-137000000D03*
D13*
%TO.P,J6,2*%
%TO.N,/LED_K_RED*%
X148540000Y-137000000D03*
%TD*%
D12*
%TO.P,J1,1*%
%TO.N,/DAC_IR*%
X107000000Y-105000000D03*
D13*
%TO.P,J1,2*%
%TO.N,/GND*%
X107000000Y-107540000D03*
%TO.P,J1,3*%
%TO.N,/SCL*%
X107000000Y-110080000D03*
%TO.P,J1,4*%
%TO.N,/SDA*%
X107000000Y-112620000D03*
%TO.P,J1,5*%
%TO.N,/3V3*%
X107000000Y-115160000D03*
%TO.P,J1,6*%
%TO.N,/GND*%
X107000000Y-117700000D03*
%TD*%
D19*
%TO.P,C7,1*%
%TO.N,/5V*%
X134300000Y-118550000D03*
%TO.P,C7,2*%
%TO.N,/GND*%
X134300000Y-114150000D03*
%TD*%
D20*
%TO.N,/CMD_RED*%
X153620000Y-122857142D03*
%TO.N,/SENSE_RED*%
X159450000Y-134500000D03*
%TO.N,/5V*%
X139800000Y-122200000D03*
%TO.N,/AMP_IR*%
X127000000Y-128875000D03*
%TO.N,/SENSE_IR*%
X112000000Y-135000000D03*
X127000000Y-131062500D03*
%TO.N,/DAC_RED*%
X146000000Y-119750000D03*
%TO.N,/DAC_IR*%
X109000000Y-119750000D03*
%TO.N,/CMD_IR*%
X125000000Y-124571428D03*
X116620000Y-124571428D03*
%TD*%
%TO.N,/CMD_RED*%
D21*
X153620000Y-122857142D02*
X145762858Y-122857142D01*
X145762858Y-122857142D02*
X138810000Y-129810000D01*
%TO.N,/SENSE_RED*%
D22*
X150000000Y-134500000D02*
X159450000Y-134500000D01*
X147000000Y-131500000D02*
X150000000Y-134500000D01*
%TO.N,/5V*%
X139796000Y-122190000D02*
X139800000Y-122194000D01*
X138810000Y-121176000D02*
X138810000Y-122190000D01*
D23*
X123000000Y-138200000D02*
X123800000Y-139000000D01*
D22*
X134300000Y-118550000D02*
X134720000Y-118550000D01*
X135000000Y-136800000D02*
X135000000Y-120500000D01*
D23*
X123000000Y-138200000D02*
X123000000Y-137000000D01*
D22*
X138810000Y-122190000D02*
X139796000Y-122190000D01*
X135000000Y-136800000D02*
X134800000Y-137000000D01*
D23*
X134000000Y-139000000D02*
X123800000Y-139000000D01*
D22*
X134000000Y-137000000D02*
X134800000Y-137000000D01*
X135000000Y-118830000D02*
X135000000Y-120500000D01*
X138810000Y-121176000D02*
X138134000Y-120500000D01*
D23*
X134000000Y-139000000D02*
X145200000Y-139000000D01*
D22*
X135000000Y-120500000D02*
X138134000Y-120500000D01*
D23*
X134000000Y-137000000D02*
X134000000Y-139000000D01*
X146000000Y-138200000D02*
X146000000Y-137000000D01*
D22*
X139800000Y-122194000D02*
X139800000Y-122200000D01*
D23*
X145200000Y-139000000D02*
X146000000Y-138200000D01*
D22*
X134720000Y-118550000D02*
X135000000Y-118830000D01*
%TO.N,/AMP_IR*%
D21*
X128199999Y-122190000D02*
X127000000Y-123390000D01*
X131190000Y-122190000D02*
X128199999Y-122190000D01*
X127000000Y-123390000D02*
X127000000Y-128875000D01*
%TO.N,/SENSE_IR*%
X127000000Y-131062500D02*
X127000000Y-133199999D01*
X129199999Y-126720000D02*
X129199999Y-131000000D01*
X131190000Y-124730000D02*
X129199999Y-126720000D01*
X127000000Y-133199999D02*
X113800000Y-133199999D01*
X129199999Y-131000000D02*
X127000000Y-133199999D01*
X113800000Y-133199999D02*
X112000000Y-135000000D01*
%TO.N,/DAC_RED*%
D24*
X140000000Y-105000000D02*
X162000000Y-105000000D01*
X146000000Y-111000000D02*
X146000000Y-119750000D01*
X140000000Y-105000000D02*
X146000000Y-111000000D01*
%TO.N,/DAC_IR*%
X107000000Y-105000000D02*
X129000000Y-105000000D01*
X109000000Y-107000000D02*
X109000000Y-119750000D01*
X107000000Y-105000000D02*
X109000000Y-107000000D01*
%TO.N,/CMD_IR*%
D21*
X116620000Y-124571428D02*
X125000000Y-124571428D01*
%TD*%
%TA.AperFunction,Conductor*%
%TO.N,/GND*%
G36*
X169343039Y-100619685D02*
G01*
X169388794Y-100672489D01*
X169400000Y-100724000D01*
X169400000Y-139276000D01*
X169380315Y-139343039D01*
X169327511Y-139388794D01*
X169276000Y-139400000D01*
X146090019Y-139400000D01*
X146022980Y-139380315D01*
X145977225Y-139327511D01*
X145967281Y-139258353D01*
X145996306Y-139194797D01*
X146002338Y-139188319D01*
X146544112Y-138646545D01*
X146544114Y-138646543D01*
X146620775Y-138531811D01*
X146673580Y-138404328D01*
X146682389Y-138360040D01*
X146700500Y-138268996D01*
X146701097Y-138262934D01*
X146703817Y-138263201D01*
X146720185Y-138207460D01*
X146772989Y-138161705D01*
X146824500Y-138150499D01*
X146894856Y-138150499D01*
X146894864Y-138150499D01*
X146894879Y-138150497D01*
X146894882Y-138150497D01*
X146919987Y-138147586D01*
X146919988Y-138147585D01*
X146919991Y-138147585D01*
X147022765Y-138102206D01*
X147102206Y-138022765D01*
X147147585Y-137919991D01*
X147150500Y-137894865D01*
X147150499Y-137157125D01*
X147170183Y-137090089D01*
X147222987Y-137044334D01*
X147292146Y-137034390D01*
X147355702Y-137063415D01*
X147393476Y-137122193D01*
X147396972Y-137137729D01*
X147417829Y-137269410D01*
X147473787Y-137441636D01*
X147473788Y-137441639D01*
X147529052Y-137550099D01*
X147555869Y-137602730D01*
X147556006Y-137602997D01*
X147662441Y-137749494D01*
X147662445Y-137749499D01*
X147790500Y-137877554D01*
X147790505Y-137877558D01*
X147918287Y-137970396D01*
X147937006Y-137983996D01*
X148013094Y-138022765D01*
X148098360Y-138066211D01*
X148098363Y-138066212D01*
X148184476Y-138094191D01*
X148270591Y-138122171D01*
X148353429Y-138135291D01*
X148449449Y-138150500D01*
X148449454Y-138150500D01*
X148630551Y-138150500D01*
X148717259Y-138136765D01*
X148809409Y-138122171D01*
X148981639Y-138066211D01*
X149142994Y-137983996D01*
X149289501Y-137877553D01*
X149417553Y-137749501D01*
X149523996Y-137602994D01*
X149606211Y-137441639D01*
X149662171Y-137269409D01*
X149679025Y-137162997D01*
X149690500Y-137090551D01*
X149690500Y-136909448D01*
X149662189Y-136730706D01*
X149662171Y-136730591D01*
X149606211Y-136558361D01*
X149606211Y-136558360D01*
X149576474Y-136500000D01*
X149523996Y-136397006D01*
X149482950Y-136340511D01*
X149417558Y-136250505D01*
X149417554Y-136250500D01*
X149289499Y-136122445D01*
X149289494Y-136122441D01*
X149142997Y-136016006D01*
X149142996Y-136016005D01*
X149142994Y-136016004D01*
X149057017Y-135972196D01*
X149057016Y-135972195D01*
X148981644Y-135933790D01*
X148981636Y-135933787D01*
X148809410Y-135877829D01*
X148729587Y-135865186D01*
X163599500Y-135865186D01*
X163599500Y-136134813D01*
X163629686Y-136402719D01*
X163629688Y-136402731D01*
X163689684Y-136665594D01*
X163689687Y-136665602D01*
X163778734Y-136920082D01*
X163895714Y-137162994D01*
X163914564Y-137192993D01*
X164039162Y-137391289D01*
X164207266Y-137602085D01*
X164397915Y-137792734D01*
X164608711Y-137960838D01*
X164837003Y-138104284D01*
X165079921Y-138221267D01*
X165216323Y-138268996D01*
X165334397Y-138310312D01*
X165334405Y-138310315D01*
X165334408Y-138310315D01*
X165334409Y-138310316D01*
X165597268Y-138370312D01*
X165865187Y-138400499D01*
X165865188Y-138400500D01*
X165865191Y-138400500D01*
X166134812Y-138400500D01*
X166134812Y-138400499D01*
X166402732Y-138370312D01*
X166665591Y-138310316D01*
X166920079Y-138221267D01*
X167162997Y-138104284D01*
X167391289Y-137960838D01*
X167602085Y-137792734D01*
X167792734Y-137602085D01*
X167960838Y-137391289D01*
X168104284Y-137162997D01*
X168221267Y-136920079D01*
X168310316Y-136665591D01*
X168370312Y-136402732D01*
X168400500Y-136134809D01*
X168400500Y-135865191D01*
X168370312Y-135597268D01*
X168310316Y-135334409D01*
X168309404Y-135331804D01*
X168264799Y-135204328D01*
X168221267Y-135079921D01*
X168104284Y-134837003D01*
X167960838Y-134608711D01*
X167792734Y-134397915D01*
X167602085Y-134207266D01*
X167391289Y-134039162D01*
X167169019Y-133899500D01*
X167162994Y-133895714D01*
X166920082Y-133778734D01*
X166665602Y-133689687D01*
X166665594Y-133689684D01*
X166461463Y-133643093D01*
X166402732Y-133629688D01*
X166402728Y-133629687D01*
X166402719Y-133629686D01*
X166134813Y-133599500D01*
X166134809Y-133599500D01*
X165865191Y-133599500D01*
X165865186Y-133599500D01*
X165597280Y-133629686D01*
X165597268Y-133629688D01*
X165334405Y-133689684D01*
X165334397Y-133689687D01*
X165079917Y-133778734D01*
X164837005Y-133895714D01*
X164608712Y-134039161D01*
X164397915Y-134207265D01*
X164207265Y-134397915D01*
X164039161Y-134608712D01*
X163895714Y-134837005D01*
X163778734Y-135079917D01*
X163689687Y-135334397D01*
X163689684Y-135334405D01*
X163629688Y-135597268D01*
X163629686Y-135597280D01*
X163599500Y-135865186D01*
X148729587Y-135865186D01*
X148630551Y-135849500D01*
X148630546Y-135849500D01*
X148449454Y-135849500D01*
X148449449Y-135849500D01*
X148270589Y-135877829D01*
X148098363Y-135933787D01*
X148098360Y-135933788D01*
X147937002Y-136016006D01*
X147790505Y-136122441D01*
X147790500Y-136122445D01*
X147662445Y-136250500D01*
X147662441Y-136250505D01*
X147556006Y-136397002D01*
X147473788Y-136558360D01*
X147473787Y-136558363D01*
X147417829Y-136730589D01*
X147396972Y-136862271D01*
X147367042Y-136925405D01*
X147307731Y-136962336D01*
X147237868Y-136961338D01*
X147179636Y-136922728D01*
X147151522Y-136858764D01*
X147150499Y-136842872D01*
X147150499Y-136105143D01*
X147150499Y-136105136D01*
X147150497Y-136105117D01*
X147147586Y-136080012D01*
X147147585Y-136080010D01*
X147147585Y-136080009D01*
X147102206Y-135977235D01*
X147022765Y-135897794D01*
X146978654Y-135878317D01*
X146919992Y-135852415D01*
X146894865Y-135849500D01*
X145105143Y-135849500D01*
X145105117Y-135849502D01*
X145080012Y-135852413D01*
X145080008Y-135852415D01*
X144977235Y-135897793D01*
X144897794Y-135977234D01*
X144852415Y-136080006D01*
X144852415Y-136080008D01*
X144849500Y-136105131D01*
X144849500Y-137894856D01*
X144849502Y-137894882D01*
X144852413Y-137919987D01*
X144852415Y-137919991D01*
X144897793Y-138022764D01*
X144954504Y-138079475D01*
X144987989Y-138140798D01*
X144983005Y-138210490D01*
X144954509Y-138254832D01*
X144946166Y-138263176D01*
X144884845Y-138296665D01*
X144858480Y-138299500D01*
X137039179Y-138299500D01*
X136972140Y-138279815D01*
X136926385Y-138227011D01*
X136916441Y-138157853D01*
X136945466Y-138094297D01*
X136982884Y-138065015D01*
X137142730Y-137983568D01*
X137199487Y-137942330D01*
X137199488Y-137942329D01*
X136725178Y-137468019D01*
X136732993Y-137465925D01*
X136847007Y-137400099D01*
X136940099Y-137307007D01*
X137005925Y-137192993D01*
X137008019Y-137185177D01*
X137482329Y-137659488D01*
X137482330Y-137659487D01*
X137523568Y-137602730D01*
X137605747Y-137441447D01*
X137605748Y-137441444D01*
X137661682Y-137269293D01*
X137690000Y-137090506D01*
X137690000Y-136909493D01*
X137661682Y-136730706D01*
X137605748Y-136558555D01*
X137605747Y-136558552D01*
X137523565Y-136397265D01*
X137482331Y-136340511D01*
X137482330Y-136340510D01*
X137008018Y-136814821D01*
X137005925Y-136807007D01*
X136940099Y-136692993D01*
X136847007Y-136599901D01*
X136732993Y-136534075D01*
X136725176Y-136531980D01*
X137199487Y-136057668D01*
X137199487Y-136057667D01*
X137142734Y-136016434D01*
X136981447Y-135934252D01*
X136981444Y-135934251D01*
X136809293Y-135878317D01*
X136630506Y-135850000D01*
X136449494Y-135850000D01*
X136270706Y-135878317D01*
X136098555Y-135934251D01*
X136098552Y-135934252D01*
X135937270Y-136016431D01*
X135937268Y-136016432D01*
X135880511Y-136057667D01*
X135880511Y-136057668D01*
X136354823Y-136531980D01*
X136347007Y-136534075D01*
X136232993Y-136599901D01*
X136139901Y-136692993D01*
X136074075Y-136807007D01*
X136071980Y-136814822D01*
X135636819Y-136379661D01*
X135622115Y-136352733D01*
X135605523Y-136326915D01*
X135604631Y-136320714D01*
X135603334Y-136318338D01*
X135600500Y-136291980D01*
X135600500Y-127183389D01*
X137709500Y-127183389D01*
X137709500Y-127356611D01*
X137736598Y-127527701D01*
X137790127Y-127692445D01*
X137868768Y-127846788D01*
X137970586Y-127986928D01*
X138093072Y-128109414D01*
X138233212Y-128211232D01*
X138387555Y-128289873D01*
X138552299Y-128343402D01*
X138723389Y-128370500D01*
X138723390Y-128370500D01*
X138896610Y-128370500D01*
X138896611Y-128370500D01*
X139067701Y-128343402D01*
X139232445Y-128289873D01*
X139386788Y-128211232D01*
X139390269Y-128208702D01*
X139456072Y-128185217D01*
X139524128Y-128201036D01*
X139572827Y-128251137D01*
X139586709Y-128319614D01*
X139561366Y-128384725D01*
X139550844Y-128396695D01*
X139229545Y-128717994D01*
X139168222Y-128751479D01*
X139103546Y-128748244D01*
X139067704Y-128736598D01*
X138939383Y-128716274D01*
X138896611Y-128709500D01*
X138723389Y-128709500D01*
X138683728Y-128715781D01*
X138552302Y-128736597D01*
X138387552Y-128790128D01*
X138233211Y-128868768D01*
X138185457Y-128903464D01*
X138093072Y-128970586D01*
X138093070Y-128970588D01*
X138093069Y-128970588D01*
X137970588Y-129093069D01*
X137970588Y-129093070D01*
X137970586Y-129093072D01*
X137926859Y-129153256D01*
X137868768Y-129233211D01*
X137790128Y-129387552D01*
X137736597Y-129552302D01*
X137734682Y-129564394D01*
X137709500Y-129723389D01*
X137709500Y-129896611D01*
X137736598Y-130067701D01*
X137790127Y-130232445D01*
X137868768Y-130386788D01*
X137970586Y-130526928D01*
X138093072Y-130649414D01*
X138233212Y-130751232D01*
X138387555Y-130829873D01*
X138552299Y-130883402D01*
X138723389Y-130910500D01*
X138723390Y-130910500D01*
X138896610Y-130910500D01*
X138896611Y-130910500D01*
X139067701Y-130883402D01*
X139232445Y-130829873D01*
X139386788Y-130751232D01*
X139450240Y-130705131D01*
X145949500Y-130705131D01*
X145949500Y-132294856D01*
X145949502Y-132294882D01*
X145952413Y-132319987D01*
X145952415Y-132319991D01*
X145997793Y-132422764D01*
X145997794Y-132422765D01*
X146077235Y-132502206D01*
X146180009Y-132547585D01*
X146205135Y-132550500D01*
X147149902Y-132550499D01*
X147216941Y-132570183D01*
X147237582Y-132586817D01*
X149631284Y-134980520D01*
X149631286Y-134980521D01*
X149631290Y-134980524D01*
X149705416Y-135023320D01*
X149768216Y-135059577D01*
X149920943Y-135100501D01*
X149920945Y-135100501D01*
X150086654Y-135100501D01*
X150086670Y-135100500D01*
X159050230Y-135100500D01*
X159112369Y-135118746D01*
X159112819Y-135117905D01*
X159116859Y-135120064D01*
X159117269Y-135120185D01*
X159118087Y-135120721D01*
X159118190Y-135120776D01*
X159245667Y-135173578D01*
X159245672Y-135173580D01*
X159245676Y-135173580D01*
X159245677Y-135173581D01*
X159381004Y-135200500D01*
X159381007Y-135200500D01*
X159518995Y-135200500D01*
X159610041Y-135182389D01*
X159654328Y-135173580D01*
X159781811Y-135120775D01*
X159896542Y-135044114D01*
X159994114Y-134946542D01*
X160070775Y-134831811D01*
X160123580Y-134704328D01*
X160132389Y-134660041D01*
X160150500Y-134568995D01*
X160150500Y-134431004D01*
X160123581Y-134295677D01*
X160123580Y-134295676D01*
X160123580Y-134295672D01*
X160110122Y-134263181D01*
X160070778Y-134168195D01*
X160070771Y-134168182D01*
X159994114Y-134053458D01*
X159994111Y-134053454D01*
X159896545Y-133955888D01*
X159896541Y-133955885D01*
X159781817Y-133879228D01*
X159781804Y-133879221D01*
X159654332Y-133826421D01*
X159654322Y-133826418D01*
X159518995Y-133799500D01*
X159518993Y-133799500D01*
X159381007Y-133799500D01*
X159381005Y-133799500D01*
X159245677Y-133826418D01*
X159245667Y-133826421D01*
X159118190Y-133879223D01*
X159112819Y-133882095D01*
X159112123Y-133880794D01*
X159052438Y-133899480D01*
X159050230Y-133899500D01*
X150300098Y-133899500D01*
X150233059Y-133879815D01*
X150212417Y-133863181D01*
X149035558Y-132686322D01*
X149002073Y-132624999D01*
X149007057Y-132555307D01*
X149048929Y-132499374D01*
X149114393Y-132474957D01*
X149170688Y-132484079D01*
X149233580Y-132510130D01*
X149421875Y-132547584D01*
X149436530Y-132550499D01*
X149436534Y-132550500D01*
X149436535Y-132550500D01*
X149643466Y-132550500D01*
X149643467Y-132550499D01*
X149846420Y-132510130D01*
X150037598Y-132430941D01*
X150209655Y-132315977D01*
X150355977Y-132169655D01*
X150470941Y-131997598D01*
X150550130Y-131806420D01*
X150590500Y-131603465D01*
X150590500Y-131396535D01*
X150590499Y-131396530D01*
X151029500Y-131396530D01*
X151029500Y-131603469D01*
X151069868Y-131806412D01*
X151069870Y-131806420D01*
X151149058Y-131997596D01*
X151264024Y-132169657D01*
X151410342Y-132315975D01*
X151410345Y-132315977D01*
X151582402Y-132430941D01*
X151773580Y-132510130D01*
X151961875Y-132547584D01*
X151976530Y-132550499D01*
X151976534Y-132550500D01*
X151976535Y-132550500D01*
X152183466Y-132550500D01*
X152183467Y-132550499D01*
X152386420Y-132510130D01*
X152577598Y-132430941D01*
X152749655Y-132315977D01*
X152895977Y-132169655D01*
X153010941Y-131997598D01*
X153090130Y-131806420D01*
X153130500Y-131603465D01*
X153130500Y-131396535D01*
X153090130Y-131193580D01*
X153010941Y-131002402D01*
X152895977Y-130830345D01*
X152895975Y-130830342D01*
X152749657Y-130684024D01*
X152589834Y-130577235D01*
X152577598Y-130569059D01*
X152475885Y-130526928D01*
X152386420Y-130489870D01*
X152386412Y-130489868D01*
X152183469Y-130449500D01*
X152183465Y-130449500D01*
X151976535Y-130449500D01*
X151976530Y-130449500D01*
X151773587Y-130489868D01*
X151773579Y-130489870D01*
X151582403Y-130569058D01*
X151410342Y-130684024D01*
X151264024Y-130830342D01*
X151149058Y-131002403D01*
X151069870Y-131193579D01*
X151069868Y-131193587D01*
X151029500Y-131396530D01*
X150590499Y-131396530D01*
X150550130Y-131193580D01*
X150470941Y-131002402D01*
X150355977Y-130830345D01*
X150355975Y-130830342D01*
X150209657Y-130684024D01*
X150049834Y-130577235D01*
X150037598Y-130569059D01*
X149935885Y-130526928D01*
X149846420Y-130489870D01*
X149846412Y-130489868D01*
X149643469Y-130449500D01*
X149643465Y-130449500D01*
X149436535Y-130449500D01*
X149436530Y-130449500D01*
X149233587Y-130489868D01*
X149233579Y-130489870D01*
X149042403Y-130569058D01*
X148870342Y-130684024D01*
X148724024Y-130830342D01*
X148609058Y-131002403D01*
X148529870Y-131193579D01*
X148529868Y-131193587D01*
X148489500Y-131396530D01*
X148489500Y-131603469D01*
X148529868Y-131806412D01*
X148529871Y-131806424D01*
X148555919Y-131869309D01*
X148563388Y-131938778D01*
X148532113Y-132001257D01*
X148472024Y-132036909D01*
X148402198Y-132034415D01*
X148353677Y-132004442D01*
X148086818Y-131737582D01*
X148053333Y-131676259D01*
X148050499Y-131649901D01*
X148050499Y-130705143D01*
X148050499Y-130705136D01*
X148048051Y-130684023D01*
X148047586Y-130680012D01*
X148047585Y-130680010D01*
X148047585Y-130680009D01*
X148002206Y-130577235D01*
X147922765Y-130497794D01*
X147904814Y-130489868D01*
X147819992Y-130452415D01*
X147794865Y-130449500D01*
X146205143Y-130449500D01*
X146205117Y-130449502D01*
X146180012Y-130452413D01*
X146180008Y-130452415D01*
X146077235Y-130497793D01*
X145997794Y-130577234D01*
X145952415Y-130680006D01*
X145952415Y-130680008D01*
X145949500Y-130705131D01*
X139450240Y-130705131D01*
X139526928Y-130649414D01*
X139649414Y-130526928D01*
X139751232Y-130386788D01*
X139829873Y-130232445D01*
X139883402Y-130067701D01*
X139910500Y-129896611D01*
X139910500Y-129723389D01*
X139883402Y-129552299D01*
X139871753Y-129516450D01*
X139869759Y-129446612D01*
X139902002Y-129390455D01*
X145427273Y-123865186D01*
X163599500Y-123865186D01*
X163599500Y-124134813D01*
X163629686Y-124402719D01*
X163629688Y-124402731D01*
X163689684Y-124665594D01*
X163689687Y-124665602D01*
X163778734Y-124920082D01*
X163895714Y-125162994D01*
X163895716Y-125162997D01*
X164039162Y-125391289D01*
X164207266Y-125602085D01*
X164397915Y-125792734D01*
X164608711Y-125960838D01*
X164837003Y-126104284D01*
X165079921Y-126221267D01*
X165271049Y-126288145D01*
X165334397Y-126310312D01*
X165334405Y-126310315D01*
X165334408Y-126310315D01*
X165334409Y-126310316D01*
X165597268Y-126370312D01*
X165865187Y-126400499D01*
X165865188Y-126400500D01*
X165865191Y-126400500D01*
X166134812Y-126400500D01*
X166134812Y-126400499D01*
X166402732Y-126370312D01*
X166665591Y-126310316D01*
X166920079Y-126221267D01*
X167162997Y-126104284D01*
X167391289Y-125960838D01*
X167602085Y-125792734D01*
X167792734Y-125602085D01*
X167960838Y-125391289D01*
X168104284Y-125162997D01*
X168221267Y-124920079D01*
X168310316Y-124665591D01*
X168370312Y-124402732D01*
X168400500Y-124134809D01*
X168400500Y-123865191D01*
X168370312Y-123597268D01*
X168310316Y-123334409D01*
X168307863Y-123327400D01*
X168285470Y-123263402D01*
X168221267Y-123079921D01*
X168104284Y-122837003D01*
X167960838Y-122608711D01*
X167792734Y-122397915D01*
X167602085Y-122207266D01*
X167391289Y-122039162D01*
X167162997Y-121895716D01*
X167162994Y-121895714D01*
X166920082Y-121778734D01*
X166665602Y-121689687D01*
X166665594Y-121689684D01*
X166468446Y-121644687D01*
X166402732Y-121629688D01*
X166402728Y-121629687D01*
X166402719Y-121629686D01*
X166134813Y-121599500D01*
X166134809Y-121599500D01*
X165865191Y-121599500D01*
X165865186Y-121599500D01*
X165597280Y-121629686D01*
X165597268Y-121629688D01*
X165334405Y-121689684D01*
X165334397Y-121689687D01*
X165079917Y-121778734D01*
X164837005Y-121895714D01*
X164608712Y-122039161D01*
X164397915Y-122207265D01*
X164207265Y-122397915D01*
X164039161Y-122608712D01*
X163895714Y-122837005D01*
X163778734Y-123079917D01*
X163689687Y-123334397D01*
X163689684Y-123334405D01*
X163629688Y-123597268D01*
X163629686Y-123597280D01*
X163599500Y-123865186D01*
X145427273Y-123865186D01*
X145923498Y-123368961D01*
X145984821Y-123335476D01*
X146011179Y-123332642D01*
X153053482Y-123332642D01*
X153120521Y-123352327D01*
X153141164Y-123368962D01*
X153173454Y-123401253D01*
X153173458Y-123401256D01*
X153288182Y-123477913D01*
X153288195Y-123477920D01*
X153415667Y-123530720D01*
X153415672Y-123530722D01*
X153415676Y-123530722D01*
X153415677Y-123530723D01*
X153551004Y-123557642D01*
X153551007Y-123557642D01*
X153688995Y-123557642D01*
X153780041Y-123539531D01*
X153824328Y-123530722D01*
X153951811Y-123477917D01*
X154066542Y-123401256D01*
X154164114Y-123303684D01*
X154240775Y-123188953D01*
X154293580Y-123061470D01*
X154303917Y-123009505D01*
X154320500Y-122926137D01*
X154320500Y-122788146D01*
X154293581Y-122652819D01*
X154293580Y-122652818D01*
X154293580Y-122652814D01*
X154276859Y-122612445D01*
X154240778Y-122525337D01*
X154240771Y-122525324D01*
X154164114Y-122410600D01*
X154164111Y-122410596D01*
X154066545Y-122313030D01*
X154066541Y-122313027D01*
X153951817Y-122236370D01*
X153951804Y-122236363D01*
X153824332Y-122183563D01*
X153824322Y-122183560D01*
X153688995Y-122156642D01*
X153688993Y-122156642D01*
X153551007Y-122156642D01*
X153551005Y-122156642D01*
X153415677Y-122183560D01*
X153415667Y-122183563D01*
X153288195Y-122236363D01*
X153288182Y-122236370D01*
X153173458Y-122313027D01*
X153173454Y-122313030D01*
X153141164Y-122345322D01*
X153079842Y-122378808D01*
X153053482Y-122381642D01*
X145825459Y-122381642D01*
X145700257Y-122381642D01*
X145619633Y-122403245D01*
X145579321Y-122414047D01*
X145470895Y-122476646D01*
X145470892Y-122476648D01*
X139936695Y-128010844D01*
X139875372Y-128044329D01*
X139805680Y-128039345D01*
X139749747Y-127997473D01*
X139725330Y-127932009D01*
X139740182Y-127863736D01*
X139748698Y-127850274D01*
X139751232Y-127846788D01*
X139829873Y-127692445D01*
X139883402Y-127527701D01*
X139910500Y-127356611D01*
X139910500Y-127183389D01*
X139883402Y-127012299D01*
X139829873Y-126847555D01*
X139751232Y-126693212D01*
X139649414Y-126553072D01*
X139526928Y-126430586D01*
X139386788Y-126328768D01*
X139232445Y-126250127D01*
X139067701Y-126196598D01*
X139067699Y-126196597D01*
X139067698Y-126196597D01*
X138936271Y-126175781D01*
X138896611Y-126169500D01*
X138723389Y-126169500D01*
X138683728Y-126175781D01*
X138552302Y-126196597D01*
X138387552Y-126250128D01*
X138233211Y-126328768D01*
X138176030Y-126370313D01*
X138093072Y-126430586D01*
X138093070Y-126430588D01*
X138093069Y-126430588D01*
X137970588Y-126553069D01*
X137970588Y-126553070D01*
X137970586Y-126553072D01*
X137930691Y-126607983D01*
X137868768Y-126693211D01*
X137790128Y-126847552D01*
X137736597Y-127012302D01*
X137709500Y-127183389D01*
X135600500Y-127183389D01*
X135600500Y-124643389D01*
X137709500Y-124643389D01*
X137709500Y-124816610D01*
X137723220Y-124903239D01*
X137736598Y-124987701D01*
X137790127Y-125152445D01*
X137868768Y-125306788D01*
X137970586Y-125446928D01*
X138093072Y-125569414D01*
X138233212Y-125671232D01*
X138387555Y-125749873D01*
X138552299Y-125803402D01*
X138723389Y-125830500D01*
X138723390Y-125830500D01*
X138896610Y-125830500D01*
X138896611Y-125830500D01*
X139067701Y-125803402D01*
X139232445Y-125749873D01*
X139386788Y-125671232D01*
X139526928Y-125569414D01*
X139649414Y-125446928D01*
X139751232Y-125306788D01*
X139829873Y-125152445D01*
X139883402Y-124987701D01*
X139910500Y-124816611D01*
X139910500Y-124643389D01*
X139883402Y-124472299D01*
X139829873Y-124307555D01*
X139751232Y-124153212D01*
X139649414Y-124013072D01*
X139526928Y-123890586D01*
X139386788Y-123788768D01*
X139232445Y-123710127D01*
X139067701Y-123656598D01*
X139067699Y-123656597D01*
X139067698Y-123656597D01*
X138936271Y-123635781D01*
X138896611Y-123629500D01*
X138723389Y-123629500D01*
X138683728Y-123635781D01*
X138552302Y-123656597D01*
X138387552Y-123710128D01*
X138233211Y-123788768D01*
X138153256Y-123846859D01*
X138093072Y-123890586D01*
X138093070Y-123890588D01*
X138093069Y-123890588D01*
X137970588Y-124013069D01*
X137970588Y-124013070D01*
X137970586Y-124013072D01*
X137936776Y-124059608D01*
X137868768Y-124153211D01*
X137790128Y-124307552D01*
X137736597Y-124472302D01*
X137709500Y-124643389D01*
X135600500Y-124643389D01*
X135600500Y-121224500D01*
X135620185Y-121157461D01*
X135672989Y-121111706D01*
X135724500Y-121100500D01*
X137833903Y-121100500D01*
X137900942Y-121120185D01*
X137921584Y-121136819D01*
X138026530Y-121241765D01*
X138060015Y-121303088D01*
X138055031Y-121372780D01*
X138026531Y-121417127D01*
X137970585Y-121473072D01*
X137868768Y-121613211D01*
X137790128Y-121767552D01*
X137736597Y-121932302D01*
X137709500Y-122103389D01*
X137709500Y-122276610D01*
X137731267Y-122414047D01*
X137736598Y-122447701D01*
X137790127Y-122612445D01*
X137868768Y-122766788D01*
X137970586Y-122906928D01*
X138093072Y-123029414D01*
X138233212Y-123131232D01*
X138387555Y-123209873D01*
X138552299Y-123263402D01*
X138723389Y-123290500D01*
X138723390Y-123290500D01*
X138896610Y-123290500D01*
X138896611Y-123290500D01*
X139067701Y-123263402D01*
X139232445Y-123209873D01*
X139386788Y-123131232D01*
X139526928Y-123029414D01*
X139621446Y-122934896D01*
X139682769Y-122901411D01*
X139724830Y-122901037D01*
X139724942Y-122899903D01*
X139731005Y-122900500D01*
X139731007Y-122900500D01*
X139868995Y-122900500D01*
X139960041Y-122882389D01*
X140004328Y-122873580D01*
X140131811Y-122820775D01*
X140246542Y-122744114D01*
X140344114Y-122646542D01*
X140420775Y-122531811D01*
X140473580Y-122404328D01*
X140485317Y-122345322D01*
X140500500Y-122268995D01*
X140500500Y-122131004D01*
X140473581Y-121995677D01*
X140473580Y-121995676D01*
X140473580Y-121995672D01*
X140473578Y-121995667D01*
X140420778Y-121868195D01*
X140420771Y-121868182D01*
X140344114Y-121753458D01*
X140344111Y-121753454D01*
X140246545Y-121655888D01*
X140246541Y-121655885D01*
X140131817Y-121579228D01*
X140131804Y-121579221D01*
X140004332Y-121526421D01*
X140004322Y-121526418D01*
X139868995Y-121499500D01*
X139868993Y-121499500D01*
X139731007Y-121499500D01*
X139727204Y-121499500D01*
X139660165Y-121479815D01*
X139639523Y-121463181D01*
X139526927Y-121350585D01*
X139461613Y-121303131D01*
X139418948Y-121247801D01*
X139410500Y-121202814D01*
X139410500Y-121096945D01*
X139410500Y-121096943D01*
X139369577Y-120944216D01*
X139369573Y-120944209D01*
X139290524Y-120807290D01*
X139290521Y-120807286D01*
X139290520Y-120807284D01*
X139178716Y-120695480D01*
X139178715Y-120695479D01*
X139174385Y-120691149D01*
X139174374Y-120691139D01*
X138621590Y-120138355D01*
X138621588Y-120138352D01*
X138502717Y-120019481D01*
X138502716Y-120019480D01*
X138415904Y-119969360D01*
X138415904Y-119969359D01*
X138415900Y-119969358D01*
X138365785Y-119940423D01*
X138213057Y-119899499D01*
X138054943Y-119899499D01*
X138047347Y-119899499D01*
X138047331Y-119899500D01*
X135724500Y-119899500D01*
X135657461Y-119879815D01*
X135611706Y-119827011D01*
X135600500Y-119775500D01*
X135600500Y-118919060D01*
X135600501Y-118919047D01*
X135600501Y-118750945D01*
X135600501Y-118750943D01*
X135567334Y-118627164D01*
X135567334Y-118627162D01*
X135559577Y-118598216D01*
X135559577Y-118598215D01*
X135480520Y-118461284D01*
X135436819Y-118417583D01*
X135403334Y-118356260D01*
X135400500Y-118329902D01*
X135400500Y-117256903D01*
X135400500Y-117256898D01*
X135389877Y-117168436D01*
X135334361Y-117027658D01*
X135334360Y-117027657D01*
X135334360Y-117027656D01*
X135242922Y-116907077D01*
X135122343Y-116815639D01*
X134981561Y-116760122D01*
X134935926Y-116754642D01*
X134893102Y-116749500D01*
X133706898Y-116749500D01*
X133667853Y-116754188D01*
X133618438Y-116760122D01*
X133477656Y-116815639D01*
X133357077Y-116907077D01*
X133265639Y-117027656D01*
X133210122Y-117168438D01*
X133204459Y-117215600D01*
X133199500Y-117256898D01*
X133199500Y-119843102D01*
X133203909Y-119879815D01*
X133210122Y-119931561D01*
X133265639Y-120072343D01*
X133357077Y-120192922D01*
X133477656Y-120284360D01*
X133477657Y-120284360D01*
X133477658Y-120284361D01*
X133618436Y-120339877D01*
X133706898Y-120350500D01*
X134275500Y-120350500D01*
X134342539Y-120370185D01*
X134388294Y-120422989D01*
X134399500Y-120474500D01*
X134399500Y-135725500D01*
X134379815Y-135792539D01*
X134327011Y-135838294D01*
X134275500Y-135849500D01*
X133105143Y-135849500D01*
X133105117Y-135849502D01*
X133080012Y-135852413D01*
X133080008Y-135852415D01*
X132977235Y-135897793D01*
X132897794Y-135977234D01*
X132852415Y-136080006D01*
X132852415Y-136080008D01*
X132849500Y-136105131D01*
X132849500Y-137894856D01*
X132849502Y-137894882D01*
X132852413Y-137919987D01*
X132852415Y-137919991D01*
X132897793Y-138022764D01*
X132962848Y-138087819D01*
X132996333Y-138149142D01*
X132991349Y-138218834D01*
X132949477Y-138274767D01*
X132884013Y-138299184D01*
X132875167Y-138299500D01*
X126040282Y-138299500D01*
X125973243Y-138279815D01*
X125927488Y-138227011D01*
X125917544Y-138157853D01*
X125946569Y-138094297D01*
X125983987Y-138065015D01*
X126016167Y-138048617D01*
X126142994Y-137983996D01*
X126289501Y-137877553D01*
X126417553Y-137749501D01*
X126523996Y-137602994D01*
X126606211Y-137441639D01*
X126662171Y-137269409D01*
X126679025Y-137162997D01*
X126690500Y-137090551D01*
X126690500Y-136909448D01*
X126662189Y-136730706D01*
X126662171Y-136730591D01*
X126606211Y-136558361D01*
X126606211Y-136558360D01*
X126576474Y-136500000D01*
X126523996Y-136397006D01*
X126482950Y-136340511D01*
X126417558Y-136250505D01*
X126417554Y-136250500D01*
X126289499Y-136122445D01*
X126289494Y-136122441D01*
X126142997Y-136016006D01*
X126142996Y-136016005D01*
X126142994Y-136016004D01*
X126066906Y-135977235D01*
X125981639Y-135933788D01*
X125981636Y-135933787D01*
X125809410Y-135877829D01*
X125630551Y-135849500D01*
X125630546Y-135849500D01*
X125449454Y-135849500D01*
X125449449Y-135849500D01*
X125270589Y-135877829D01*
X125098363Y-135933787D01*
X125098360Y-135933788D01*
X124937002Y-136016006D01*
X124790505Y-136122441D01*
X124790500Y-136122445D01*
X124662445Y-136250500D01*
X124662441Y-136250505D01*
X124556006Y-136397002D01*
X124473788Y-136558360D01*
X124473787Y-136558363D01*
X124417829Y-136730589D01*
X124396972Y-136862271D01*
X124367042Y-136925405D01*
X124307731Y-136962336D01*
X124237868Y-136961338D01*
X124179636Y-136922728D01*
X124151522Y-136858764D01*
X124150499Y-136842872D01*
X124150499Y-136105143D01*
X124150499Y-136105136D01*
X124150497Y-136105117D01*
X124147586Y-136080012D01*
X124147585Y-136080010D01*
X124147585Y-136080009D01*
X124102206Y-135977235D01*
X124022765Y-135897794D01*
X123978654Y-135878317D01*
X123919992Y-135852415D01*
X123894865Y-135849500D01*
X122105143Y-135849500D01*
X122105117Y-135849502D01*
X122080012Y-135852413D01*
X122080008Y-135852415D01*
X121977235Y-135897793D01*
X121897794Y-135977234D01*
X121852415Y-136080006D01*
X121852415Y-136080008D01*
X121849500Y-136105131D01*
X121849500Y-137894856D01*
X121849502Y-137894882D01*
X121852413Y-137919987D01*
X121852415Y-137919991D01*
X121897793Y-138022764D01*
X121897794Y-138022765D01*
X121977235Y-138102206D01*
X122080009Y-138147585D01*
X122105135Y-138150500D01*
X122175500Y-138150499D01*
X122242538Y-138170183D01*
X122288294Y-138222986D01*
X122297024Y-138263118D01*
X122298903Y-138262934D01*
X122299499Y-138268996D01*
X122326418Y-138404322D01*
X122326421Y-138404332D01*
X122379222Y-138531807D01*
X122455887Y-138646545D01*
X122455888Y-138646546D01*
X122997662Y-139188319D01*
X123031147Y-139249642D01*
X123026163Y-139319333D01*
X122984292Y-139375267D01*
X122918827Y-139399684D01*
X122909981Y-139400000D01*
X100724000Y-139400000D01*
X100656961Y-139380315D01*
X100611206Y-139327511D01*
X100600000Y-139276000D01*
X100600000Y-135865186D01*
X101599500Y-135865186D01*
X101599500Y-136134813D01*
X101629686Y-136402719D01*
X101629688Y-136402731D01*
X101689684Y-136665594D01*
X101689687Y-136665602D01*
X101778734Y-136920082D01*
X101895714Y-137162994D01*
X101914564Y-137192993D01*
X102039162Y-137391289D01*
X102207266Y-137602085D01*
X102397915Y-137792734D01*
X102608711Y-137960838D01*
X102837003Y-138104284D01*
X103079921Y-138221267D01*
X103216323Y-138268996D01*
X103334397Y-138310312D01*
X103334405Y-138310315D01*
X103334408Y-138310315D01*
X103334409Y-138310316D01*
X103597268Y-138370312D01*
X103865187Y-138400499D01*
X103865188Y-138400500D01*
X103865191Y-138400500D01*
X104134812Y-138400500D01*
X104134812Y-138400499D01*
X104402732Y-138370312D01*
X104665591Y-138310316D01*
X104920079Y-138221267D01*
X105162997Y-138104284D01*
X105391289Y-137960838D01*
X105602085Y-137792734D01*
X105792734Y-137602085D01*
X105960838Y-137391289D01*
X106104284Y-137162997D01*
X106221267Y-136920079D01*
X106310316Y-136665591D01*
X106370312Y-136402732D01*
X106400500Y-136134809D01*
X106400500Y-135865191D01*
X106370312Y-135597268D01*
X106310316Y-135334409D01*
X106309404Y-135331804D01*
X106264799Y-135204328D01*
X106221267Y-135079921D01*
X106216005Y-135068995D01*
X111299499Y-135068995D01*
X111326418Y-135204322D01*
X111326421Y-135204332D01*
X111379221Y-135331804D01*
X111379228Y-135331817D01*
X111455885Y-135446541D01*
X111455888Y-135446545D01*
X111553454Y-135544111D01*
X111553458Y-135544114D01*
X111668182Y-135620771D01*
X111668195Y-135620778D01*
X111795667Y-135673578D01*
X111795672Y-135673580D01*
X111795676Y-135673580D01*
X111795677Y-135673581D01*
X111931004Y-135700500D01*
X111931007Y-135700500D01*
X112068995Y-135700500D01*
X112160041Y-135682389D01*
X112204328Y-135673580D01*
X112331811Y-135620775D01*
X112446542Y-135544114D01*
X112544114Y-135446542D01*
X112620775Y-135331811D01*
X112673580Y-135204328D01*
X112690341Y-135120064D01*
X112700500Y-135068995D01*
X112700500Y-135023320D01*
X112720185Y-134956281D01*
X112736819Y-134935639D01*
X113960640Y-133711818D01*
X114021963Y-133678333D01*
X114048321Y-133675499D01*
X127062599Y-133675499D01*
X127062601Y-133675499D01*
X127183536Y-133643094D01*
X127291964Y-133580494D01*
X129580494Y-131291964D01*
X129643094Y-131183536D01*
X129675499Y-131062601D01*
X129675499Y-130937399D01*
X129675499Y-129723428D01*
X130090000Y-129723428D01*
X130090000Y-129896571D01*
X130117085Y-130067584D01*
X130170591Y-130232257D01*
X130249195Y-130386523D01*
X130249196Y-130386525D01*
X130283463Y-130433691D01*
X130283464Y-130433691D01*
X130803629Y-129913527D01*
X130817259Y-129964394D01*
X130869920Y-130055606D01*
X130944394Y-130130080D01*
X131035606Y-130182741D01*
X131086471Y-130196370D01*
X130566307Y-130716534D01*
X130613478Y-130750805D01*
X130767742Y-130829408D01*
X130932415Y-130882914D01*
X131103429Y-130910000D01*
X131276571Y-130910000D01*
X131447584Y-130882914D01*
X131612257Y-130829408D01*
X131766525Y-130750803D01*
X131813691Y-130716534D01*
X131813692Y-130716533D01*
X131293529Y-130196370D01*
X131344394Y-130182741D01*
X131435606Y-130130080D01*
X131510080Y-130055606D01*
X131562741Y-129964394D01*
X131576370Y-129913528D01*
X132096533Y-130433692D01*
X132096534Y-130433691D01*
X132130803Y-130386525D01*
X132209408Y-130232257D01*
X132262914Y-130067584D01*
X132290000Y-129896571D01*
X132290000Y-129723428D01*
X132262914Y-129552415D01*
X132209408Y-129387742D01*
X132130805Y-129233478D01*
X132096534Y-129186307D01*
X131576370Y-129706471D01*
X131562741Y-129655606D01*
X131510080Y-129564394D01*
X131435606Y-129489920D01*
X131344394Y-129437259D01*
X131293527Y-129423629D01*
X131813691Y-128903464D01*
X131813691Y-128903463D01*
X131766525Y-128869196D01*
X131766523Y-128869195D01*
X131612257Y-128790591D01*
X131447584Y-128737085D01*
X131276571Y-128710000D01*
X131103429Y-128710000D01*
X130932415Y-128737085D01*
X130767740Y-128790592D01*
X130613475Y-128869196D01*
X130566307Y-128903463D01*
X130566307Y-128903464D01*
X131086472Y-129423629D01*
X131035606Y-129437259D01*
X130944394Y-129489920D01*
X130869920Y-129564394D01*
X130817259Y-129655606D01*
X130803629Y-129706472D01*
X130283464Y-129186307D01*
X130283463Y-129186307D01*
X130249196Y-129233475D01*
X130170592Y-129387740D01*
X130117085Y-129552415D01*
X130090000Y-129723428D01*
X129675499Y-129723428D01*
X129675499Y-126968321D01*
X129695184Y-126901282D01*
X129711818Y-126880640D01*
X129744906Y-126847552D01*
X130063311Y-126529146D01*
X130124632Y-126495663D01*
X130194323Y-126500647D01*
X130250257Y-126542518D01*
X130274674Y-126607983D01*
X130259822Y-126676256D01*
X130251313Y-126689708D01*
X130248769Y-126693209D01*
X130170128Y-126847552D01*
X130116597Y-127012302D01*
X130089500Y-127183389D01*
X130089500Y-127356611D01*
X130116598Y-127527701D01*
X130170127Y-127692445D01*
X130248768Y-127846788D01*
X130350586Y-127986928D01*
X130473072Y-128109414D01*
X130613212Y-128211232D01*
X130767555Y-128289873D01*
X130932299Y-128343402D01*
X131103389Y-128370500D01*
X131103390Y-128370500D01*
X131276610Y-128370500D01*
X131276611Y-128370500D01*
X131447701Y-128343402D01*
X131612445Y-128289873D01*
X131766788Y-128211232D01*
X131906928Y-128109414D01*
X132029414Y-127986928D01*
X132131232Y-127846788D01*
X132209873Y-127692445D01*
X132263402Y-127527701D01*
X132290500Y-127356611D01*
X132290500Y-127183389D01*
X132263402Y-127012299D01*
X132209873Y-126847555D01*
X132131232Y-126693212D01*
X132029414Y-126553072D01*
X131906928Y-126430586D01*
X131766788Y-126328768D01*
X131612445Y-126250127D01*
X131447701Y-126196598D01*
X131447699Y-126196597D01*
X131447698Y-126196597D01*
X131316271Y-126175781D01*
X131276611Y-126169500D01*
X131103389Y-126169500D01*
X131063728Y-126175781D01*
X130932302Y-126196597D01*
X130767552Y-126250128D01*
X130613209Y-126328769D01*
X130609708Y-126331313D01*
X130543900Y-126354788D01*
X130475847Y-126338958D01*
X130427155Y-126288850D01*
X130413285Y-126220371D01*
X130438638Y-126155263D01*
X130449140Y-126143317D01*
X130770455Y-125822002D01*
X130831776Y-125788519D01*
X130896450Y-125791753D01*
X130932299Y-125803402D01*
X131103389Y-125830500D01*
X131103390Y-125830500D01*
X131276610Y-125830500D01*
X131276611Y-125830500D01*
X131447701Y-125803402D01*
X131612445Y-125749873D01*
X131766788Y-125671232D01*
X131906928Y-125569414D01*
X132029414Y-125446928D01*
X132131232Y-125306788D01*
X132209873Y-125152445D01*
X132263402Y-124987701D01*
X132290500Y-124816611D01*
X132290500Y-124643389D01*
X132263402Y-124472299D01*
X132209873Y-124307555D01*
X132131232Y-124153212D01*
X132029414Y-124013072D01*
X131906928Y-123890586D01*
X131766788Y-123788768D01*
X131612445Y-123710127D01*
X131447701Y-123656598D01*
X131447699Y-123656597D01*
X131447698Y-123656597D01*
X131316271Y-123635781D01*
X131276611Y-123629500D01*
X131103389Y-123629500D01*
X131063728Y-123635781D01*
X130932302Y-123656597D01*
X130767552Y-123710128D01*
X130613211Y-123788768D01*
X130533256Y-123846859D01*
X130473072Y-123890586D01*
X130473070Y-123890588D01*
X130473069Y-123890588D01*
X130350588Y-124013069D01*
X130350588Y-124013070D01*
X130350586Y-124013072D01*
X130316776Y-124059608D01*
X130248768Y-124153211D01*
X130170128Y-124307552D01*
X130116597Y-124472302D01*
X130089500Y-124643389D01*
X130089500Y-124816610D01*
X130116598Y-124987702D01*
X130116598Y-124987705D01*
X130128244Y-125023546D01*
X130130239Y-125093387D01*
X130097994Y-125149545D01*
X128890593Y-126356945D01*
X128890594Y-126356946D01*
X128819502Y-126428037D01*
X128756904Y-126536463D01*
X128724499Y-126657400D01*
X128724499Y-130751679D01*
X128704814Y-130818718D01*
X128688180Y-130839360D01*
X127687181Y-131840359D01*
X127625858Y-131873844D01*
X127556166Y-131868860D01*
X127500233Y-131826988D01*
X127475816Y-131761524D01*
X127475500Y-131752678D01*
X127475500Y-131629018D01*
X127495185Y-131561979D01*
X127511820Y-131541336D01*
X127544111Y-131509045D01*
X127544114Y-131509042D01*
X127620775Y-131394311D01*
X127673580Y-131266828D01*
X127700500Y-131131493D01*
X127700500Y-130993507D01*
X127700500Y-130993504D01*
X127673581Y-130858177D01*
X127673580Y-130858176D01*
X127673580Y-130858172D01*
X127662054Y-130830345D01*
X127620778Y-130730695D01*
X127620771Y-130730682D01*
X127544114Y-130615958D01*
X127544111Y-130615954D01*
X127446545Y-130518388D01*
X127446541Y-130518385D01*
X127331817Y-130441728D01*
X127331804Y-130441721D01*
X127204332Y-130388921D01*
X127204322Y-130388918D01*
X127068995Y-130362000D01*
X127068993Y-130362000D01*
X126931007Y-130362000D01*
X126931005Y-130362000D01*
X126795677Y-130388918D01*
X126795667Y-130388921D01*
X126668195Y-130441721D01*
X126668182Y-130441728D01*
X126553458Y-130518385D01*
X126553454Y-130518388D01*
X126455888Y-130615954D01*
X126455885Y-130615958D01*
X126379228Y-130730682D01*
X126379221Y-130730695D01*
X126326421Y-130858167D01*
X126326418Y-130858177D01*
X126299500Y-130993504D01*
X126299500Y-130993507D01*
X126299500Y-131131493D01*
X126299500Y-131131495D01*
X126299499Y-131131495D01*
X126326418Y-131266822D01*
X126326421Y-131266832D01*
X126379221Y-131394304D01*
X126379228Y-131394317D01*
X126455885Y-131509041D01*
X126455888Y-131509045D01*
X126488180Y-131541336D01*
X126521666Y-131602658D01*
X126524500Y-131629018D01*
X126524500Y-132600499D01*
X126504815Y-132667538D01*
X126452011Y-132713293D01*
X126400500Y-132724499D01*
X123492277Y-132724499D01*
X123425238Y-132704814D01*
X123379483Y-132652010D01*
X123369539Y-132582852D01*
X123398564Y-132519296D01*
X123444824Y-132485938D01*
X123449310Y-132484080D01*
X123577598Y-132430941D01*
X123749655Y-132315977D01*
X123895977Y-132169655D01*
X124010941Y-131997598D01*
X124090130Y-131806420D01*
X124130500Y-131603465D01*
X124130500Y-131396535D01*
X124090130Y-131193580D01*
X124010941Y-131002402D01*
X123895977Y-130830345D01*
X123895975Y-130830342D01*
X123749657Y-130684024D01*
X123589834Y-130577235D01*
X123577598Y-130569059D01*
X123475885Y-130526928D01*
X123386420Y-130489870D01*
X123386412Y-130489868D01*
X123183469Y-130449500D01*
X123183465Y-130449500D01*
X122976535Y-130449500D01*
X122976530Y-130449500D01*
X122773587Y-130489868D01*
X122773579Y-130489870D01*
X122582403Y-130569058D01*
X122410342Y-130684024D01*
X122264024Y-130830342D01*
X122149058Y-131002403D01*
X122069870Y-131193579D01*
X122069868Y-131193587D01*
X122029500Y-131396530D01*
X122029500Y-131603469D01*
X122069868Y-131806412D01*
X122069870Y-131806420D01*
X122149058Y-131997596D01*
X122264024Y-132169657D01*
X122410342Y-132315975D01*
X122410345Y-132315977D01*
X122582402Y-132430941D01*
X122710690Y-132484080D01*
X122715176Y-132485938D01*
X122769579Y-132529779D01*
X122791644Y-132596073D01*
X122774365Y-132663772D01*
X122723228Y-132711383D01*
X122667723Y-132724499D01*
X120952277Y-132724499D01*
X120885238Y-132704814D01*
X120839483Y-132652010D01*
X120829539Y-132582852D01*
X120858564Y-132519296D01*
X120904824Y-132485938D01*
X120909310Y-132484080D01*
X121037598Y-132430941D01*
X121209655Y-132315977D01*
X121355977Y-132169655D01*
X121470941Y-131997598D01*
X121550130Y-131806420D01*
X121590500Y-131603465D01*
X121590500Y-131396535D01*
X121550130Y-131193580D01*
X121470941Y-131002402D01*
X121355977Y-130830345D01*
X121355975Y-130830342D01*
X121209657Y-130684024D01*
X121049834Y-130577235D01*
X121037598Y-130569059D01*
X120935885Y-130526928D01*
X120846420Y-130489870D01*
X120846412Y-130489868D01*
X120643469Y-130449500D01*
X120643465Y-130449500D01*
X120436535Y-130449500D01*
X120436530Y-130449500D01*
X120233587Y-130489868D01*
X120233579Y-130489870D01*
X120042403Y-130569058D01*
X119870342Y-130684024D01*
X119724024Y-130830342D01*
X119609058Y-131002403D01*
X119529870Y-131193579D01*
X119529868Y-131193587D01*
X119489500Y-131396530D01*
X119489500Y-131603469D01*
X119529868Y-131806412D01*
X119529870Y-131806420D01*
X119609058Y-131997596D01*
X119724024Y-132169657D01*
X119870342Y-132315975D01*
X119870345Y-132315977D01*
X120042402Y-132430941D01*
X120170690Y-132484080D01*
X120175176Y-132485938D01*
X120229579Y-132529779D01*
X120251644Y-132596073D01*
X120234365Y-132663772D01*
X120183228Y-132711383D01*
X120127723Y-132724499D01*
X118998690Y-132724499D01*
X118931651Y-132704814D01*
X118885896Y-132652010D01*
X118875952Y-132582852D01*
X118904977Y-132519296D01*
X118914819Y-132510510D01*
X118914640Y-132510331D01*
X118950014Y-132474957D01*
X119002206Y-132422765D01*
X119047585Y-132319991D01*
X119050500Y-132294865D01*
X119050499Y-130705136D01*
X119048051Y-130684023D01*
X119047586Y-130680012D01*
X119047585Y-130680010D01*
X119047585Y-130680009D01*
X119002206Y-130577235D01*
X118922765Y-130497794D01*
X118904814Y-130489868D01*
X118819992Y-130452415D01*
X118794865Y-130449500D01*
X117205143Y-130449500D01*
X117205117Y-130449502D01*
X117180012Y-130452413D01*
X117180008Y-130452415D01*
X117077235Y-130497793D01*
X116997794Y-130577234D01*
X116952415Y-130680006D01*
X116952415Y-130680008D01*
X116949500Y-130705131D01*
X116949500Y-132294856D01*
X116949502Y-132294882D01*
X116952413Y-132319987D01*
X116952415Y-132319991D01*
X116997793Y-132422764D01*
X117085360Y-132510331D01*
X117083118Y-132512572D01*
X117115567Y-132552319D01*
X117123477Y-132621740D01*
X117092600Y-132684416D01*
X117032739Y-132720450D01*
X117001310Y-132724499D01*
X113862601Y-132724499D01*
X113737399Y-132724499D01*
X113656775Y-132746102D01*
X113616463Y-132756904D01*
X113508037Y-132819503D01*
X113508034Y-132819505D01*
X112064360Y-134263181D01*
X112003037Y-134296666D01*
X111976679Y-134299500D01*
X111931005Y-134299500D01*
X111795677Y-134326418D01*
X111795667Y-134326421D01*
X111668195Y-134379221D01*
X111668182Y-134379228D01*
X111553458Y-134455885D01*
X111553454Y-134455888D01*
X111455888Y-134553454D01*
X111455885Y-134553458D01*
X111379228Y-134668182D01*
X111379221Y-134668195D01*
X111326421Y-134795667D01*
X111326418Y-134795677D01*
X111299500Y-134931004D01*
X111299500Y-134931007D01*
X111299500Y-135068993D01*
X111299500Y-135068995D01*
X111299499Y-135068995D01*
X106216005Y-135068995D01*
X106204022Y-135044111D01*
X106172530Y-134978717D01*
X106104285Y-134837005D01*
X106101025Y-134831817D01*
X105960838Y-134608711D01*
X105792734Y-134397915D01*
X105602085Y-134207266D01*
X105391289Y-134039162D01*
X105169019Y-133899500D01*
X105162994Y-133895714D01*
X104920082Y-133778734D01*
X104665602Y-133689687D01*
X104665594Y-133689684D01*
X104461463Y-133643093D01*
X104402732Y-133629688D01*
X104402728Y-133629687D01*
X104402719Y-133629686D01*
X104134813Y-133599500D01*
X104134809Y-133599500D01*
X103865191Y-133599500D01*
X103865186Y-133599500D01*
X103597280Y-133629686D01*
X103597268Y-133629688D01*
X103334405Y-133689684D01*
X103334397Y-133689687D01*
X103079917Y-133778734D01*
X102837005Y-133895714D01*
X102608712Y-134039161D01*
X102397915Y-134207265D01*
X102207265Y-134397915D01*
X102039161Y-134608712D01*
X101895714Y-134837005D01*
X101778734Y-135079917D01*
X101689687Y-135334397D01*
X101689684Y-135334405D01*
X101629688Y-135597268D01*
X101629686Y-135597280D01*
X101599500Y-135865186D01*
X100600000Y-135865186D01*
X100600000Y-128943995D01*
X126299499Y-128943995D01*
X126326418Y-129079322D01*
X126326421Y-129079332D01*
X126379221Y-129206804D01*
X126379228Y-129206817D01*
X126455885Y-129321541D01*
X126455888Y-129321545D01*
X126553454Y-129419111D01*
X126553458Y-129419114D01*
X126668182Y-129495771D01*
X126668195Y-129495778D01*
X126743952Y-129527157D01*
X126795672Y-129548580D01*
X126795676Y-129548580D01*
X126795677Y-129548581D01*
X126931004Y-129575500D01*
X126931007Y-129575500D01*
X127068995Y-129575500D01*
X127185631Y-129552299D01*
X127204328Y-129548580D01*
X127331811Y-129495775D01*
X127446542Y-129419114D01*
X127544114Y-129321542D01*
X127620775Y-129206811D01*
X127673580Y-129079328D01*
X127695210Y-128970588D01*
X127700500Y-128943995D01*
X127700500Y-128806004D01*
X127673581Y-128670677D01*
X127673580Y-128670676D01*
X127673580Y-128670672D01*
X127673578Y-128670667D01*
X127620778Y-128543195D01*
X127620771Y-128543182D01*
X127544114Y-128428458D01*
X127544111Y-128428454D01*
X127511819Y-128396162D01*
X127478334Y-128334839D01*
X127475500Y-128308481D01*
X127475500Y-123638319D01*
X127495185Y-123571280D01*
X127511815Y-123550642D01*
X128360638Y-122701818D01*
X128421961Y-122668334D01*
X128448319Y-122665500D01*
X129965661Y-122665500D01*
X130032700Y-122685185D01*
X130078455Y-122737989D01*
X130088784Y-122779456D01*
X130089059Y-122779424D01*
X130089322Y-122781614D01*
X130089439Y-122782084D01*
X130089499Y-122783091D01*
X130100122Y-122871561D01*
X130100122Y-122871563D01*
X130100123Y-122871564D01*
X130106262Y-122887131D01*
X130155639Y-123012343D01*
X130247077Y-123132922D01*
X130367656Y-123224360D01*
X130367657Y-123224360D01*
X130367658Y-123224361D01*
X130508436Y-123279877D01*
X130596898Y-123290500D01*
X130596903Y-123290500D01*
X131783097Y-123290500D01*
X131783102Y-123290500D01*
X131871564Y-123279877D01*
X132012342Y-123224361D01*
X132132922Y-123132922D01*
X132224361Y-123012342D01*
X132279877Y-122871564D01*
X132290500Y-122783102D01*
X132290500Y-121596898D01*
X132279877Y-121508436D01*
X132224361Y-121367658D01*
X132224360Y-121367657D01*
X132224360Y-121367656D01*
X132132922Y-121247077D01*
X132012343Y-121155639D01*
X131871561Y-121100122D01*
X131825926Y-121094642D01*
X131783102Y-121089500D01*
X130596898Y-121089500D01*
X130557853Y-121094188D01*
X130508438Y-121100122D01*
X130367656Y-121155639D01*
X130247077Y-121247077D01*
X130155639Y-121367656D01*
X130100122Y-121508438D01*
X130089499Y-121596908D01*
X130089439Y-121597916D01*
X130089348Y-121598168D01*
X130089059Y-121600576D01*
X130088505Y-121600509D01*
X130065781Y-121663658D01*
X130010335Y-121706173D01*
X129965661Y-121714500D01*
X128270212Y-121714500D01*
X128270196Y-121714499D01*
X128262600Y-121714499D01*
X128137398Y-121714499D01*
X128137395Y-121714499D01*
X128016469Y-121746902D01*
X128016462Y-121746905D01*
X127908036Y-121809504D01*
X127908033Y-121809506D01*
X126708036Y-123009505D01*
X126619506Y-123098034D01*
X126619504Y-123098037D01*
X126556905Y-123206463D01*
X126524500Y-123327400D01*
X126524500Y-128308481D01*
X126504815Y-128375520D01*
X126488181Y-128396162D01*
X126455888Y-128428454D01*
X126455885Y-128428458D01*
X126379228Y-128543182D01*
X126379221Y-128543195D01*
X126326421Y-128670667D01*
X126326418Y-128670677D01*
X126299500Y-128806004D01*
X126299500Y-128806007D01*
X126299500Y-128943993D01*
X126299500Y-128943995D01*
X126299499Y-128943995D01*
X100600000Y-128943995D01*
X100600000Y-123865186D01*
X101599500Y-123865186D01*
X101599500Y-124134813D01*
X101629686Y-124402719D01*
X101629688Y-124402731D01*
X101689684Y-124665594D01*
X101689687Y-124665602D01*
X101778734Y-124920082D01*
X101895714Y-125162994D01*
X101895716Y-125162997D01*
X102039162Y-125391289D01*
X102207266Y-125602085D01*
X102397915Y-125792734D01*
X102608711Y-125960838D01*
X102837003Y-126104284D01*
X103079921Y-126221267D01*
X103271049Y-126288145D01*
X103334397Y-126310312D01*
X103334405Y-126310315D01*
X103334408Y-126310315D01*
X103334409Y-126310316D01*
X103597268Y-126370312D01*
X103865187Y-126400499D01*
X103865188Y-126400500D01*
X103865191Y-126400500D01*
X104134812Y-126400500D01*
X104134812Y-126400499D01*
X104402732Y-126370312D01*
X104665591Y-126310316D01*
X104920079Y-126221267D01*
X105162997Y-126104284D01*
X105391289Y-125960838D01*
X105602085Y-125792734D01*
X105792734Y-125602085D01*
X105960838Y-125391289D01*
X106104284Y-125162997D01*
X106221267Y-124920079D01*
X106310316Y-124665591D01*
X106316060Y-124640423D01*
X115919499Y-124640423D01*
X115946418Y-124775750D01*
X115946421Y-124775760D01*
X115999221Y-124903232D01*
X115999228Y-124903245D01*
X116075885Y-125017969D01*
X116075888Y-125017973D01*
X116173454Y-125115539D01*
X116173458Y-125115542D01*
X116288182Y-125192199D01*
X116288195Y-125192206D01*
X116415667Y-125245006D01*
X116415672Y-125245008D01*
X116415676Y-125245008D01*
X116415677Y-125245009D01*
X116551004Y-125271928D01*
X116551007Y-125271928D01*
X116688995Y-125271928D01*
X116780041Y-125253817D01*
X116824328Y-125245008D01*
X116951811Y-125192203D01*
X117066542Y-125115542D01*
X117098836Y-125083248D01*
X117160158Y-125049762D01*
X117186518Y-125046928D01*
X124433482Y-125046928D01*
X124500521Y-125066613D01*
X124521164Y-125083248D01*
X124553454Y-125115539D01*
X124553458Y-125115542D01*
X124668182Y-125192199D01*
X124668195Y-125192206D01*
X124795667Y-125245006D01*
X124795672Y-125245008D01*
X124795676Y-125245008D01*
X124795677Y-125245009D01*
X124931004Y-125271928D01*
X124931007Y-125271928D01*
X125068995Y-125271928D01*
X125160041Y-125253817D01*
X125204328Y-125245008D01*
X125331811Y-125192203D01*
X125446542Y-125115542D01*
X125544114Y-125017970D01*
X125620775Y-124903239D01*
X125673580Y-124775756D01*
X125695493Y-124665594D01*
X125700500Y-124640423D01*
X125700500Y-124502432D01*
X125673581Y-124367105D01*
X125673580Y-124367104D01*
X125673580Y-124367100D01*
X125648916Y-124307555D01*
X125620778Y-124239623D01*
X125620771Y-124239610D01*
X125544114Y-124124886D01*
X125544111Y-124124882D01*
X125446545Y-124027316D01*
X125446541Y-124027313D01*
X125331817Y-123950656D01*
X125331804Y-123950649D01*
X125204332Y-123897849D01*
X125204322Y-123897846D01*
X125068995Y-123870928D01*
X125068993Y-123870928D01*
X124931007Y-123870928D01*
X124931005Y-123870928D01*
X124795677Y-123897846D01*
X124795667Y-123897849D01*
X124668195Y-123950649D01*
X124668182Y-123950656D01*
X124553458Y-124027313D01*
X124553454Y-124027316D01*
X124521164Y-124059608D01*
X124459842Y-124093094D01*
X124433482Y-124095928D01*
X117186518Y-124095928D01*
X117119479Y-124076243D01*
X117098836Y-124059608D01*
X117066545Y-124027316D01*
X117066541Y-124027313D01*
X116951817Y-123950656D01*
X116951804Y-123950649D01*
X116824332Y-123897849D01*
X116824322Y-123897846D01*
X116688995Y-123870928D01*
X116688993Y-123870928D01*
X116551007Y-123870928D01*
X116551005Y-123870928D01*
X116415677Y-123897846D01*
X116415667Y-123897849D01*
X116288195Y-123950649D01*
X116288182Y-123950656D01*
X116173458Y-124027313D01*
X116173454Y-124027316D01*
X116075888Y-124124882D01*
X116075885Y-124124886D01*
X115999228Y-124239610D01*
X115999221Y-124239623D01*
X115946421Y-124367095D01*
X115946418Y-124367105D01*
X115919500Y-124502432D01*
X115919500Y-124502435D01*
X115919500Y-124640421D01*
X115919500Y-124640423D01*
X115919499Y-124640423D01*
X106316060Y-124640423D01*
X106337027Y-124548562D01*
X106355244Y-124468750D01*
X106355244Y-124468749D01*
X106370311Y-124402736D01*
X106370310Y-124402736D01*
X106370312Y-124402732D01*
X106400500Y-124134809D01*
X106400500Y-123865191D01*
X106370312Y-123597268D01*
X106310316Y-123334409D01*
X106307863Y-123327400D01*
X106285470Y-123263402D01*
X106221267Y-123079921D01*
X106104284Y-122837003D01*
X105960838Y-122608711D01*
X105792734Y-122397915D01*
X105602085Y-122207266D01*
X105391289Y-122039162D01*
X105162997Y-121895716D01*
X105162994Y-121895714D01*
X104920082Y-121778734D01*
X104665602Y-121689687D01*
X104665594Y-121689684D01*
X104468446Y-121644687D01*
X104402732Y-121629688D01*
X104402728Y-121629687D01*
X104402719Y-121629686D01*
X104134813Y-121599500D01*
X104134809Y-121599500D01*
X103865191Y-121599500D01*
X103865186Y-121599500D01*
X103597280Y-121629686D01*
X103597268Y-121629688D01*
X103334405Y-121689684D01*
X103334397Y-121689687D01*
X103079917Y-121778734D01*
X102837005Y-121895714D01*
X102608712Y-122039161D01*
X102397915Y-122207265D01*
X102207265Y-122397915D01*
X102039161Y-122608712D01*
X101895714Y-122837005D01*
X101778734Y-123079917D01*
X101689687Y-123334397D01*
X101689684Y-123334405D01*
X101629688Y-123597268D01*
X101629686Y-123597280D01*
X101599500Y-123865186D01*
X100600000Y-123865186D01*
X100600000Y-104105131D01*
X105849500Y-104105131D01*
X105849500Y-105894856D01*
X105849502Y-105894882D01*
X105852413Y-105919987D01*
X105852415Y-105919991D01*
X105897793Y-106022764D01*
X105897794Y-106022765D01*
X105977235Y-106102206D01*
X106080009Y-106147585D01*
X106105135Y-106150500D01*
X106846074Y-106150499D01*
X106913112Y-106170183D01*
X106958867Y-106222987D01*
X106968811Y-106292146D01*
X106939786Y-106355702D01*
X106881008Y-106393476D01*
X106865471Y-106396972D01*
X106730706Y-106418317D01*
X106558555Y-106474251D01*
X106558552Y-106474252D01*
X106397270Y-106556431D01*
X106397268Y-106556432D01*
X106340511Y-106597667D01*
X106340511Y-106597668D01*
X106814823Y-107071980D01*
X106807007Y-107074075D01*
X106692993Y-107139901D01*
X106599901Y-107232993D01*
X106534075Y-107347007D01*
X106531980Y-107354823D01*
X106057668Y-106880511D01*
X106057667Y-106880511D01*
X106016432Y-106937268D01*
X106016431Y-106937270D01*
X105934252Y-107098552D01*
X105934251Y-107098555D01*
X105878317Y-107270706D01*
X105850000Y-107449493D01*
X105850000Y-107630506D01*
X105878317Y-107809293D01*
X105934251Y-107981444D01*
X105934252Y-107981447D01*
X106016434Y-108142734D01*
X106057667Y-108199487D01*
X106057668Y-108199487D01*
X106531980Y-107725176D01*
X106534075Y-107732993D01*
X106599901Y-107847007D01*
X106692993Y-107940099D01*
X106807007Y-108005925D01*
X106814822Y-108008019D01*
X106340510Y-108482330D01*
X106340511Y-108482331D01*
X106397265Y-108523565D01*
X106558552Y-108605747D01*
X106558555Y-108605748D01*
X106730706Y-108661682D01*
X106892279Y-108687273D01*
X106955413Y-108717202D01*
X106992345Y-108776513D01*
X106991347Y-108846376D01*
X106952738Y-108904609D01*
X106892280Y-108932219D01*
X106730589Y-108957829D01*
X106558363Y-109013787D01*
X106558360Y-109013788D01*
X106397002Y-109096006D01*
X106250505Y-109202441D01*
X106250500Y-109202445D01*
X106122445Y-109330500D01*
X106122441Y-109330505D01*
X106016006Y-109477002D01*
X105933788Y-109638360D01*
X105933787Y-109638363D01*
X105877829Y-109810589D01*
X105849500Y-109989448D01*
X105849500Y-110170551D01*
X105877829Y-110349410D01*
X105933787Y-110521636D01*
X105933788Y-110521639D01*
X105989664Y-110631300D01*
X106000331Y-110652235D01*
X106016006Y-110682997D01*
X106122441Y-110829494D01*
X106122445Y-110829499D01*
X106250500Y-110957554D01*
X106250505Y-110957558D01*
X106378287Y-111050396D01*
X106397006Y-111063996D01*
X106502484Y-111117740D01*
X106558360Y-111146211D01*
X106558363Y-111146212D01*
X106644476Y-111174191D01*
X106730591Y-111202171D01*
X106803639Y-111213740D01*
X106890678Y-111227527D01*
X106953813Y-111257456D01*
X106990744Y-111316768D01*
X106989746Y-111386631D01*
X106951136Y-111444863D01*
X106890678Y-111472473D01*
X106730589Y-111497829D01*
X106558363Y-111553787D01*
X106558360Y-111553788D01*
X106397002Y-111636006D01*
X106250505Y-111742441D01*
X106250500Y-111742445D01*
X106122445Y-111870500D01*
X106122441Y-111870505D01*
X106016006Y-112017002D01*
X105933788Y-112178360D01*
X105933787Y-112178363D01*
X105877829Y-112350589D01*
X105849500Y-112529448D01*
X105849500Y-112710551D01*
X105877829Y-112889410D01*
X105933787Y-113061636D01*
X105933788Y-113061639D01*
X105989664Y-113171300D01*
X106012167Y-113215464D01*
X106016006Y-113222997D01*
X106122441Y-113369494D01*
X106122445Y-113369499D01*
X106250500Y-113497554D01*
X106250505Y-113497558D01*
X106378287Y-113590396D01*
X106397006Y-113603996D01*
X106502484Y-113657740D01*
X106558360Y-113686211D01*
X106558363Y-113686212D01*
X106644476Y-113714191D01*
X106730591Y-113742171D01*
X106803639Y-113753740D01*
X106890678Y-113767527D01*
X106953813Y-113797456D01*
X106990744Y-113856768D01*
X106989746Y-113926631D01*
X106951136Y-113984863D01*
X106890678Y-114012473D01*
X106730589Y-114037829D01*
X106558363Y-114093787D01*
X106558360Y-114093788D01*
X106397002Y-114176006D01*
X106250505Y-114282441D01*
X106250500Y-114282445D01*
X106122445Y-114410500D01*
X106122441Y-114410505D01*
X106016006Y-114557002D01*
X105933788Y-114718360D01*
X105933787Y-114718363D01*
X105877829Y-114890589D01*
X105849500Y-115069448D01*
X105849500Y-115250551D01*
X105877829Y-115429410D01*
X105933787Y-115601636D01*
X105933788Y-115601639D01*
X106016006Y-115762997D01*
X106122441Y-115909494D01*
X106122445Y-115909499D01*
X106250500Y-116037554D01*
X106250505Y-116037558D01*
X106366516Y-116121844D01*
X106397006Y-116143996D01*
X106502484Y-116197740D01*
X106558360Y-116226211D01*
X106558363Y-116226212D01*
X106644476Y-116254191D01*
X106730591Y-116282171D01*
X106850038Y-116301089D01*
X106892279Y-116307780D01*
X106955414Y-116337709D01*
X106992345Y-116397021D01*
X106991347Y-116466883D01*
X106952737Y-116525116D01*
X106892279Y-116552726D01*
X106730706Y-116578317D01*
X106558555Y-116634251D01*
X106558552Y-116634252D01*
X106397270Y-116716431D01*
X106397268Y-116716432D01*
X106340511Y-116757667D01*
X106340511Y-116757668D01*
X106814823Y-117231980D01*
X106807007Y-117234075D01*
X106692993Y-117299901D01*
X106599901Y-117392993D01*
X106534075Y-117507007D01*
X106531980Y-117514823D01*
X106057668Y-117040511D01*
X106057667Y-117040511D01*
X106016432Y-117097268D01*
X106016431Y-117097270D01*
X105934252Y-117258552D01*
X105934251Y-117258555D01*
X105878317Y-117430706D01*
X105850000Y-117609493D01*
X105850000Y-117790506D01*
X105878317Y-117969293D01*
X105934251Y-118141444D01*
X105934252Y-118141447D01*
X106016434Y-118302734D01*
X106057667Y-118359487D01*
X106057668Y-118359487D01*
X106531980Y-117885176D01*
X106534075Y-117892993D01*
X106599901Y-118007007D01*
X106692993Y-118100099D01*
X106807007Y-118165925D01*
X106814822Y-118168019D01*
X106340510Y-118642330D01*
X106340511Y-118642331D01*
X106397265Y-118683565D01*
X106558552Y-118765747D01*
X106558555Y-118765748D01*
X106730706Y-118821682D01*
X106909494Y-118850000D01*
X107090506Y-118850000D01*
X107269293Y-118821682D01*
X107441444Y-118765748D01*
X107441447Y-118765747D01*
X107602730Y-118683568D01*
X107659487Y-118642330D01*
X107659488Y-118642329D01*
X107185178Y-118168019D01*
X107192993Y-118165925D01*
X107307007Y-118100099D01*
X107400099Y-118007007D01*
X107465925Y-117892993D01*
X107468019Y-117885177D01*
X107942329Y-118359488D01*
X107942330Y-118359487D01*
X107983568Y-118302730D01*
X108065747Y-118141447D01*
X108065748Y-118141444D01*
X108121682Y-117969293D01*
X108150000Y-117790506D01*
X108150000Y-117609493D01*
X108121682Y-117430706D01*
X108065748Y-117258555D01*
X108065747Y-117258552D01*
X107983565Y-117097265D01*
X107942331Y-117040511D01*
X107942330Y-117040510D01*
X107468018Y-117514821D01*
X107465925Y-117507007D01*
X107400099Y-117392993D01*
X107307007Y-117299901D01*
X107192993Y-117234075D01*
X107185176Y-117231980D01*
X107659487Y-116757668D01*
X107659487Y-116757667D01*
X107602734Y-116716434D01*
X107441447Y-116634252D01*
X107441444Y-116634251D01*
X107269293Y-116578317D01*
X107107720Y-116552726D01*
X107044585Y-116522797D01*
X107007654Y-116463485D01*
X107008652Y-116393623D01*
X107047262Y-116335390D01*
X107107720Y-116307780D01*
X107122270Y-116305475D01*
X107269409Y-116282171D01*
X107441639Y-116226211D01*
X107602994Y-116143996D01*
X107749501Y-116037553D01*
X107877553Y-115909501D01*
X107983996Y-115762994D01*
X108066211Y-115601639D01*
X108122171Y-115429409D01*
X108136765Y-115337259D01*
X108150500Y-115250551D01*
X108150500Y-115069448D01*
X108134019Y-114965397D01*
X108122171Y-114890591D01*
X108094191Y-114804476D01*
X108066212Y-114718363D01*
X108066211Y-114718360D01*
X108037740Y-114662484D01*
X107983996Y-114557006D01*
X107924779Y-114475500D01*
X107877558Y-114410505D01*
X107877554Y-114410500D01*
X107749499Y-114282445D01*
X107749494Y-114282441D01*
X107602997Y-114176006D01*
X107602996Y-114176005D01*
X107602994Y-114176004D01*
X107551300Y-114149664D01*
X107441639Y-114093788D01*
X107441636Y-114093787D01*
X107269410Y-114037829D01*
X107109321Y-114012473D01*
X107046186Y-113982544D01*
X107009255Y-113923232D01*
X107010253Y-113853370D01*
X107048863Y-113795137D01*
X107109321Y-113767527D01*
X107179425Y-113756422D01*
X107269409Y-113742171D01*
X107441639Y-113686211D01*
X107602994Y-113603996D01*
X107749501Y-113497553D01*
X107877553Y-113369501D01*
X107983996Y-113222994D01*
X108066211Y-113061639D01*
X108122171Y-112889409D01*
X108145474Y-112742280D01*
X108150500Y-112710551D01*
X108150500Y-112529448D01*
X108123758Y-112360613D01*
X108122171Y-112350591D01*
X108079696Y-112219864D01*
X108066212Y-112178363D01*
X108066211Y-112178360D01*
X108037740Y-112122484D01*
X107983996Y-112017006D01*
X107970396Y-111998287D01*
X107877558Y-111870505D01*
X107877554Y-111870500D01*
X107749499Y-111742445D01*
X107749494Y-111742441D01*
X107602997Y-111636006D01*
X107602996Y-111636005D01*
X107602994Y-111636004D01*
X107551300Y-111609664D01*
X107441639Y-111553788D01*
X107441636Y-111553787D01*
X107269410Y-111497829D01*
X107109321Y-111472473D01*
X107046186Y-111442544D01*
X107009255Y-111383232D01*
X107010253Y-111313370D01*
X107048863Y-111255137D01*
X107109321Y-111227527D01*
X107179425Y-111216422D01*
X107269409Y-111202171D01*
X107441639Y-111146211D01*
X107602994Y-111063996D01*
X107749501Y-110957553D01*
X107877553Y-110829501D01*
X107983996Y-110682994D01*
X108066211Y-110521639D01*
X108122171Y-110349409D01*
X108136765Y-110257259D01*
X108150500Y-110170551D01*
X108150500Y-109989448D01*
X108134019Y-109885397D01*
X108122171Y-109810591D01*
X108066211Y-109638361D01*
X108066211Y-109638360D01*
X108037740Y-109582484D01*
X107983996Y-109477006D01*
X107970396Y-109458287D01*
X107877558Y-109330505D01*
X107877554Y-109330500D01*
X107749499Y-109202445D01*
X107749494Y-109202441D01*
X107602997Y-109096006D01*
X107602996Y-109096005D01*
X107602994Y-109096004D01*
X107551300Y-109069664D01*
X107441639Y-109013788D01*
X107441636Y-109013787D01*
X107269410Y-108957828D01*
X107107720Y-108932219D01*
X107044585Y-108902289D01*
X107007654Y-108842978D01*
X107008652Y-108773115D01*
X107047262Y-108714883D01*
X107107721Y-108687273D01*
X107269292Y-108661683D01*
X107441444Y-108605748D01*
X107441447Y-108605747D01*
X107602730Y-108523568D01*
X107659487Y-108482330D01*
X107659488Y-108482329D01*
X107185178Y-108008019D01*
X107192993Y-108005925D01*
X107307007Y-107940099D01*
X107400099Y-107847007D01*
X107465925Y-107732993D01*
X107468019Y-107725177D01*
X107942330Y-108199488D01*
X107942330Y-108199487D01*
X107983568Y-108142730D01*
X108065747Y-107981447D01*
X108065748Y-107981444D01*
X108121682Y-107809293D01*
X108150000Y-107630506D01*
X108150000Y-107449493D01*
X108121682Y-107270706D01*
X108065748Y-107098555D01*
X108065745Y-107098547D01*
X108010105Y-106989350D01*
X107997208Y-106920680D01*
X108023484Y-106855940D01*
X108080590Y-106815682D01*
X108150396Y-106812690D01*
X108208270Y-106845373D01*
X108513181Y-107150284D01*
X108546666Y-107211607D01*
X108549500Y-107237965D01*
X108549500Y-119158481D01*
X108529815Y-119225520D01*
X108513181Y-119246162D01*
X108455888Y-119303454D01*
X108455885Y-119303458D01*
X108379228Y-119418182D01*
X108379221Y-119418195D01*
X108326421Y-119545667D01*
X108326418Y-119545677D01*
X108299500Y-119681004D01*
X108299500Y-119681007D01*
X108299500Y-119818993D01*
X108299500Y-119818995D01*
X108299499Y-119818995D01*
X108326418Y-119954322D01*
X108326421Y-119954332D01*
X108379221Y-120081804D01*
X108379228Y-120081817D01*
X108455885Y-120196541D01*
X108455888Y-120196545D01*
X108553454Y-120294111D01*
X108553458Y-120294114D01*
X108668182Y-120370771D01*
X108668195Y-120370778D01*
X108794245Y-120422989D01*
X108795672Y-120423580D01*
X108795676Y-120423580D01*
X108795677Y-120423581D01*
X108931004Y-120450500D01*
X108931007Y-120450500D01*
X109068995Y-120450500D01*
X109160041Y-120432389D01*
X109204328Y-120423580D01*
X109331811Y-120370775D01*
X109446542Y-120294114D01*
X109544114Y-120196542D01*
X109620775Y-120081811D01*
X109673580Y-119954328D01*
X109688402Y-119879815D01*
X109700500Y-119818995D01*
X109700500Y-119681004D01*
X109673581Y-119545677D01*
X109673580Y-119545676D01*
X109673580Y-119545672D01*
X109673578Y-119545667D01*
X109620778Y-119418195D01*
X109620771Y-119418182D01*
X109544114Y-119303458D01*
X109544111Y-119303454D01*
X109486819Y-119246162D01*
X109453334Y-119184839D01*
X109450500Y-119158481D01*
X109450500Y-110780131D01*
X128024500Y-110780131D01*
X128024500Y-112219856D01*
X128024502Y-112219882D01*
X128027413Y-112244987D01*
X128027415Y-112244991D01*
X128072793Y-112347764D01*
X128072794Y-112347765D01*
X128152235Y-112427206D01*
X128255009Y-112472585D01*
X128280135Y-112475500D01*
X128368647Y-112475499D01*
X128435683Y-112495183D01*
X128481439Y-112547986D01*
X128491383Y-112617145D01*
X128462359Y-112680701D01*
X128437537Y-112702600D01*
X128378158Y-112742277D01*
X128378151Y-112742282D01*
X128242282Y-112878151D01*
X128242279Y-112878155D01*
X128135521Y-113037929D01*
X128135520Y-113037931D01*
X128061989Y-113215452D01*
X128061986Y-113215464D01*
X128024500Y-113403917D01*
X128024500Y-113596082D01*
X128061986Y-113784535D01*
X128061989Y-113784547D01*
X128135520Y-113962068D01*
X128135521Y-113962070D01*
X128242279Y-114121844D01*
X128242282Y-114121848D01*
X128378151Y-114257717D01*
X128378155Y-114257720D01*
X128537927Y-114364477D01*
X128537928Y-114364477D01*
X128537929Y-114364478D01*
X128588533Y-114385439D01*
X128642936Y-114429280D01*
X128665001Y-114495574D01*
X128647722Y-114563274D01*
X128596584Y-114610884D01*
X128588533Y-114614561D01*
X128537929Y-114635521D01*
X128378155Y-114742279D01*
X128378151Y-114742282D01*
X128242282Y-114878151D01*
X128242279Y-114878155D01*
X128135521Y-115037929D01*
X128135520Y-115037931D01*
X128061989Y-115215452D01*
X128061986Y-115215464D01*
X128024500Y-115403917D01*
X128024500Y-115596082D01*
X128061986Y-115784535D01*
X128061989Y-115784547D01*
X128135520Y-115962068D01*
X128135521Y-115962070D01*
X128242279Y-116121844D01*
X128242282Y-116121848D01*
X128378151Y-116257717D01*
X128378155Y-116257720D01*
X128537927Y-116364477D01*
X128537928Y-116364477D01*
X128537929Y-116364478D01*
X128537931Y-116364479D01*
X128589185Y-116385709D01*
X128643589Y-116429549D01*
X128665654Y-116495843D01*
X128648375Y-116563543D01*
X128597238Y-116611154D01*
X128589187Y-116614830D01*
X128538172Y-116635961D01*
X128538157Y-116635969D01*
X128378473Y-116742667D01*
X128378469Y-116742670D01*
X128242670Y-116878469D01*
X128242667Y-116878473D01*
X128135969Y-117038157D01*
X128135964Y-117038166D01*
X128062469Y-117215600D01*
X128062466Y-117215610D01*
X128045680Y-117299999D01*
X128045681Y-117300000D01*
X128653589Y-117300000D01*
X128627259Y-117345606D01*
X128600000Y-117447339D01*
X128600000Y-117552661D01*
X128627259Y-117654394D01*
X128653590Y-117700000D01*
X128045680Y-117700000D01*
X128062466Y-117784389D01*
X128062469Y-117784399D01*
X128135964Y-117961833D01*
X128135969Y-117961842D01*
X128242667Y-118121526D01*
X128242670Y-118121530D01*
X128378469Y-118257329D01*
X128378473Y-118257332D01*
X128538157Y-118364030D01*
X128538166Y-118364035D01*
X128715600Y-118437530D01*
X128715610Y-118437533D01*
X128799999Y-118454319D01*
X128800000Y-118454319D01*
X128800000Y-117846410D01*
X128845606Y-117872741D01*
X128947339Y-117900000D01*
X129052661Y-117900000D01*
X129154394Y-117872741D01*
X129200000Y-117846410D01*
X129200000Y-118454319D01*
X129284389Y-118437533D01*
X129284399Y-118437530D01*
X129461833Y-118364035D01*
X129461842Y-118364030D01*
X129621526Y-118257332D01*
X129621530Y-118257329D01*
X129757329Y-118121530D01*
X129757332Y-118121526D01*
X129864030Y-117961842D01*
X129864035Y-117961833D01*
X129937530Y-117784399D01*
X129937533Y-117784389D01*
X129954319Y-117700000D01*
X129346410Y-117700000D01*
X129372741Y-117654394D01*
X129400000Y-117552661D01*
X129400000Y-117447339D01*
X129372741Y-117345606D01*
X129346411Y-117300000D01*
X129954319Y-117300000D01*
X129954319Y-117299999D01*
X129937533Y-117215610D01*
X129937530Y-117215600D01*
X129864035Y-117038166D01*
X129864030Y-117038157D01*
X129757332Y-116878473D01*
X129757329Y-116878469D01*
X129621530Y-116742670D01*
X129621526Y-116742667D01*
X129461842Y-116635969D01*
X129461832Y-116635964D01*
X129410813Y-116614831D01*
X129356409Y-116570989D01*
X129334345Y-116504695D01*
X129351625Y-116436996D01*
X129402762Y-116389386D01*
X129410799Y-116385715D01*
X129462073Y-116364477D01*
X129621845Y-116257720D01*
X129757720Y-116121845D01*
X129864477Y-115962073D01*
X129938012Y-115784543D01*
X129975500Y-115596078D01*
X129975500Y-115443053D01*
X133200000Y-115443053D01*
X133210613Y-115531443D01*
X133266079Y-115672095D01*
X133357435Y-115792564D01*
X133477904Y-115883920D01*
X133618556Y-115939386D01*
X133706946Y-115950000D01*
X134100000Y-115950000D01*
X134500000Y-115950000D01*
X134893054Y-115950000D01*
X134981443Y-115939386D01*
X135122095Y-115883920D01*
X135242564Y-115792564D01*
X135333920Y-115672095D01*
X135389386Y-115531443D01*
X135400000Y-115443053D01*
X135400000Y-114350000D01*
X134500000Y-114350000D01*
X134500000Y-115950000D01*
X134100000Y-115950000D01*
X134100000Y-114350000D01*
X133200000Y-114350000D01*
X133200000Y-115443053D01*
X129975500Y-115443053D01*
X129975500Y-115403922D01*
X129975500Y-115403919D01*
X129975499Y-115403917D01*
X129938012Y-115215457D01*
X129877536Y-115069454D01*
X129864479Y-115037931D01*
X129864478Y-115037929D01*
X129757720Y-114878155D01*
X129757717Y-114878151D01*
X129621848Y-114742282D01*
X129621844Y-114742279D01*
X129462070Y-114635521D01*
X129462068Y-114635520D01*
X129411467Y-114614561D01*
X129357063Y-114570720D01*
X129334998Y-114504426D01*
X129352277Y-114436727D01*
X129403414Y-114389116D01*
X129411467Y-114385439D01*
X129462068Y-114364479D01*
X129462067Y-114364479D01*
X129462073Y-114364477D01*
X129621845Y-114257720D01*
X129621848Y-114257717D01*
X129668609Y-114210957D01*
X129757717Y-114121848D01*
X129757720Y-114121845D01*
X129864477Y-113962073D01*
X129938012Y-113784543D01*
X129975500Y-113596078D01*
X129975500Y-113403922D01*
X129975500Y-113403919D01*
X129975499Y-113403917D01*
X129968652Y-113369494D01*
X129938012Y-113215457D01*
X129864477Y-113037927D01*
X129786056Y-112920563D01*
X129757720Y-112878154D01*
X129736512Y-112856946D01*
X133200000Y-112856946D01*
X133200000Y-113950000D01*
X134100000Y-113950000D01*
X134500000Y-113950000D01*
X135400000Y-113950000D01*
X135400000Y-112856946D01*
X135389386Y-112768556D01*
X135333920Y-112627904D01*
X135242564Y-112507435D01*
X135122095Y-112416079D01*
X134981443Y-112360613D01*
X134893054Y-112350000D01*
X134500000Y-112350000D01*
X134500000Y-113950000D01*
X134100000Y-113950000D01*
X134100000Y-112350000D01*
X133706946Y-112350000D01*
X133618556Y-112360613D01*
X133477904Y-112416079D01*
X133357435Y-112507435D01*
X133266079Y-112627904D01*
X133210613Y-112768556D01*
X133200000Y-112856946D01*
X129736512Y-112856946D01*
X129621847Y-112742281D01*
X129603211Y-112729829D01*
X129562460Y-112702600D01*
X129517656Y-112648990D01*
X129508949Y-112579665D01*
X129539103Y-112516637D01*
X129598546Y-112479917D01*
X129631351Y-112475499D01*
X129719864Y-112475499D01*
X129719879Y-112475497D01*
X129719882Y-112475497D01*
X129744987Y-112472586D01*
X129744988Y-112472585D01*
X129744991Y-112472585D01*
X129847765Y-112427206D01*
X129927206Y-112347765D01*
X129972585Y-112244991D01*
X129975500Y-112219865D01*
X129975499Y-110780136D01*
X129975497Y-110780117D01*
X129972586Y-110755012D01*
X129972585Y-110755010D01*
X129972585Y-110755009D01*
X129927206Y-110652235D01*
X129847765Y-110572794D01*
X129847763Y-110572793D01*
X129744992Y-110527415D01*
X129719865Y-110524500D01*
X128280143Y-110524500D01*
X128280117Y-110524502D01*
X128255012Y-110527413D01*
X128255008Y-110527415D01*
X128152235Y-110572793D01*
X128072794Y-110652234D01*
X128027415Y-110755006D01*
X128027415Y-110755008D01*
X128024500Y-110780131D01*
X109450500Y-110780131D01*
X109450500Y-106940693D01*
X109450500Y-106940691D01*
X109419799Y-106826114D01*
X109419799Y-106826113D01*
X109360489Y-106723386D01*
X108299284Y-105662181D01*
X108265799Y-105600858D01*
X108270783Y-105531166D01*
X108312655Y-105475233D01*
X108378119Y-105450816D01*
X108386965Y-105450500D01*
X127725501Y-105450500D01*
X127792540Y-105470185D01*
X127838295Y-105522989D01*
X127849501Y-105574500D01*
X127849501Y-105894856D01*
X127849502Y-105894882D01*
X127852413Y-105919987D01*
X127852415Y-105919991D01*
X127897793Y-106022764D01*
X127897794Y-106022765D01*
X127977235Y-106102206D01*
X128080009Y-106147585D01*
X128105135Y-106150500D01*
X128846073Y-106150499D01*
X128913111Y-106170183D01*
X128958866Y-106222987D01*
X128968810Y-106292146D01*
X128939785Y-106355702D01*
X128881007Y-106393476D01*
X128865470Y-106396972D01*
X128730706Y-106418316D01*
X128558555Y-106474251D01*
X128558552Y-106474252D01*
X128397265Y-106556434D01*
X128250830Y-106662823D01*
X128122823Y-106790830D01*
X128016434Y-106937265D01*
X127934252Y-107098552D01*
X127934251Y-107098555D01*
X127878316Y-107270706D01*
X127867342Y-107340000D01*
X128538120Y-107340000D01*
X128534075Y-107347007D01*
X128500000Y-107474174D01*
X128500000Y-107605826D01*
X128534075Y-107732993D01*
X128538120Y-107740000D01*
X127867342Y-107740000D01*
X127878316Y-107809293D01*
X127934251Y-107981444D01*
X127934252Y-107981447D01*
X128016434Y-108142734D01*
X128122823Y-108289169D01*
X128250830Y-108417176D01*
X128397265Y-108523565D01*
X128558552Y-108605747D01*
X128558555Y-108605748D01*
X128730700Y-108661680D01*
X128800000Y-108672656D01*
X128800000Y-108001879D01*
X128807007Y-108005925D01*
X128934174Y-108040000D01*
X129065826Y-108040000D01*
X129192993Y-108005925D01*
X129200000Y-108001879D01*
X129200000Y-108672655D01*
X129269299Y-108661680D01*
X129441444Y-108605748D01*
X129441447Y-108605747D01*
X129602734Y-108523565D01*
X129749169Y-108417176D01*
X129877176Y-108289169D01*
X129983565Y-108142734D01*
X130065747Y-107981447D01*
X130065748Y-107981444D01*
X130121683Y-107809293D01*
X130132658Y-107740000D01*
X129461880Y-107740000D01*
X129465925Y-107732993D01*
X129500000Y-107605826D01*
X129500000Y-107474174D01*
X129465925Y-107347007D01*
X129461880Y-107340000D01*
X130132658Y-107340000D01*
X130132658Y-107339999D01*
X130121683Y-107270706D01*
X130065748Y-107098555D01*
X130065747Y-107098552D01*
X129983565Y-106937265D01*
X129877176Y-106790830D01*
X129749169Y-106662823D01*
X129602734Y-106556434D01*
X129441447Y-106474252D01*
X129441444Y-106474251D01*
X129269293Y-106418317D01*
X129134528Y-106396972D01*
X129071393Y-106367043D01*
X129034462Y-106307731D01*
X129035460Y-106237869D01*
X129074070Y-106179636D01*
X129138034Y-106151522D01*
X129153919Y-106150499D01*
X129894864Y-106150499D01*
X129894879Y-106150497D01*
X129894882Y-106150497D01*
X129919987Y-106147586D01*
X129919988Y-106147585D01*
X129919991Y-106147585D01*
X130022765Y-106102206D01*
X130102206Y-106022765D01*
X130147585Y-105919991D01*
X130150500Y-105894865D01*
X130150499Y-104105136D01*
X130150499Y-104105135D01*
X130150499Y-104105131D01*
X138849500Y-104105131D01*
X138849500Y-105894856D01*
X138849502Y-105894882D01*
X138852413Y-105919987D01*
X138852415Y-105919991D01*
X138897793Y-106022764D01*
X138897794Y-106022765D01*
X138977235Y-106102206D01*
X139080009Y-106147585D01*
X139105135Y-106150500D01*
X139846074Y-106150499D01*
X139913112Y-106170183D01*
X139958867Y-106222987D01*
X139968811Y-106292146D01*
X139939786Y-106355702D01*
X139881008Y-106393476D01*
X139865471Y-106396972D01*
X139730706Y-106418317D01*
X139558555Y-106474251D01*
X139558552Y-106474252D01*
X139397270Y-106556431D01*
X139397268Y-106556432D01*
X139340511Y-106597667D01*
X139340511Y-106597668D01*
X139814823Y-107071980D01*
X139807007Y-107074075D01*
X139692993Y-107139901D01*
X139599901Y-107232993D01*
X139534075Y-107347007D01*
X139531980Y-107354823D01*
X139057668Y-106880511D01*
X139057667Y-106880511D01*
X139016432Y-106937268D01*
X139016431Y-106937270D01*
X138934252Y-107098552D01*
X138934251Y-107098555D01*
X138878317Y-107270706D01*
X138850000Y-107449493D01*
X138850000Y-107630506D01*
X138878317Y-107809293D01*
X138934251Y-107981444D01*
X138934252Y-107981447D01*
X139016434Y-108142734D01*
X139057667Y-108199487D01*
X139057668Y-108199487D01*
X139531980Y-107725176D01*
X139534075Y-107732993D01*
X139599901Y-107847007D01*
X139692993Y-107940099D01*
X139807007Y-108005925D01*
X139814822Y-108008019D01*
X139340510Y-108482330D01*
X139340511Y-108482331D01*
X139397265Y-108523565D01*
X139558552Y-108605747D01*
X139558555Y-108605748D01*
X139730706Y-108661682D01*
X139892279Y-108687273D01*
X139955413Y-108717202D01*
X139992345Y-108776513D01*
X139991347Y-108846376D01*
X139952738Y-108904609D01*
X139892280Y-108932219D01*
X139730589Y-108957829D01*
X139558363Y-109013787D01*
X139558360Y-109013788D01*
X139397002Y-109096006D01*
X139250505Y-109202441D01*
X139250500Y-109202445D01*
X139122445Y-109330500D01*
X139122441Y-109330505D01*
X139016006Y-109477002D01*
X138933788Y-109638360D01*
X138933787Y-109638363D01*
X138877829Y-109810589D01*
X138849500Y-109989448D01*
X138849500Y-110170551D01*
X138877829Y-110349410D01*
X138933787Y-110521636D01*
X138933788Y-110521639D01*
X138989664Y-110631300D01*
X139000331Y-110652235D01*
X139016006Y-110682997D01*
X139122441Y-110829494D01*
X139122445Y-110829499D01*
X139250500Y-110957554D01*
X139250505Y-110957558D01*
X139378287Y-111050396D01*
X139397006Y-111063996D01*
X139502484Y-111117740D01*
X139558360Y-111146211D01*
X139558363Y-111146212D01*
X139644476Y-111174191D01*
X139730591Y-111202171D01*
X139803639Y-111213740D01*
X139890678Y-111227527D01*
X139953813Y-111257456D01*
X139990744Y-111316768D01*
X139989746Y-111386631D01*
X139951136Y-111444863D01*
X139890678Y-111472473D01*
X139730589Y-111497829D01*
X139558363Y-111553787D01*
X139558360Y-111553788D01*
X139397002Y-111636006D01*
X139250505Y-111742441D01*
X139250500Y-111742445D01*
X139122445Y-111870500D01*
X139122441Y-111870505D01*
X139016006Y-112017002D01*
X138933788Y-112178360D01*
X138933787Y-112178363D01*
X138877829Y-112350589D01*
X138849500Y-112529448D01*
X138849500Y-112710551D01*
X138877829Y-112889410D01*
X138933787Y-113061636D01*
X138933788Y-113061639D01*
X138989664Y-113171300D01*
X139012167Y-113215464D01*
X139016006Y-113222997D01*
X139122441Y-113369494D01*
X139122445Y-113369499D01*
X139250500Y-113497554D01*
X139250505Y-113497558D01*
X139378287Y-113590396D01*
X139397006Y-113603996D01*
X139502484Y-113657740D01*
X139558360Y-113686211D01*
X139558363Y-113686212D01*
X139644476Y-113714191D01*
X139730591Y-113742171D01*
X139803639Y-113753740D01*
X139890678Y-113767527D01*
X139953813Y-113797456D01*
X139990744Y-113856768D01*
X139989746Y-113926631D01*
X139951136Y-113984863D01*
X139890678Y-114012473D01*
X139730589Y-114037829D01*
X139558363Y-114093787D01*
X139558360Y-114093788D01*
X139397002Y-114176006D01*
X139250505Y-114282441D01*
X139250500Y-114282445D01*
X139122445Y-114410500D01*
X139122441Y-114410505D01*
X139016006Y-114557002D01*
X138933788Y-114718360D01*
X138933787Y-114718363D01*
X138877829Y-114890589D01*
X138849500Y-115069448D01*
X138849500Y-115250551D01*
X138877829Y-115429410D01*
X138933787Y-115601636D01*
X138933788Y-115601639D01*
X139016006Y-115762997D01*
X139122441Y-115909494D01*
X139122445Y-115909499D01*
X139250500Y-116037554D01*
X139250505Y-116037558D01*
X139366516Y-116121844D01*
X139397006Y-116143996D01*
X139502484Y-116197740D01*
X139558360Y-116226211D01*
X139558363Y-116226212D01*
X139644476Y-116254191D01*
X139730591Y-116282171D01*
X139850038Y-116301089D01*
X139892279Y-116307780D01*
X139955414Y-116337709D01*
X139992345Y-116397021D01*
X139991347Y-116466883D01*
X139952737Y-116525116D01*
X139892279Y-116552726D01*
X139730706Y-116578317D01*
X139558555Y-116634251D01*
X139558552Y-116634252D01*
X139397270Y-116716431D01*
X139397268Y-116716432D01*
X139340511Y-116757667D01*
X139340511Y-116757668D01*
X139814823Y-117231980D01*
X139807007Y-117234075D01*
X139692993Y-117299901D01*
X139599901Y-117392993D01*
X139534075Y-117507007D01*
X139531980Y-117514823D01*
X139057668Y-117040511D01*
X139057667Y-117040511D01*
X139016432Y-117097268D01*
X139016431Y-117097270D01*
X138934252Y-117258552D01*
X138934251Y-117258555D01*
X138878317Y-117430706D01*
X138850000Y-117609493D01*
X138850000Y-117790506D01*
X138878317Y-117969293D01*
X138934251Y-118141444D01*
X138934252Y-118141447D01*
X139016434Y-118302734D01*
X139057667Y-118359487D01*
X139057668Y-118359487D01*
X139531980Y-117885176D01*
X139534075Y-117892993D01*
X139599901Y-118007007D01*
X139692993Y-118100099D01*
X139807007Y-118165925D01*
X139814822Y-118168019D01*
X139340510Y-118642330D01*
X139340511Y-118642331D01*
X139397265Y-118683565D01*
X139558552Y-118765747D01*
X139558555Y-118765748D01*
X139730706Y-118821682D01*
X139909494Y-118850000D01*
X140090506Y-118850000D01*
X140269293Y-118821682D01*
X140441444Y-118765748D01*
X140441447Y-118765747D01*
X140602730Y-118683568D01*
X140659487Y-118642330D01*
X140659488Y-118642329D01*
X140185178Y-118168019D01*
X140192993Y-118165925D01*
X140307007Y-118100099D01*
X140400099Y-118007007D01*
X140465925Y-117892993D01*
X140468019Y-117885177D01*
X140942329Y-118359488D01*
X140942330Y-118359487D01*
X140983568Y-118302730D01*
X141065747Y-118141447D01*
X141065748Y-118141444D01*
X141121682Y-117969293D01*
X141150000Y-117790506D01*
X141150000Y-117609493D01*
X141121682Y-117430706D01*
X141065748Y-117258555D01*
X141065747Y-117258552D01*
X140983565Y-117097265D01*
X140942331Y-117040511D01*
X140942330Y-117040510D01*
X140468018Y-117514821D01*
X140465925Y-117507007D01*
X140400099Y-117392993D01*
X140307007Y-117299901D01*
X140192993Y-117234075D01*
X140185176Y-117231980D01*
X140659487Y-116757668D01*
X140659487Y-116757667D01*
X140602734Y-116716434D01*
X140441447Y-116634252D01*
X140441444Y-116634251D01*
X140269293Y-116578317D01*
X140107720Y-116552726D01*
X140044585Y-116522797D01*
X140007654Y-116463485D01*
X140008652Y-116393623D01*
X140047262Y-116335390D01*
X140107720Y-116307780D01*
X140122270Y-116305475D01*
X140269409Y-116282171D01*
X140441639Y-116226211D01*
X140602994Y-116143996D01*
X140749501Y-116037553D01*
X140877553Y-115909501D01*
X140983996Y-115762994D01*
X141066211Y-115601639D01*
X141122171Y-115429409D01*
X141136765Y-115337259D01*
X141150500Y-115250551D01*
X141150500Y-115069448D01*
X141134019Y-114965397D01*
X141122171Y-114890591D01*
X141094191Y-114804476D01*
X141066212Y-114718363D01*
X141066211Y-114718360D01*
X141037740Y-114662484D01*
X140983996Y-114557006D01*
X140924779Y-114475500D01*
X140877558Y-114410505D01*
X140877554Y-114410500D01*
X140749499Y-114282445D01*
X140749494Y-114282441D01*
X140602997Y-114176006D01*
X140602996Y-114176005D01*
X140602994Y-114176004D01*
X140551300Y-114149664D01*
X140441639Y-114093788D01*
X140441636Y-114093787D01*
X140269410Y-114037829D01*
X140109321Y-114012473D01*
X140046186Y-113982544D01*
X140009255Y-113923232D01*
X140010253Y-113853370D01*
X140048863Y-113795137D01*
X140109321Y-113767527D01*
X140179425Y-113756422D01*
X140269409Y-113742171D01*
X140441639Y-113686211D01*
X140602994Y-113603996D01*
X140749501Y-113497553D01*
X140877553Y-113369501D01*
X140983996Y-113222994D01*
X141066211Y-113061639D01*
X141122171Y-112889409D01*
X141145474Y-112742280D01*
X141150500Y-112710551D01*
X141150500Y-112529448D01*
X141123758Y-112360613D01*
X141122171Y-112350591D01*
X141079696Y-112219864D01*
X141066212Y-112178363D01*
X141066211Y-112178360D01*
X141037740Y-112122484D01*
X140983996Y-112017006D01*
X140970396Y-111998287D01*
X140877558Y-111870505D01*
X140877554Y-111870500D01*
X140749499Y-111742445D01*
X140749494Y-111742441D01*
X140602997Y-111636006D01*
X140602996Y-111636005D01*
X140602994Y-111636004D01*
X140551300Y-111609664D01*
X140441639Y-111553788D01*
X140441636Y-111553787D01*
X140269410Y-111497829D01*
X140109321Y-111472473D01*
X140046186Y-111442544D01*
X140009255Y-111383232D01*
X140010253Y-111313370D01*
X140048863Y-111255137D01*
X140109321Y-111227527D01*
X140179425Y-111216422D01*
X140269409Y-111202171D01*
X140441639Y-111146211D01*
X140602994Y-111063996D01*
X140749501Y-110957553D01*
X140877553Y-110829501D01*
X140983996Y-110682994D01*
X141066211Y-110521639D01*
X141122171Y-110349409D01*
X141136765Y-110257259D01*
X141150500Y-110170551D01*
X141150500Y-109989448D01*
X141134019Y-109885397D01*
X141122171Y-109810591D01*
X141066211Y-109638361D01*
X141066211Y-109638360D01*
X141037740Y-109582484D01*
X140983996Y-109477006D01*
X140970396Y-109458287D01*
X140877558Y-109330505D01*
X140877554Y-109330500D01*
X140749499Y-109202445D01*
X140749494Y-109202441D01*
X140602997Y-109096006D01*
X140602996Y-109096005D01*
X140602994Y-109096004D01*
X140551300Y-109069664D01*
X140441639Y-109013788D01*
X140441636Y-109013787D01*
X140269410Y-108957828D01*
X140107720Y-108932219D01*
X140044585Y-108902289D01*
X140007654Y-108842978D01*
X140008652Y-108773115D01*
X140047262Y-108714883D01*
X140107721Y-108687273D01*
X140269292Y-108661683D01*
X140441444Y-108605748D01*
X140441447Y-108605747D01*
X140602730Y-108523568D01*
X140659487Y-108482330D01*
X140659488Y-108482329D01*
X140185178Y-108008019D01*
X140192993Y-108005925D01*
X140307007Y-107940099D01*
X140400099Y-107847007D01*
X140465925Y-107732993D01*
X140468019Y-107725177D01*
X140942330Y-108199488D01*
X140942330Y-108199487D01*
X140983568Y-108142730D01*
X141065747Y-107981447D01*
X141065748Y-107981444D01*
X141121682Y-107809293D01*
X141150000Y-107630506D01*
X141150000Y-107449493D01*
X141121682Y-107270706D01*
X141065748Y-107098555D01*
X141065745Y-107098547D01*
X141010105Y-106989350D01*
X140997208Y-106920680D01*
X141023484Y-106855940D01*
X141080590Y-106815682D01*
X141150396Y-106812690D01*
X141208270Y-106845373D01*
X145513181Y-111150284D01*
X145546666Y-111211607D01*
X145549500Y-111237965D01*
X145549500Y-119158481D01*
X145529815Y-119225520D01*
X145513181Y-119246162D01*
X145455888Y-119303454D01*
X145455885Y-119303458D01*
X145379228Y-119418182D01*
X145379221Y-119418195D01*
X145326421Y-119545667D01*
X145326418Y-119545677D01*
X145299500Y-119681004D01*
X145299500Y-119681007D01*
X145299500Y-119818993D01*
X145299500Y-119818995D01*
X145299499Y-119818995D01*
X145326418Y-119954322D01*
X145326421Y-119954332D01*
X145379221Y-120081804D01*
X145379228Y-120081817D01*
X145455885Y-120196541D01*
X145455888Y-120196545D01*
X145553454Y-120294111D01*
X145553458Y-120294114D01*
X145668182Y-120370771D01*
X145668195Y-120370778D01*
X145794245Y-120422989D01*
X145795672Y-120423580D01*
X145795676Y-120423580D01*
X145795677Y-120423581D01*
X145931004Y-120450500D01*
X145931007Y-120450500D01*
X146068995Y-120450500D01*
X146160041Y-120432389D01*
X146204328Y-120423580D01*
X146331811Y-120370775D01*
X146446542Y-120294114D01*
X146544114Y-120196542D01*
X146620775Y-120081811D01*
X146673580Y-119954328D01*
X146688402Y-119879815D01*
X146700500Y-119818995D01*
X146700500Y-119681004D01*
X146673581Y-119545677D01*
X146673580Y-119545676D01*
X146673580Y-119545672D01*
X146673578Y-119545667D01*
X146620778Y-119418195D01*
X146620771Y-119418182D01*
X146544114Y-119303458D01*
X146544111Y-119303454D01*
X146486819Y-119246162D01*
X146453334Y-119184839D01*
X146450500Y-119158481D01*
X146450500Y-110940693D01*
X146450500Y-110940691D01*
X146419799Y-110826114D01*
X146378746Y-110755009D01*
X146378745Y-110755007D01*
X146374887Y-110748325D01*
X146360489Y-110723386D01*
X141299284Y-105662181D01*
X141265799Y-105600858D01*
X141270783Y-105531166D01*
X141312655Y-105475233D01*
X141378119Y-105450816D01*
X141386965Y-105450500D01*
X160725501Y-105450500D01*
X160792540Y-105470185D01*
X160838295Y-105522989D01*
X160849501Y-105574500D01*
X160849501Y-105894856D01*
X160849502Y-105894882D01*
X160852413Y-105919987D01*
X160852415Y-105919991D01*
X160897793Y-106022764D01*
X160897794Y-106022765D01*
X160977235Y-106102206D01*
X161080009Y-106147585D01*
X161105135Y-106150500D01*
X161846073Y-106150499D01*
X161913111Y-106170183D01*
X161958866Y-106222987D01*
X161968810Y-106292146D01*
X161939785Y-106355702D01*
X161881007Y-106393476D01*
X161865470Y-106396972D01*
X161730706Y-106418316D01*
X161558555Y-106474251D01*
X161558552Y-106474252D01*
X161397270Y-106556431D01*
X161397268Y-106556432D01*
X161340511Y-106597667D01*
X161340511Y-106597668D01*
X161814823Y-107071980D01*
X161807007Y-107074075D01*
X161692993Y-107139901D01*
X161599901Y-107232993D01*
X161534075Y-107347007D01*
X161531980Y-107354823D01*
X161057668Y-106880511D01*
X161057667Y-106880511D01*
X161016432Y-106937268D01*
X161016431Y-106937270D01*
X160934252Y-107098552D01*
X160934251Y-107098555D01*
X160878317Y-107270706D01*
X160850000Y-107449493D01*
X160850000Y-107630506D01*
X160878317Y-107809293D01*
X160934251Y-107981444D01*
X160934252Y-107981447D01*
X161016434Y-108142734D01*
X161057667Y-108199487D01*
X161057668Y-108199487D01*
X161531980Y-107725176D01*
X161534075Y-107732993D01*
X161599901Y-107847007D01*
X161692993Y-107940099D01*
X161807007Y-108005925D01*
X161814822Y-108008019D01*
X161340510Y-108482330D01*
X161340511Y-108482331D01*
X161397265Y-108523565D01*
X161558552Y-108605747D01*
X161558555Y-108605748D01*
X161730706Y-108661682D01*
X161909494Y-108690000D01*
X162090506Y-108690000D01*
X162269293Y-108661682D01*
X162441444Y-108605748D01*
X162441447Y-108605747D01*
X162602730Y-108523568D01*
X162659487Y-108482330D01*
X162659488Y-108482329D01*
X162185178Y-108008019D01*
X162192993Y-108005925D01*
X162307007Y-107940099D01*
X162400099Y-107847007D01*
X162465925Y-107732993D01*
X162468019Y-107725177D01*
X162942329Y-108199488D01*
X162942330Y-108199487D01*
X162983568Y-108142730D01*
X163065747Y-107981447D01*
X163065748Y-107981444D01*
X163121682Y-107809293D01*
X163150000Y-107630506D01*
X163150000Y-107449493D01*
X163121682Y-107270706D01*
X163065748Y-107098555D01*
X163065747Y-107098552D01*
X162983565Y-106937265D01*
X162942331Y-106880511D01*
X162942330Y-106880510D01*
X162468018Y-107354821D01*
X162465925Y-107347007D01*
X162400099Y-107232993D01*
X162307007Y-107139901D01*
X162192993Y-107074075D01*
X162185176Y-107071980D01*
X162659487Y-106597668D01*
X162659487Y-106597667D01*
X162602734Y-106556434D01*
X162441447Y-106474252D01*
X162441444Y-106474251D01*
X162269293Y-106418317D01*
X162134528Y-106396972D01*
X162071393Y-106367043D01*
X162034462Y-106307731D01*
X162035460Y-106237869D01*
X162074070Y-106179636D01*
X162138034Y-106151522D01*
X162153919Y-106150499D01*
X162894864Y-106150499D01*
X162894879Y-106150497D01*
X162894882Y-106150497D01*
X162919987Y-106147586D01*
X162919988Y-106147585D01*
X162919991Y-106147585D01*
X163022765Y-106102206D01*
X163102206Y-106022765D01*
X163147585Y-105919991D01*
X163150500Y-105894865D01*
X163150499Y-104105136D01*
X163150497Y-104105117D01*
X163147586Y-104080012D01*
X163147585Y-104080010D01*
X163147585Y-104080009D01*
X163102206Y-103977235D01*
X163022765Y-103897794D01*
X163022763Y-103897793D01*
X162919992Y-103852415D01*
X162894865Y-103849500D01*
X161105143Y-103849500D01*
X161105117Y-103849502D01*
X161080012Y-103852413D01*
X161080008Y-103852415D01*
X160977235Y-103897793D01*
X160897794Y-103977234D01*
X160852415Y-104080006D01*
X160852415Y-104080008D01*
X160849500Y-104105131D01*
X160849500Y-104425500D01*
X160829815Y-104492539D01*
X160777011Y-104538294D01*
X160725500Y-104549500D01*
X141274499Y-104549500D01*
X141207460Y-104529815D01*
X141161705Y-104477011D01*
X141150499Y-104425500D01*
X141150499Y-104105143D01*
X141150499Y-104105136D01*
X141150497Y-104105117D01*
X141147586Y-104080012D01*
X141147585Y-104080010D01*
X141147585Y-104080009D01*
X141102206Y-103977235D01*
X141022765Y-103897794D01*
X141022763Y-103897793D01*
X140919992Y-103852415D01*
X140894865Y-103849500D01*
X139105143Y-103849500D01*
X139105117Y-103849502D01*
X139080012Y-103852413D01*
X139080008Y-103852415D01*
X138977235Y-103897793D01*
X138897794Y-103977234D01*
X138852415Y-104080006D01*
X138852415Y-104080008D01*
X138849500Y-104105131D01*
X130150499Y-104105131D01*
X130150499Y-104105130D01*
X130147586Y-104080012D01*
X130147585Y-104080010D01*
X130147585Y-104080009D01*
X130102206Y-103977235D01*
X130022765Y-103897794D01*
X130022763Y-103897793D01*
X129919992Y-103852415D01*
X129894865Y-103849500D01*
X128105143Y-103849500D01*
X128105117Y-103849502D01*
X128080012Y-103852413D01*
X128080008Y-103852415D01*
X127977235Y-103897793D01*
X127897794Y-103977234D01*
X127852415Y-104080006D01*
X127852415Y-104080008D01*
X127849500Y-104105131D01*
X127849500Y-104425500D01*
X127829815Y-104492539D01*
X127777011Y-104538294D01*
X127725500Y-104549500D01*
X108274499Y-104549500D01*
X108207460Y-104529815D01*
X108161705Y-104477011D01*
X108150499Y-104425500D01*
X108150499Y-104105143D01*
X108150499Y-104105136D01*
X108150497Y-104105117D01*
X108147586Y-104080012D01*
X108147585Y-104080010D01*
X108147585Y-104080009D01*
X108102206Y-103977235D01*
X108022765Y-103897794D01*
X108022763Y-103897793D01*
X107919992Y-103852415D01*
X107894865Y-103849500D01*
X106105143Y-103849500D01*
X106105117Y-103849502D01*
X106080012Y-103852413D01*
X106080008Y-103852415D01*
X105977235Y-103897793D01*
X105897794Y-103977234D01*
X105852415Y-104080006D01*
X105852415Y-104080008D01*
X105849500Y-104105131D01*
X100600000Y-104105131D01*
X100600000Y-100724000D01*
X100619685Y-100656961D01*
X100672489Y-100611206D01*
X100724000Y-100600000D01*
X169276000Y-100600000D01*
X169343039Y-100619685D01*
G37*
%TD.AperFunction*%
%TA.AperFunction,Conductor*%
G36*
X136074075Y-137192993D02*
G01*
X136139901Y-137307007D01*
X136232993Y-137400099D01*
X136347007Y-137465925D01*
X136354822Y-137468019D01*
X135880510Y-137942330D01*
X135880511Y-137942331D01*
X135937265Y-137983565D01*
X136097116Y-138065015D01*
X136147912Y-138112990D01*
X136164707Y-138180811D01*
X136142169Y-138246946D01*
X136087454Y-138290397D01*
X136040821Y-138299500D01*
X135124833Y-138299500D01*
X135057794Y-138279815D01*
X135012039Y-138227011D01*
X135002095Y-138157853D01*
X135031120Y-138094297D01*
X135037152Y-138087819D01*
X135059956Y-138065015D01*
X135102206Y-138022765D01*
X135147585Y-137919991D01*
X135150500Y-137894865D01*
X135150499Y-137550098D01*
X135170183Y-137483060D01*
X135186812Y-137462423D01*
X135265826Y-137383409D01*
X135327145Y-137349927D01*
X135396837Y-137354911D01*
X135452771Y-137396782D01*
X135471435Y-137432775D01*
X135474251Y-137441444D01*
X135474252Y-137441447D01*
X135556434Y-137602734D01*
X135597667Y-137659487D01*
X135597668Y-137659487D01*
X136071980Y-137185176D01*
X136074075Y-137192993D01*
G37*
%TD.AperFunction*%
%TD*%
M02*
