%TF.GenerationSoftware,KiCad,Pcbnew,10.0.6*%
%TF.CreationDate,2026-10-02T21:55:37+07:00*%
%TF.ProjectId,led_ir_driver,6c65645f-6972-45f6-9472-697665722e6b,rev?*%
%TF.SameCoordinates,Original*%
%TF.FileFunction,Legend,Bot*%
%TF.FilePolarity,Positive*%
%FSLAX46Y46*%
G04 Gerber Fmt 4.6, Leading zero omitted, Abs format (unit mm)*
G04 Created by KiCad (PCBNEW 10.0.6) date 2026-10-02 21:55:37*
%MOMM*%
%LPD*%
G01*
G04 APERTURE LIST*
G04 Aperture macros list*
%AMRoundRect*
0 Rectangle with rounded corners*
0 $1 Rounding radius*
0 $2 $3 $4 $5 $6 $7 $8 $9 X,Y pos of 4 corners*
0 Add a 4 corners polygon primitive as box body*
4,1,4,$2,$3,$4,$5,$6,$7,$8,$9,$2,$3,0*
0 Add four circle primitives for the rounded corners*
1,1,$1+$1,$2,$3*
1,1,$1+$1,$4,$5*
1,1,$1+$1,$6,$7*
1,1,$1+$1,$8,$9*
0 Add four rect primitives between the rounded corners*
20,1,$1+$1,$2,$3,$4,$5,0*
20,1,$1+$1,$4,$5,$6,$7,0*
20,1,$1+$1,$6,$7,$8,$9,0*
20,1,$1+$1,$8,$9,$2,$3,0*%
G04 Aperture macros list end*
%ADD10C,0.100000*%
%ADD11C,0.120000*%
%ADD12R,1.500000X1.500000*%
%ADD13C,1.500000*%
%ADD14R,1.700000X1.700000*%
%ADD15C,1.700000*%
%ADD16C,3.200000*%
%ADD17O,1.700000X1.700000*%
%ADD18R,1.350000X1.350000*%
%ADD19O,1.350000X1.350000*%
%ADD20RoundRect,0.250000X-0.550000X-0.550000X0.550000X-0.550000X0.550000X0.550000X-0.550000X0.550000X0*%
%ADD21C,1.600000*%
%ADD22RoundRect,0.250000X0.550000X-1.250000X0.550000X1.250000X-0.550000X1.250000X-0.550000X-1.250000X0*%
G04 APERTURE END LIST*
D10*
X111099999Y-105364895D02*
X111099999Y-104564895D01*
X110261904Y-105364895D02*
X110528571Y-104983942D01*
X110719047Y-105364895D02*
X110719047Y-104564895D01*
X110719047Y-104564895D02*
X110414285Y-104564895D01*
X110414285Y-104564895D02*
X110338095Y-104602990D01*
X110338095Y-104602990D02*
X110300000Y-104641085D01*
X110300000Y-104641085D02*
X110261904Y-104717276D01*
X110261904Y-104717276D02*
X110261904Y-104831561D01*
X110261904Y-104831561D02*
X110300000Y-104907752D01*
X110300000Y-104907752D02*
X110338095Y-104945847D01*
X110338095Y-104945847D02*
X110414285Y-104983942D01*
X110414285Y-104983942D02*
X110719047Y-104983942D01*
X111309523Y-107142990D02*
X111385713Y-107104895D01*
X111385713Y-107104895D02*
X111499999Y-107104895D01*
X111499999Y-107104895D02*
X111614285Y-107142990D01*
X111614285Y-107142990D02*
X111690475Y-107219180D01*
X111690475Y-107219180D02*
X111728570Y-107295371D01*
X111728570Y-107295371D02*
X111766666Y-107447752D01*
X111766666Y-107447752D02*
X111766666Y-107562038D01*
X111766666Y-107562038D02*
X111728570Y-107714419D01*
X111728570Y-107714419D02*
X111690475Y-107790609D01*
X111690475Y-107790609D02*
X111614285Y-107866800D01*
X111614285Y-107866800D02*
X111499999Y-107904895D01*
X111499999Y-107904895D02*
X111423808Y-107904895D01*
X111423808Y-107904895D02*
X111309523Y-107866800D01*
X111309523Y-107866800D02*
X111271427Y-107828704D01*
X111271427Y-107828704D02*
X111271427Y-107562038D01*
X111271427Y-107562038D02*
X111423808Y-107562038D01*
X110928570Y-107904895D02*
X110928570Y-107104895D01*
X110928570Y-107104895D02*
X110471427Y-107904895D01*
X110471427Y-107904895D02*
X110471427Y-107104895D01*
X110090475Y-107904895D02*
X110090475Y-107104895D01*
X110090475Y-107104895D02*
X109899999Y-107104895D01*
X109899999Y-107104895D02*
X109785713Y-107142990D01*
X109785713Y-107142990D02*
X109709523Y-107219180D01*
X109709523Y-107219180D02*
X109671428Y-107295371D01*
X109671428Y-107295371D02*
X109633332Y-107447752D01*
X109633332Y-107447752D02*
X109633332Y-107562038D01*
X109633332Y-107562038D02*
X109671428Y-107714419D01*
X109671428Y-107714419D02*
X109709523Y-107790609D01*
X109709523Y-107790609D02*
X109785713Y-107866800D01*
X109785713Y-107866800D02*
X109899999Y-107904895D01*
X109899999Y-107904895D02*
X110090475Y-107904895D01*
X111652381Y-110406800D02*
X111538095Y-110444895D01*
X111538095Y-110444895D02*
X111347619Y-110444895D01*
X111347619Y-110444895D02*
X111271428Y-110406800D01*
X111271428Y-110406800D02*
X111233333Y-110368704D01*
X111233333Y-110368704D02*
X111195238Y-110292514D01*
X111195238Y-110292514D02*
X111195238Y-110216323D01*
X111195238Y-110216323D02*
X111233333Y-110140133D01*
X111233333Y-110140133D02*
X111271428Y-110102038D01*
X111271428Y-110102038D02*
X111347619Y-110063942D01*
X111347619Y-110063942D02*
X111500000Y-110025847D01*
X111500000Y-110025847D02*
X111576190Y-109987752D01*
X111576190Y-109987752D02*
X111614285Y-109949657D01*
X111614285Y-109949657D02*
X111652381Y-109873466D01*
X111652381Y-109873466D02*
X111652381Y-109797276D01*
X111652381Y-109797276D02*
X111614285Y-109721085D01*
X111614285Y-109721085D02*
X111576190Y-109682990D01*
X111576190Y-109682990D02*
X111500000Y-109644895D01*
X111500000Y-109644895D02*
X111309523Y-109644895D01*
X111309523Y-109644895D02*
X111195238Y-109682990D01*
X110395237Y-110368704D02*
X110433333Y-110406800D01*
X110433333Y-110406800D02*
X110547618Y-110444895D01*
X110547618Y-110444895D02*
X110623809Y-110444895D01*
X110623809Y-110444895D02*
X110738095Y-110406800D01*
X110738095Y-110406800D02*
X110814285Y-110330609D01*
X110814285Y-110330609D02*
X110852380Y-110254419D01*
X110852380Y-110254419D02*
X110890476Y-110102038D01*
X110890476Y-110102038D02*
X110890476Y-109987752D01*
X110890476Y-109987752D02*
X110852380Y-109835371D01*
X110852380Y-109835371D02*
X110814285Y-109759180D01*
X110814285Y-109759180D02*
X110738095Y-109682990D01*
X110738095Y-109682990D02*
X110623809Y-109644895D01*
X110623809Y-109644895D02*
X110547618Y-109644895D01*
X110547618Y-109644895D02*
X110433333Y-109682990D01*
X110433333Y-109682990D02*
X110395237Y-109721085D01*
X109671428Y-110444895D02*
X110052380Y-110444895D01*
X110052380Y-110444895D02*
X110052380Y-109644895D01*
X111671428Y-112946800D02*
X111557142Y-112984895D01*
X111557142Y-112984895D02*
X111366666Y-112984895D01*
X111366666Y-112984895D02*
X111290475Y-112946800D01*
X111290475Y-112946800D02*
X111252380Y-112908704D01*
X111252380Y-112908704D02*
X111214285Y-112832514D01*
X111214285Y-112832514D02*
X111214285Y-112756323D01*
X111214285Y-112756323D02*
X111252380Y-112680133D01*
X111252380Y-112680133D02*
X111290475Y-112642038D01*
X111290475Y-112642038D02*
X111366666Y-112603942D01*
X111366666Y-112603942D02*
X111519047Y-112565847D01*
X111519047Y-112565847D02*
X111595237Y-112527752D01*
X111595237Y-112527752D02*
X111633332Y-112489657D01*
X111633332Y-112489657D02*
X111671428Y-112413466D01*
X111671428Y-112413466D02*
X111671428Y-112337276D01*
X111671428Y-112337276D02*
X111633332Y-112261085D01*
X111633332Y-112261085D02*
X111595237Y-112222990D01*
X111595237Y-112222990D02*
X111519047Y-112184895D01*
X111519047Y-112184895D02*
X111328570Y-112184895D01*
X111328570Y-112184895D02*
X111214285Y-112222990D01*
X110871427Y-112984895D02*
X110871427Y-112184895D01*
X110871427Y-112184895D02*
X110680951Y-112184895D01*
X110680951Y-112184895D02*
X110566665Y-112222990D01*
X110566665Y-112222990D02*
X110490475Y-112299180D01*
X110490475Y-112299180D02*
X110452380Y-112375371D01*
X110452380Y-112375371D02*
X110414284Y-112527752D01*
X110414284Y-112527752D02*
X110414284Y-112642038D01*
X110414284Y-112642038D02*
X110452380Y-112794419D01*
X110452380Y-112794419D02*
X110490475Y-112870609D01*
X110490475Y-112870609D02*
X110566665Y-112946800D01*
X110566665Y-112946800D02*
X110680951Y-112984895D01*
X110680951Y-112984895D02*
X110871427Y-112984895D01*
X110109523Y-112756323D02*
X109728570Y-112756323D01*
X110185713Y-112984895D02*
X109919046Y-112184895D01*
X109919046Y-112184895D02*
X109652380Y-112984895D01*
X111690476Y-114724895D02*
X111195238Y-114724895D01*
X111195238Y-114724895D02*
X111461904Y-115029657D01*
X111461904Y-115029657D02*
X111347619Y-115029657D01*
X111347619Y-115029657D02*
X111271428Y-115067752D01*
X111271428Y-115067752D02*
X111233333Y-115105847D01*
X111233333Y-115105847D02*
X111195238Y-115182038D01*
X111195238Y-115182038D02*
X111195238Y-115372514D01*
X111195238Y-115372514D02*
X111233333Y-115448704D01*
X111233333Y-115448704D02*
X111271428Y-115486800D01*
X111271428Y-115486800D02*
X111347619Y-115524895D01*
X111347619Y-115524895D02*
X111576190Y-115524895D01*
X111576190Y-115524895D02*
X111652381Y-115486800D01*
X111652381Y-115486800D02*
X111690476Y-115448704D01*
X110966666Y-114724895D02*
X110699999Y-115524895D01*
X110699999Y-115524895D02*
X110433333Y-114724895D01*
X110242857Y-114724895D02*
X109747619Y-114724895D01*
X109747619Y-114724895D02*
X110014285Y-115029657D01*
X110014285Y-115029657D02*
X109900000Y-115029657D01*
X109900000Y-115029657D02*
X109823809Y-115067752D01*
X109823809Y-115067752D02*
X109785714Y-115105847D01*
X109785714Y-115105847D02*
X109747619Y-115182038D01*
X109747619Y-115182038D02*
X109747619Y-115372514D01*
X109747619Y-115372514D02*
X109785714Y-115448704D01*
X109785714Y-115448704D02*
X109823809Y-115486800D01*
X109823809Y-115486800D02*
X109900000Y-115524895D01*
X109900000Y-115524895D02*
X110128571Y-115524895D01*
X110128571Y-115524895D02*
X110204762Y-115486800D01*
X110204762Y-115486800D02*
X110242857Y-115448704D01*
X111309523Y-117302990D02*
X111385713Y-117264895D01*
X111385713Y-117264895D02*
X111499999Y-117264895D01*
X111499999Y-117264895D02*
X111614285Y-117302990D01*
X111614285Y-117302990D02*
X111690475Y-117379180D01*
X111690475Y-117379180D02*
X111728570Y-117455371D01*
X111728570Y-117455371D02*
X111766666Y-117607752D01*
X111766666Y-117607752D02*
X111766666Y-117722038D01*
X111766666Y-117722038D02*
X111728570Y-117874419D01*
X111728570Y-117874419D02*
X111690475Y-117950609D01*
X111690475Y-117950609D02*
X111614285Y-118026800D01*
X111614285Y-118026800D02*
X111499999Y-118064895D01*
X111499999Y-118064895D02*
X111423808Y-118064895D01*
X111423808Y-118064895D02*
X111309523Y-118026800D01*
X111309523Y-118026800D02*
X111271427Y-117988704D01*
X111271427Y-117988704D02*
X111271427Y-117722038D01*
X111271427Y-117722038D02*
X111423808Y-117722038D01*
X110928570Y-118064895D02*
X110928570Y-117264895D01*
X110928570Y-117264895D02*
X110471427Y-118064895D01*
X110471427Y-118064895D02*
X110471427Y-117264895D01*
X110090475Y-118064895D02*
X110090475Y-117264895D01*
X110090475Y-117264895D02*
X109899999Y-117264895D01*
X109899999Y-117264895D02*
X109785713Y-117302990D01*
X109785713Y-117302990D02*
X109709523Y-117379180D01*
X109709523Y-117379180D02*
X109671428Y-117455371D01*
X109671428Y-117455371D02*
X109633332Y-117607752D01*
X109633332Y-117607752D02*
X109633332Y-117722038D01*
X109633332Y-117722038D02*
X109671428Y-117874419D01*
X109671428Y-117874419D02*
X109709523Y-117950609D01*
X109709523Y-117950609D02*
X109785713Y-118026800D01*
X109785713Y-118026800D02*
X109899999Y-118064895D01*
X109899999Y-118064895D02*
X110090475Y-118064895D01*
X118171428Y-133495847D02*
X117904762Y-133495847D01*
X117790476Y-133914895D02*
X118171428Y-133914895D01*
X118171428Y-133914895D02*
X118171428Y-133114895D01*
X118171428Y-133114895D02*
X117790476Y-133114895D01*
X120482857Y-133495847D02*
X120368571Y-133533942D01*
X120368571Y-133533942D02*
X120330476Y-133572038D01*
X120330476Y-133572038D02*
X120292380Y-133648228D01*
X120292380Y-133648228D02*
X120292380Y-133762514D01*
X120292380Y-133762514D02*
X120330476Y-133838704D01*
X120330476Y-133838704D02*
X120368571Y-133876800D01*
X120368571Y-133876800D02*
X120444761Y-133914895D01*
X120444761Y-133914895D02*
X120749523Y-133914895D01*
X120749523Y-133914895D02*
X120749523Y-133114895D01*
X120749523Y-133114895D02*
X120482857Y-133114895D01*
X120482857Y-133114895D02*
X120406666Y-133152990D01*
X120406666Y-133152990D02*
X120368571Y-133191085D01*
X120368571Y-133191085D02*
X120330476Y-133267276D01*
X120330476Y-133267276D02*
X120330476Y-133343466D01*
X120330476Y-133343466D02*
X120368571Y-133419657D01*
X120368571Y-133419657D02*
X120406666Y-133457752D01*
X120406666Y-133457752D02*
X120482857Y-133495847D01*
X120482857Y-133495847D02*
X120749523Y-133495847D01*
X123152380Y-138414895D02*
X123533332Y-138414895D01*
X123533332Y-138414895D02*
X123571428Y-138795847D01*
X123571428Y-138795847D02*
X123533332Y-138757752D01*
X123533332Y-138757752D02*
X123457142Y-138719657D01*
X123457142Y-138719657D02*
X123266666Y-138719657D01*
X123266666Y-138719657D02*
X123190475Y-138757752D01*
X123190475Y-138757752D02*
X123152380Y-138795847D01*
X123152380Y-138795847D02*
X123114285Y-138872038D01*
X123114285Y-138872038D02*
X123114285Y-139062514D01*
X123114285Y-139062514D02*
X123152380Y-139138704D01*
X123152380Y-139138704D02*
X123190475Y-139176800D01*
X123190475Y-139176800D02*
X123266666Y-139214895D01*
X123266666Y-139214895D02*
X123457142Y-139214895D01*
X123457142Y-139214895D02*
X123533332Y-139176800D01*
X123533332Y-139176800D02*
X123571428Y-139138704D01*
X122885713Y-138414895D02*
X122619046Y-139214895D01*
X122619046Y-139214895D02*
X122352380Y-138414895D01*
X122832380Y-133838704D02*
X122870476Y-133876800D01*
X122870476Y-133876800D02*
X122984761Y-133914895D01*
X122984761Y-133914895D02*
X123060952Y-133914895D01*
X123060952Y-133914895D02*
X123175238Y-133876800D01*
X123175238Y-133876800D02*
X123251428Y-133800609D01*
X123251428Y-133800609D02*
X123289523Y-133724419D01*
X123289523Y-133724419D02*
X123327619Y-133572038D01*
X123327619Y-133572038D02*
X123327619Y-133457752D01*
X123327619Y-133457752D02*
X123289523Y-133305371D01*
X123289523Y-133305371D02*
X123251428Y-133229180D01*
X123251428Y-133229180D02*
X123175238Y-133152990D01*
X123175238Y-133152990D02*
X123060952Y-133114895D01*
X123060952Y-133114895D02*
X122984761Y-133114895D01*
X122984761Y-133114895D02*
X122870476Y-133152990D01*
X122870476Y-133152990D02*
X122832380Y-133191085D01*
X125399999Y-105364895D02*
X125399999Y-104564895D01*
X124561904Y-105364895D02*
X124828571Y-104983942D01*
X125019047Y-105364895D02*
X125019047Y-104564895D01*
X125019047Y-104564895D02*
X124714285Y-104564895D01*
X124714285Y-104564895D02*
X124638095Y-104602990D01*
X124638095Y-104602990D02*
X124600000Y-104641085D01*
X124600000Y-104641085D02*
X124561904Y-104717276D01*
X124561904Y-104717276D02*
X124561904Y-104831561D01*
X124561904Y-104831561D02*
X124600000Y-104907752D01*
X124600000Y-104907752D02*
X124638095Y-104945847D01*
X124638095Y-104945847D02*
X124714285Y-104983942D01*
X124714285Y-104983942D02*
X125019047Y-104983942D01*
X125609523Y-107142990D02*
X125685713Y-107104895D01*
X125685713Y-107104895D02*
X125799999Y-107104895D01*
X125799999Y-107104895D02*
X125914285Y-107142990D01*
X125914285Y-107142990D02*
X125990475Y-107219180D01*
X125990475Y-107219180D02*
X126028570Y-107295371D01*
X126028570Y-107295371D02*
X126066666Y-107447752D01*
X126066666Y-107447752D02*
X126066666Y-107562038D01*
X126066666Y-107562038D02*
X126028570Y-107714419D01*
X126028570Y-107714419D02*
X125990475Y-107790609D01*
X125990475Y-107790609D02*
X125914285Y-107866800D01*
X125914285Y-107866800D02*
X125799999Y-107904895D01*
X125799999Y-107904895D02*
X125723808Y-107904895D01*
X125723808Y-107904895D02*
X125609523Y-107866800D01*
X125609523Y-107866800D02*
X125571427Y-107828704D01*
X125571427Y-107828704D02*
X125571427Y-107562038D01*
X125571427Y-107562038D02*
X125723808Y-107562038D01*
X125228570Y-107904895D02*
X125228570Y-107104895D01*
X125228570Y-107104895D02*
X124771427Y-107904895D01*
X124771427Y-107904895D02*
X124771427Y-107104895D01*
X124390475Y-107904895D02*
X124390475Y-107104895D01*
X124390475Y-107104895D02*
X124199999Y-107104895D01*
X124199999Y-107104895D02*
X124085713Y-107142990D01*
X124085713Y-107142990D02*
X124009523Y-107219180D01*
X124009523Y-107219180D02*
X123971428Y-107295371D01*
X123971428Y-107295371D02*
X123933332Y-107447752D01*
X123933332Y-107447752D02*
X123933332Y-107562038D01*
X123933332Y-107562038D02*
X123971428Y-107714419D01*
X123971428Y-107714419D02*
X124009523Y-107790609D01*
X124009523Y-107790609D02*
X124085713Y-107866800D01*
X124085713Y-107866800D02*
X124199999Y-107904895D01*
X124199999Y-107904895D02*
X124390475Y-107904895D01*
X125952381Y-111826800D02*
X125838095Y-111864895D01*
X125838095Y-111864895D02*
X125647619Y-111864895D01*
X125647619Y-111864895D02*
X125571428Y-111826800D01*
X125571428Y-111826800D02*
X125533333Y-111788704D01*
X125533333Y-111788704D02*
X125495238Y-111712514D01*
X125495238Y-111712514D02*
X125495238Y-111636323D01*
X125495238Y-111636323D02*
X125533333Y-111560133D01*
X125533333Y-111560133D02*
X125571428Y-111522038D01*
X125571428Y-111522038D02*
X125647619Y-111483942D01*
X125647619Y-111483942D02*
X125800000Y-111445847D01*
X125800000Y-111445847D02*
X125876190Y-111407752D01*
X125876190Y-111407752D02*
X125914285Y-111369657D01*
X125914285Y-111369657D02*
X125952381Y-111293466D01*
X125952381Y-111293466D02*
X125952381Y-111217276D01*
X125952381Y-111217276D02*
X125914285Y-111141085D01*
X125914285Y-111141085D02*
X125876190Y-111102990D01*
X125876190Y-111102990D02*
X125800000Y-111064895D01*
X125800000Y-111064895D02*
X125609523Y-111064895D01*
X125609523Y-111064895D02*
X125495238Y-111102990D01*
X124695237Y-111788704D02*
X124733333Y-111826800D01*
X124733333Y-111826800D02*
X124847618Y-111864895D01*
X124847618Y-111864895D02*
X124923809Y-111864895D01*
X124923809Y-111864895D02*
X125038095Y-111826800D01*
X125038095Y-111826800D02*
X125114285Y-111750609D01*
X125114285Y-111750609D02*
X125152380Y-111674419D01*
X125152380Y-111674419D02*
X125190476Y-111522038D01*
X125190476Y-111522038D02*
X125190476Y-111407752D01*
X125190476Y-111407752D02*
X125152380Y-111255371D01*
X125152380Y-111255371D02*
X125114285Y-111179180D01*
X125114285Y-111179180D02*
X125038095Y-111102990D01*
X125038095Y-111102990D02*
X124923809Y-111064895D01*
X124923809Y-111064895D02*
X124847618Y-111064895D01*
X124847618Y-111064895D02*
X124733333Y-111102990D01*
X124733333Y-111102990D02*
X124695237Y-111141085D01*
X123971428Y-111864895D02*
X124352380Y-111864895D01*
X124352380Y-111864895D02*
X124352380Y-111064895D01*
X125971428Y-113826800D02*
X125857142Y-113864895D01*
X125857142Y-113864895D02*
X125666666Y-113864895D01*
X125666666Y-113864895D02*
X125590475Y-113826800D01*
X125590475Y-113826800D02*
X125552380Y-113788704D01*
X125552380Y-113788704D02*
X125514285Y-113712514D01*
X125514285Y-113712514D02*
X125514285Y-113636323D01*
X125514285Y-113636323D02*
X125552380Y-113560133D01*
X125552380Y-113560133D02*
X125590475Y-113522038D01*
X125590475Y-113522038D02*
X125666666Y-113483942D01*
X125666666Y-113483942D02*
X125819047Y-113445847D01*
X125819047Y-113445847D02*
X125895237Y-113407752D01*
X125895237Y-113407752D02*
X125933332Y-113369657D01*
X125933332Y-113369657D02*
X125971428Y-113293466D01*
X125971428Y-113293466D02*
X125971428Y-113217276D01*
X125971428Y-113217276D02*
X125933332Y-113141085D01*
X125933332Y-113141085D02*
X125895237Y-113102990D01*
X125895237Y-113102990D02*
X125819047Y-113064895D01*
X125819047Y-113064895D02*
X125628570Y-113064895D01*
X125628570Y-113064895D02*
X125514285Y-113102990D01*
X125171427Y-113864895D02*
X125171427Y-113064895D01*
X125171427Y-113064895D02*
X124980951Y-113064895D01*
X124980951Y-113064895D02*
X124866665Y-113102990D01*
X124866665Y-113102990D02*
X124790475Y-113179180D01*
X124790475Y-113179180D02*
X124752380Y-113255371D01*
X124752380Y-113255371D02*
X124714284Y-113407752D01*
X124714284Y-113407752D02*
X124714284Y-113522038D01*
X124714284Y-113522038D02*
X124752380Y-113674419D01*
X124752380Y-113674419D02*
X124790475Y-113750609D01*
X124790475Y-113750609D02*
X124866665Y-113826800D01*
X124866665Y-113826800D02*
X124980951Y-113864895D01*
X124980951Y-113864895D02*
X125171427Y-113864895D01*
X124409523Y-113636323D02*
X124028570Y-113636323D01*
X124485713Y-113864895D02*
X124219046Y-113064895D01*
X124219046Y-113064895D02*
X123952380Y-113864895D01*
X125990476Y-115064895D02*
X125495238Y-115064895D01*
X125495238Y-115064895D02*
X125761904Y-115369657D01*
X125761904Y-115369657D02*
X125647619Y-115369657D01*
X125647619Y-115369657D02*
X125571428Y-115407752D01*
X125571428Y-115407752D02*
X125533333Y-115445847D01*
X125533333Y-115445847D02*
X125495238Y-115522038D01*
X125495238Y-115522038D02*
X125495238Y-115712514D01*
X125495238Y-115712514D02*
X125533333Y-115788704D01*
X125533333Y-115788704D02*
X125571428Y-115826800D01*
X125571428Y-115826800D02*
X125647619Y-115864895D01*
X125647619Y-115864895D02*
X125876190Y-115864895D01*
X125876190Y-115864895D02*
X125952381Y-115826800D01*
X125952381Y-115826800D02*
X125990476Y-115788704D01*
X125266666Y-115064895D02*
X124999999Y-115864895D01*
X124999999Y-115864895D02*
X124733333Y-115064895D01*
X124542857Y-115064895D02*
X124047619Y-115064895D01*
X124047619Y-115064895D02*
X124314285Y-115369657D01*
X124314285Y-115369657D02*
X124200000Y-115369657D01*
X124200000Y-115369657D02*
X124123809Y-115407752D01*
X124123809Y-115407752D02*
X124085714Y-115445847D01*
X124085714Y-115445847D02*
X124047619Y-115522038D01*
X124047619Y-115522038D02*
X124047619Y-115712514D01*
X124047619Y-115712514D02*
X124085714Y-115788704D01*
X124085714Y-115788704D02*
X124123809Y-115826800D01*
X124123809Y-115826800D02*
X124200000Y-115864895D01*
X124200000Y-115864895D02*
X124428571Y-115864895D01*
X124428571Y-115864895D02*
X124504762Y-115826800D01*
X124504762Y-115826800D02*
X124542857Y-115788704D01*
X125609523Y-117102990D02*
X125685713Y-117064895D01*
X125685713Y-117064895D02*
X125799999Y-117064895D01*
X125799999Y-117064895D02*
X125914285Y-117102990D01*
X125914285Y-117102990D02*
X125990475Y-117179180D01*
X125990475Y-117179180D02*
X126028570Y-117255371D01*
X126028570Y-117255371D02*
X126066666Y-117407752D01*
X126066666Y-117407752D02*
X126066666Y-117522038D01*
X126066666Y-117522038D02*
X126028570Y-117674419D01*
X126028570Y-117674419D02*
X125990475Y-117750609D01*
X125990475Y-117750609D02*
X125914285Y-117826800D01*
X125914285Y-117826800D02*
X125799999Y-117864895D01*
X125799999Y-117864895D02*
X125723808Y-117864895D01*
X125723808Y-117864895D02*
X125609523Y-117826800D01*
X125609523Y-117826800D02*
X125571427Y-117788704D01*
X125571427Y-117788704D02*
X125571427Y-117522038D01*
X125571427Y-117522038D02*
X125723808Y-117522038D01*
X125228570Y-117864895D02*
X125228570Y-117064895D01*
X125228570Y-117064895D02*
X124771427Y-117864895D01*
X124771427Y-117864895D02*
X124771427Y-117064895D01*
X124390475Y-117864895D02*
X124390475Y-117064895D01*
X124390475Y-117064895D02*
X124199999Y-117064895D01*
X124199999Y-117064895D02*
X124085713Y-117102990D01*
X124085713Y-117102990D02*
X124009523Y-117179180D01*
X124009523Y-117179180D02*
X123971428Y-117255371D01*
X123971428Y-117255371D02*
X123933332Y-117407752D01*
X123933332Y-117407752D02*
X123933332Y-117522038D01*
X123933332Y-117522038D02*
X123971428Y-117674419D01*
X123971428Y-117674419D02*
X124009523Y-117750609D01*
X124009523Y-117750609D02*
X124085713Y-117826800D01*
X124085713Y-117826800D02*
X124199999Y-117864895D01*
X124199999Y-117864895D02*
X124390475Y-117864895D01*
X126435237Y-139214895D02*
X126435237Y-138414895D01*
X125597142Y-139214895D02*
X125863809Y-138833942D01*
X126054285Y-139214895D02*
X126054285Y-138414895D01*
X126054285Y-138414895D02*
X125749523Y-138414895D01*
X125749523Y-138414895D02*
X125673333Y-138452990D01*
X125673333Y-138452990D02*
X125635238Y-138491085D01*
X125635238Y-138491085D02*
X125597142Y-138567276D01*
X125597142Y-138567276D02*
X125597142Y-138681561D01*
X125597142Y-138681561D02*
X125635238Y-138757752D01*
X125635238Y-138757752D02*
X125673333Y-138795847D01*
X125673333Y-138795847D02*
X125749523Y-138833942D01*
X125749523Y-138833942D02*
X126054285Y-138833942D01*
X125254285Y-138910133D02*
X124644762Y-138910133D01*
X129242857Y-122326323D02*
X128861904Y-122326323D01*
X129319047Y-122554895D02*
X129052380Y-121754895D01*
X129052380Y-121754895D02*
X128785714Y-122554895D01*
X128519047Y-122554895D02*
X128519047Y-121754895D01*
X128519047Y-121754895D02*
X128252381Y-122326323D01*
X128252381Y-122326323D02*
X127985714Y-121754895D01*
X127985714Y-121754895D02*
X127985714Y-122554895D01*
X127604761Y-122554895D02*
X127604761Y-121754895D01*
X127604761Y-121754895D02*
X127299999Y-121754895D01*
X127299999Y-121754895D02*
X127223809Y-121792990D01*
X127223809Y-121792990D02*
X127185714Y-121831085D01*
X127185714Y-121831085D02*
X127147618Y-121907276D01*
X127147618Y-121907276D02*
X127147618Y-122021561D01*
X127147618Y-122021561D02*
X127185714Y-122097752D01*
X127185714Y-122097752D02*
X127223809Y-122135847D01*
X127223809Y-122135847D02*
X127299999Y-122173942D01*
X127299999Y-122173942D02*
X127604761Y-122173942D01*
X126995238Y-122631085D02*
X126385714Y-122631085D01*
X126195237Y-122554895D02*
X126195237Y-121754895D01*
X129223809Y-125056800D02*
X129109523Y-125094895D01*
X129109523Y-125094895D02*
X128919047Y-125094895D01*
X128919047Y-125094895D02*
X128842856Y-125056800D01*
X128842856Y-125056800D02*
X128804761Y-125018704D01*
X128804761Y-125018704D02*
X128766666Y-124942514D01*
X128766666Y-124942514D02*
X128766666Y-124866323D01*
X128766666Y-124866323D02*
X128804761Y-124790133D01*
X128804761Y-124790133D02*
X128842856Y-124752038D01*
X128842856Y-124752038D02*
X128919047Y-124713942D01*
X128919047Y-124713942D02*
X129071428Y-124675847D01*
X129071428Y-124675847D02*
X129147618Y-124637752D01*
X129147618Y-124637752D02*
X129185713Y-124599657D01*
X129185713Y-124599657D02*
X129223809Y-124523466D01*
X129223809Y-124523466D02*
X129223809Y-124447276D01*
X129223809Y-124447276D02*
X129185713Y-124371085D01*
X129185713Y-124371085D02*
X129147618Y-124332990D01*
X129147618Y-124332990D02*
X129071428Y-124294895D01*
X129071428Y-124294895D02*
X128880951Y-124294895D01*
X128880951Y-124294895D02*
X128766666Y-124332990D01*
X128423808Y-125094895D02*
X128423808Y-124294895D01*
X128423808Y-124294895D02*
X127966665Y-125094895D01*
X127966665Y-125094895D02*
X127966665Y-124294895D01*
X127623809Y-125056800D02*
X127509523Y-125094895D01*
X127509523Y-125094895D02*
X127319047Y-125094895D01*
X127319047Y-125094895D02*
X127242856Y-125056800D01*
X127242856Y-125056800D02*
X127204761Y-125018704D01*
X127204761Y-125018704D02*
X127166666Y-124942514D01*
X127166666Y-124942514D02*
X127166666Y-124866323D01*
X127166666Y-124866323D02*
X127204761Y-124790133D01*
X127204761Y-124790133D02*
X127242856Y-124752038D01*
X127242856Y-124752038D02*
X127319047Y-124713942D01*
X127319047Y-124713942D02*
X127471428Y-124675847D01*
X127471428Y-124675847D02*
X127547618Y-124637752D01*
X127547618Y-124637752D02*
X127585713Y-124599657D01*
X127585713Y-124599657D02*
X127623809Y-124523466D01*
X127623809Y-124523466D02*
X127623809Y-124447276D01*
X127623809Y-124447276D02*
X127585713Y-124371085D01*
X127585713Y-124371085D02*
X127547618Y-124332990D01*
X127547618Y-124332990D02*
X127471428Y-124294895D01*
X127471428Y-124294895D02*
X127280951Y-124294895D01*
X127280951Y-124294895D02*
X127166666Y-124332990D01*
X127014285Y-125171085D02*
X126404761Y-125171085D01*
X126214284Y-125094895D02*
X126214284Y-124294895D01*
X128804761Y-127558704D02*
X128842857Y-127596800D01*
X128842857Y-127596800D02*
X128957142Y-127634895D01*
X128957142Y-127634895D02*
X129033333Y-127634895D01*
X129033333Y-127634895D02*
X129147619Y-127596800D01*
X129147619Y-127596800D02*
X129223809Y-127520609D01*
X129223809Y-127520609D02*
X129261904Y-127444419D01*
X129261904Y-127444419D02*
X129300000Y-127292038D01*
X129300000Y-127292038D02*
X129300000Y-127177752D01*
X129300000Y-127177752D02*
X129261904Y-127025371D01*
X129261904Y-127025371D02*
X129223809Y-126949180D01*
X129223809Y-126949180D02*
X129147619Y-126872990D01*
X129147619Y-126872990D02*
X129033333Y-126834895D01*
X129033333Y-126834895D02*
X128957142Y-126834895D01*
X128957142Y-126834895D02*
X128842857Y-126872990D01*
X128842857Y-126872990D02*
X128804761Y-126911085D01*
X128461904Y-127634895D02*
X128461904Y-126834895D01*
X128461904Y-126834895D02*
X128195238Y-127406323D01*
X128195238Y-127406323D02*
X127928571Y-126834895D01*
X127928571Y-126834895D02*
X127928571Y-127634895D01*
X127547618Y-127634895D02*
X127547618Y-126834895D01*
X127547618Y-126834895D02*
X127357142Y-126834895D01*
X127357142Y-126834895D02*
X127242856Y-126872990D01*
X127242856Y-126872990D02*
X127166666Y-126949180D01*
X127166666Y-126949180D02*
X127128571Y-127025371D01*
X127128571Y-127025371D02*
X127090475Y-127177752D01*
X127090475Y-127177752D02*
X127090475Y-127292038D01*
X127090475Y-127292038D02*
X127128571Y-127444419D01*
X127128571Y-127444419D02*
X127166666Y-127520609D01*
X127166666Y-127520609D02*
X127242856Y-127596800D01*
X127242856Y-127596800D02*
X127357142Y-127634895D01*
X127357142Y-127634895D02*
X127547618Y-127634895D01*
X126938095Y-127711085D02*
X126328571Y-127711085D01*
X126138094Y-127634895D02*
X126138094Y-126834895D01*
X128309523Y-129412990D02*
X128385713Y-129374895D01*
X128385713Y-129374895D02*
X128499999Y-129374895D01*
X128499999Y-129374895D02*
X128614285Y-129412990D01*
X128614285Y-129412990D02*
X128690475Y-129489180D01*
X128690475Y-129489180D02*
X128728570Y-129565371D01*
X128728570Y-129565371D02*
X128766666Y-129717752D01*
X128766666Y-129717752D02*
X128766666Y-129832038D01*
X128766666Y-129832038D02*
X128728570Y-129984419D01*
X128728570Y-129984419D02*
X128690475Y-130060609D01*
X128690475Y-130060609D02*
X128614285Y-130136800D01*
X128614285Y-130136800D02*
X128499999Y-130174895D01*
X128499999Y-130174895D02*
X128423808Y-130174895D01*
X128423808Y-130174895D02*
X128309523Y-130136800D01*
X128309523Y-130136800D02*
X128271427Y-130098704D01*
X128271427Y-130098704D02*
X128271427Y-129832038D01*
X128271427Y-129832038D02*
X128423808Y-129832038D01*
X127928570Y-130174895D02*
X127928570Y-129374895D01*
X127928570Y-129374895D02*
X127471427Y-130174895D01*
X127471427Y-130174895D02*
X127471427Y-129374895D01*
X127090475Y-130174895D02*
X127090475Y-129374895D01*
X127090475Y-129374895D02*
X126899999Y-129374895D01*
X126899999Y-129374895D02*
X126785713Y-129412990D01*
X126785713Y-129412990D02*
X126709523Y-129489180D01*
X126709523Y-129489180D02*
X126671428Y-129565371D01*
X126671428Y-129565371D02*
X126633332Y-129717752D01*
X126633332Y-129717752D02*
X126633332Y-129832038D01*
X126633332Y-129832038D02*
X126671428Y-129984419D01*
X126671428Y-129984419D02*
X126709523Y-130060609D01*
X126709523Y-130060609D02*
X126785713Y-130136800D01*
X126785713Y-130136800D02*
X126899999Y-130174895D01*
X126899999Y-130174895D02*
X127090475Y-130174895D01*
X134152380Y-138414895D02*
X134533332Y-138414895D01*
X134533332Y-138414895D02*
X134571428Y-138795847D01*
X134571428Y-138795847D02*
X134533332Y-138757752D01*
X134533332Y-138757752D02*
X134457142Y-138719657D01*
X134457142Y-138719657D02*
X134266666Y-138719657D01*
X134266666Y-138719657D02*
X134190475Y-138757752D01*
X134190475Y-138757752D02*
X134152380Y-138795847D01*
X134152380Y-138795847D02*
X134114285Y-138872038D01*
X134114285Y-138872038D02*
X134114285Y-139062514D01*
X134114285Y-139062514D02*
X134152380Y-139138704D01*
X134152380Y-139138704D02*
X134190475Y-139176800D01*
X134190475Y-139176800D02*
X134266666Y-139214895D01*
X134266666Y-139214895D02*
X134457142Y-139214895D01*
X134457142Y-139214895D02*
X134533332Y-139176800D01*
X134533332Y-139176800D02*
X134571428Y-139138704D01*
X133885713Y-138414895D02*
X133619046Y-139214895D01*
X133619046Y-139214895D02*
X133352380Y-138414895D01*
X141342857Y-101764895D02*
X141342857Y-100964895D01*
X141342857Y-100964895D02*
X141152381Y-100964895D01*
X141152381Y-100964895D02*
X141038095Y-101002990D01*
X141038095Y-101002990D02*
X140961905Y-101079180D01*
X140961905Y-101079180D02*
X140923810Y-101155371D01*
X140923810Y-101155371D02*
X140885714Y-101307752D01*
X140885714Y-101307752D02*
X140885714Y-101422038D01*
X140885714Y-101422038D02*
X140923810Y-101574419D01*
X140923810Y-101574419D02*
X140961905Y-101650609D01*
X140961905Y-101650609D02*
X141038095Y-101726800D01*
X141038095Y-101726800D02*
X141152381Y-101764895D01*
X141152381Y-101764895D02*
X141342857Y-101764895D01*
X140580953Y-101536323D02*
X140200000Y-101536323D01*
X140657143Y-101764895D02*
X140390476Y-100964895D01*
X140390476Y-100964895D02*
X140123810Y-101764895D01*
X139971429Y-100964895D02*
X139514286Y-100964895D01*
X139742858Y-101764895D02*
X139742858Y-100964895D01*
X139247619Y-101764895D02*
X139247619Y-100964895D01*
X139247619Y-100964895D02*
X138790476Y-101764895D01*
X138790476Y-101764895D02*
X138790476Y-100964895D01*
X138409524Y-101688704D02*
X138371429Y-101726800D01*
X138371429Y-101726800D02*
X138409524Y-101764895D01*
X138409524Y-101764895D02*
X138447620Y-101726800D01*
X138447620Y-101726800D02*
X138409524Y-101688704D01*
X138409524Y-101688704D02*
X138409524Y-101764895D01*
X138409524Y-101269657D02*
X138371429Y-101307752D01*
X138371429Y-101307752D02*
X138409524Y-101345847D01*
X138409524Y-101345847D02*
X138447620Y-101307752D01*
X138447620Y-101307752D02*
X138409524Y-101269657D01*
X138409524Y-101269657D02*
X138409524Y-101345847D01*
X137419048Y-101764895D02*
X137419048Y-100964895D01*
X137419048Y-100964895D02*
X137114286Y-100964895D01*
X137114286Y-100964895D02*
X137038096Y-101002990D01*
X137038096Y-101002990D02*
X137000001Y-101041085D01*
X137000001Y-101041085D02*
X136961905Y-101117276D01*
X136961905Y-101117276D02*
X136961905Y-101231561D01*
X136961905Y-101231561D02*
X137000001Y-101307752D01*
X137000001Y-101307752D02*
X137038096Y-101345847D01*
X137038096Y-101345847D02*
X137114286Y-101383942D01*
X137114286Y-101383942D02*
X137419048Y-101383942D01*
X136619048Y-101764895D02*
X136619048Y-100964895D01*
X136619048Y-100964895D02*
X136314286Y-100964895D01*
X136314286Y-100964895D02*
X136238096Y-101002990D01*
X136238096Y-101002990D02*
X136200001Y-101041085D01*
X136200001Y-101041085D02*
X136161905Y-101117276D01*
X136161905Y-101117276D02*
X136161905Y-101231561D01*
X136161905Y-101231561D02*
X136200001Y-101307752D01*
X136200001Y-101307752D02*
X136238096Y-101345847D01*
X136238096Y-101345847D02*
X136314286Y-101383942D01*
X136314286Y-101383942D02*
X136619048Y-101383942D01*
X135400001Y-101002990D02*
X135476191Y-100964895D01*
X135476191Y-100964895D02*
X135590477Y-100964895D01*
X135590477Y-100964895D02*
X135704763Y-101002990D01*
X135704763Y-101002990D02*
X135780953Y-101079180D01*
X135780953Y-101079180D02*
X135819048Y-101155371D01*
X135819048Y-101155371D02*
X135857144Y-101307752D01*
X135857144Y-101307752D02*
X135857144Y-101422038D01*
X135857144Y-101422038D02*
X135819048Y-101574419D01*
X135819048Y-101574419D02*
X135780953Y-101650609D01*
X135780953Y-101650609D02*
X135704763Y-101726800D01*
X135704763Y-101726800D02*
X135590477Y-101764895D01*
X135590477Y-101764895D02*
X135514286Y-101764895D01*
X135514286Y-101764895D02*
X135400001Y-101726800D01*
X135400001Y-101726800D02*
X135361905Y-101688704D01*
X135361905Y-101688704D02*
X135361905Y-101422038D01*
X135361905Y-101422038D02*
X135514286Y-101422038D01*
X135019048Y-101460133D02*
X134409525Y-101460133D01*
X134066668Y-101726800D02*
X133952382Y-101764895D01*
X133952382Y-101764895D02*
X133761906Y-101764895D01*
X133761906Y-101764895D02*
X133685715Y-101726800D01*
X133685715Y-101726800D02*
X133647620Y-101688704D01*
X133647620Y-101688704D02*
X133609525Y-101612514D01*
X133609525Y-101612514D02*
X133609525Y-101536323D01*
X133609525Y-101536323D02*
X133647620Y-101460133D01*
X133647620Y-101460133D02*
X133685715Y-101422038D01*
X133685715Y-101422038D02*
X133761906Y-101383942D01*
X133761906Y-101383942D02*
X133914287Y-101345847D01*
X133914287Y-101345847D02*
X133990477Y-101307752D01*
X133990477Y-101307752D02*
X134028572Y-101269657D01*
X134028572Y-101269657D02*
X134066668Y-101193466D01*
X134066668Y-101193466D02*
X134066668Y-101117276D01*
X134066668Y-101117276D02*
X134028572Y-101041085D01*
X134028572Y-101041085D02*
X133990477Y-101002990D01*
X133990477Y-101002990D02*
X133914287Y-100964895D01*
X133914287Y-100964895D02*
X133723810Y-100964895D01*
X133723810Y-100964895D02*
X133609525Y-101002990D01*
X133266667Y-101764895D02*
X133266667Y-101231561D01*
X133266667Y-100964895D02*
X133304763Y-101002990D01*
X133304763Y-101002990D02*
X133266667Y-101041085D01*
X133266667Y-101041085D02*
X133228572Y-101002990D01*
X133228572Y-101002990D02*
X133266667Y-100964895D01*
X133266667Y-100964895D02*
X133266667Y-101041085D01*
X132885715Y-101764895D02*
X132885715Y-101231561D01*
X132885715Y-101307752D02*
X132847620Y-101269657D01*
X132847620Y-101269657D02*
X132771430Y-101231561D01*
X132771430Y-101231561D02*
X132657144Y-101231561D01*
X132657144Y-101231561D02*
X132580953Y-101269657D01*
X132580953Y-101269657D02*
X132542858Y-101345847D01*
X132542858Y-101345847D02*
X132542858Y-101764895D01*
X132542858Y-101345847D02*
X132504763Y-101269657D01*
X132504763Y-101269657D02*
X132428572Y-101231561D01*
X132428572Y-101231561D02*
X132314287Y-101231561D01*
X132314287Y-101231561D02*
X132238096Y-101269657D01*
X132238096Y-101269657D02*
X132200001Y-101345847D01*
X132200001Y-101345847D02*
X132200001Y-101764895D01*
X131476191Y-101231561D02*
X131476191Y-101764895D01*
X131819048Y-101231561D02*
X131819048Y-101650609D01*
X131819048Y-101650609D02*
X131780953Y-101726800D01*
X131780953Y-101726800D02*
X131704763Y-101764895D01*
X131704763Y-101764895D02*
X131590477Y-101764895D01*
X131590477Y-101764895D02*
X131514286Y-101726800D01*
X131514286Y-101726800D02*
X131476191Y-101688704D01*
X130980953Y-101764895D02*
X131057143Y-101726800D01*
X131057143Y-101726800D02*
X131095238Y-101650609D01*
X131095238Y-101650609D02*
X131095238Y-100964895D01*
X130333333Y-101764895D02*
X130333333Y-101345847D01*
X130333333Y-101345847D02*
X130371428Y-101269657D01*
X130371428Y-101269657D02*
X130447619Y-101231561D01*
X130447619Y-101231561D02*
X130600000Y-101231561D01*
X130600000Y-101231561D02*
X130676190Y-101269657D01*
X130333333Y-101726800D02*
X130409524Y-101764895D01*
X130409524Y-101764895D02*
X130600000Y-101764895D01*
X130600000Y-101764895D02*
X130676190Y-101726800D01*
X130676190Y-101726800D02*
X130714286Y-101650609D01*
X130714286Y-101650609D02*
X130714286Y-101574419D01*
X130714286Y-101574419D02*
X130676190Y-101498228D01*
X130676190Y-101498228D02*
X130600000Y-101460133D01*
X130600000Y-101460133D02*
X130409524Y-101460133D01*
X130409524Y-101460133D02*
X130333333Y-101422038D01*
X130066666Y-101231561D02*
X129761904Y-101231561D01*
X129952380Y-100964895D02*
X129952380Y-101650609D01*
X129952380Y-101650609D02*
X129914285Y-101726800D01*
X129914285Y-101726800D02*
X129838095Y-101764895D01*
X129838095Y-101764895D02*
X129761904Y-101764895D01*
X129380952Y-101764895D02*
X129457142Y-101726800D01*
X129457142Y-101726800D02*
X129495237Y-101688704D01*
X129495237Y-101688704D02*
X129533333Y-101612514D01*
X129533333Y-101612514D02*
X129533333Y-101383942D01*
X129533333Y-101383942D02*
X129495237Y-101307752D01*
X129495237Y-101307752D02*
X129457142Y-101269657D01*
X129457142Y-101269657D02*
X129380952Y-101231561D01*
X129380952Y-101231561D02*
X129266666Y-101231561D01*
X129266666Y-101231561D02*
X129190475Y-101269657D01*
X129190475Y-101269657D02*
X129152380Y-101307752D01*
X129152380Y-101307752D02*
X129114285Y-101383942D01*
X129114285Y-101383942D02*
X129114285Y-101612514D01*
X129114285Y-101612514D02*
X129152380Y-101688704D01*
X129152380Y-101688704D02*
X129190475Y-101726800D01*
X129190475Y-101726800D02*
X129266666Y-101764895D01*
X129266666Y-101764895D02*
X129380952Y-101764895D01*
X128771427Y-101764895D02*
X128771427Y-101231561D01*
X128771427Y-101383942D02*
X128733332Y-101307752D01*
X128733332Y-101307752D02*
X128695237Y-101269657D01*
X128695237Y-101269657D02*
X128619046Y-101231561D01*
X128619046Y-101231561D02*
X128542856Y-101231561D01*
X145800002Y-103264895D02*
X145800002Y-102464895D01*
X145800002Y-102464895D02*
X145342859Y-103264895D01*
X145342859Y-103264895D02*
X145342859Y-102464895D01*
X144619050Y-102731561D02*
X144619050Y-103379180D01*
X144619050Y-103379180D02*
X144657145Y-103455371D01*
X144657145Y-103455371D02*
X144695241Y-103493466D01*
X144695241Y-103493466D02*
X144771431Y-103531561D01*
X144771431Y-103531561D02*
X144885717Y-103531561D01*
X144885717Y-103531561D02*
X144961907Y-103493466D01*
X144619050Y-103226800D02*
X144695241Y-103264895D01*
X144695241Y-103264895D02*
X144847622Y-103264895D01*
X144847622Y-103264895D02*
X144923812Y-103226800D01*
X144923812Y-103226800D02*
X144961907Y-103188704D01*
X144961907Y-103188704D02*
X145000003Y-103112514D01*
X145000003Y-103112514D02*
X145000003Y-102883942D01*
X145000003Y-102883942D02*
X144961907Y-102807752D01*
X144961907Y-102807752D02*
X144923812Y-102769657D01*
X144923812Y-102769657D02*
X144847622Y-102731561D01*
X144847622Y-102731561D02*
X144695241Y-102731561D01*
X144695241Y-102731561D02*
X144619050Y-102769657D01*
X143895240Y-102731561D02*
X143895240Y-103264895D01*
X144238097Y-102731561D02*
X144238097Y-103150609D01*
X144238097Y-103150609D02*
X144200002Y-103226800D01*
X144200002Y-103226800D02*
X144123812Y-103264895D01*
X144123812Y-103264895D02*
X144009526Y-103264895D01*
X144009526Y-103264895D02*
X143933335Y-103226800D01*
X143933335Y-103226800D02*
X143895240Y-103188704D01*
X143590478Y-102731561D02*
X143400002Y-103264895D01*
X143209525Y-102731561D02*
X143400002Y-103264895D01*
X143400002Y-103264895D02*
X143476192Y-103455371D01*
X143476192Y-103455371D02*
X143514287Y-103493466D01*
X143514287Y-103493466D02*
X143590478Y-103531561D01*
X142600001Y-103226800D02*
X142676192Y-103264895D01*
X142676192Y-103264895D02*
X142828573Y-103264895D01*
X142828573Y-103264895D02*
X142904763Y-103226800D01*
X142904763Y-103226800D02*
X142942859Y-103150609D01*
X142942859Y-103150609D02*
X142942859Y-102845847D01*
X142942859Y-102845847D02*
X142904763Y-102769657D01*
X142904763Y-102769657D02*
X142828573Y-102731561D01*
X142828573Y-102731561D02*
X142676192Y-102731561D01*
X142676192Y-102731561D02*
X142600001Y-102769657D01*
X142600001Y-102769657D02*
X142561906Y-102845847D01*
X142561906Y-102845847D02*
X142561906Y-102922038D01*
X142561906Y-102922038D02*
X142942859Y-102998228D01*
X142219049Y-102731561D02*
X142219049Y-103264895D01*
X142219049Y-102807752D02*
X142180954Y-102769657D01*
X142180954Y-102769657D02*
X142104764Y-102731561D01*
X142104764Y-102731561D02*
X141990478Y-102731561D01*
X141990478Y-102731561D02*
X141914287Y-102769657D01*
X141914287Y-102769657D02*
X141876192Y-102845847D01*
X141876192Y-102845847D02*
X141876192Y-103264895D01*
X140885715Y-103264895D02*
X140885715Y-102464895D01*
X140885715Y-102464895D02*
X140428572Y-103264895D01*
X140428572Y-103264895D02*
X140428572Y-102464895D01*
X140047620Y-103264895D02*
X140047620Y-102464895D01*
X139704763Y-103264895D02*
X139704763Y-102845847D01*
X139704763Y-102845847D02*
X139742858Y-102769657D01*
X139742858Y-102769657D02*
X139819049Y-102731561D01*
X139819049Y-102731561D02*
X139933335Y-102731561D01*
X139933335Y-102731561D02*
X140009525Y-102769657D01*
X140009525Y-102769657D02*
X140047620Y-102807752D01*
X138980953Y-103264895D02*
X138980953Y-102845847D01*
X138980953Y-102845847D02*
X139019048Y-102769657D01*
X139019048Y-102769657D02*
X139095239Y-102731561D01*
X139095239Y-102731561D02*
X139247620Y-102731561D01*
X139247620Y-102731561D02*
X139323810Y-102769657D01*
X138980953Y-103226800D02*
X139057144Y-103264895D01*
X139057144Y-103264895D02*
X139247620Y-103264895D01*
X139247620Y-103264895D02*
X139323810Y-103226800D01*
X139323810Y-103226800D02*
X139361906Y-103150609D01*
X139361906Y-103150609D02*
X139361906Y-103074419D01*
X139361906Y-103074419D02*
X139323810Y-102998228D01*
X139323810Y-102998228D02*
X139247620Y-102960133D01*
X139247620Y-102960133D02*
X139057144Y-102960133D01*
X139057144Y-102960133D02*
X138980953Y-102922038D01*
X138714286Y-102731561D02*
X138409524Y-102731561D01*
X138600000Y-102464895D02*
X138600000Y-103150609D01*
X138600000Y-103150609D02*
X138561905Y-103226800D01*
X138561905Y-103226800D02*
X138485715Y-103264895D01*
X138485715Y-103264895D02*
X138409524Y-103264895D01*
X137533333Y-103264895D02*
X137533333Y-102464895D01*
X137533333Y-102845847D02*
X137076190Y-102845847D01*
X137076190Y-103264895D02*
X137076190Y-102464895D01*
X136352381Y-102731561D02*
X136352381Y-103264895D01*
X136695238Y-102731561D02*
X136695238Y-103150609D01*
X136695238Y-103150609D02*
X136657143Y-103226800D01*
X136657143Y-103226800D02*
X136580953Y-103264895D01*
X136580953Y-103264895D02*
X136466667Y-103264895D01*
X136466667Y-103264895D02*
X136390476Y-103226800D01*
X136390476Y-103226800D02*
X136352381Y-103188704D01*
X136047619Y-102731561D02*
X135857143Y-103264895D01*
X135666666Y-102731561D02*
X135857143Y-103264895D01*
X135857143Y-103264895D02*
X135933333Y-103455371D01*
X135933333Y-103455371D02*
X135971428Y-103493466D01*
X135971428Y-103493466D02*
X136047619Y-103531561D01*
X134752380Y-102960133D02*
X134142857Y-102960133D01*
X133152380Y-103264895D02*
X133152380Y-102464895D01*
X133152380Y-102464895D02*
X132847618Y-102464895D01*
X132847618Y-102464895D02*
X132771428Y-102502990D01*
X132771428Y-102502990D02*
X132733333Y-102541085D01*
X132733333Y-102541085D02*
X132695237Y-102617276D01*
X132695237Y-102617276D02*
X132695237Y-102731561D01*
X132695237Y-102731561D02*
X132733333Y-102807752D01*
X132733333Y-102807752D02*
X132771428Y-102845847D01*
X132771428Y-102845847D02*
X132847618Y-102883942D01*
X132847618Y-102883942D02*
X133152380Y-102883942D01*
X132352380Y-103264895D02*
X132352380Y-102464895D01*
X132009523Y-103264895D02*
X132009523Y-102845847D01*
X132009523Y-102845847D02*
X132047618Y-102769657D01*
X132047618Y-102769657D02*
X132123809Y-102731561D01*
X132123809Y-102731561D02*
X132238095Y-102731561D01*
X132238095Y-102731561D02*
X132314285Y-102769657D01*
X132314285Y-102769657D02*
X132352380Y-102807752D01*
X131285713Y-103264895D02*
X131285713Y-102845847D01*
X131285713Y-102845847D02*
X131323808Y-102769657D01*
X131323808Y-102769657D02*
X131399999Y-102731561D01*
X131399999Y-102731561D02*
X131552380Y-102731561D01*
X131552380Y-102731561D02*
X131628570Y-102769657D01*
X131285713Y-103226800D02*
X131361904Y-103264895D01*
X131361904Y-103264895D02*
X131552380Y-103264895D01*
X131552380Y-103264895D02*
X131628570Y-103226800D01*
X131628570Y-103226800D02*
X131666666Y-103150609D01*
X131666666Y-103150609D02*
X131666666Y-103074419D01*
X131666666Y-103074419D02*
X131628570Y-102998228D01*
X131628570Y-102998228D02*
X131552380Y-102960133D01*
X131552380Y-102960133D02*
X131361904Y-102960133D01*
X131361904Y-102960133D02*
X131285713Y-102922038D01*
X130904760Y-103264895D02*
X130904760Y-102731561D01*
X130904760Y-102807752D02*
X130866665Y-102769657D01*
X130866665Y-102769657D02*
X130790475Y-102731561D01*
X130790475Y-102731561D02*
X130676189Y-102731561D01*
X130676189Y-102731561D02*
X130599998Y-102769657D01*
X130599998Y-102769657D02*
X130561903Y-102845847D01*
X130561903Y-102845847D02*
X130561903Y-103264895D01*
X130561903Y-102845847D02*
X130523808Y-102769657D01*
X130523808Y-102769657D02*
X130447617Y-102731561D01*
X130447617Y-102731561D02*
X130333332Y-102731561D01*
X130333332Y-102731561D02*
X130257141Y-102769657D01*
X130257141Y-102769657D02*
X130219046Y-102845847D01*
X130219046Y-102845847D02*
X130219046Y-103264895D01*
X129342855Y-102464895D02*
X128885712Y-102464895D01*
X129114284Y-103264895D02*
X129114284Y-102464895D01*
X128619045Y-103264895D02*
X128619045Y-102464895D01*
X128276188Y-103264895D02*
X128276188Y-102845847D01*
X128276188Y-102845847D02*
X128314283Y-102769657D01*
X128314283Y-102769657D02*
X128390474Y-102731561D01*
X128390474Y-102731561D02*
X128504760Y-102731561D01*
X128504760Y-102731561D02*
X128580950Y-102769657D01*
X128580950Y-102769657D02*
X128619045Y-102807752D01*
X127552378Y-103264895D02*
X127552378Y-102845847D01*
X127552378Y-102845847D02*
X127590473Y-102769657D01*
X127590473Y-102769657D02*
X127666664Y-102731561D01*
X127666664Y-102731561D02*
X127819045Y-102731561D01*
X127819045Y-102731561D02*
X127895235Y-102769657D01*
X127552378Y-103226800D02*
X127628569Y-103264895D01*
X127628569Y-103264895D02*
X127819045Y-103264895D01*
X127819045Y-103264895D02*
X127895235Y-103226800D01*
X127895235Y-103226800D02*
X127933331Y-103150609D01*
X127933331Y-103150609D02*
X127933331Y-103074419D01*
X127933331Y-103074419D02*
X127895235Y-102998228D01*
X127895235Y-102998228D02*
X127819045Y-102960133D01*
X127819045Y-102960133D02*
X127628569Y-102960133D01*
X127628569Y-102960133D02*
X127552378Y-102922038D01*
X127171425Y-102731561D02*
X127171425Y-103264895D01*
X127171425Y-102807752D02*
X127133330Y-102769657D01*
X127133330Y-102769657D02*
X127057140Y-102731561D01*
X127057140Y-102731561D02*
X126942854Y-102731561D01*
X126942854Y-102731561D02*
X126866663Y-102769657D01*
X126866663Y-102769657D02*
X126828568Y-102845847D01*
X126828568Y-102845847D02*
X126828568Y-103264895D01*
X126447615Y-103264895D02*
X126447615Y-102464895D01*
X126104758Y-103264895D02*
X126104758Y-102845847D01*
X126104758Y-102845847D02*
X126142853Y-102769657D01*
X126142853Y-102769657D02*
X126219044Y-102731561D01*
X126219044Y-102731561D02*
X126333330Y-102731561D01*
X126333330Y-102731561D02*
X126409520Y-102769657D01*
X126409520Y-102769657D02*
X126447615Y-102807752D01*
X125228567Y-102464895D02*
X124961900Y-103264895D01*
X124961900Y-103264895D02*
X124695234Y-102464895D01*
X124504758Y-102731561D02*
X124314282Y-103264895D01*
X124123805Y-102731561D02*
X124314282Y-103264895D01*
X124314282Y-103264895D02*
X124390472Y-103455371D01*
X124390472Y-103455371D02*
X124428567Y-103493466D01*
X124428567Y-103493466D02*
X124504758Y-103531561D01*
X137149523Y-138452990D02*
X137225713Y-138414895D01*
X137225713Y-138414895D02*
X137339999Y-138414895D01*
X137339999Y-138414895D02*
X137454285Y-138452990D01*
X137454285Y-138452990D02*
X137530475Y-138529180D01*
X137530475Y-138529180D02*
X137568570Y-138605371D01*
X137568570Y-138605371D02*
X137606666Y-138757752D01*
X137606666Y-138757752D02*
X137606666Y-138872038D01*
X137606666Y-138872038D02*
X137568570Y-139024419D01*
X137568570Y-139024419D02*
X137530475Y-139100609D01*
X137530475Y-139100609D02*
X137454285Y-139176800D01*
X137454285Y-139176800D02*
X137339999Y-139214895D01*
X137339999Y-139214895D02*
X137263808Y-139214895D01*
X137263808Y-139214895D02*
X137149523Y-139176800D01*
X137149523Y-139176800D02*
X137111427Y-139138704D01*
X137111427Y-139138704D02*
X137111427Y-138872038D01*
X137111427Y-138872038D02*
X137263808Y-138872038D01*
X136768570Y-139214895D02*
X136768570Y-138414895D01*
X136768570Y-138414895D02*
X136311427Y-139214895D01*
X136311427Y-139214895D02*
X136311427Y-138414895D01*
X135930475Y-139214895D02*
X135930475Y-138414895D01*
X135930475Y-138414895D02*
X135739999Y-138414895D01*
X135739999Y-138414895D02*
X135625713Y-138452990D01*
X135625713Y-138452990D02*
X135549523Y-138529180D01*
X135549523Y-138529180D02*
X135511428Y-138605371D01*
X135511428Y-138605371D02*
X135473332Y-138757752D01*
X135473332Y-138757752D02*
X135473332Y-138872038D01*
X135473332Y-138872038D02*
X135511428Y-139024419D01*
X135511428Y-139024419D02*
X135549523Y-139100609D01*
X135549523Y-139100609D02*
X135625713Y-139176800D01*
X135625713Y-139176800D02*
X135739999Y-139214895D01*
X135739999Y-139214895D02*
X135930475Y-139214895D01*
X143352380Y-121754895D02*
X143733332Y-121754895D01*
X143733332Y-121754895D02*
X143771428Y-122135847D01*
X143771428Y-122135847D02*
X143733332Y-122097752D01*
X143733332Y-122097752D02*
X143657142Y-122059657D01*
X143657142Y-122059657D02*
X143466666Y-122059657D01*
X143466666Y-122059657D02*
X143390475Y-122097752D01*
X143390475Y-122097752D02*
X143352380Y-122135847D01*
X143352380Y-122135847D02*
X143314285Y-122212038D01*
X143314285Y-122212038D02*
X143314285Y-122402514D01*
X143314285Y-122402514D02*
X143352380Y-122478704D01*
X143352380Y-122478704D02*
X143390475Y-122516800D01*
X143390475Y-122516800D02*
X143466666Y-122554895D01*
X143466666Y-122554895D02*
X143657142Y-122554895D01*
X143657142Y-122554895D02*
X143733332Y-122516800D01*
X143733332Y-122516800D02*
X143771428Y-122478704D01*
X143085713Y-121754895D02*
X142819046Y-122554895D01*
X142819046Y-122554895D02*
X142552380Y-121754895D01*
X144952381Y-124866323D02*
X144571428Y-124866323D01*
X145028571Y-125094895D02*
X144761904Y-124294895D01*
X144761904Y-124294895D02*
X144495238Y-125094895D01*
X144228571Y-125094895D02*
X144228571Y-124294895D01*
X144228571Y-124294895D02*
X143961905Y-124866323D01*
X143961905Y-124866323D02*
X143695238Y-124294895D01*
X143695238Y-124294895D02*
X143695238Y-125094895D01*
X143314285Y-125094895D02*
X143314285Y-124294895D01*
X143314285Y-124294895D02*
X143009523Y-124294895D01*
X143009523Y-124294895D02*
X142933333Y-124332990D01*
X142933333Y-124332990D02*
X142895238Y-124371085D01*
X142895238Y-124371085D02*
X142857142Y-124447276D01*
X142857142Y-124447276D02*
X142857142Y-124561561D01*
X142857142Y-124561561D02*
X142895238Y-124637752D01*
X142895238Y-124637752D02*
X142933333Y-124675847D01*
X142933333Y-124675847D02*
X143009523Y-124713942D01*
X143009523Y-124713942D02*
X143314285Y-124713942D01*
X142704762Y-125171085D02*
X142095238Y-125171085D01*
X141447618Y-125094895D02*
X141714285Y-124713942D01*
X141904761Y-125094895D02*
X141904761Y-124294895D01*
X141904761Y-124294895D02*
X141599999Y-124294895D01*
X141599999Y-124294895D02*
X141523809Y-124332990D01*
X141523809Y-124332990D02*
X141485714Y-124371085D01*
X141485714Y-124371085D02*
X141447618Y-124447276D01*
X141447618Y-124447276D02*
X141447618Y-124561561D01*
X141447618Y-124561561D02*
X141485714Y-124637752D01*
X141485714Y-124637752D02*
X141523809Y-124675847D01*
X141523809Y-124675847D02*
X141599999Y-124713942D01*
X141599999Y-124713942D02*
X141904761Y-124713942D01*
X144933333Y-127596800D02*
X144819047Y-127634895D01*
X144819047Y-127634895D02*
X144628571Y-127634895D01*
X144628571Y-127634895D02*
X144552380Y-127596800D01*
X144552380Y-127596800D02*
X144514285Y-127558704D01*
X144514285Y-127558704D02*
X144476190Y-127482514D01*
X144476190Y-127482514D02*
X144476190Y-127406323D01*
X144476190Y-127406323D02*
X144514285Y-127330133D01*
X144514285Y-127330133D02*
X144552380Y-127292038D01*
X144552380Y-127292038D02*
X144628571Y-127253942D01*
X144628571Y-127253942D02*
X144780952Y-127215847D01*
X144780952Y-127215847D02*
X144857142Y-127177752D01*
X144857142Y-127177752D02*
X144895237Y-127139657D01*
X144895237Y-127139657D02*
X144933333Y-127063466D01*
X144933333Y-127063466D02*
X144933333Y-126987276D01*
X144933333Y-126987276D02*
X144895237Y-126911085D01*
X144895237Y-126911085D02*
X144857142Y-126872990D01*
X144857142Y-126872990D02*
X144780952Y-126834895D01*
X144780952Y-126834895D02*
X144590475Y-126834895D01*
X144590475Y-126834895D02*
X144476190Y-126872990D01*
X144133332Y-127634895D02*
X144133332Y-126834895D01*
X144133332Y-126834895D02*
X143676189Y-127634895D01*
X143676189Y-127634895D02*
X143676189Y-126834895D01*
X143333333Y-127596800D02*
X143219047Y-127634895D01*
X143219047Y-127634895D02*
X143028571Y-127634895D01*
X143028571Y-127634895D02*
X142952380Y-127596800D01*
X142952380Y-127596800D02*
X142914285Y-127558704D01*
X142914285Y-127558704D02*
X142876190Y-127482514D01*
X142876190Y-127482514D02*
X142876190Y-127406323D01*
X142876190Y-127406323D02*
X142914285Y-127330133D01*
X142914285Y-127330133D02*
X142952380Y-127292038D01*
X142952380Y-127292038D02*
X143028571Y-127253942D01*
X143028571Y-127253942D02*
X143180952Y-127215847D01*
X143180952Y-127215847D02*
X143257142Y-127177752D01*
X143257142Y-127177752D02*
X143295237Y-127139657D01*
X143295237Y-127139657D02*
X143333333Y-127063466D01*
X143333333Y-127063466D02*
X143333333Y-126987276D01*
X143333333Y-126987276D02*
X143295237Y-126911085D01*
X143295237Y-126911085D02*
X143257142Y-126872990D01*
X143257142Y-126872990D02*
X143180952Y-126834895D01*
X143180952Y-126834895D02*
X142990475Y-126834895D01*
X142990475Y-126834895D02*
X142876190Y-126872990D01*
X142723809Y-127711085D02*
X142114285Y-127711085D01*
X141466665Y-127634895D02*
X141733332Y-127253942D01*
X141923808Y-127634895D02*
X141923808Y-126834895D01*
X141923808Y-126834895D02*
X141619046Y-126834895D01*
X141619046Y-126834895D02*
X141542856Y-126872990D01*
X141542856Y-126872990D02*
X141504761Y-126911085D01*
X141504761Y-126911085D02*
X141466665Y-126987276D01*
X141466665Y-126987276D02*
X141466665Y-127101561D01*
X141466665Y-127101561D02*
X141504761Y-127177752D01*
X141504761Y-127177752D02*
X141542856Y-127215847D01*
X141542856Y-127215847D02*
X141619046Y-127253942D01*
X141619046Y-127253942D02*
X141923808Y-127253942D01*
X144514285Y-130098704D02*
X144552381Y-130136800D01*
X144552381Y-130136800D02*
X144666666Y-130174895D01*
X144666666Y-130174895D02*
X144742857Y-130174895D01*
X144742857Y-130174895D02*
X144857143Y-130136800D01*
X144857143Y-130136800D02*
X144933333Y-130060609D01*
X144933333Y-130060609D02*
X144971428Y-129984419D01*
X144971428Y-129984419D02*
X145009524Y-129832038D01*
X145009524Y-129832038D02*
X145009524Y-129717752D01*
X145009524Y-129717752D02*
X144971428Y-129565371D01*
X144971428Y-129565371D02*
X144933333Y-129489180D01*
X144933333Y-129489180D02*
X144857143Y-129412990D01*
X144857143Y-129412990D02*
X144742857Y-129374895D01*
X144742857Y-129374895D02*
X144666666Y-129374895D01*
X144666666Y-129374895D02*
X144552381Y-129412990D01*
X144552381Y-129412990D02*
X144514285Y-129451085D01*
X144171428Y-130174895D02*
X144171428Y-129374895D01*
X144171428Y-129374895D02*
X143904762Y-129946323D01*
X143904762Y-129946323D02*
X143638095Y-129374895D01*
X143638095Y-129374895D02*
X143638095Y-130174895D01*
X143257142Y-130174895D02*
X143257142Y-129374895D01*
X143257142Y-129374895D02*
X143066666Y-129374895D01*
X143066666Y-129374895D02*
X142952380Y-129412990D01*
X142952380Y-129412990D02*
X142876190Y-129489180D01*
X142876190Y-129489180D02*
X142838095Y-129565371D01*
X142838095Y-129565371D02*
X142799999Y-129717752D01*
X142799999Y-129717752D02*
X142799999Y-129832038D01*
X142799999Y-129832038D02*
X142838095Y-129984419D01*
X142838095Y-129984419D02*
X142876190Y-130060609D01*
X142876190Y-130060609D02*
X142952380Y-130136800D01*
X142952380Y-130136800D02*
X143066666Y-130174895D01*
X143066666Y-130174895D02*
X143257142Y-130174895D01*
X142647619Y-130251085D02*
X142038095Y-130251085D01*
X141390475Y-130174895D02*
X141657142Y-129793942D01*
X141847618Y-130174895D02*
X141847618Y-129374895D01*
X141847618Y-129374895D02*
X141542856Y-129374895D01*
X141542856Y-129374895D02*
X141466666Y-129412990D01*
X141466666Y-129412990D02*
X141428571Y-129451085D01*
X141428571Y-129451085D02*
X141390475Y-129527276D01*
X141390475Y-129527276D02*
X141390475Y-129641561D01*
X141390475Y-129641561D02*
X141428571Y-129717752D01*
X141428571Y-129717752D02*
X141466666Y-129755847D01*
X141466666Y-129755847D02*
X141542856Y-129793942D01*
X141542856Y-129793942D02*
X141847618Y-129793942D01*
X144214285Y-105364895D02*
X144480952Y-104983942D01*
X144671428Y-105364895D02*
X144671428Y-104564895D01*
X144671428Y-104564895D02*
X144366666Y-104564895D01*
X144366666Y-104564895D02*
X144290476Y-104602990D01*
X144290476Y-104602990D02*
X144252381Y-104641085D01*
X144252381Y-104641085D02*
X144214285Y-104717276D01*
X144214285Y-104717276D02*
X144214285Y-104831561D01*
X144214285Y-104831561D02*
X144252381Y-104907752D01*
X144252381Y-104907752D02*
X144290476Y-104945847D01*
X144290476Y-104945847D02*
X144366666Y-104983942D01*
X144366666Y-104983942D02*
X144671428Y-104983942D01*
X143871428Y-104945847D02*
X143604762Y-104945847D01*
X143490476Y-105364895D02*
X143871428Y-105364895D01*
X143871428Y-105364895D02*
X143871428Y-104564895D01*
X143871428Y-104564895D02*
X143490476Y-104564895D01*
X143147618Y-105364895D02*
X143147618Y-104564895D01*
X143147618Y-104564895D02*
X142957142Y-104564895D01*
X142957142Y-104564895D02*
X142842856Y-104602990D01*
X142842856Y-104602990D02*
X142766666Y-104679180D01*
X142766666Y-104679180D02*
X142728571Y-104755371D01*
X142728571Y-104755371D02*
X142690475Y-104907752D01*
X142690475Y-104907752D02*
X142690475Y-105022038D01*
X142690475Y-105022038D02*
X142728571Y-105174419D01*
X142728571Y-105174419D02*
X142766666Y-105250609D01*
X142766666Y-105250609D02*
X142842856Y-105326800D01*
X142842856Y-105326800D02*
X142957142Y-105364895D01*
X142957142Y-105364895D02*
X143147618Y-105364895D01*
X144309523Y-107142990D02*
X144385713Y-107104895D01*
X144385713Y-107104895D02*
X144499999Y-107104895D01*
X144499999Y-107104895D02*
X144614285Y-107142990D01*
X144614285Y-107142990D02*
X144690475Y-107219180D01*
X144690475Y-107219180D02*
X144728570Y-107295371D01*
X144728570Y-107295371D02*
X144766666Y-107447752D01*
X144766666Y-107447752D02*
X144766666Y-107562038D01*
X144766666Y-107562038D02*
X144728570Y-107714419D01*
X144728570Y-107714419D02*
X144690475Y-107790609D01*
X144690475Y-107790609D02*
X144614285Y-107866800D01*
X144614285Y-107866800D02*
X144499999Y-107904895D01*
X144499999Y-107904895D02*
X144423808Y-107904895D01*
X144423808Y-107904895D02*
X144309523Y-107866800D01*
X144309523Y-107866800D02*
X144271427Y-107828704D01*
X144271427Y-107828704D02*
X144271427Y-107562038D01*
X144271427Y-107562038D02*
X144423808Y-107562038D01*
X143928570Y-107904895D02*
X143928570Y-107104895D01*
X143928570Y-107104895D02*
X143471427Y-107904895D01*
X143471427Y-107904895D02*
X143471427Y-107104895D01*
X143090475Y-107904895D02*
X143090475Y-107104895D01*
X143090475Y-107104895D02*
X142899999Y-107104895D01*
X142899999Y-107104895D02*
X142785713Y-107142990D01*
X142785713Y-107142990D02*
X142709523Y-107219180D01*
X142709523Y-107219180D02*
X142671428Y-107295371D01*
X142671428Y-107295371D02*
X142633332Y-107447752D01*
X142633332Y-107447752D02*
X142633332Y-107562038D01*
X142633332Y-107562038D02*
X142671428Y-107714419D01*
X142671428Y-107714419D02*
X142709523Y-107790609D01*
X142709523Y-107790609D02*
X142785713Y-107866800D01*
X142785713Y-107866800D02*
X142899999Y-107904895D01*
X142899999Y-107904895D02*
X143090475Y-107904895D01*
X144652381Y-110406800D02*
X144538095Y-110444895D01*
X144538095Y-110444895D02*
X144347619Y-110444895D01*
X144347619Y-110444895D02*
X144271428Y-110406800D01*
X144271428Y-110406800D02*
X144233333Y-110368704D01*
X144233333Y-110368704D02*
X144195238Y-110292514D01*
X144195238Y-110292514D02*
X144195238Y-110216323D01*
X144195238Y-110216323D02*
X144233333Y-110140133D01*
X144233333Y-110140133D02*
X144271428Y-110102038D01*
X144271428Y-110102038D02*
X144347619Y-110063942D01*
X144347619Y-110063942D02*
X144500000Y-110025847D01*
X144500000Y-110025847D02*
X144576190Y-109987752D01*
X144576190Y-109987752D02*
X144614285Y-109949657D01*
X144614285Y-109949657D02*
X144652381Y-109873466D01*
X144652381Y-109873466D02*
X144652381Y-109797276D01*
X144652381Y-109797276D02*
X144614285Y-109721085D01*
X144614285Y-109721085D02*
X144576190Y-109682990D01*
X144576190Y-109682990D02*
X144500000Y-109644895D01*
X144500000Y-109644895D02*
X144309523Y-109644895D01*
X144309523Y-109644895D02*
X144195238Y-109682990D01*
X143395237Y-110368704D02*
X143433333Y-110406800D01*
X143433333Y-110406800D02*
X143547618Y-110444895D01*
X143547618Y-110444895D02*
X143623809Y-110444895D01*
X143623809Y-110444895D02*
X143738095Y-110406800D01*
X143738095Y-110406800D02*
X143814285Y-110330609D01*
X143814285Y-110330609D02*
X143852380Y-110254419D01*
X143852380Y-110254419D02*
X143890476Y-110102038D01*
X143890476Y-110102038D02*
X143890476Y-109987752D01*
X143890476Y-109987752D02*
X143852380Y-109835371D01*
X143852380Y-109835371D02*
X143814285Y-109759180D01*
X143814285Y-109759180D02*
X143738095Y-109682990D01*
X143738095Y-109682990D02*
X143623809Y-109644895D01*
X143623809Y-109644895D02*
X143547618Y-109644895D01*
X143547618Y-109644895D02*
X143433333Y-109682990D01*
X143433333Y-109682990D02*
X143395237Y-109721085D01*
X142671428Y-110444895D02*
X143052380Y-110444895D01*
X143052380Y-110444895D02*
X143052380Y-109644895D01*
X144671428Y-112946800D02*
X144557142Y-112984895D01*
X144557142Y-112984895D02*
X144366666Y-112984895D01*
X144366666Y-112984895D02*
X144290475Y-112946800D01*
X144290475Y-112946800D02*
X144252380Y-112908704D01*
X144252380Y-112908704D02*
X144214285Y-112832514D01*
X144214285Y-112832514D02*
X144214285Y-112756323D01*
X144214285Y-112756323D02*
X144252380Y-112680133D01*
X144252380Y-112680133D02*
X144290475Y-112642038D01*
X144290475Y-112642038D02*
X144366666Y-112603942D01*
X144366666Y-112603942D02*
X144519047Y-112565847D01*
X144519047Y-112565847D02*
X144595237Y-112527752D01*
X144595237Y-112527752D02*
X144633332Y-112489657D01*
X144633332Y-112489657D02*
X144671428Y-112413466D01*
X144671428Y-112413466D02*
X144671428Y-112337276D01*
X144671428Y-112337276D02*
X144633332Y-112261085D01*
X144633332Y-112261085D02*
X144595237Y-112222990D01*
X144595237Y-112222990D02*
X144519047Y-112184895D01*
X144519047Y-112184895D02*
X144328570Y-112184895D01*
X144328570Y-112184895D02*
X144214285Y-112222990D01*
X143871427Y-112984895D02*
X143871427Y-112184895D01*
X143871427Y-112184895D02*
X143680951Y-112184895D01*
X143680951Y-112184895D02*
X143566665Y-112222990D01*
X143566665Y-112222990D02*
X143490475Y-112299180D01*
X143490475Y-112299180D02*
X143452380Y-112375371D01*
X143452380Y-112375371D02*
X143414284Y-112527752D01*
X143414284Y-112527752D02*
X143414284Y-112642038D01*
X143414284Y-112642038D02*
X143452380Y-112794419D01*
X143452380Y-112794419D02*
X143490475Y-112870609D01*
X143490475Y-112870609D02*
X143566665Y-112946800D01*
X143566665Y-112946800D02*
X143680951Y-112984895D01*
X143680951Y-112984895D02*
X143871427Y-112984895D01*
X143109523Y-112756323D02*
X142728570Y-112756323D01*
X143185713Y-112984895D02*
X142919046Y-112184895D01*
X142919046Y-112184895D02*
X142652380Y-112984895D01*
X144690476Y-114724895D02*
X144195238Y-114724895D01*
X144195238Y-114724895D02*
X144461904Y-115029657D01*
X144461904Y-115029657D02*
X144347619Y-115029657D01*
X144347619Y-115029657D02*
X144271428Y-115067752D01*
X144271428Y-115067752D02*
X144233333Y-115105847D01*
X144233333Y-115105847D02*
X144195238Y-115182038D01*
X144195238Y-115182038D02*
X144195238Y-115372514D01*
X144195238Y-115372514D02*
X144233333Y-115448704D01*
X144233333Y-115448704D02*
X144271428Y-115486800D01*
X144271428Y-115486800D02*
X144347619Y-115524895D01*
X144347619Y-115524895D02*
X144576190Y-115524895D01*
X144576190Y-115524895D02*
X144652381Y-115486800D01*
X144652381Y-115486800D02*
X144690476Y-115448704D01*
X143966666Y-114724895D02*
X143699999Y-115524895D01*
X143699999Y-115524895D02*
X143433333Y-114724895D01*
X143242857Y-114724895D02*
X142747619Y-114724895D01*
X142747619Y-114724895D02*
X143014285Y-115029657D01*
X143014285Y-115029657D02*
X142900000Y-115029657D01*
X142900000Y-115029657D02*
X142823809Y-115067752D01*
X142823809Y-115067752D02*
X142785714Y-115105847D01*
X142785714Y-115105847D02*
X142747619Y-115182038D01*
X142747619Y-115182038D02*
X142747619Y-115372514D01*
X142747619Y-115372514D02*
X142785714Y-115448704D01*
X142785714Y-115448704D02*
X142823809Y-115486800D01*
X142823809Y-115486800D02*
X142900000Y-115524895D01*
X142900000Y-115524895D02*
X143128571Y-115524895D01*
X143128571Y-115524895D02*
X143204762Y-115486800D01*
X143204762Y-115486800D02*
X143242857Y-115448704D01*
X144309523Y-117302990D02*
X144385713Y-117264895D01*
X144385713Y-117264895D02*
X144499999Y-117264895D01*
X144499999Y-117264895D02*
X144614285Y-117302990D01*
X144614285Y-117302990D02*
X144690475Y-117379180D01*
X144690475Y-117379180D02*
X144728570Y-117455371D01*
X144728570Y-117455371D02*
X144766666Y-117607752D01*
X144766666Y-117607752D02*
X144766666Y-117722038D01*
X144766666Y-117722038D02*
X144728570Y-117874419D01*
X144728570Y-117874419D02*
X144690475Y-117950609D01*
X144690475Y-117950609D02*
X144614285Y-118026800D01*
X144614285Y-118026800D02*
X144499999Y-118064895D01*
X144499999Y-118064895D02*
X144423808Y-118064895D01*
X144423808Y-118064895D02*
X144309523Y-118026800D01*
X144309523Y-118026800D02*
X144271427Y-117988704D01*
X144271427Y-117988704D02*
X144271427Y-117722038D01*
X144271427Y-117722038D02*
X144423808Y-117722038D01*
X143928570Y-118064895D02*
X143928570Y-117264895D01*
X143928570Y-117264895D02*
X143471427Y-118064895D01*
X143471427Y-118064895D02*
X143471427Y-117264895D01*
X143090475Y-118064895D02*
X143090475Y-117264895D01*
X143090475Y-117264895D02*
X142899999Y-117264895D01*
X142899999Y-117264895D02*
X142785713Y-117302990D01*
X142785713Y-117302990D02*
X142709523Y-117379180D01*
X142709523Y-117379180D02*
X142671428Y-117455371D01*
X142671428Y-117455371D02*
X142633332Y-117607752D01*
X142633332Y-117607752D02*
X142633332Y-117722038D01*
X142633332Y-117722038D02*
X142671428Y-117874419D01*
X142671428Y-117874419D02*
X142709523Y-117950609D01*
X142709523Y-117950609D02*
X142785713Y-118026800D01*
X142785713Y-118026800D02*
X142899999Y-118064895D01*
X142899999Y-118064895D02*
X143090475Y-118064895D01*
X146152380Y-138414895D02*
X146533332Y-138414895D01*
X146533332Y-138414895D02*
X146571428Y-138795847D01*
X146571428Y-138795847D02*
X146533332Y-138757752D01*
X146533332Y-138757752D02*
X146457142Y-138719657D01*
X146457142Y-138719657D02*
X146266666Y-138719657D01*
X146266666Y-138719657D02*
X146190475Y-138757752D01*
X146190475Y-138757752D02*
X146152380Y-138795847D01*
X146152380Y-138795847D02*
X146114285Y-138872038D01*
X146114285Y-138872038D02*
X146114285Y-139062514D01*
X146114285Y-139062514D02*
X146152380Y-139138704D01*
X146152380Y-139138704D02*
X146190475Y-139176800D01*
X146190475Y-139176800D02*
X146266666Y-139214895D01*
X146266666Y-139214895D02*
X146457142Y-139214895D01*
X146457142Y-139214895D02*
X146533332Y-139176800D01*
X146533332Y-139176800D02*
X146571428Y-139138704D01*
X145885713Y-138414895D02*
X145619046Y-139214895D01*
X145619046Y-139214895D02*
X145352380Y-138414895D01*
X147171428Y-133495847D02*
X146904762Y-133495847D01*
X146790476Y-133914895D02*
X147171428Y-133914895D01*
X147171428Y-133914895D02*
X147171428Y-133114895D01*
X147171428Y-133114895D02*
X146790476Y-133114895D01*
X149549523Y-139214895D02*
X149816190Y-138833942D01*
X150006666Y-139214895D02*
X150006666Y-138414895D01*
X150006666Y-138414895D02*
X149701904Y-138414895D01*
X149701904Y-138414895D02*
X149625714Y-138452990D01*
X149625714Y-138452990D02*
X149587619Y-138491085D01*
X149587619Y-138491085D02*
X149549523Y-138567276D01*
X149549523Y-138567276D02*
X149549523Y-138681561D01*
X149549523Y-138681561D02*
X149587619Y-138757752D01*
X149587619Y-138757752D02*
X149625714Y-138795847D01*
X149625714Y-138795847D02*
X149701904Y-138833942D01*
X149701904Y-138833942D02*
X150006666Y-138833942D01*
X149206666Y-138795847D02*
X148940000Y-138795847D01*
X148825714Y-139214895D02*
X149206666Y-139214895D01*
X149206666Y-139214895D02*
X149206666Y-138414895D01*
X149206666Y-138414895D02*
X148825714Y-138414895D01*
X148482856Y-139214895D02*
X148482856Y-138414895D01*
X148482856Y-138414895D02*
X148292380Y-138414895D01*
X148292380Y-138414895D02*
X148178094Y-138452990D01*
X148178094Y-138452990D02*
X148101904Y-138529180D01*
X148101904Y-138529180D02*
X148063809Y-138605371D01*
X148063809Y-138605371D02*
X148025713Y-138757752D01*
X148025713Y-138757752D02*
X148025713Y-138872038D01*
X148025713Y-138872038D02*
X148063809Y-139024419D01*
X148063809Y-139024419D02*
X148101904Y-139100609D01*
X148101904Y-139100609D02*
X148178094Y-139176800D01*
X148178094Y-139176800D02*
X148292380Y-139214895D01*
X148292380Y-139214895D02*
X148482856Y-139214895D01*
X147682856Y-138910133D02*
X147073333Y-138910133D01*
X149482857Y-133495847D02*
X149368571Y-133533942D01*
X149368571Y-133533942D02*
X149330476Y-133572038D01*
X149330476Y-133572038D02*
X149292380Y-133648228D01*
X149292380Y-133648228D02*
X149292380Y-133762514D01*
X149292380Y-133762514D02*
X149330476Y-133838704D01*
X149330476Y-133838704D02*
X149368571Y-133876800D01*
X149368571Y-133876800D02*
X149444761Y-133914895D01*
X149444761Y-133914895D02*
X149749523Y-133914895D01*
X149749523Y-133914895D02*
X149749523Y-133114895D01*
X149749523Y-133114895D02*
X149482857Y-133114895D01*
X149482857Y-133114895D02*
X149406666Y-133152990D01*
X149406666Y-133152990D02*
X149368571Y-133191085D01*
X149368571Y-133191085D02*
X149330476Y-133267276D01*
X149330476Y-133267276D02*
X149330476Y-133343466D01*
X149330476Y-133343466D02*
X149368571Y-133419657D01*
X149368571Y-133419657D02*
X149406666Y-133457752D01*
X149406666Y-133457752D02*
X149482857Y-133495847D01*
X149482857Y-133495847D02*
X149749523Y-133495847D01*
X151832380Y-133838704D02*
X151870476Y-133876800D01*
X151870476Y-133876800D02*
X151984761Y-133914895D01*
X151984761Y-133914895D02*
X152060952Y-133914895D01*
X152060952Y-133914895D02*
X152175238Y-133876800D01*
X152175238Y-133876800D02*
X152251428Y-133800609D01*
X152251428Y-133800609D02*
X152289523Y-133724419D01*
X152289523Y-133724419D02*
X152327619Y-133572038D01*
X152327619Y-133572038D02*
X152327619Y-133457752D01*
X152327619Y-133457752D02*
X152289523Y-133305371D01*
X152289523Y-133305371D02*
X152251428Y-133229180D01*
X152251428Y-133229180D02*
X152175238Y-133152990D01*
X152175238Y-133152990D02*
X152060952Y-133114895D01*
X152060952Y-133114895D02*
X151984761Y-133114895D01*
X151984761Y-133114895D02*
X151870476Y-133152990D01*
X151870476Y-133152990D02*
X151832380Y-133191085D01*
X166014285Y-105364895D02*
X166280952Y-104983942D01*
X166471428Y-105364895D02*
X166471428Y-104564895D01*
X166471428Y-104564895D02*
X166166666Y-104564895D01*
X166166666Y-104564895D02*
X166090476Y-104602990D01*
X166090476Y-104602990D02*
X166052381Y-104641085D01*
X166052381Y-104641085D02*
X166014285Y-104717276D01*
X166014285Y-104717276D02*
X166014285Y-104831561D01*
X166014285Y-104831561D02*
X166052381Y-104907752D01*
X166052381Y-104907752D02*
X166090476Y-104945847D01*
X166090476Y-104945847D02*
X166166666Y-104983942D01*
X166166666Y-104983942D02*
X166471428Y-104983942D01*
X165671428Y-104945847D02*
X165404762Y-104945847D01*
X165290476Y-105364895D02*
X165671428Y-105364895D01*
X165671428Y-105364895D02*
X165671428Y-104564895D01*
X165671428Y-104564895D02*
X165290476Y-104564895D01*
X164947618Y-105364895D02*
X164947618Y-104564895D01*
X164947618Y-104564895D02*
X164757142Y-104564895D01*
X164757142Y-104564895D02*
X164642856Y-104602990D01*
X164642856Y-104602990D02*
X164566666Y-104679180D01*
X164566666Y-104679180D02*
X164528571Y-104755371D01*
X164528571Y-104755371D02*
X164490475Y-104907752D01*
X164490475Y-104907752D02*
X164490475Y-105022038D01*
X164490475Y-105022038D02*
X164528571Y-105174419D01*
X164528571Y-105174419D02*
X164566666Y-105250609D01*
X164566666Y-105250609D02*
X164642856Y-105326800D01*
X164642856Y-105326800D02*
X164757142Y-105364895D01*
X164757142Y-105364895D02*
X164947618Y-105364895D01*
X166109523Y-107142990D02*
X166185713Y-107104895D01*
X166185713Y-107104895D02*
X166299999Y-107104895D01*
X166299999Y-107104895D02*
X166414285Y-107142990D01*
X166414285Y-107142990D02*
X166490475Y-107219180D01*
X166490475Y-107219180D02*
X166528570Y-107295371D01*
X166528570Y-107295371D02*
X166566666Y-107447752D01*
X166566666Y-107447752D02*
X166566666Y-107562038D01*
X166566666Y-107562038D02*
X166528570Y-107714419D01*
X166528570Y-107714419D02*
X166490475Y-107790609D01*
X166490475Y-107790609D02*
X166414285Y-107866800D01*
X166414285Y-107866800D02*
X166299999Y-107904895D01*
X166299999Y-107904895D02*
X166223808Y-107904895D01*
X166223808Y-107904895D02*
X166109523Y-107866800D01*
X166109523Y-107866800D02*
X166071427Y-107828704D01*
X166071427Y-107828704D02*
X166071427Y-107562038D01*
X166071427Y-107562038D02*
X166223808Y-107562038D01*
X165728570Y-107904895D02*
X165728570Y-107104895D01*
X165728570Y-107104895D02*
X165271427Y-107904895D01*
X165271427Y-107904895D02*
X165271427Y-107104895D01*
X164890475Y-107904895D02*
X164890475Y-107104895D01*
X164890475Y-107104895D02*
X164699999Y-107104895D01*
X164699999Y-107104895D02*
X164585713Y-107142990D01*
X164585713Y-107142990D02*
X164509523Y-107219180D01*
X164509523Y-107219180D02*
X164471428Y-107295371D01*
X164471428Y-107295371D02*
X164433332Y-107447752D01*
X164433332Y-107447752D02*
X164433332Y-107562038D01*
X164433332Y-107562038D02*
X164471428Y-107714419D01*
X164471428Y-107714419D02*
X164509523Y-107790609D01*
X164509523Y-107790609D02*
X164585713Y-107866800D01*
X164585713Y-107866800D02*
X164699999Y-107904895D01*
X164699999Y-107904895D02*
X164890475Y-107904895D01*
%TO.C,C7*%
D11*
X131540000Y-113590000D02*
X133240000Y-113590000D01*
X131540000Y-118045563D02*
X131540000Y-113590000D01*
X132604437Y-119110000D02*
X131540000Y-118045563D01*
X132604437Y-119110000D02*
X133240000Y-119110000D01*
X135985000Y-119975000D02*
X135985000Y-119350000D01*
X135995563Y-119110000D02*
X135360000Y-119110000D01*
X135995563Y-119110000D02*
X137060000Y-118045563D01*
X136297500Y-119662500D02*
X135672500Y-119662500D01*
X137060000Y-113590000D02*
X135360000Y-113590000D01*
X137060000Y-118045563D02*
X137060000Y-113590000D01*
%TD*%
%LPC*%
D12*
%TO.C,Q2*%
X147000000Y-131500000D03*
D13*
X149540000Y-131500000D03*
X152080000Y-131500000D03*
%TD*%
D14*
%TO.C,J5*%
X123000000Y-137000000D03*
D15*
X125540000Y-137000000D03*
%TD*%
D14*
%TO.C,J7*%
X134000000Y-137000000D03*
D15*
X136540000Y-137000000D03*
%TD*%
D12*
%TO.C,Q1*%
X118000000Y-131500000D03*
D13*
X120540000Y-131500000D03*
X123080000Y-131500000D03*
%TD*%
D14*
%TO.C,J3*%
X140000000Y-105000000D03*
D15*
X140000000Y-107540000D03*
X140000000Y-110080000D03*
X140000000Y-112620000D03*
X140000000Y-115160000D03*
X140000000Y-117700000D03*
%TD*%
D16*
%TO.C,H1*%
X104000000Y-124000000D03*
%TD*%
%TO.C,H2*%
X166000000Y-124000000D03*
%TD*%
D14*
%TO.C,J2*%
X129000000Y-105000000D03*
D17*
X129000000Y-107540000D03*
D18*
X129000000Y-111500000D03*
D19*
X129000000Y-113500000D03*
X129000000Y-115500000D03*
X129000000Y-117500000D03*
%TD*%
D16*
%TO.C,H3*%
X104000000Y-136000000D03*
%TD*%
D20*
%TO.C,U1*%
X131190000Y-122190000D03*
D21*
X131190000Y-124730000D03*
X131190000Y-127270000D03*
X131190000Y-129810000D03*
X138810000Y-129810000D03*
X138810000Y-127270000D03*
X138810000Y-124730000D03*
X138810000Y-122190000D03*
%TD*%
D14*
%TO.C,J4*%
X162000000Y-105000000D03*
D15*
X162000000Y-107540000D03*
%TD*%
D14*
%TO.C,J6*%
X146000000Y-137000000D03*
D15*
X148540000Y-137000000D03*
%TD*%
D16*
%TO.C,H4*%
X166000000Y-136000000D03*
%TD*%
D14*
%TO.C,J1*%
X107000000Y-105000000D03*
D15*
X107000000Y-107540000D03*
X107000000Y-110080000D03*
X107000000Y-112620000D03*
X107000000Y-115160000D03*
X107000000Y-117700000D03*
%TD*%
D22*
%TO.C,C7*%
X134300000Y-118550000D03*
X134300000Y-114150000D03*
%TD*%
%LPD*%
M02*
