%TF.GenerationSoftware,KiCad,Pcbnew,10.0.6*%
%TF.CreationDate,2026-09-24T16:44:36+07:00*%
%TF.ProjectId,led_ir_driver,6c65645f-6972-45f6-9472-697665722e6b,rev?*%
%TF.SameCoordinates,Original*%
%TF.FileFunction,Copper,L1,Top*%
%TF.FilePolarity,Positive*%
%FSLAX46Y46*%
G04 Gerber Fmt 4.6, Leading zero omitted, Abs format (unit mm)*
G04 Created by KiCad (PCBNEW 10.0.6) date 2026-09-24 16:44:36*
%MOMM*%
%LPD*%
G01*
G04 APERTURE LIST*
G04 Aperture macros list*
%AMRoundRect*
0 Rectangle with rounded corners*
0 $1 Rounding radius*
0 $2 $3 $4 $5 $6 $7 $8 $9 X,Y pos of 4 corners*
0 Add a 4 corners polygon primitive as box body*
4,1,4,$2,$3,$4,$5,$6,$7,$8,$9,$2,$3,0*
0 Add four circle primitives for the rounded corners*
1,1,$1+$1,$2,$3*
1,1,$1+$1,$4,$5*
1,1,$1+$1,$6,$7*
1,1,$1+$1,$8,$9*
0 Add four rect primitives between the rounded corners*
20,1,$1+$1,$2,$3,$4,$5,0*
20,1,$1+$1,$4,$5,$6,$7,0*
20,1,$1+$1,$6,$7,$8,$9,0*
20,1,$1+$1,$8,$9,$2,$3,0*%
G04 Aperture macros list end*
%TA.AperFunction,ComponentPad*%
%ADD10R,1.700000X1.700000*%
%TD*%
%TA.AperFunction,ComponentPad*%
%ADD11C,1.700000*%
%TD*%
%TA.AperFunction,ComponentPad*%
%ADD12C,1.600000*%
%TD*%
%TA.AperFunction,ComponentPad*%
%ADD13R,1.500000X1.500000*%
%TD*%
%TA.AperFunction,ComponentPad*%
%ADD14C,1.500000*%
%TD*%
%TA.AperFunction,ComponentPad*%
%ADD15RoundRect,0.250000X-0.550000X-0.550000X0.550000X-0.550000X0.550000X0.550000X-0.550000X0.550000X0*%
%TD*%
%TA.AperFunction,Conductor*%
%ADD16C,0.600000*%
%TD*%
%TA.AperFunction,Conductor*%
%ADD17C,0.800000*%
%TD*%
%TA.AperFunction,Conductor*%
%ADD18C,0.350000*%
%TD*%
G04 APERTURE END LIST*
D10*
%TO.P,J7,1*%
%TO.N,/5V*%
X134000000Y-150000000D03*
D11*
%TO.P,J7,2*%
%TO.N,/GND*%
X136540000Y-150000000D03*
%TD*%
D12*
%TO.P,R7,1*%
%TO.N,/CMD_RED*%
X153620000Y-131000000D03*
%TO.P,R7,2*%
%TO.N,/GND*%
X146000000Y-131000000D03*
%TD*%
%TO.P,R8,1*%
%TO.N,/AMP_RED*%
X146000000Y-135000000D03*
%TO.P,R8,2*%
%TO.N,/BASE_RED*%
X153620000Y-135000000D03*
%TD*%
%TO.P,R2,1*%
%TO.N,/CMD_IR*%
X116620000Y-131000000D03*
%TO.P,R2,2*%
%TO.N,/GND*%
X109000000Y-131000000D03*
%TD*%
%TO.P,C5,1*%
%TO.N,/5V*%
X138810000Y-126000000D03*
%TO.P,C5,2*%
%TO.N,/GND*%
X141310000Y-126000000D03*
%TD*%
%TO.P,R3,1*%
%TO.N,/AMP_IR*%
X123000000Y-129500000D03*
%TO.P,R3,2*%
%TO.N,/BASE_IR*%
X123000000Y-137120000D03*
%TD*%
D13*
%TO.P,Q1,1*%
%TO.N,/SENSE_IR*%
X118000000Y-141000000D03*
D14*
%TO.P,Q1,2*%
%TO.N,/BASE_IR*%
X120540000Y-141000000D03*
%TO.P,Q1,3*%
%TO.N,/LED_K_IR*%
X123080000Y-141000000D03*
%TD*%
D15*
%TO.P,U1,1*%
%TO.N,/AMP_IR*%
X131190000Y-130190000D03*
D12*
%TO.P,U1,2*%
%TO.N,/SENSE_IR*%
X131190000Y-132730000D03*
%TO.P,U1,3*%
%TO.N,/CMD_IR*%
X131190000Y-135270000D03*
%TO.P,U1,4*%
%TO.N,/GND*%
X131190000Y-137810000D03*
%TO.P,U1,5*%
%TO.N,/CMD_RED*%
X138810000Y-137810000D03*
%TO.P,U1,6*%
%TO.N,/SENSE_RED*%
X138810000Y-135270000D03*
%TO.P,U1,7*%
%TO.N,/AMP_RED*%
X138810000Y-132730000D03*
%TO.P,U1,8*%
%TO.N,/5V*%
X138810000Y-130190000D03*
%TD*%
D10*
%TO.P,J2,1*%
%TO.N,/DAC_IR*%
X129000000Y-110000000D03*
D11*
%TO.P,J2,2*%
%TO.N,/GND*%
X129000000Y-112540000D03*
%TO.P,J2,3*%
%TO.N,/SCL*%
X129000000Y-115080000D03*
%TO.P,J2,4*%
%TO.N,/SDA*%
X129000000Y-117620000D03*
%TO.P,J2,5*%
%TO.N,/3V3*%
X129000000Y-120160000D03*
%TO.P,J2,6*%
%TO.N,/GND*%
X129000000Y-122700000D03*
%TD*%
D12*
%TO.P,R6,1*%
%TO.N,/DAC_RED*%
X146000000Y-127000000D03*
%TO.P,R6,2*%
%TO.N,/CMD_RED*%
X153620000Y-127000000D03*
%TD*%
%TO.P,R1,1*%
%TO.N,/DAC_IR*%
X109000000Y-127000000D03*
%TO.P,R1,2*%
%TO.N,/CMD_IR*%
X116620000Y-127000000D03*
%TD*%
%TO.P,C2,1*%
%TO.N,/AMP_IR*%
X127000000Y-138000000D03*
%TO.P,C2,2*%
%TO.N,/SENSE_IR*%
X127000000Y-140500000D03*
%TD*%
D15*
%TO.P,C7,1*%
%TO.N,/5V*%
X130000000Y-145000000D03*
D12*
%TO.P,C7,2*%
%TO.N,/GND*%
X132000000Y-145000000D03*
%TD*%
D10*
%TO.P,J5,1*%
%TO.N,/5V*%
X123000000Y-150000000D03*
D11*
%TO.P,J5,2*%
%TO.N,/LED_K_IR*%
X125540000Y-150000000D03*
%TD*%
D10*
%TO.P,J3,1*%
%TO.N,/DAC_RED*%
X140000000Y-110000000D03*
D11*
%TO.P,J3,2*%
%TO.N,/GND*%
X140000000Y-112540000D03*
%TO.P,J3,3*%
%TO.N,/SCL*%
X140000000Y-115080000D03*
%TO.P,J3,4*%
%TO.N,/SDA*%
X140000000Y-117620000D03*
%TO.P,J3,5*%
%TO.N,/3V3*%
X140000000Y-120160000D03*
%TO.P,J3,6*%
%TO.N,/GND*%
X140000000Y-122700000D03*
%TD*%
D10*
%TO.P,J6,1*%
%TO.N,/5V*%
X146000000Y-150000000D03*
D11*
%TO.P,J6,2*%
%TO.N,/LED_K_RED*%
X148540000Y-150000000D03*
%TD*%
D13*
%TO.P,Q2,1*%
%TO.N,/SENSE_RED*%
X147000000Y-141000000D03*
D14*
%TO.P,Q2,2*%
%TO.N,/BASE_RED*%
X149540000Y-141000000D03*
%TO.P,Q2,3*%
%TO.N,/LED_K_RED*%
X152080000Y-141000000D03*
%TD*%
D12*
%TO.P,R4,1*%
%TO.N,/SENSE_IR*%
X112000000Y-146000000D03*
%TO.P,R4,2*%
%TO.N,/GND*%
X119620000Y-146000000D03*
%TD*%
%TO.P,C4,1*%
%TO.N,/AMP_RED*%
X143000000Y-138000000D03*
%TO.P,C4,2*%
%TO.N,/SENSE_RED*%
X143000000Y-140500000D03*
%TD*%
%TO.P,R9,1*%
%TO.N,/SENSE_RED*%
X148000000Y-146000000D03*
%TO.P,R9,2*%
%TO.N,/GND*%
X155620000Y-146000000D03*
%TD*%
D10*
%TO.P,J1,1*%
%TO.N,/DAC_IR*%
X107000000Y-110000000D03*
D11*
%TO.P,J1,2*%
%TO.N,/GND*%
X107000000Y-112540000D03*
%TO.P,J1,3*%
%TO.N,/SCL*%
X107000000Y-115080000D03*
%TO.P,J1,4*%
%TO.N,/SDA*%
X107000000Y-117620000D03*
%TO.P,J1,5*%
%TO.N,/3V3*%
X107000000Y-120160000D03*
%TO.P,J1,6*%
%TO.N,/GND*%
X107000000Y-122700000D03*
%TD*%
%TO.N,/3V3*%
D16*
X107000000Y-120160000D02*
X129000000Y-120160000D01*
X129000000Y-120160000D02*
X140000000Y-120160000D01*
%TO.N,/5V*%
D17*
X134000000Y-150000000D02*
X134000000Y-147000000D01*
X130000000Y-147000000D02*
X130000000Y-145000000D01*
X134000000Y-147000000D02*
X130000000Y-147000000D01*
%TO.N,/AMP_IR*%
D18*
X123000000Y-129000000D02*
X123000000Y-129500000D01*
X129000000Y-130190000D02*
X127810000Y-129000000D01*
X131190000Y-130190000D02*
X129000000Y-130190000D01*
X127810000Y-129000000D02*
X123000000Y-129000000D01*
%TO.N,/AMP_RED*%
X146000000Y-135000000D02*
X143000000Y-135000000D01*
X144000000Y-132729999D02*
X146000000Y-134730000D01*
X143000000Y-135000000D02*
X143000000Y-138000000D01*
X146000000Y-134730000D02*
X146000000Y-135000000D01*
X138810000Y-132729999D02*
X144000000Y-132729999D01*
%TO.N,/BASE_IR*%
X120539999Y-138500000D02*
X120539999Y-141000000D01*
X123000000Y-138500000D02*
X120539999Y-138500000D01*
X123000000Y-137120000D02*
X123000000Y-138500000D01*
%TO.N,/BASE_RED*%
X153620000Y-135000000D02*
X153620000Y-138500000D01*
X153620000Y-138500000D02*
X149540000Y-138500000D01*
X149540000Y-138500000D02*
X149540000Y-141000000D01*
%TO.N,/CMD_IR*%
X127000000Y-133000000D02*
X129000000Y-135000000D01*
X116620000Y-127000000D02*
X116620000Y-131000000D01*
X129000000Y-135000000D02*
X129000000Y-135270000D01*
X116620000Y-133000000D02*
X127000000Y-133000000D01*
X116620000Y-131000000D02*
X116620000Y-133000000D01*
X129000000Y-135270000D02*
X131190000Y-135270000D01*
%TO.N,/CMD_RED*%
X153620000Y-127000000D02*
X153620000Y-131000000D01*
%TO.N,/LED_K_IR*%
D16*
X123080000Y-141000000D02*
X124800000Y-142720000D01*
X125539999Y-149240000D02*
X125539999Y-150000000D01*
X124800000Y-148500000D02*
X125539999Y-149240000D01*
X124800000Y-142720000D02*
X124800000Y-148500000D01*
%TO.N,/LED_K_RED*%
X158000000Y-144000000D02*
X158000000Y-149000000D01*
X152079999Y-141000000D02*
X155000000Y-141000000D01*
X148540000Y-149000000D02*
X148540000Y-150000000D01*
X155000000Y-141000000D02*
X158000000Y-144000000D01*
X158000000Y-149000000D02*
X148540000Y-149000000D01*
%TO.N,/SCL*%
D18*
X107000000Y-115080000D02*
X129000000Y-115080000D01*
X129000000Y-115080000D02*
X140000000Y-115080000D01*
%TO.N,/SDA*%
X129000000Y-117620000D02*
X140000000Y-117620000D01*
X107000000Y-117620000D02*
X129000000Y-117620000D01*
%TO.N,/SENSE_IR*%
D16*
X112000000Y-141000000D02*
X112000000Y-146000000D01*
X118000000Y-141000000D02*
X112000000Y-141000000D01*
%TO.N,/SENSE_RED*%
D18*
X140800000Y-146000000D02*
X148000000Y-146000000D01*
D16*
X148000000Y-142000000D02*
X148000000Y-146000000D01*
D18*
X138810000Y-135270000D02*
X140800000Y-135270000D01*
D16*
X147000000Y-141000000D02*
X148000000Y-142000000D01*
D18*
X140800000Y-135270000D02*
X140800000Y-146000000D01*
%TD*%
M02*
