%TF.GenerationSoftware,KiCad,Pcbnew,10.0.6*%
%TF.CreationDate,2026-09-24T16:44:36+07:00*%
%TF.ProjectId,led_ir_driver,6c65645f-6972-45f6-9472-697665722e6b,rev?*%
%TF.SameCoordinates,Original*%
%TF.FileFunction,Soldermask,Bot*%
%TF.FilePolarity,Negative*%
%FSLAX46Y46*%
G04 Gerber Fmt 4.6, Leading zero omitted, Abs format (unit mm)*
G04 Created by KiCad (PCBNEW 10.0.6) date 2026-09-24 16:44:36*
%MOMM*%
%LPD*%
G01*
G04 APERTURE LIST*
G04 Aperture macros list*
%AMRoundRect*
0 Rectangle with rounded corners*
0 $1 Rounding radius*
0 $2 $3 $4 $5 $6 $7 $8 $9 X,Y pos of 4 corners*
0 Add a 4 corners polygon primitive as box body*
4,1,4,$2,$3,$4,$5,$6,$7,$8,$9,$2,$3,0*
0 Add four circle primitives for the rounded corners*
1,1,$1+$1,$2,$3*
1,1,$1+$1,$4,$5*
1,1,$1+$1,$6,$7*
1,1,$1+$1,$8,$9*
0 Add four rect primitives between the rounded corners*
20,1,$1+$1,$2,$3,$4,$5,0*
20,1,$1+$1,$4,$5,$6,$7,0*
20,1,$1+$1,$6,$7,$8,$9,0*
20,1,$1+$1,$8,$9,$2,$3,0*%
G04 Aperture macros list end*
%ADD10R,1.700000X1.700000*%
%ADD11C,1.700000*%
%ADD12C,1.600000*%
%ADD13R,1.500000X1.500000*%
%ADD14C,1.500000*%
%ADD15C,3.200000*%
%ADD16RoundRect,0.250000X-0.550000X-0.550000X0.550000X-0.550000X0.550000X0.550000X-0.550000X0.550000X0*%
G04 APERTURE END LIST*
D10*
%TO.C,J7*%
X134000000Y-150000000D03*
D11*
X136540000Y-150000000D03*
%TD*%
D12*
%TO.C,R7*%
X153620000Y-131000000D03*
X146000000Y-131000000D03*
%TD*%
%TO.C,R8*%
X146000000Y-135000000D03*
X153620000Y-135000000D03*
%TD*%
%TO.C,R2*%
X116620000Y-131000000D03*
X109000000Y-131000000D03*
%TD*%
%TO.C,C5*%
X138810000Y-126000000D03*
X141310000Y-126000000D03*
%TD*%
%TO.C,R3*%
X123000000Y-129500000D03*
X123000000Y-137120000D03*
%TD*%
D13*
%TO.C,Q1*%
X118000000Y-141000000D03*
D14*
X120540000Y-141000000D03*
X123080000Y-141000000D03*
%TD*%
D15*
%TO.C,H3*%
X104000000Y-151000000D03*
%TD*%
D16*
%TO.C,U1*%
X131190000Y-130190000D03*
D12*
X131190000Y-132730000D03*
X131190000Y-135270000D03*
X131190000Y-137810000D03*
X138810000Y-137810000D03*
X138810000Y-135270000D03*
X138810000Y-132730000D03*
X138810000Y-130190000D03*
%TD*%
D10*
%TO.C,J2*%
X129000000Y-110000000D03*
D11*
X129000000Y-112540000D03*
X129000000Y-115080000D03*
X129000000Y-117620000D03*
X129000000Y-120160000D03*
X129000000Y-122700000D03*
%TD*%
D12*
%TO.C,R6*%
X146000000Y-127000000D03*
X153620000Y-127000000D03*
%TD*%
D15*
%TO.C,H2*%
X166000000Y-104000000D03*
%TD*%
D12*
%TO.C,R1*%
X109000000Y-127000000D03*
X116620000Y-127000000D03*
%TD*%
%TO.C,C2*%
X127000000Y-138000000D03*
X127000000Y-140500000D03*
%TD*%
D16*
%TO.C,C7*%
X130000000Y-145000000D03*
D12*
X132000000Y-145000000D03*
%TD*%
D10*
%TO.C,J5*%
X123000000Y-150000000D03*
D11*
X125540000Y-150000000D03*
%TD*%
D15*
%TO.C,H1*%
X104000000Y-104000000D03*
%TD*%
D10*
%TO.C,J3*%
X140000000Y-110000000D03*
D11*
X140000000Y-112540000D03*
X140000000Y-115080000D03*
X140000000Y-117620000D03*
X140000000Y-120160000D03*
X140000000Y-122700000D03*
%TD*%
D10*
%TO.C,J6*%
X146000000Y-150000000D03*
D11*
X148540000Y-150000000D03*
%TD*%
D15*
%TO.C,H4*%
X166000000Y-151000000D03*
%TD*%
D13*
%TO.C,Q2*%
X147000000Y-141000000D03*
D14*
X149540000Y-141000000D03*
X152080000Y-141000000D03*
%TD*%
D12*
%TO.C,R4*%
X112000000Y-146000000D03*
X119620000Y-146000000D03*
%TD*%
%TO.C,C4*%
X143000000Y-138000000D03*
X143000000Y-140500000D03*
%TD*%
%TO.C,R9*%
X148000000Y-146000000D03*
X155620000Y-146000000D03*
%TD*%
D10*
%TO.C,J1*%
X107000000Y-110000000D03*
D11*
X107000000Y-112540000D03*
X107000000Y-115080000D03*
X107000000Y-117620000D03*
X107000000Y-120160000D03*
X107000000Y-122700000D03*
%TD*%
M02*
