%TF.GenerationSoftware,KiCad,Pcbnew,10.0.6*%
%TF.CreationDate,2026-10-02T09:46:16+07:00*%
%TF.ProjectId,led_ir_driver,6c65645f-6972-45f6-9472-697665722e6b,rev?*%
%TF.SameCoordinates,Original*%
%TF.FileFunction,Legend,Bot*%
%TF.FilePolarity,Positive*%
%FSLAX46Y46*%
G04 Gerber Fmt 4.6, Leading zero omitted, Abs format (unit mm)*
G04 Created by KiCad (PCBNEW 10.0.6) date 2026-10-02 09:46:16*
%MOMM*%
%LPD*%
G01*
G04 APERTURE LIST*
%ADD10C,0.130000*%
G04 APERTURE END LIST*
D10*
X106523809Y-128055239D02*
X106409523Y-128093334D01*
X106409523Y-128093334D02*
X106219047Y-128093334D01*
X106219047Y-128093334D02*
X106142856Y-128055239D01*
X106142856Y-128055239D02*
X106104761Y-128017143D01*
X106104761Y-128017143D02*
X106066666Y-127940953D01*
X106066666Y-127940953D02*
X106066666Y-127864762D01*
X106066666Y-127864762D02*
X106104761Y-127788572D01*
X106104761Y-127788572D02*
X106142856Y-127750477D01*
X106142856Y-127750477D02*
X106219047Y-127712381D01*
X106219047Y-127712381D02*
X106371428Y-127674286D01*
X106371428Y-127674286D02*
X106447618Y-127636191D01*
X106447618Y-127636191D02*
X106485713Y-127598096D01*
X106485713Y-127598096D02*
X106523809Y-127521905D01*
X106523809Y-127521905D02*
X106523809Y-127445715D01*
X106523809Y-127445715D02*
X106485713Y-127369524D01*
X106485713Y-127369524D02*
X106447618Y-127331429D01*
X106447618Y-127331429D02*
X106371428Y-127293334D01*
X106371428Y-127293334D02*
X106180951Y-127293334D01*
X106180951Y-127293334D02*
X106066666Y-127331429D01*
X105723808Y-128093334D02*
X105723808Y-127293334D01*
X105723808Y-127293334D02*
X105266665Y-128093334D01*
X105266665Y-128093334D02*
X105266665Y-127293334D01*
X104923809Y-128055239D02*
X104809523Y-128093334D01*
X104809523Y-128093334D02*
X104619047Y-128093334D01*
X104619047Y-128093334D02*
X104542856Y-128055239D01*
X104542856Y-128055239D02*
X104504761Y-128017143D01*
X104504761Y-128017143D02*
X104466666Y-127940953D01*
X104466666Y-127940953D02*
X104466666Y-127864762D01*
X104466666Y-127864762D02*
X104504761Y-127788572D01*
X104504761Y-127788572D02*
X104542856Y-127750477D01*
X104542856Y-127750477D02*
X104619047Y-127712381D01*
X104619047Y-127712381D02*
X104771428Y-127674286D01*
X104771428Y-127674286D02*
X104847618Y-127636191D01*
X104847618Y-127636191D02*
X104885713Y-127598096D01*
X104885713Y-127598096D02*
X104923809Y-127521905D01*
X104923809Y-127521905D02*
X104923809Y-127445715D01*
X104923809Y-127445715D02*
X104885713Y-127369524D01*
X104885713Y-127369524D02*
X104847618Y-127331429D01*
X104847618Y-127331429D02*
X104771428Y-127293334D01*
X104771428Y-127293334D02*
X104580951Y-127293334D01*
X104580951Y-127293334D02*
X104466666Y-127331429D01*
X104314285Y-128169524D02*
X103704761Y-128169524D01*
X103514284Y-128093334D02*
X103514284Y-127293334D01*
X106104761Y-130557144D02*
X106142857Y-130595240D01*
X106142857Y-130595240D02*
X106257142Y-130633335D01*
X106257142Y-130633335D02*
X106333333Y-130633335D01*
X106333333Y-130633335D02*
X106447619Y-130595240D01*
X106447619Y-130595240D02*
X106523809Y-130519049D01*
X106523809Y-130519049D02*
X106561904Y-130442859D01*
X106561904Y-130442859D02*
X106600000Y-130290478D01*
X106600000Y-130290478D02*
X106600000Y-130176192D01*
X106600000Y-130176192D02*
X106561904Y-130023811D01*
X106561904Y-130023811D02*
X106523809Y-129947620D01*
X106523809Y-129947620D02*
X106447619Y-129871430D01*
X106447619Y-129871430D02*
X106333333Y-129833335D01*
X106333333Y-129833335D02*
X106257142Y-129833335D01*
X106257142Y-129833335D02*
X106142857Y-129871430D01*
X106142857Y-129871430D02*
X106104761Y-129909525D01*
X105761904Y-130633335D02*
X105761904Y-129833335D01*
X105761904Y-129833335D02*
X105495238Y-130404763D01*
X105495238Y-130404763D02*
X105228571Y-129833335D01*
X105228571Y-129833335D02*
X105228571Y-130633335D01*
X104847618Y-130633335D02*
X104847618Y-129833335D01*
X104847618Y-129833335D02*
X104657142Y-129833335D01*
X104657142Y-129833335D02*
X104542856Y-129871430D01*
X104542856Y-129871430D02*
X104466666Y-129947620D01*
X104466666Y-129947620D02*
X104428571Y-130023811D01*
X104428571Y-130023811D02*
X104390475Y-130176192D01*
X104390475Y-130176192D02*
X104390475Y-130290478D01*
X104390475Y-130290478D02*
X104428571Y-130442859D01*
X104428571Y-130442859D02*
X104466666Y-130519049D01*
X104466666Y-130519049D02*
X104542856Y-130595240D01*
X104542856Y-130595240D02*
X104657142Y-130633335D01*
X104657142Y-130633335D02*
X104847618Y-130633335D01*
X104238095Y-130709525D02*
X103628571Y-130709525D01*
X103438094Y-130633335D02*
X103438094Y-129833335D01*
X105609523Y-132411430D02*
X105685713Y-132373335D01*
X105685713Y-132373335D02*
X105799999Y-132373335D01*
X105799999Y-132373335D02*
X105914285Y-132411430D01*
X105914285Y-132411430D02*
X105990475Y-132487620D01*
X105990475Y-132487620D02*
X106028570Y-132563811D01*
X106028570Y-132563811D02*
X106066666Y-132716192D01*
X106066666Y-132716192D02*
X106066666Y-132830478D01*
X106066666Y-132830478D02*
X106028570Y-132982859D01*
X106028570Y-132982859D02*
X105990475Y-133059049D01*
X105990475Y-133059049D02*
X105914285Y-133135240D01*
X105914285Y-133135240D02*
X105799999Y-133173335D01*
X105799999Y-133173335D02*
X105723808Y-133173335D01*
X105723808Y-133173335D02*
X105609523Y-133135240D01*
X105609523Y-133135240D02*
X105571427Y-133097144D01*
X105571427Y-133097144D02*
X105571427Y-132830478D01*
X105571427Y-132830478D02*
X105723808Y-132830478D01*
X105228570Y-133173335D02*
X105228570Y-132373335D01*
X105228570Y-132373335D02*
X104771427Y-133173335D01*
X104771427Y-133173335D02*
X104771427Y-132373335D01*
X104390475Y-133173335D02*
X104390475Y-132373335D01*
X104390475Y-132373335D02*
X104199999Y-132373335D01*
X104199999Y-132373335D02*
X104085713Y-132411430D01*
X104085713Y-132411430D02*
X104009523Y-132487620D01*
X104009523Y-132487620D02*
X103971428Y-132563811D01*
X103971428Y-132563811D02*
X103933332Y-132716192D01*
X103933332Y-132716192D02*
X103933332Y-132830478D01*
X103933332Y-132830478D02*
X103971428Y-132982859D01*
X103971428Y-132982859D02*
X104009523Y-133059049D01*
X104009523Y-133059049D02*
X104085713Y-133135240D01*
X104085713Y-133135240D02*
X104199999Y-133173335D01*
X104199999Y-133173335D02*
X104390475Y-133173335D01*
X109609523Y-102363335D02*
X109609523Y-102934763D01*
X109609523Y-102934763D02*
X109647618Y-103049049D01*
X109647618Y-103049049D02*
X109723809Y-103125240D01*
X109723809Y-103125240D02*
X109838094Y-103163335D01*
X109838094Y-103163335D02*
X109914285Y-103163335D01*
X108809523Y-103163335D02*
X109266666Y-103163335D01*
X109038094Y-103163335D02*
X109038094Y-102363335D01*
X109038094Y-102363335D02*
X109114285Y-102477620D01*
X109114285Y-102477620D02*
X109190475Y-102553811D01*
X109190475Y-102553811D02*
X109266666Y-102591906D01*
X107857141Y-103163335D02*
X107857141Y-102363335D01*
X107019046Y-103163335D02*
X107285713Y-102782382D01*
X107476189Y-103163335D02*
X107476189Y-102363335D01*
X107476189Y-102363335D02*
X107171427Y-102363335D01*
X107171427Y-102363335D02*
X107095237Y-102401430D01*
X107095237Y-102401430D02*
X107057142Y-102439525D01*
X107057142Y-102439525D02*
X107019046Y-102515716D01*
X107019046Y-102515716D02*
X107019046Y-102630001D01*
X107019046Y-102630001D02*
X107057142Y-102706192D01*
X107057142Y-102706192D02*
X107095237Y-102744287D01*
X107095237Y-102744287D02*
X107171427Y-102782382D01*
X107171427Y-102782382D02*
X107476189Y-102782382D01*
X106066665Y-103163335D02*
X106066665Y-102363335D01*
X106066665Y-102363335D02*
X105876189Y-102363335D01*
X105876189Y-102363335D02*
X105761903Y-102401430D01*
X105761903Y-102401430D02*
X105685713Y-102477620D01*
X105685713Y-102477620D02*
X105647618Y-102553811D01*
X105647618Y-102553811D02*
X105609522Y-102706192D01*
X105609522Y-102706192D02*
X105609522Y-102820478D01*
X105609522Y-102820478D02*
X105647618Y-102972859D01*
X105647618Y-102972859D02*
X105685713Y-103049049D01*
X105685713Y-103049049D02*
X105761903Y-103125240D01*
X105761903Y-103125240D02*
X105876189Y-103163335D01*
X105876189Y-103163335D02*
X106066665Y-103163335D01*
X105304761Y-102934763D02*
X104923808Y-102934763D01*
X105380951Y-103163335D02*
X105114284Y-102363335D01*
X105114284Y-102363335D02*
X104847618Y-103163335D01*
X104123808Y-103087144D02*
X104161904Y-103125240D01*
X104161904Y-103125240D02*
X104276189Y-103163335D01*
X104276189Y-103163335D02*
X104352380Y-103163335D01*
X104352380Y-103163335D02*
X104466666Y-103125240D01*
X104466666Y-103125240D02*
X104542856Y-103049049D01*
X104542856Y-103049049D02*
X104580951Y-102972859D01*
X104580951Y-102972859D02*
X104619047Y-102820478D01*
X104619047Y-102820478D02*
X104619047Y-102706192D01*
X104619047Y-102706192D02*
X104580951Y-102553811D01*
X104580951Y-102553811D02*
X104542856Y-102477620D01*
X104542856Y-102477620D02*
X104466666Y-102401430D01*
X104466666Y-102401430D02*
X104352380Y-102363335D01*
X104352380Y-102363335D02*
X104276189Y-102363335D01*
X104276189Y-102363335D02*
X104161904Y-102401430D01*
X104161904Y-102401430D02*
X104123808Y-102439525D01*
X110542857Y-124034763D02*
X110161904Y-124034763D01*
X110619047Y-124263335D02*
X110352380Y-123463335D01*
X110352380Y-123463335D02*
X110085714Y-124263335D01*
X109819047Y-124263335D02*
X109819047Y-123463335D01*
X109819047Y-123463335D02*
X109552381Y-124034763D01*
X109552381Y-124034763D02*
X109285714Y-123463335D01*
X109285714Y-123463335D02*
X109285714Y-124263335D01*
X108904761Y-124263335D02*
X108904761Y-123463335D01*
X108904761Y-123463335D02*
X108599999Y-123463335D01*
X108599999Y-123463335D02*
X108523809Y-123501430D01*
X108523809Y-123501430D02*
X108485714Y-123539525D01*
X108485714Y-123539525D02*
X108447618Y-123615716D01*
X108447618Y-123615716D02*
X108447618Y-123730001D01*
X108447618Y-123730001D02*
X108485714Y-123806192D01*
X108485714Y-123806192D02*
X108523809Y-123844287D01*
X108523809Y-123844287D02*
X108599999Y-123882382D01*
X108599999Y-123882382D02*
X108904761Y-123882382D01*
X108295238Y-124339525D02*
X107685714Y-124339525D01*
X107495237Y-124263335D02*
X107495237Y-123463335D01*
X113847618Y-105363335D02*
X113847618Y-104563335D01*
X113009523Y-105363335D02*
X113276190Y-104982382D01*
X113466666Y-105363335D02*
X113466666Y-104563335D01*
X113466666Y-104563335D02*
X113161904Y-104563335D01*
X113161904Y-104563335D02*
X113085714Y-104601430D01*
X113085714Y-104601430D02*
X113047619Y-104639525D01*
X113047619Y-104639525D02*
X113009523Y-104715716D01*
X113009523Y-104715716D02*
X113009523Y-104830001D01*
X113009523Y-104830001D02*
X113047619Y-104906192D01*
X113047619Y-104906192D02*
X113085714Y-104944287D01*
X113085714Y-104944287D02*
X113161904Y-104982382D01*
X113161904Y-104982382D02*
X113466666Y-104982382D01*
X112857143Y-105439525D02*
X112247619Y-105439525D01*
X111904761Y-104563335D02*
X111752380Y-104563335D01*
X111752380Y-104563335D02*
X111676190Y-104601430D01*
X111676190Y-104601430D02*
X111599999Y-104677620D01*
X111599999Y-104677620D02*
X111561904Y-104830001D01*
X111561904Y-104830001D02*
X111561904Y-105096668D01*
X111561904Y-105096668D02*
X111599999Y-105249049D01*
X111599999Y-105249049D02*
X111676190Y-105325240D01*
X111676190Y-105325240D02*
X111752380Y-105363335D01*
X111752380Y-105363335D02*
X111904761Y-105363335D01*
X111904761Y-105363335D02*
X111980952Y-105325240D01*
X111980952Y-105325240D02*
X112057142Y-105249049D01*
X112057142Y-105249049D02*
X112095238Y-105096668D01*
X112095238Y-105096668D02*
X112095238Y-104830001D01*
X112095238Y-104830001D02*
X112057142Y-104677620D01*
X112057142Y-104677620D02*
X111980952Y-104601430D01*
X111980952Y-104601430D02*
X111904761Y-104563335D01*
X111219047Y-104563335D02*
X111219047Y-105210954D01*
X111219047Y-105210954D02*
X111180952Y-105287144D01*
X111180952Y-105287144D02*
X111142857Y-105325240D01*
X111142857Y-105325240D02*
X111066666Y-105363335D01*
X111066666Y-105363335D02*
X110914285Y-105363335D01*
X110914285Y-105363335D02*
X110838095Y-105325240D01*
X110838095Y-105325240D02*
X110800000Y-105287144D01*
X110800000Y-105287144D02*
X110761904Y-105210954D01*
X110761904Y-105210954D02*
X110761904Y-104563335D01*
X110495238Y-104563335D02*
X110038095Y-104563335D01*
X110266667Y-105363335D02*
X110266667Y-104563335D01*
X112609523Y-107141430D02*
X112685713Y-107103335D01*
X112685713Y-107103335D02*
X112799999Y-107103335D01*
X112799999Y-107103335D02*
X112914285Y-107141430D01*
X112914285Y-107141430D02*
X112990475Y-107217620D01*
X112990475Y-107217620D02*
X113028570Y-107293811D01*
X113028570Y-107293811D02*
X113066666Y-107446192D01*
X113066666Y-107446192D02*
X113066666Y-107560478D01*
X113066666Y-107560478D02*
X113028570Y-107712859D01*
X113028570Y-107712859D02*
X112990475Y-107789049D01*
X112990475Y-107789049D02*
X112914285Y-107865240D01*
X112914285Y-107865240D02*
X112799999Y-107903335D01*
X112799999Y-107903335D02*
X112723808Y-107903335D01*
X112723808Y-107903335D02*
X112609523Y-107865240D01*
X112609523Y-107865240D02*
X112571427Y-107827144D01*
X112571427Y-107827144D02*
X112571427Y-107560478D01*
X112571427Y-107560478D02*
X112723808Y-107560478D01*
X112228570Y-107903335D02*
X112228570Y-107103335D01*
X112228570Y-107103335D02*
X111771427Y-107903335D01*
X111771427Y-107903335D02*
X111771427Y-107103335D01*
X111390475Y-107903335D02*
X111390475Y-107103335D01*
X111390475Y-107103335D02*
X111199999Y-107103335D01*
X111199999Y-107103335D02*
X111085713Y-107141430D01*
X111085713Y-107141430D02*
X111009523Y-107217620D01*
X111009523Y-107217620D02*
X110971428Y-107293811D01*
X110971428Y-107293811D02*
X110933332Y-107446192D01*
X110933332Y-107446192D02*
X110933332Y-107560478D01*
X110933332Y-107560478D02*
X110971428Y-107712859D01*
X110971428Y-107712859D02*
X111009523Y-107789049D01*
X111009523Y-107789049D02*
X111085713Y-107865240D01*
X111085713Y-107865240D02*
X111199999Y-107903335D01*
X111199999Y-107903335D02*
X111390475Y-107903335D01*
X112952381Y-110405240D02*
X112838095Y-110443335D01*
X112838095Y-110443335D02*
X112647619Y-110443335D01*
X112647619Y-110443335D02*
X112571428Y-110405240D01*
X112571428Y-110405240D02*
X112533333Y-110367144D01*
X112533333Y-110367144D02*
X112495238Y-110290954D01*
X112495238Y-110290954D02*
X112495238Y-110214763D01*
X112495238Y-110214763D02*
X112533333Y-110138573D01*
X112533333Y-110138573D02*
X112571428Y-110100478D01*
X112571428Y-110100478D02*
X112647619Y-110062382D01*
X112647619Y-110062382D02*
X112800000Y-110024287D01*
X112800000Y-110024287D02*
X112876190Y-109986192D01*
X112876190Y-109986192D02*
X112914285Y-109948097D01*
X112914285Y-109948097D02*
X112952381Y-109871906D01*
X112952381Y-109871906D02*
X112952381Y-109795716D01*
X112952381Y-109795716D02*
X112914285Y-109719525D01*
X112914285Y-109719525D02*
X112876190Y-109681430D01*
X112876190Y-109681430D02*
X112800000Y-109643335D01*
X112800000Y-109643335D02*
X112609523Y-109643335D01*
X112609523Y-109643335D02*
X112495238Y-109681430D01*
X111695237Y-110367144D02*
X111733333Y-110405240D01*
X111733333Y-110405240D02*
X111847618Y-110443335D01*
X111847618Y-110443335D02*
X111923809Y-110443335D01*
X111923809Y-110443335D02*
X112038095Y-110405240D01*
X112038095Y-110405240D02*
X112114285Y-110329049D01*
X112114285Y-110329049D02*
X112152380Y-110252859D01*
X112152380Y-110252859D02*
X112190476Y-110100478D01*
X112190476Y-110100478D02*
X112190476Y-109986192D01*
X112190476Y-109986192D02*
X112152380Y-109833811D01*
X112152380Y-109833811D02*
X112114285Y-109757620D01*
X112114285Y-109757620D02*
X112038095Y-109681430D01*
X112038095Y-109681430D02*
X111923809Y-109643335D01*
X111923809Y-109643335D02*
X111847618Y-109643335D01*
X111847618Y-109643335D02*
X111733333Y-109681430D01*
X111733333Y-109681430D02*
X111695237Y-109719525D01*
X110971428Y-110443335D02*
X111352380Y-110443335D01*
X111352380Y-110443335D02*
X111352380Y-109643335D01*
X112971428Y-112945240D02*
X112857142Y-112983335D01*
X112857142Y-112983335D02*
X112666666Y-112983335D01*
X112666666Y-112983335D02*
X112590475Y-112945240D01*
X112590475Y-112945240D02*
X112552380Y-112907144D01*
X112552380Y-112907144D02*
X112514285Y-112830954D01*
X112514285Y-112830954D02*
X112514285Y-112754763D01*
X112514285Y-112754763D02*
X112552380Y-112678573D01*
X112552380Y-112678573D02*
X112590475Y-112640478D01*
X112590475Y-112640478D02*
X112666666Y-112602382D01*
X112666666Y-112602382D02*
X112819047Y-112564287D01*
X112819047Y-112564287D02*
X112895237Y-112526192D01*
X112895237Y-112526192D02*
X112933332Y-112488097D01*
X112933332Y-112488097D02*
X112971428Y-112411906D01*
X112971428Y-112411906D02*
X112971428Y-112335716D01*
X112971428Y-112335716D02*
X112933332Y-112259525D01*
X112933332Y-112259525D02*
X112895237Y-112221430D01*
X112895237Y-112221430D02*
X112819047Y-112183335D01*
X112819047Y-112183335D02*
X112628570Y-112183335D01*
X112628570Y-112183335D02*
X112514285Y-112221430D01*
X112171427Y-112983335D02*
X112171427Y-112183335D01*
X112171427Y-112183335D02*
X111980951Y-112183335D01*
X111980951Y-112183335D02*
X111866665Y-112221430D01*
X111866665Y-112221430D02*
X111790475Y-112297620D01*
X111790475Y-112297620D02*
X111752380Y-112373811D01*
X111752380Y-112373811D02*
X111714284Y-112526192D01*
X111714284Y-112526192D02*
X111714284Y-112640478D01*
X111714284Y-112640478D02*
X111752380Y-112792859D01*
X111752380Y-112792859D02*
X111790475Y-112869049D01*
X111790475Y-112869049D02*
X111866665Y-112945240D01*
X111866665Y-112945240D02*
X111980951Y-112983335D01*
X111980951Y-112983335D02*
X112171427Y-112983335D01*
X111409523Y-112754763D02*
X111028570Y-112754763D01*
X111485713Y-112983335D02*
X111219046Y-112183335D01*
X111219046Y-112183335D02*
X110952380Y-112983335D01*
X112990476Y-114723335D02*
X112495238Y-114723335D01*
X112495238Y-114723335D02*
X112761904Y-115028097D01*
X112761904Y-115028097D02*
X112647619Y-115028097D01*
X112647619Y-115028097D02*
X112571428Y-115066192D01*
X112571428Y-115066192D02*
X112533333Y-115104287D01*
X112533333Y-115104287D02*
X112495238Y-115180478D01*
X112495238Y-115180478D02*
X112495238Y-115370954D01*
X112495238Y-115370954D02*
X112533333Y-115447144D01*
X112533333Y-115447144D02*
X112571428Y-115485240D01*
X112571428Y-115485240D02*
X112647619Y-115523335D01*
X112647619Y-115523335D02*
X112876190Y-115523335D01*
X112876190Y-115523335D02*
X112952381Y-115485240D01*
X112952381Y-115485240D02*
X112990476Y-115447144D01*
X112266666Y-114723335D02*
X111999999Y-115523335D01*
X111999999Y-115523335D02*
X111733333Y-114723335D01*
X111542857Y-114723335D02*
X111047619Y-114723335D01*
X111047619Y-114723335D02*
X111314285Y-115028097D01*
X111314285Y-115028097D02*
X111200000Y-115028097D01*
X111200000Y-115028097D02*
X111123809Y-115066192D01*
X111123809Y-115066192D02*
X111085714Y-115104287D01*
X111085714Y-115104287D02*
X111047619Y-115180478D01*
X111047619Y-115180478D02*
X111047619Y-115370954D01*
X111047619Y-115370954D02*
X111085714Y-115447144D01*
X111085714Y-115447144D02*
X111123809Y-115485240D01*
X111123809Y-115485240D02*
X111200000Y-115523335D01*
X111200000Y-115523335D02*
X111428571Y-115523335D01*
X111428571Y-115523335D02*
X111504762Y-115485240D01*
X111504762Y-115485240D02*
X111542857Y-115447144D01*
X112609523Y-117301430D02*
X112685713Y-117263335D01*
X112685713Y-117263335D02*
X112799999Y-117263335D01*
X112799999Y-117263335D02*
X112914285Y-117301430D01*
X112914285Y-117301430D02*
X112990475Y-117377620D01*
X112990475Y-117377620D02*
X113028570Y-117453811D01*
X113028570Y-117453811D02*
X113066666Y-117606192D01*
X113066666Y-117606192D02*
X113066666Y-117720478D01*
X113066666Y-117720478D02*
X113028570Y-117872859D01*
X113028570Y-117872859D02*
X112990475Y-117949049D01*
X112990475Y-117949049D02*
X112914285Y-118025240D01*
X112914285Y-118025240D02*
X112799999Y-118063335D01*
X112799999Y-118063335D02*
X112723808Y-118063335D01*
X112723808Y-118063335D02*
X112609523Y-118025240D01*
X112609523Y-118025240D02*
X112571427Y-117987144D01*
X112571427Y-117987144D02*
X112571427Y-117720478D01*
X112571427Y-117720478D02*
X112723808Y-117720478D01*
X112228570Y-118063335D02*
X112228570Y-117263335D01*
X112228570Y-117263335D02*
X111771427Y-118063335D01*
X111771427Y-118063335D02*
X111771427Y-117263335D01*
X111390475Y-118063335D02*
X111390475Y-117263335D01*
X111390475Y-117263335D02*
X111199999Y-117263335D01*
X111199999Y-117263335D02*
X111085713Y-117301430D01*
X111085713Y-117301430D02*
X111009523Y-117377620D01*
X111009523Y-117377620D02*
X110971428Y-117453811D01*
X110971428Y-117453811D02*
X110933332Y-117606192D01*
X110933332Y-117606192D02*
X110933332Y-117720478D01*
X110933332Y-117720478D02*
X110971428Y-117872859D01*
X110971428Y-117872859D02*
X111009523Y-117949049D01*
X111009523Y-117949049D02*
X111085713Y-118025240D01*
X111085713Y-118025240D02*
X111199999Y-118063335D01*
X111199999Y-118063335D02*
X111390475Y-118063335D01*
X118171428Y-138644287D02*
X117904762Y-138644287D01*
X117790476Y-139063335D02*
X118171428Y-139063335D01*
X118171428Y-139063335D02*
X118171428Y-138263335D01*
X118171428Y-138263335D02*
X117790476Y-138263335D01*
X123968571Y-134639525D02*
X124044761Y-134601430D01*
X124044761Y-134601430D02*
X124120952Y-134525240D01*
X124120952Y-134525240D02*
X124235238Y-134410954D01*
X124235238Y-134410954D02*
X124311428Y-134372859D01*
X124311428Y-134372859D02*
X124387619Y-134372859D01*
X124349523Y-134563335D02*
X124425714Y-134525240D01*
X124425714Y-134525240D02*
X124501904Y-134449049D01*
X124501904Y-134449049D02*
X124540000Y-134296668D01*
X124540000Y-134296668D02*
X124540000Y-134030001D01*
X124540000Y-134030001D02*
X124501904Y-133877620D01*
X124501904Y-133877620D02*
X124425714Y-133801430D01*
X124425714Y-133801430D02*
X124349523Y-133763335D01*
X124349523Y-133763335D02*
X124197142Y-133763335D01*
X124197142Y-133763335D02*
X124120952Y-133801430D01*
X124120952Y-133801430D02*
X124044761Y-133877620D01*
X124044761Y-133877620D02*
X124006666Y-134030001D01*
X124006666Y-134030001D02*
X124006666Y-134296668D01*
X124006666Y-134296668D02*
X124044761Y-134449049D01*
X124044761Y-134449049D02*
X124120952Y-134525240D01*
X124120952Y-134525240D02*
X124197142Y-134563335D01*
X124197142Y-134563335D02*
X124349523Y-134563335D01*
X123244762Y-134563335D02*
X123701905Y-134563335D01*
X123473333Y-134563335D02*
X123473333Y-133763335D01*
X123473333Y-133763335D02*
X123549524Y-133877620D01*
X123549524Y-133877620D02*
X123625714Y-133953811D01*
X123625714Y-133953811D02*
X123701905Y-133991906D01*
X122292380Y-134563335D02*
X122292380Y-133763335D01*
X121454285Y-134563335D02*
X121720952Y-134182382D01*
X121911428Y-134563335D02*
X121911428Y-133763335D01*
X121911428Y-133763335D02*
X121606666Y-133763335D01*
X121606666Y-133763335D02*
X121530476Y-133801430D01*
X121530476Y-133801430D02*
X121492381Y-133839525D01*
X121492381Y-133839525D02*
X121454285Y-133915716D01*
X121454285Y-133915716D02*
X121454285Y-134030001D01*
X121454285Y-134030001D02*
X121492381Y-134106192D01*
X121492381Y-134106192D02*
X121530476Y-134144287D01*
X121530476Y-134144287D02*
X121606666Y-134182382D01*
X121606666Y-134182382D02*
X121911428Y-134182382D01*
X120501904Y-134144287D02*
X120235238Y-134144287D01*
X120120952Y-134563335D02*
X120501904Y-134563335D01*
X120501904Y-134563335D02*
X120501904Y-133763335D01*
X120501904Y-133763335D02*
X120120952Y-133763335D01*
X119778094Y-134258573D02*
X119168571Y-134258573D01*
X118520952Y-134144287D02*
X118406666Y-134182382D01*
X118406666Y-134182382D02*
X118368571Y-134220478D01*
X118368571Y-134220478D02*
X118330475Y-134296668D01*
X118330475Y-134296668D02*
X118330475Y-134410954D01*
X118330475Y-134410954D02*
X118368571Y-134487144D01*
X118368571Y-134487144D02*
X118406666Y-134525240D01*
X118406666Y-134525240D02*
X118482856Y-134563335D01*
X118482856Y-134563335D02*
X118787618Y-134563335D01*
X118787618Y-134563335D02*
X118787618Y-133763335D01*
X118787618Y-133763335D02*
X118520952Y-133763335D01*
X118520952Y-133763335D02*
X118444761Y-133801430D01*
X118444761Y-133801430D02*
X118406666Y-133839525D01*
X118406666Y-133839525D02*
X118368571Y-133915716D01*
X118368571Y-133915716D02*
X118368571Y-133991906D01*
X118368571Y-133991906D02*
X118406666Y-134068097D01*
X118406666Y-134068097D02*
X118444761Y-134106192D01*
X118444761Y-134106192D02*
X118520952Y-134144287D01*
X118520952Y-134144287D02*
X118787618Y-134144287D01*
X117987618Y-134258573D02*
X117378095Y-134258573D01*
X116539999Y-134487144D02*
X116578095Y-134525240D01*
X116578095Y-134525240D02*
X116692380Y-134563335D01*
X116692380Y-134563335D02*
X116768571Y-134563335D01*
X116768571Y-134563335D02*
X116882857Y-134525240D01*
X116882857Y-134525240D02*
X116959047Y-134449049D01*
X116959047Y-134449049D02*
X116997142Y-134372859D01*
X116997142Y-134372859D02*
X117035238Y-134220478D01*
X117035238Y-134220478D02*
X117035238Y-134106192D01*
X117035238Y-134106192D02*
X116997142Y-133953811D01*
X116997142Y-133953811D02*
X116959047Y-133877620D01*
X116959047Y-133877620D02*
X116882857Y-133801430D01*
X116882857Y-133801430D02*
X116768571Y-133763335D01*
X116768571Y-133763335D02*
X116692380Y-133763335D01*
X116692380Y-133763335D02*
X116578095Y-133801430D01*
X116578095Y-133801430D02*
X116539999Y-133839525D01*
X120482857Y-138644287D02*
X120368571Y-138682382D01*
X120368571Y-138682382D02*
X120330476Y-138720478D01*
X120330476Y-138720478D02*
X120292380Y-138796668D01*
X120292380Y-138796668D02*
X120292380Y-138910954D01*
X120292380Y-138910954D02*
X120330476Y-138987144D01*
X120330476Y-138987144D02*
X120368571Y-139025240D01*
X120368571Y-139025240D02*
X120444761Y-139063335D01*
X120444761Y-139063335D02*
X120749523Y-139063335D01*
X120749523Y-139063335D02*
X120749523Y-138263335D01*
X120749523Y-138263335D02*
X120482857Y-138263335D01*
X120482857Y-138263335D02*
X120406666Y-138301430D01*
X120406666Y-138301430D02*
X120368571Y-138339525D01*
X120368571Y-138339525D02*
X120330476Y-138415716D01*
X120330476Y-138415716D02*
X120330476Y-138491906D01*
X120330476Y-138491906D02*
X120368571Y-138568097D01*
X120368571Y-138568097D02*
X120406666Y-138606192D01*
X120406666Y-138606192D02*
X120482857Y-138644287D01*
X120482857Y-138644287D02*
X120749523Y-138644287D01*
X123685714Y-146634763D02*
X123304761Y-146634763D01*
X123761904Y-146863335D02*
X123495237Y-146063335D01*
X123495237Y-146063335D02*
X123228571Y-146863335D01*
X122961904Y-146558573D02*
X122352381Y-146558573D01*
X122657142Y-146863335D02*
X122657142Y-146253811D01*
X122832380Y-138987144D02*
X122870476Y-139025240D01*
X122870476Y-139025240D02*
X122984761Y-139063335D01*
X122984761Y-139063335D02*
X123060952Y-139063335D01*
X123060952Y-139063335D02*
X123175238Y-139025240D01*
X123175238Y-139025240D02*
X123251428Y-138949049D01*
X123251428Y-138949049D02*
X123289523Y-138872859D01*
X123289523Y-138872859D02*
X123327619Y-138720478D01*
X123327619Y-138720478D02*
X123327619Y-138606192D01*
X123327619Y-138606192D02*
X123289523Y-138453811D01*
X123289523Y-138453811D02*
X123251428Y-138377620D01*
X123251428Y-138377620D02*
X123175238Y-138301430D01*
X123175238Y-138301430D02*
X123060952Y-138263335D01*
X123060952Y-138263335D02*
X122984761Y-138263335D01*
X122984761Y-138263335D02*
X122870476Y-138301430D01*
X122870476Y-138301430D02*
X122832380Y-138339525D01*
X126822381Y-142763335D02*
X126822381Y-143334763D01*
X126822381Y-143334763D02*
X126860476Y-143449049D01*
X126860476Y-143449049D02*
X126936667Y-143525240D01*
X126936667Y-143525240D02*
X127050952Y-143563335D01*
X127050952Y-143563335D02*
X127127143Y-143563335D01*
X126060476Y-142763335D02*
X126441428Y-142763335D01*
X126441428Y-142763335D02*
X126479524Y-143144287D01*
X126479524Y-143144287D02*
X126441428Y-143106192D01*
X126441428Y-143106192D02*
X126365238Y-143068097D01*
X126365238Y-143068097D02*
X126174762Y-143068097D01*
X126174762Y-143068097D02*
X126098571Y-143106192D01*
X126098571Y-143106192D02*
X126060476Y-143144287D01*
X126060476Y-143144287D02*
X126022381Y-143220478D01*
X126022381Y-143220478D02*
X126022381Y-143410954D01*
X126022381Y-143410954D02*
X126060476Y-143487144D01*
X126060476Y-143487144D02*
X126098571Y-143525240D01*
X126098571Y-143525240D02*
X126174762Y-143563335D01*
X126174762Y-143563335D02*
X126365238Y-143563335D01*
X126365238Y-143563335D02*
X126441428Y-143525240D01*
X126441428Y-143525240D02*
X126479524Y-143487144D01*
X125069999Y-143563335D02*
X125069999Y-142763335D01*
X124231904Y-143563335D02*
X124498571Y-143182382D01*
X124689047Y-143563335D02*
X124689047Y-142763335D01*
X124689047Y-142763335D02*
X124384285Y-142763335D01*
X124384285Y-142763335D02*
X124308095Y-142801430D01*
X124308095Y-142801430D02*
X124270000Y-142839525D01*
X124270000Y-142839525D02*
X124231904Y-142915716D01*
X124231904Y-142915716D02*
X124231904Y-143030001D01*
X124231904Y-143030001D02*
X124270000Y-143106192D01*
X124270000Y-143106192D02*
X124308095Y-143144287D01*
X124308095Y-143144287D02*
X124384285Y-143182382D01*
X124384285Y-143182382D02*
X124689047Y-143182382D01*
X122898571Y-143563335D02*
X123279523Y-143563335D01*
X123279523Y-143563335D02*
X123279523Y-142763335D01*
X122631904Y-143144287D02*
X122365238Y-143144287D01*
X122250952Y-143563335D02*
X122631904Y-143563335D01*
X122631904Y-143563335D02*
X122631904Y-142763335D01*
X122631904Y-142763335D02*
X122250952Y-142763335D01*
X121908094Y-143563335D02*
X121908094Y-142763335D01*
X121908094Y-142763335D02*
X121717618Y-142763335D01*
X121717618Y-142763335D02*
X121603332Y-142801430D01*
X121603332Y-142801430D02*
X121527142Y-142877620D01*
X121527142Y-142877620D02*
X121489047Y-142953811D01*
X121489047Y-142953811D02*
X121450951Y-143106192D01*
X121450951Y-143106192D02*
X121450951Y-143220478D01*
X121450951Y-143220478D02*
X121489047Y-143372859D01*
X121489047Y-143372859D02*
X121527142Y-143449049D01*
X121527142Y-143449049D02*
X121603332Y-143525240D01*
X121603332Y-143525240D02*
X121717618Y-143563335D01*
X121717618Y-143563335D02*
X121908094Y-143563335D01*
X126244761Y-146863335D02*
X126244761Y-146063335D01*
X125787618Y-146863335D02*
X126130476Y-146406192D01*
X125787618Y-146063335D02*
X126244761Y-146520478D01*
X125444761Y-146558573D02*
X124835238Y-146558573D01*
X130161904Y-102363335D02*
X130161904Y-102934763D01*
X130161904Y-102934763D02*
X130199999Y-103049049D01*
X130199999Y-103049049D02*
X130276190Y-103125240D01*
X130276190Y-103125240D02*
X130390475Y-103163335D01*
X130390475Y-103163335D02*
X130466666Y-103163335D01*
X129819047Y-102439525D02*
X129780951Y-102401430D01*
X129780951Y-102401430D02*
X129704761Y-102363335D01*
X129704761Y-102363335D02*
X129514285Y-102363335D01*
X129514285Y-102363335D02*
X129438094Y-102401430D01*
X129438094Y-102401430D02*
X129399999Y-102439525D01*
X129399999Y-102439525D02*
X129361904Y-102515716D01*
X129361904Y-102515716D02*
X129361904Y-102591906D01*
X129361904Y-102591906D02*
X129399999Y-102706192D01*
X129399999Y-102706192D02*
X129857142Y-103163335D01*
X129857142Y-103163335D02*
X129361904Y-103163335D01*
X128409522Y-103163335D02*
X128409522Y-102363335D01*
X128409522Y-102363335D02*
X128104760Y-102363335D01*
X128104760Y-102363335D02*
X128028570Y-102401430D01*
X128028570Y-102401430D02*
X127990475Y-102439525D01*
X127990475Y-102439525D02*
X127952379Y-102515716D01*
X127952379Y-102515716D02*
X127952379Y-102630001D01*
X127952379Y-102630001D02*
X127990475Y-102706192D01*
X127990475Y-102706192D02*
X128028570Y-102744287D01*
X128028570Y-102744287D02*
X128104760Y-102782382D01*
X128104760Y-102782382D02*
X128409522Y-102782382D01*
X127609522Y-103163335D02*
X127609522Y-102363335D01*
X135847618Y-105363335D02*
X135847618Y-104563335D01*
X135009523Y-105363335D02*
X135276190Y-104982382D01*
X135466666Y-105363335D02*
X135466666Y-104563335D01*
X135466666Y-104563335D02*
X135161904Y-104563335D01*
X135161904Y-104563335D02*
X135085714Y-104601430D01*
X135085714Y-104601430D02*
X135047619Y-104639525D01*
X135047619Y-104639525D02*
X135009523Y-104715716D01*
X135009523Y-104715716D02*
X135009523Y-104830001D01*
X135009523Y-104830001D02*
X135047619Y-104906192D01*
X135047619Y-104906192D02*
X135085714Y-104944287D01*
X135085714Y-104944287D02*
X135161904Y-104982382D01*
X135161904Y-104982382D02*
X135466666Y-104982382D01*
X134857143Y-105439525D02*
X134247619Y-105439525D01*
X133904761Y-104563335D02*
X133752380Y-104563335D01*
X133752380Y-104563335D02*
X133676190Y-104601430D01*
X133676190Y-104601430D02*
X133599999Y-104677620D01*
X133599999Y-104677620D02*
X133561904Y-104830001D01*
X133561904Y-104830001D02*
X133561904Y-105096668D01*
X133561904Y-105096668D02*
X133599999Y-105249049D01*
X133599999Y-105249049D02*
X133676190Y-105325240D01*
X133676190Y-105325240D02*
X133752380Y-105363335D01*
X133752380Y-105363335D02*
X133904761Y-105363335D01*
X133904761Y-105363335D02*
X133980952Y-105325240D01*
X133980952Y-105325240D02*
X134057142Y-105249049D01*
X134057142Y-105249049D02*
X134095238Y-105096668D01*
X134095238Y-105096668D02*
X134095238Y-104830001D01*
X134095238Y-104830001D02*
X134057142Y-104677620D01*
X134057142Y-104677620D02*
X133980952Y-104601430D01*
X133980952Y-104601430D02*
X133904761Y-104563335D01*
X133219047Y-104563335D02*
X133219047Y-105210954D01*
X133219047Y-105210954D02*
X133180952Y-105287144D01*
X133180952Y-105287144D02*
X133142857Y-105325240D01*
X133142857Y-105325240D02*
X133066666Y-105363335D01*
X133066666Y-105363335D02*
X132914285Y-105363335D01*
X132914285Y-105363335D02*
X132838095Y-105325240D01*
X132838095Y-105325240D02*
X132800000Y-105287144D01*
X132800000Y-105287144D02*
X132761904Y-105210954D01*
X132761904Y-105210954D02*
X132761904Y-104563335D01*
X132495238Y-104563335D02*
X132038095Y-104563335D01*
X132266667Y-105363335D02*
X132266667Y-104563335D01*
X134609523Y-107141430D02*
X134685713Y-107103335D01*
X134685713Y-107103335D02*
X134799999Y-107103335D01*
X134799999Y-107103335D02*
X134914285Y-107141430D01*
X134914285Y-107141430D02*
X134990475Y-107217620D01*
X134990475Y-107217620D02*
X135028570Y-107293811D01*
X135028570Y-107293811D02*
X135066666Y-107446192D01*
X135066666Y-107446192D02*
X135066666Y-107560478D01*
X135066666Y-107560478D02*
X135028570Y-107712859D01*
X135028570Y-107712859D02*
X134990475Y-107789049D01*
X134990475Y-107789049D02*
X134914285Y-107865240D01*
X134914285Y-107865240D02*
X134799999Y-107903335D01*
X134799999Y-107903335D02*
X134723808Y-107903335D01*
X134723808Y-107903335D02*
X134609523Y-107865240D01*
X134609523Y-107865240D02*
X134571427Y-107827144D01*
X134571427Y-107827144D02*
X134571427Y-107560478D01*
X134571427Y-107560478D02*
X134723808Y-107560478D01*
X134228570Y-107903335D02*
X134228570Y-107103335D01*
X134228570Y-107103335D02*
X133771427Y-107903335D01*
X133771427Y-107903335D02*
X133771427Y-107103335D01*
X133390475Y-107903335D02*
X133390475Y-107103335D01*
X133390475Y-107103335D02*
X133199999Y-107103335D01*
X133199999Y-107103335D02*
X133085713Y-107141430D01*
X133085713Y-107141430D02*
X133009523Y-107217620D01*
X133009523Y-107217620D02*
X132971428Y-107293811D01*
X132971428Y-107293811D02*
X132933332Y-107446192D01*
X132933332Y-107446192D02*
X132933332Y-107560478D01*
X132933332Y-107560478D02*
X132971428Y-107712859D01*
X132971428Y-107712859D02*
X133009523Y-107789049D01*
X133009523Y-107789049D02*
X133085713Y-107865240D01*
X133085713Y-107865240D02*
X133199999Y-107903335D01*
X133199999Y-107903335D02*
X133390475Y-107903335D01*
X134952381Y-111825240D02*
X134838095Y-111863335D01*
X134838095Y-111863335D02*
X134647619Y-111863335D01*
X134647619Y-111863335D02*
X134571428Y-111825240D01*
X134571428Y-111825240D02*
X134533333Y-111787144D01*
X134533333Y-111787144D02*
X134495238Y-111710954D01*
X134495238Y-111710954D02*
X134495238Y-111634763D01*
X134495238Y-111634763D02*
X134533333Y-111558573D01*
X134533333Y-111558573D02*
X134571428Y-111520478D01*
X134571428Y-111520478D02*
X134647619Y-111482382D01*
X134647619Y-111482382D02*
X134800000Y-111444287D01*
X134800000Y-111444287D02*
X134876190Y-111406192D01*
X134876190Y-111406192D02*
X134914285Y-111368097D01*
X134914285Y-111368097D02*
X134952381Y-111291906D01*
X134952381Y-111291906D02*
X134952381Y-111215716D01*
X134952381Y-111215716D02*
X134914285Y-111139525D01*
X134914285Y-111139525D02*
X134876190Y-111101430D01*
X134876190Y-111101430D02*
X134800000Y-111063335D01*
X134800000Y-111063335D02*
X134609523Y-111063335D01*
X134609523Y-111063335D02*
X134495238Y-111101430D01*
X133695237Y-111787144D02*
X133733333Y-111825240D01*
X133733333Y-111825240D02*
X133847618Y-111863335D01*
X133847618Y-111863335D02*
X133923809Y-111863335D01*
X133923809Y-111863335D02*
X134038095Y-111825240D01*
X134038095Y-111825240D02*
X134114285Y-111749049D01*
X134114285Y-111749049D02*
X134152380Y-111672859D01*
X134152380Y-111672859D02*
X134190476Y-111520478D01*
X134190476Y-111520478D02*
X134190476Y-111406192D01*
X134190476Y-111406192D02*
X134152380Y-111253811D01*
X134152380Y-111253811D02*
X134114285Y-111177620D01*
X134114285Y-111177620D02*
X134038095Y-111101430D01*
X134038095Y-111101430D02*
X133923809Y-111063335D01*
X133923809Y-111063335D02*
X133847618Y-111063335D01*
X133847618Y-111063335D02*
X133733333Y-111101430D01*
X133733333Y-111101430D02*
X133695237Y-111139525D01*
X132971428Y-111863335D02*
X133352380Y-111863335D01*
X133352380Y-111863335D02*
X133352380Y-111063335D01*
X134971428Y-113825240D02*
X134857142Y-113863335D01*
X134857142Y-113863335D02*
X134666666Y-113863335D01*
X134666666Y-113863335D02*
X134590475Y-113825240D01*
X134590475Y-113825240D02*
X134552380Y-113787144D01*
X134552380Y-113787144D02*
X134514285Y-113710954D01*
X134514285Y-113710954D02*
X134514285Y-113634763D01*
X134514285Y-113634763D02*
X134552380Y-113558573D01*
X134552380Y-113558573D02*
X134590475Y-113520478D01*
X134590475Y-113520478D02*
X134666666Y-113482382D01*
X134666666Y-113482382D02*
X134819047Y-113444287D01*
X134819047Y-113444287D02*
X134895237Y-113406192D01*
X134895237Y-113406192D02*
X134933332Y-113368097D01*
X134933332Y-113368097D02*
X134971428Y-113291906D01*
X134971428Y-113291906D02*
X134971428Y-113215716D01*
X134971428Y-113215716D02*
X134933332Y-113139525D01*
X134933332Y-113139525D02*
X134895237Y-113101430D01*
X134895237Y-113101430D02*
X134819047Y-113063335D01*
X134819047Y-113063335D02*
X134628570Y-113063335D01*
X134628570Y-113063335D02*
X134514285Y-113101430D01*
X134171427Y-113863335D02*
X134171427Y-113063335D01*
X134171427Y-113063335D02*
X133980951Y-113063335D01*
X133980951Y-113063335D02*
X133866665Y-113101430D01*
X133866665Y-113101430D02*
X133790475Y-113177620D01*
X133790475Y-113177620D02*
X133752380Y-113253811D01*
X133752380Y-113253811D02*
X133714284Y-113406192D01*
X133714284Y-113406192D02*
X133714284Y-113520478D01*
X133714284Y-113520478D02*
X133752380Y-113672859D01*
X133752380Y-113672859D02*
X133790475Y-113749049D01*
X133790475Y-113749049D02*
X133866665Y-113825240D01*
X133866665Y-113825240D02*
X133980951Y-113863335D01*
X133980951Y-113863335D02*
X134171427Y-113863335D01*
X133409523Y-113634763D02*
X133028570Y-113634763D01*
X133485713Y-113863335D02*
X133219046Y-113063335D01*
X133219046Y-113063335D02*
X132952380Y-113863335D01*
X134990476Y-115063335D02*
X134495238Y-115063335D01*
X134495238Y-115063335D02*
X134761904Y-115368097D01*
X134761904Y-115368097D02*
X134647619Y-115368097D01*
X134647619Y-115368097D02*
X134571428Y-115406192D01*
X134571428Y-115406192D02*
X134533333Y-115444287D01*
X134533333Y-115444287D02*
X134495238Y-115520478D01*
X134495238Y-115520478D02*
X134495238Y-115710954D01*
X134495238Y-115710954D02*
X134533333Y-115787144D01*
X134533333Y-115787144D02*
X134571428Y-115825240D01*
X134571428Y-115825240D02*
X134647619Y-115863335D01*
X134647619Y-115863335D02*
X134876190Y-115863335D01*
X134876190Y-115863335D02*
X134952381Y-115825240D01*
X134952381Y-115825240D02*
X134990476Y-115787144D01*
X134266666Y-115063335D02*
X133999999Y-115863335D01*
X133999999Y-115863335D02*
X133733333Y-115063335D01*
X133542857Y-115063335D02*
X133047619Y-115063335D01*
X133047619Y-115063335D02*
X133314285Y-115368097D01*
X133314285Y-115368097D02*
X133200000Y-115368097D01*
X133200000Y-115368097D02*
X133123809Y-115406192D01*
X133123809Y-115406192D02*
X133085714Y-115444287D01*
X133085714Y-115444287D02*
X133047619Y-115520478D01*
X133047619Y-115520478D02*
X133047619Y-115710954D01*
X133047619Y-115710954D02*
X133085714Y-115787144D01*
X133085714Y-115787144D02*
X133123809Y-115825240D01*
X133123809Y-115825240D02*
X133200000Y-115863335D01*
X133200000Y-115863335D02*
X133428571Y-115863335D01*
X133428571Y-115863335D02*
X133504762Y-115825240D01*
X133504762Y-115825240D02*
X133542857Y-115787144D01*
X134609523Y-117101430D02*
X134685713Y-117063335D01*
X134685713Y-117063335D02*
X134799999Y-117063335D01*
X134799999Y-117063335D02*
X134914285Y-117101430D01*
X134914285Y-117101430D02*
X134990475Y-117177620D01*
X134990475Y-117177620D02*
X135028570Y-117253811D01*
X135028570Y-117253811D02*
X135066666Y-117406192D01*
X135066666Y-117406192D02*
X135066666Y-117520478D01*
X135066666Y-117520478D02*
X135028570Y-117672859D01*
X135028570Y-117672859D02*
X134990475Y-117749049D01*
X134990475Y-117749049D02*
X134914285Y-117825240D01*
X134914285Y-117825240D02*
X134799999Y-117863335D01*
X134799999Y-117863335D02*
X134723808Y-117863335D01*
X134723808Y-117863335D02*
X134609523Y-117825240D01*
X134609523Y-117825240D02*
X134571427Y-117787144D01*
X134571427Y-117787144D02*
X134571427Y-117520478D01*
X134571427Y-117520478D02*
X134723808Y-117520478D01*
X134228570Y-117863335D02*
X134228570Y-117063335D01*
X134228570Y-117063335D02*
X133771427Y-117863335D01*
X133771427Y-117863335D02*
X133771427Y-117063335D01*
X133390475Y-117863335D02*
X133390475Y-117063335D01*
X133390475Y-117063335D02*
X133199999Y-117063335D01*
X133199999Y-117063335D02*
X133085713Y-117101430D01*
X133085713Y-117101430D02*
X133009523Y-117177620D01*
X133009523Y-117177620D02*
X132971428Y-117253811D01*
X132971428Y-117253811D02*
X132933332Y-117406192D01*
X132933332Y-117406192D02*
X132933332Y-117520478D01*
X132933332Y-117520478D02*
X132971428Y-117672859D01*
X132971428Y-117672859D02*
X133009523Y-117749049D01*
X133009523Y-117749049D02*
X133085713Y-117825240D01*
X133085713Y-117825240D02*
X133199999Y-117863335D01*
X133199999Y-117863335D02*
X133390475Y-117863335D01*
X134152380Y-146063335D02*
X134533332Y-146063335D01*
X134533332Y-146063335D02*
X134571428Y-146444287D01*
X134571428Y-146444287D02*
X134533332Y-146406192D01*
X134533332Y-146406192D02*
X134457142Y-146368097D01*
X134457142Y-146368097D02*
X134266666Y-146368097D01*
X134266666Y-146368097D02*
X134190475Y-146406192D01*
X134190475Y-146406192D02*
X134152380Y-146444287D01*
X134152380Y-146444287D02*
X134114285Y-146520478D01*
X134114285Y-146520478D02*
X134114285Y-146710954D01*
X134114285Y-146710954D02*
X134152380Y-146787144D01*
X134152380Y-146787144D02*
X134190475Y-146825240D01*
X134190475Y-146825240D02*
X134266666Y-146863335D01*
X134266666Y-146863335D02*
X134457142Y-146863335D01*
X134457142Y-146863335D02*
X134533332Y-146825240D01*
X134533332Y-146825240D02*
X134571428Y-146787144D01*
X133885713Y-146063335D02*
X133619046Y-146863335D01*
X133619046Y-146863335D02*
X133352380Y-146063335D01*
X145800002Y-119763335D02*
X145800002Y-118963335D01*
X145800002Y-118963335D02*
X145342859Y-119763335D01*
X145342859Y-119763335D02*
X145342859Y-118963335D01*
X144619050Y-119230001D02*
X144619050Y-119877620D01*
X144619050Y-119877620D02*
X144657145Y-119953811D01*
X144657145Y-119953811D02*
X144695241Y-119991906D01*
X144695241Y-119991906D02*
X144771431Y-120030001D01*
X144771431Y-120030001D02*
X144885717Y-120030001D01*
X144885717Y-120030001D02*
X144961907Y-119991906D01*
X144619050Y-119725240D02*
X144695241Y-119763335D01*
X144695241Y-119763335D02*
X144847622Y-119763335D01*
X144847622Y-119763335D02*
X144923812Y-119725240D01*
X144923812Y-119725240D02*
X144961907Y-119687144D01*
X144961907Y-119687144D02*
X145000003Y-119610954D01*
X145000003Y-119610954D02*
X145000003Y-119382382D01*
X145000003Y-119382382D02*
X144961907Y-119306192D01*
X144961907Y-119306192D02*
X144923812Y-119268097D01*
X144923812Y-119268097D02*
X144847622Y-119230001D01*
X144847622Y-119230001D02*
X144695241Y-119230001D01*
X144695241Y-119230001D02*
X144619050Y-119268097D01*
X143895240Y-119230001D02*
X143895240Y-119763335D01*
X144238097Y-119230001D02*
X144238097Y-119649049D01*
X144238097Y-119649049D02*
X144200002Y-119725240D01*
X144200002Y-119725240D02*
X144123812Y-119763335D01*
X144123812Y-119763335D02*
X144009526Y-119763335D01*
X144009526Y-119763335D02*
X143933335Y-119725240D01*
X143933335Y-119725240D02*
X143895240Y-119687144D01*
X143590478Y-119230001D02*
X143400002Y-119763335D01*
X143209525Y-119230001D02*
X143400002Y-119763335D01*
X143400002Y-119763335D02*
X143476192Y-119953811D01*
X143476192Y-119953811D02*
X143514287Y-119991906D01*
X143514287Y-119991906D02*
X143590478Y-120030001D01*
X142600001Y-119725240D02*
X142676192Y-119763335D01*
X142676192Y-119763335D02*
X142828573Y-119763335D01*
X142828573Y-119763335D02*
X142904763Y-119725240D01*
X142904763Y-119725240D02*
X142942859Y-119649049D01*
X142942859Y-119649049D02*
X142942859Y-119344287D01*
X142942859Y-119344287D02*
X142904763Y-119268097D01*
X142904763Y-119268097D02*
X142828573Y-119230001D01*
X142828573Y-119230001D02*
X142676192Y-119230001D01*
X142676192Y-119230001D02*
X142600001Y-119268097D01*
X142600001Y-119268097D02*
X142561906Y-119344287D01*
X142561906Y-119344287D02*
X142561906Y-119420478D01*
X142561906Y-119420478D02*
X142942859Y-119496668D01*
X142219049Y-119230001D02*
X142219049Y-119763335D01*
X142219049Y-119306192D02*
X142180954Y-119268097D01*
X142180954Y-119268097D02*
X142104764Y-119230001D01*
X142104764Y-119230001D02*
X141990478Y-119230001D01*
X141990478Y-119230001D02*
X141914287Y-119268097D01*
X141914287Y-119268097D02*
X141876192Y-119344287D01*
X141876192Y-119344287D02*
X141876192Y-119763335D01*
X140885715Y-119763335D02*
X140885715Y-118963335D01*
X140885715Y-118963335D02*
X140428572Y-119763335D01*
X140428572Y-119763335D02*
X140428572Y-118963335D01*
X140047620Y-119763335D02*
X140047620Y-118963335D01*
X139704763Y-119763335D02*
X139704763Y-119344287D01*
X139704763Y-119344287D02*
X139742858Y-119268097D01*
X139742858Y-119268097D02*
X139819049Y-119230001D01*
X139819049Y-119230001D02*
X139933335Y-119230001D01*
X139933335Y-119230001D02*
X140009525Y-119268097D01*
X140009525Y-119268097D02*
X140047620Y-119306192D01*
X138980953Y-119763335D02*
X138980953Y-119344287D01*
X138980953Y-119344287D02*
X139019048Y-119268097D01*
X139019048Y-119268097D02*
X139095239Y-119230001D01*
X139095239Y-119230001D02*
X139247620Y-119230001D01*
X139247620Y-119230001D02*
X139323810Y-119268097D01*
X138980953Y-119725240D02*
X139057144Y-119763335D01*
X139057144Y-119763335D02*
X139247620Y-119763335D01*
X139247620Y-119763335D02*
X139323810Y-119725240D01*
X139323810Y-119725240D02*
X139361906Y-119649049D01*
X139361906Y-119649049D02*
X139361906Y-119572859D01*
X139361906Y-119572859D02*
X139323810Y-119496668D01*
X139323810Y-119496668D02*
X139247620Y-119458573D01*
X139247620Y-119458573D02*
X139057144Y-119458573D01*
X139057144Y-119458573D02*
X138980953Y-119420478D01*
X138714286Y-119230001D02*
X138409524Y-119230001D01*
X138600000Y-118963335D02*
X138600000Y-119649049D01*
X138600000Y-119649049D02*
X138561905Y-119725240D01*
X138561905Y-119725240D02*
X138485715Y-119763335D01*
X138485715Y-119763335D02*
X138409524Y-119763335D01*
X137533333Y-119763335D02*
X137533333Y-118963335D01*
X137533333Y-119344287D02*
X137076190Y-119344287D01*
X137076190Y-119763335D02*
X137076190Y-118963335D01*
X136352381Y-119230001D02*
X136352381Y-119763335D01*
X136695238Y-119230001D02*
X136695238Y-119649049D01*
X136695238Y-119649049D02*
X136657143Y-119725240D01*
X136657143Y-119725240D02*
X136580953Y-119763335D01*
X136580953Y-119763335D02*
X136466667Y-119763335D01*
X136466667Y-119763335D02*
X136390476Y-119725240D01*
X136390476Y-119725240D02*
X136352381Y-119687144D01*
X136047619Y-119230001D02*
X135857143Y-119763335D01*
X135666666Y-119230001D02*
X135857143Y-119763335D01*
X135857143Y-119763335D02*
X135933333Y-119953811D01*
X135933333Y-119953811D02*
X135971428Y-119991906D01*
X135971428Y-119991906D02*
X136047619Y-120030001D01*
X134752380Y-119458573D02*
X134142857Y-119458573D01*
X133152380Y-119763335D02*
X133152380Y-118963335D01*
X133152380Y-118963335D02*
X132847618Y-118963335D01*
X132847618Y-118963335D02*
X132771428Y-119001430D01*
X132771428Y-119001430D02*
X132733333Y-119039525D01*
X132733333Y-119039525D02*
X132695237Y-119115716D01*
X132695237Y-119115716D02*
X132695237Y-119230001D01*
X132695237Y-119230001D02*
X132733333Y-119306192D01*
X132733333Y-119306192D02*
X132771428Y-119344287D01*
X132771428Y-119344287D02*
X132847618Y-119382382D01*
X132847618Y-119382382D02*
X133152380Y-119382382D01*
X132352380Y-119763335D02*
X132352380Y-118963335D01*
X132009523Y-119763335D02*
X132009523Y-119344287D01*
X132009523Y-119344287D02*
X132047618Y-119268097D01*
X132047618Y-119268097D02*
X132123809Y-119230001D01*
X132123809Y-119230001D02*
X132238095Y-119230001D01*
X132238095Y-119230001D02*
X132314285Y-119268097D01*
X132314285Y-119268097D02*
X132352380Y-119306192D01*
X131285713Y-119763335D02*
X131285713Y-119344287D01*
X131285713Y-119344287D02*
X131323808Y-119268097D01*
X131323808Y-119268097D02*
X131399999Y-119230001D01*
X131399999Y-119230001D02*
X131552380Y-119230001D01*
X131552380Y-119230001D02*
X131628570Y-119268097D01*
X131285713Y-119725240D02*
X131361904Y-119763335D01*
X131361904Y-119763335D02*
X131552380Y-119763335D01*
X131552380Y-119763335D02*
X131628570Y-119725240D01*
X131628570Y-119725240D02*
X131666666Y-119649049D01*
X131666666Y-119649049D02*
X131666666Y-119572859D01*
X131666666Y-119572859D02*
X131628570Y-119496668D01*
X131628570Y-119496668D02*
X131552380Y-119458573D01*
X131552380Y-119458573D02*
X131361904Y-119458573D01*
X131361904Y-119458573D02*
X131285713Y-119420478D01*
X130904760Y-119763335D02*
X130904760Y-119230001D01*
X130904760Y-119306192D02*
X130866665Y-119268097D01*
X130866665Y-119268097D02*
X130790475Y-119230001D01*
X130790475Y-119230001D02*
X130676189Y-119230001D01*
X130676189Y-119230001D02*
X130599998Y-119268097D01*
X130599998Y-119268097D02*
X130561903Y-119344287D01*
X130561903Y-119344287D02*
X130561903Y-119763335D01*
X130561903Y-119344287D02*
X130523808Y-119268097D01*
X130523808Y-119268097D02*
X130447617Y-119230001D01*
X130447617Y-119230001D02*
X130333332Y-119230001D01*
X130333332Y-119230001D02*
X130257141Y-119268097D01*
X130257141Y-119268097D02*
X130219046Y-119344287D01*
X130219046Y-119344287D02*
X130219046Y-119763335D01*
X129342855Y-118963335D02*
X128885712Y-118963335D01*
X129114284Y-119763335D02*
X129114284Y-118963335D01*
X128619045Y-119763335D02*
X128619045Y-118963335D01*
X128276188Y-119763335D02*
X128276188Y-119344287D01*
X128276188Y-119344287D02*
X128314283Y-119268097D01*
X128314283Y-119268097D02*
X128390474Y-119230001D01*
X128390474Y-119230001D02*
X128504760Y-119230001D01*
X128504760Y-119230001D02*
X128580950Y-119268097D01*
X128580950Y-119268097D02*
X128619045Y-119306192D01*
X127552378Y-119763335D02*
X127552378Y-119344287D01*
X127552378Y-119344287D02*
X127590473Y-119268097D01*
X127590473Y-119268097D02*
X127666664Y-119230001D01*
X127666664Y-119230001D02*
X127819045Y-119230001D01*
X127819045Y-119230001D02*
X127895235Y-119268097D01*
X127552378Y-119725240D02*
X127628569Y-119763335D01*
X127628569Y-119763335D02*
X127819045Y-119763335D01*
X127819045Y-119763335D02*
X127895235Y-119725240D01*
X127895235Y-119725240D02*
X127933331Y-119649049D01*
X127933331Y-119649049D02*
X127933331Y-119572859D01*
X127933331Y-119572859D02*
X127895235Y-119496668D01*
X127895235Y-119496668D02*
X127819045Y-119458573D01*
X127819045Y-119458573D02*
X127628569Y-119458573D01*
X127628569Y-119458573D02*
X127552378Y-119420478D01*
X127171425Y-119230001D02*
X127171425Y-119763335D01*
X127171425Y-119306192D02*
X127133330Y-119268097D01*
X127133330Y-119268097D02*
X127057140Y-119230001D01*
X127057140Y-119230001D02*
X126942854Y-119230001D01*
X126942854Y-119230001D02*
X126866663Y-119268097D01*
X126866663Y-119268097D02*
X126828568Y-119344287D01*
X126828568Y-119344287D02*
X126828568Y-119763335D01*
X126447615Y-119763335D02*
X126447615Y-118963335D01*
X126104758Y-119763335D02*
X126104758Y-119344287D01*
X126104758Y-119344287D02*
X126142853Y-119268097D01*
X126142853Y-119268097D02*
X126219044Y-119230001D01*
X126219044Y-119230001D02*
X126333330Y-119230001D01*
X126333330Y-119230001D02*
X126409520Y-119268097D01*
X126409520Y-119268097D02*
X126447615Y-119306192D01*
X125228567Y-118963335D02*
X124961900Y-119763335D01*
X124961900Y-119763335D02*
X124695234Y-118963335D01*
X124504758Y-119230001D02*
X124314282Y-119763335D01*
X124123805Y-119230001D02*
X124314282Y-119763335D01*
X124314282Y-119763335D02*
X124390472Y-119953811D01*
X124390472Y-119953811D02*
X124428567Y-119991906D01*
X124428567Y-119991906D02*
X124504758Y-120030001D01*
X137838095Y-121763335D02*
X137838095Y-122410954D01*
X137838095Y-122410954D02*
X137800000Y-122487144D01*
X137800000Y-122487144D02*
X137761905Y-122525240D01*
X137761905Y-122525240D02*
X137685714Y-122563335D01*
X137685714Y-122563335D02*
X137533333Y-122563335D01*
X137533333Y-122563335D02*
X137457143Y-122525240D01*
X137457143Y-122525240D02*
X137419048Y-122487144D01*
X137419048Y-122487144D02*
X137380952Y-122410954D01*
X137380952Y-122410954D02*
X137380952Y-121763335D01*
X136580953Y-122563335D02*
X137038096Y-122563335D01*
X136809524Y-122563335D02*
X136809524Y-121763335D01*
X136809524Y-121763335D02*
X136885715Y-121877620D01*
X136885715Y-121877620D02*
X136961905Y-121953811D01*
X136961905Y-121953811D02*
X137038096Y-121991906D01*
X135247619Y-122563335D02*
X135628571Y-122563335D01*
X135628571Y-122563335D02*
X135628571Y-121763335D01*
X134980952Y-122563335D02*
X134980952Y-121763335D01*
X134980952Y-121763335D02*
X134714286Y-122334763D01*
X134714286Y-122334763D02*
X134447619Y-121763335D01*
X134447619Y-121763335D02*
X134447619Y-122563335D01*
X134142857Y-121763335D02*
X133647619Y-121763335D01*
X133647619Y-121763335D02*
X133914285Y-122068097D01*
X133914285Y-122068097D02*
X133800000Y-122068097D01*
X133800000Y-122068097D02*
X133723809Y-122106192D01*
X133723809Y-122106192D02*
X133685714Y-122144287D01*
X133685714Y-122144287D02*
X133647619Y-122220478D01*
X133647619Y-122220478D02*
X133647619Y-122410954D01*
X133647619Y-122410954D02*
X133685714Y-122487144D01*
X133685714Y-122487144D02*
X133723809Y-122525240D01*
X133723809Y-122525240D02*
X133800000Y-122563335D01*
X133800000Y-122563335D02*
X134028571Y-122563335D01*
X134028571Y-122563335D02*
X134104762Y-122525240D01*
X134104762Y-122525240D02*
X134142857Y-122487144D01*
X132923809Y-121763335D02*
X133304761Y-121763335D01*
X133304761Y-121763335D02*
X133342857Y-122144287D01*
X133342857Y-122144287D02*
X133304761Y-122106192D01*
X133304761Y-122106192D02*
X133228571Y-122068097D01*
X133228571Y-122068097D02*
X133038095Y-122068097D01*
X133038095Y-122068097D02*
X132961904Y-122106192D01*
X132961904Y-122106192D02*
X132923809Y-122144287D01*
X132923809Y-122144287D02*
X132885714Y-122220478D01*
X132885714Y-122220478D02*
X132885714Y-122410954D01*
X132885714Y-122410954D02*
X132923809Y-122487144D01*
X132923809Y-122487144D02*
X132961904Y-122525240D01*
X132961904Y-122525240D02*
X133038095Y-122563335D01*
X133038095Y-122563335D02*
X133228571Y-122563335D01*
X133228571Y-122563335D02*
X133304761Y-122525240D01*
X133304761Y-122525240D02*
X133342857Y-122487144D01*
X132428571Y-122106192D02*
X132504761Y-122068097D01*
X132504761Y-122068097D02*
X132542856Y-122030001D01*
X132542856Y-122030001D02*
X132580952Y-121953811D01*
X132580952Y-121953811D02*
X132580952Y-121915716D01*
X132580952Y-121915716D02*
X132542856Y-121839525D01*
X132542856Y-121839525D02*
X132504761Y-121801430D01*
X132504761Y-121801430D02*
X132428571Y-121763335D01*
X132428571Y-121763335D02*
X132276190Y-121763335D01*
X132276190Y-121763335D02*
X132199999Y-121801430D01*
X132199999Y-121801430D02*
X132161904Y-121839525D01*
X132161904Y-121839525D02*
X132123809Y-121915716D01*
X132123809Y-121915716D02*
X132123809Y-121953811D01*
X132123809Y-121953811D02*
X132161904Y-122030001D01*
X132161904Y-122030001D02*
X132199999Y-122068097D01*
X132199999Y-122068097D02*
X132276190Y-122106192D01*
X132276190Y-122106192D02*
X132428571Y-122106192D01*
X132428571Y-122106192D02*
X132504761Y-122144287D01*
X132504761Y-122144287D02*
X132542856Y-122182382D01*
X132542856Y-122182382D02*
X132580952Y-122258573D01*
X132580952Y-122258573D02*
X132580952Y-122410954D01*
X132580952Y-122410954D02*
X132542856Y-122487144D01*
X132542856Y-122487144D02*
X132504761Y-122525240D01*
X132504761Y-122525240D02*
X132428571Y-122563335D01*
X132428571Y-122563335D02*
X132276190Y-122563335D01*
X132276190Y-122563335D02*
X132199999Y-122525240D01*
X132199999Y-122525240D02*
X132161904Y-122487144D01*
X132161904Y-122487144D02*
X132123809Y-122410954D01*
X132123809Y-122410954D02*
X132123809Y-122258573D01*
X132123809Y-122258573D02*
X132161904Y-122182382D01*
X132161904Y-122182382D02*
X132199999Y-122144287D01*
X132199999Y-122144287D02*
X132276190Y-122106192D01*
X137879523Y-142763335D02*
X137879523Y-143334763D01*
X137879523Y-143334763D02*
X137917618Y-143449049D01*
X137917618Y-143449049D02*
X137993809Y-143525240D01*
X137993809Y-143525240D02*
X138108094Y-143563335D01*
X138108094Y-143563335D02*
X138184285Y-143563335D01*
X137574761Y-142763335D02*
X137041427Y-142763335D01*
X137041427Y-142763335D02*
X137384285Y-143563335D01*
X136127141Y-143563335D02*
X136127141Y-142763335D01*
X136127141Y-142763335D02*
X135822379Y-142763335D01*
X135822379Y-142763335D02*
X135746189Y-142801430D01*
X135746189Y-142801430D02*
X135708094Y-142839525D01*
X135708094Y-142839525D02*
X135669998Y-142915716D01*
X135669998Y-142915716D02*
X135669998Y-143030001D01*
X135669998Y-143030001D02*
X135708094Y-143106192D01*
X135708094Y-143106192D02*
X135746189Y-143144287D01*
X135746189Y-143144287D02*
X135822379Y-143182382D01*
X135822379Y-143182382D02*
X136127141Y-143182382D01*
X135174760Y-142763335D02*
X135022379Y-142763335D01*
X135022379Y-142763335D02*
X134946189Y-142801430D01*
X134946189Y-142801430D02*
X134869998Y-142877620D01*
X134869998Y-142877620D02*
X134831903Y-143030001D01*
X134831903Y-143030001D02*
X134831903Y-143296668D01*
X134831903Y-143296668D02*
X134869998Y-143449049D01*
X134869998Y-143449049D02*
X134946189Y-143525240D01*
X134946189Y-143525240D02*
X135022379Y-143563335D01*
X135022379Y-143563335D02*
X135174760Y-143563335D01*
X135174760Y-143563335D02*
X135250951Y-143525240D01*
X135250951Y-143525240D02*
X135327141Y-143449049D01*
X135327141Y-143449049D02*
X135365237Y-143296668D01*
X135365237Y-143296668D02*
X135365237Y-143030001D01*
X135365237Y-143030001D02*
X135327141Y-142877620D01*
X135327141Y-142877620D02*
X135250951Y-142801430D01*
X135250951Y-142801430D02*
X135174760Y-142763335D01*
X134565237Y-142763335D02*
X134374761Y-143563335D01*
X134374761Y-143563335D02*
X134222380Y-142991906D01*
X134222380Y-142991906D02*
X134069999Y-143563335D01*
X134069999Y-143563335D02*
X133879523Y-142763335D01*
X133574760Y-143144287D02*
X133308094Y-143144287D01*
X133193808Y-143563335D02*
X133574760Y-143563335D01*
X133574760Y-143563335D02*
X133574760Y-142763335D01*
X133574760Y-142763335D02*
X133193808Y-142763335D01*
X132393807Y-143563335D02*
X132660474Y-143182382D01*
X132850950Y-143563335D02*
X132850950Y-142763335D01*
X132850950Y-142763335D02*
X132546188Y-142763335D01*
X132546188Y-142763335D02*
X132469998Y-142801430D01*
X132469998Y-142801430D02*
X132431903Y-142839525D01*
X132431903Y-142839525D02*
X132393807Y-142915716D01*
X132393807Y-142915716D02*
X132393807Y-143030001D01*
X132393807Y-143030001D02*
X132431903Y-143106192D01*
X132431903Y-143106192D02*
X132469998Y-143144287D01*
X132469998Y-143144287D02*
X132546188Y-143182382D01*
X132546188Y-143182382D02*
X132850950Y-143182382D01*
X137149523Y-146101430D02*
X137225713Y-146063335D01*
X137225713Y-146063335D02*
X137339999Y-146063335D01*
X137339999Y-146063335D02*
X137454285Y-146101430D01*
X137454285Y-146101430D02*
X137530475Y-146177620D01*
X137530475Y-146177620D02*
X137568570Y-146253811D01*
X137568570Y-146253811D02*
X137606666Y-146406192D01*
X137606666Y-146406192D02*
X137606666Y-146520478D01*
X137606666Y-146520478D02*
X137568570Y-146672859D01*
X137568570Y-146672859D02*
X137530475Y-146749049D01*
X137530475Y-146749049D02*
X137454285Y-146825240D01*
X137454285Y-146825240D02*
X137339999Y-146863335D01*
X137339999Y-146863335D02*
X137263808Y-146863335D01*
X137263808Y-146863335D02*
X137149523Y-146825240D01*
X137149523Y-146825240D02*
X137111427Y-146787144D01*
X137111427Y-146787144D02*
X137111427Y-146520478D01*
X137111427Y-146520478D02*
X137263808Y-146520478D01*
X136768570Y-146863335D02*
X136768570Y-146063335D01*
X136768570Y-146063335D02*
X136311427Y-146863335D01*
X136311427Y-146863335D02*
X136311427Y-146063335D01*
X135930475Y-146863335D02*
X135930475Y-146063335D01*
X135930475Y-146063335D02*
X135739999Y-146063335D01*
X135739999Y-146063335D02*
X135625713Y-146101430D01*
X135625713Y-146101430D02*
X135549523Y-146177620D01*
X135549523Y-146177620D02*
X135511428Y-146253811D01*
X135511428Y-146253811D02*
X135473332Y-146406192D01*
X135473332Y-146406192D02*
X135473332Y-146520478D01*
X135473332Y-146520478D02*
X135511428Y-146672859D01*
X135511428Y-146672859D02*
X135549523Y-146749049D01*
X135549523Y-146749049D02*
X135625713Y-146825240D01*
X135625713Y-146825240D02*
X135739999Y-146863335D01*
X135739999Y-146863335D02*
X135930475Y-146863335D01*
X143180952Y-102363335D02*
X143180952Y-102934763D01*
X143180952Y-102934763D02*
X143219047Y-103049049D01*
X143219047Y-103049049D02*
X143295238Y-103125240D01*
X143295238Y-103125240D02*
X143409523Y-103163335D01*
X143409523Y-103163335D02*
X143485714Y-103163335D01*
X142876190Y-102363335D02*
X142380952Y-102363335D01*
X142380952Y-102363335D02*
X142647618Y-102668097D01*
X142647618Y-102668097D02*
X142533333Y-102668097D01*
X142533333Y-102668097D02*
X142457142Y-102706192D01*
X142457142Y-102706192D02*
X142419047Y-102744287D01*
X142419047Y-102744287D02*
X142380952Y-102820478D01*
X142380952Y-102820478D02*
X142380952Y-103010954D01*
X142380952Y-103010954D02*
X142419047Y-103087144D01*
X142419047Y-103087144D02*
X142457142Y-103125240D01*
X142457142Y-103125240D02*
X142533333Y-103163335D01*
X142533333Y-103163335D02*
X142761904Y-103163335D01*
X142761904Y-103163335D02*
X142838095Y-103125240D01*
X142838095Y-103125240D02*
X142876190Y-103087144D01*
X140971427Y-103163335D02*
X141238094Y-102782382D01*
X141428570Y-103163335D02*
X141428570Y-102363335D01*
X141428570Y-102363335D02*
X141123808Y-102363335D01*
X141123808Y-102363335D02*
X141047618Y-102401430D01*
X141047618Y-102401430D02*
X141009523Y-102439525D01*
X141009523Y-102439525D02*
X140971427Y-102515716D01*
X140971427Y-102515716D02*
X140971427Y-102630001D01*
X140971427Y-102630001D02*
X141009523Y-102706192D01*
X141009523Y-102706192D02*
X141047618Y-102744287D01*
X141047618Y-102744287D02*
X141123808Y-102782382D01*
X141123808Y-102782382D02*
X141428570Y-102782382D01*
X140628570Y-102744287D02*
X140361904Y-102744287D01*
X140247618Y-103163335D02*
X140628570Y-103163335D01*
X140628570Y-103163335D02*
X140628570Y-102363335D01*
X140628570Y-102363335D02*
X140247618Y-102363335D01*
X139904760Y-103163335D02*
X139904760Y-102363335D01*
X139904760Y-102363335D02*
X139714284Y-102363335D01*
X139714284Y-102363335D02*
X139599998Y-102401430D01*
X139599998Y-102401430D02*
X139523808Y-102477620D01*
X139523808Y-102477620D02*
X139485713Y-102553811D01*
X139485713Y-102553811D02*
X139447617Y-102706192D01*
X139447617Y-102706192D02*
X139447617Y-102820478D01*
X139447617Y-102820478D02*
X139485713Y-102972859D01*
X139485713Y-102972859D02*
X139523808Y-103049049D01*
X139523808Y-103049049D02*
X139599998Y-103125240D01*
X139599998Y-103125240D02*
X139714284Y-103163335D01*
X139714284Y-103163335D02*
X139904760Y-103163335D01*
X138495236Y-103163335D02*
X138495236Y-102363335D01*
X138495236Y-102363335D02*
X138304760Y-102363335D01*
X138304760Y-102363335D02*
X138190474Y-102401430D01*
X138190474Y-102401430D02*
X138114284Y-102477620D01*
X138114284Y-102477620D02*
X138076189Y-102553811D01*
X138076189Y-102553811D02*
X138038093Y-102706192D01*
X138038093Y-102706192D02*
X138038093Y-102820478D01*
X138038093Y-102820478D02*
X138076189Y-102972859D01*
X138076189Y-102972859D02*
X138114284Y-103049049D01*
X138114284Y-103049049D02*
X138190474Y-103125240D01*
X138190474Y-103125240D02*
X138304760Y-103163335D01*
X138304760Y-103163335D02*
X138495236Y-103163335D01*
X137733332Y-102934763D02*
X137352379Y-102934763D01*
X137809522Y-103163335D02*
X137542855Y-102363335D01*
X137542855Y-102363335D02*
X137276189Y-103163335D01*
X136552379Y-103087144D02*
X136590475Y-103125240D01*
X136590475Y-103125240D02*
X136704760Y-103163335D01*
X136704760Y-103163335D02*
X136780951Y-103163335D01*
X136780951Y-103163335D02*
X136895237Y-103125240D01*
X136895237Y-103125240D02*
X136971427Y-103049049D01*
X136971427Y-103049049D02*
X137009522Y-102972859D01*
X137009522Y-102972859D02*
X137047618Y-102820478D01*
X137047618Y-102820478D02*
X137047618Y-102706192D01*
X137047618Y-102706192D02*
X137009522Y-102553811D01*
X137009522Y-102553811D02*
X136971427Y-102477620D01*
X136971427Y-102477620D02*
X136895237Y-102401430D01*
X136895237Y-102401430D02*
X136780951Y-102363335D01*
X136780951Y-102363335D02*
X136704760Y-102363335D01*
X136704760Y-102363335D02*
X136590475Y-102401430D01*
X136590475Y-102401430D02*
X136552379Y-102439525D01*
X146961904Y-105363335D02*
X147228571Y-104982382D01*
X147419047Y-105363335D02*
X147419047Y-104563335D01*
X147419047Y-104563335D02*
X147114285Y-104563335D01*
X147114285Y-104563335D02*
X147038095Y-104601430D01*
X147038095Y-104601430D02*
X147000000Y-104639525D01*
X147000000Y-104639525D02*
X146961904Y-104715716D01*
X146961904Y-104715716D02*
X146961904Y-104830001D01*
X146961904Y-104830001D02*
X147000000Y-104906192D01*
X147000000Y-104906192D02*
X147038095Y-104944287D01*
X147038095Y-104944287D02*
X147114285Y-104982382D01*
X147114285Y-104982382D02*
X147419047Y-104982382D01*
X146619047Y-104944287D02*
X146352381Y-104944287D01*
X146238095Y-105363335D02*
X146619047Y-105363335D01*
X146619047Y-105363335D02*
X146619047Y-104563335D01*
X146619047Y-104563335D02*
X146238095Y-104563335D01*
X145895237Y-105363335D02*
X145895237Y-104563335D01*
X145895237Y-104563335D02*
X145704761Y-104563335D01*
X145704761Y-104563335D02*
X145590475Y-104601430D01*
X145590475Y-104601430D02*
X145514285Y-104677620D01*
X145514285Y-104677620D02*
X145476190Y-104753811D01*
X145476190Y-104753811D02*
X145438094Y-104906192D01*
X145438094Y-104906192D02*
X145438094Y-105020478D01*
X145438094Y-105020478D02*
X145476190Y-105172859D01*
X145476190Y-105172859D02*
X145514285Y-105249049D01*
X145514285Y-105249049D02*
X145590475Y-105325240D01*
X145590475Y-105325240D02*
X145704761Y-105363335D01*
X145704761Y-105363335D02*
X145895237Y-105363335D01*
X145285714Y-105439525D02*
X144676190Y-105439525D01*
X144333332Y-104563335D02*
X144180951Y-104563335D01*
X144180951Y-104563335D02*
X144104761Y-104601430D01*
X144104761Y-104601430D02*
X144028570Y-104677620D01*
X144028570Y-104677620D02*
X143990475Y-104830001D01*
X143990475Y-104830001D02*
X143990475Y-105096668D01*
X143990475Y-105096668D02*
X144028570Y-105249049D01*
X144028570Y-105249049D02*
X144104761Y-105325240D01*
X144104761Y-105325240D02*
X144180951Y-105363335D01*
X144180951Y-105363335D02*
X144333332Y-105363335D01*
X144333332Y-105363335D02*
X144409523Y-105325240D01*
X144409523Y-105325240D02*
X144485713Y-105249049D01*
X144485713Y-105249049D02*
X144523809Y-105096668D01*
X144523809Y-105096668D02*
X144523809Y-104830001D01*
X144523809Y-104830001D02*
X144485713Y-104677620D01*
X144485713Y-104677620D02*
X144409523Y-104601430D01*
X144409523Y-104601430D02*
X144333332Y-104563335D01*
X143647618Y-104563335D02*
X143647618Y-105210954D01*
X143647618Y-105210954D02*
X143609523Y-105287144D01*
X143609523Y-105287144D02*
X143571428Y-105325240D01*
X143571428Y-105325240D02*
X143495237Y-105363335D01*
X143495237Y-105363335D02*
X143342856Y-105363335D01*
X143342856Y-105363335D02*
X143266666Y-105325240D01*
X143266666Y-105325240D02*
X143228571Y-105287144D01*
X143228571Y-105287144D02*
X143190475Y-105210954D01*
X143190475Y-105210954D02*
X143190475Y-104563335D01*
X142923809Y-104563335D02*
X142466666Y-104563335D01*
X142695238Y-105363335D02*
X142695238Y-104563335D01*
X145609523Y-107141430D02*
X145685713Y-107103335D01*
X145685713Y-107103335D02*
X145799999Y-107103335D01*
X145799999Y-107103335D02*
X145914285Y-107141430D01*
X145914285Y-107141430D02*
X145990475Y-107217620D01*
X145990475Y-107217620D02*
X146028570Y-107293811D01*
X146028570Y-107293811D02*
X146066666Y-107446192D01*
X146066666Y-107446192D02*
X146066666Y-107560478D01*
X146066666Y-107560478D02*
X146028570Y-107712859D01*
X146028570Y-107712859D02*
X145990475Y-107789049D01*
X145990475Y-107789049D02*
X145914285Y-107865240D01*
X145914285Y-107865240D02*
X145799999Y-107903335D01*
X145799999Y-107903335D02*
X145723808Y-107903335D01*
X145723808Y-107903335D02*
X145609523Y-107865240D01*
X145609523Y-107865240D02*
X145571427Y-107827144D01*
X145571427Y-107827144D02*
X145571427Y-107560478D01*
X145571427Y-107560478D02*
X145723808Y-107560478D01*
X145228570Y-107903335D02*
X145228570Y-107103335D01*
X145228570Y-107103335D02*
X144771427Y-107903335D01*
X144771427Y-107903335D02*
X144771427Y-107103335D01*
X144390475Y-107903335D02*
X144390475Y-107103335D01*
X144390475Y-107103335D02*
X144199999Y-107103335D01*
X144199999Y-107103335D02*
X144085713Y-107141430D01*
X144085713Y-107141430D02*
X144009523Y-107217620D01*
X144009523Y-107217620D02*
X143971428Y-107293811D01*
X143971428Y-107293811D02*
X143933332Y-107446192D01*
X143933332Y-107446192D02*
X143933332Y-107560478D01*
X143933332Y-107560478D02*
X143971428Y-107712859D01*
X143971428Y-107712859D02*
X144009523Y-107789049D01*
X144009523Y-107789049D02*
X144085713Y-107865240D01*
X144085713Y-107865240D02*
X144199999Y-107903335D01*
X144199999Y-107903335D02*
X144390475Y-107903335D01*
X145952381Y-110405240D02*
X145838095Y-110443335D01*
X145838095Y-110443335D02*
X145647619Y-110443335D01*
X145647619Y-110443335D02*
X145571428Y-110405240D01*
X145571428Y-110405240D02*
X145533333Y-110367144D01*
X145533333Y-110367144D02*
X145495238Y-110290954D01*
X145495238Y-110290954D02*
X145495238Y-110214763D01*
X145495238Y-110214763D02*
X145533333Y-110138573D01*
X145533333Y-110138573D02*
X145571428Y-110100478D01*
X145571428Y-110100478D02*
X145647619Y-110062382D01*
X145647619Y-110062382D02*
X145800000Y-110024287D01*
X145800000Y-110024287D02*
X145876190Y-109986192D01*
X145876190Y-109986192D02*
X145914285Y-109948097D01*
X145914285Y-109948097D02*
X145952381Y-109871906D01*
X145952381Y-109871906D02*
X145952381Y-109795716D01*
X145952381Y-109795716D02*
X145914285Y-109719525D01*
X145914285Y-109719525D02*
X145876190Y-109681430D01*
X145876190Y-109681430D02*
X145800000Y-109643335D01*
X145800000Y-109643335D02*
X145609523Y-109643335D01*
X145609523Y-109643335D02*
X145495238Y-109681430D01*
X144695237Y-110367144D02*
X144733333Y-110405240D01*
X144733333Y-110405240D02*
X144847618Y-110443335D01*
X144847618Y-110443335D02*
X144923809Y-110443335D01*
X144923809Y-110443335D02*
X145038095Y-110405240D01*
X145038095Y-110405240D02*
X145114285Y-110329049D01*
X145114285Y-110329049D02*
X145152380Y-110252859D01*
X145152380Y-110252859D02*
X145190476Y-110100478D01*
X145190476Y-110100478D02*
X145190476Y-109986192D01*
X145190476Y-109986192D02*
X145152380Y-109833811D01*
X145152380Y-109833811D02*
X145114285Y-109757620D01*
X145114285Y-109757620D02*
X145038095Y-109681430D01*
X145038095Y-109681430D02*
X144923809Y-109643335D01*
X144923809Y-109643335D02*
X144847618Y-109643335D01*
X144847618Y-109643335D02*
X144733333Y-109681430D01*
X144733333Y-109681430D02*
X144695237Y-109719525D01*
X143971428Y-110443335D02*
X144352380Y-110443335D01*
X144352380Y-110443335D02*
X144352380Y-109643335D01*
X145971428Y-112945240D02*
X145857142Y-112983335D01*
X145857142Y-112983335D02*
X145666666Y-112983335D01*
X145666666Y-112983335D02*
X145590475Y-112945240D01*
X145590475Y-112945240D02*
X145552380Y-112907144D01*
X145552380Y-112907144D02*
X145514285Y-112830954D01*
X145514285Y-112830954D02*
X145514285Y-112754763D01*
X145514285Y-112754763D02*
X145552380Y-112678573D01*
X145552380Y-112678573D02*
X145590475Y-112640478D01*
X145590475Y-112640478D02*
X145666666Y-112602382D01*
X145666666Y-112602382D02*
X145819047Y-112564287D01*
X145819047Y-112564287D02*
X145895237Y-112526192D01*
X145895237Y-112526192D02*
X145933332Y-112488097D01*
X145933332Y-112488097D02*
X145971428Y-112411906D01*
X145971428Y-112411906D02*
X145971428Y-112335716D01*
X145971428Y-112335716D02*
X145933332Y-112259525D01*
X145933332Y-112259525D02*
X145895237Y-112221430D01*
X145895237Y-112221430D02*
X145819047Y-112183335D01*
X145819047Y-112183335D02*
X145628570Y-112183335D01*
X145628570Y-112183335D02*
X145514285Y-112221430D01*
X145171427Y-112983335D02*
X145171427Y-112183335D01*
X145171427Y-112183335D02*
X144980951Y-112183335D01*
X144980951Y-112183335D02*
X144866665Y-112221430D01*
X144866665Y-112221430D02*
X144790475Y-112297620D01*
X144790475Y-112297620D02*
X144752380Y-112373811D01*
X144752380Y-112373811D02*
X144714284Y-112526192D01*
X144714284Y-112526192D02*
X144714284Y-112640478D01*
X144714284Y-112640478D02*
X144752380Y-112792859D01*
X144752380Y-112792859D02*
X144790475Y-112869049D01*
X144790475Y-112869049D02*
X144866665Y-112945240D01*
X144866665Y-112945240D02*
X144980951Y-112983335D01*
X144980951Y-112983335D02*
X145171427Y-112983335D01*
X144409523Y-112754763D02*
X144028570Y-112754763D01*
X144485713Y-112983335D02*
X144219046Y-112183335D01*
X144219046Y-112183335D02*
X143952380Y-112983335D01*
X145990476Y-114723335D02*
X145495238Y-114723335D01*
X145495238Y-114723335D02*
X145761904Y-115028097D01*
X145761904Y-115028097D02*
X145647619Y-115028097D01*
X145647619Y-115028097D02*
X145571428Y-115066192D01*
X145571428Y-115066192D02*
X145533333Y-115104287D01*
X145533333Y-115104287D02*
X145495238Y-115180478D01*
X145495238Y-115180478D02*
X145495238Y-115370954D01*
X145495238Y-115370954D02*
X145533333Y-115447144D01*
X145533333Y-115447144D02*
X145571428Y-115485240D01*
X145571428Y-115485240D02*
X145647619Y-115523335D01*
X145647619Y-115523335D02*
X145876190Y-115523335D01*
X145876190Y-115523335D02*
X145952381Y-115485240D01*
X145952381Y-115485240D02*
X145990476Y-115447144D01*
X145266666Y-114723335D02*
X144999999Y-115523335D01*
X144999999Y-115523335D02*
X144733333Y-114723335D01*
X144542857Y-114723335D02*
X144047619Y-114723335D01*
X144047619Y-114723335D02*
X144314285Y-115028097D01*
X144314285Y-115028097D02*
X144200000Y-115028097D01*
X144200000Y-115028097D02*
X144123809Y-115066192D01*
X144123809Y-115066192D02*
X144085714Y-115104287D01*
X144085714Y-115104287D02*
X144047619Y-115180478D01*
X144047619Y-115180478D02*
X144047619Y-115370954D01*
X144047619Y-115370954D02*
X144085714Y-115447144D01*
X144085714Y-115447144D02*
X144123809Y-115485240D01*
X144123809Y-115485240D02*
X144200000Y-115523335D01*
X144200000Y-115523335D02*
X144428571Y-115523335D01*
X144428571Y-115523335D02*
X144504762Y-115485240D01*
X144504762Y-115485240D02*
X144542857Y-115447144D01*
X145609523Y-117301430D02*
X145685713Y-117263335D01*
X145685713Y-117263335D02*
X145799999Y-117263335D01*
X145799999Y-117263335D02*
X145914285Y-117301430D01*
X145914285Y-117301430D02*
X145990475Y-117377620D01*
X145990475Y-117377620D02*
X146028570Y-117453811D01*
X146028570Y-117453811D02*
X146066666Y-117606192D01*
X146066666Y-117606192D02*
X146066666Y-117720478D01*
X146066666Y-117720478D02*
X146028570Y-117872859D01*
X146028570Y-117872859D02*
X145990475Y-117949049D01*
X145990475Y-117949049D02*
X145914285Y-118025240D01*
X145914285Y-118025240D02*
X145799999Y-118063335D01*
X145799999Y-118063335D02*
X145723808Y-118063335D01*
X145723808Y-118063335D02*
X145609523Y-118025240D01*
X145609523Y-118025240D02*
X145571427Y-117987144D01*
X145571427Y-117987144D02*
X145571427Y-117720478D01*
X145571427Y-117720478D02*
X145723808Y-117720478D01*
X145228570Y-118063335D02*
X145228570Y-117263335D01*
X145228570Y-117263335D02*
X144771427Y-118063335D01*
X144771427Y-118063335D02*
X144771427Y-117263335D01*
X144390475Y-118063335D02*
X144390475Y-117263335D01*
X144390475Y-117263335D02*
X144199999Y-117263335D01*
X144199999Y-117263335D02*
X144085713Y-117301430D01*
X144085713Y-117301430D02*
X144009523Y-117377620D01*
X144009523Y-117377620D02*
X143971428Y-117453811D01*
X143971428Y-117453811D02*
X143933332Y-117606192D01*
X143933332Y-117606192D02*
X143933332Y-117720478D01*
X143933332Y-117720478D02*
X143971428Y-117872859D01*
X143971428Y-117872859D02*
X144009523Y-117949049D01*
X144009523Y-117949049D02*
X144085713Y-118025240D01*
X144085713Y-118025240D02*
X144199999Y-118063335D01*
X144199999Y-118063335D02*
X144390475Y-118063335D01*
X146685714Y-146634763D02*
X146304761Y-146634763D01*
X146761904Y-146863335D02*
X146495237Y-146063335D01*
X146495237Y-146063335D02*
X146228571Y-146863335D01*
X145961904Y-146558573D02*
X145352381Y-146558573D01*
X145657142Y-146863335D02*
X145657142Y-146253811D01*
X147171428Y-138644287D02*
X146904762Y-138644287D01*
X146790476Y-139063335D02*
X147171428Y-139063335D01*
X147171428Y-139063335D02*
X147171428Y-138263335D01*
X147171428Y-138263335D02*
X146790476Y-138263335D01*
X150393809Y-142763335D02*
X150393809Y-143334763D01*
X150393809Y-143334763D02*
X150431904Y-143449049D01*
X150431904Y-143449049D02*
X150508095Y-143525240D01*
X150508095Y-143525240D02*
X150622380Y-143563335D01*
X150622380Y-143563335D02*
X150698571Y-143563335D01*
X149669999Y-142763335D02*
X149822380Y-142763335D01*
X149822380Y-142763335D02*
X149898571Y-142801430D01*
X149898571Y-142801430D02*
X149936666Y-142839525D01*
X149936666Y-142839525D02*
X150012856Y-142953811D01*
X150012856Y-142953811D02*
X150050952Y-143106192D01*
X150050952Y-143106192D02*
X150050952Y-143410954D01*
X150050952Y-143410954D02*
X150012856Y-143487144D01*
X150012856Y-143487144D02*
X149974761Y-143525240D01*
X149974761Y-143525240D02*
X149898571Y-143563335D01*
X149898571Y-143563335D02*
X149746190Y-143563335D01*
X149746190Y-143563335D02*
X149669999Y-143525240D01*
X149669999Y-143525240D02*
X149631904Y-143487144D01*
X149631904Y-143487144D02*
X149593809Y-143410954D01*
X149593809Y-143410954D02*
X149593809Y-143220478D01*
X149593809Y-143220478D02*
X149631904Y-143144287D01*
X149631904Y-143144287D02*
X149669999Y-143106192D01*
X149669999Y-143106192D02*
X149746190Y-143068097D01*
X149746190Y-143068097D02*
X149898571Y-143068097D01*
X149898571Y-143068097D02*
X149974761Y-143106192D01*
X149974761Y-143106192D02*
X150012856Y-143144287D01*
X150012856Y-143144287D02*
X150050952Y-143220478D01*
X148184284Y-143563335D02*
X148450951Y-143182382D01*
X148641427Y-143563335D02*
X148641427Y-142763335D01*
X148641427Y-142763335D02*
X148336665Y-142763335D01*
X148336665Y-142763335D02*
X148260475Y-142801430D01*
X148260475Y-142801430D02*
X148222380Y-142839525D01*
X148222380Y-142839525D02*
X148184284Y-142915716D01*
X148184284Y-142915716D02*
X148184284Y-143030001D01*
X148184284Y-143030001D02*
X148222380Y-143106192D01*
X148222380Y-143106192D02*
X148260475Y-143144287D01*
X148260475Y-143144287D02*
X148336665Y-143182382D01*
X148336665Y-143182382D02*
X148641427Y-143182382D01*
X147841427Y-143144287D02*
X147574761Y-143144287D01*
X147460475Y-143563335D02*
X147841427Y-143563335D01*
X147841427Y-143563335D02*
X147841427Y-142763335D01*
X147841427Y-142763335D02*
X147460475Y-142763335D01*
X147117617Y-143563335D02*
X147117617Y-142763335D01*
X147117617Y-142763335D02*
X146927141Y-142763335D01*
X146927141Y-142763335D02*
X146812855Y-142801430D01*
X146812855Y-142801430D02*
X146736665Y-142877620D01*
X146736665Y-142877620D02*
X146698570Y-142953811D01*
X146698570Y-142953811D02*
X146660474Y-143106192D01*
X146660474Y-143106192D02*
X146660474Y-143220478D01*
X146660474Y-143220478D02*
X146698570Y-143372859D01*
X146698570Y-143372859D02*
X146736665Y-143449049D01*
X146736665Y-143449049D02*
X146812855Y-143525240D01*
X146812855Y-143525240D02*
X146927141Y-143563335D01*
X146927141Y-143563335D02*
X147117617Y-143563335D01*
X145327141Y-143563335D02*
X145708093Y-143563335D01*
X145708093Y-143563335D02*
X145708093Y-142763335D01*
X145060474Y-143144287D02*
X144793808Y-143144287D01*
X144679522Y-143563335D02*
X145060474Y-143563335D01*
X145060474Y-143563335D02*
X145060474Y-142763335D01*
X145060474Y-142763335D02*
X144679522Y-142763335D01*
X144336664Y-143563335D02*
X144336664Y-142763335D01*
X144336664Y-142763335D02*
X144146188Y-142763335D01*
X144146188Y-142763335D02*
X144031902Y-142801430D01*
X144031902Y-142801430D02*
X143955712Y-142877620D01*
X143955712Y-142877620D02*
X143917617Y-142953811D01*
X143917617Y-142953811D02*
X143879521Y-143106192D01*
X143879521Y-143106192D02*
X143879521Y-143220478D01*
X143879521Y-143220478D02*
X143917617Y-143372859D01*
X143917617Y-143372859D02*
X143955712Y-143449049D01*
X143955712Y-143449049D02*
X144031902Y-143525240D01*
X144031902Y-143525240D02*
X144146188Y-143563335D01*
X144146188Y-143563335D02*
X144336664Y-143563335D01*
X149244761Y-146863335D02*
X149244761Y-146063335D01*
X148787618Y-146863335D02*
X149130476Y-146406192D01*
X148787618Y-146063335D02*
X149244761Y-146520478D01*
X148444761Y-146558573D02*
X147835238Y-146558573D01*
X153540000Y-134639525D02*
X153616190Y-134601430D01*
X153616190Y-134601430D02*
X153692381Y-134525240D01*
X153692381Y-134525240D02*
X153806667Y-134410954D01*
X153806667Y-134410954D02*
X153882857Y-134372859D01*
X153882857Y-134372859D02*
X153959048Y-134372859D01*
X153920952Y-134563335D02*
X153997143Y-134525240D01*
X153997143Y-134525240D02*
X154073333Y-134449049D01*
X154073333Y-134449049D02*
X154111429Y-134296668D01*
X154111429Y-134296668D02*
X154111429Y-134030001D01*
X154111429Y-134030001D02*
X154073333Y-133877620D01*
X154073333Y-133877620D02*
X153997143Y-133801430D01*
X153997143Y-133801430D02*
X153920952Y-133763335D01*
X153920952Y-133763335D02*
X153768571Y-133763335D01*
X153768571Y-133763335D02*
X153692381Y-133801430D01*
X153692381Y-133801430D02*
X153616190Y-133877620D01*
X153616190Y-133877620D02*
X153578095Y-134030001D01*
X153578095Y-134030001D02*
X153578095Y-134296668D01*
X153578095Y-134296668D02*
X153616190Y-134449049D01*
X153616190Y-134449049D02*
X153692381Y-134525240D01*
X153692381Y-134525240D02*
X153768571Y-134563335D01*
X153768571Y-134563335D02*
X153920952Y-134563335D01*
X153273334Y-133839525D02*
X153235238Y-133801430D01*
X153235238Y-133801430D02*
X153159048Y-133763335D01*
X153159048Y-133763335D02*
X152968572Y-133763335D01*
X152968572Y-133763335D02*
X152892381Y-133801430D01*
X152892381Y-133801430D02*
X152854286Y-133839525D01*
X152854286Y-133839525D02*
X152816191Y-133915716D01*
X152816191Y-133915716D02*
X152816191Y-133991906D01*
X152816191Y-133991906D02*
X152854286Y-134106192D01*
X152854286Y-134106192D02*
X153311429Y-134563335D01*
X153311429Y-134563335D02*
X152816191Y-134563335D01*
X151406666Y-134563335D02*
X151673333Y-134182382D01*
X151863809Y-134563335D02*
X151863809Y-133763335D01*
X151863809Y-133763335D02*
X151559047Y-133763335D01*
X151559047Y-133763335D02*
X151482857Y-133801430D01*
X151482857Y-133801430D02*
X151444762Y-133839525D01*
X151444762Y-133839525D02*
X151406666Y-133915716D01*
X151406666Y-133915716D02*
X151406666Y-134030001D01*
X151406666Y-134030001D02*
X151444762Y-134106192D01*
X151444762Y-134106192D02*
X151482857Y-134144287D01*
X151482857Y-134144287D02*
X151559047Y-134182382D01*
X151559047Y-134182382D02*
X151863809Y-134182382D01*
X151063809Y-134144287D02*
X150797143Y-134144287D01*
X150682857Y-134563335D02*
X151063809Y-134563335D01*
X151063809Y-134563335D02*
X151063809Y-133763335D01*
X151063809Y-133763335D02*
X150682857Y-133763335D01*
X150339999Y-134563335D02*
X150339999Y-133763335D01*
X150339999Y-133763335D02*
X150149523Y-133763335D01*
X150149523Y-133763335D02*
X150035237Y-133801430D01*
X150035237Y-133801430D02*
X149959047Y-133877620D01*
X149959047Y-133877620D02*
X149920952Y-133953811D01*
X149920952Y-133953811D02*
X149882856Y-134106192D01*
X149882856Y-134106192D02*
X149882856Y-134220478D01*
X149882856Y-134220478D02*
X149920952Y-134372859D01*
X149920952Y-134372859D02*
X149959047Y-134449049D01*
X149959047Y-134449049D02*
X150035237Y-134525240D01*
X150035237Y-134525240D02*
X150149523Y-134563335D01*
X150149523Y-134563335D02*
X150339999Y-134563335D01*
X148930475Y-134144287D02*
X148663809Y-134144287D01*
X148549523Y-134563335D02*
X148930475Y-134563335D01*
X148930475Y-134563335D02*
X148930475Y-133763335D01*
X148930475Y-133763335D02*
X148549523Y-133763335D01*
X148206665Y-134258573D02*
X147597142Y-134258573D01*
X146949523Y-134144287D02*
X146835237Y-134182382D01*
X146835237Y-134182382D02*
X146797142Y-134220478D01*
X146797142Y-134220478D02*
X146759046Y-134296668D01*
X146759046Y-134296668D02*
X146759046Y-134410954D01*
X146759046Y-134410954D02*
X146797142Y-134487144D01*
X146797142Y-134487144D02*
X146835237Y-134525240D01*
X146835237Y-134525240D02*
X146911427Y-134563335D01*
X146911427Y-134563335D02*
X147216189Y-134563335D01*
X147216189Y-134563335D02*
X147216189Y-133763335D01*
X147216189Y-133763335D02*
X146949523Y-133763335D01*
X146949523Y-133763335D02*
X146873332Y-133801430D01*
X146873332Y-133801430D02*
X146835237Y-133839525D01*
X146835237Y-133839525D02*
X146797142Y-133915716D01*
X146797142Y-133915716D02*
X146797142Y-133991906D01*
X146797142Y-133991906D02*
X146835237Y-134068097D01*
X146835237Y-134068097D02*
X146873332Y-134106192D01*
X146873332Y-134106192D02*
X146949523Y-134144287D01*
X146949523Y-134144287D02*
X147216189Y-134144287D01*
X146416189Y-134258573D02*
X145806666Y-134258573D01*
X144968570Y-134487144D02*
X145006666Y-134525240D01*
X145006666Y-134525240D02*
X145120951Y-134563335D01*
X145120951Y-134563335D02*
X145197142Y-134563335D01*
X145197142Y-134563335D02*
X145311428Y-134525240D01*
X145311428Y-134525240D02*
X145387618Y-134449049D01*
X145387618Y-134449049D02*
X145425713Y-134372859D01*
X145425713Y-134372859D02*
X145463809Y-134220478D01*
X145463809Y-134220478D02*
X145463809Y-134106192D01*
X145463809Y-134106192D02*
X145425713Y-133953811D01*
X145425713Y-133953811D02*
X145387618Y-133877620D01*
X145387618Y-133877620D02*
X145311428Y-133801430D01*
X145311428Y-133801430D02*
X145197142Y-133763335D01*
X145197142Y-133763335D02*
X145120951Y-133763335D01*
X145120951Y-133763335D02*
X145006666Y-133801430D01*
X145006666Y-133801430D02*
X144968570Y-133839525D01*
X149482857Y-138644287D02*
X149368571Y-138682382D01*
X149368571Y-138682382D02*
X149330476Y-138720478D01*
X149330476Y-138720478D02*
X149292380Y-138796668D01*
X149292380Y-138796668D02*
X149292380Y-138910954D01*
X149292380Y-138910954D02*
X149330476Y-138987144D01*
X149330476Y-138987144D02*
X149368571Y-139025240D01*
X149368571Y-139025240D02*
X149444761Y-139063335D01*
X149444761Y-139063335D02*
X149749523Y-139063335D01*
X149749523Y-139063335D02*
X149749523Y-138263335D01*
X149749523Y-138263335D02*
X149482857Y-138263335D01*
X149482857Y-138263335D02*
X149406666Y-138301430D01*
X149406666Y-138301430D02*
X149368571Y-138339525D01*
X149368571Y-138339525D02*
X149330476Y-138415716D01*
X149330476Y-138415716D02*
X149330476Y-138491906D01*
X149330476Y-138491906D02*
X149368571Y-138568097D01*
X149368571Y-138568097D02*
X149406666Y-138606192D01*
X149406666Y-138606192D02*
X149482857Y-138644287D01*
X149482857Y-138644287D02*
X149749523Y-138644287D01*
X151832380Y-138987144D02*
X151870476Y-139025240D01*
X151870476Y-139025240D02*
X151984761Y-139063335D01*
X151984761Y-139063335D02*
X152060952Y-139063335D01*
X152060952Y-139063335D02*
X152175238Y-139025240D01*
X152175238Y-139025240D02*
X152251428Y-138949049D01*
X152251428Y-138949049D02*
X152289523Y-138872859D01*
X152289523Y-138872859D02*
X152327619Y-138720478D01*
X152327619Y-138720478D02*
X152327619Y-138606192D01*
X152327619Y-138606192D02*
X152289523Y-138453811D01*
X152289523Y-138453811D02*
X152251428Y-138377620D01*
X152251428Y-138377620D02*
X152175238Y-138301430D01*
X152175238Y-138301430D02*
X152060952Y-138263335D01*
X152060952Y-138263335D02*
X151984761Y-138263335D01*
X151984761Y-138263335D02*
X151870476Y-138301430D01*
X151870476Y-138301430D02*
X151832380Y-138339525D01*
X161152380Y-124753335D02*
X161533332Y-124753335D01*
X161533332Y-124753335D02*
X161571428Y-125134287D01*
X161571428Y-125134287D02*
X161533332Y-125096192D01*
X161533332Y-125096192D02*
X161457142Y-125058097D01*
X161457142Y-125058097D02*
X161266666Y-125058097D01*
X161266666Y-125058097D02*
X161190475Y-125096192D01*
X161190475Y-125096192D02*
X161152380Y-125134287D01*
X161152380Y-125134287D02*
X161114285Y-125210478D01*
X161114285Y-125210478D02*
X161114285Y-125400954D01*
X161114285Y-125400954D02*
X161152380Y-125477144D01*
X161152380Y-125477144D02*
X161190475Y-125515240D01*
X161190475Y-125515240D02*
X161266666Y-125553335D01*
X161266666Y-125553335D02*
X161457142Y-125553335D01*
X161457142Y-125553335D02*
X161533332Y-125515240D01*
X161533332Y-125515240D02*
X161571428Y-125477144D01*
X160885713Y-124753335D02*
X160619046Y-125553335D01*
X160619046Y-125553335D02*
X160352380Y-124753335D01*
X165180952Y-102063335D02*
X165180952Y-102634763D01*
X165180952Y-102634763D02*
X165219047Y-102749049D01*
X165219047Y-102749049D02*
X165295238Y-102825240D01*
X165295238Y-102825240D02*
X165409523Y-102863335D01*
X165409523Y-102863335D02*
X165485714Y-102863335D01*
X164457142Y-102330001D02*
X164457142Y-102863335D01*
X164647618Y-102025240D02*
X164838095Y-102596668D01*
X164838095Y-102596668D02*
X164342856Y-102596668D01*
X162971427Y-102863335D02*
X163238094Y-102482382D01*
X163428570Y-102863335D02*
X163428570Y-102063335D01*
X163428570Y-102063335D02*
X163123808Y-102063335D01*
X163123808Y-102063335D02*
X163047618Y-102101430D01*
X163047618Y-102101430D02*
X163009523Y-102139525D01*
X163009523Y-102139525D02*
X162971427Y-102215716D01*
X162971427Y-102215716D02*
X162971427Y-102330001D01*
X162971427Y-102330001D02*
X163009523Y-102406192D01*
X163009523Y-102406192D02*
X163047618Y-102444287D01*
X163047618Y-102444287D02*
X163123808Y-102482382D01*
X163123808Y-102482382D02*
X163428570Y-102482382D01*
X162628570Y-102444287D02*
X162361904Y-102444287D01*
X162247618Y-102863335D02*
X162628570Y-102863335D01*
X162628570Y-102863335D02*
X162628570Y-102063335D01*
X162628570Y-102063335D02*
X162247618Y-102063335D01*
X161904760Y-102863335D02*
X161904760Y-102063335D01*
X161904760Y-102063335D02*
X161714284Y-102063335D01*
X161714284Y-102063335D02*
X161599998Y-102101430D01*
X161599998Y-102101430D02*
X161523808Y-102177620D01*
X161523808Y-102177620D02*
X161485713Y-102253811D01*
X161485713Y-102253811D02*
X161447617Y-102406192D01*
X161447617Y-102406192D02*
X161447617Y-102520478D01*
X161447617Y-102520478D02*
X161485713Y-102672859D01*
X161485713Y-102672859D02*
X161523808Y-102749049D01*
X161523808Y-102749049D02*
X161599998Y-102825240D01*
X161599998Y-102825240D02*
X161714284Y-102863335D01*
X161714284Y-102863335D02*
X161904760Y-102863335D01*
X160342855Y-102063335D02*
X160190474Y-102063335D01*
X160190474Y-102063335D02*
X160114284Y-102101430D01*
X160114284Y-102101430D02*
X160038093Y-102177620D01*
X160038093Y-102177620D02*
X159999998Y-102330001D01*
X159999998Y-102330001D02*
X159999998Y-102596668D01*
X159999998Y-102596668D02*
X160038093Y-102749049D01*
X160038093Y-102749049D02*
X160114284Y-102825240D01*
X160114284Y-102825240D02*
X160190474Y-102863335D01*
X160190474Y-102863335D02*
X160342855Y-102863335D01*
X160342855Y-102863335D02*
X160419046Y-102825240D01*
X160419046Y-102825240D02*
X160495236Y-102749049D01*
X160495236Y-102749049D02*
X160533332Y-102596668D01*
X160533332Y-102596668D02*
X160533332Y-102330001D01*
X160533332Y-102330001D02*
X160495236Y-102177620D01*
X160495236Y-102177620D02*
X160419046Y-102101430D01*
X160419046Y-102101430D02*
X160342855Y-102063335D01*
X159657141Y-102063335D02*
X159657141Y-102710954D01*
X159657141Y-102710954D02*
X159619046Y-102787144D01*
X159619046Y-102787144D02*
X159580951Y-102825240D01*
X159580951Y-102825240D02*
X159504760Y-102863335D01*
X159504760Y-102863335D02*
X159352379Y-102863335D01*
X159352379Y-102863335D02*
X159276189Y-102825240D01*
X159276189Y-102825240D02*
X159238094Y-102787144D01*
X159238094Y-102787144D02*
X159199998Y-102710954D01*
X159199998Y-102710954D02*
X159199998Y-102063335D01*
X158933332Y-102063335D02*
X158476189Y-102063335D01*
X158704761Y-102863335D02*
X158704761Y-102063335D01*
X166752381Y-127864762D02*
X166371428Y-127864762D01*
X166828571Y-128093334D02*
X166561904Y-127293334D01*
X166561904Y-127293334D02*
X166295238Y-128093334D01*
X166028571Y-128093334D02*
X166028571Y-127293334D01*
X166028571Y-127293334D02*
X165761905Y-127864762D01*
X165761905Y-127864762D02*
X165495238Y-127293334D01*
X165495238Y-127293334D02*
X165495238Y-128093334D01*
X165114285Y-128093334D02*
X165114285Y-127293334D01*
X165114285Y-127293334D02*
X164809523Y-127293334D01*
X164809523Y-127293334D02*
X164733333Y-127331429D01*
X164733333Y-127331429D02*
X164695238Y-127369524D01*
X164695238Y-127369524D02*
X164657142Y-127445715D01*
X164657142Y-127445715D02*
X164657142Y-127560000D01*
X164657142Y-127560000D02*
X164695238Y-127636191D01*
X164695238Y-127636191D02*
X164733333Y-127674286D01*
X164733333Y-127674286D02*
X164809523Y-127712381D01*
X164809523Y-127712381D02*
X165114285Y-127712381D01*
X164504762Y-128169524D02*
X163895238Y-128169524D01*
X163247618Y-128093334D02*
X163514285Y-127712381D01*
X163704761Y-128093334D02*
X163704761Y-127293334D01*
X163704761Y-127293334D02*
X163399999Y-127293334D01*
X163399999Y-127293334D02*
X163323809Y-127331429D01*
X163323809Y-127331429D02*
X163285714Y-127369524D01*
X163285714Y-127369524D02*
X163247618Y-127445715D01*
X163247618Y-127445715D02*
X163247618Y-127560000D01*
X163247618Y-127560000D02*
X163285714Y-127636191D01*
X163285714Y-127636191D02*
X163323809Y-127674286D01*
X163323809Y-127674286D02*
X163399999Y-127712381D01*
X163399999Y-127712381D02*
X163704761Y-127712381D01*
X166733333Y-130595240D02*
X166619047Y-130633335D01*
X166619047Y-130633335D02*
X166428571Y-130633335D01*
X166428571Y-130633335D02*
X166352380Y-130595240D01*
X166352380Y-130595240D02*
X166314285Y-130557144D01*
X166314285Y-130557144D02*
X166276190Y-130480954D01*
X166276190Y-130480954D02*
X166276190Y-130404763D01*
X166276190Y-130404763D02*
X166314285Y-130328573D01*
X166314285Y-130328573D02*
X166352380Y-130290478D01*
X166352380Y-130290478D02*
X166428571Y-130252382D01*
X166428571Y-130252382D02*
X166580952Y-130214287D01*
X166580952Y-130214287D02*
X166657142Y-130176192D01*
X166657142Y-130176192D02*
X166695237Y-130138097D01*
X166695237Y-130138097D02*
X166733333Y-130061906D01*
X166733333Y-130061906D02*
X166733333Y-129985716D01*
X166733333Y-129985716D02*
X166695237Y-129909525D01*
X166695237Y-129909525D02*
X166657142Y-129871430D01*
X166657142Y-129871430D02*
X166580952Y-129833335D01*
X166580952Y-129833335D02*
X166390475Y-129833335D01*
X166390475Y-129833335D02*
X166276190Y-129871430D01*
X165933332Y-130633335D02*
X165933332Y-129833335D01*
X165933332Y-129833335D02*
X165476189Y-130633335D01*
X165476189Y-130633335D02*
X165476189Y-129833335D01*
X165133333Y-130595240D02*
X165019047Y-130633335D01*
X165019047Y-130633335D02*
X164828571Y-130633335D01*
X164828571Y-130633335D02*
X164752380Y-130595240D01*
X164752380Y-130595240D02*
X164714285Y-130557144D01*
X164714285Y-130557144D02*
X164676190Y-130480954D01*
X164676190Y-130480954D02*
X164676190Y-130404763D01*
X164676190Y-130404763D02*
X164714285Y-130328573D01*
X164714285Y-130328573D02*
X164752380Y-130290478D01*
X164752380Y-130290478D02*
X164828571Y-130252382D01*
X164828571Y-130252382D02*
X164980952Y-130214287D01*
X164980952Y-130214287D02*
X165057142Y-130176192D01*
X165057142Y-130176192D02*
X165095237Y-130138097D01*
X165095237Y-130138097D02*
X165133333Y-130061906D01*
X165133333Y-130061906D02*
X165133333Y-129985716D01*
X165133333Y-129985716D02*
X165095237Y-129909525D01*
X165095237Y-129909525D02*
X165057142Y-129871430D01*
X165057142Y-129871430D02*
X164980952Y-129833335D01*
X164980952Y-129833335D02*
X164790475Y-129833335D01*
X164790475Y-129833335D02*
X164676190Y-129871430D01*
X164523809Y-130709525D02*
X163914285Y-130709525D01*
X163266665Y-130633335D02*
X163533332Y-130252382D01*
X163723808Y-130633335D02*
X163723808Y-129833335D01*
X163723808Y-129833335D02*
X163419046Y-129833335D01*
X163419046Y-129833335D02*
X163342856Y-129871430D01*
X163342856Y-129871430D02*
X163304761Y-129909525D01*
X163304761Y-129909525D02*
X163266665Y-129985716D01*
X163266665Y-129985716D02*
X163266665Y-130100001D01*
X163266665Y-130100001D02*
X163304761Y-130176192D01*
X163304761Y-130176192D02*
X163342856Y-130214287D01*
X163342856Y-130214287D02*
X163419046Y-130252382D01*
X163419046Y-130252382D02*
X163723808Y-130252382D01*
X166314285Y-133097144D02*
X166352381Y-133135240D01*
X166352381Y-133135240D02*
X166466666Y-133173335D01*
X166466666Y-133173335D02*
X166542857Y-133173335D01*
X166542857Y-133173335D02*
X166657143Y-133135240D01*
X166657143Y-133135240D02*
X166733333Y-133059049D01*
X166733333Y-133059049D02*
X166771428Y-132982859D01*
X166771428Y-132982859D02*
X166809524Y-132830478D01*
X166809524Y-132830478D02*
X166809524Y-132716192D01*
X166809524Y-132716192D02*
X166771428Y-132563811D01*
X166771428Y-132563811D02*
X166733333Y-132487620D01*
X166733333Y-132487620D02*
X166657143Y-132411430D01*
X166657143Y-132411430D02*
X166542857Y-132373335D01*
X166542857Y-132373335D02*
X166466666Y-132373335D01*
X166466666Y-132373335D02*
X166352381Y-132411430D01*
X166352381Y-132411430D02*
X166314285Y-132449525D01*
X165971428Y-133173335D02*
X165971428Y-132373335D01*
X165971428Y-132373335D02*
X165704762Y-132944763D01*
X165704762Y-132944763D02*
X165438095Y-132373335D01*
X165438095Y-132373335D02*
X165438095Y-133173335D01*
X165057142Y-133173335D02*
X165057142Y-132373335D01*
X165057142Y-132373335D02*
X164866666Y-132373335D01*
X164866666Y-132373335D02*
X164752380Y-132411430D01*
X164752380Y-132411430D02*
X164676190Y-132487620D01*
X164676190Y-132487620D02*
X164638095Y-132563811D01*
X164638095Y-132563811D02*
X164599999Y-132716192D01*
X164599999Y-132716192D02*
X164599999Y-132830478D01*
X164599999Y-132830478D02*
X164638095Y-132982859D01*
X164638095Y-132982859D02*
X164676190Y-133059049D01*
X164676190Y-133059049D02*
X164752380Y-133135240D01*
X164752380Y-133135240D02*
X164866666Y-133173335D01*
X164866666Y-133173335D02*
X165057142Y-133173335D01*
X164447619Y-133249525D02*
X163838095Y-133249525D01*
X163190475Y-133173335D02*
X163457142Y-132792382D01*
X163647618Y-133173335D02*
X163647618Y-132373335D01*
X163647618Y-132373335D02*
X163342856Y-132373335D01*
X163342856Y-132373335D02*
X163266666Y-132411430D01*
X163266666Y-132411430D02*
X163228571Y-132449525D01*
X163228571Y-132449525D02*
X163190475Y-132525716D01*
X163190475Y-132525716D02*
X163190475Y-132640001D01*
X163190475Y-132640001D02*
X163228571Y-132716192D01*
X163228571Y-132716192D02*
X163266666Y-132754287D01*
X163266666Y-132754287D02*
X163342856Y-132792382D01*
X163342856Y-132792382D02*
X163647618Y-132792382D01*
X166799999Y-104563335D02*
X166647618Y-104563335D01*
X166647618Y-104563335D02*
X166571428Y-104601430D01*
X166571428Y-104601430D02*
X166495237Y-104677620D01*
X166495237Y-104677620D02*
X166457142Y-104830001D01*
X166457142Y-104830001D02*
X166457142Y-105096668D01*
X166457142Y-105096668D02*
X166495237Y-105249049D01*
X166495237Y-105249049D02*
X166571428Y-105325240D01*
X166571428Y-105325240D02*
X166647618Y-105363335D01*
X166647618Y-105363335D02*
X166799999Y-105363335D01*
X166799999Y-105363335D02*
X166876190Y-105325240D01*
X166876190Y-105325240D02*
X166952380Y-105249049D01*
X166952380Y-105249049D02*
X166990476Y-105096668D01*
X166990476Y-105096668D02*
X166990476Y-104830001D01*
X166990476Y-104830001D02*
X166952380Y-104677620D01*
X166952380Y-104677620D02*
X166876190Y-104601430D01*
X166876190Y-104601430D02*
X166799999Y-104563335D01*
X166114285Y-104563335D02*
X166114285Y-105210954D01*
X166114285Y-105210954D02*
X166076190Y-105287144D01*
X166076190Y-105287144D02*
X166038095Y-105325240D01*
X166038095Y-105325240D02*
X165961904Y-105363335D01*
X165961904Y-105363335D02*
X165809523Y-105363335D01*
X165809523Y-105363335D02*
X165733333Y-105325240D01*
X165733333Y-105325240D02*
X165695238Y-105287144D01*
X165695238Y-105287144D02*
X165657142Y-105210954D01*
X165657142Y-105210954D02*
X165657142Y-104563335D01*
X165390476Y-104563335D02*
X164933333Y-104563335D01*
X165161905Y-105363335D02*
X165161905Y-104563335D01*
X166609523Y-107141429D02*
X166685713Y-107103334D01*
X166685713Y-107103334D02*
X166799999Y-107103334D01*
X166799999Y-107103334D02*
X166914285Y-107141429D01*
X166914285Y-107141429D02*
X166990475Y-107217619D01*
X166990475Y-107217619D02*
X167028570Y-107293810D01*
X167028570Y-107293810D02*
X167066666Y-107446191D01*
X167066666Y-107446191D02*
X167066666Y-107560477D01*
X167066666Y-107560477D02*
X167028570Y-107712858D01*
X167028570Y-107712858D02*
X166990475Y-107789048D01*
X166990475Y-107789048D02*
X166914285Y-107865239D01*
X166914285Y-107865239D02*
X166799999Y-107903334D01*
X166799999Y-107903334D02*
X166723808Y-107903334D01*
X166723808Y-107903334D02*
X166609523Y-107865239D01*
X166609523Y-107865239D02*
X166571427Y-107827143D01*
X166571427Y-107827143D02*
X166571427Y-107560477D01*
X166571427Y-107560477D02*
X166723808Y-107560477D01*
X166228570Y-107903334D02*
X166228570Y-107103334D01*
X166228570Y-107103334D02*
X165771427Y-107903334D01*
X165771427Y-107903334D02*
X165771427Y-107103334D01*
X165390475Y-107903334D02*
X165390475Y-107103334D01*
X165390475Y-107103334D02*
X165199999Y-107103334D01*
X165199999Y-107103334D02*
X165085713Y-107141429D01*
X165085713Y-107141429D02*
X165009523Y-107217619D01*
X165009523Y-107217619D02*
X164971428Y-107293810D01*
X164971428Y-107293810D02*
X164933332Y-107446191D01*
X164933332Y-107446191D02*
X164933332Y-107560477D01*
X164933332Y-107560477D02*
X164971428Y-107712858D01*
X164971428Y-107712858D02*
X165009523Y-107789048D01*
X165009523Y-107789048D02*
X165085713Y-107865239D01*
X165085713Y-107865239D02*
X165199999Y-107903334D01*
X165199999Y-107903334D02*
X165390475Y-107903334D01*
X142928571Y-101355859D02*
X142928571Y-100355859D01*
X142928571Y-100355859D02*
X142690476Y-100355859D01*
X142690476Y-100355859D02*
X142547619Y-100403478D01*
X142547619Y-100403478D02*
X142452381Y-100498716D01*
X142452381Y-100498716D02*
X142404762Y-100593954D01*
X142404762Y-100593954D02*
X142357143Y-100784430D01*
X142357143Y-100784430D02*
X142357143Y-100927287D01*
X142357143Y-100927287D02*
X142404762Y-101117763D01*
X142404762Y-101117763D02*
X142452381Y-101213001D01*
X142452381Y-101213001D02*
X142547619Y-101308240D01*
X142547619Y-101308240D02*
X142690476Y-101355859D01*
X142690476Y-101355859D02*
X142928571Y-101355859D01*
X141976190Y-101070144D02*
X141500000Y-101070144D01*
X142071428Y-101355859D02*
X141738095Y-100355859D01*
X141738095Y-100355859D02*
X141404762Y-101355859D01*
X141214285Y-100355859D02*
X140642857Y-100355859D01*
X140928571Y-101355859D02*
X140928571Y-100355859D01*
X140309523Y-101355859D02*
X140309523Y-100355859D01*
X140309523Y-100355859D02*
X139738095Y-101355859D01*
X139738095Y-101355859D02*
X139738095Y-100355859D01*
X139261904Y-101260620D02*
X139214285Y-101308240D01*
X139214285Y-101308240D02*
X139261904Y-101355859D01*
X139261904Y-101355859D02*
X139309523Y-101308240D01*
X139309523Y-101308240D02*
X139261904Y-101260620D01*
X139261904Y-101260620D02*
X139261904Y-101355859D01*
X139261904Y-100736811D02*
X139214285Y-100784430D01*
X139214285Y-100784430D02*
X139261904Y-100832049D01*
X139261904Y-100832049D02*
X139309523Y-100784430D01*
X139309523Y-100784430D02*
X139261904Y-100736811D01*
X139261904Y-100736811D02*
X139261904Y-100832049D01*
X138023809Y-101355859D02*
X138023809Y-100355859D01*
X138023809Y-100355859D02*
X137642857Y-100355859D01*
X137642857Y-100355859D02*
X137547619Y-100403478D01*
X137547619Y-100403478D02*
X137500000Y-100451097D01*
X137500000Y-100451097D02*
X137452381Y-100546335D01*
X137452381Y-100546335D02*
X137452381Y-100689192D01*
X137452381Y-100689192D02*
X137500000Y-100784430D01*
X137500000Y-100784430D02*
X137547619Y-100832049D01*
X137547619Y-100832049D02*
X137642857Y-100879668D01*
X137642857Y-100879668D02*
X138023809Y-100879668D01*
X137023809Y-101355859D02*
X137023809Y-100355859D01*
X137023809Y-100355859D02*
X136642857Y-100355859D01*
X136642857Y-100355859D02*
X136547619Y-100403478D01*
X136547619Y-100403478D02*
X136500000Y-100451097D01*
X136500000Y-100451097D02*
X136452381Y-100546335D01*
X136452381Y-100546335D02*
X136452381Y-100689192D01*
X136452381Y-100689192D02*
X136500000Y-100784430D01*
X136500000Y-100784430D02*
X136547619Y-100832049D01*
X136547619Y-100832049D02*
X136642857Y-100879668D01*
X136642857Y-100879668D02*
X137023809Y-100879668D01*
X135500000Y-100403478D02*
X135595238Y-100355859D01*
X135595238Y-100355859D02*
X135738095Y-100355859D01*
X135738095Y-100355859D02*
X135880952Y-100403478D01*
X135880952Y-100403478D02*
X135976190Y-100498716D01*
X135976190Y-100498716D02*
X136023809Y-100593954D01*
X136023809Y-100593954D02*
X136071428Y-100784430D01*
X136071428Y-100784430D02*
X136071428Y-100927287D01*
X136071428Y-100927287D02*
X136023809Y-101117763D01*
X136023809Y-101117763D02*
X135976190Y-101213001D01*
X135976190Y-101213001D02*
X135880952Y-101308240D01*
X135880952Y-101308240D02*
X135738095Y-101355859D01*
X135738095Y-101355859D02*
X135642857Y-101355859D01*
X135642857Y-101355859D02*
X135500000Y-101308240D01*
X135500000Y-101308240D02*
X135452381Y-101260620D01*
X135452381Y-101260620D02*
X135452381Y-100927287D01*
X135452381Y-100927287D02*
X135642857Y-100927287D01*
X135023809Y-100974906D02*
X134261905Y-100974906D01*
X133833333Y-101308240D02*
X133690476Y-101355859D01*
X133690476Y-101355859D02*
X133452381Y-101355859D01*
X133452381Y-101355859D02*
X133357143Y-101308240D01*
X133357143Y-101308240D02*
X133309524Y-101260620D01*
X133309524Y-101260620D02*
X133261905Y-101165382D01*
X133261905Y-101165382D02*
X133261905Y-101070144D01*
X133261905Y-101070144D02*
X133309524Y-100974906D01*
X133309524Y-100974906D02*
X133357143Y-100927287D01*
X133357143Y-100927287D02*
X133452381Y-100879668D01*
X133452381Y-100879668D02*
X133642857Y-100832049D01*
X133642857Y-100832049D02*
X133738095Y-100784430D01*
X133738095Y-100784430D02*
X133785714Y-100736811D01*
X133785714Y-100736811D02*
X133833333Y-100641573D01*
X133833333Y-100641573D02*
X133833333Y-100546335D01*
X133833333Y-100546335D02*
X133785714Y-100451097D01*
X133785714Y-100451097D02*
X133738095Y-100403478D01*
X133738095Y-100403478D02*
X133642857Y-100355859D01*
X133642857Y-100355859D02*
X133404762Y-100355859D01*
X133404762Y-100355859D02*
X133261905Y-100403478D01*
X132833333Y-101355859D02*
X132833333Y-100689192D01*
X132833333Y-100355859D02*
X132880952Y-100403478D01*
X132880952Y-100403478D02*
X132833333Y-100451097D01*
X132833333Y-100451097D02*
X132785714Y-100403478D01*
X132785714Y-100403478D02*
X132833333Y-100355859D01*
X132833333Y-100355859D02*
X132833333Y-100451097D01*
X132357143Y-101355859D02*
X132357143Y-100689192D01*
X132357143Y-100784430D02*
X132309524Y-100736811D01*
X132309524Y-100736811D02*
X132214286Y-100689192D01*
X132214286Y-100689192D02*
X132071429Y-100689192D01*
X132071429Y-100689192D02*
X131976191Y-100736811D01*
X131976191Y-100736811D02*
X131928572Y-100832049D01*
X131928572Y-100832049D02*
X131928572Y-101355859D01*
X131928572Y-100832049D02*
X131880953Y-100736811D01*
X131880953Y-100736811D02*
X131785715Y-100689192D01*
X131785715Y-100689192D02*
X131642858Y-100689192D01*
X131642858Y-100689192D02*
X131547619Y-100736811D01*
X131547619Y-100736811D02*
X131500000Y-100832049D01*
X131500000Y-100832049D02*
X131500000Y-101355859D01*
X130595239Y-100689192D02*
X130595239Y-101355859D01*
X131023810Y-100689192D02*
X131023810Y-101213001D01*
X131023810Y-101213001D02*
X130976191Y-101308240D01*
X130976191Y-101308240D02*
X130880953Y-101355859D01*
X130880953Y-101355859D02*
X130738096Y-101355859D01*
X130738096Y-101355859D02*
X130642858Y-101308240D01*
X130642858Y-101308240D02*
X130595239Y-101260620D01*
X129976191Y-101355859D02*
X130071429Y-101308240D01*
X130071429Y-101308240D02*
X130119048Y-101213001D01*
X130119048Y-101213001D02*
X130119048Y-100355859D01*
X129166667Y-101355859D02*
X129166667Y-100832049D01*
X129166667Y-100832049D02*
X129214286Y-100736811D01*
X129214286Y-100736811D02*
X129309524Y-100689192D01*
X129309524Y-100689192D02*
X129500000Y-100689192D01*
X129500000Y-100689192D02*
X129595238Y-100736811D01*
X129166667Y-101308240D02*
X129261905Y-101355859D01*
X129261905Y-101355859D02*
X129500000Y-101355859D01*
X129500000Y-101355859D02*
X129595238Y-101308240D01*
X129595238Y-101308240D02*
X129642857Y-101213001D01*
X129642857Y-101213001D02*
X129642857Y-101117763D01*
X129642857Y-101117763D02*
X129595238Y-101022525D01*
X129595238Y-101022525D02*
X129500000Y-100974906D01*
X129500000Y-100974906D02*
X129261905Y-100974906D01*
X129261905Y-100974906D02*
X129166667Y-100927287D01*
X128833333Y-100689192D02*
X128452381Y-100689192D01*
X128690476Y-100355859D02*
X128690476Y-101213001D01*
X128690476Y-101213001D02*
X128642857Y-101308240D01*
X128642857Y-101308240D02*
X128547619Y-101355859D01*
X128547619Y-101355859D02*
X128452381Y-101355859D01*
X127976190Y-101355859D02*
X128071428Y-101308240D01*
X128071428Y-101308240D02*
X128119047Y-101260620D01*
X128119047Y-101260620D02*
X128166666Y-101165382D01*
X128166666Y-101165382D02*
X128166666Y-100879668D01*
X128166666Y-100879668D02*
X128119047Y-100784430D01*
X128119047Y-100784430D02*
X128071428Y-100736811D01*
X128071428Y-100736811D02*
X127976190Y-100689192D01*
X127976190Y-100689192D02*
X127833333Y-100689192D01*
X127833333Y-100689192D02*
X127738095Y-100736811D01*
X127738095Y-100736811D02*
X127690476Y-100784430D01*
X127690476Y-100784430D02*
X127642857Y-100879668D01*
X127642857Y-100879668D02*
X127642857Y-101165382D01*
X127642857Y-101165382D02*
X127690476Y-101260620D01*
X127690476Y-101260620D02*
X127738095Y-101308240D01*
X127738095Y-101308240D02*
X127833333Y-101355859D01*
X127833333Y-101355859D02*
X127976190Y-101355859D01*
X127214285Y-101355859D02*
X127214285Y-100689192D01*
X127214285Y-100879668D02*
X127166666Y-100784430D01*
X127166666Y-100784430D02*
X127119047Y-100736811D01*
X127119047Y-100736811D02*
X127023809Y-100689192D01*
X127023809Y-100689192D02*
X126928571Y-100689192D01*
M02*
