M48
; DRILL file KiCad 10.0.6 date 2026-09-24T16:44:36
; FORMAT={-:-/ absolute / metric / decimal}
; #@! TF.CreationDate,2026-09-24T16:44:36+07:00
; #@! TF.GenerationSoftware,Kicad,Pcbnew,10.0.6
; #@! TF.FileFunction,Plated,1,2,PTH
FMAT,2
METRIC
; #@! TA.AperFunction,Plated,PTH,ComponentDrill
T1C0.800
; #@! TA.AperFunction,Plated,PTH,ComponentDrill
T2C1.000
%
G90
G05
T1
X109.0Y-127.0
X109.0Y-131.0
X112.0Y-146.0
X116.62Y-127.0
X116.62Y-131.0
X118.0Y-141.0
X119.62Y-146.0
X120.54Y-141.0
X123.0Y-129.5
X123.0Y-137.12
X123.08Y-141.0
X127.0Y-138.0
X127.0Y-140.5
X130.0Y-145.0
X131.19Y-130.19
X131.19Y-132.73
X131.19Y-135.27
X131.19Y-137.81
X132.0Y-145.0
X138.81Y-126.0
X138.81Y-130.19
X138.81Y-132.73
X138.81Y-135.27
X138.81Y-137.81
X141.31Y-126.0
X143.0Y-138.0
X143.0Y-140.5
X146.0Y-127.0
X146.0Y-131.0
X146.0Y-135.0
X147.0Y-141.0
X148.0Y-146.0
X149.54Y-141.0
X152.08Y-141.0
X153.62Y-127.0
X153.62Y-131.0
X153.62Y-135.0
X155.62Y-146.0
T2
X107.0Y-110.0
X107.0Y-112.54
X107.0Y-115.08
X107.0Y-117.62
X107.0Y-120.16
X107.0Y-122.7
X123.0Y-150.0
X125.54Y-150.0
X129.0Y-110.0
X129.0Y-112.54
X129.0Y-115.08
X129.0Y-117.62
X129.0Y-120.16
X129.0Y-122.7
X134.0Y-150.0
X136.54Y-150.0
X140.0Y-110.0
X140.0Y-112.54
X140.0Y-115.08
X140.0Y-117.62
X140.0Y-120.16
X140.0Y-122.7
X146.0Y-150.0
X148.54Y-150.0
M30
