ISO-10303-21;
HEADER;
/* CP_Elec_5x5.4.step 3D STEP model for use in ECAD systems
 * Copyright (C) 2018, kicad StepUp
 *
 * This work is licensed under the [Creative Commons CC-BY-SA 4.0 License](https://creativecommons.org/licenses/by-sa/4.0/legalcode),
 * with the following exception:
 * To the extent that the creation of electronic designs that use 'Licensed Material' can be considered to be 'Adapted Material',
 * then the copyright holder waives article 3 of the license with respect to these designs and any generated files which use data provided
 * as part of the 'Licensed Material'.
 * You are free to use the library data in your own projects without the obligation to share your project files under this or any other license agreement.
 * However, if you wish to redistribute these libraries, or parts thereof (including in modified form) as a collection then the exception above does not apply.
 * Please refer to https://github.com/KiCad/kicad-packages3D/blob/master/LICENSE.md for further clarification of the exception.
 * Disclaimer of Warranties and Limitation of Liability.
 * These libraries are provided in the hope that they will be useful, but are provided without warranty of any kind, express or implied.
 * *USE 3D CAD DATA AT YOUR OWN RISK*
 * *DO NOT RELY UPON ANY INFORMATION FOUND HERE WITHOUT INDEPENDENT VERIFICATION.*
 *
 */

FILE_DESCRIPTION(
/* description */ ('model of CP_Elec_5x5.4'),
/* implementation_level */ '2;1');

FILE_NAME(
/* name */ 'CP_Elec_5x5.4.step',
/* time_stamp */ '2018-06-25T02:14:31',
/* author */ ('kicad StepUp','ksu'),
/* organization */ ('FreeCAD'),
/* preprocessor_version */ 'OCC',
/* originating_system */ 'kicad StepUp',
/* authorisation */ '');

FILE_SCHEMA(('AUTOMOTIVE_DESIGN { 1 0 10303 214 1 1 1 1 }'));
ENDSEC;

DATA;
#1=APPLICATION_PROTOCOL_DEFINITION('international standard','automotive_design',2000,#2);
#2=APPLICATION_CONTEXT('core data for automotive mechanical design processes');
#3=SHAPE_DEFINITION_REPRESENTATION(#4,#10);
#4=PRODUCT_DEFINITION_SHAPE('','',#5);
#5=PRODUCT_DEFINITION('design','',#6,#9);
#6=PRODUCT_DEFINITION_FORMATION('','',#7);
#7=PRODUCT('CP_Elec_5x54','CP_Elec_5x54','',(#8));
#8=PRODUCT_CONTEXT('',#2,'mechanical');
#9=PRODUCT_DEFINITION_CONTEXT('part definition',#2,'design');
#10=ADVANCED_BREP_SHAPE_REPRESENTATION('',(#11,#15),#855);
#11=AXIS2_PLACEMENT_3D('',#12,#13,#14);
#12=CARTESIAN_POINT('',(0.,0.,0.));
#13=DIRECTION('',(0.,0.,1.));
#14=DIRECTION('',(1.,0.,-0.));
#15=MANIFOLD_SOLID_BREP('',#16);
#16=CLOSED_SHELL('',(#17,#55,#72,#110,#163,#191,#238,#253,#264,#300,#335,#349,#360,#397,#435,#499,#511,#527,#533,#546,#550,#562,#570,#583,#587,#603,#633,#652,#669,#684,#703,#720,#735,#745,#755,#788,#811,#819,#829,#839,#849));
#17=ADVANCED_FACE('',(#18),#52,.T.);
#18=FACE_BOUND('',#19,.F.);
#19=EDGE_LOOP('',(#20,#29,#36,#37));
#20=ORIENTED_EDGE('',*,*,#21,.F.);
#21=EDGE_CURVE('',#22,#24,#26,.T.);
#22=VERTEX_POINT('',#23);
#23=CARTESIAN_POINT('',(-2.5,3.061616997868E-16,0.983333333333));
#24=VERTEX_POINT('',#25);
#25=CARTESIAN_POINT('',(-2.5,3.061616997868E-16,1.526138721247));
#26=LINE('',#27,#28);
#27=CARTESIAN_POINT('',(-2.5,3.061616997868E-16,0.65));
#28=VECTOR('',#13,1.);
#29=ORIENTED_EDGE('',*,*,#30,.T.);
#30=EDGE_CURVE('',#22,#22,#31,.T.);
#31=CIRCLE('',#32,2.5);
#32=AXIS2_PLACEMENT_3D('',#33,#34,#35);
#33=CARTESIAN_POINT('',(0.,0.,0.983333333333));
#34=DIRECTION('',(0.,0.,-1.));
#35=DIRECTION('',(-1.,1.224646799147E-16,0.));
#36=ORIENTED_EDGE('',*,*,#21,.T.);
#37=ORIENTED_EDGE('',*,*,#38,.F.);
#38=EDGE_CURVE('',#24,#24,#39,.T.);
#39=( BOUNDED_CURVE() B_SPLINE_CURVE(13,(#25,#40,#41,#42,#43,#44,#45,#46,#47,#48,#49,#50,#51,#25),.UNSPECIFIED.,.T.,.F.) B_SPLINE_CURVE_WITH_KNOTS((14,14),(3.106555508923E-16,15.707963267949),.PIECEWISE_BEZIER_KNOTS.) CURVE() GEOMETRIC_REPRESENTATION_ITEM() RATIONAL_B_SPLINE_CURVE((1.,1.,1.000000000001,0.999999999997,1.000000000006,0.99999999999,1.000000000011,0.99999999999,1.000000000008,0.999999999995,1.000000000002,0.999999999999,1.,1.)) REPRESENTATION_ITEM('') );
#40=CARTESIAN_POINT('',(-2.500000000001,1.190825886764,1.526138721247));
#41=CARTESIAN_POINT('',(-1.884541892296,2.409113115869,1.526138721247));
#42=CARTESIAN_POINT('',(-0.618015285825,3.280240320887,1.526138721247));
#43=CARTESIAN_POINT('',(1.124886085403,3.414028857856,1.526138721247));
#44=CARTESIAN_POINT('',(2.630545419374,2.485545151043,1.526138721247));
#45=CARTESIAN_POINT('',(3.734788378755,1.1301663707,1.526138721247));
#46=CARTESIAN_POINT('',(3.734788378773,-1.130166370725,1.526138721247));
#47=CARTESIAN_POINT('',(2.63054541938,-2.485545151,1.526138721247));
#48=CARTESIAN_POINT('',(1.124886085383,-3.414028857894,1.526138721247));
#49=CARTESIAN_POINT('',(-0.618015285806,-3.280240320869,1.526138721247));
#50=CARTESIAN_POINT('',(-1.884541892305,-2.409113115874,1.526138721247));
#51=CARTESIAN_POINT('',(-2.499999999999,-1.190825886764,1.526138721247));
#52=CYLINDRICAL_SURFACE('',#53,2.5);
#53=AXIS2_PLACEMENT_3D('',#54,#13,#35);
#54=CARTESIAN_POINT('',(0.,0.,0.65));
#55=ADVANCED_FACE('',(#56),#71,.T.);
#56=FACE_BOUND('',#57,.T.);
#57=EDGE_LOOP('',(#29,#58,#66,#70));
#58=ORIENTED_EDGE('',*,*,#59,.T.);
#59=EDGE_CURVE('',#22,#60,#62,.T.);
#60=VERTEX_POINT('',#61);
#61=CARTESIAN_POINT('',(-2.166666666667,2.653401398153E-16,0.65));
#62=CIRCLE('',#63,0.333333333333);
#63=AXIS2_PLACEMENT_3D('',#64,#65,#35);
#64=CARTESIAN_POINT('',(-2.166666666667,2.653401398153E-16,0.983333333333));
#65=DIRECTION('',(-1.224646799147E-16,-1.,-0.));
#66=ORIENTED_EDGE('',*,*,#67,.F.);
#67=EDGE_CURVE('',#60,#60,#68,.T.);
#68=CIRCLE('',#69,2.166666666667);
#69=AXIS2_PLACEMENT_3D('',#54,#34,#35);
#70=ORIENTED_EDGE('',*,*,#59,.F.);
#71=TOROIDAL_SURFACE('',#32,2.166666666667,0.333333333333);
#72=ADVANCED_FACE('',(#73),#97,.T.);
#73=FACE_BOUND('',#74,.T.);
#74=EDGE_LOOP('',(#75,#81,#96,#37));
#75=ORIENTED_EDGE('',*,*,#76,.T.);
#76=EDGE_CURVE('',#24,#77,#79,.T.);
#77=VERTEX_POINT('',#78);
#78=CARTESIAN_POINT('',(-2.477272727273,3.03378411607E-16,1.551035201134));
#79=( BOUNDED_CURVE() B_SPLINE_CURVE(2,(#25,#80,#78),.UNSPECIFIED.,.F.,.F.) B_SPLINE_CURVE_WITH_KNOTS((3,3),(0.,15.707963267949),.PIECEWISE_BEZIER_KNOTS.) CURVE() GEOMETRIC_REPRESENTATION_ITEM() RATIONAL_B_SPLINE_CURVE((1.,0.738548945876,1.)) REPRESENTATION_ITEM(''));
#80=CARTESIAN_POINT('',(-2.5,3.933468488054E-15,1.548960494477));
#81=ORIENTED_EDGE('',*,*,#82,.T.);
#82=EDGE_CURVE('',#77,#77,#83,.T.);
#83=( BOUNDED_CURVE() B_SPLINE_CURVE(13,(#78,#84,#85,#86,#87,#88,#89,#90,#91,#92,#93,#94,#95,#78),.UNSPECIFIED.,.T.,.F.) B_SPLINE_CURVE_WITH_KNOTS((14,14),(3.106555508923E-16,15.707963267949),.PIECEWISE_BEZIER_KNOTS.) CURVE() GEOMETRIC_REPRESENTATION_ITEM() RATIONAL_B_SPLINE_CURVE((1.,1.,1.000000000001,0.999999999997,1.000000000006,0.99999999999,1.000000000011,0.99999999999,1.000000000008,0.999999999995,1.000000000002,0.999999999999,1.,1.)) REPRESENTATION_ITEM('') );
#84=CARTESIAN_POINT('',(-2.477272727274,1.180000196885,1.551035201134));
#85=CARTESIAN_POINT('',(-1.867409693275,2.387212087543,1.551035201134));
#86=CARTESIAN_POINT('',(-0.612396965045,3.250419954334,1.551035201134));
#87=CARTESIAN_POINT('',(1.114659848264,3.382992231874,1.551035201134));
#88=CARTESIAN_POINT('',(2.606631370106,2.462949286036,1.551035201134));
#89=CARTESIAN_POINT('',(3.700835757132,1.119892130964,1.551035201134));
#90=CARTESIAN_POINT('',(3.700835757146,-1.119892130988,1.551035201134));
#91=CARTESIAN_POINT('',(2.606631370114,-2.462949285994,1.551035201134));
#92=CARTESIAN_POINT('',(1.114659848242,-3.382992231911,1.551035201134));
#93=CARTESIAN_POINT('',(-0.612396965025,-3.250419954317,1.551035201134));
#94=CARTESIAN_POINT('',(-1.867409693285,-2.387212087547,1.551035201134));
#95=CARTESIAN_POINT('',(-2.477272727272,-1.180000196884,1.551035201134));
#96=ORIENTED_EDGE('',*,*,#76,.F.);
#97=( BOUNDED_SURFACE() B_SPLINE_SURFACE(2,13,((#25,#40,#41,#42,#43,#44,#45,#46,#47,#48,#49,#50,#51,#25),(#80,#98,#99,#100,#101,#102,#103,#104,#105,#106,#107,#108,#109,#80),(#78,#84,#85,#86,#87,#88,#89,#90,#91,#92,#93,#94,#95,#78)),.UNSPECIFIED.,.F.,.F.,.F.) B_SPLINE_SURFACE_WITH_KNOTS((3,3),(14,14),(0.,15.707963267949),(3.106555508923E-16,15.707963267949),.PIECEWISE_BEZIER_KNOTS.) GEOMETRIC_REPRESENTATION_ITEM() RATIONAL_B_SPLINE_SURFACE(((1.,1.,1.000000000001,0.999999999997,1.000000000006,0.99999999999,1.000000000011,0.99999999999,1.000000000008,0.999999999995,1.000000000002,0.999999999999,1.,1.),(0.738548945876,0.738548945876,0.738548945877,0.738548945873,0.738548945882,0.738548945867,0.738548945887,0.738548945866,0.738548945884,0.738548945871,0.738548945878,0.738548945875,0.738548945876,0.738548945876),(1.,1.,1.000000000001,0.999999999997,1.000000000006,0.99999999999,1.000000000011,0.99999999999,1.000000000008,0.999999999995,1.000000000002,0.999999999999,1.,1.))) REPRESENTATION_ITEM('') SURFACE() );
#98=CARTESIAN_POINT('',(-2.500000000002,1.190825886764,1.548960494477));
#99=CARTESIAN_POINT('',(-1.884541892295,2.409113115868,1.548960494477));
#100=CARTESIAN_POINT('',(-0.618015285825,3.280240320889,1.548960494477));
#101=CARTESIAN_POINT('',(1.1248860854,3.414028857851,1.548960494477));
#102=CARTESIAN_POINT('',(2.630545419382,2.485545151048,1.548960494477));
#103=CARTESIAN_POINT('',(3.734788378742,1.130166370699,1.548960494477));
#104=CARTESIAN_POINT('',(3.734788378787,-1.130166370731,1.548960494477));
#105=CARTESIAN_POINT('',(2.630545419371,-2.485545150992,1.548960494477));
#106=CARTESIAN_POINT('',(1.124886085386,-3.414028857901,1.548960494477));
#107=CARTESIAN_POINT('',(-0.618015285806,-3.280240320865,1.548960494477));
#108=CARTESIAN_POINT('',(-1.884541892306,-2.409113115875,1.548960494477));
#109=CARTESIAN_POINT('',(-2.499999999999,-1.190825886764,1.548960494477));
#110=ADVANCED_FACE('',(#111,#159),#162,.T.);
#111=FACE_BOUND('',#112,.T.);
#112=EDGE_LOOP('',(#113,#122,#127,#134,#138,#146,#150,#157));
#113=ORIENTED_EDGE('',*,*,#114,.T.);
#114=EDGE_CURVE('',#115,#117,#119,.T.);
#115=VERTEX_POINT('',#116);
#116=CARTESIAN_POINT('',(-2.65,0.517204021639,0.65));
#117=VERTEX_POINT('',#118);
#118=CARTESIAN_POINT('',(-2.65,-0.517204021639,0.65));
#119=LINE('',#120,#121);
#120=CARTESIAN_POINT('',(-2.65,0.825,0.65));
#121=VECTOR('',#65,1.);
#122=ORIENTED_EDGE('',*,*,#123,.T.);
#123=EDGE_CURVE('',#117,#124,#126,.T.);
#124=VERTEX_POINT('',#125);
#125=CARTESIAN_POINT('',(-0.517204021639,-2.65,0.65));
#126=CIRCLE('',#53,2.7);
#127=ORIENTED_EDGE('',*,*,#128,.T.);
#128=EDGE_CURVE('',#124,#129,#131,.T.);
#129=VERTEX_POINT('',#130);
#130=CARTESIAN_POINT('',(0.517204021639,-2.65,0.65));
#131=LINE('',#132,#133);
#132=CARTESIAN_POINT('',(-0.825,-2.65,0.65));
#133=VECTOR('',#14,1.);
#134=ORIENTED_EDGE('',*,*,#135,.T.);
#135=EDGE_CURVE('',#129,#136,#126,.T.);
#136=VERTEX_POINT('',#137);
#137=CARTESIAN_POINT('',(2.65,-0.517204021639,0.65));
#138=ORIENTED_EDGE('',*,*,#139,.T.);
#139=EDGE_CURVE('',#136,#140,#142,.T.);
#140=VERTEX_POINT('',#141);
#141=CARTESIAN_POINT('',(2.65,0.517204021639,0.65));
#142=LINE('',#143,#144);
#143=CARTESIAN_POINT('',(2.65,-1.325,0.65));
#144=VECTOR('',#145,1.);
#145=DIRECTION('',(1.224646799147E-16,1.,0.));
#146=ORIENTED_EDGE('',*,*,#147,.T.);
#147=EDGE_CURVE('',#140,#148,#126,.T.);
#148=VERTEX_POINT('',#149);
#149=CARTESIAN_POINT('',(0.517204021639,2.65,0.65));
#150=ORIENTED_EDGE('',*,*,#151,.T.);
#151=EDGE_CURVE('',#148,#152,#154,.T.);
#152=VERTEX_POINT('',#153);
#153=CARTESIAN_POINT('',(-0.517204021639,2.65,0.65));
#154=LINE('',#155,#156);
#155=CARTESIAN_POINT('',(1.325,2.65,0.65));
#156=VECTOR('',#35,1.);
#157=ORIENTED_EDGE('',*,*,#158,.T.);
#158=EDGE_CURVE('',#152,#115,#126,.T.);
#159=FACE_BOUND('',#160,.T.);
#160=EDGE_LOOP('',(#161));
#161=ORIENTED_EDGE('',*,*,#67,.T.);
#162=PLANE('',#53);
#163=ADVANCED_FACE('',(#164),#189,.F.);
#164=FACE_BOUND('',#165,.F.);
#165=EDGE_LOOP('',(#166,#81,#173,#174));
#166=ORIENTED_EDGE('',*,*,#167,.F.);
#167=EDGE_CURVE('',#77,#168,#170,.T.);
#168=VERTEX_POINT('',#169);
#169=CARTESIAN_POINT('',(-2.477272727273,3.03378411607E-16,2.048964798866));
#170=CIRCLE('',#171,0.25);
#171=AXIS2_PLACEMENT_3D('',#172,#65,#34);
#172=CARTESIAN_POINT('',(-2.5,3.061616997868E-16,1.8));
#173=ORIENTED_EDGE('',*,*,#167,.T.);
#174=ORIENTED_EDGE('',*,*,#175,.F.);
#175=EDGE_CURVE('',#168,#168,#176,.T.);
#176=( BOUNDED_CURVE() B_SPLINE_CURVE(13,(#169,#177,#178,#179,#180,#181,#182,#183,#184,#185,#186,#187,#188,#169),.UNSPECIFIED.,.T.,.F.) B_SPLINE_CURVE_WITH_KNOTS((14,14),(3.106555508923E-16,15.707963267949),.PIECEWISE_BEZIER_KNOTS.) CURVE() GEOMETRIC_REPRESENTATION_ITEM() RATIONAL_B_SPLINE_CURVE((1.,1.,1.000000000001,0.999999999997,1.000000000006,0.99999999999,1.000000000011,0.99999999999,1.000000000008,0.999999999995,1.000000000002,0.999999999999,1.,1.)) REPRESENTATION_ITEM('') );
#177=CARTESIAN_POINT('',(-2.477272727274,1.180000196885,2.048964798866));
#178=CARTESIAN_POINT('',(-1.867409693275,2.387212087543,2.048964798866));
#179=CARTESIAN_POINT('',(-0.612396965046,3.250419954334,2.048964798866));
#180=CARTESIAN_POINT('',(1.114659848265,3.382992231875,2.048964798866));
#181=CARTESIAN_POINT('',(2.606631370105,2.462949286034,2.048964798866));
#182=CARTESIAN_POINT('',(3.700835757133,1.119892130967,2.048964798866));
#183=CARTESIAN_POINT('',(3.700835757146,-1.119892130991,2.048964798866));
#184=CARTESIAN_POINT('',(2.606631370114,-2.462949285992,2.048964798866));
#185=CARTESIAN_POINT('',(1.114659848243,-3.382992231912,2.048964798866));
#186=CARTESIAN_POINT('',(-0.612396965026,-3.250419954316,2.048964798866));
#187=CARTESIAN_POINT('',(-1.867409693284,-2.387212087548,2.048964798866));
#188=CARTESIAN_POINT('',(-2.477272727272,-1.180000196884,2.048964798866));
#189=SURFACE_OF_REVOLUTION('',#170,#190);
#190=AXIS1_PLACEMENT('',#54,#34);
#191=ADVANCED_FACE('',(#192),#236,.F.);
#192=FACE_BOUND('',#193,.F.);
#193=EDGE_LOOP('',(#194,#201,#206,#212,#113,#216,#221,#225,#230,#234));
#194=ORIENTED_EDGE('',*,*,#195,.F.);
#195=EDGE_CURVE('',#196,#198,#200,.T.);
#196=VERTEX_POINT('',#197);
#197=CARTESIAN_POINT('',(-2.65,1.65,0.15));
#198=VERTEX_POINT('',#199);
#199=CARTESIAN_POINT('',(-2.65,0.325,0.15));
#200=LINE('',#197,#121);
#201=ORIENTED_EDGE('',*,*,#202,.T.);
#202=EDGE_CURVE('',#196,#203,#205,.T.);
#203=VERTEX_POINT('',#204);
#204=CARTESIAN_POINT('',(-2.65,1.65,0.85));
#205=LINE('',#197,#28);
#206=ORIENTED_EDGE('',*,*,#207,.T.);
#207=EDGE_CURVE('',#203,#208,#210,.T.);
#208=VERTEX_POINT('',#209);
#209=CARTESIAN_POINT('',(-2.65,0.517204021639,0.85));
#210=LINE('',#211,#121);
#211=CARTESIAN_POINT('',(-2.65,2.65,0.85));
#212=ORIENTED_EDGE('',*,*,#213,.T.);
#213=EDGE_CURVE('',#208,#115,#214,.T.);
#214=LINE('',#116,#215);
#215=VECTOR('',#34,1.);
#216=ORIENTED_EDGE('',*,*,#217,.F.);
#217=EDGE_CURVE('',#218,#117,#220,.T.);
#218=VERTEX_POINT('',#219);
#219=CARTESIAN_POINT('',(-2.65,-0.517204021639,0.85));
#220=LINE('',#118,#215);
#221=ORIENTED_EDGE('',*,*,#222,.T.);
#222=EDGE_CURVE('',#218,#223,#210,.T.);
#223=VERTEX_POINT('',#224);
#224=CARTESIAN_POINT('',(-2.65,-1.65,0.85));
#225=ORIENTED_EDGE('',*,*,#226,.F.);
#226=EDGE_CURVE('',#227,#223,#229,.T.);
#227=VERTEX_POINT('',#228);
#228=CARTESIAN_POINT('',(-2.65,-1.65,0.15));
#229=LINE('',#228,#28);
#230=ORIENTED_EDGE('',*,*,#231,.F.);
#231=EDGE_CURVE('',#232,#227,#200,.T.);
#232=VERTEX_POINT('',#233);
#233=CARTESIAN_POINT('',(-2.65,-0.325,0.15));
#234=ORIENTED_EDGE('',*,*,#235,.F.);
#235=EDGE_CURVE('',#198,#232,#200,.T.);
#236=PLANE('',#237);
#237=AXIS2_PLACEMENT_3D('',#197,#14,#65);
#238=ADVANCED_FACE('',(#239),#252,.F.);
#239=FACE_BOUND('',#240,.T.);
#240=EDGE_LOOP('',(#241,#212,#248,#249));
#241=ORIENTED_EDGE('',*,*,#242,.F.);
#242=EDGE_CURVE('',#208,#243,#245,.T.);
#243=VERTEX_POINT('',#244);
#244=CARTESIAN_POINT('',(-0.517204021639,2.65,0.85));
#245=CIRCLE('',#246,2.7);
#246=AXIS2_PLACEMENT_3D('',#247,#34,#35);
#247=CARTESIAN_POINT('',(0.,0.,0.85));
#248=ORIENTED_EDGE('',*,*,#158,.F.);
#249=ORIENTED_EDGE('',*,*,#250,.F.);
#250=EDGE_CURVE('',#243,#152,#251,.T.);
#251=LINE('',#153,#215);
#252=CYLINDRICAL_SURFACE('',#69,2.7);
#253=ADVANCED_FACE('',(#254),#252,.F.);
#254=FACE_BOUND('',#255,.T.);
#255=EDGE_LOOP('',(#256,#216,#257,#261));
#256=ORIENTED_EDGE('',*,*,#123,.F.);
#257=ORIENTED_EDGE('',*,*,#258,.F.);
#258=EDGE_CURVE('',#259,#218,#245,.T.);
#259=VERTEX_POINT('',#260);
#260=CARTESIAN_POINT('',(-0.517204021639,-2.65,0.85));
#261=ORIENTED_EDGE('',*,*,#262,.T.);
#262=EDGE_CURVE('',#259,#124,#263,.T.);
#263=LINE('',#125,#215);
#264=ADVANCED_FACE('',(#265),#298,.F.);
#265=FACE_BOUND('',#266,.F.);
#266=EDGE_LOOP('',(#267,#275,#280,#286,#150,#249,#289,#295));
#267=ORIENTED_EDGE('',*,*,#268,.F.);
#268=EDGE_CURVE('',#269,#271,#273,.T.);
#269=VERTEX_POINT('',#270);
#270=CARTESIAN_POINT('',(2.25,2.65,0.15));
#271=VERTEX_POINT('',#272);
#272=CARTESIAN_POINT('',(-1.65,2.65,0.15));
#273=LINE('',#274,#156);
#274=CARTESIAN_POINT('',(2.65,2.65,0.15));
#275=ORIENTED_EDGE('',*,*,#276,.T.);
#276=EDGE_CURVE('',#269,#277,#279,.T.);
#277=VERTEX_POINT('',#278);
#278=CARTESIAN_POINT('',(2.25,2.65,1.15));
#279=LINE('',#270,#28);
#280=ORIENTED_EDGE('',*,*,#281,.T.);
#281=EDGE_CURVE('',#277,#282,#284,.T.);
#282=VERTEX_POINT('',#283);
#283=CARTESIAN_POINT('',(0.517204021639,2.65,1.15));
#284=LINE('',#285,#156);
#285=CARTESIAN_POINT('',(2.65,2.65,1.15));
#286=ORIENTED_EDGE('',*,*,#287,.T.);
#287=EDGE_CURVE('',#282,#148,#288,.T.);
#288=LINE('',#149,#215);
#289=ORIENTED_EDGE('',*,*,#290,.T.);
#290=EDGE_CURVE('',#243,#291,#293,.T.);
#291=VERTEX_POINT('',#292);
#292=CARTESIAN_POINT('',(-1.65,2.65,0.85));
#293=LINE('',#294,#156);
#294=CARTESIAN_POINT('',(3.24531401774E-16,2.65,0.85));
#295=ORIENTED_EDGE('',*,*,#296,.F.);
#296=EDGE_CURVE('',#271,#291,#297,.T.);
#297=LINE('',#272,#28);
#298=PLANE('',#299);
#299=AXIS2_PLACEMENT_3D('',#274,#65,#35);
#300=ADVANCED_FACE('',(#301),#333,.F.);
#301=FACE_BOUND('',#302,.F.);
#302=EDGE_LOOP('',(#303,#310,#315,#320,#261,#127,#324,#329));
#303=ORIENTED_EDGE('',*,*,#304,.F.);
#304=EDGE_CURVE('',#305,#307,#309,.T.);
#305=VERTEX_POINT('',#306);
#306=CARTESIAN_POINT('',(2.25,-2.65,0.15));
#307=VERTEX_POINT('',#308);
#308=CARTESIAN_POINT('',(2.25,-2.65,1.15));
#309=LINE('',#306,#28);
#310=ORIENTED_EDGE('',*,*,#311,.F.);
#311=EDGE_CURVE('',#312,#305,#314,.T.);
#312=VERTEX_POINT('',#313);
#313=CARTESIAN_POINT('',(-1.65,-2.65,0.15));
#314=LINE('',#313,#133);
#315=ORIENTED_EDGE('',*,*,#316,.T.);
#316=EDGE_CURVE('',#312,#317,#319,.T.);
#317=VERTEX_POINT('',#318);
#318=CARTESIAN_POINT('',(-1.65,-2.65,0.85));
#319=LINE('',#313,#28);
#320=ORIENTED_EDGE('',*,*,#321,.F.);
#321=EDGE_CURVE('',#259,#317,#322,.T.);
#322=LINE('',#323,#156);
#323=CARTESIAN_POINT('',(-3.24531401774E-16,-2.65,0.85));
#324=ORIENTED_EDGE('',*,*,#325,.F.);
#325=EDGE_CURVE('',#326,#129,#328,.T.);
#326=VERTEX_POINT('',#327);
#327=CARTESIAN_POINT('',(0.517204021639,-2.65,1.15));
#328=LINE('',#130,#215);
#329=ORIENTED_EDGE('',*,*,#330,.T.);
#330=EDGE_CURVE('',#326,#307,#331,.T.);
#331=LINE('',#332,#133);
#332=CARTESIAN_POINT('',(-1.65,-2.65,1.15));
#333=PLANE('',#334);
#334=AXIS2_PLACEMENT_3D('',#313,#145,#14);
#335=ADVANCED_FACE('',(#336),#252,.F.);
#336=FACE_BOUND('',#337,.T.);
#337=EDGE_LOOP('',(#286,#338,#339,#344));
#338=ORIENTED_EDGE('',*,*,#147,.F.);
#339=ORIENTED_EDGE('',*,*,#340,.F.);
#340=EDGE_CURVE('',#341,#140,#343,.T.);
#341=VERTEX_POINT('',#342);
#342=CARTESIAN_POINT('',(2.65,0.517204021639,1.15));
#343=LINE('',#141,#215);
#344=ORIENTED_EDGE('',*,*,#345,.T.);
#345=EDGE_CURVE('',#341,#282,#346,.T.);
#346=CIRCLE('',#347,2.7);
#347=AXIS2_PLACEMENT_3D('',#348,#13,#35);
#348=CARTESIAN_POINT('',(0.,0.,1.15));
#349=ADVANCED_FACE('',(#350),#252,.F.);
#350=FACE_BOUND('',#351,.T.);
#351=EDGE_LOOP('',(#352,#324,#353,#357));
#352=ORIENTED_EDGE('',*,*,#135,.F.);
#353=ORIENTED_EDGE('',*,*,#354,.T.);
#354=EDGE_CURVE('',#326,#355,#346,.T.);
#355=VERTEX_POINT('',#356);
#356=CARTESIAN_POINT('',(2.65,-0.517204021639,1.15));
#357=ORIENTED_EDGE('',*,*,#358,.T.);
#358=EDGE_CURVE('',#355,#136,#359,.T.);
#359=LINE('',#137,#215);
#360=ADVANCED_FACE('',(#361),#395,.F.);
#361=FACE_BOUND('',#362,.F.);
#362=EDGE_LOOP('',(#363,#371,#376,#357,#138,#339,#380,#384,#389,#393));
#363=ORIENTED_EDGE('',*,*,#364,.F.);
#364=EDGE_CURVE('',#365,#367,#369,.T.);
#365=VERTEX_POINT('',#366);
#366=CARTESIAN_POINT('',(2.65,-2.25,0.15));
#367=VERTEX_POINT('',#368);
#368=CARTESIAN_POINT('',(2.65,-0.325,0.15));
#369=LINE('',#370,#144);
#370=CARTESIAN_POINT('',(2.65,-2.65,0.15));
#371=ORIENTED_EDGE('',*,*,#372,.T.);
#372=EDGE_CURVE('',#365,#373,#375,.T.);
#373=VERTEX_POINT('',#374);
#374=CARTESIAN_POINT('',(2.65,-2.25,1.15));
#375=LINE('',#366,#28);
#376=ORIENTED_EDGE('',*,*,#377,.T.);
#377=EDGE_CURVE('',#373,#355,#378,.T.);
#378=LINE('',#379,#144);
#379=CARTESIAN_POINT('',(2.65,-2.65,1.15));
#380=ORIENTED_EDGE('',*,*,#381,.T.);
#381=EDGE_CURVE('',#341,#382,#378,.T.);
#382=VERTEX_POINT('',#383);
#383=CARTESIAN_POINT('',(2.65,2.25,1.15));
#384=ORIENTED_EDGE('',*,*,#385,.F.);
#385=EDGE_CURVE('',#386,#382,#388,.T.);
#386=VERTEX_POINT('',#387);
#387=CARTESIAN_POINT('',(2.65,2.25,0.15));
#388=LINE('',#387,#28);
#389=ORIENTED_EDGE('',*,*,#390,.F.);
#390=EDGE_CURVE('',#391,#386,#369,.T.);
#391=VERTEX_POINT('',#392);
#392=CARTESIAN_POINT('',(2.65,0.325,0.15));
#393=ORIENTED_EDGE('',*,*,#394,.F.);
#394=EDGE_CURVE('',#367,#391,#369,.T.);
#395=PLANE('',#396);
#396=AXIS2_PLACEMENT_3D('',#370,#35,#145);
#397=ADVANCED_FACE('',(#398),#422,.T.);
#398=FACE_BOUND('',#399,.T.);
#399=EDGE_LOOP('',(#400,#406,#421,#174));
#400=ORIENTED_EDGE('',*,*,#401,.T.);
#401=EDGE_CURVE('',#168,#402,#404,.T.);
#402=VERTEX_POINT('',#403);
#403=CARTESIAN_POINT('',(-2.5,3.061616997868E-16,2.073861278753));
#404=( BOUNDED_CURVE() B_SPLINE_CURVE(2,(#169,#405,#403),.UNSPECIFIED.,.F.,.F.) B_SPLINE_CURVE_WITH_KNOTS((3,3),(0.,15.707963267949),.PIECEWISE_BEZIER_KNOTS.) CURVE() GEOMETRIC_REPRESENTATION_ITEM() RATIONAL_B_SPLINE_CURVE((1.,0.738548945876,1.)) REPRESENTATION_ITEM('') );
#405=CARTESIAN_POINT('',(-2.5,2.762377198262E-16,2.051039505523));
#406=ORIENTED_EDGE('',*,*,#407,.T.);
#407=EDGE_CURVE('',#402,#402,#408,.T.);
#408=( BOUNDED_CURVE() B_SPLINE_CURVE(13,(#403,#409,#410,#411,#412,#413,#414,#415,#416,#417,#418,#419,#420,#403),.UNSPECIFIED.,.T.,.F.) B_SPLINE_CURVE_WITH_KNOTS((14,14),(3.106555508923E-16,15.707963267949),.PIECEWISE_BEZIER_KNOTS.) CURVE() GEOMETRIC_REPRESENTATION_ITEM() RATIONAL_B_SPLINE_CURVE((1.,1.,1.000000000001,0.999999999997,1.000000000006,0.99999999999,1.000000000011,0.99999999999,1.000000000008,0.999999999995,1.000000000002,0.999999999999,1.,1.)) REPRESENTATION_ITEM('') );
#409=CARTESIAN_POINT('',(-2.500000000001,1.190825886764,2.073861278753));
#410=CARTESIAN_POINT('',(-1.884541892296,2.40911311587,2.073861278753));
#411=CARTESIAN_POINT('',(-0.618015285825,3.280240320885,2.073861278753));
#412=CARTESIAN_POINT('',(1.124886085402,3.414028857859,2.073861278753));
#413=CARTESIAN_POINT('',(2.630545419376,2.485545151039,2.073861278753));
#414=CARTESIAN_POINT('',(3.734788378754,1.130166370705,2.073861278752));
#415=CARTESIAN_POINT('',(3.734788378775,-1.130166370729,2.073861278753));
#416=CARTESIAN_POINT('',(2.630545419378,-2.485545150997,2.073861278753));
#417=CARTESIAN_POINT('',(1.124886085384,-3.414028857896,2.073861278753));
#418=CARTESIAN_POINT('',(-0.618015285806,-3.280240320868,2.073861278753));
#419=CARTESIAN_POINT('',(-1.884541892305,-2.409113115874,2.073861278753));
#420=CARTESIAN_POINT('',(-2.499999999999,-1.190825886764,2.073861278753));
#421=ORIENTED_EDGE('',*,*,#401,.F.);
#422=( BOUNDED_SURFACE() B_SPLINE_SURFACE(2,13,((#169,#177,#178,#179,#180,#181,#182,#183,#184,#185,#186,#187,#188,#169),(#405,#423,#424,#425,#426,#427,#428,#429,#430,#431,#432,#433,#434,#405),(#403,#409,#410,#411,#412,#413,#414,#415,#416,#417,#418,#419,#420,#403)),.UNSPECIFIED.,.F.,.F.,.F.) B_SPLINE_SURFACE_WITH_KNOTS((3,3),(14,14),(0.,15.707963267949),(3.106555508923E-16,15.707963267949),.PIECEWISE_BEZIER_KNOTS.) GEOMETRIC_REPRESENTATION_ITEM() RATIONAL_B_SPLINE_SURFACE(((1.,1.,1.000000000001,0.999999999997,1.000000000006,0.99999999999,1.000000000011,0.99999999999,1.000000000008,0.999999999995,1.000000000002,0.999999999999,1.,1.),(0.738548945876,0.738548945876,0.738548945877,0.738548945873,0.738548945881,0.738548945868,0.738548945885,0.738548945868,0.738548945882,0.738548945872,0.738548945878,0.738548945875,0.738548945876,0.738548945876),(1.,1.,1.000000000001,0.999999999997,1.000000000006,0.99999999999,1.000000000011,0.99999999999,1.000000000008,0.999999999995,1.000000000002,0.999999999999,1.,1.))) REPRESENTATION_ITEM('') SURFACE() );
#423=CARTESIAN_POINT('',(-2.500000000001,1.190825886764,2.051039505523));
#424=CARTESIAN_POINT('',(-1.884541892296,2.409113115869,2.051039505523));
#425=CARTESIAN_POINT('',(-0.618015285824,3.280240320887,2.051039505523));
#426=CARTESIAN_POINT('',(1.1248860854,3.414028857855,2.051039505523));
#427=CARTESIAN_POINT('',(2.63054541938,2.485545151044,2.051039505523));
#428=CARTESIAN_POINT('',(3.734788378747,1.130166370702,2.051039505523));
#429=CARTESIAN_POINT('',(3.734788378783,-1.130166370729,2.051039505523));
#430=CARTESIAN_POINT('',(2.630545419372,-2.485545150996,2.051039505523));
#431=CARTESIAN_POINT('',(1.124886085387,-3.414028857897,2.051039505523));
#432=CARTESIAN_POINT('',(-0.618015285807,-3.280240320867,2.051039505523));
#433=CARTESIAN_POINT('',(-1.884541892305,-2.409113115874,2.051039505523));
#434=CARTESIAN_POINT('',(-2.499999999999,-1.190825886764,2.051039505523));
#435=ADVANCED_FACE('',(#436),#496,.F.);
#436=FACE_BOUND('',#437,.F.);
#437=EDGE_LOOP('',(#438,#443,#444,#449,#456,#460,#461,#466,#467,#472,#473,#478,#485,#489,#490,#495));
#438=ORIENTED_EDGE('',*,*,#439,.F.);
#439=EDGE_CURVE('',#365,#305,#440,.T.);
#440=CIRCLE('',#441,0.4);
#441=AXIS2_PLACEMENT_3D('',#442,#34,#145);
#442=CARTESIAN_POINT('',(2.25,-2.25,0.15));
#443=ORIENTED_EDGE('',*,*,#364,.T.);
#444=ORIENTED_EDGE('',*,*,#445,.F.);
#445=EDGE_CURVE('',#446,#367,#448,.T.);
#446=VERTEX_POINT('',#447);
#447=CARTESIAN_POINT('',(1.075,-0.325,0.15));
#448=LINE('',#447,#133);
#449=ORIENTED_EDGE('',*,*,#450,.F.);
#450=EDGE_CURVE('',#451,#446,#453,.T.);
#451=VERTEX_POINT('',#452);
#452=CARTESIAN_POINT('',(1.075,0.325,0.15));
#453=CIRCLE('',#454,0.325);
#454=AXIS2_PLACEMENT_3D('',#455,#13,#145);
#455=CARTESIAN_POINT('',(1.075,-2.494212740089E-16,0.15));
#456=ORIENTED_EDGE('',*,*,#457,.F.);
#457=EDGE_CURVE('',#391,#451,#458,.T.);
#458=LINE('',#459,#156);
#459=CARTESIAN_POINT('',(3.25,0.325,0.15));
#460=ORIENTED_EDGE('',*,*,#390,.T.);
#461=ORIENTED_EDGE('',*,*,#462,.F.);
#462=EDGE_CURVE('',#269,#386,#463,.T.);
#463=CIRCLE('',#464,0.4);
#464=AXIS2_PLACEMENT_3D('',#465,#34,#145);
#465=CARTESIAN_POINT('',(2.25,2.25,0.15));
#466=ORIENTED_EDGE('',*,*,#268,.T.);
#467=ORIENTED_EDGE('',*,*,#468,.T.);
#468=EDGE_CURVE('',#271,#196,#469,.T.);
#469=LINE('',#272,#470);
#470=VECTOR('',#471,1.);
#471=DIRECTION('',(-0.707106781187,-0.707106781187,0.));
#472=ORIENTED_EDGE('',*,*,#195,.T.);
#473=ORIENTED_EDGE('',*,*,#474,.F.);
#474=EDGE_CURVE('',#475,#198,#477,.T.);
#475=VERTEX_POINT('',#476);
#476=CARTESIAN_POINT('',(-1.075,0.325,0.15));
#477=LINE('',#476,#156);
#478=ORIENTED_EDGE('',*,*,#479,.F.);
#479=EDGE_CURVE('',#480,#475,#482,.T.);
#480=VERTEX_POINT('',#481);
#481=CARTESIAN_POINT('',(-1.075,-0.325,0.15));
#482=CIRCLE('',#483,0.325);
#483=AXIS2_PLACEMENT_3D('',#484,#13,#65);
#484=CARTESIAN_POINT('',(-1.075,1.177717431005E-16,0.15));
#485=ORIENTED_EDGE('',*,*,#486,.F.);
#486=EDGE_CURVE('',#232,#480,#487,.T.);
#487=LINE('',#488,#133);
#488=CARTESIAN_POINT('',(-3.25,-0.325,0.15));
#489=ORIENTED_EDGE('',*,*,#231,.T.);
#490=ORIENTED_EDGE('',*,*,#491,.T.);
#491=EDGE_CURVE('',#227,#312,#492,.T.);
#492=LINE('',#228,#493);
#493=VECTOR('',#494,1.);
#494=DIRECTION('',(0.707106781187,-0.707106781187,0.));
#495=ORIENTED_EDGE('',*,*,#311,.T.);
#496=PLANE('',#497);
#497=AXIS2_PLACEMENT_3D('',#498,#13,#35);
#498=CARTESIAN_POINT('',(0.175694359816,-1.102081328939E-16,0.15));
#499=ADVANCED_FACE('',(#500),#509,.F.);
#500=FACE_BOUND('',#501,.F.);
#501=EDGE_LOOP('',(#502,#503,#504,#508));
#502=ORIENTED_EDGE('',*,*,#468,.F.);
#503=ORIENTED_EDGE('',*,*,#296,.T.);
#504=ORIENTED_EDGE('',*,*,#505,.T.);
#505=EDGE_CURVE('',#291,#203,#506,.T.);
#506=LINE('',#507,#470);
#507=CARTESIAN_POINT('',(-1.2375,3.0625,0.85));
#508=ORIENTED_EDGE('',*,*,#202,.F.);
#509=PLANE('',#510);
#510=AXIS2_PLACEMENT_3D('',#272,#494,#471);
#511=ADVANCED_FACE('',(#512),#524,.T.);
#512=FACE_BOUND('',#513,.T.);
#513=EDGE_LOOP('',(#514,#518,#522,#234));
#514=ORIENTED_EDGE('',*,*,#515,.T.);
#515=EDGE_CURVE('',#198,#516,#477,.T.);
#516=VERTEX_POINT('',#517);
#517=CARTESIAN_POINT('',(-3.25,0.325,0.15));
#518=ORIENTED_EDGE('',*,*,#519,.T.);
#519=EDGE_CURVE('',#516,#520,#521,.T.);
#520=VERTEX_POINT('',#488);
#521=LINE('',#517,#121);
#522=ORIENTED_EDGE('',*,*,#523,.T.);
#523=EDGE_CURVE('',#520,#232,#487,.T.);
#524=PLANE('',#525);
#525=AXIS2_PLACEMENT_3D('',#526,#13,#35);
#526=CARTESIAN_POINT('',(-2.072728390536,2.25964311166E-16,0.15));
#527=ADVANCED_FACE('',(#528),#531,.T.);
#528=FACE_BOUND('',#529,.T.);
#529=EDGE_LOOP('',(#530,#289,#504,#206));
#530=ORIENTED_EDGE('',*,*,#242,.T.);
#531=PLANE('',#532);
#532=AXIS2_PLACEMENT_3D('',#294,#13,#35);
#533=ADVANCED_FACE('',(#534),#543,.F.);
#534=FACE_BOUND('',#535,.F.);
#535=EDGE_LOOP('',(#536,#537,#538,#542));
#536=ORIENTED_EDGE('',*,*,#491,.F.);
#537=ORIENTED_EDGE('',*,*,#226,.T.);
#538=ORIENTED_EDGE('',*,*,#539,.T.);
#539=EDGE_CURVE('',#223,#317,#540,.T.);
#540=LINE('',#541,#493);
#541=CARTESIAN_POINT('',(-3.0625,-1.2375,0.85));
#542=ORIENTED_EDGE('',*,*,#316,.F.);
#543=PLANE('',#544);
#544=AXIS2_PLACEMENT_3D('',#228,#545,#494);
#545=DIRECTION('',(0.707106781187,0.707106781187,0.));
#546=ADVANCED_FACE('',(#547),#531,.T.);
#547=FACE_BOUND('',#548,.T.);
#548=EDGE_LOOP('',(#320,#549,#221,#538));
#549=ORIENTED_EDGE('',*,*,#258,.T.);
#550=ADVANCED_FACE('',(#551),#559,.T.);
#551=FACE_BOUND('',#552,.T.);
#552=EDGE_LOOP('',(#553,#380,#554,#280));
#553=ORIENTED_EDGE('',*,*,#345,.F.);
#554=ORIENTED_EDGE('',*,*,#555,.F.);
#555=EDGE_CURVE('',#277,#382,#556,.T.);
#556=CIRCLE('',#557,0.4);
#557=AXIS2_PLACEMENT_3D('',#558,#34,#145);
#558=CARTESIAN_POINT('',(2.25,2.25,1.15));
#559=PLANE('',#560);
#560=AXIS2_PLACEMENT_3D('',#561,#13,#35);
#561=CARTESIAN_POINT('',(0.175694359816,-1.102081328939E-16,1.15));
#562=ADVANCED_FACE('',(#563),#568,.T.);
#563=FACE_BOUND('',#564,.F.);
#564=EDGE_LOOP('',(#565,#566,#554,#567));
#565=ORIENTED_EDGE('',*,*,#462,.T.);
#566=ORIENTED_EDGE('',*,*,#385,.T.);
#567=ORIENTED_EDGE('',*,*,#276,.F.);
#568=CYLINDRICAL_SURFACE('',#569,0.4);
#569=AXIS2_PLACEMENT_3D('',#465,#13,#145);
#570=ADVANCED_FACE('',(#571),#581,.T.);
#571=FACE_BOUND('',#572,.F.);
#572=EDGE_LOOP('',(#573,#574,#575,#580));
#573=ORIENTED_EDGE('',*,*,#439,.T.);
#574=ORIENTED_EDGE('',*,*,#304,.T.);
#575=ORIENTED_EDGE('',*,*,#576,.F.);
#576=EDGE_CURVE('',#373,#307,#577,.T.);
#577=CIRCLE('',#578,0.4);
#578=AXIS2_PLACEMENT_3D('',#579,#34,#145);
#579=CARTESIAN_POINT('',(2.25,-2.25,1.15));
#580=ORIENTED_EDGE('',*,*,#372,.F.);
#581=CYLINDRICAL_SURFACE('',#582,0.4);
#582=AXIS2_PLACEMENT_3D('',#442,#13,#14);
#583=ADVANCED_FACE('',(#584),#559,.T.);
#584=FACE_BOUND('',#585,.T.);
#585=EDGE_LOOP('',(#575,#376,#586,#329));
#586=ORIENTED_EDGE('',*,*,#354,.F.);
#587=ADVANCED_FACE('',(#588),#600,.T.);
#588=FACE_BOUND('',#589,.T.);
#589=EDGE_LOOP('',(#590,#594,#598,#393));
#590=ORIENTED_EDGE('',*,*,#591,.T.);
#591=EDGE_CURVE('',#367,#592,#448,.T.);
#592=VERTEX_POINT('',#593);
#593=CARTESIAN_POINT('',(3.25,-0.325,0.15));
#594=ORIENTED_EDGE('',*,*,#595,.T.);
#595=EDGE_CURVE('',#592,#596,#597,.T.);
#596=VERTEX_POINT('',#459);
#597=LINE('',#593,#144);
#598=ORIENTED_EDGE('',*,*,#599,.T.);
#599=EDGE_CURVE('',#596,#391,#458,.T.);
#600=PLANE('',#601);
#601=AXIS2_PLACEMENT_3D('',#602,#13,#14);
#602=CARTESIAN_POINT('',(2.072728390536,-4.798003300631E-16,0.15));
#603=ADVANCED_FACE('',(#604),#630,.T.);
#604=FACE_BOUND('',#605,.F.);
#605=EDGE_LOOP('',(#606,#612,#619,#623,#627,#629,#406));
#606=ORIENTED_EDGE('',*,*,#607,.T.);
#607=EDGE_CURVE('',#402,#608,#610,.T.);
#608=VERTEX_POINT('',#609);
#609=CARTESIAN_POINT('',(-2.5,3.061616997868E-16,5.066666666667));
#610=LINE('',#611,#28);
#611=CARTESIAN_POINT('',(-2.5,3.061616997868E-16,2.05));
#612=ORIENTED_EDGE('',*,*,#613,.F.);
#613=EDGE_CURVE('',#614,#608,#616,.T.);
#614=VERTEX_POINT('',#615);
#615=CARTESIAN_POINT('',(0.75,-2.384848003542,5.066666666667));
#616=CIRCLE('',#617,2.5);
#617=AXIS2_PLACEMENT_3D('',#618,#34,#35);
#618=CARTESIAN_POINT('',(0.,0.,5.066666666667));
#619=ORIENTED_EDGE('',*,*,#620,.F.);
#620=EDGE_CURVE('',#621,#614,#616,.T.);
#621=VERTEX_POINT('',#622);
#622=CARTESIAN_POINT('',(2.5,2.289409804282E-15,5.066666666667));
#623=ORIENTED_EDGE('',*,*,#624,.F.);
#624=EDGE_CURVE('',#625,#621,#616,.T.);
#625=VERTEX_POINT('',#626);
#626=CARTESIAN_POINT('',(0.75,2.384848003542,5.066666666667));
#627=ORIENTED_EDGE('',*,*,#628,.F.);
#628=EDGE_CURVE('',#608,#625,#616,.T.);
#629=ORIENTED_EDGE('',*,*,#607,.F.);
#630=CYLINDRICAL_SURFACE('',#631,2.5);
#631=AXIS2_PLACEMENT_3D('',#632,#13,#35);
#632=CARTESIAN_POINT('',(0.,0.,2.05));
#633=ADVANCED_FACE('',(#634),#650,.F.);
#634=FACE_BOUND('',#635,.F.);
#635=EDGE_LOOP('',(#636,#522,#641,#642,#647));
#636=ORIENTED_EDGE('',*,*,#637,.T.);
#637=EDGE_CURVE('',#638,#520,#640,.T.);
#638=VERTEX_POINT('',#639);
#639=CARTESIAN_POINT('',(-3.25,-0.325,0.));
#640=LINE('',#639,#28);
#641=ORIENTED_EDGE('',*,*,#486,.T.);
#642=ORIENTED_EDGE('',*,*,#643,.F.);
#643=EDGE_CURVE('',#644,#480,#646,.T.);
#644=VERTEX_POINT('',#645);
#645=CARTESIAN_POINT('',(-1.075,-0.325,0.));
#646=LINE('',#645,#28);
#647=ORIENTED_EDGE('',*,*,#648,.F.);
#648=EDGE_CURVE('',#638,#644,#649,.T.);
#649=LINE('',#639,#133);
#650=PLANE('',#651);
#651=AXIS2_PLACEMENT_3D('',#639,#145,#14);
#652=ADVANCED_FACE('',(#653),#667,.T.);
#653=FACE_BOUND('',#654,.F.);
#654=EDGE_LOOP('',(#655,#656,#657,#662));
#655=ORIENTED_EDGE('',*,*,#643,.T.);
#656=ORIENTED_EDGE('',*,*,#479,.T.);
#657=ORIENTED_EDGE('',*,*,#658,.F.);
#658=EDGE_CURVE('',#659,#475,#661,.T.);
#659=VERTEX_POINT('',#660);
#660=CARTESIAN_POINT('',(-1.075,0.325,0.));
#661=LINE('',#660,#28);
#662=ORIENTED_EDGE('',*,*,#663,.F.);
#663=EDGE_CURVE('',#644,#659,#664,.T.);
#664=CIRCLE('',#665,0.325);
#665=AXIS2_PLACEMENT_3D('',#666,#13,#65);
#666=CARTESIAN_POINT('',(-1.075,1.177717431005E-16,0.));
#667=CYLINDRICAL_SURFACE('',#668,0.325);
#668=AXIS2_PLACEMENT_3D('',#666,#34,#65);
#669=ADVANCED_FACE('',(#670),#682,.F.);
#670=FACE_BOUND('',#671,.F.);
#671=EDGE_LOOP('',(#672,#673,#514,#674,#679));
#672=ORIENTED_EDGE('',*,*,#658,.T.);
#673=ORIENTED_EDGE('',*,*,#474,.T.);
#674=ORIENTED_EDGE('',*,*,#675,.F.);
#675=EDGE_CURVE('',#676,#516,#678,.T.);
#676=VERTEX_POINT('',#677);
#677=CARTESIAN_POINT('',(-3.25,0.325,0.));
#678=LINE('',#677,#28);
#679=ORIENTED_EDGE('',*,*,#680,.F.);
#680=EDGE_CURVE('',#659,#676,#681,.T.);
#681=LINE('',#660,#156);
#682=PLANE('',#683);
#683=AXIS2_PLACEMENT_3D('',#660,#65,#35);
#684=ADVANCED_FACE('',(#685),#701,.F.);
#685=FACE_BOUND('',#686,.F.);
#686=EDGE_LOOP('',(#687,#598,#692,#693,#698));
#687=ORIENTED_EDGE('',*,*,#688,.T.);
#688=EDGE_CURVE('',#689,#596,#691,.T.);
#689=VERTEX_POINT('',#690);
#690=CARTESIAN_POINT('',(3.25,0.325,0.));
#691=LINE('',#690,#28);
#692=ORIENTED_EDGE('',*,*,#457,.T.);
#693=ORIENTED_EDGE('',*,*,#694,.F.);
#694=EDGE_CURVE('',#695,#451,#697,.T.);
#695=VERTEX_POINT('',#696);
#696=CARTESIAN_POINT('',(1.075,0.325,0.));
#697=LINE('',#696,#28);
#698=ORIENTED_EDGE('',*,*,#699,.F.);
#699=EDGE_CURVE('',#689,#695,#700,.T.);
#700=LINE('',#690,#156);
#701=PLANE('',#702);
#702=AXIS2_PLACEMENT_3D('',#690,#65,#35);
#703=ADVANCED_FACE('',(#704),#718,.T.);
#704=FACE_BOUND('',#705,.F.);
#705=EDGE_LOOP('',(#706,#707,#708,#713));
#706=ORIENTED_EDGE('',*,*,#694,.T.);
#707=ORIENTED_EDGE('',*,*,#450,.T.);
#708=ORIENTED_EDGE('',*,*,#709,.F.);
#709=EDGE_CURVE('',#710,#446,#712,.T.);
#710=VERTEX_POINT('',#711);
#711=CARTESIAN_POINT('',(1.075,-0.325,0.));
#712=LINE('',#711,#28);
#713=ORIENTED_EDGE('',*,*,#714,.F.);
#714=EDGE_CURVE('',#695,#710,#715,.T.);
#715=CIRCLE('',#716,0.325);
#716=AXIS2_PLACEMENT_3D('',#717,#13,#145);
#717=CARTESIAN_POINT('',(1.075,-2.494212740089E-16,0.));
#718=CYLINDRICAL_SURFACE('',#719,0.325);
#719=AXIS2_PLACEMENT_3D('',#717,#34,#145);
#720=ADVANCED_FACE('',(#721),#733,.F.);
#721=FACE_BOUND('',#722,.F.);
#722=EDGE_LOOP('',(#723,#724,#590,#725,#730));
#723=ORIENTED_EDGE('',*,*,#709,.T.);
#724=ORIENTED_EDGE('',*,*,#445,.T.);
#725=ORIENTED_EDGE('',*,*,#726,.F.);
#726=EDGE_CURVE('',#727,#592,#729,.T.);
#727=VERTEX_POINT('',#728);
#728=CARTESIAN_POINT('',(3.25,-0.325,0.));
#729=LINE('',#728,#28);
#730=ORIENTED_EDGE('',*,*,#731,.F.);
#731=EDGE_CURVE('',#710,#727,#732,.T.);
#732=LINE('',#711,#133);
#733=PLANE('',#734);
#734=AXIS2_PLACEMENT_3D('',#711,#145,#14);
#735=ADVANCED_FACE('',(#736),#743,.F.);
#736=FACE_BOUND('',#737,.F.);
#737=EDGE_LOOP('',(#738,#518,#739,#740));
#738=ORIENTED_EDGE('',*,*,#675,.T.);
#739=ORIENTED_EDGE('',*,*,#637,.F.);
#740=ORIENTED_EDGE('',*,*,#741,.F.);
#741=EDGE_CURVE('',#676,#638,#742,.T.);
#742=LINE('',#677,#121);
#743=PLANE('',#744);
#744=AXIS2_PLACEMENT_3D('',#677,#14,#65);
#745=ADVANCED_FACE('',(#746),#753,.F.);
#746=FACE_BOUND('',#747,.F.);
#747=EDGE_LOOP('',(#748,#594,#749,#750));
#748=ORIENTED_EDGE('',*,*,#726,.T.);
#749=ORIENTED_EDGE('',*,*,#688,.F.);
#750=ORIENTED_EDGE('',*,*,#751,.F.);
#751=EDGE_CURVE('',#727,#689,#752,.T.);
#752=LINE('',#728,#144);
#753=PLANE('',#754);
#754=AXIS2_PLACEMENT_3D('',#728,#35,#145);
#755=ADVANCED_FACE('',(#756),#786,.T.);
#756=FACE_BOUND('',#757,.F.);
#757=EDGE_LOOP('',(#758,#765,#766,#781));
#758=ORIENTED_EDGE('',*,*,#759,.F.);
#759=EDGE_CURVE('',#608,#760,#762,.T.);
#760=VERTEX_POINT('',#761);
#761=CARTESIAN_POINT('',(-2.166666666667,2.653401398153E-16,5.4));
#762=CIRCLE('',#763,0.333333333333);
#763=AXIS2_PLACEMENT_3D('',#764,#145,#35);
#764=CARTESIAN_POINT('',(-2.166666666667,2.653401398153E-16,5.066666666667));
#765=ORIENTED_EDGE('',*,*,#628,.T.);
#766=ORIENTED_EDGE('',*,*,#767,.T.);
#767=EDGE_CURVE('',#625,#768,#770,.T.);
#768=VERTEX_POINT('',#769);
#769=CARTESIAN_POINT('',(0.75,2.032718486275,5.4));
#770=B_SPLINE_CURVE_WITH_KNOTS('',6,(#626,#771,#772,#773,#774,#775,#776,#777,#778,#779,#780,#769),.UNSPECIFIED.,.F.,.F.,(7,5,7),(0.,0.499020751699,1.),.UNSPECIFIED.);
#771=CARTESIAN_POINT('',(0.75,2.384847998942,5.110549861735));
#772=CARTESIAN_POINT('',(0.75,2.37758066201,5.154440310642));
#773=CARTESIAN_POINT('',(0.75,2.363041205805,5.196916059338));
#774=CARTESIAN_POINT('',(0.75,2.341647195245,5.236583111733));
#775=CARTESIAN_POINT('',(0.75,2.314175106764,5.272240879077));
#776=CARTESIAN_POINT('',(0.75,2.249014912913,5.333825733698));
#777=CARTESIAN_POINT('',(0.75,2.211279226532,5.359721705089));
#778=CARTESIAN_POINT('',(0.75,2.169486849213,5.37973531257));
#779=CARTESIAN_POINT('',(0.75,2.124899397612,5.393253813375));
#780=CARTESIAN_POINT('',(0.75,2.078859779451,5.399999995685));
#781=ORIENTED_EDGE('',*,*,#782,.F.);
#782=EDGE_CURVE('',#760,#768,#783,.T.);
#783=CIRCLE('',#784,2.166666666667);
#784=AXIS2_PLACEMENT_3D('',#785,#34,#35);
#785=CARTESIAN_POINT('',(0.,0.,5.4));
#786=TOROIDAL_SURFACE('',#787,2.166666666667,0.333333333333);
#787=AXIS2_PLACEMENT_3D('',#618,#13,#35);
#788=ADVANCED_FACE('',(#789),#786,.T.);
#789=FACE_BOUND('',#790,.F.);
#790=EDGE_LOOP('',(#791,#792,#793,#794,#809));
#791=ORIENTED_EDGE('',*,*,#767,.F.);
#792=ORIENTED_EDGE('',*,*,#624,.T.);
#793=ORIENTED_EDGE('',*,*,#620,.T.);
#794=ORIENTED_EDGE('',*,*,#795,.T.);
#795=EDGE_CURVE('',#614,#796,#798,.T.);
#796=VERTEX_POINT('',#797);
#797=CARTESIAN_POINT('',(0.75,-2.032718486275,5.4));
#798=B_SPLINE_CURVE_WITH_KNOTS('',6,(#615,#799,#800,#801,#802,#803,#804,#805,#806,#807,#808,#797),.UNSPECIFIED.,.F.,.F.,(7,5,7),(0.,0.499020751701,1.),.UNSPECIFIED.);
#799=CARTESIAN_POINT('',(0.75,-2.384847998942,5.110549861735));
#800=CARTESIAN_POINT('',(0.75,-2.37758066201,5.154440310643));
#801=CARTESIAN_POINT('',(0.75,-2.363041205805,5.196916059338));
#802=CARTESIAN_POINT('',(0.75,-2.341647195245,5.236583111734));
#803=CARTESIAN_POINT('',(0.75,-2.314175106763,5.272240879077));
#804=CARTESIAN_POINT('',(0.75,-2.249014912912,5.333825733699));
#805=CARTESIAN_POINT('',(0.75,-2.211279226531,5.35972170509));
#806=CARTESIAN_POINT('',(0.75,-2.169486849212,5.37973531257));
#807=CARTESIAN_POINT('',(0.75,-2.124899397612,5.393253813375));
#808=CARTESIAN_POINT('',(0.75,-2.078859779451,5.399999995685));
#809=ORIENTED_EDGE('',*,*,#810,.F.);
#810=EDGE_CURVE('',#768,#796,#783,.T.);
#811=ADVANCED_FACE('',(#812),#786,.T.);
#812=FACE_BOUND('',#813,.F.);
#813=EDGE_LOOP('',(#814,#815,#816,#818));
#814=ORIENTED_EDGE('',*,*,#613,.T.);
#815=ORIENTED_EDGE('',*,*,#759,.T.);
#816=ORIENTED_EDGE('',*,*,#817,.F.);
#817=EDGE_CURVE('',#796,#760,#783,.T.);
#818=ORIENTED_EDGE('',*,*,#795,.F.);
#819=ADVANCED_FACE('',(#820),#826,.F.);
#820=FACE_BOUND('',#821,.F.);
#821=EDGE_LOOP('',(#822,#823,#824,#825));
#822=ORIENTED_EDGE('',*,*,#741,.T.);
#823=ORIENTED_EDGE('',*,*,#648,.T.);
#824=ORIENTED_EDGE('',*,*,#663,.T.);
#825=ORIENTED_EDGE('',*,*,#680,.T.);
#826=PLANE('',#827);
#827=AXIS2_PLACEMENT_3D('',#828,#13,#35);
#828=CARTESIAN_POINT('',(-2.072728390536,2.25964311166E-16,0.));
#829=ADVANCED_FACE('',(#830),#836,.F.);
#830=FACE_BOUND('',#831,.F.);
#831=EDGE_LOOP('',(#832,#833,#834,#835));
#832=ORIENTED_EDGE('',*,*,#751,.T.);
#833=ORIENTED_EDGE('',*,*,#699,.T.);
#834=ORIENTED_EDGE('',*,*,#714,.T.);
#835=ORIENTED_EDGE('',*,*,#731,.T.);
#836=PLANE('',#837);
#837=AXIS2_PLACEMENT_3D('',#838,#13,#14);
#838=CARTESIAN_POINT('',(2.072728390536,-4.798003300631E-16,0.));
#839=ADVANCED_FACE('',(#840),#848,.F.);
#840=FACE_BOUND('',#841,.F.);
#841=EDGE_LOOP('',(#842,#843,#844));
#842=ORIENTED_EDGE('',*,*,#817,.T.);
#843=ORIENTED_EDGE('',*,*,#782,.T.);
#844=ORIENTED_EDGE('',*,*,#845,.T.);
#845=EDGE_CURVE('',#768,#796,#846,.T.);
#846=LINE('',#847,#121);
#847=CARTESIAN_POINT('',(0.75,2.5,5.4));
#848=PLANE('',#784);
#849=ADVANCED_FACE('',(#850),#852,.T.);
#850=FACE_BOUND('',#851,.T.);
#851=EDGE_LOOP('',(#809,#844));
#852=PLANE('',#853);
#853=AXIS2_PLACEMENT_3D('',#854,#13,#35);
#854=CARTESIAN_POINT('',(2.5,2.5,5.4));
#855=( GEOMETRIC_REPRESENTATION_CONTEXT(3) GLOBAL_UNCERTAINTY_ASSIGNED_CONTEXT((#859)) GLOBAL_UNIT_ASSIGNED_CONTEXT((#856,#857,#858)) REPRESENTATION_CONTEXT('Context #1','3D Context with UNIT and UNCERTAINTY') );
#856=( LENGTH_UNIT() NAMED_UNIT(*) SI_UNIT(.MILLI.,.METRE.) );
#857=( NAMED_UNIT(*) PLANE_ANGLE_UNIT() SI_UNIT($,.RADIAN.) );
#858=( NAMED_UNIT(*) SI_UNIT($,.STERADIAN.) SOLID_ANGLE_UNIT() );
#859=UNCERTAINTY_MEASURE_WITH_UNIT(LENGTH_MEASURE(2.E-06),#856,'distance_accuracy_value','confusion accuracy');
#860=MECHANICAL_DESIGN_GEOMETRIC_PRESENTATION_REPRESENTATION('',(#861,#869,#870,#871,#879,#880,#881,#882,#883,#884,#885,#886,#887,#888,#889,#890,#891,#892,#893,#894,#895,#896,#897,#898,#899,#900,#901,#902,#903,#904,#905,#906,#907,#908,#909,#910,#911,#912,#913,#914,#915),#855);
#861=STYLED_ITEM('color',(#862),#17);
#862=PRESENTATION_STYLE_ASSIGNMENT((#863));
#863=SURFACE_STYLE_USAGE(.BOTH.,#864);
#864=SURFACE_SIDE_STYLE('',(#865));
#865=SURFACE_STYLE_FILL_AREA(#866);
#866=FILL_AREA_STYLE('',(#867));
#867=FILL_AREA_STYLE_COLOUR('',#868);
#868=COLOUR_RGB('',0.824000000954,0.819999992847,0.78100001812);
#869=STYLED_ITEM('color',(#862),#55);
#870=STYLED_ITEM('color',(#862),#72);
#871=STYLED_ITEM('color',(#872),#110);
#872=PRESENTATION_STYLE_ASSIGNMENT((#873));
#873=SURFACE_STYLE_USAGE(.BOTH.,#874);
#874=SURFACE_SIDE_STYLE('',(#875));
#875=SURFACE_STYLE_FILL_AREA(#876);
#876=FILL_AREA_STYLE('',(#877));
#877=FILL_AREA_STYLE_COLOUR('',#878);
#878=COLOUR_RGB('',0.148000001907,0.144999995828,0.144999995828);
#879=STYLED_ITEM('color',(#862),#163);
#880=STYLED_ITEM('color',(#872),#191);
#881=STYLED_ITEM('color',(#872),#238);
#882=STYLED_ITEM('color',(#872),#253);
#883=STYLED_ITEM('color',(#872),#264);
#884=STYLED_ITEM('color',(#872),#300);
#885=STYLED_ITEM('color',(#872),#335);
#886=STYLED_ITEM('color',(#872),#349);
#887=STYLED_ITEM('color',(#872),#360);
#888=STYLED_ITEM('color',(#862),#397);
#889=STYLED_ITEM('color',(#872),#435);
#890=STYLED_ITEM('color',(#872),#499);
#891=STYLED_ITEM('color',(#862),#511);
#892=STYLED_ITEM('color',(#872),#527);
#893=STYLED_ITEM('color',(#872),#533);
#894=STYLED_ITEM('color',(#872),#546);
#895=STYLED_ITEM('color',(#872),#550);
#896=STYLED_ITEM('color',(#872),#562);
#897=STYLED_ITEM('color',(#872),#570);
#898=STYLED_ITEM('color',(#872),#583);
#899=STYLED_ITEM('color',(#862),#587);
#900=STYLED_ITEM('color',(#862),#603);
#901=STYLED_ITEM('color',(#862),#633);
#902=STYLED_ITEM('color',(#862),#652);
#903=STYLED_ITEM('color',(#862),#669);
#904=STYLED_ITEM('color',(#862),#684);
#905=STYLED_ITEM('color',(#862),#703);
#906=STYLED_ITEM('color',(#862),#720);
#907=STYLED_ITEM('color',(#862),#735);
#908=STYLED_ITEM('color',(#862),#745);
#909=STYLED_ITEM('color',(#862),#755);
#910=STYLED_ITEM('color',(#872),#788);
#911=STYLED_ITEM('color',(#862),#811);
#912=STYLED_ITEM('color',(#862),#819);
#913=STYLED_ITEM('color',(#862),#829);
#914=STYLED_ITEM('color',(#862),#839);
#915=STYLED_ITEM('color',(#872),#849);
ENDSEC;
END-ISO-10303-21;
