%TF.GenerationSoftware,KiCad,Pcbnew,10.0.6*%
%TF.CreationDate,2026-10-02T09:46:15+07:00*%
%TF.ProjectId,opt101_receiver,6f707431-3031-45f7-9265-636569766572,rev?*%
%TF.SameCoordinates,Original*%
%TF.FileFunction,Legend,Top*%
%TF.FilePolarity,Positive*%
%FSLAX46Y46*%
G04 Gerber Fmt 4.6, Leading zero omitted, Abs format (unit mm)*
G04 Created by KiCad (PCBNEW 10.0.6) date 2026-10-02 09:46:15*
%MOMM*%
%LPD*%
G01*
G04 APERTURE LIST*
%ADD10C,0.130000*%
%ADD11C,0.120000*%
G04 APERTURE END LIST*
D10*
X111864285Y-103930001D02*
X111864285Y-104463335D01*
X111673809Y-103625240D02*
X111483332Y-104196668D01*
X111483332Y-104196668D02*
X111978571Y-104196668D01*
X112283333Y-104158573D02*
X112892857Y-104158573D01*
X113273809Y-104158573D02*
X113883333Y-104158573D01*
X114645237Y-103663335D02*
X114264285Y-103663335D01*
X114264285Y-103663335D02*
X114226189Y-104044287D01*
X114226189Y-104044287D02*
X114264285Y-104006192D01*
X114264285Y-104006192D02*
X114340475Y-103968097D01*
X114340475Y-103968097D02*
X114530951Y-103968097D01*
X114530951Y-103968097D02*
X114607142Y-104006192D01*
X114607142Y-104006192D02*
X114645237Y-104044287D01*
X114645237Y-104044287D02*
X114683332Y-104120478D01*
X114683332Y-104120478D02*
X114683332Y-104310954D01*
X114683332Y-104310954D02*
X114645237Y-104387144D01*
X114645237Y-104387144D02*
X114607142Y-104425240D01*
X114607142Y-104425240D02*
X114530951Y-104463335D01*
X114530951Y-104463335D02*
X114340475Y-104463335D01*
X114340475Y-104463335D02*
X114264285Y-104425240D01*
X114264285Y-104425240D02*
X114226189Y-104387144D01*
X116664285Y-104463335D02*
X116207142Y-104463335D01*
X116435714Y-104463335D02*
X116435714Y-103663335D01*
X116435714Y-103663335D02*
X116359523Y-103777620D01*
X116359523Y-103777620D02*
X116283333Y-103853811D01*
X116283333Y-103853811D02*
X116207142Y-103891906D01*
X117007143Y-104463335D02*
X117007143Y-103663335D01*
X117007143Y-103663335D02*
X117273809Y-104234763D01*
X117273809Y-104234763D02*
X117540476Y-103663335D01*
X117540476Y-103663335D02*
X117540476Y-104463335D01*
X118530953Y-104463335D02*
X118530953Y-103663335D01*
X118911905Y-104463335D02*
X118911905Y-103663335D01*
X118911905Y-103663335D02*
X119369048Y-104463335D01*
X119369048Y-104463335D02*
X119369048Y-103663335D01*
X119635714Y-103663335D02*
X120092857Y-103663335D01*
X119864285Y-104463335D02*
X119864285Y-103663335D01*
X113295237Y-129325240D02*
X113409523Y-129363335D01*
X113409523Y-129363335D02*
X113599999Y-129363335D01*
X113599999Y-129363335D02*
X113676190Y-129325240D01*
X113676190Y-129325240D02*
X113714285Y-129287144D01*
X113714285Y-129287144D02*
X113752380Y-129210954D01*
X113752380Y-129210954D02*
X113752380Y-129134763D01*
X113752380Y-129134763D02*
X113714285Y-129058573D01*
X113714285Y-129058573D02*
X113676190Y-129020478D01*
X113676190Y-129020478D02*
X113599999Y-128982382D01*
X113599999Y-128982382D02*
X113447618Y-128944287D01*
X113447618Y-128944287D02*
X113371428Y-128906192D01*
X113371428Y-128906192D02*
X113333333Y-128868097D01*
X113333333Y-128868097D02*
X113295237Y-128791906D01*
X113295237Y-128791906D02*
X113295237Y-128715716D01*
X113295237Y-128715716D02*
X113333333Y-128639525D01*
X113333333Y-128639525D02*
X113371428Y-128601430D01*
X113371428Y-128601430D02*
X113447618Y-128563335D01*
X113447618Y-128563335D02*
X113638095Y-128563335D01*
X113638095Y-128563335D02*
X113752380Y-128601430D01*
X114704762Y-129363335D02*
X114704762Y-128563335D01*
X114704762Y-128563335D02*
X115161905Y-129363335D01*
X115161905Y-129363335D02*
X115161905Y-128563335D01*
X116000000Y-129287144D02*
X115961904Y-129325240D01*
X115961904Y-129325240D02*
X115847619Y-129363335D01*
X115847619Y-129363335D02*
X115771428Y-129363335D01*
X115771428Y-129363335D02*
X115657142Y-129325240D01*
X115657142Y-129325240D02*
X115580952Y-129249049D01*
X115580952Y-129249049D02*
X115542857Y-129172859D01*
X115542857Y-129172859D02*
X115504761Y-129020478D01*
X115504761Y-129020478D02*
X115504761Y-128906192D01*
X115504761Y-128906192D02*
X115542857Y-128753811D01*
X115542857Y-128753811D02*
X115580952Y-128677620D01*
X115580952Y-128677620D02*
X115657142Y-128601430D01*
X115657142Y-128601430D02*
X115771428Y-128563335D01*
X115771428Y-128563335D02*
X115847619Y-128563335D01*
X115847619Y-128563335D02*
X115961904Y-128601430D01*
X115961904Y-128601430D02*
X116000000Y-128639525D01*
X116838095Y-128563335D02*
X117104762Y-129363335D01*
X117104762Y-129363335D02*
X117371428Y-128563335D01*
X118666666Y-128601430D02*
X118590476Y-128563335D01*
X118590476Y-128563335D02*
X118476190Y-128563335D01*
X118476190Y-128563335D02*
X118361904Y-128601430D01*
X118361904Y-128601430D02*
X118285714Y-128677620D01*
X118285714Y-128677620D02*
X118247619Y-128753811D01*
X118247619Y-128753811D02*
X118209523Y-128906192D01*
X118209523Y-128906192D02*
X118209523Y-129020478D01*
X118209523Y-129020478D02*
X118247619Y-129172859D01*
X118247619Y-129172859D02*
X118285714Y-129249049D01*
X118285714Y-129249049D02*
X118361904Y-129325240D01*
X118361904Y-129325240D02*
X118476190Y-129363335D01*
X118476190Y-129363335D02*
X118552381Y-129363335D01*
X118552381Y-129363335D02*
X118666666Y-129325240D01*
X118666666Y-129325240D02*
X118704762Y-129287144D01*
X118704762Y-129287144D02*
X118704762Y-129020478D01*
X118704762Y-129020478D02*
X118552381Y-129020478D01*
X123746190Y-122734763D02*
X124127143Y-122734763D01*
X123670000Y-122963335D02*
X123936667Y-122163335D01*
X123936667Y-122163335D02*
X124203333Y-122963335D01*
X124470000Y-122963335D02*
X124470000Y-122163335D01*
X124470000Y-122163335D02*
X124660476Y-122163335D01*
X124660476Y-122163335D02*
X124774762Y-122201430D01*
X124774762Y-122201430D02*
X124850952Y-122277620D01*
X124850952Y-122277620D02*
X124889047Y-122353811D01*
X124889047Y-122353811D02*
X124927143Y-122506192D01*
X124927143Y-122506192D02*
X124927143Y-122620478D01*
X124927143Y-122620478D02*
X124889047Y-122772859D01*
X124889047Y-122772859D02*
X124850952Y-122849049D01*
X124850952Y-122849049D02*
X124774762Y-122925240D01*
X124774762Y-122925240D02*
X124660476Y-122963335D01*
X124660476Y-122963335D02*
X124470000Y-122963335D01*
X125231904Y-122925240D02*
X125346190Y-122963335D01*
X125346190Y-122963335D02*
X125536666Y-122963335D01*
X125536666Y-122963335D02*
X125612857Y-122925240D01*
X125612857Y-122925240D02*
X125650952Y-122887144D01*
X125650952Y-122887144D02*
X125689047Y-122810954D01*
X125689047Y-122810954D02*
X125689047Y-122734763D01*
X125689047Y-122734763D02*
X125650952Y-122658573D01*
X125650952Y-122658573D02*
X125612857Y-122620478D01*
X125612857Y-122620478D02*
X125536666Y-122582382D01*
X125536666Y-122582382D02*
X125384285Y-122544287D01*
X125384285Y-122544287D02*
X125308095Y-122506192D01*
X125308095Y-122506192D02*
X125270000Y-122468097D01*
X125270000Y-122468097D02*
X125231904Y-122391906D01*
X125231904Y-122391906D02*
X125231904Y-122315716D01*
X125231904Y-122315716D02*
X125270000Y-122239525D01*
X125270000Y-122239525D02*
X125308095Y-122201430D01*
X125308095Y-122201430D02*
X125384285Y-122163335D01*
X125384285Y-122163335D02*
X125574762Y-122163335D01*
X125574762Y-122163335D02*
X125689047Y-122201430D01*
X126031905Y-122887144D02*
X126070000Y-122925240D01*
X126070000Y-122925240D02*
X126031905Y-122963335D01*
X126031905Y-122963335D02*
X125993809Y-122925240D01*
X125993809Y-122925240D02*
X126031905Y-122887144D01*
X126031905Y-122887144D02*
X126031905Y-122963335D01*
X126031905Y-122468097D02*
X126070000Y-122506192D01*
X126070000Y-122506192D02*
X126031905Y-122544287D01*
X126031905Y-122544287D02*
X125993809Y-122506192D01*
X125993809Y-122506192D02*
X126031905Y-122468097D01*
X126031905Y-122468097D02*
X126031905Y-122544287D01*
X127479524Y-122963335D02*
X127212857Y-122582382D01*
X127022381Y-122963335D02*
X127022381Y-122163335D01*
X127022381Y-122163335D02*
X127327143Y-122163335D01*
X127327143Y-122163335D02*
X127403333Y-122201430D01*
X127403333Y-122201430D02*
X127441428Y-122239525D01*
X127441428Y-122239525D02*
X127479524Y-122315716D01*
X127479524Y-122315716D02*
X127479524Y-122430001D01*
X127479524Y-122430001D02*
X127441428Y-122506192D01*
X127441428Y-122506192D02*
X127403333Y-122544287D01*
X127403333Y-122544287D02*
X127327143Y-122582382D01*
X127327143Y-122582382D02*
X127022381Y-122582382D01*
X127822381Y-122544287D02*
X128089047Y-122544287D01*
X128203333Y-122963335D02*
X127822381Y-122963335D01*
X127822381Y-122963335D02*
X127822381Y-122163335D01*
X127822381Y-122163335D02*
X128203333Y-122163335D01*
X128546191Y-122963335D02*
X128546191Y-122163335D01*
X128546191Y-122163335D02*
X128736667Y-122163335D01*
X128736667Y-122163335D02*
X128850953Y-122201430D01*
X128850953Y-122201430D02*
X128927143Y-122277620D01*
X128927143Y-122277620D02*
X128965238Y-122353811D01*
X128965238Y-122353811D02*
X129003334Y-122506192D01*
X129003334Y-122506192D02*
X129003334Y-122620478D01*
X129003334Y-122620478D02*
X128965238Y-122772859D01*
X128965238Y-122772859D02*
X128927143Y-122849049D01*
X128927143Y-122849049D02*
X128850953Y-122925240D01*
X128850953Y-122925240D02*
X128736667Y-122963335D01*
X128736667Y-122963335D02*
X128546191Y-122963335D01*
X129955715Y-122963335D02*
X129955715Y-122163335D01*
X130793810Y-122963335D02*
X130527143Y-122582382D01*
X130336667Y-122963335D02*
X130336667Y-122163335D01*
X130336667Y-122163335D02*
X130641429Y-122163335D01*
X130641429Y-122163335D02*
X130717619Y-122201430D01*
X130717619Y-122201430D02*
X130755714Y-122239525D01*
X130755714Y-122239525D02*
X130793810Y-122315716D01*
X130793810Y-122315716D02*
X130793810Y-122430001D01*
X130793810Y-122430001D02*
X130755714Y-122506192D01*
X130755714Y-122506192D02*
X130717619Y-122544287D01*
X130717619Y-122544287D02*
X130641429Y-122582382D01*
X130641429Y-122582382D02*
X130336667Y-122582382D01*
X132676190Y-119419358D02*
X132828571Y-119419358D01*
X132828571Y-119419358D02*
X132904761Y-119457453D01*
X132904761Y-119457453D02*
X132980952Y-119533643D01*
X132980952Y-119533643D02*
X133019047Y-119686024D01*
X133019047Y-119686024D02*
X133019047Y-119952691D01*
X133019047Y-119952691D02*
X132980952Y-120105072D01*
X132980952Y-120105072D02*
X132904761Y-120181263D01*
X132904761Y-120181263D02*
X132828571Y-120219358D01*
X132828571Y-120219358D02*
X132676190Y-120219358D01*
X132676190Y-120219358D02*
X132599999Y-120181263D01*
X132599999Y-120181263D02*
X132523809Y-120105072D01*
X132523809Y-120105072D02*
X132485713Y-119952691D01*
X132485713Y-119952691D02*
X132485713Y-119686024D01*
X132485713Y-119686024D02*
X132523809Y-119533643D01*
X132523809Y-119533643D02*
X132599999Y-119457453D01*
X132599999Y-119457453D02*
X132676190Y-119419358D01*
X133361904Y-120219358D02*
X133361904Y-119419358D01*
X133361904Y-119419358D02*
X133666666Y-119419358D01*
X133666666Y-119419358D02*
X133742856Y-119457453D01*
X133742856Y-119457453D02*
X133780951Y-119495548D01*
X133780951Y-119495548D02*
X133819047Y-119571739D01*
X133819047Y-119571739D02*
X133819047Y-119686024D01*
X133819047Y-119686024D02*
X133780951Y-119762215D01*
X133780951Y-119762215D02*
X133742856Y-119800310D01*
X133742856Y-119800310D02*
X133666666Y-119838405D01*
X133666666Y-119838405D02*
X133361904Y-119838405D01*
X134047618Y-119419358D02*
X134504761Y-119419358D01*
X134276189Y-120219358D02*
X134276189Y-119419358D01*
X135190475Y-120219358D02*
X134733332Y-120219358D01*
X134961904Y-120219358D02*
X134961904Y-119419358D01*
X134961904Y-119419358D02*
X134885713Y-119533643D01*
X134885713Y-119533643D02*
X134809523Y-119609834D01*
X134809523Y-119609834D02*
X134733332Y-119647929D01*
X135685714Y-119419358D02*
X135761904Y-119419358D01*
X135761904Y-119419358D02*
X135838095Y-119457453D01*
X135838095Y-119457453D02*
X135876190Y-119495548D01*
X135876190Y-119495548D02*
X135914285Y-119571739D01*
X135914285Y-119571739D02*
X135952380Y-119724120D01*
X135952380Y-119724120D02*
X135952380Y-119914596D01*
X135952380Y-119914596D02*
X135914285Y-120066977D01*
X135914285Y-120066977D02*
X135876190Y-120143167D01*
X135876190Y-120143167D02*
X135838095Y-120181263D01*
X135838095Y-120181263D02*
X135761904Y-120219358D01*
X135761904Y-120219358D02*
X135685714Y-120219358D01*
X135685714Y-120219358D02*
X135609523Y-120181263D01*
X135609523Y-120181263D02*
X135571428Y-120143167D01*
X135571428Y-120143167D02*
X135533333Y-120066977D01*
X135533333Y-120066977D02*
X135495237Y-119914596D01*
X135495237Y-119914596D02*
X135495237Y-119724120D01*
X135495237Y-119724120D02*
X135533333Y-119571739D01*
X135533333Y-119571739D02*
X135571428Y-119495548D01*
X135571428Y-119495548D02*
X135609523Y-119457453D01*
X135609523Y-119457453D02*
X135685714Y-119419358D01*
X136714285Y-120219358D02*
X136257142Y-120219358D01*
X136485714Y-120219358D02*
X136485714Y-119419358D01*
X136485714Y-119419358D02*
X136409523Y-119533643D01*
X136409523Y-119533643D02*
X136333333Y-119609834D01*
X136333333Y-119609834D02*
X136257142Y-119647929D01*
X137057143Y-120219358D02*
X137057143Y-119419358D01*
X137057143Y-119419358D02*
X137361905Y-119419358D01*
X137361905Y-119419358D02*
X137438095Y-119457453D01*
X137438095Y-119457453D02*
X137476190Y-119495548D01*
X137476190Y-119495548D02*
X137514286Y-119571739D01*
X137514286Y-119571739D02*
X137514286Y-119686024D01*
X137514286Y-119686024D02*
X137476190Y-119762215D01*
X137476190Y-119762215D02*
X137438095Y-119800310D01*
X137438095Y-119800310D02*
X137361905Y-119838405D01*
X137361905Y-119838405D02*
X137057143Y-119838405D01*
X132371429Y-121507313D02*
X132371429Y-120707313D01*
X132371429Y-120707313D02*
X132676191Y-120707313D01*
X132676191Y-120707313D02*
X132752381Y-120745408D01*
X132752381Y-120745408D02*
X132790476Y-120783503D01*
X132790476Y-120783503D02*
X132828572Y-120859694D01*
X132828572Y-120859694D02*
X132828572Y-120973979D01*
X132828572Y-120973979D02*
X132790476Y-121050170D01*
X132790476Y-121050170D02*
X132752381Y-121088265D01*
X132752381Y-121088265D02*
X132676191Y-121126360D01*
X132676191Y-121126360D02*
X132371429Y-121126360D01*
X133171429Y-121507313D02*
X133171429Y-120707313D01*
X133552381Y-121507313D02*
X133552381Y-120707313D01*
X133552381Y-120707313D02*
X134009524Y-121507313D01*
X134009524Y-121507313D02*
X134009524Y-120707313D01*
X135419047Y-121507313D02*
X134961904Y-121507313D01*
X135190476Y-121507313D02*
X135190476Y-120707313D01*
X135190476Y-120707313D02*
X135114285Y-120821598D01*
X135114285Y-120821598D02*
X135038095Y-120897789D01*
X135038095Y-120897789D02*
X134961904Y-120935884D01*
X136371429Y-120707313D02*
X136371429Y-121354932D01*
X136371429Y-121354932D02*
X136409524Y-121431122D01*
X136409524Y-121431122D02*
X136447619Y-121469218D01*
X136447619Y-121469218D02*
X136523810Y-121507313D01*
X136523810Y-121507313D02*
X136676191Y-121507313D01*
X136676191Y-121507313D02*
X136752381Y-121469218D01*
X136752381Y-121469218D02*
X136790476Y-121431122D01*
X136790476Y-121431122D02*
X136828572Y-121354932D01*
X136828572Y-121354932D02*
X136828572Y-120707313D01*
X137209524Y-121507313D02*
X137209524Y-120707313D01*
X137209524Y-120707313D02*
X137514286Y-120707313D01*
X137514286Y-120707313D02*
X137590476Y-120745408D01*
X137590476Y-120745408D02*
X137628571Y-120783503D01*
X137628571Y-120783503D02*
X137666667Y-120859694D01*
X137666667Y-120859694D02*
X137666667Y-120973979D01*
X137666667Y-120973979D02*
X137628571Y-121050170D01*
X137628571Y-121050170D02*
X137590476Y-121088265D01*
X137590476Y-121088265D02*
X137514286Y-121126360D01*
X137514286Y-121126360D02*
X137209524Y-121126360D01*
X151295237Y-129325240D02*
X151409523Y-129363335D01*
X151409523Y-129363335D02*
X151599999Y-129363335D01*
X151599999Y-129363335D02*
X151676190Y-129325240D01*
X151676190Y-129325240D02*
X151714285Y-129287144D01*
X151714285Y-129287144D02*
X151752380Y-129210954D01*
X151752380Y-129210954D02*
X151752380Y-129134763D01*
X151752380Y-129134763D02*
X151714285Y-129058573D01*
X151714285Y-129058573D02*
X151676190Y-129020478D01*
X151676190Y-129020478D02*
X151599999Y-128982382D01*
X151599999Y-128982382D02*
X151447618Y-128944287D01*
X151447618Y-128944287D02*
X151371428Y-128906192D01*
X151371428Y-128906192D02*
X151333333Y-128868097D01*
X151333333Y-128868097D02*
X151295237Y-128791906D01*
X151295237Y-128791906D02*
X151295237Y-128715716D01*
X151295237Y-128715716D02*
X151333333Y-128639525D01*
X151333333Y-128639525D02*
X151371428Y-128601430D01*
X151371428Y-128601430D02*
X151447618Y-128563335D01*
X151447618Y-128563335D02*
X151638095Y-128563335D01*
X151638095Y-128563335D02*
X151752380Y-128601430D01*
X152704762Y-129363335D02*
X152704762Y-128563335D01*
X152704762Y-128563335D02*
X153161905Y-129363335D01*
X153161905Y-129363335D02*
X153161905Y-128563335D01*
X154000000Y-129287144D02*
X153961904Y-129325240D01*
X153961904Y-129325240D02*
X153847619Y-129363335D01*
X153847619Y-129363335D02*
X153771428Y-129363335D01*
X153771428Y-129363335D02*
X153657142Y-129325240D01*
X153657142Y-129325240D02*
X153580952Y-129249049D01*
X153580952Y-129249049D02*
X153542857Y-129172859D01*
X153542857Y-129172859D02*
X153504761Y-129020478D01*
X153504761Y-129020478D02*
X153504761Y-128906192D01*
X153504761Y-128906192D02*
X153542857Y-128753811D01*
X153542857Y-128753811D02*
X153580952Y-128677620D01*
X153580952Y-128677620D02*
X153657142Y-128601430D01*
X153657142Y-128601430D02*
X153771428Y-128563335D01*
X153771428Y-128563335D02*
X153847619Y-128563335D01*
X153847619Y-128563335D02*
X153961904Y-128601430D01*
X153961904Y-128601430D02*
X154000000Y-128639525D01*
X154838095Y-128563335D02*
X155104762Y-129363335D01*
X155104762Y-129363335D02*
X155371428Y-128563335D01*
X156666666Y-128601430D02*
X156590476Y-128563335D01*
X156590476Y-128563335D02*
X156476190Y-128563335D01*
X156476190Y-128563335D02*
X156361904Y-128601430D01*
X156361904Y-128601430D02*
X156285714Y-128677620D01*
X156285714Y-128677620D02*
X156247619Y-128753811D01*
X156247619Y-128753811D02*
X156209523Y-128906192D01*
X156209523Y-128906192D02*
X156209523Y-129020478D01*
X156209523Y-129020478D02*
X156247619Y-129172859D01*
X156247619Y-129172859D02*
X156285714Y-129249049D01*
X156285714Y-129249049D02*
X156361904Y-129325240D01*
X156361904Y-129325240D02*
X156476190Y-129363335D01*
X156476190Y-129363335D02*
X156552381Y-129363335D01*
X156552381Y-129363335D02*
X156666666Y-129325240D01*
X156666666Y-129325240D02*
X156704762Y-129287144D01*
X156704762Y-129287144D02*
X156704762Y-129020478D01*
X156704762Y-129020478D02*
X156552381Y-129020478D01*
X150364285Y-103930001D02*
X150364285Y-104463335D01*
X150173809Y-103625240D02*
X149983332Y-104196668D01*
X149983332Y-104196668D02*
X150478571Y-104196668D01*
X150783333Y-104158573D02*
X151392857Y-104158573D01*
X151773809Y-104158573D02*
X152383333Y-104158573D01*
X153145237Y-103663335D02*
X152764285Y-103663335D01*
X152764285Y-103663335D02*
X152726189Y-104044287D01*
X152726189Y-104044287D02*
X152764285Y-104006192D01*
X152764285Y-104006192D02*
X152840475Y-103968097D01*
X152840475Y-103968097D02*
X153030951Y-103968097D01*
X153030951Y-103968097D02*
X153107142Y-104006192D01*
X153107142Y-104006192D02*
X153145237Y-104044287D01*
X153145237Y-104044287D02*
X153183332Y-104120478D01*
X153183332Y-104120478D02*
X153183332Y-104310954D01*
X153183332Y-104310954D02*
X153145237Y-104387144D01*
X153145237Y-104387144D02*
X153107142Y-104425240D01*
X153107142Y-104425240D02*
X153030951Y-104463335D01*
X153030951Y-104463335D02*
X152840475Y-104463335D01*
X152840475Y-104463335D02*
X152764285Y-104425240D01*
X152764285Y-104425240D02*
X152726189Y-104387144D01*
X155164285Y-104463335D02*
X154707142Y-104463335D01*
X154935714Y-104463335D02*
X154935714Y-103663335D01*
X154935714Y-103663335D02*
X154859523Y-103777620D01*
X154859523Y-103777620D02*
X154783333Y-103853811D01*
X154783333Y-103853811D02*
X154707142Y-103891906D01*
X155507143Y-104463335D02*
X155507143Y-103663335D01*
X155507143Y-103663335D02*
X155773809Y-104234763D01*
X155773809Y-104234763D02*
X156040476Y-103663335D01*
X156040476Y-103663335D02*
X156040476Y-104463335D01*
X157030953Y-104463335D02*
X157030953Y-103663335D01*
X157411905Y-104463335D02*
X157411905Y-103663335D01*
X157411905Y-103663335D02*
X157869048Y-104463335D01*
X157869048Y-104463335D02*
X157869048Y-103663335D01*
X158135714Y-103663335D02*
X158592857Y-103663335D01*
X158364285Y-104463335D02*
X158364285Y-103663335D01*
X131822619Y-105536467D02*
X132348810Y-105536467D01*
X132348810Y-105536467D02*
X132065476Y-105860276D01*
X132065476Y-105860276D02*
X132186905Y-105860276D01*
X132186905Y-105860276D02*
X132267857Y-105900752D01*
X132267857Y-105900752D02*
X132308333Y-105941229D01*
X132308333Y-105941229D02*
X132348810Y-106022181D01*
X132348810Y-106022181D02*
X132348810Y-106224562D01*
X132348810Y-106224562D02*
X132308333Y-106305514D01*
X132308333Y-106305514D02*
X132267857Y-106345991D01*
X132267857Y-106345991D02*
X132186905Y-106386467D01*
X132186905Y-106386467D02*
X131944048Y-106386467D01*
X131944048Y-106386467D02*
X131863095Y-106345991D01*
X131863095Y-106345991D02*
X131822619Y-106305514D01*
X132713095Y-106305514D02*
X132753572Y-106345991D01*
X132753572Y-106345991D02*
X132713095Y-106386467D01*
X132713095Y-106386467D02*
X132672619Y-106345991D01*
X132672619Y-106345991D02*
X132713095Y-106305514D01*
X132713095Y-106305514D02*
X132713095Y-106386467D01*
X133036905Y-105536467D02*
X133563096Y-105536467D01*
X133563096Y-105536467D02*
X133279762Y-105860276D01*
X133279762Y-105860276D02*
X133401191Y-105860276D01*
X133401191Y-105860276D02*
X133482143Y-105900752D01*
X133482143Y-105900752D02*
X133522619Y-105941229D01*
X133522619Y-105941229D02*
X133563096Y-106022181D01*
X133563096Y-106022181D02*
X133563096Y-106224562D01*
X133563096Y-106224562D02*
X133522619Y-106305514D01*
X133522619Y-106305514D02*
X133482143Y-106345991D01*
X133482143Y-106345991D02*
X133401191Y-106386467D01*
X133401191Y-106386467D02*
X133158334Y-106386467D01*
X133158334Y-106386467D02*
X133077381Y-106345991D01*
X133077381Y-106345991D02*
X133036905Y-106305514D01*
X133805953Y-105536467D02*
X134089286Y-106386467D01*
X134089286Y-106386467D02*
X134372620Y-105536467D01*
X135465476Y-105536467D02*
X135627381Y-105536467D01*
X135627381Y-105536467D02*
X135708333Y-105576943D01*
X135708333Y-105576943D02*
X135789286Y-105657895D01*
X135789286Y-105657895D02*
X135829762Y-105819800D01*
X135829762Y-105819800D02*
X135829762Y-106103133D01*
X135829762Y-106103133D02*
X135789286Y-106265038D01*
X135789286Y-106265038D02*
X135708333Y-106345991D01*
X135708333Y-106345991D02*
X135627381Y-106386467D01*
X135627381Y-106386467D02*
X135465476Y-106386467D01*
X135465476Y-106386467D02*
X135384524Y-106345991D01*
X135384524Y-106345991D02*
X135303571Y-106265038D01*
X135303571Y-106265038D02*
X135263095Y-106103133D01*
X135263095Y-106103133D02*
X135263095Y-105819800D01*
X135263095Y-105819800D02*
X135303571Y-105657895D01*
X135303571Y-105657895D02*
X135384524Y-105576943D01*
X135384524Y-105576943D02*
X135465476Y-105536467D01*
X136194047Y-106386467D02*
X136194047Y-105536467D01*
X136194047Y-105536467D02*
X136679762Y-106386467D01*
X136679762Y-106386467D02*
X136679762Y-105536467D01*
X137489285Y-106386467D02*
X137084523Y-106386467D01*
X137084523Y-106386467D02*
X137084523Y-105536467D01*
X137934523Y-105981705D02*
X137934523Y-106386467D01*
X137651190Y-105536467D02*
X137934523Y-105981705D01*
X137934523Y-105981705D02*
X138217857Y-105536467D01*
X132510714Y-127036467D02*
X133077381Y-127036467D01*
X133077381Y-127036467D02*
X132713095Y-127886467D01*
X133563095Y-127036467D02*
X133644048Y-127036467D01*
X133644048Y-127036467D02*
X133725000Y-127076943D01*
X133725000Y-127076943D02*
X133765476Y-127117419D01*
X133765476Y-127117419D02*
X133805952Y-127198371D01*
X133805952Y-127198371D02*
X133846429Y-127360276D01*
X133846429Y-127360276D02*
X133846429Y-127562657D01*
X133846429Y-127562657D02*
X133805952Y-127724562D01*
X133805952Y-127724562D02*
X133765476Y-127805514D01*
X133765476Y-127805514D02*
X133725000Y-127845991D01*
X133725000Y-127845991D02*
X133644048Y-127886467D01*
X133644048Y-127886467D02*
X133563095Y-127886467D01*
X133563095Y-127886467D02*
X133482143Y-127845991D01*
X133482143Y-127845991D02*
X133441667Y-127805514D01*
X133441667Y-127805514D02*
X133401190Y-127724562D01*
X133401190Y-127724562D02*
X133360714Y-127562657D01*
X133360714Y-127562657D02*
X133360714Y-127360276D01*
X133360714Y-127360276D02*
X133401190Y-127198371D01*
X133401190Y-127198371D02*
X133441667Y-127117419D01*
X133441667Y-127117419D02*
X133482143Y-127076943D01*
X133482143Y-127076943D02*
X133563095Y-127036467D01*
X134777381Y-127886467D02*
X135222619Y-127319800D01*
X134777381Y-127319800D02*
X135222619Y-127886467D01*
X136113095Y-127036467D02*
X136639286Y-127036467D01*
X136639286Y-127036467D02*
X136355952Y-127360276D01*
X136355952Y-127360276D02*
X136477381Y-127360276D01*
X136477381Y-127360276D02*
X136558333Y-127400752D01*
X136558333Y-127400752D02*
X136598809Y-127441229D01*
X136598809Y-127441229D02*
X136639286Y-127522181D01*
X136639286Y-127522181D02*
X136639286Y-127724562D01*
X136639286Y-127724562D02*
X136598809Y-127805514D01*
X136598809Y-127805514D02*
X136558333Y-127845991D01*
X136558333Y-127845991D02*
X136477381Y-127886467D01*
X136477381Y-127886467D02*
X136234524Y-127886467D01*
X136234524Y-127886467D02*
X136153571Y-127845991D01*
X136153571Y-127845991D02*
X136113095Y-127805514D01*
X137165476Y-127036467D02*
X137246429Y-127036467D01*
X137246429Y-127036467D02*
X137327381Y-127076943D01*
X137327381Y-127076943D02*
X137367857Y-127117419D01*
X137367857Y-127117419D02*
X137408333Y-127198371D01*
X137408333Y-127198371D02*
X137448810Y-127360276D01*
X137448810Y-127360276D02*
X137448810Y-127562657D01*
X137448810Y-127562657D02*
X137408333Y-127724562D01*
X137408333Y-127724562D02*
X137367857Y-127805514D01*
X137367857Y-127805514D02*
X137327381Y-127845991D01*
X137327381Y-127845991D02*
X137246429Y-127886467D01*
X137246429Y-127886467D02*
X137165476Y-127886467D01*
X137165476Y-127886467D02*
X137084524Y-127845991D01*
X137084524Y-127845991D02*
X137044048Y-127805514D01*
X137044048Y-127805514D02*
X137003571Y-127724562D01*
X137003571Y-127724562D02*
X136963095Y-127562657D01*
X136963095Y-127562657D02*
X136963095Y-127360276D01*
X136963095Y-127360276D02*
X137003571Y-127198371D01*
X137003571Y-127198371D02*
X137044048Y-127117419D01*
X137044048Y-127117419D02*
X137084524Y-127076943D01*
X137084524Y-127076943D02*
X137165476Y-127036467D01*
X130047619Y-103455859D02*
X130047619Y-102455859D01*
X130047619Y-102455859D02*
X130428571Y-102455859D01*
X130428571Y-102455859D02*
X130523809Y-102503478D01*
X130523809Y-102503478D02*
X130571428Y-102551097D01*
X130571428Y-102551097D02*
X130619047Y-102646335D01*
X130619047Y-102646335D02*
X130619047Y-102789192D01*
X130619047Y-102789192D02*
X130571428Y-102884430D01*
X130571428Y-102884430D02*
X130523809Y-102932049D01*
X130523809Y-102932049D02*
X130428571Y-102979668D01*
X130428571Y-102979668D02*
X130047619Y-102979668D01*
X131047619Y-103455859D02*
X131047619Y-102455859D01*
X131047619Y-102455859D02*
X131428571Y-102455859D01*
X131428571Y-102455859D02*
X131523809Y-102503478D01*
X131523809Y-102503478D02*
X131571428Y-102551097D01*
X131571428Y-102551097D02*
X131619047Y-102646335D01*
X131619047Y-102646335D02*
X131619047Y-102789192D01*
X131619047Y-102789192D02*
X131571428Y-102884430D01*
X131571428Y-102884430D02*
X131523809Y-102932049D01*
X131523809Y-102932049D02*
X131428571Y-102979668D01*
X131428571Y-102979668D02*
X131047619Y-102979668D01*
X132571428Y-102503478D02*
X132476190Y-102455859D01*
X132476190Y-102455859D02*
X132333333Y-102455859D01*
X132333333Y-102455859D02*
X132190476Y-102503478D01*
X132190476Y-102503478D02*
X132095238Y-102598716D01*
X132095238Y-102598716D02*
X132047619Y-102693954D01*
X132047619Y-102693954D02*
X132000000Y-102884430D01*
X132000000Y-102884430D02*
X132000000Y-103027287D01*
X132000000Y-103027287D02*
X132047619Y-103217763D01*
X132047619Y-103217763D02*
X132095238Y-103313001D01*
X132095238Y-103313001D02*
X132190476Y-103408240D01*
X132190476Y-103408240D02*
X132333333Y-103455859D01*
X132333333Y-103455859D02*
X132428571Y-103455859D01*
X132428571Y-103455859D02*
X132571428Y-103408240D01*
X132571428Y-103408240D02*
X132619047Y-103360620D01*
X132619047Y-103360620D02*
X132619047Y-103027287D01*
X132619047Y-103027287D02*
X132428571Y-103027287D01*
X134380952Y-103455859D02*
X134047619Y-102979668D01*
X133809524Y-103455859D02*
X133809524Y-102455859D01*
X133809524Y-102455859D02*
X134190476Y-102455859D01*
X134190476Y-102455859D02*
X134285714Y-102503478D01*
X134285714Y-102503478D02*
X134333333Y-102551097D01*
X134333333Y-102551097D02*
X134380952Y-102646335D01*
X134380952Y-102646335D02*
X134380952Y-102789192D01*
X134380952Y-102789192D02*
X134333333Y-102884430D01*
X134333333Y-102884430D02*
X134285714Y-102932049D01*
X134285714Y-102932049D02*
X134190476Y-102979668D01*
X134190476Y-102979668D02*
X133809524Y-102979668D01*
X134714286Y-102455859D02*
X135380952Y-103455859D01*
X135380952Y-102455859D02*
X134714286Y-103455859D01*
X137190477Y-102789192D02*
X137428572Y-103455859D01*
X137428572Y-103455859D02*
X137666667Y-102789192D01*
X138571429Y-103455859D02*
X138000001Y-103455859D01*
X138285715Y-103455859D02*
X138285715Y-102455859D01*
X138285715Y-102455859D02*
X138190477Y-102598716D01*
X138190477Y-102598716D02*
X138095239Y-102693954D01*
X138095239Y-102693954D02*
X138000001Y-102741573D01*
X139000001Y-103360620D02*
X139047620Y-103408240D01*
X139047620Y-103408240D02*
X139000001Y-103455859D01*
X139000001Y-103455859D02*
X138952382Y-103408240D01*
X138952382Y-103408240D02*
X139000001Y-103360620D01*
X139000001Y-103360620D02*
X139000001Y-103455859D01*
X139904762Y-102789192D02*
X139904762Y-103455859D01*
X139666667Y-102408240D02*
X139428572Y-103122525D01*
X139428572Y-103122525D02*
X140047619Y-103122525D01*
X112350000Y-102748382D02*
X111950000Y-102176954D01*
X111664286Y-102748382D02*
X111664286Y-101548382D01*
X111664286Y-101548382D02*
X112121429Y-101548382D01*
X112121429Y-101548382D02*
X112235714Y-101605525D01*
X112235714Y-101605525D02*
X112292857Y-101662668D01*
X112292857Y-101662668D02*
X112350000Y-101776954D01*
X112350000Y-101776954D02*
X112350000Y-101948382D01*
X112350000Y-101948382D02*
X112292857Y-102062668D01*
X112292857Y-102062668D02*
X112235714Y-102119811D01*
X112235714Y-102119811D02*
X112121429Y-102176954D01*
X112121429Y-102176954D02*
X111664286Y-102176954D01*
X112864286Y-102119811D02*
X113264286Y-102119811D01*
X113435714Y-102748382D02*
X112864286Y-102748382D01*
X112864286Y-102748382D02*
X112864286Y-101548382D01*
X112864286Y-101548382D02*
X113435714Y-101548382D01*
X113950000Y-102748382D02*
X113950000Y-101548382D01*
X113950000Y-101548382D02*
X114235714Y-101548382D01*
X114235714Y-101548382D02*
X114407143Y-101605525D01*
X114407143Y-101605525D02*
X114521428Y-101719811D01*
X114521428Y-101719811D02*
X114578571Y-101834097D01*
X114578571Y-101834097D02*
X114635714Y-102062668D01*
X114635714Y-102062668D02*
X114635714Y-102234097D01*
X114635714Y-102234097D02*
X114578571Y-102462668D01*
X114578571Y-102462668D02*
X114521428Y-102576954D01*
X114521428Y-102576954D02*
X114407143Y-102691240D01*
X114407143Y-102691240D02*
X114235714Y-102748382D01*
X114235714Y-102748382D02*
X113950000Y-102748382D01*
X116921429Y-101491240D02*
X115892857Y-103034097D01*
X118178572Y-102405525D02*
X118750001Y-102405525D01*
X118064286Y-102748382D02*
X118464286Y-101548382D01*
X118464286Y-101548382D02*
X118864286Y-102748382D01*
X119207143Y-101662668D02*
X119264286Y-101605525D01*
X119264286Y-101605525D02*
X119378572Y-101548382D01*
X119378572Y-101548382D02*
X119664286Y-101548382D01*
X119664286Y-101548382D02*
X119778572Y-101605525D01*
X119778572Y-101605525D02*
X119835714Y-101662668D01*
X119835714Y-101662668D02*
X119892857Y-101776954D01*
X119892857Y-101776954D02*
X119892857Y-101891240D01*
X119892857Y-101891240D02*
X119835714Y-102062668D01*
X119835714Y-102062668D02*
X119150000Y-102748382D01*
X119150000Y-102748382D02*
X119892857Y-102748382D01*
X151021428Y-102748382D02*
X151021428Y-101548382D01*
X152278571Y-102748382D02*
X151878571Y-102176954D01*
X151592857Y-102748382D02*
X151592857Y-101548382D01*
X151592857Y-101548382D02*
X152050000Y-101548382D01*
X152050000Y-101548382D02*
X152164285Y-101605525D01*
X152164285Y-101605525D02*
X152221428Y-101662668D01*
X152221428Y-101662668D02*
X152278571Y-101776954D01*
X152278571Y-101776954D02*
X152278571Y-101948382D01*
X152278571Y-101948382D02*
X152221428Y-102062668D01*
X152221428Y-102062668D02*
X152164285Y-102119811D01*
X152164285Y-102119811D02*
X152050000Y-102176954D01*
X152050000Y-102176954D02*
X151592857Y-102176954D01*
X154564286Y-101491240D02*
X153535714Y-103034097D01*
X155821429Y-102405525D02*
X156392858Y-102405525D01*
X155707143Y-102748382D02*
X156107143Y-101548382D01*
X156107143Y-101548382D02*
X156507143Y-102748382D01*
X157135714Y-101548382D02*
X157250000Y-101548382D01*
X157250000Y-101548382D02*
X157364286Y-101605525D01*
X157364286Y-101605525D02*
X157421429Y-101662668D01*
X157421429Y-101662668D02*
X157478571Y-101776954D01*
X157478571Y-101776954D02*
X157535714Y-102005525D01*
X157535714Y-102005525D02*
X157535714Y-102291240D01*
X157535714Y-102291240D02*
X157478571Y-102519811D01*
X157478571Y-102519811D02*
X157421429Y-102634097D01*
X157421429Y-102634097D02*
X157364286Y-102691240D01*
X157364286Y-102691240D02*
X157250000Y-102748382D01*
X157250000Y-102748382D02*
X157135714Y-102748382D01*
X157135714Y-102748382D02*
X157021429Y-102691240D01*
X157021429Y-102691240D02*
X156964286Y-102634097D01*
X156964286Y-102634097D02*
X156907143Y-102519811D01*
X156907143Y-102519811D02*
X156850000Y-102291240D01*
X156850000Y-102291240D02*
X156850000Y-102005525D01*
X156850000Y-102005525D02*
X156907143Y-101776954D01*
X156907143Y-101776954D02*
X156964286Y-101662668D01*
X156964286Y-101662668D02*
X157021429Y-101605525D01*
X157021429Y-101605525D02*
X157135714Y-101548382D01*
X147900000Y-107323882D02*
X147857143Y-107366740D01*
X147857143Y-107366740D02*
X147728571Y-107409597D01*
X147728571Y-107409597D02*
X147642857Y-107409597D01*
X147642857Y-107409597D02*
X147514286Y-107366740D01*
X147514286Y-107366740D02*
X147428571Y-107281025D01*
X147428571Y-107281025D02*
X147385714Y-107195311D01*
X147385714Y-107195311D02*
X147342857Y-107023882D01*
X147342857Y-107023882D02*
X147342857Y-106895311D01*
X147342857Y-106895311D02*
X147385714Y-106723882D01*
X147385714Y-106723882D02*
X147428571Y-106638168D01*
X147428571Y-106638168D02*
X147514286Y-106552454D01*
X147514286Y-106552454D02*
X147642857Y-106509597D01*
X147642857Y-106509597D02*
X147728571Y-106509597D01*
X147728571Y-106509597D02*
X147857143Y-106552454D01*
X147857143Y-106552454D02*
X147900000Y-106595311D01*
X148242857Y-106595311D02*
X148285714Y-106552454D01*
X148285714Y-106552454D02*
X148371429Y-106509597D01*
X148371429Y-106509597D02*
X148585714Y-106509597D01*
X148585714Y-106509597D02*
X148671429Y-106552454D01*
X148671429Y-106552454D02*
X148714286Y-106595311D01*
X148714286Y-106595311D02*
X148757143Y-106681025D01*
X148757143Y-106681025D02*
X148757143Y-106766740D01*
X148757143Y-106766740D02*
X148714286Y-106895311D01*
X148714286Y-106895311D02*
X148200000Y-107409597D01*
X148200000Y-107409597D02*
X148757143Y-107409597D01*
X162100000Y-120723882D02*
X162057143Y-120766740D01*
X162057143Y-120766740D02*
X161928571Y-120809597D01*
X161928571Y-120809597D02*
X161842857Y-120809597D01*
X161842857Y-120809597D02*
X161714286Y-120766740D01*
X161714286Y-120766740D02*
X161628571Y-120681025D01*
X161628571Y-120681025D02*
X161585714Y-120595311D01*
X161585714Y-120595311D02*
X161542857Y-120423882D01*
X161542857Y-120423882D02*
X161542857Y-120295311D01*
X161542857Y-120295311D02*
X161585714Y-120123882D01*
X161585714Y-120123882D02*
X161628571Y-120038168D01*
X161628571Y-120038168D02*
X161714286Y-119952454D01*
X161714286Y-119952454D02*
X161842857Y-119909597D01*
X161842857Y-119909597D02*
X161928571Y-119909597D01*
X161928571Y-119909597D02*
X162057143Y-119952454D01*
X162057143Y-119952454D02*
X162100000Y-119995311D01*
X162871429Y-120209597D02*
X162871429Y-120809597D01*
X162657143Y-119866740D02*
X162442857Y-120509597D01*
X162442857Y-120509597D02*
X163000000Y-120509597D01*
X148500000Y-122409597D02*
X148200000Y-121981025D01*
X147985714Y-122409597D02*
X147985714Y-121509597D01*
X147985714Y-121509597D02*
X148328571Y-121509597D01*
X148328571Y-121509597D02*
X148414286Y-121552454D01*
X148414286Y-121552454D02*
X148457143Y-121595311D01*
X148457143Y-121595311D02*
X148500000Y-121681025D01*
X148500000Y-121681025D02*
X148500000Y-121809597D01*
X148500000Y-121809597D02*
X148457143Y-121895311D01*
X148457143Y-121895311D02*
X148414286Y-121938168D01*
X148414286Y-121938168D02*
X148328571Y-121981025D01*
X148328571Y-121981025D02*
X147985714Y-121981025D01*
X148842857Y-121595311D02*
X148885714Y-121552454D01*
X148885714Y-121552454D02*
X148971429Y-121509597D01*
X148971429Y-121509597D02*
X149185714Y-121509597D01*
X149185714Y-121509597D02*
X149271429Y-121552454D01*
X149271429Y-121552454D02*
X149314286Y-121595311D01*
X149314286Y-121595311D02*
X149357143Y-121681025D01*
X149357143Y-121681025D02*
X149357143Y-121766740D01*
X149357143Y-121766740D02*
X149314286Y-121895311D01*
X149314286Y-121895311D02*
X148800000Y-122409597D01*
X148800000Y-122409597D02*
X149357143Y-122409597D01*
X120564285Y-108509597D02*
X120564285Y-109238168D01*
X120564285Y-109238168D02*
X120607142Y-109323882D01*
X120607142Y-109323882D02*
X120650000Y-109366740D01*
X120650000Y-109366740D02*
X120735714Y-109409597D01*
X120735714Y-109409597D02*
X120907142Y-109409597D01*
X120907142Y-109409597D02*
X120992857Y-109366740D01*
X120992857Y-109366740D02*
X121035714Y-109323882D01*
X121035714Y-109323882D02*
X121078571Y-109238168D01*
X121078571Y-109238168D02*
X121078571Y-108509597D01*
X121978571Y-109409597D02*
X121464285Y-109409597D01*
X121721428Y-109409597D02*
X121721428Y-108509597D01*
X121721428Y-108509597D02*
X121635714Y-108638168D01*
X121635714Y-108638168D02*
X121549999Y-108723882D01*
X121549999Y-108723882D02*
X121464285Y-108766740D01*
X126779597Y-128299999D02*
X127422454Y-128299999D01*
X127422454Y-128299999D02*
X127551025Y-128342856D01*
X127551025Y-128342856D02*
X127636740Y-128428570D01*
X127636740Y-128428570D02*
X127679597Y-128557142D01*
X127679597Y-128557142D02*
X127679597Y-128642856D01*
X126779597Y-127957142D02*
X126779597Y-127399999D01*
X126779597Y-127399999D02*
X127122454Y-127699999D01*
X127122454Y-127699999D02*
X127122454Y-127571428D01*
X127122454Y-127571428D02*
X127165311Y-127485714D01*
X127165311Y-127485714D02*
X127208168Y-127442856D01*
X127208168Y-127442856D02*
X127293882Y-127399999D01*
X127293882Y-127399999D02*
X127508168Y-127399999D01*
X127508168Y-127399999D02*
X127593882Y-127442856D01*
X127593882Y-127442856D02*
X127636740Y-127485714D01*
X127636740Y-127485714D02*
X127679597Y-127571428D01*
X127679597Y-127571428D02*
X127679597Y-127828571D01*
X127679597Y-127828571D02*
X127636740Y-127914285D01*
X127636740Y-127914285D02*
X127593882Y-127957142D01*
X109809597Y-125299999D02*
X110452454Y-125299999D01*
X110452454Y-125299999D02*
X110581025Y-125342856D01*
X110581025Y-125342856D02*
X110666740Y-125428570D01*
X110666740Y-125428570D02*
X110709597Y-125557142D01*
X110709597Y-125557142D02*
X110709597Y-125642856D01*
X110709597Y-124399999D02*
X110709597Y-124914285D01*
X110709597Y-124657142D02*
X109809597Y-124657142D01*
X109809597Y-124657142D02*
X109938168Y-124742856D01*
X109938168Y-124742856D02*
X110023882Y-124828571D01*
X110023882Y-124828571D02*
X110066740Y-124914285D01*
X123600000Y-120723882D02*
X123557143Y-120766740D01*
X123557143Y-120766740D02*
X123428571Y-120809597D01*
X123428571Y-120809597D02*
X123342857Y-120809597D01*
X123342857Y-120809597D02*
X123214286Y-120766740D01*
X123214286Y-120766740D02*
X123128571Y-120681025D01*
X123128571Y-120681025D02*
X123085714Y-120595311D01*
X123085714Y-120595311D02*
X123042857Y-120423882D01*
X123042857Y-120423882D02*
X123042857Y-120295311D01*
X123042857Y-120295311D02*
X123085714Y-120123882D01*
X123085714Y-120123882D02*
X123128571Y-120038168D01*
X123128571Y-120038168D02*
X123214286Y-119952454D01*
X123214286Y-119952454D02*
X123342857Y-119909597D01*
X123342857Y-119909597D02*
X123428571Y-119909597D01*
X123428571Y-119909597D02*
X123557143Y-119952454D01*
X123557143Y-119952454D02*
X123600000Y-119995311D01*
X123900000Y-119909597D02*
X124457143Y-119909597D01*
X124457143Y-119909597D02*
X124157143Y-120252454D01*
X124157143Y-120252454D02*
X124285714Y-120252454D01*
X124285714Y-120252454D02*
X124371429Y-120295311D01*
X124371429Y-120295311D02*
X124414286Y-120338168D01*
X124414286Y-120338168D02*
X124457143Y-120423882D01*
X124457143Y-120423882D02*
X124457143Y-120638168D01*
X124457143Y-120638168D02*
X124414286Y-120723882D01*
X124414286Y-120723882D02*
X124371429Y-120766740D01*
X124371429Y-120766740D02*
X124285714Y-120809597D01*
X124285714Y-120809597D02*
X124028571Y-120809597D01*
X124028571Y-120809597D02*
X123942857Y-120766740D01*
X123942857Y-120766740D02*
X123900000Y-120723882D01*
X109400000Y-107323882D02*
X109357143Y-107366740D01*
X109357143Y-107366740D02*
X109228571Y-107409597D01*
X109228571Y-107409597D02*
X109142857Y-107409597D01*
X109142857Y-107409597D02*
X109014286Y-107366740D01*
X109014286Y-107366740D02*
X108928571Y-107281025D01*
X108928571Y-107281025D02*
X108885714Y-107195311D01*
X108885714Y-107195311D02*
X108842857Y-107023882D01*
X108842857Y-107023882D02*
X108842857Y-106895311D01*
X108842857Y-106895311D02*
X108885714Y-106723882D01*
X108885714Y-106723882D02*
X108928571Y-106638168D01*
X108928571Y-106638168D02*
X109014286Y-106552454D01*
X109014286Y-106552454D02*
X109142857Y-106509597D01*
X109142857Y-106509597D02*
X109228571Y-106509597D01*
X109228571Y-106509597D02*
X109357143Y-106552454D01*
X109357143Y-106552454D02*
X109400000Y-106595311D01*
X110257143Y-107409597D02*
X109742857Y-107409597D01*
X110000000Y-107409597D02*
X110000000Y-106509597D01*
X110000000Y-106509597D02*
X109914286Y-106638168D01*
X109914286Y-106638168D02*
X109828571Y-106723882D01*
X109828571Y-106723882D02*
X109742857Y-106766740D01*
X159064285Y-108509597D02*
X159064285Y-109238168D01*
X159064285Y-109238168D02*
X159107142Y-109323882D01*
X159107142Y-109323882D02*
X159150000Y-109366740D01*
X159150000Y-109366740D02*
X159235714Y-109409597D01*
X159235714Y-109409597D02*
X159407142Y-109409597D01*
X159407142Y-109409597D02*
X159492857Y-109366740D01*
X159492857Y-109366740D02*
X159535714Y-109323882D01*
X159535714Y-109323882D02*
X159578571Y-109238168D01*
X159578571Y-109238168D02*
X159578571Y-108509597D01*
X159964285Y-108595311D02*
X160007142Y-108552454D01*
X160007142Y-108552454D02*
X160092857Y-108509597D01*
X160092857Y-108509597D02*
X160307142Y-108509597D01*
X160307142Y-108509597D02*
X160392857Y-108552454D01*
X160392857Y-108552454D02*
X160435714Y-108595311D01*
X160435714Y-108595311D02*
X160478571Y-108681025D01*
X160478571Y-108681025D02*
X160478571Y-108766740D01*
X160478571Y-108766740D02*
X160435714Y-108895311D01*
X160435714Y-108895311D02*
X159921428Y-109409597D01*
X159921428Y-109409597D02*
X160478571Y-109409597D01*
X147809597Y-125299999D02*
X148452454Y-125299999D01*
X148452454Y-125299999D02*
X148581025Y-125342856D01*
X148581025Y-125342856D02*
X148666740Y-125428570D01*
X148666740Y-125428570D02*
X148709597Y-125557142D01*
X148709597Y-125557142D02*
X148709597Y-125642856D01*
X147895311Y-124914285D02*
X147852454Y-124871428D01*
X147852454Y-124871428D02*
X147809597Y-124785714D01*
X147809597Y-124785714D02*
X147809597Y-124571428D01*
X147809597Y-124571428D02*
X147852454Y-124485714D01*
X147852454Y-124485714D02*
X147895311Y-124442856D01*
X147895311Y-124442856D02*
X147981025Y-124399999D01*
X147981025Y-124399999D02*
X148066740Y-124399999D01*
X148066740Y-124399999D02*
X148195311Y-124442856D01*
X148195311Y-124442856D02*
X148709597Y-124957142D01*
X148709597Y-124957142D02*
X148709597Y-124399999D01*
X110000000Y-122409597D02*
X109700000Y-121981025D01*
X109485714Y-122409597D02*
X109485714Y-121509597D01*
X109485714Y-121509597D02*
X109828571Y-121509597D01*
X109828571Y-121509597D02*
X109914286Y-121552454D01*
X109914286Y-121552454D02*
X109957143Y-121595311D01*
X109957143Y-121595311D02*
X110000000Y-121681025D01*
X110000000Y-121681025D02*
X110000000Y-121809597D01*
X110000000Y-121809597D02*
X109957143Y-121895311D01*
X109957143Y-121895311D02*
X109914286Y-121938168D01*
X109914286Y-121938168D02*
X109828571Y-121981025D01*
X109828571Y-121981025D02*
X109485714Y-121981025D01*
X110857143Y-122409597D02*
X110342857Y-122409597D01*
X110600000Y-122409597D02*
X110600000Y-121509597D01*
X110600000Y-121509597D02*
X110514286Y-121638168D01*
X110514286Y-121638168D02*
X110428571Y-121723882D01*
X110428571Y-121723882D02*
X110342857Y-121766740D01*
%TO.C,C2*%
D11*
X151428748Y-106265000D02*
X151951252Y-106265000D01*
X151428748Y-107735000D02*
X151951252Y-107735000D01*
%TO.C,C4*%
X159988748Y-121265000D02*
X160511252Y-121265000D01*
X159988748Y-122735000D02*
X160511252Y-122735000D01*
%TO.C,R2*%
X154022936Y-121265000D02*
X154477064Y-121265000D01*
X154022936Y-122735000D02*
X154477064Y-122735000D01*
%TO.C,U1*%
X113100000Y-109860000D02*
X113100000Y-120140000D01*
X113100000Y-120140000D02*
X118400000Y-120140000D01*
X114750000Y-109860000D02*
X113100000Y-109860000D01*
X118400000Y-109860000D02*
X116750000Y-109860000D01*
X118400000Y-120140000D02*
X118400000Y-109860000D01*
X110610000Y-109800000D02*
X120890000Y-109800000D01*
X120890000Y-120200000D01*
X110610000Y-120200000D01*
X110610000Y-109800000D01*
X116750000Y-109860000D02*
G75*
G02*
X114750000Y-109860000I-1000000J0D01*
G01*
%TO.C,J3*%
X124620000Y-126380000D02*
X124620000Y-125000000D01*
X126000000Y-126380000D02*
X124620000Y-126380000D01*
X127270000Y-123620000D02*
X129920000Y-123620000D01*
X127270000Y-126380000D02*
X127270000Y-123620000D01*
X127270000Y-126380000D02*
X129920000Y-126380000D01*
X129920000Y-126380000D02*
X129920000Y-123620000D01*
%TO.C,J1*%
X111890000Y-126110000D02*
X111890000Y-125000000D01*
X113000000Y-126110000D02*
X111890000Y-126110000D01*
X114000000Y-123890000D02*
X120110000Y-123890000D01*
X114000000Y-126110000D02*
X114000000Y-123890000D01*
X114000000Y-126110000D02*
X120110000Y-126110000D01*
X120110000Y-126110000D02*
X120110000Y-123890000D01*
%TO.C,C3*%
X121488748Y-121265000D02*
X122011252Y-121265000D01*
X121488748Y-122735000D02*
X122011252Y-122735000D01*
%TO.C,C1*%
X112928748Y-106265000D02*
X113451252Y-106265000D01*
X112928748Y-107735000D02*
X113451252Y-107735000D01*
%TO.C,U2*%
X151600000Y-109860000D02*
X151600000Y-120140000D01*
X151600000Y-120140000D02*
X156900000Y-120140000D01*
X153250000Y-109860000D02*
X151600000Y-109860000D01*
X156900000Y-109860000D02*
X155250000Y-109860000D01*
X156900000Y-120140000D02*
X156900000Y-109860000D01*
X149110000Y-109800000D02*
X159390000Y-109800000D01*
X159390000Y-120200000D01*
X149110000Y-120200000D01*
X149110000Y-109800000D01*
X155250000Y-109860000D02*
G75*
G02*
X153250000Y-109860000I-1000000J0D01*
G01*
%TO.C,J2*%
X149890000Y-126110000D02*
X149890000Y-125000000D01*
X151000000Y-126110000D02*
X149890000Y-126110000D01*
X152000000Y-123890000D02*
X158110000Y-123890000D01*
X152000000Y-126110000D02*
X152000000Y-123890000D01*
X152000000Y-126110000D02*
X158110000Y-126110000D01*
X158110000Y-126110000D02*
X158110000Y-123890000D01*
%TO.C,R1*%
X115522936Y-121265000D02*
X115977064Y-121265000D01*
X115522936Y-122735000D02*
X115977064Y-122735000D01*
%TD*%
M02*
