%TF.GenerationSoftware,KiCad,Pcbnew,10.0.6*%
%TF.CreationDate,2026-10-01T22:33:46+07:00*%
%TF.ProjectId,opt101_receiver,6f707431-3031-45f7-9265-636569766572,rev?*%
%TF.SameCoordinates,Original*%
%TF.FileFunction,Copper,L2,Bot*%
%TF.FilePolarity,Positive*%
%FSLAX46Y46*%
G04 Gerber Fmt 4.6, Leading zero omitted, Abs format (unit mm)*
G04 Created by KiCad (PCBNEW 10.0.6) date 2026-10-01 22:33:46*
%MOMM*%
%LPD*%
G01*
G04 APERTURE LIST*
G04 Aperture macros list*
%AMRoundRect*
0 Rectangle with rounded corners*
0 $1 Rounding radius*
0 $2 $3 $4 $5 $6 $7 $8 $9 X,Y pos of 4 corners*
0 Add a 4 corners polygon primitive as box body*
4,1,4,$2,$3,$4,$5,$6,$7,$8,$9,$2,$3,0*
0 Add four circle primitives for the rounded corners*
1,1,$1+$1,$2,$3*
1,1,$1+$1,$4,$5*
1,1,$1+$1,$6,$7*
1,1,$1+$1,$8,$9*
0 Add four rect primitives between the rounded corners*
20,1,$1+$1,$2,$3,$4,$5,0*
20,1,$1+$1,$4,$5,$6,$7,0*
20,1,$1+$1,$6,$7,$8,$9,0*
20,1,$1+$1,$8,$9,$2,$3,0*%
G04 Aperture macros list end*
%TA.AperFunction,ComponentPad*%
%ADD10C,1.600000*%
%TD*%
%TA.AperFunction,ComponentPad*%
%ADD11R,1.350000X1.350000*%
%TD*%
%TA.AperFunction,ComponentPad*%
%ADD12C,1.350000*%
%TD*%
%TA.AperFunction,ComponentPad*%
%ADD13RoundRect,0.250000X-0.550000X-0.550000X0.550000X-0.550000X0.550000X0.550000X-0.550000X0.550000X0*%
%TD*%
%TA.AperFunction,ComponentPad*%
%ADD14R,1.700000X1.700000*%
%TD*%
%TA.AperFunction,ComponentPad*%
%ADD15C,1.700000*%
%TD*%
%TA.AperFunction,ViaPad*%
%ADD16C,0.800000*%
%TD*%
%TA.AperFunction,Conductor*%
%ADD17C,0.500000*%
%TD*%
G04 APERTURE END LIST*
D10*
%TO.P,C1,1*%
%TO.N,/3V3_RED*%
X111940000Y-107000000D03*
%TO.P,C1,2*%
%TO.N,/GND_RED*%
X114440000Y-107000000D03*
%TD*%
D11*
%TO.P,J2,1*%
%TO.N,/OUT_IR*%
X151000000Y-125000000D03*
D12*
%TO.P,J2,2*%
%TO.N,unconnected-(J2-UNUSED-Pad2)*%
X153000000Y-125000000D03*
%TO.P,J2,3*%
%TO.N,/3V3_IR*%
X155000000Y-125000000D03*
%TO.P,J2,4*%
%TO.N,/GND_IR*%
X157000000Y-125000000D03*
%TD*%
D13*
%TO.P,U1,1*%
%TO.N,/3V3_RED*%
X111940000Y-111190000D03*
D10*
%TO.P,U1,2*%
%TO.N,unconnected-(U1--IN-Pad2)*%
X111940000Y-113730000D03*
%TO.P,U1,3*%
%TO.N,/GND_RED*%
X111940000Y-116270000D03*
%TO.P,U1,4*%
%TO.N,/RAW_RED*%
X111940000Y-118810000D03*
%TO.P,U1,5*%
X119560000Y-118810000D03*
%TO.P,U1,6*%
%TO.N,unconnected-(U1-NC-Pad6)*%
X119560000Y-116270000D03*
%TO.P,U1,7*%
%TO.N,unconnected-(U1-NC-Pad7)*%
X119560000Y-113730000D03*
%TO.P,U1,8*%
%TO.N,/GND_RED*%
X119560000Y-111190000D03*
%TD*%
D11*
%TO.P,J1,1*%
%TO.N,/OUT_RED*%
X113000000Y-125000000D03*
D12*
%TO.P,J1,2*%
%TO.N,unconnected-(J1-UNUSED-Pad2)*%
X115000000Y-125000000D03*
%TO.P,J1,3*%
%TO.N,/3V3_RED*%
X117000000Y-125000000D03*
%TO.P,J1,4*%
%TO.N,/GND_RED*%
X119000000Y-125000000D03*
%TD*%
D10*
%TO.P,C2,1*%
%TO.N,/3V3_IR*%
X150440000Y-107000000D03*
%TO.P,C2,2*%
%TO.N,/GND_IR*%
X152940000Y-107000000D03*
%TD*%
D14*
%TO.P,J3,1*%
%TO.N,/OUT_RED*%
X126000000Y-125000000D03*
D15*
%TO.P,J3,2*%
%TO.N,/OUT_IR*%
X128540000Y-125000000D03*
%TD*%
D13*
%TO.P,U2,1*%
%TO.N,/3V3_IR*%
X150440000Y-111190000D03*
D10*
%TO.P,U2,2*%
%TO.N,unconnected-(U2--IN-Pad2)*%
X150440000Y-113730000D03*
%TO.P,U2,3*%
%TO.N,/GND_IR*%
X150440000Y-116270000D03*
%TO.P,U2,4*%
%TO.N,/RAW_IR*%
X150440000Y-118810000D03*
%TO.P,U2,5*%
X158060000Y-118810000D03*
%TO.P,U2,6*%
%TO.N,unconnected-(U2-NC-Pad6)*%
X158060000Y-116270000D03*
%TO.P,U2,7*%
%TO.N,unconnected-(U2-NC-Pad7)*%
X158060000Y-113730000D03*
%TO.P,U2,8*%
%TO.N,/GND_IR*%
X158060000Y-111190000D03*
%TD*%
D16*
%TO.N,/GND_IR*%
X163250000Y-122000000D03*
%TO.N,/GND_RED*%
X124750000Y-122000000D03*
%TD*%
%TO.N,/3V3_RED*%
D17*
X108500000Y-105000000D02*
X108500000Y-121000000D01*
X111940000Y-107000000D02*
X111940000Y-105000000D01*
X117000000Y-121000000D02*
X117000000Y-125000000D01*
X111940000Y-105000000D02*
X108500000Y-105000000D01*
X108500000Y-121000000D02*
X117000000Y-121000000D01*
%TO.N,/3V3_IR*%
X150440000Y-107000000D02*
X150440000Y-105000000D01*
X161500000Y-121000000D02*
X155000000Y-121000000D01*
X155000000Y-121000000D02*
X155000000Y-125000000D01*
X161500000Y-105000000D02*
X161500000Y-121000000D01*
X150440000Y-105000000D02*
X161500000Y-105000000D01*
%TD*%
%TA.AperFunction,Conductor*%
%TO.N,/GND_RED*%
G36*
X132943039Y-100619685D02*
G01*
X132988794Y-100672489D01*
X133000000Y-100724000D01*
X133000000Y-129276000D01*
X132980315Y-129343039D01*
X132927511Y-129388794D01*
X132876000Y-129400000D01*
X100724000Y-129400000D01*
X100656961Y-129380315D01*
X100611206Y-129327511D01*
X100600000Y-129276000D01*
X100600000Y-126353952D01*
X101899500Y-126353952D01*
X101899500Y-126646047D01*
X101932199Y-126936271D01*
X101932202Y-126936285D01*
X101997196Y-127221044D01*
X101997197Y-127221046D01*
X102093665Y-127496738D01*
X102220393Y-127759890D01*
X102220395Y-127759893D01*
X102375792Y-128007206D01*
X102557902Y-128235565D01*
X102764435Y-128442098D01*
X102992794Y-128624208D01*
X103240107Y-128779605D01*
X103503263Y-128906335D01*
X103778955Y-129002803D01*
X104063714Y-129067798D01*
X104063723Y-129067799D01*
X104063728Y-129067800D01*
X104257210Y-129089599D01*
X104353953Y-129100499D01*
X104353956Y-129100500D01*
X104353959Y-129100500D01*
X104646044Y-129100500D01*
X104646045Y-129100499D01*
X104794371Y-129083787D01*
X104936271Y-129067800D01*
X104936274Y-129067799D01*
X104936286Y-129067798D01*
X105221045Y-129002803D01*
X105496737Y-128906335D01*
X105759893Y-128779605D01*
X106007206Y-128624208D01*
X106235565Y-128442098D01*
X106442098Y-128235565D01*
X106624208Y-128007206D01*
X106779605Y-127759893D01*
X106906335Y-127496737D01*
X107002803Y-127221045D01*
X107067798Y-126936286D01*
X107100500Y-126646041D01*
X107100500Y-126353959D01*
X107077248Y-126147584D01*
X107067800Y-126063728D01*
X107067799Y-126063723D01*
X107067798Y-126063714D01*
X107002803Y-125778955D01*
X106906335Y-125503263D01*
X106779605Y-125240107D01*
X106624208Y-124992794D01*
X106442098Y-124764435D01*
X106235565Y-124557902D01*
X106007206Y-124375792D01*
X105759893Y-124220395D01*
X105759890Y-124220393D01*
X105496738Y-124093665D01*
X105221046Y-123997197D01*
X105221044Y-123997196D01*
X105001280Y-123947036D01*
X104936286Y-123932202D01*
X104936283Y-123932201D01*
X104936271Y-123932199D01*
X104646047Y-123899500D01*
X104646041Y-123899500D01*
X104353959Y-123899500D01*
X104353952Y-123899500D01*
X104063728Y-123932199D01*
X104063714Y-123932202D01*
X103778955Y-123997196D01*
X103778953Y-123997197D01*
X103503261Y-124093665D01*
X103240109Y-124220393D01*
X102992795Y-124375791D01*
X102764435Y-124557901D01*
X102557901Y-124764435D01*
X102375791Y-124992795D01*
X102220393Y-125240109D01*
X102093665Y-125503261D01*
X101997197Y-125778953D01*
X101997196Y-125778955D01*
X101932202Y-126063714D01*
X101932199Y-126063728D01*
X101899500Y-126353952D01*
X100600000Y-126353952D01*
X100600000Y-103353952D01*
X101899500Y-103353952D01*
X101899500Y-103646047D01*
X101932199Y-103936271D01*
X101932202Y-103936285D01*
X101997196Y-104221044D01*
X101997197Y-104221046D01*
X102093665Y-104496738D01*
X102220393Y-104759890D01*
X102237751Y-104787515D01*
X102375792Y-105007206D01*
X102557902Y-105235565D01*
X102764435Y-105442098D01*
X102992794Y-105624208D01*
X103240107Y-105779605D01*
X103503263Y-105906335D01*
X103778955Y-106002803D01*
X104063714Y-106067798D01*
X104063723Y-106067799D01*
X104063728Y-106067800D01*
X104257210Y-106089599D01*
X104353953Y-106100499D01*
X104353956Y-106100500D01*
X104353959Y-106100500D01*
X104646044Y-106100500D01*
X104646045Y-106100499D01*
X104794371Y-106083787D01*
X104936271Y-106067800D01*
X104936274Y-106067799D01*
X104936286Y-106067798D01*
X105221045Y-106002803D01*
X105496737Y-105906335D01*
X105759893Y-105779605D01*
X106007206Y-105624208D01*
X106235565Y-105442098D01*
X106442098Y-105235565D01*
X106624208Y-105007206D01*
X106674275Y-104927525D01*
X107949500Y-104927525D01*
X107949500Y-120927525D01*
X107949500Y-121072475D01*
X107987016Y-121212485D01*
X107987017Y-121212488D01*
X108059488Y-121338011D01*
X108059490Y-121338013D01*
X108059491Y-121338015D01*
X108161985Y-121440509D01*
X108161986Y-121440510D01*
X108161988Y-121440511D01*
X108287511Y-121512982D01*
X108287512Y-121512982D01*
X108287515Y-121512984D01*
X108427525Y-121550500D01*
X116325500Y-121550500D01*
X116392539Y-121570185D01*
X116438294Y-121622989D01*
X116449500Y-121674500D01*
X116449500Y-124128329D01*
X116429815Y-124195368D01*
X116394394Y-124231429D01*
X116378153Y-124242281D01*
X116378148Y-124242286D01*
X116242282Y-124378151D01*
X116242279Y-124378155D01*
X116135521Y-124537929D01*
X116114561Y-124588533D01*
X116070720Y-124642936D01*
X116004426Y-124665001D01*
X115936726Y-124647722D01*
X115889116Y-124596584D01*
X115885439Y-124588533D01*
X115864478Y-124537929D01*
X115833154Y-124491050D01*
X115757720Y-124378155D01*
X115757717Y-124378151D01*
X115621848Y-124242282D01*
X115621844Y-124242279D01*
X115462070Y-124135521D01*
X115462068Y-124135520D01*
X115284547Y-124061989D01*
X115284535Y-124061986D01*
X115096081Y-124024500D01*
X115096078Y-124024500D01*
X114903922Y-124024500D01*
X114903919Y-124024500D01*
X114715464Y-124061986D01*
X114715452Y-124061989D01*
X114537931Y-124135520D01*
X114537929Y-124135521D01*
X114378155Y-124242279D01*
X114378151Y-124242282D01*
X114242282Y-124378151D01*
X114242279Y-124378155D01*
X114202601Y-124437538D01*
X114148989Y-124482343D01*
X114079664Y-124491050D01*
X114016636Y-124460895D01*
X113979917Y-124401452D01*
X113975499Y-124368647D01*
X113975499Y-124280143D01*
X113975499Y-124280136D01*
X113975497Y-124280117D01*
X113972586Y-124255012D01*
X113972585Y-124255010D01*
X113972585Y-124255009D01*
X113927206Y-124152235D01*
X113847765Y-124072794D01*
X113823287Y-124061986D01*
X113744992Y-124027415D01*
X113719865Y-124024500D01*
X112280143Y-124024500D01*
X112280117Y-124024502D01*
X112255012Y-124027413D01*
X112255008Y-124027415D01*
X112152235Y-124072793D01*
X112072794Y-124152234D01*
X112027415Y-124255006D01*
X112027415Y-124255008D01*
X112024500Y-124280131D01*
X112024500Y-125719856D01*
X112024502Y-125719882D01*
X112027413Y-125744987D01*
X112027415Y-125744991D01*
X112072793Y-125847764D01*
X112072794Y-125847765D01*
X112152235Y-125927206D01*
X112255009Y-125972585D01*
X112280135Y-125975500D01*
X113719864Y-125975499D01*
X113719879Y-125975497D01*
X113719882Y-125975497D01*
X113744987Y-125972586D01*
X113744988Y-125972585D01*
X113744991Y-125972585D01*
X113847765Y-125927206D01*
X113927206Y-125847765D01*
X113972585Y-125744991D01*
X113975500Y-125719865D01*
X113975499Y-125631351D01*
X113995183Y-125564316D01*
X114047986Y-125518560D01*
X114117145Y-125508616D01*
X114180701Y-125537640D01*
X114202601Y-125562462D01*
X114242282Y-125621848D01*
X114378151Y-125757717D01*
X114378155Y-125757720D01*
X114537927Y-125864477D01*
X114537928Y-125864477D01*
X114537929Y-125864478D01*
X114537931Y-125864479D01*
X114715452Y-125938010D01*
X114715457Y-125938012D01*
X114901403Y-125974999D01*
X114903917Y-125975499D01*
X114903920Y-125975500D01*
X114903922Y-125975500D01*
X115096080Y-125975500D01*
X115096081Y-125975499D01*
X115284543Y-125938012D01*
X115462073Y-125864477D01*
X115621845Y-125757720D01*
X115757720Y-125621845D01*
X115864477Y-125462073D01*
X115885439Y-125411467D01*
X115929280Y-125357063D01*
X115995574Y-125334998D01*
X116063273Y-125352277D01*
X116110884Y-125403414D01*
X116114561Y-125411467D01*
X116135520Y-125462068D01*
X116135521Y-125462070D01*
X116242279Y-125621844D01*
X116242282Y-125621848D01*
X116378151Y-125757717D01*
X116378155Y-125757720D01*
X116537927Y-125864477D01*
X116537928Y-125864477D01*
X116537929Y-125864478D01*
X116537931Y-125864479D01*
X116715452Y-125938010D01*
X116715457Y-125938012D01*
X116901403Y-125974999D01*
X116903917Y-125975499D01*
X116903920Y-125975500D01*
X116903922Y-125975500D01*
X117096080Y-125975500D01*
X117096081Y-125975499D01*
X117284543Y-125938012D01*
X117462073Y-125864477D01*
X117621845Y-125757720D01*
X117634578Y-125744987D01*
X117697232Y-125682334D01*
X117757717Y-125621848D01*
X117757720Y-125621845D01*
X117864477Y-125462073D01*
X117885709Y-125410813D01*
X117929549Y-125356411D01*
X117995843Y-125334345D01*
X118063542Y-125351623D01*
X118111153Y-125402760D01*
X118114831Y-125410813D01*
X118135964Y-125461832D01*
X118135966Y-125461836D01*
X118183773Y-125533383D01*
X118613629Y-125103527D01*
X118627259Y-125154394D01*
X118679920Y-125245606D01*
X118754394Y-125320080D01*
X118845606Y-125372741D01*
X118896471Y-125386370D01*
X118466614Y-125816226D01*
X118538166Y-125864035D01*
X118715602Y-125937531D01*
X118715610Y-125937533D01*
X118903966Y-125974999D01*
X118903970Y-125975000D01*
X119096030Y-125975000D01*
X119096033Y-125974999D01*
X119284389Y-125937533D01*
X119284397Y-125937531D01*
X119461834Y-125864034D01*
X119461840Y-125864031D01*
X119533384Y-125816226D01*
X119533384Y-125816225D01*
X119103529Y-125386370D01*
X119154394Y-125372741D01*
X119245606Y-125320080D01*
X119320080Y-125245606D01*
X119372741Y-125154394D01*
X119386370Y-125103528D01*
X119816226Y-125533384D01*
X119864031Y-125461840D01*
X119864034Y-125461834D01*
X119937531Y-125284397D01*
X119937533Y-125284389D01*
X119974999Y-125096033D01*
X119975000Y-125096030D01*
X119975000Y-124903970D01*
X119974999Y-124903966D01*
X119937533Y-124715610D01*
X119937531Y-124715602D01*
X119864035Y-124538166D01*
X119816226Y-124466614D01*
X119386370Y-124896470D01*
X119372741Y-124845606D01*
X119320080Y-124754394D01*
X119245606Y-124679920D01*
X119154394Y-124627259D01*
X119103528Y-124613629D01*
X119533383Y-124183773D01*
X119461836Y-124135966D01*
X119461833Y-124135964D01*
X119387395Y-124105131D01*
X124849500Y-124105131D01*
X124849500Y-125894856D01*
X124849502Y-125894882D01*
X124852413Y-125919987D01*
X124852415Y-125919991D01*
X124897793Y-126022764D01*
X124897794Y-126022765D01*
X124977235Y-126102206D01*
X125080009Y-126147585D01*
X125105135Y-126150500D01*
X126894864Y-126150499D01*
X126894879Y-126150497D01*
X126894882Y-126150497D01*
X126919987Y-126147586D01*
X126919988Y-126147585D01*
X126919991Y-126147585D01*
X127022765Y-126102206D01*
X127102206Y-126022765D01*
X127147585Y-125919991D01*
X127150500Y-125894865D01*
X127150499Y-125157125D01*
X127170183Y-125090089D01*
X127222987Y-125044334D01*
X127292146Y-125034390D01*
X127355702Y-125063415D01*
X127393476Y-125122193D01*
X127396972Y-125137729D01*
X127417829Y-125269410D01*
X127473787Y-125441636D01*
X127473788Y-125441639D01*
X127512982Y-125518560D01*
X127536296Y-125564316D01*
X127556006Y-125602997D01*
X127662441Y-125749494D01*
X127662445Y-125749499D01*
X127790500Y-125877554D01*
X127790505Y-125877558D01*
X127873052Y-125937531D01*
X127937006Y-125983996D01*
X128013094Y-126022765D01*
X128098360Y-126066211D01*
X128098363Y-126066212D01*
X128184476Y-126094191D01*
X128270591Y-126122171D01*
X128353429Y-126135291D01*
X128449449Y-126150500D01*
X128449454Y-126150500D01*
X128630551Y-126150500D01*
X128717259Y-126136765D01*
X128809409Y-126122171D01*
X128981639Y-126066211D01*
X129142994Y-125983996D01*
X129289501Y-125877553D01*
X129417553Y-125749501D01*
X129523996Y-125602994D01*
X129606211Y-125441639D01*
X129662171Y-125269409D01*
X129676765Y-125177259D01*
X129690500Y-125090551D01*
X129690500Y-124909448D01*
X129665941Y-124754394D01*
X129662171Y-124730591D01*
X129616226Y-124589185D01*
X129606212Y-124558363D01*
X129606211Y-124558360D01*
X129571914Y-124491050D01*
X129523996Y-124397006D01*
X129439091Y-124280143D01*
X129417558Y-124250505D01*
X129417554Y-124250500D01*
X129289499Y-124122445D01*
X129289494Y-124122441D01*
X129142997Y-124016006D01*
X129142996Y-124016005D01*
X129142994Y-124016004D01*
X129066906Y-123977235D01*
X128981639Y-123933788D01*
X128981636Y-123933787D01*
X128809410Y-123877829D01*
X128630551Y-123849500D01*
X128630546Y-123849500D01*
X128449454Y-123849500D01*
X128449449Y-123849500D01*
X128270589Y-123877829D01*
X128098363Y-123933787D01*
X128098360Y-123933788D01*
X127937002Y-124016006D01*
X127790505Y-124122441D01*
X127790500Y-124122445D01*
X127662445Y-124250500D01*
X127662441Y-124250505D01*
X127556006Y-124397002D01*
X127473788Y-124558360D01*
X127473787Y-124558363D01*
X127417829Y-124730589D01*
X127396972Y-124862271D01*
X127367042Y-124925405D01*
X127307731Y-124962336D01*
X127237868Y-124961338D01*
X127179636Y-124922728D01*
X127151522Y-124858764D01*
X127150499Y-124842872D01*
X127150499Y-124105143D01*
X127150499Y-124105136D01*
X127149169Y-124093665D01*
X127147586Y-124080012D01*
X127147585Y-124080010D01*
X127147585Y-124080009D01*
X127102206Y-123977235D01*
X127022765Y-123897794D01*
X127022763Y-123897793D01*
X126919992Y-123852415D01*
X126894865Y-123849500D01*
X125105143Y-123849500D01*
X125105117Y-123849502D01*
X125080012Y-123852413D01*
X125080008Y-123852415D01*
X124977235Y-123897793D01*
X124897794Y-123977234D01*
X124852415Y-124080006D01*
X124852415Y-124080008D01*
X124849500Y-124105131D01*
X119387395Y-124105131D01*
X119284397Y-124062468D01*
X119284389Y-124062466D01*
X119096033Y-124025000D01*
X118903966Y-124025000D01*
X118715610Y-124062466D01*
X118715602Y-124062468D01*
X118538165Y-124135965D01*
X118466615Y-124183773D01*
X118466614Y-124183773D01*
X118896471Y-124613629D01*
X118845606Y-124627259D01*
X118754394Y-124679920D01*
X118679920Y-124754394D01*
X118627259Y-124845606D01*
X118613629Y-124896470D01*
X118183773Y-124466614D01*
X118183773Y-124466615D01*
X118135963Y-124538168D01*
X118114830Y-124589187D01*
X118070989Y-124643590D01*
X118004694Y-124665654D01*
X117936995Y-124648374D01*
X117889385Y-124597236D01*
X117885709Y-124589185D01*
X117864479Y-124537931D01*
X117864478Y-124537929D01*
X117833154Y-124491050D01*
X117757720Y-124378155D01*
X117757717Y-124378151D01*
X117699044Y-124319478D01*
X117699031Y-124319466D01*
X117621845Y-124242280D01*
X117597599Y-124226079D01*
X117590511Y-124219553D01*
X117577277Y-124197530D01*
X117560802Y-124177815D01*
X117558348Y-124166028D01*
X117554524Y-124159664D01*
X117554840Y-124149176D01*
X117550500Y-124128329D01*
X117550500Y-120927527D01*
X117550500Y-120927525D01*
X117512984Y-120787515D01*
X117440509Y-120661985D01*
X117338015Y-120559491D01*
X117338013Y-120559490D01*
X117338011Y-120559488D01*
X117212488Y-120487017D01*
X117212489Y-120487017D01*
X117201006Y-120483940D01*
X117072475Y-120449500D01*
X117072472Y-120449500D01*
X109174500Y-120449500D01*
X109107461Y-120429815D01*
X109061706Y-120377011D01*
X109050500Y-120325500D01*
X109050500Y-118723389D01*
X110839500Y-118723389D01*
X110839500Y-118896611D01*
X110866598Y-119067701D01*
X110920127Y-119232445D01*
X110998768Y-119386788D01*
X111100586Y-119526928D01*
X111223072Y-119649414D01*
X111363212Y-119751232D01*
X111517555Y-119829873D01*
X111682299Y-119883402D01*
X111853389Y-119910500D01*
X111853390Y-119910500D01*
X112026610Y-119910500D01*
X112026611Y-119910500D01*
X112197701Y-119883402D01*
X112362445Y-119829873D01*
X112516788Y-119751232D01*
X112656928Y-119649414D01*
X112779414Y-119526928D01*
X112881232Y-119386788D01*
X112959873Y-119232445D01*
X113013402Y-119067701D01*
X113040500Y-118896611D01*
X113040500Y-118723389D01*
X118459500Y-118723389D01*
X118459500Y-118896611D01*
X118486598Y-119067701D01*
X118540127Y-119232445D01*
X118618768Y-119386788D01*
X118720586Y-119526928D01*
X118843072Y-119649414D01*
X118983212Y-119751232D01*
X119137555Y-119829873D01*
X119302299Y-119883402D01*
X119473389Y-119910500D01*
X119473390Y-119910500D01*
X119646610Y-119910500D01*
X119646611Y-119910500D01*
X119817701Y-119883402D01*
X119982445Y-119829873D01*
X120136788Y-119751232D01*
X120276928Y-119649414D01*
X120399414Y-119526928D01*
X120501232Y-119386788D01*
X120579873Y-119232445D01*
X120633402Y-119067701D01*
X120660500Y-118896611D01*
X120660500Y-118723389D01*
X120633402Y-118552299D01*
X120579873Y-118387555D01*
X120501232Y-118233212D01*
X120399414Y-118093072D01*
X120276928Y-117970586D01*
X120136788Y-117868768D01*
X119982445Y-117790127D01*
X119817701Y-117736598D01*
X119817699Y-117736597D01*
X119817698Y-117736597D01*
X119686271Y-117715781D01*
X119646611Y-117709500D01*
X119473389Y-117709500D01*
X119433728Y-117715781D01*
X119302302Y-117736597D01*
X119137552Y-117790128D01*
X118983211Y-117868768D01*
X118903256Y-117926859D01*
X118843072Y-117970586D01*
X118843070Y-117970588D01*
X118843069Y-117970588D01*
X118720588Y-118093069D01*
X118720588Y-118093070D01*
X118720586Y-118093072D01*
X118676859Y-118153256D01*
X118618768Y-118233211D01*
X118540128Y-118387552D01*
X118486597Y-118552302D01*
X118459500Y-118723389D01*
X113040500Y-118723389D01*
X113013402Y-118552299D01*
X112959873Y-118387555D01*
X112881232Y-118233212D01*
X112779414Y-118093072D01*
X112656928Y-117970586D01*
X112516788Y-117868768D01*
X112362445Y-117790127D01*
X112197701Y-117736598D01*
X112197699Y-117736597D01*
X112197698Y-117736597D01*
X112066271Y-117715781D01*
X112026611Y-117709500D01*
X111853389Y-117709500D01*
X111813728Y-117715781D01*
X111682302Y-117736597D01*
X111517552Y-117790128D01*
X111363211Y-117868768D01*
X111283256Y-117926859D01*
X111223072Y-117970586D01*
X111223070Y-117970588D01*
X111223069Y-117970588D01*
X111100588Y-118093069D01*
X111100588Y-118093070D01*
X111100586Y-118093072D01*
X111056859Y-118153256D01*
X110998768Y-118233211D01*
X110920128Y-118387552D01*
X110866597Y-118552302D01*
X110839500Y-118723389D01*
X109050500Y-118723389D01*
X109050500Y-116183428D01*
X110840000Y-116183428D01*
X110840000Y-116356571D01*
X110867085Y-116527584D01*
X110920591Y-116692257D01*
X110999195Y-116846523D01*
X110999196Y-116846525D01*
X111033463Y-116893691D01*
X111033464Y-116893691D01*
X111553629Y-116373527D01*
X111567259Y-116424394D01*
X111619920Y-116515606D01*
X111694394Y-116590080D01*
X111785606Y-116642741D01*
X111836471Y-116656370D01*
X111316307Y-117176534D01*
X111363478Y-117210805D01*
X111517742Y-117289408D01*
X111682415Y-117342914D01*
X111853429Y-117370000D01*
X112026571Y-117370000D01*
X112197584Y-117342914D01*
X112362257Y-117289408D01*
X112516525Y-117210803D01*
X112563691Y-117176534D01*
X112563692Y-117176533D01*
X112043529Y-116656370D01*
X112094394Y-116642741D01*
X112185606Y-116590080D01*
X112260080Y-116515606D01*
X112312741Y-116424394D01*
X112326370Y-116373528D01*
X112846533Y-116893692D01*
X112846534Y-116893691D01*
X112880803Y-116846525D01*
X112959408Y-116692257D01*
X113012914Y-116527584D01*
X113040000Y-116356571D01*
X113040000Y-116183428D01*
X113039994Y-116183389D01*
X118459500Y-116183389D01*
X118459500Y-116356611D01*
X118486598Y-116527701D01*
X118540127Y-116692445D01*
X118618768Y-116846788D01*
X118720586Y-116986928D01*
X118843072Y-117109414D01*
X118983212Y-117211232D01*
X119137555Y-117289873D01*
X119302299Y-117343402D01*
X119473389Y-117370500D01*
X119473390Y-117370500D01*
X119646610Y-117370500D01*
X119646611Y-117370500D01*
X119817701Y-117343402D01*
X119982445Y-117289873D01*
X120136788Y-117211232D01*
X120276928Y-117109414D01*
X120399414Y-116986928D01*
X120501232Y-116846788D01*
X120579873Y-116692445D01*
X120633402Y-116527701D01*
X120660500Y-116356611D01*
X120660500Y-116183389D01*
X120633402Y-116012299D01*
X120579873Y-115847555D01*
X120501232Y-115693212D01*
X120399414Y-115553072D01*
X120276928Y-115430586D01*
X120136788Y-115328768D01*
X119982445Y-115250127D01*
X119817701Y-115196598D01*
X119817699Y-115196597D01*
X119817698Y-115196597D01*
X119686271Y-115175781D01*
X119646611Y-115169500D01*
X119473389Y-115169500D01*
X119433728Y-115175781D01*
X119302302Y-115196597D01*
X119137552Y-115250128D01*
X118983211Y-115328768D01*
X118935457Y-115363464D01*
X118843072Y-115430586D01*
X118843070Y-115430588D01*
X118843069Y-115430588D01*
X118720588Y-115553069D01*
X118720588Y-115553070D01*
X118720586Y-115553072D01*
X118676859Y-115613256D01*
X118618768Y-115693211D01*
X118540128Y-115847552D01*
X118486597Y-116012302D01*
X118484682Y-116024394D01*
X118459500Y-116183389D01*
X113039994Y-116183389D01*
X113012914Y-116012415D01*
X112959408Y-115847742D01*
X112880805Y-115693478D01*
X112846534Y-115646307D01*
X112326370Y-116166471D01*
X112312741Y-116115606D01*
X112260080Y-116024394D01*
X112185606Y-115949920D01*
X112094394Y-115897259D01*
X112043527Y-115883629D01*
X112563691Y-115363464D01*
X112563691Y-115363463D01*
X112516525Y-115329196D01*
X112516523Y-115329195D01*
X112362257Y-115250591D01*
X112197584Y-115197085D01*
X112026571Y-115170000D01*
X111853429Y-115170000D01*
X111682415Y-115197085D01*
X111517740Y-115250592D01*
X111363475Y-115329196D01*
X111316307Y-115363463D01*
X111316307Y-115363464D01*
X111836472Y-115883629D01*
X111785606Y-115897259D01*
X111694394Y-115949920D01*
X111619920Y-116024394D01*
X111567259Y-116115606D01*
X111553629Y-116166472D01*
X111033464Y-115646307D01*
X111033463Y-115646307D01*
X110999196Y-115693475D01*
X110920592Y-115847740D01*
X110867085Y-116012415D01*
X110840000Y-116183428D01*
X109050500Y-116183428D01*
X109050500Y-113643389D01*
X110839500Y-113643389D01*
X110839500Y-113816611D01*
X110866598Y-113987701D01*
X110920127Y-114152445D01*
X110998768Y-114306788D01*
X111100586Y-114446928D01*
X111223072Y-114569414D01*
X111363212Y-114671232D01*
X111517555Y-114749873D01*
X111682299Y-114803402D01*
X111853389Y-114830500D01*
X111853390Y-114830500D01*
X112026610Y-114830500D01*
X112026611Y-114830500D01*
X112197701Y-114803402D01*
X112362445Y-114749873D01*
X112516788Y-114671232D01*
X112656928Y-114569414D01*
X112779414Y-114446928D01*
X112881232Y-114306788D01*
X112959873Y-114152445D01*
X113013402Y-113987701D01*
X113040500Y-113816611D01*
X113040500Y-113643389D01*
X118459500Y-113643389D01*
X118459500Y-113816611D01*
X118486598Y-113987701D01*
X118540127Y-114152445D01*
X118618768Y-114306788D01*
X118720586Y-114446928D01*
X118843072Y-114569414D01*
X118983212Y-114671232D01*
X119137555Y-114749873D01*
X119302299Y-114803402D01*
X119473389Y-114830500D01*
X119473390Y-114830500D01*
X119646610Y-114830500D01*
X119646611Y-114830500D01*
X119817701Y-114803402D01*
X119982445Y-114749873D01*
X120136788Y-114671232D01*
X120276928Y-114569414D01*
X120399414Y-114446928D01*
X120501232Y-114306788D01*
X120579873Y-114152445D01*
X120633402Y-113987701D01*
X120660500Y-113816611D01*
X120660500Y-113643389D01*
X120633402Y-113472299D01*
X120579873Y-113307555D01*
X120501232Y-113153212D01*
X120399414Y-113013072D01*
X120276928Y-112890586D01*
X120136788Y-112788768D01*
X119982445Y-112710127D01*
X119817701Y-112656598D01*
X119817699Y-112656597D01*
X119817698Y-112656597D01*
X119686271Y-112635781D01*
X119646611Y-112629500D01*
X119473389Y-112629500D01*
X119433728Y-112635781D01*
X119302302Y-112656597D01*
X119137552Y-112710128D01*
X118983211Y-112788768D01*
X118903256Y-112846859D01*
X118843072Y-112890586D01*
X118843070Y-112890588D01*
X118843069Y-112890588D01*
X118720588Y-113013069D01*
X118720588Y-113013070D01*
X118720586Y-113013072D01*
X118676859Y-113073256D01*
X118618768Y-113153211D01*
X118540128Y-113307552D01*
X118486597Y-113472302D01*
X118459500Y-113643389D01*
X113040500Y-113643389D01*
X113013402Y-113472299D01*
X112959873Y-113307555D01*
X112881232Y-113153212D01*
X112779414Y-113013072D01*
X112656928Y-112890586D01*
X112516788Y-112788768D01*
X112362445Y-112710127D01*
X112197701Y-112656598D01*
X112197699Y-112656597D01*
X112197698Y-112656597D01*
X112066271Y-112635781D01*
X112026611Y-112629500D01*
X111853389Y-112629500D01*
X111813728Y-112635781D01*
X111682302Y-112656597D01*
X111517552Y-112710128D01*
X111363211Y-112788768D01*
X111283256Y-112846859D01*
X111223072Y-112890586D01*
X111223070Y-112890588D01*
X111223069Y-112890588D01*
X111100588Y-113013069D01*
X111100588Y-113013070D01*
X111100586Y-113013072D01*
X111056859Y-113073256D01*
X110998768Y-113153211D01*
X110920128Y-113307552D01*
X110866597Y-113472302D01*
X110839500Y-113643389D01*
X109050500Y-113643389D01*
X109050500Y-110596898D01*
X110839500Y-110596898D01*
X110839500Y-111783102D01*
X110845126Y-111829954D01*
X110850122Y-111871561D01*
X110905639Y-112012343D01*
X110997077Y-112132922D01*
X111117656Y-112224360D01*
X111117657Y-112224360D01*
X111117658Y-112224361D01*
X111258436Y-112279877D01*
X111346898Y-112290500D01*
X111346903Y-112290500D01*
X112533097Y-112290500D01*
X112533102Y-112290500D01*
X112621564Y-112279877D01*
X112762342Y-112224361D01*
X112882922Y-112132922D01*
X112974361Y-112012342D01*
X113029877Y-111871564D01*
X113040500Y-111783102D01*
X113040500Y-111103428D01*
X118460000Y-111103428D01*
X118460000Y-111276571D01*
X118487085Y-111447584D01*
X118540591Y-111612257D01*
X118619195Y-111766523D01*
X118619196Y-111766525D01*
X118653463Y-111813691D01*
X118653464Y-111813691D01*
X119173629Y-111293527D01*
X119187259Y-111344394D01*
X119239920Y-111435606D01*
X119314394Y-111510080D01*
X119405606Y-111562741D01*
X119456471Y-111576370D01*
X118936307Y-112096534D01*
X118983478Y-112130805D01*
X119137742Y-112209408D01*
X119302415Y-112262914D01*
X119473429Y-112290000D01*
X119646571Y-112290000D01*
X119817584Y-112262914D01*
X119982257Y-112209408D01*
X120136525Y-112130803D01*
X120183691Y-112096534D01*
X120183692Y-112096533D01*
X119663529Y-111576370D01*
X119714394Y-111562741D01*
X119805606Y-111510080D01*
X119880080Y-111435606D01*
X119932741Y-111344394D01*
X119946370Y-111293528D01*
X120466533Y-111813692D01*
X120466534Y-111813691D01*
X120500803Y-111766525D01*
X120579408Y-111612257D01*
X120632914Y-111447584D01*
X120660000Y-111276571D01*
X120660000Y-111103428D01*
X120632914Y-110932415D01*
X120579408Y-110767742D01*
X120500805Y-110613478D01*
X120466534Y-110566307D01*
X119946370Y-111086471D01*
X119932741Y-111035606D01*
X119880080Y-110944394D01*
X119805606Y-110869920D01*
X119714394Y-110817259D01*
X119663527Y-110803629D01*
X120183691Y-110283464D01*
X120183691Y-110283463D01*
X120136525Y-110249196D01*
X120136523Y-110249195D01*
X119982257Y-110170591D01*
X119817584Y-110117085D01*
X119646571Y-110090000D01*
X119473429Y-110090000D01*
X119302415Y-110117085D01*
X119137740Y-110170592D01*
X118983475Y-110249196D01*
X118936307Y-110283463D01*
X118936307Y-110283464D01*
X119456472Y-110803629D01*
X119405606Y-110817259D01*
X119314394Y-110869920D01*
X119239920Y-110944394D01*
X119187259Y-111035606D01*
X119173629Y-111086472D01*
X118653464Y-110566307D01*
X118653463Y-110566307D01*
X118619196Y-110613475D01*
X118540592Y-110767740D01*
X118487085Y-110932415D01*
X118460000Y-111103428D01*
X113040500Y-111103428D01*
X113040500Y-110596898D01*
X113029877Y-110508436D01*
X112974361Y-110367658D01*
X112974360Y-110367657D01*
X112974360Y-110367656D01*
X112882922Y-110247077D01*
X112762343Y-110155639D01*
X112621561Y-110100122D01*
X112575926Y-110094642D01*
X112533102Y-110089500D01*
X111346898Y-110089500D01*
X111307853Y-110094188D01*
X111258438Y-110100122D01*
X111117656Y-110155639D01*
X110997077Y-110247077D01*
X110905639Y-110367656D01*
X110850122Y-110508438D01*
X110844188Y-110557853D01*
X110839500Y-110596898D01*
X109050500Y-110596898D01*
X109050500Y-105674500D01*
X109070185Y-105607461D01*
X109122989Y-105561706D01*
X109174500Y-105550500D01*
X111265500Y-105550500D01*
X111332539Y-105570185D01*
X111378294Y-105622989D01*
X111389500Y-105674500D01*
X111389500Y-105976488D01*
X111369815Y-106043527D01*
X111338385Y-106076806D01*
X111223075Y-106160583D01*
X111223069Y-106160588D01*
X111100588Y-106283069D01*
X111100588Y-106283070D01*
X111100586Y-106283072D01*
X111056859Y-106343256D01*
X110998768Y-106423211D01*
X110920128Y-106577552D01*
X110866597Y-106742302D01*
X110864682Y-106754394D01*
X110839500Y-106913389D01*
X110839500Y-107086611D01*
X110866598Y-107257701D01*
X110920127Y-107422445D01*
X110998768Y-107576788D01*
X111100586Y-107716928D01*
X111223072Y-107839414D01*
X111363212Y-107941232D01*
X111517555Y-108019873D01*
X111682299Y-108073402D01*
X111853389Y-108100500D01*
X111853390Y-108100500D01*
X112026610Y-108100500D01*
X112026611Y-108100500D01*
X112197701Y-108073402D01*
X112362445Y-108019873D01*
X112516788Y-107941232D01*
X112656928Y-107839414D01*
X112779414Y-107716928D01*
X112881232Y-107576788D01*
X112959873Y-107422445D01*
X113013402Y-107257701D01*
X113040500Y-107086611D01*
X113040500Y-106913428D01*
X113340000Y-106913428D01*
X113340000Y-107086571D01*
X113367085Y-107257584D01*
X113420591Y-107422257D01*
X113499195Y-107576523D01*
X113499196Y-107576525D01*
X113533463Y-107623691D01*
X113533464Y-107623691D01*
X114053629Y-107103527D01*
X114067259Y-107154394D01*
X114119920Y-107245606D01*
X114194394Y-107320080D01*
X114285606Y-107372741D01*
X114336471Y-107386370D01*
X113816307Y-107906534D01*
X113863478Y-107940805D01*
X114017742Y-108019408D01*
X114182415Y-108072914D01*
X114353429Y-108100000D01*
X114526571Y-108100000D01*
X114697584Y-108072914D01*
X114862257Y-108019408D01*
X115016525Y-107940803D01*
X115063691Y-107906534D01*
X115063692Y-107906533D01*
X114543529Y-107386370D01*
X114594394Y-107372741D01*
X114685606Y-107320080D01*
X114760080Y-107245606D01*
X114812741Y-107154394D01*
X114826370Y-107103528D01*
X115346533Y-107623692D01*
X115346534Y-107623691D01*
X115380803Y-107576525D01*
X115459408Y-107422257D01*
X115512914Y-107257584D01*
X115540000Y-107086571D01*
X115540000Y-106913428D01*
X115512914Y-106742415D01*
X115459408Y-106577742D01*
X115380805Y-106423478D01*
X115346534Y-106376307D01*
X114826370Y-106896471D01*
X114812741Y-106845606D01*
X114760080Y-106754394D01*
X114685606Y-106679920D01*
X114594394Y-106627259D01*
X114543527Y-106613629D01*
X115063691Y-106093464D01*
X115063691Y-106093463D01*
X115016525Y-106059196D01*
X115016523Y-106059195D01*
X114862257Y-105980591D01*
X114697584Y-105927085D01*
X114526571Y-105900000D01*
X114353429Y-105900000D01*
X114182415Y-105927085D01*
X114017740Y-105980592D01*
X113863475Y-106059196D01*
X113816307Y-106093463D01*
X113816307Y-106093464D01*
X114336472Y-106613629D01*
X114285606Y-106627259D01*
X114194394Y-106679920D01*
X114119920Y-106754394D01*
X114067259Y-106845606D01*
X114053629Y-106896472D01*
X113533464Y-106376307D01*
X113533463Y-106376307D01*
X113499196Y-106423475D01*
X113420592Y-106577740D01*
X113367085Y-106742415D01*
X113340000Y-106913428D01*
X113040500Y-106913428D01*
X113040500Y-106913389D01*
X113013402Y-106742299D01*
X112959873Y-106577555D01*
X112881232Y-106423212D01*
X112779414Y-106283072D01*
X112656928Y-106160586D01*
X112541614Y-106076805D01*
X112498949Y-106021476D01*
X112490500Y-105976488D01*
X112490500Y-104927527D01*
X112490500Y-104927525D01*
X112452984Y-104787515D01*
X112437036Y-104759893D01*
X112380511Y-104661988D01*
X112380506Y-104661982D01*
X112278017Y-104559493D01*
X112278011Y-104559488D01*
X112152488Y-104487017D01*
X112152489Y-104487017D01*
X112141006Y-104483940D01*
X112012475Y-104449500D01*
X108572475Y-104449500D01*
X108427525Y-104449500D01*
X108298993Y-104483940D01*
X108287511Y-104487017D01*
X108161988Y-104559488D01*
X108161982Y-104559493D01*
X108059493Y-104661982D01*
X108059488Y-104661988D01*
X107987017Y-104787511D01*
X107987016Y-104787515D01*
X107949500Y-104927525D01*
X106674275Y-104927525D01*
X106779605Y-104759893D01*
X106906335Y-104496737D01*
X107002803Y-104221045D01*
X107067798Y-103936286D01*
X107100500Y-103646041D01*
X107100500Y-103353959D01*
X107067798Y-103063714D01*
X107002803Y-102778955D01*
X106906335Y-102503263D01*
X106779605Y-102240107D01*
X106624208Y-101992794D01*
X106442098Y-101764435D01*
X106235565Y-101557902D01*
X106007206Y-101375792D01*
X105759893Y-101220395D01*
X105759890Y-101220393D01*
X105496738Y-101093665D01*
X105221046Y-100997197D01*
X105221044Y-100997196D01*
X105001280Y-100947036D01*
X104936286Y-100932202D01*
X104936283Y-100932201D01*
X104936271Y-100932199D01*
X104646047Y-100899500D01*
X104646041Y-100899500D01*
X104353959Y-100899500D01*
X104353952Y-100899500D01*
X104063728Y-100932199D01*
X104063714Y-100932202D01*
X103778955Y-100997196D01*
X103778953Y-100997197D01*
X103503261Y-101093665D01*
X103240109Y-101220393D01*
X102992795Y-101375791D01*
X102764435Y-101557901D01*
X102557901Y-101764435D01*
X102375791Y-101992795D01*
X102220393Y-102240109D01*
X102093665Y-102503261D01*
X101997197Y-102778953D01*
X101997196Y-102778955D01*
X101932202Y-103063714D01*
X101932199Y-103063728D01*
X101899500Y-103353952D01*
X100600000Y-103353952D01*
X100600000Y-100724000D01*
X100619685Y-100656961D01*
X100672489Y-100611206D01*
X100724000Y-100600000D01*
X132876000Y-100600000D01*
X132943039Y-100619685D01*
G37*
%TD.AperFunction*%
%TD*%
%TA.AperFunction,Conductor*%
%TO.N,/GND_IR*%
G36*
X169343039Y-100619685D02*
G01*
X169388794Y-100672489D01*
X169400000Y-100724000D01*
X169400000Y-129276000D01*
X169380315Y-129343039D01*
X169327511Y-129388794D01*
X169276000Y-129400000D01*
X137124000Y-129400000D01*
X137056961Y-129380315D01*
X137011206Y-129327511D01*
X137000000Y-129276000D01*
X137000000Y-126353952D01*
X162899500Y-126353952D01*
X162899500Y-126646047D01*
X162932199Y-126936271D01*
X162932202Y-126936285D01*
X162997196Y-127221044D01*
X162997197Y-127221046D01*
X163093665Y-127496738D01*
X163220393Y-127759890D01*
X163220395Y-127759893D01*
X163375792Y-128007206D01*
X163557902Y-128235565D01*
X163764435Y-128442098D01*
X163992794Y-128624208D01*
X164240107Y-128779605D01*
X164503263Y-128906335D01*
X164778955Y-129002803D01*
X165063714Y-129067798D01*
X165063723Y-129067799D01*
X165063728Y-129067800D01*
X165257210Y-129089599D01*
X165353953Y-129100499D01*
X165353956Y-129100500D01*
X165353959Y-129100500D01*
X165646044Y-129100500D01*
X165646045Y-129100499D01*
X165794371Y-129083787D01*
X165936271Y-129067800D01*
X165936274Y-129067799D01*
X165936286Y-129067798D01*
X166221045Y-129002803D01*
X166496737Y-128906335D01*
X166759893Y-128779605D01*
X167007206Y-128624208D01*
X167235565Y-128442098D01*
X167442098Y-128235565D01*
X167624208Y-128007206D01*
X167779605Y-127759893D01*
X167906335Y-127496737D01*
X168002803Y-127221045D01*
X168067798Y-126936286D01*
X168100500Y-126646041D01*
X168100500Y-126353959D01*
X168067798Y-126063714D01*
X168002803Y-125778955D01*
X167906335Y-125503263D01*
X167779605Y-125240107D01*
X167624208Y-124992794D01*
X167442098Y-124764435D01*
X167235565Y-124557902D01*
X167007206Y-124375792D01*
X166759893Y-124220395D01*
X166759890Y-124220393D01*
X166496738Y-124093665D01*
X166221046Y-123997197D01*
X166221044Y-123997196D01*
X166001280Y-123947036D01*
X165936286Y-123932202D01*
X165936283Y-123932201D01*
X165936271Y-123932199D01*
X165646047Y-123899500D01*
X165646041Y-123899500D01*
X165353959Y-123899500D01*
X165353952Y-123899500D01*
X165063728Y-123932199D01*
X165063714Y-123932202D01*
X164778955Y-123997196D01*
X164778953Y-123997197D01*
X164503261Y-124093665D01*
X164240109Y-124220393D01*
X163992795Y-124375791D01*
X163764435Y-124557901D01*
X163557901Y-124764435D01*
X163375791Y-124992795D01*
X163220393Y-125240109D01*
X163093665Y-125503261D01*
X162997197Y-125778953D01*
X162997196Y-125778955D01*
X162932202Y-126063714D01*
X162932199Y-126063728D01*
X162899500Y-126353952D01*
X137000000Y-126353952D01*
X137000000Y-118723389D01*
X149339500Y-118723389D01*
X149339500Y-118896611D01*
X149366598Y-119067701D01*
X149420127Y-119232445D01*
X149498768Y-119386788D01*
X149600586Y-119526928D01*
X149723072Y-119649414D01*
X149863212Y-119751232D01*
X150017555Y-119829873D01*
X150182299Y-119883402D01*
X150353389Y-119910500D01*
X150353390Y-119910500D01*
X150526610Y-119910500D01*
X150526611Y-119910500D01*
X150697701Y-119883402D01*
X150862445Y-119829873D01*
X151016788Y-119751232D01*
X151156928Y-119649414D01*
X151279414Y-119526928D01*
X151381232Y-119386788D01*
X151459873Y-119232445D01*
X151513402Y-119067701D01*
X151540500Y-118896611D01*
X151540500Y-118723389D01*
X156959500Y-118723389D01*
X156959500Y-118896611D01*
X156986598Y-119067701D01*
X157040127Y-119232445D01*
X157118768Y-119386788D01*
X157220586Y-119526928D01*
X157343072Y-119649414D01*
X157483212Y-119751232D01*
X157637555Y-119829873D01*
X157802299Y-119883402D01*
X157973389Y-119910500D01*
X157973390Y-119910500D01*
X158146610Y-119910500D01*
X158146611Y-119910500D01*
X158317701Y-119883402D01*
X158482445Y-119829873D01*
X158636788Y-119751232D01*
X158776928Y-119649414D01*
X158899414Y-119526928D01*
X159001232Y-119386788D01*
X159079873Y-119232445D01*
X159133402Y-119067701D01*
X159160500Y-118896611D01*
X159160500Y-118723389D01*
X159133402Y-118552299D01*
X159079873Y-118387555D01*
X159001232Y-118233212D01*
X158899414Y-118093072D01*
X158776928Y-117970586D01*
X158636788Y-117868768D01*
X158482445Y-117790127D01*
X158317701Y-117736598D01*
X158317699Y-117736597D01*
X158317698Y-117736597D01*
X158186271Y-117715781D01*
X158146611Y-117709500D01*
X157973389Y-117709500D01*
X157933728Y-117715781D01*
X157802302Y-117736597D01*
X157637552Y-117790128D01*
X157483211Y-117868768D01*
X157403256Y-117926859D01*
X157343072Y-117970586D01*
X157343070Y-117970588D01*
X157343069Y-117970588D01*
X157220588Y-118093069D01*
X157220588Y-118093070D01*
X157220586Y-118093072D01*
X157176859Y-118153256D01*
X157118768Y-118233211D01*
X157040128Y-118387552D01*
X156986597Y-118552302D01*
X156959500Y-118723389D01*
X151540500Y-118723389D01*
X151513402Y-118552299D01*
X151459873Y-118387555D01*
X151381232Y-118233212D01*
X151279414Y-118093072D01*
X151156928Y-117970586D01*
X151016788Y-117868768D01*
X150862445Y-117790127D01*
X150697701Y-117736598D01*
X150697699Y-117736597D01*
X150697698Y-117736597D01*
X150566271Y-117715781D01*
X150526611Y-117709500D01*
X150353389Y-117709500D01*
X150313728Y-117715781D01*
X150182302Y-117736597D01*
X150017552Y-117790128D01*
X149863211Y-117868768D01*
X149783256Y-117926859D01*
X149723072Y-117970586D01*
X149723070Y-117970588D01*
X149723069Y-117970588D01*
X149600588Y-118093069D01*
X149600588Y-118093070D01*
X149600586Y-118093072D01*
X149556859Y-118153256D01*
X149498768Y-118233211D01*
X149420128Y-118387552D01*
X149366597Y-118552302D01*
X149339500Y-118723389D01*
X137000000Y-118723389D01*
X137000000Y-116183428D01*
X149340000Y-116183428D01*
X149340000Y-116356571D01*
X149367085Y-116527584D01*
X149420591Y-116692257D01*
X149499195Y-116846523D01*
X149499196Y-116846525D01*
X149533463Y-116893691D01*
X149533464Y-116893691D01*
X150053629Y-116373527D01*
X150067259Y-116424394D01*
X150119920Y-116515606D01*
X150194394Y-116590080D01*
X150285606Y-116642741D01*
X150336471Y-116656370D01*
X149816307Y-117176534D01*
X149863478Y-117210805D01*
X150017742Y-117289408D01*
X150182415Y-117342914D01*
X150353429Y-117370000D01*
X150526571Y-117370000D01*
X150697584Y-117342914D01*
X150862257Y-117289408D01*
X151016525Y-117210803D01*
X151063691Y-117176534D01*
X151063692Y-117176533D01*
X150543529Y-116656370D01*
X150594394Y-116642741D01*
X150685606Y-116590080D01*
X150760080Y-116515606D01*
X150812741Y-116424394D01*
X150826370Y-116373528D01*
X151346533Y-116893692D01*
X151346534Y-116893691D01*
X151380803Y-116846525D01*
X151459408Y-116692257D01*
X151512914Y-116527584D01*
X151540000Y-116356571D01*
X151540000Y-116183428D01*
X151539994Y-116183389D01*
X156959500Y-116183389D01*
X156959500Y-116356611D01*
X156986598Y-116527701D01*
X157040127Y-116692445D01*
X157118768Y-116846788D01*
X157220586Y-116986928D01*
X157343072Y-117109414D01*
X157483212Y-117211232D01*
X157637555Y-117289873D01*
X157802299Y-117343402D01*
X157973389Y-117370500D01*
X157973390Y-117370500D01*
X158146610Y-117370500D01*
X158146611Y-117370500D01*
X158317701Y-117343402D01*
X158482445Y-117289873D01*
X158636788Y-117211232D01*
X158776928Y-117109414D01*
X158899414Y-116986928D01*
X159001232Y-116846788D01*
X159079873Y-116692445D01*
X159133402Y-116527701D01*
X159160500Y-116356611D01*
X159160500Y-116183389D01*
X159133402Y-116012299D01*
X159079873Y-115847555D01*
X159001232Y-115693212D01*
X158899414Y-115553072D01*
X158776928Y-115430586D01*
X158636788Y-115328768D01*
X158482445Y-115250127D01*
X158317701Y-115196598D01*
X158317699Y-115196597D01*
X158317698Y-115196597D01*
X158186271Y-115175781D01*
X158146611Y-115169500D01*
X157973389Y-115169500D01*
X157933728Y-115175781D01*
X157802302Y-115196597D01*
X157637552Y-115250128D01*
X157483211Y-115328768D01*
X157435457Y-115363464D01*
X157343072Y-115430586D01*
X157343070Y-115430588D01*
X157343069Y-115430588D01*
X157220588Y-115553069D01*
X157220588Y-115553070D01*
X157220586Y-115553072D01*
X157176859Y-115613256D01*
X157118768Y-115693211D01*
X157040128Y-115847552D01*
X156986597Y-116012302D01*
X156984682Y-116024394D01*
X156959500Y-116183389D01*
X151539994Y-116183389D01*
X151512914Y-116012415D01*
X151459408Y-115847742D01*
X151380805Y-115693478D01*
X151346534Y-115646307D01*
X150826370Y-116166471D01*
X150812741Y-116115606D01*
X150760080Y-116024394D01*
X150685606Y-115949920D01*
X150594394Y-115897259D01*
X150543527Y-115883629D01*
X151063691Y-115363464D01*
X151063691Y-115363463D01*
X151016525Y-115329196D01*
X151016523Y-115329195D01*
X150862257Y-115250591D01*
X150697584Y-115197085D01*
X150526571Y-115170000D01*
X150353429Y-115170000D01*
X150182415Y-115197085D01*
X150017740Y-115250592D01*
X149863475Y-115329196D01*
X149816307Y-115363463D01*
X149816307Y-115363464D01*
X150336472Y-115883629D01*
X150285606Y-115897259D01*
X150194394Y-115949920D01*
X150119920Y-116024394D01*
X150067259Y-116115606D01*
X150053629Y-116166472D01*
X149533464Y-115646307D01*
X149533463Y-115646307D01*
X149499196Y-115693475D01*
X149420592Y-115847740D01*
X149367085Y-116012415D01*
X149340000Y-116183428D01*
X137000000Y-116183428D01*
X137000000Y-113643389D01*
X149339500Y-113643389D01*
X149339500Y-113816611D01*
X149366598Y-113987701D01*
X149420127Y-114152445D01*
X149498768Y-114306788D01*
X149600586Y-114446928D01*
X149723072Y-114569414D01*
X149863212Y-114671232D01*
X150017555Y-114749873D01*
X150182299Y-114803402D01*
X150353389Y-114830500D01*
X150353390Y-114830500D01*
X150526610Y-114830500D01*
X150526611Y-114830500D01*
X150697701Y-114803402D01*
X150862445Y-114749873D01*
X151016788Y-114671232D01*
X151156928Y-114569414D01*
X151279414Y-114446928D01*
X151381232Y-114306788D01*
X151459873Y-114152445D01*
X151513402Y-113987701D01*
X151540500Y-113816611D01*
X151540500Y-113643389D01*
X156959500Y-113643389D01*
X156959500Y-113816611D01*
X156986598Y-113987701D01*
X157040127Y-114152445D01*
X157118768Y-114306788D01*
X157220586Y-114446928D01*
X157343072Y-114569414D01*
X157483212Y-114671232D01*
X157637555Y-114749873D01*
X157802299Y-114803402D01*
X157973389Y-114830500D01*
X157973390Y-114830500D01*
X158146610Y-114830500D01*
X158146611Y-114830500D01*
X158317701Y-114803402D01*
X158482445Y-114749873D01*
X158636788Y-114671232D01*
X158776928Y-114569414D01*
X158899414Y-114446928D01*
X159001232Y-114306788D01*
X159079873Y-114152445D01*
X159133402Y-113987701D01*
X159160500Y-113816611D01*
X159160500Y-113643389D01*
X159133402Y-113472299D01*
X159079873Y-113307555D01*
X159001232Y-113153212D01*
X158899414Y-113013072D01*
X158776928Y-112890586D01*
X158636788Y-112788768D01*
X158482445Y-112710127D01*
X158317701Y-112656598D01*
X158317699Y-112656597D01*
X158317698Y-112656597D01*
X158186271Y-112635781D01*
X158146611Y-112629500D01*
X157973389Y-112629500D01*
X157933728Y-112635781D01*
X157802302Y-112656597D01*
X157637552Y-112710128D01*
X157483211Y-112788768D01*
X157403256Y-112846859D01*
X157343072Y-112890586D01*
X157343070Y-112890588D01*
X157343069Y-112890588D01*
X157220588Y-113013069D01*
X157220588Y-113013070D01*
X157220586Y-113013072D01*
X157176859Y-113073256D01*
X157118768Y-113153211D01*
X157040128Y-113307552D01*
X156986597Y-113472302D01*
X156959500Y-113643389D01*
X151540500Y-113643389D01*
X151513402Y-113472299D01*
X151459873Y-113307555D01*
X151381232Y-113153212D01*
X151279414Y-113013072D01*
X151156928Y-112890586D01*
X151016788Y-112788768D01*
X150862445Y-112710127D01*
X150697701Y-112656598D01*
X150697699Y-112656597D01*
X150697698Y-112656597D01*
X150566271Y-112635781D01*
X150526611Y-112629500D01*
X150353389Y-112629500D01*
X150313728Y-112635781D01*
X150182302Y-112656597D01*
X150017552Y-112710128D01*
X149863211Y-112788768D01*
X149783256Y-112846859D01*
X149723072Y-112890586D01*
X149723070Y-112890588D01*
X149723069Y-112890588D01*
X149600588Y-113013069D01*
X149600588Y-113013070D01*
X149600586Y-113013072D01*
X149556859Y-113073256D01*
X149498768Y-113153211D01*
X149420128Y-113307552D01*
X149366597Y-113472302D01*
X149339500Y-113643389D01*
X137000000Y-113643389D01*
X137000000Y-110596898D01*
X149339500Y-110596898D01*
X149339500Y-111783102D01*
X149345126Y-111829954D01*
X149350122Y-111871561D01*
X149405639Y-112012343D01*
X149497077Y-112132922D01*
X149617656Y-112224360D01*
X149617657Y-112224360D01*
X149617658Y-112224361D01*
X149758436Y-112279877D01*
X149846898Y-112290500D01*
X149846903Y-112290500D01*
X151033097Y-112290500D01*
X151033102Y-112290500D01*
X151121564Y-112279877D01*
X151262342Y-112224361D01*
X151382922Y-112132922D01*
X151474361Y-112012342D01*
X151529877Y-111871564D01*
X151540500Y-111783102D01*
X151540500Y-111103428D01*
X156960000Y-111103428D01*
X156960000Y-111276571D01*
X156987085Y-111447584D01*
X157040591Y-111612257D01*
X157119195Y-111766523D01*
X157119196Y-111766525D01*
X157153463Y-111813691D01*
X157153464Y-111813691D01*
X157673629Y-111293527D01*
X157687259Y-111344394D01*
X157739920Y-111435606D01*
X157814394Y-111510080D01*
X157905606Y-111562741D01*
X157956471Y-111576370D01*
X157436307Y-112096534D01*
X157483478Y-112130805D01*
X157637742Y-112209408D01*
X157802415Y-112262914D01*
X157973429Y-112290000D01*
X158146571Y-112290000D01*
X158317584Y-112262914D01*
X158482257Y-112209408D01*
X158636525Y-112130803D01*
X158683691Y-112096534D01*
X158683692Y-112096533D01*
X158163529Y-111576370D01*
X158214394Y-111562741D01*
X158305606Y-111510080D01*
X158380080Y-111435606D01*
X158432741Y-111344394D01*
X158446370Y-111293528D01*
X158966533Y-111813692D01*
X158966534Y-111813691D01*
X159000803Y-111766525D01*
X159079408Y-111612257D01*
X159132914Y-111447584D01*
X159160000Y-111276571D01*
X159160000Y-111103428D01*
X159132914Y-110932415D01*
X159079408Y-110767742D01*
X159000805Y-110613478D01*
X158966534Y-110566307D01*
X158446370Y-111086471D01*
X158432741Y-111035606D01*
X158380080Y-110944394D01*
X158305606Y-110869920D01*
X158214394Y-110817259D01*
X158163527Y-110803629D01*
X158683691Y-110283464D01*
X158683691Y-110283463D01*
X158636525Y-110249196D01*
X158636523Y-110249195D01*
X158482257Y-110170591D01*
X158317584Y-110117085D01*
X158146571Y-110090000D01*
X157973429Y-110090000D01*
X157802415Y-110117085D01*
X157637740Y-110170592D01*
X157483475Y-110249196D01*
X157436307Y-110283463D01*
X157436307Y-110283464D01*
X157956472Y-110803629D01*
X157905606Y-110817259D01*
X157814394Y-110869920D01*
X157739920Y-110944394D01*
X157687259Y-111035606D01*
X157673629Y-111086472D01*
X157153464Y-110566307D01*
X157153463Y-110566307D01*
X157119196Y-110613475D01*
X157040592Y-110767740D01*
X156987085Y-110932415D01*
X156960000Y-111103428D01*
X151540500Y-111103428D01*
X151540500Y-110596898D01*
X151529877Y-110508436D01*
X151474361Y-110367658D01*
X151474360Y-110367657D01*
X151474360Y-110367656D01*
X151382922Y-110247077D01*
X151262343Y-110155639D01*
X151121561Y-110100122D01*
X151075926Y-110094642D01*
X151033102Y-110089500D01*
X149846898Y-110089500D01*
X149807853Y-110094188D01*
X149758438Y-110100122D01*
X149617656Y-110155639D01*
X149497077Y-110247077D01*
X149405639Y-110367656D01*
X149350122Y-110508438D01*
X149344188Y-110557853D01*
X149339500Y-110596898D01*
X137000000Y-110596898D01*
X137000000Y-106913389D01*
X149339500Y-106913389D01*
X149339500Y-107086611D01*
X149366598Y-107257701D01*
X149420127Y-107422445D01*
X149498768Y-107576788D01*
X149600586Y-107716928D01*
X149723072Y-107839414D01*
X149863212Y-107941232D01*
X150017555Y-108019873D01*
X150182299Y-108073402D01*
X150353389Y-108100500D01*
X150353390Y-108100500D01*
X150526610Y-108100500D01*
X150526611Y-108100500D01*
X150697701Y-108073402D01*
X150862445Y-108019873D01*
X151016788Y-107941232D01*
X151156928Y-107839414D01*
X151279414Y-107716928D01*
X151381232Y-107576788D01*
X151459873Y-107422445D01*
X151513402Y-107257701D01*
X151540500Y-107086611D01*
X151540500Y-106913428D01*
X151840000Y-106913428D01*
X151840000Y-107086571D01*
X151867085Y-107257584D01*
X151920591Y-107422257D01*
X151999195Y-107576523D01*
X151999196Y-107576525D01*
X152033463Y-107623691D01*
X152033464Y-107623691D01*
X152553629Y-107103527D01*
X152567259Y-107154394D01*
X152619920Y-107245606D01*
X152694394Y-107320080D01*
X152785606Y-107372741D01*
X152836471Y-107386370D01*
X152316307Y-107906534D01*
X152363478Y-107940805D01*
X152517742Y-108019408D01*
X152682415Y-108072914D01*
X152853429Y-108100000D01*
X153026571Y-108100000D01*
X153197584Y-108072914D01*
X153362257Y-108019408D01*
X153516525Y-107940803D01*
X153563691Y-107906534D01*
X153563692Y-107906533D01*
X153043529Y-107386370D01*
X153094394Y-107372741D01*
X153185606Y-107320080D01*
X153260080Y-107245606D01*
X153312741Y-107154394D01*
X153326370Y-107103528D01*
X153846533Y-107623692D01*
X153846534Y-107623691D01*
X153880803Y-107576525D01*
X153959408Y-107422257D01*
X154012914Y-107257584D01*
X154040000Y-107086571D01*
X154040000Y-106913428D01*
X154012914Y-106742415D01*
X153959408Y-106577742D01*
X153880805Y-106423478D01*
X153846534Y-106376307D01*
X153326370Y-106896471D01*
X153312741Y-106845606D01*
X153260080Y-106754394D01*
X153185606Y-106679920D01*
X153094394Y-106627259D01*
X153043527Y-106613629D01*
X153563691Y-106093464D01*
X153563691Y-106093463D01*
X153516525Y-106059196D01*
X153516523Y-106059195D01*
X153362257Y-105980591D01*
X153197584Y-105927085D01*
X153026571Y-105900000D01*
X152853429Y-105900000D01*
X152682415Y-105927085D01*
X152517740Y-105980592D01*
X152363475Y-106059196D01*
X152316307Y-106093463D01*
X152316307Y-106093464D01*
X152836472Y-106613629D01*
X152785606Y-106627259D01*
X152694394Y-106679920D01*
X152619920Y-106754394D01*
X152567259Y-106845606D01*
X152553629Y-106896472D01*
X152033464Y-106376307D01*
X152033463Y-106376307D01*
X151999196Y-106423475D01*
X151920592Y-106577740D01*
X151867085Y-106742415D01*
X151840000Y-106913428D01*
X151540500Y-106913428D01*
X151540500Y-106913389D01*
X151513402Y-106742299D01*
X151459873Y-106577555D01*
X151381232Y-106423212D01*
X151279414Y-106283072D01*
X151156928Y-106160586D01*
X151041614Y-106076805D01*
X150998949Y-106021476D01*
X150990500Y-105976488D01*
X150990500Y-105674500D01*
X151010185Y-105607461D01*
X151062989Y-105561706D01*
X151114500Y-105550500D01*
X160825500Y-105550500D01*
X160892539Y-105570185D01*
X160938294Y-105622989D01*
X160949500Y-105674500D01*
X160949500Y-120325500D01*
X160929815Y-120392539D01*
X160877011Y-120438294D01*
X160825500Y-120449500D01*
X155072475Y-120449500D01*
X154927525Y-120449500D01*
X154798993Y-120483940D01*
X154787511Y-120487017D01*
X154661988Y-120559488D01*
X154661982Y-120559493D01*
X154559493Y-120661982D01*
X154559488Y-120661988D01*
X154487017Y-120787511D01*
X154487016Y-120787515D01*
X154449500Y-120927525D01*
X154449500Y-120927527D01*
X154449500Y-124128329D01*
X154429815Y-124195368D01*
X154394394Y-124231429D01*
X154378153Y-124242281D01*
X154378148Y-124242286D01*
X154242282Y-124378151D01*
X154242279Y-124378155D01*
X154135521Y-124537929D01*
X154114561Y-124588533D01*
X154070720Y-124642936D01*
X154004426Y-124665001D01*
X153936726Y-124647722D01*
X153889116Y-124596584D01*
X153885439Y-124588533D01*
X153864478Y-124537929D01*
X153833154Y-124491050D01*
X153757720Y-124378155D01*
X153757717Y-124378151D01*
X153621848Y-124242282D01*
X153621844Y-124242279D01*
X153462070Y-124135521D01*
X153462068Y-124135520D01*
X153284547Y-124061989D01*
X153284535Y-124061986D01*
X153096081Y-124024500D01*
X153096078Y-124024500D01*
X152903922Y-124024500D01*
X152903919Y-124024500D01*
X152715464Y-124061986D01*
X152715452Y-124061989D01*
X152537931Y-124135520D01*
X152537929Y-124135521D01*
X152378155Y-124242279D01*
X152378151Y-124242282D01*
X152242282Y-124378151D01*
X152242279Y-124378155D01*
X152202601Y-124437538D01*
X152148989Y-124482343D01*
X152079664Y-124491050D01*
X152016636Y-124460895D01*
X151979917Y-124401452D01*
X151975499Y-124368647D01*
X151975499Y-124280143D01*
X151975499Y-124280136D01*
X151975497Y-124280117D01*
X151972586Y-124255012D01*
X151972585Y-124255010D01*
X151972585Y-124255009D01*
X151927206Y-124152235D01*
X151847765Y-124072794D01*
X151823287Y-124061986D01*
X151744992Y-124027415D01*
X151719865Y-124024500D01*
X150280143Y-124024500D01*
X150280117Y-124024502D01*
X150255012Y-124027413D01*
X150255008Y-124027415D01*
X150152235Y-124072793D01*
X150072794Y-124152234D01*
X150027415Y-124255006D01*
X150027415Y-124255008D01*
X150024500Y-124280131D01*
X150024500Y-125719856D01*
X150024502Y-125719882D01*
X150027413Y-125744987D01*
X150027415Y-125744991D01*
X150072793Y-125847764D01*
X150072794Y-125847765D01*
X150152235Y-125927206D01*
X150255009Y-125972585D01*
X150280135Y-125975500D01*
X151719864Y-125975499D01*
X151719879Y-125975497D01*
X151719882Y-125975497D01*
X151744987Y-125972586D01*
X151744988Y-125972585D01*
X151744991Y-125972585D01*
X151847765Y-125927206D01*
X151927206Y-125847765D01*
X151972585Y-125744991D01*
X151975500Y-125719865D01*
X151975499Y-125631351D01*
X151995183Y-125564316D01*
X152047986Y-125518560D01*
X152117145Y-125508616D01*
X152180701Y-125537640D01*
X152202601Y-125562462D01*
X152242282Y-125621848D01*
X152378151Y-125757717D01*
X152378155Y-125757720D01*
X152537927Y-125864477D01*
X152537928Y-125864477D01*
X152537929Y-125864478D01*
X152537931Y-125864479D01*
X152715452Y-125938010D01*
X152715457Y-125938012D01*
X152901403Y-125974999D01*
X152903917Y-125975499D01*
X152903920Y-125975500D01*
X152903922Y-125975500D01*
X153096080Y-125975500D01*
X153096081Y-125975499D01*
X153284543Y-125938012D01*
X153462073Y-125864477D01*
X153621845Y-125757720D01*
X153757720Y-125621845D01*
X153864477Y-125462073D01*
X153885439Y-125411467D01*
X153929280Y-125357063D01*
X153995574Y-125334998D01*
X154063273Y-125352277D01*
X154110884Y-125403414D01*
X154114561Y-125411467D01*
X154135520Y-125462068D01*
X154135521Y-125462070D01*
X154242279Y-125621844D01*
X154242282Y-125621848D01*
X154378151Y-125757717D01*
X154378155Y-125757720D01*
X154537927Y-125864477D01*
X154537928Y-125864477D01*
X154537929Y-125864478D01*
X154537931Y-125864479D01*
X154715452Y-125938010D01*
X154715457Y-125938012D01*
X154901403Y-125974999D01*
X154903917Y-125975499D01*
X154903920Y-125975500D01*
X154903922Y-125975500D01*
X155096080Y-125975500D01*
X155096081Y-125975499D01*
X155284543Y-125938012D01*
X155462073Y-125864477D01*
X155621845Y-125757720D01*
X155634578Y-125744987D01*
X155697232Y-125682334D01*
X155757717Y-125621848D01*
X155757720Y-125621845D01*
X155864477Y-125462073D01*
X155885709Y-125410813D01*
X155929549Y-125356411D01*
X155995843Y-125334345D01*
X156063542Y-125351623D01*
X156111153Y-125402760D01*
X156114831Y-125410813D01*
X156135964Y-125461832D01*
X156135966Y-125461836D01*
X156183773Y-125533383D01*
X156613629Y-125103527D01*
X156627259Y-125154394D01*
X156679920Y-125245606D01*
X156754394Y-125320080D01*
X156845606Y-125372741D01*
X156896471Y-125386370D01*
X156466614Y-125816226D01*
X156538166Y-125864035D01*
X156715602Y-125937531D01*
X156715610Y-125937533D01*
X156903966Y-125974999D01*
X156903970Y-125975000D01*
X157096030Y-125975000D01*
X157096033Y-125974999D01*
X157284389Y-125937533D01*
X157284397Y-125937531D01*
X157461834Y-125864034D01*
X157461840Y-125864031D01*
X157533384Y-125816226D01*
X157533384Y-125816225D01*
X157103529Y-125386370D01*
X157154394Y-125372741D01*
X157245606Y-125320080D01*
X157320080Y-125245606D01*
X157372741Y-125154394D01*
X157386370Y-125103528D01*
X157816226Y-125533384D01*
X157864031Y-125461840D01*
X157864034Y-125461834D01*
X157937531Y-125284397D01*
X157937533Y-125284389D01*
X157974999Y-125096033D01*
X157975000Y-125096030D01*
X157975000Y-124903970D01*
X157974999Y-124903966D01*
X157937533Y-124715610D01*
X157937531Y-124715602D01*
X157864035Y-124538166D01*
X157816226Y-124466614D01*
X157386370Y-124896470D01*
X157372741Y-124845606D01*
X157320080Y-124754394D01*
X157245606Y-124679920D01*
X157154394Y-124627259D01*
X157103528Y-124613629D01*
X157533383Y-124183773D01*
X157461836Y-124135966D01*
X157461833Y-124135964D01*
X157284397Y-124062468D01*
X157284389Y-124062466D01*
X157096033Y-124025000D01*
X156903966Y-124025000D01*
X156715610Y-124062466D01*
X156715602Y-124062468D01*
X156538165Y-124135965D01*
X156466615Y-124183773D01*
X156466614Y-124183773D01*
X156896471Y-124613629D01*
X156845606Y-124627259D01*
X156754394Y-124679920D01*
X156679920Y-124754394D01*
X156627259Y-124845606D01*
X156613629Y-124896470D01*
X156183773Y-124466614D01*
X156183773Y-124466615D01*
X156135963Y-124538168D01*
X156114830Y-124589187D01*
X156070989Y-124643590D01*
X156004694Y-124665654D01*
X155936995Y-124648374D01*
X155889385Y-124597236D01*
X155885709Y-124589185D01*
X155864479Y-124537931D01*
X155864478Y-124537929D01*
X155833154Y-124491050D01*
X155757720Y-124378155D01*
X155757717Y-124378151D01*
X155699044Y-124319478D01*
X155699031Y-124319466D01*
X155621845Y-124242280D01*
X155597599Y-124226079D01*
X155590511Y-124219553D01*
X155577277Y-124197530D01*
X155560802Y-124177815D01*
X155558348Y-124166028D01*
X155554524Y-124159664D01*
X155554840Y-124149176D01*
X155550500Y-124128329D01*
X155550500Y-121674500D01*
X155570185Y-121607461D01*
X155622989Y-121561706D01*
X155674500Y-121550500D01*
X161572472Y-121550500D01*
X161572475Y-121550500D01*
X161712485Y-121512984D01*
X161838015Y-121440509D01*
X161940509Y-121338015D01*
X162012984Y-121212485D01*
X162050500Y-121072475D01*
X162050500Y-104927525D01*
X162012984Y-104787515D01*
X161997036Y-104759893D01*
X161940511Y-104661988D01*
X161940506Y-104661982D01*
X161838017Y-104559493D01*
X161838011Y-104559488D01*
X161712488Y-104487017D01*
X161712489Y-104487017D01*
X161701006Y-104483940D01*
X161572475Y-104449500D01*
X150512475Y-104449500D01*
X150367525Y-104449500D01*
X150238993Y-104483940D01*
X150227511Y-104487017D01*
X150101988Y-104559488D01*
X150101982Y-104559493D01*
X149999493Y-104661982D01*
X149999488Y-104661988D01*
X149927017Y-104787511D01*
X149927016Y-104787515D01*
X149889500Y-104927525D01*
X149889500Y-104927527D01*
X149889500Y-105976488D01*
X149869815Y-106043527D01*
X149838385Y-106076806D01*
X149723075Y-106160583D01*
X149723069Y-106160588D01*
X149600588Y-106283069D01*
X149600588Y-106283070D01*
X149600586Y-106283072D01*
X149556859Y-106343256D01*
X149498768Y-106423211D01*
X149420128Y-106577552D01*
X149366597Y-106742302D01*
X149364682Y-106754394D01*
X149339500Y-106913389D01*
X137000000Y-106913389D01*
X137000000Y-103353952D01*
X162899500Y-103353952D01*
X162899500Y-103646047D01*
X162932199Y-103936271D01*
X162932202Y-103936285D01*
X162997196Y-104221044D01*
X162997197Y-104221046D01*
X163093665Y-104496738D01*
X163220393Y-104759890D01*
X163237751Y-104787515D01*
X163375792Y-105007206D01*
X163557902Y-105235565D01*
X163764435Y-105442098D01*
X163992794Y-105624208D01*
X164240107Y-105779605D01*
X164503263Y-105906335D01*
X164778955Y-106002803D01*
X165063714Y-106067798D01*
X165063723Y-106067799D01*
X165063728Y-106067800D01*
X165257210Y-106089599D01*
X165353953Y-106100499D01*
X165353956Y-106100500D01*
X165353959Y-106100500D01*
X165646044Y-106100500D01*
X165646045Y-106100499D01*
X165794371Y-106083787D01*
X165936271Y-106067800D01*
X165936274Y-106067799D01*
X165936286Y-106067798D01*
X166221045Y-106002803D01*
X166496737Y-105906335D01*
X166759893Y-105779605D01*
X167007206Y-105624208D01*
X167235565Y-105442098D01*
X167442098Y-105235565D01*
X167624208Y-105007206D01*
X167779605Y-104759893D01*
X167906335Y-104496737D01*
X168002803Y-104221045D01*
X168067798Y-103936286D01*
X168100500Y-103646041D01*
X168100500Y-103353959D01*
X168067798Y-103063714D01*
X168002803Y-102778955D01*
X167906335Y-102503263D01*
X167779605Y-102240107D01*
X167624208Y-101992794D01*
X167442098Y-101764435D01*
X167235565Y-101557902D01*
X167007206Y-101375792D01*
X166759893Y-101220395D01*
X166759890Y-101220393D01*
X166496738Y-101093665D01*
X166221046Y-100997197D01*
X166221044Y-100997196D01*
X166001280Y-100947036D01*
X165936286Y-100932202D01*
X165936283Y-100932201D01*
X165936271Y-100932199D01*
X165646047Y-100899500D01*
X165646041Y-100899500D01*
X165353959Y-100899500D01*
X165353952Y-100899500D01*
X165063728Y-100932199D01*
X165063714Y-100932202D01*
X164778955Y-100997196D01*
X164778953Y-100997197D01*
X164503261Y-101093665D01*
X164240109Y-101220393D01*
X163992795Y-101375791D01*
X163764435Y-101557901D01*
X163557901Y-101764435D01*
X163375791Y-101992795D01*
X163220393Y-102240109D01*
X163093665Y-102503261D01*
X162997197Y-102778953D01*
X162997196Y-102778955D01*
X162932202Y-103063714D01*
X162932199Y-103063728D01*
X162899500Y-103353952D01*
X137000000Y-103353952D01*
X137000000Y-100724000D01*
X137019685Y-100656961D01*
X137072489Y-100611206D01*
X137124000Y-100600000D01*
X169276000Y-100600000D01*
X169343039Y-100619685D01*
G37*
%TD.AperFunction*%
%TD*%
M02*
