M48
; DRILL file KiCad 10.0.6 date 2026-10-02T11:05:12
; FORMAT={-:-/ absolute / metric / decimal}
; #@! TF.CreationDate,2026-10-02T11:05:12+07:00
; #@! TF.GenerationSoftware,Kicad,Pcbnew,10.0.6
; #@! TF.FileFunction,Plated,1,2,PTH
FMAT,2
METRIC
; #@! TA.AperFunction,Plated,PTH,ViaDrill
T1C0.400
; #@! TA.AperFunction,Plated,PTH,ComponentDrill
T2C0.800
; #@! TA.AperFunction,Plated,PTH,ComponentDrill
T3C1.000
%
G90
G05
T1
X129.0Y-103.5
X147.0Y-103.5
T2
X111.94Y-104.0
X111.94Y-106.54
X111.94Y-109.08
X111.94Y-111.62
X113.0Y-117.4
X115.0Y-117.4
X117.0Y-117.4
X119.0Y-117.4
X119.56Y-104.0
X119.56Y-106.54
X119.56Y-109.08
X119.56Y-111.62
X150.44Y-104.0
X150.44Y-106.54
X150.44Y-109.08
X150.44Y-111.62
X151.0Y-117.4
X153.0Y-117.4
X155.0Y-117.4
X157.0Y-117.4
X158.06Y-104.0
X158.06Y-106.54
X158.06Y-109.08
X158.06Y-111.62
T3
X126.0Y-117.4
X128.54Y-117.4
M30
