%TF.GenerationSoftware,KiCad,Pcbnew,10.0.6*%
%TF.CreationDate,2026-09-24T22:51:19+07:00*%
%TF.ProjectId,opt101_receiver,6f707431-3031-45f7-9265-636569766572,rev?*%
%TF.SameCoordinates,Original*%
%TF.FileFunction,Legend,Bot*%
%TF.FilePolarity,Positive*%
%FSLAX46Y46*%
G04 Gerber Fmt 4.6, Leading zero omitted, Abs format (unit mm)*
G04 Created by KiCad (PCBNEW 10.0.6) date 2026-09-24 22:51:19*
%MOMM*%
%LPD*%
G01*
G04 APERTURE LIST*
G04 Aperture macros list*
%AMRoundRect*
0 Rectangle with rounded corners*
0 $1 Rounding radius*
0 $2 $3 $4 $5 $6 $7 $8 $9 X,Y pos of 4 corners*
0 Add a 4 corners polygon primitive as box body*
4,1,4,$2,$3,$4,$5,$6,$7,$8,$9,$2,$3,0*
0 Add four circle primitives for the rounded corners*
1,1,$1+$1,$2,$3*
1,1,$1+$1,$4,$5*
1,1,$1+$1,$6,$7*
1,1,$1+$1,$8,$9*
0 Add four rect primitives between the rounded corners*
20,1,$1+$1,$2,$3,$4,$5,0*
20,1,$1+$1,$4,$5,$6,$7,0*
20,1,$1+$1,$6,$7,$8,$9,0*
20,1,$1+$1,$8,$9,$2,$3,0*%
G04 Aperture macros list end*
%ADD10C,0.130000*%
%ADD11R,1.700000X1.700000*%
%ADD12C,1.700000*%
%ADD13RoundRect,0.250000X-0.550000X-0.550000X0.550000X-0.550000X0.550000X0.550000X-0.550000X0.550000X0*%
%ADD14C,1.600000*%
%ADD15R,1.350000X1.350000*%
%ADD16C,1.350000*%
%ADD17C,3.200000*%
G04 APERTURE END LIST*
D10*
X109066666Y-111753335D02*
X108799999Y-112553335D01*
X108799999Y-112553335D02*
X108533333Y-111753335D01*
X109428570Y-115093335D02*
X109428570Y-114293335D01*
X109428570Y-114293335D02*
X108971427Y-115093335D01*
X108971427Y-115093335D02*
X108971427Y-114293335D01*
X108133332Y-115017144D02*
X108171428Y-115055240D01*
X108171428Y-115055240D02*
X108285713Y-115093335D01*
X108285713Y-115093335D02*
X108361904Y-115093335D01*
X108361904Y-115093335D02*
X108476190Y-115055240D01*
X108476190Y-115055240D02*
X108552380Y-114979049D01*
X108552380Y-114979049D02*
X108590475Y-114902859D01*
X108590475Y-114902859D02*
X108628571Y-114750478D01*
X108628571Y-114750478D02*
X108628571Y-114636192D01*
X108628571Y-114636192D02*
X108590475Y-114483811D01*
X108590475Y-114483811D02*
X108552380Y-114407620D01*
X108552380Y-114407620D02*
X108476190Y-114331430D01*
X108476190Y-114331430D02*
X108361904Y-114293335D01*
X108361904Y-114293335D02*
X108285713Y-114293335D01*
X108285713Y-114293335D02*
X108171428Y-114331430D01*
X108171428Y-114331430D02*
X108133332Y-114369525D01*
X108590476Y-116871430D02*
X108666666Y-116833335D01*
X108666666Y-116833335D02*
X108780952Y-116833335D01*
X108780952Y-116833335D02*
X108895238Y-116871430D01*
X108895238Y-116871430D02*
X108971428Y-116947620D01*
X108971428Y-116947620D02*
X109009523Y-117023811D01*
X109009523Y-117023811D02*
X109047619Y-117176192D01*
X109047619Y-117176192D02*
X109047619Y-117290478D01*
X109047619Y-117290478D02*
X109009523Y-117442859D01*
X109009523Y-117442859D02*
X108971428Y-117519049D01*
X108971428Y-117519049D02*
X108895238Y-117595240D01*
X108895238Y-117595240D02*
X108780952Y-117633335D01*
X108780952Y-117633335D02*
X108704761Y-117633335D01*
X108704761Y-117633335D02*
X108590476Y-117595240D01*
X108590476Y-117595240D02*
X108552380Y-117557144D01*
X108552380Y-117557144D02*
X108552380Y-117290478D01*
X108552380Y-117290478D02*
X108704761Y-117290478D01*
X109085714Y-119754287D02*
X109352380Y-119754287D01*
X109352380Y-120173335D02*
X109352380Y-119373335D01*
X109352380Y-119373335D02*
X108971428Y-119373335D01*
X108400000Y-119754287D02*
X108285714Y-119792382D01*
X108285714Y-119792382D02*
X108247619Y-119830478D01*
X108247619Y-119830478D02*
X108209523Y-119906668D01*
X108209523Y-119906668D02*
X108209523Y-120020954D01*
X108209523Y-120020954D02*
X108247619Y-120097144D01*
X108247619Y-120097144D02*
X108285714Y-120135240D01*
X108285714Y-120135240D02*
X108361904Y-120173335D01*
X108361904Y-120173335D02*
X108666666Y-120173335D01*
X108666666Y-120173335D02*
X108666666Y-119373335D01*
X108666666Y-119373335D02*
X108400000Y-119373335D01*
X108400000Y-119373335D02*
X108323809Y-119411430D01*
X108323809Y-119411430D02*
X108285714Y-119449525D01*
X108285714Y-119449525D02*
X108247619Y-119525716D01*
X108247619Y-119525716D02*
X108247619Y-119601906D01*
X108247619Y-119601906D02*
X108285714Y-119678097D01*
X108285714Y-119678097D02*
X108323809Y-119716192D01*
X108323809Y-119716192D02*
X108400000Y-119754287D01*
X108400000Y-119754287D02*
X108666666Y-119754287D01*
X120397619Y-109063335D02*
X120397619Y-109710954D01*
X120397619Y-109710954D02*
X120359524Y-109787144D01*
X120359524Y-109787144D02*
X120321429Y-109825240D01*
X120321429Y-109825240D02*
X120245238Y-109863335D01*
X120245238Y-109863335D02*
X120092857Y-109863335D01*
X120092857Y-109863335D02*
X120016667Y-109825240D01*
X120016667Y-109825240D02*
X119978572Y-109787144D01*
X119978572Y-109787144D02*
X119940476Y-109710954D01*
X119940476Y-109710954D02*
X119940476Y-109063335D01*
X119140477Y-109863335D02*
X119597620Y-109863335D01*
X119369048Y-109863335D02*
X119369048Y-109063335D01*
X119369048Y-109063335D02*
X119445239Y-109177620D01*
X119445239Y-109177620D02*
X119521429Y-109253811D01*
X119521429Y-109253811D02*
X119597620Y-109291906D01*
X117730952Y-109863335D02*
X117997619Y-109482382D01*
X118188095Y-109863335D02*
X118188095Y-109063335D01*
X118188095Y-109063335D02*
X117883333Y-109063335D01*
X117883333Y-109063335D02*
X117807143Y-109101430D01*
X117807143Y-109101430D02*
X117769048Y-109139525D01*
X117769048Y-109139525D02*
X117730952Y-109215716D01*
X117730952Y-109215716D02*
X117730952Y-109330001D01*
X117730952Y-109330001D02*
X117769048Y-109406192D01*
X117769048Y-109406192D02*
X117807143Y-109444287D01*
X117807143Y-109444287D02*
X117883333Y-109482382D01*
X117883333Y-109482382D02*
X118188095Y-109482382D01*
X117388095Y-109444287D02*
X117121429Y-109444287D01*
X117007143Y-109863335D02*
X117388095Y-109863335D01*
X117388095Y-109863335D02*
X117388095Y-109063335D01*
X117388095Y-109063335D02*
X117007143Y-109063335D01*
X116664285Y-109863335D02*
X116664285Y-109063335D01*
X116664285Y-109063335D02*
X116473809Y-109063335D01*
X116473809Y-109063335D02*
X116359523Y-109101430D01*
X116359523Y-109101430D02*
X116283333Y-109177620D01*
X116283333Y-109177620D02*
X116245238Y-109253811D01*
X116245238Y-109253811D02*
X116207142Y-109406192D01*
X116207142Y-109406192D02*
X116207142Y-109520478D01*
X116207142Y-109520478D02*
X116245238Y-109672859D01*
X116245238Y-109672859D02*
X116283333Y-109749049D01*
X116283333Y-109749049D02*
X116359523Y-109825240D01*
X116359523Y-109825240D02*
X116473809Y-109863335D01*
X116473809Y-109863335D02*
X116664285Y-109863335D01*
X115102380Y-109063335D02*
X114949999Y-109063335D01*
X114949999Y-109063335D02*
X114873809Y-109101430D01*
X114873809Y-109101430D02*
X114797618Y-109177620D01*
X114797618Y-109177620D02*
X114759523Y-109330001D01*
X114759523Y-109330001D02*
X114759523Y-109596668D01*
X114759523Y-109596668D02*
X114797618Y-109749049D01*
X114797618Y-109749049D02*
X114873809Y-109825240D01*
X114873809Y-109825240D02*
X114949999Y-109863335D01*
X114949999Y-109863335D02*
X115102380Y-109863335D01*
X115102380Y-109863335D02*
X115178571Y-109825240D01*
X115178571Y-109825240D02*
X115254761Y-109749049D01*
X115254761Y-109749049D02*
X115292857Y-109596668D01*
X115292857Y-109596668D02*
X115292857Y-109330001D01*
X115292857Y-109330001D02*
X115254761Y-109177620D01*
X115254761Y-109177620D02*
X115178571Y-109101430D01*
X115178571Y-109101430D02*
X115102380Y-109063335D01*
X114416666Y-109863335D02*
X114416666Y-109063335D01*
X114416666Y-109063335D02*
X114111904Y-109063335D01*
X114111904Y-109063335D02*
X114035714Y-109101430D01*
X114035714Y-109101430D02*
X113997619Y-109139525D01*
X113997619Y-109139525D02*
X113959523Y-109215716D01*
X113959523Y-109215716D02*
X113959523Y-109330001D01*
X113959523Y-109330001D02*
X113997619Y-109406192D01*
X113997619Y-109406192D02*
X114035714Y-109444287D01*
X114035714Y-109444287D02*
X114111904Y-109482382D01*
X114111904Y-109482382D02*
X114416666Y-109482382D01*
X113730952Y-109063335D02*
X113273809Y-109063335D01*
X113502381Y-109863335D02*
X113502381Y-109063335D01*
X112588095Y-109863335D02*
X113045238Y-109863335D01*
X112816666Y-109863335D02*
X112816666Y-109063335D01*
X112816666Y-109063335D02*
X112892857Y-109177620D01*
X112892857Y-109177620D02*
X112969047Y-109253811D01*
X112969047Y-109253811D02*
X113045238Y-109291906D01*
X112092856Y-109063335D02*
X112016666Y-109063335D01*
X112016666Y-109063335D02*
X111940475Y-109101430D01*
X111940475Y-109101430D02*
X111902380Y-109139525D01*
X111902380Y-109139525D02*
X111864285Y-109215716D01*
X111864285Y-109215716D02*
X111826190Y-109368097D01*
X111826190Y-109368097D02*
X111826190Y-109558573D01*
X111826190Y-109558573D02*
X111864285Y-109710954D01*
X111864285Y-109710954D02*
X111902380Y-109787144D01*
X111902380Y-109787144D02*
X111940475Y-109825240D01*
X111940475Y-109825240D02*
X112016666Y-109863335D01*
X112016666Y-109863335D02*
X112092856Y-109863335D01*
X112092856Y-109863335D02*
X112169047Y-109825240D01*
X112169047Y-109825240D02*
X112207142Y-109787144D01*
X112207142Y-109787144D02*
X112245237Y-109710954D01*
X112245237Y-109710954D02*
X112283333Y-109558573D01*
X112283333Y-109558573D02*
X112283333Y-109368097D01*
X112283333Y-109368097D02*
X112245237Y-109215716D01*
X112245237Y-109215716D02*
X112207142Y-109139525D01*
X112207142Y-109139525D02*
X112169047Y-109101430D01*
X112169047Y-109101430D02*
X112092856Y-109063335D01*
X111064285Y-109863335D02*
X111521428Y-109863335D01*
X111292856Y-109863335D02*
X111292856Y-109063335D01*
X111292856Y-109063335D02*
X111369047Y-109177620D01*
X111369047Y-109177620D02*
X111445237Y-109253811D01*
X111445237Y-109253811D02*
X111521428Y-109291906D01*
X118761905Y-124863335D02*
X118761905Y-125434763D01*
X118761905Y-125434763D02*
X118800000Y-125549049D01*
X118800000Y-125549049D02*
X118876191Y-125625240D01*
X118876191Y-125625240D02*
X118990476Y-125663335D01*
X118990476Y-125663335D02*
X119066667Y-125663335D01*
X117961905Y-125663335D02*
X118419048Y-125663335D01*
X118190476Y-125663335D02*
X118190476Y-124863335D01*
X118190476Y-124863335D02*
X118266667Y-124977620D01*
X118266667Y-124977620D02*
X118342857Y-125053811D01*
X118342857Y-125053811D02*
X118419048Y-125091906D01*
X117047619Y-125434763D02*
X116666666Y-125434763D01*
X117123809Y-125663335D02*
X116857142Y-124863335D01*
X116857142Y-124863335D02*
X116590476Y-125663335D01*
X116361905Y-124939525D02*
X116323809Y-124901430D01*
X116323809Y-124901430D02*
X116247619Y-124863335D01*
X116247619Y-124863335D02*
X116057143Y-124863335D01*
X116057143Y-124863335D02*
X115980952Y-124901430D01*
X115980952Y-124901430D02*
X115942857Y-124939525D01*
X115942857Y-124939525D02*
X115904762Y-125015716D01*
X115904762Y-125015716D02*
X115904762Y-125091906D01*
X115904762Y-125091906D02*
X115942857Y-125206192D01*
X115942857Y-125206192D02*
X116400000Y-125663335D01*
X116400000Y-125663335D02*
X115904762Y-125663335D01*
X114495237Y-125663335D02*
X114761904Y-125282382D01*
X114952380Y-125663335D02*
X114952380Y-124863335D01*
X114952380Y-124863335D02*
X114647618Y-124863335D01*
X114647618Y-124863335D02*
X114571428Y-124901430D01*
X114571428Y-124901430D02*
X114533333Y-124939525D01*
X114533333Y-124939525D02*
X114495237Y-125015716D01*
X114495237Y-125015716D02*
X114495237Y-125130001D01*
X114495237Y-125130001D02*
X114533333Y-125206192D01*
X114533333Y-125206192D02*
X114571428Y-125244287D01*
X114571428Y-125244287D02*
X114647618Y-125282382D01*
X114647618Y-125282382D02*
X114952380Y-125282382D01*
X114152380Y-125244287D02*
X113885714Y-125244287D01*
X113771428Y-125663335D02*
X114152380Y-125663335D01*
X114152380Y-125663335D02*
X114152380Y-124863335D01*
X114152380Y-124863335D02*
X113771428Y-124863335D01*
X113428570Y-125663335D02*
X113428570Y-124863335D01*
X113428570Y-124863335D02*
X113238094Y-124863335D01*
X113238094Y-124863335D02*
X113123808Y-124901430D01*
X113123808Y-124901430D02*
X113047618Y-124977620D01*
X113047618Y-124977620D02*
X113009523Y-125053811D01*
X113009523Y-125053811D02*
X112971427Y-125206192D01*
X112971427Y-125206192D02*
X112971427Y-125320478D01*
X112971427Y-125320478D02*
X113009523Y-125472859D01*
X113009523Y-125472859D02*
X113047618Y-125549049D01*
X113047618Y-125549049D02*
X113123808Y-125625240D01*
X113123808Y-125625240D02*
X113238094Y-125663335D01*
X113238094Y-125663335D02*
X113428570Y-125663335D01*
X122490476Y-111791430D02*
X122566666Y-111753335D01*
X122566666Y-111753335D02*
X122680952Y-111753335D01*
X122680952Y-111753335D02*
X122795238Y-111791430D01*
X122795238Y-111791430D02*
X122871428Y-111867620D01*
X122871428Y-111867620D02*
X122909523Y-111943811D01*
X122909523Y-111943811D02*
X122947619Y-112096192D01*
X122947619Y-112096192D02*
X122947619Y-112210478D01*
X122947619Y-112210478D02*
X122909523Y-112362859D01*
X122909523Y-112362859D02*
X122871428Y-112439049D01*
X122871428Y-112439049D02*
X122795238Y-112515240D01*
X122795238Y-112515240D02*
X122680952Y-112553335D01*
X122680952Y-112553335D02*
X122604761Y-112553335D01*
X122604761Y-112553335D02*
X122490476Y-112515240D01*
X122490476Y-112515240D02*
X122452380Y-112477144D01*
X122452380Y-112477144D02*
X122452380Y-112210478D01*
X122452380Y-112210478D02*
X122604761Y-112210478D01*
X123328570Y-115093335D02*
X123328570Y-114293335D01*
X123328570Y-114293335D02*
X122871427Y-115093335D01*
X122871427Y-115093335D02*
X122871427Y-114293335D01*
X122033332Y-115017144D02*
X122071428Y-115055240D01*
X122071428Y-115055240D02*
X122185713Y-115093335D01*
X122185713Y-115093335D02*
X122261904Y-115093335D01*
X122261904Y-115093335D02*
X122376190Y-115055240D01*
X122376190Y-115055240D02*
X122452380Y-114979049D01*
X122452380Y-114979049D02*
X122490475Y-114902859D01*
X122490475Y-114902859D02*
X122528571Y-114750478D01*
X122528571Y-114750478D02*
X122528571Y-114636192D01*
X122528571Y-114636192D02*
X122490475Y-114483811D01*
X122490475Y-114483811D02*
X122452380Y-114407620D01*
X122452380Y-114407620D02*
X122376190Y-114331430D01*
X122376190Y-114331430D02*
X122261904Y-114293335D01*
X122261904Y-114293335D02*
X122185713Y-114293335D01*
X122185713Y-114293335D02*
X122071428Y-114331430D01*
X122071428Y-114331430D02*
X122033332Y-114369525D01*
X123328570Y-117633335D02*
X123328570Y-116833335D01*
X123328570Y-116833335D02*
X122871427Y-117633335D01*
X122871427Y-117633335D02*
X122871427Y-116833335D01*
X122033332Y-117557144D02*
X122071428Y-117595240D01*
X122071428Y-117595240D02*
X122185713Y-117633335D01*
X122185713Y-117633335D02*
X122261904Y-117633335D01*
X122261904Y-117633335D02*
X122376190Y-117595240D01*
X122376190Y-117595240D02*
X122452380Y-117519049D01*
X122452380Y-117519049D02*
X122490475Y-117442859D01*
X122490475Y-117442859D02*
X122528571Y-117290478D01*
X122528571Y-117290478D02*
X122528571Y-117176192D01*
X122528571Y-117176192D02*
X122490475Y-117023811D01*
X122490475Y-117023811D02*
X122452380Y-116947620D01*
X122452380Y-116947620D02*
X122376190Y-116871430D01*
X122376190Y-116871430D02*
X122261904Y-116833335D01*
X122261904Y-116833335D02*
X122185713Y-116833335D01*
X122185713Y-116833335D02*
X122071428Y-116871430D01*
X122071428Y-116871430D02*
X122033332Y-116909525D01*
X123499999Y-119373335D02*
X123347618Y-119373335D01*
X123347618Y-119373335D02*
X123271428Y-119411430D01*
X123271428Y-119411430D02*
X123195237Y-119487620D01*
X123195237Y-119487620D02*
X123157142Y-119640001D01*
X123157142Y-119640001D02*
X123157142Y-119906668D01*
X123157142Y-119906668D02*
X123195237Y-120059049D01*
X123195237Y-120059049D02*
X123271428Y-120135240D01*
X123271428Y-120135240D02*
X123347618Y-120173335D01*
X123347618Y-120173335D02*
X123499999Y-120173335D01*
X123499999Y-120173335D02*
X123576190Y-120135240D01*
X123576190Y-120135240D02*
X123652380Y-120059049D01*
X123652380Y-120059049D02*
X123690476Y-119906668D01*
X123690476Y-119906668D02*
X123690476Y-119640001D01*
X123690476Y-119640001D02*
X123652380Y-119487620D01*
X123652380Y-119487620D02*
X123576190Y-119411430D01*
X123576190Y-119411430D02*
X123499999Y-119373335D01*
X122814285Y-119373335D02*
X122814285Y-120020954D01*
X122814285Y-120020954D02*
X122776190Y-120097144D01*
X122776190Y-120097144D02*
X122738095Y-120135240D01*
X122738095Y-120135240D02*
X122661904Y-120173335D01*
X122661904Y-120173335D02*
X122509523Y-120173335D01*
X122509523Y-120173335D02*
X122433333Y-120135240D01*
X122433333Y-120135240D02*
X122395238Y-120097144D01*
X122395238Y-120097144D02*
X122357142Y-120020954D01*
X122357142Y-120020954D02*
X122357142Y-119373335D01*
X122090476Y-119373335D02*
X121633333Y-119373335D01*
X121861905Y-120173335D02*
X121861905Y-119373335D01*
X128965238Y-124863335D02*
X128965238Y-125434763D01*
X128965238Y-125434763D02*
X129003333Y-125549049D01*
X129003333Y-125549049D02*
X129079524Y-125625240D01*
X129079524Y-125625240D02*
X129193809Y-125663335D01*
X129193809Y-125663335D02*
X129270000Y-125663335D01*
X128660476Y-124863335D02*
X128165238Y-124863335D01*
X128165238Y-124863335D02*
X128431904Y-125168097D01*
X128431904Y-125168097D02*
X128317619Y-125168097D01*
X128317619Y-125168097D02*
X128241428Y-125206192D01*
X128241428Y-125206192D02*
X128203333Y-125244287D01*
X128203333Y-125244287D02*
X128165238Y-125320478D01*
X128165238Y-125320478D02*
X128165238Y-125510954D01*
X128165238Y-125510954D02*
X128203333Y-125587144D01*
X128203333Y-125587144D02*
X128241428Y-125625240D01*
X128241428Y-125625240D02*
X128317619Y-125663335D01*
X128317619Y-125663335D02*
X128546190Y-125663335D01*
X128546190Y-125663335D02*
X128622381Y-125625240D01*
X128622381Y-125625240D02*
X128660476Y-125587144D01*
X127250952Y-125434763D02*
X126869999Y-125434763D01*
X127327142Y-125663335D02*
X127060475Y-124863335D01*
X127060475Y-124863335D02*
X126793809Y-125663335D01*
X126527142Y-125663335D02*
X126527142Y-124863335D01*
X126527142Y-124863335D02*
X126336666Y-124863335D01*
X126336666Y-124863335D02*
X126222380Y-124901430D01*
X126222380Y-124901430D02*
X126146190Y-124977620D01*
X126146190Y-124977620D02*
X126108095Y-125053811D01*
X126108095Y-125053811D02*
X126069999Y-125206192D01*
X126069999Y-125206192D02*
X126069999Y-125320478D01*
X126069999Y-125320478D02*
X126108095Y-125472859D01*
X126108095Y-125472859D02*
X126146190Y-125549049D01*
X126146190Y-125549049D02*
X126222380Y-125625240D01*
X126222380Y-125625240D02*
X126336666Y-125663335D01*
X126336666Y-125663335D02*
X126527142Y-125663335D01*
X125765238Y-125625240D02*
X125650952Y-125663335D01*
X125650952Y-125663335D02*
X125460476Y-125663335D01*
X125460476Y-125663335D02*
X125384285Y-125625240D01*
X125384285Y-125625240D02*
X125346190Y-125587144D01*
X125346190Y-125587144D02*
X125308095Y-125510954D01*
X125308095Y-125510954D02*
X125308095Y-125434763D01*
X125308095Y-125434763D02*
X125346190Y-125358573D01*
X125346190Y-125358573D02*
X125384285Y-125320478D01*
X125384285Y-125320478D02*
X125460476Y-125282382D01*
X125460476Y-125282382D02*
X125612857Y-125244287D01*
X125612857Y-125244287D02*
X125689047Y-125206192D01*
X125689047Y-125206192D02*
X125727142Y-125168097D01*
X125727142Y-125168097D02*
X125765238Y-125091906D01*
X125765238Y-125091906D02*
X125765238Y-125015716D01*
X125765238Y-125015716D02*
X125727142Y-124939525D01*
X125727142Y-124939525D02*
X125689047Y-124901430D01*
X125689047Y-124901430D02*
X125612857Y-124863335D01*
X125612857Y-124863335D02*
X125422380Y-124863335D01*
X125422380Y-124863335D02*
X125308095Y-124901430D01*
X145800002Y-105363335D02*
X145800002Y-104563335D01*
X145800002Y-104563335D02*
X145342859Y-105363335D01*
X145342859Y-105363335D02*
X145342859Y-104563335D01*
X144619050Y-104830001D02*
X144619050Y-105477620D01*
X144619050Y-105477620D02*
X144657145Y-105553811D01*
X144657145Y-105553811D02*
X144695241Y-105591906D01*
X144695241Y-105591906D02*
X144771431Y-105630001D01*
X144771431Y-105630001D02*
X144885717Y-105630001D01*
X144885717Y-105630001D02*
X144961907Y-105591906D01*
X144619050Y-105325240D02*
X144695241Y-105363335D01*
X144695241Y-105363335D02*
X144847622Y-105363335D01*
X144847622Y-105363335D02*
X144923812Y-105325240D01*
X144923812Y-105325240D02*
X144961907Y-105287144D01*
X144961907Y-105287144D02*
X145000003Y-105210954D01*
X145000003Y-105210954D02*
X145000003Y-104982382D01*
X145000003Y-104982382D02*
X144961907Y-104906192D01*
X144961907Y-104906192D02*
X144923812Y-104868097D01*
X144923812Y-104868097D02*
X144847622Y-104830001D01*
X144847622Y-104830001D02*
X144695241Y-104830001D01*
X144695241Y-104830001D02*
X144619050Y-104868097D01*
X143895240Y-104830001D02*
X143895240Y-105363335D01*
X144238097Y-104830001D02*
X144238097Y-105249049D01*
X144238097Y-105249049D02*
X144200002Y-105325240D01*
X144200002Y-105325240D02*
X144123812Y-105363335D01*
X144123812Y-105363335D02*
X144009526Y-105363335D01*
X144009526Y-105363335D02*
X143933335Y-105325240D01*
X143933335Y-105325240D02*
X143895240Y-105287144D01*
X143590478Y-104830001D02*
X143400002Y-105363335D01*
X143209525Y-104830001D02*
X143400002Y-105363335D01*
X143400002Y-105363335D02*
X143476192Y-105553811D01*
X143476192Y-105553811D02*
X143514287Y-105591906D01*
X143514287Y-105591906D02*
X143590478Y-105630001D01*
X142600001Y-105325240D02*
X142676192Y-105363335D01*
X142676192Y-105363335D02*
X142828573Y-105363335D01*
X142828573Y-105363335D02*
X142904763Y-105325240D01*
X142904763Y-105325240D02*
X142942859Y-105249049D01*
X142942859Y-105249049D02*
X142942859Y-104944287D01*
X142942859Y-104944287D02*
X142904763Y-104868097D01*
X142904763Y-104868097D02*
X142828573Y-104830001D01*
X142828573Y-104830001D02*
X142676192Y-104830001D01*
X142676192Y-104830001D02*
X142600001Y-104868097D01*
X142600001Y-104868097D02*
X142561906Y-104944287D01*
X142561906Y-104944287D02*
X142561906Y-105020478D01*
X142561906Y-105020478D02*
X142942859Y-105096668D01*
X142219049Y-104830001D02*
X142219049Y-105363335D01*
X142219049Y-104906192D02*
X142180954Y-104868097D01*
X142180954Y-104868097D02*
X142104764Y-104830001D01*
X142104764Y-104830001D02*
X141990478Y-104830001D01*
X141990478Y-104830001D02*
X141914287Y-104868097D01*
X141914287Y-104868097D02*
X141876192Y-104944287D01*
X141876192Y-104944287D02*
X141876192Y-105363335D01*
X140885715Y-105363335D02*
X140885715Y-104563335D01*
X140885715Y-104563335D02*
X140428572Y-105363335D01*
X140428572Y-105363335D02*
X140428572Y-104563335D01*
X140047620Y-105363335D02*
X140047620Y-104563335D01*
X139704763Y-105363335D02*
X139704763Y-104944287D01*
X139704763Y-104944287D02*
X139742858Y-104868097D01*
X139742858Y-104868097D02*
X139819049Y-104830001D01*
X139819049Y-104830001D02*
X139933335Y-104830001D01*
X139933335Y-104830001D02*
X140009525Y-104868097D01*
X140009525Y-104868097D02*
X140047620Y-104906192D01*
X138980953Y-105363335D02*
X138980953Y-104944287D01*
X138980953Y-104944287D02*
X139019048Y-104868097D01*
X139019048Y-104868097D02*
X139095239Y-104830001D01*
X139095239Y-104830001D02*
X139247620Y-104830001D01*
X139247620Y-104830001D02*
X139323810Y-104868097D01*
X138980953Y-105325240D02*
X139057144Y-105363335D01*
X139057144Y-105363335D02*
X139247620Y-105363335D01*
X139247620Y-105363335D02*
X139323810Y-105325240D01*
X139323810Y-105325240D02*
X139361906Y-105249049D01*
X139361906Y-105249049D02*
X139361906Y-105172859D01*
X139361906Y-105172859D02*
X139323810Y-105096668D01*
X139323810Y-105096668D02*
X139247620Y-105058573D01*
X139247620Y-105058573D02*
X139057144Y-105058573D01*
X139057144Y-105058573D02*
X138980953Y-105020478D01*
X138714286Y-104830001D02*
X138409524Y-104830001D01*
X138600000Y-104563335D02*
X138600000Y-105249049D01*
X138600000Y-105249049D02*
X138561905Y-105325240D01*
X138561905Y-105325240D02*
X138485715Y-105363335D01*
X138485715Y-105363335D02*
X138409524Y-105363335D01*
X137533333Y-105363335D02*
X137533333Y-104563335D01*
X137533333Y-104944287D02*
X137076190Y-104944287D01*
X137076190Y-105363335D02*
X137076190Y-104563335D01*
X136352381Y-104830001D02*
X136352381Y-105363335D01*
X136695238Y-104830001D02*
X136695238Y-105249049D01*
X136695238Y-105249049D02*
X136657143Y-105325240D01*
X136657143Y-105325240D02*
X136580953Y-105363335D01*
X136580953Y-105363335D02*
X136466667Y-105363335D01*
X136466667Y-105363335D02*
X136390476Y-105325240D01*
X136390476Y-105325240D02*
X136352381Y-105287144D01*
X136047619Y-104830001D02*
X135857143Y-105363335D01*
X135666666Y-104830001D02*
X135857143Y-105363335D01*
X135857143Y-105363335D02*
X135933333Y-105553811D01*
X135933333Y-105553811D02*
X135971428Y-105591906D01*
X135971428Y-105591906D02*
X136047619Y-105630001D01*
X134752380Y-105058573D02*
X134142857Y-105058573D01*
X133152380Y-105363335D02*
X133152380Y-104563335D01*
X133152380Y-104563335D02*
X132847618Y-104563335D01*
X132847618Y-104563335D02*
X132771428Y-104601430D01*
X132771428Y-104601430D02*
X132733333Y-104639525D01*
X132733333Y-104639525D02*
X132695237Y-104715716D01*
X132695237Y-104715716D02*
X132695237Y-104830001D01*
X132695237Y-104830001D02*
X132733333Y-104906192D01*
X132733333Y-104906192D02*
X132771428Y-104944287D01*
X132771428Y-104944287D02*
X132847618Y-104982382D01*
X132847618Y-104982382D02*
X133152380Y-104982382D01*
X132352380Y-105363335D02*
X132352380Y-104563335D01*
X132009523Y-105363335D02*
X132009523Y-104944287D01*
X132009523Y-104944287D02*
X132047618Y-104868097D01*
X132047618Y-104868097D02*
X132123809Y-104830001D01*
X132123809Y-104830001D02*
X132238095Y-104830001D01*
X132238095Y-104830001D02*
X132314285Y-104868097D01*
X132314285Y-104868097D02*
X132352380Y-104906192D01*
X131285713Y-105363335D02*
X131285713Y-104944287D01*
X131285713Y-104944287D02*
X131323808Y-104868097D01*
X131323808Y-104868097D02*
X131399999Y-104830001D01*
X131399999Y-104830001D02*
X131552380Y-104830001D01*
X131552380Y-104830001D02*
X131628570Y-104868097D01*
X131285713Y-105325240D02*
X131361904Y-105363335D01*
X131361904Y-105363335D02*
X131552380Y-105363335D01*
X131552380Y-105363335D02*
X131628570Y-105325240D01*
X131628570Y-105325240D02*
X131666666Y-105249049D01*
X131666666Y-105249049D02*
X131666666Y-105172859D01*
X131666666Y-105172859D02*
X131628570Y-105096668D01*
X131628570Y-105096668D02*
X131552380Y-105058573D01*
X131552380Y-105058573D02*
X131361904Y-105058573D01*
X131361904Y-105058573D02*
X131285713Y-105020478D01*
X130904760Y-105363335D02*
X130904760Y-104830001D01*
X130904760Y-104906192D02*
X130866665Y-104868097D01*
X130866665Y-104868097D02*
X130790475Y-104830001D01*
X130790475Y-104830001D02*
X130676189Y-104830001D01*
X130676189Y-104830001D02*
X130599998Y-104868097D01*
X130599998Y-104868097D02*
X130561903Y-104944287D01*
X130561903Y-104944287D02*
X130561903Y-105363335D01*
X130561903Y-104944287D02*
X130523808Y-104868097D01*
X130523808Y-104868097D02*
X130447617Y-104830001D01*
X130447617Y-104830001D02*
X130333332Y-104830001D01*
X130333332Y-104830001D02*
X130257141Y-104868097D01*
X130257141Y-104868097D02*
X130219046Y-104944287D01*
X130219046Y-104944287D02*
X130219046Y-105363335D01*
X129342855Y-104563335D02*
X128885712Y-104563335D01*
X129114284Y-105363335D02*
X129114284Y-104563335D01*
X128619045Y-105363335D02*
X128619045Y-104563335D01*
X128276188Y-105363335D02*
X128276188Y-104944287D01*
X128276188Y-104944287D02*
X128314283Y-104868097D01*
X128314283Y-104868097D02*
X128390474Y-104830001D01*
X128390474Y-104830001D02*
X128504760Y-104830001D01*
X128504760Y-104830001D02*
X128580950Y-104868097D01*
X128580950Y-104868097D02*
X128619045Y-104906192D01*
X127552378Y-105363335D02*
X127552378Y-104944287D01*
X127552378Y-104944287D02*
X127590473Y-104868097D01*
X127590473Y-104868097D02*
X127666664Y-104830001D01*
X127666664Y-104830001D02*
X127819045Y-104830001D01*
X127819045Y-104830001D02*
X127895235Y-104868097D01*
X127552378Y-105325240D02*
X127628569Y-105363335D01*
X127628569Y-105363335D02*
X127819045Y-105363335D01*
X127819045Y-105363335D02*
X127895235Y-105325240D01*
X127895235Y-105325240D02*
X127933331Y-105249049D01*
X127933331Y-105249049D02*
X127933331Y-105172859D01*
X127933331Y-105172859D02*
X127895235Y-105096668D01*
X127895235Y-105096668D02*
X127819045Y-105058573D01*
X127819045Y-105058573D02*
X127628569Y-105058573D01*
X127628569Y-105058573D02*
X127552378Y-105020478D01*
X127171425Y-104830001D02*
X127171425Y-105363335D01*
X127171425Y-104906192D02*
X127133330Y-104868097D01*
X127133330Y-104868097D02*
X127057140Y-104830001D01*
X127057140Y-104830001D02*
X126942854Y-104830001D01*
X126942854Y-104830001D02*
X126866663Y-104868097D01*
X126866663Y-104868097D02*
X126828568Y-104944287D01*
X126828568Y-104944287D02*
X126828568Y-105363335D01*
X126447615Y-105363335D02*
X126447615Y-104563335D01*
X126104758Y-105363335D02*
X126104758Y-104944287D01*
X126104758Y-104944287D02*
X126142853Y-104868097D01*
X126142853Y-104868097D02*
X126219044Y-104830001D01*
X126219044Y-104830001D02*
X126333330Y-104830001D01*
X126333330Y-104830001D02*
X126409520Y-104868097D01*
X126409520Y-104868097D02*
X126447615Y-104906192D01*
X125228567Y-104563335D02*
X124961900Y-105363335D01*
X124961900Y-105363335D02*
X124695234Y-104563335D01*
X124504758Y-104830001D02*
X124314282Y-105363335D01*
X124123805Y-104830001D02*
X124314282Y-105363335D01*
X124314282Y-105363335D02*
X124390472Y-105553811D01*
X124390472Y-105553811D02*
X124428567Y-105591906D01*
X124428567Y-105591906D02*
X124504758Y-105630001D01*
X141190475Y-108163335D02*
X141457142Y-107782382D01*
X141647618Y-108163335D02*
X141647618Y-107363335D01*
X141647618Y-107363335D02*
X141342856Y-107363335D01*
X141342856Y-107363335D02*
X141266666Y-107401430D01*
X141266666Y-107401430D02*
X141228571Y-107439525D01*
X141228571Y-107439525D02*
X141190475Y-107515716D01*
X141190475Y-107515716D02*
X141190475Y-107630001D01*
X141190475Y-107630001D02*
X141228571Y-107706192D01*
X141228571Y-107706192D02*
X141266666Y-107744287D01*
X141266666Y-107744287D02*
X141342856Y-107782382D01*
X141342856Y-107782382D02*
X141647618Y-107782382D01*
X140847618Y-107744287D02*
X140238095Y-107744287D01*
X140238095Y-107972859D02*
X140847618Y-107972859D01*
X139704761Y-107363335D02*
X139552380Y-107363335D01*
X139552380Y-107363335D02*
X139476190Y-107401430D01*
X139476190Y-107401430D02*
X139399999Y-107477620D01*
X139399999Y-107477620D02*
X139361904Y-107630001D01*
X139361904Y-107630001D02*
X139361904Y-107896668D01*
X139361904Y-107896668D02*
X139399999Y-108049049D01*
X139399999Y-108049049D02*
X139476190Y-108125240D01*
X139476190Y-108125240D02*
X139552380Y-108163335D01*
X139552380Y-108163335D02*
X139704761Y-108163335D01*
X139704761Y-108163335D02*
X139780952Y-108125240D01*
X139780952Y-108125240D02*
X139857142Y-108049049D01*
X139857142Y-108049049D02*
X139895238Y-107896668D01*
X139895238Y-107896668D02*
X139895238Y-107630001D01*
X139895238Y-107630001D02*
X139857142Y-107477620D01*
X139857142Y-107477620D02*
X139780952Y-107401430D01*
X139780952Y-107401430D02*
X139704761Y-107363335D01*
X139019047Y-107363335D02*
X139019047Y-108010954D01*
X139019047Y-108010954D02*
X138980952Y-108087144D01*
X138980952Y-108087144D02*
X138942857Y-108125240D01*
X138942857Y-108125240D02*
X138866666Y-108163335D01*
X138866666Y-108163335D02*
X138714285Y-108163335D01*
X138714285Y-108163335D02*
X138638095Y-108125240D01*
X138638095Y-108125240D02*
X138600000Y-108087144D01*
X138600000Y-108087144D02*
X138561904Y-108010954D01*
X138561904Y-108010954D02*
X138561904Y-107363335D01*
X138295238Y-107363335D02*
X137838095Y-107363335D01*
X138066667Y-108163335D02*
X138066667Y-107363335D01*
X137761905Y-108239525D02*
X137152381Y-108239525D01*
X136504761Y-108163335D02*
X136771428Y-107782382D01*
X136961904Y-108163335D02*
X136961904Y-107363335D01*
X136961904Y-107363335D02*
X136657142Y-107363335D01*
X136657142Y-107363335D02*
X136580952Y-107401430D01*
X136580952Y-107401430D02*
X136542857Y-107439525D01*
X136542857Y-107439525D02*
X136504761Y-107515716D01*
X136504761Y-107515716D02*
X136504761Y-107630001D01*
X136504761Y-107630001D02*
X136542857Y-107706192D01*
X136542857Y-107706192D02*
X136580952Y-107744287D01*
X136580952Y-107744287D02*
X136657142Y-107782382D01*
X136657142Y-107782382D02*
X136961904Y-107782382D01*
X136161904Y-107744287D02*
X135895238Y-107744287D01*
X135780952Y-108163335D02*
X136161904Y-108163335D01*
X136161904Y-108163335D02*
X136161904Y-107363335D01*
X136161904Y-107363335D02*
X135780952Y-107363335D01*
X135438094Y-108163335D02*
X135438094Y-107363335D01*
X135438094Y-107363335D02*
X135247618Y-107363335D01*
X135247618Y-107363335D02*
X135133332Y-107401430D01*
X135133332Y-107401430D02*
X135057142Y-107477620D01*
X135057142Y-107477620D02*
X135019047Y-107553811D01*
X135019047Y-107553811D02*
X134980951Y-107706192D01*
X134980951Y-107706192D02*
X134980951Y-107820478D01*
X134980951Y-107820478D02*
X135019047Y-107972859D01*
X135019047Y-107972859D02*
X135057142Y-108049049D01*
X135057142Y-108049049D02*
X135133332Y-108125240D01*
X135133332Y-108125240D02*
X135247618Y-108163335D01*
X135247618Y-108163335D02*
X135438094Y-108163335D01*
X133419046Y-108163335D02*
X133419046Y-107363335D01*
X133038094Y-107744287D02*
X132428571Y-107744287D01*
X132428571Y-107972859D02*
X133038094Y-107972859D01*
X131895237Y-107363335D02*
X131742856Y-107363335D01*
X131742856Y-107363335D02*
X131666666Y-107401430D01*
X131666666Y-107401430D02*
X131590475Y-107477620D01*
X131590475Y-107477620D02*
X131552380Y-107630001D01*
X131552380Y-107630001D02*
X131552380Y-107896668D01*
X131552380Y-107896668D02*
X131590475Y-108049049D01*
X131590475Y-108049049D02*
X131666666Y-108125240D01*
X131666666Y-108125240D02*
X131742856Y-108163335D01*
X131742856Y-108163335D02*
X131895237Y-108163335D01*
X131895237Y-108163335D02*
X131971428Y-108125240D01*
X131971428Y-108125240D02*
X132047618Y-108049049D01*
X132047618Y-108049049D02*
X132085714Y-107896668D01*
X132085714Y-107896668D02*
X132085714Y-107630001D01*
X132085714Y-107630001D02*
X132047618Y-107477620D01*
X132047618Y-107477620D02*
X131971428Y-107401430D01*
X131971428Y-107401430D02*
X131895237Y-107363335D01*
X131209523Y-107363335D02*
X131209523Y-108010954D01*
X131209523Y-108010954D02*
X131171428Y-108087144D01*
X131171428Y-108087144D02*
X131133333Y-108125240D01*
X131133333Y-108125240D02*
X131057142Y-108163335D01*
X131057142Y-108163335D02*
X130904761Y-108163335D01*
X130904761Y-108163335D02*
X130828571Y-108125240D01*
X130828571Y-108125240D02*
X130790476Y-108087144D01*
X130790476Y-108087144D02*
X130752380Y-108010954D01*
X130752380Y-108010954D02*
X130752380Y-107363335D01*
X130485714Y-107363335D02*
X130028571Y-107363335D01*
X130257143Y-108163335D02*
X130257143Y-107363335D01*
X129952381Y-108239525D02*
X129342857Y-108239525D01*
X129152380Y-108163335D02*
X129152380Y-107363335D01*
X128314285Y-108163335D02*
X128580952Y-107782382D01*
X128771428Y-108163335D02*
X128771428Y-107363335D01*
X128771428Y-107363335D02*
X128466666Y-107363335D01*
X128466666Y-107363335D02*
X128390476Y-107401430D01*
X128390476Y-107401430D02*
X128352381Y-107439525D01*
X128352381Y-107439525D02*
X128314285Y-107515716D01*
X128314285Y-107515716D02*
X128314285Y-107630001D01*
X128314285Y-107630001D02*
X128352381Y-107706192D01*
X128352381Y-107706192D02*
X128390476Y-107744287D01*
X128390476Y-107744287D02*
X128466666Y-107782382D01*
X128466666Y-107782382D02*
X128771428Y-107782382D01*
X140999999Y-109563335D02*
X140733332Y-110363335D01*
X140733332Y-110363335D02*
X140466666Y-109563335D01*
X140199999Y-109944287D02*
X139590476Y-109944287D01*
X139590476Y-110172859D02*
X140199999Y-110172859D01*
X139285714Y-109563335D02*
X138790476Y-109563335D01*
X138790476Y-109563335D02*
X139057142Y-109868097D01*
X139057142Y-109868097D02*
X138942857Y-109868097D01*
X138942857Y-109868097D02*
X138866666Y-109906192D01*
X138866666Y-109906192D02*
X138828571Y-109944287D01*
X138828571Y-109944287D02*
X138790476Y-110020478D01*
X138790476Y-110020478D02*
X138790476Y-110210954D01*
X138790476Y-110210954D02*
X138828571Y-110287144D01*
X138828571Y-110287144D02*
X138866666Y-110325240D01*
X138866666Y-110325240D02*
X138942857Y-110363335D01*
X138942857Y-110363335D02*
X139171428Y-110363335D01*
X139171428Y-110363335D02*
X139247619Y-110325240D01*
X139247619Y-110325240D02*
X139285714Y-110287144D01*
X138561904Y-109563335D02*
X138295237Y-110363335D01*
X138295237Y-110363335D02*
X138028571Y-109563335D01*
X137838095Y-109563335D02*
X137342857Y-109563335D01*
X137342857Y-109563335D02*
X137609523Y-109868097D01*
X137609523Y-109868097D02*
X137495238Y-109868097D01*
X137495238Y-109868097D02*
X137419047Y-109906192D01*
X137419047Y-109906192D02*
X137380952Y-109944287D01*
X137380952Y-109944287D02*
X137342857Y-110020478D01*
X137342857Y-110020478D02*
X137342857Y-110210954D01*
X137342857Y-110210954D02*
X137380952Y-110287144D01*
X137380952Y-110287144D02*
X137419047Y-110325240D01*
X137419047Y-110325240D02*
X137495238Y-110363335D01*
X137495238Y-110363335D02*
X137723809Y-110363335D01*
X137723809Y-110363335D02*
X137800000Y-110325240D01*
X137800000Y-110325240D02*
X137838095Y-110287144D01*
X135361904Y-109601430D02*
X135438094Y-109563335D01*
X135438094Y-109563335D02*
X135552380Y-109563335D01*
X135552380Y-109563335D02*
X135666666Y-109601430D01*
X135666666Y-109601430D02*
X135742856Y-109677620D01*
X135742856Y-109677620D02*
X135780951Y-109753811D01*
X135780951Y-109753811D02*
X135819047Y-109906192D01*
X135819047Y-109906192D02*
X135819047Y-110020478D01*
X135819047Y-110020478D02*
X135780951Y-110172859D01*
X135780951Y-110172859D02*
X135742856Y-110249049D01*
X135742856Y-110249049D02*
X135666666Y-110325240D01*
X135666666Y-110325240D02*
X135552380Y-110363335D01*
X135552380Y-110363335D02*
X135476189Y-110363335D01*
X135476189Y-110363335D02*
X135361904Y-110325240D01*
X135361904Y-110325240D02*
X135323808Y-110287144D01*
X135323808Y-110287144D02*
X135323808Y-110020478D01*
X135323808Y-110020478D02*
X135476189Y-110020478D01*
X134523808Y-110363335D02*
X134790475Y-109982382D01*
X134980951Y-110363335D02*
X134980951Y-109563335D01*
X134980951Y-109563335D02*
X134676189Y-109563335D01*
X134676189Y-109563335D02*
X134599999Y-109601430D01*
X134599999Y-109601430D02*
X134561904Y-109639525D01*
X134561904Y-109639525D02*
X134523808Y-109715716D01*
X134523808Y-109715716D02*
X134523808Y-109830001D01*
X134523808Y-109830001D02*
X134561904Y-109906192D01*
X134561904Y-109906192D02*
X134599999Y-109944287D01*
X134599999Y-109944287D02*
X134676189Y-109982382D01*
X134676189Y-109982382D02*
X134980951Y-109982382D01*
X133609523Y-109525240D02*
X134295237Y-110553811D01*
X132923809Y-109601430D02*
X132999999Y-109563335D01*
X132999999Y-109563335D02*
X133114285Y-109563335D01*
X133114285Y-109563335D02*
X133228571Y-109601430D01*
X133228571Y-109601430D02*
X133304761Y-109677620D01*
X133304761Y-109677620D02*
X133342856Y-109753811D01*
X133342856Y-109753811D02*
X133380952Y-109906192D01*
X133380952Y-109906192D02*
X133380952Y-110020478D01*
X133380952Y-110020478D02*
X133342856Y-110172859D01*
X133342856Y-110172859D02*
X133304761Y-110249049D01*
X133304761Y-110249049D02*
X133228571Y-110325240D01*
X133228571Y-110325240D02*
X133114285Y-110363335D01*
X133114285Y-110363335D02*
X133038094Y-110363335D01*
X133038094Y-110363335D02*
X132923809Y-110325240D01*
X132923809Y-110325240D02*
X132885713Y-110287144D01*
X132885713Y-110287144D02*
X132885713Y-110020478D01*
X132885713Y-110020478D02*
X133038094Y-110020478D01*
X132542856Y-110363335D02*
X132542856Y-109563335D01*
X132161904Y-109944287D02*
X131552381Y-109944287D01*
X131552381Y-110172859D02*
X132161904Y-110172859D01*
X130752381Y-109601430D02*
X130828571Y-109563335D01*
X130828571Y-109563335D02*
X130942857Y-109563335D01*
X130942857Y-109563335D02*
X131057143Y-109601430D01*
X131057143Y-109601430D02*
X131133333Y-109677620D01*
X131133333Y-109677620D02*
X131171428Y-109753811D01*
X131171428Y-109753811D02*
X131209524Y-109906192D01*
X131209524Y-109906192D02*
X131209524Y-110020478D01*
X131209524Y-110020478D02*
X131171428Y-110172859D01*
X131171428Y-110172859D02*
X131133333Y-110249049D01*
X131133333Y-110249049D02*
X131057143Y-110325240D01*
X131057143Y-110325240D02*
X130942857Y-110363335D01*
X130942857Y-110363335D02*
X130866666Y-110363335D01*
X130866666Y-110363335D02*
X130752381Y-110325240D01*
X130752381Y-110325240D02*
X130714285Y-110287144D01*
X130714285Y-110287144D02*
X130714285Y-110020478D01*
X130714285Y-110020478D02*
X130866666Y-110020478D01*
X130371428Y-110363335D02*
X130371428Y-109563335D01*
X130371428Y-109563335D02*
X129914285Y-110363335D01*
X129914285Y-110363335D02*
X129914285Y-109563335D01*
X129533333Y-110363335D02*
X129533333Y-109563335D01*
X129533333Y-109563335D02*
X129342857Y-109563335D01*
X129342857Y-109563335D02*
X129228571Y-109601430D01*
X129228571Y-109601430D02*
X129152381Y-109677620D01*
X129152381Y-109677620D02*
X129114286Y-109753811D01*
X129114286Y-109753811D02*
X129076190Y-109906192D01*
X129076190Y-109906192D02*
X129076190Y-110020478D01*
X129076190Y-110020478D02*
X129114286Y-110172859D01*
X129114286Y-110172859D02*
X129152381Y-110249049D01*
X129152381Y-110249049D02*
X129228571Y-110325240D01*
X129228571Y-110325240D02*
X129342857Y-110363335D01*
X129342857Y-110363335D02*
X129533333Y-110363335D01*
X147566666Y-111753335D02*
X147299999Y-112553335D01*
X147299999Y-112553335D02*
X147033333Y-111753335D01*
X147928570Y-115093335D02*
X147928570Y-114293335D01*
X147928570Y-114293335D02*
X147471427Y-115093335D01*
X147471427Y-115093335D02*
X147471427Y-114293335D01*
X146633332Y-115017144D02*
X146671428Y-115055240D01*
X146671428Y-115055240D02*
X146785713Y-115093335D01*
X146785713Y-115093335D02*
X146861904Y-115093335D01*
X146861904Y-115093335D02*
X146976190Y-115055240D01*
X146976190Y-115055240D02*
X147052380Y-114979049D01*
X147052380Y-114979049D02*
X147090475Y-114902859D01*
X147090475Y-114902859D02*
X147128571Y-114750478D01*
X147128571Y-114750478D02*
X147128571Y-114636192D01*
X147128571Y-114636192D02*
X147090475Y-114483811D01*
X147090475Y-114483811D02*
X147052380Y-114407620D01*
X147052380Y-114407620D02*
X146976190Y-114331430D01*
X146976190Y-114331430D02*
X146861904Y-114293335D01*
X146861904Y-114293335D02*
X146785713Y-114293335D01*
X146785713Y-114293335D02*
X146671428Y-114331430D01*
X146671428Y-114331430D02*
X146633332Y-114369525D01*
X147090476Y-116871430D02*
X147166666Y-116833335D01*
X147166666Y-116833335D02*
X147280952Y-116833335D01*
X147280952Y-116833335D02*
X147395238Y-116871430D01*
X147395238Y-116871430D02*
X147471428Y-116947620D01*
X147471428Y-116947620D02*
X147509523Y-117023811D01*
X147509523Y-117023811D02*
X147547619Y-117176192D01*
X147547619Y-117176192D02*
X147547619Y-117290478D01*
X147547619Y-117290478D02*
X147509523Y-117442859D01*
X147509523Y-117442859D02*
X147471428Y-117519049D01*
X147471428Y-117519049D02*
X147395238Y-117595240D01*
X147395238Y-117595240D02*
X147280952Y-117633335D01*
X147280952Y-117633335D02*
X147204761Y-117633335D01*
X147204761Y-117633335D02*
X147090476Y-117595240D01*
X147090476Y-117595240D02*
X147052380Y-117557144D01*
X147052380Y-117557144D02*
X147052380Y-117290478D01*
X147052380Y-117290478D02*
X147204761Y-117290478D01*
X147585714Y-119754287D02*
X147852380Y-119754287D01*
X147852380Y-120173335D02*
X147852380Y-119373335D01*
X147852380Y-119373335D02*
X147471428Y-119373335D01*
X146900000Y-119754287D02*
X146785714Y-119792382D01*
X146785714Y-119792382D02*
X146747619Y-119830478D01*
X146747619Y-119830478D02*
X146709523Y-119906668D01*
X146709523Y-119906668D02*
X146709523Y-120020954D01*
X146709523Y-120020954D02*
X146747619Y-120097144D01*
X146747619Y-120097144D02*
X146785714Y-120135240D01*
X146785714Y-120135240D02*
X146861904Y-120173335D01*
X146861904Y-120173335D02*
X147166666Y-120173335D01*
X147166666Y-120173335D02*
X147166666Y-119373335D01*
X147166666Y-119373335D02*
X146900000Y-119373335D01*
X146900000Y-119373335D02*
X146823809Y-119411430D01*
X146823809Y-119411430D02*
X146785714Y-119449525D01*
X146785714Y-119449525D02*
X146747619Y-119525716D01*
X146747619Y-119525716D02*
X146747619Y-119601906D01*
X146747619Y-119601906D02*
X146785714Y-119678097D01*
X146785714Y-119678097D02*
X146823809Y-119716192D01*
X146823809Y-119716192D02*
X146900000Y-119754287D01*
X146900000Y-119754287D02*
X147166666Y-119754287D01*
X156190476Y-124863335D02*
X156190476Y-125434763D01*
X156190476Y-125434763D02*
X156228571Y-125549049D01*
X156228571Y-125549049D02*
X156304762Y-125625240D01*
X156304762Y-125625240D02*
X156419047Y-125663335D01*
X156419047Y-125663335D02*
X156495238Y-125663335D01*
X155847619Y-124939525D02*
X155809523Y-124901430D01*
X155809523Y-124901430D02*
X155733333Y-124863335D01*
X155733333Y-124863335D02*
X155542857Y-124863335D01*
X155542857Y-124863335D02*
X155466666Y-124901430D01*
X155466666Y-124901430D02*
X155428571Y-124939525D01*
X155428571Y-124939525D02*
X155390476Y-125015716D01*
X155390476Y-125015716D02*
X155390476Y-125091906D01*
X155390476Y-125091906D02*
X155428571Y-125206192D01*
X155428571Y-125206192D02*
X155885714Y-125663335D01*
X155885714Y-125663335D02*
X155390476Y-125663335D01*
X154476190Y-125434763D02*
X154095237Y-125434763D01*
X154552380Y-125663335D02*
X154285713Y-124863335D01*
X154285713Y-124863335D02*
X154019047Y-125663335D01*
X153599999Y-124863335D02*
X153523809Y-124863335D01*
X153523809Y-124863335D02*
X153447618Y-124901430D01*
X153447618Y-124901430D02*
X153409523Y-124939525D01*
X153409523Y-124939525D02*
X153371428Y-125015716D01*
X153371428Y-125015716D02*
X153333333Y-125168097D01*
X153333333Y-125168097D02*
X153333333Y-125358573D01*
X153333333Y-125358573D02*
X153371428Y-125510954D01*
X153371428Y-125510954D02*
X153409523Y-125587144D01*
X153409523Y-125587144D02*
X153447618Y-125625240D01*
X153447618Y-125625240D02*
X153523809Y-125663335D01*
X153523809Y-125663335D02*
X153599999Y-125663335D01*
X153599999Y-125663335D02*
X153676190Y-125625240D01*
X153676190Y-125625240D02*
X153714285Y-125587144D01*
X153714285Y-125587144D02*
X153752380Y-125510954D01*
X153752380Y-125510954D02*
X153790476Y-125358573D01*
X153790476Y-125358573D02*
X153790476Y-125168097D01*
X153790476Y-125168097D02*
X153752380Y-125015716D01*
X153752380Y-125015716D02*
X153714285Y-124939525D01*
X153714285Y-124939525D02*
X153676190Y-124901430D01*
X153676190Y-124901430D02*
X153599999Y-124863335D01*
X152380951Y-125663335D02*
X152380951Y-124863335D01*
X151542856Y-125663335D02*
X151809523Y-125282382D01*
X151999999Y-125663335D02*
X151999999Y-124863335D01*
X151999999Y-124863335D02*
X151695237Y-124863335D01*
X151695237Y-124863335D02*
X151619047Y-124901430D01*
X151619047Y-124901430D02*
X151580952Y-124939525D01*
X151580952Y-124939525D02*
X151542856Y-125015716D01*
X151542856Y-125015716D02*
X151542856Y-125130001D01*
X151542856Y-125130001D02*
X151580952Y-125206192D01*
X151580952Y-125206192D02*
X151619047Y-125244287D01*
X151619047Y-125244287D02*
X151695237Y-125282382D01*
X151695237Y-125282382D02*
X151999999Y-125282382D01*
X158326190Y-109063335D02*
X158326190Y-109710954D01*
X158326190Y-109710954D02*
X158288095Y-109787144D01*
X158288095Y-109787144D02*
X158250000Y-109825240D01*
X158250000Y-109825240D02*
X158173809Y-109863335D01*
X158173809Y-109863335D02*
X158021428Y-109863335D01*
X158021428Y-109863335D02*
X157945238Y-109825240D01*
X157945238Y-109825240D02*
X157907143Y-109787144D01*
X157907143Y-109787144D02*
X157869047Y-109710954D01*
X157869047Y-109710954D02*
X157869047Y-109063335D01*
X157526191Y-109139525D02*
X157488095Y-109101430D01*
X157488095Y-109101430D02*
X157411905Y-109063335D01*
X157411905Y-109063335D02*
X157221429Y-109063335D01*
X157221429Y-109063335D02*
X157145238Y-109101430D01*
X157145238Y-109101430D02*
X157107143Y-109139525D01*
X157107143Y-109139525D02*
X157069048Y-109215716D01*
X157069048Y-109215716D02*
X157069048Y-109291906D01*
X157069048Y-109291906D02*
X157107143Y-109406192D01*
X157107143Y-109406192D02*
X157564286Y-109863335D01*
X157564286Y-109863335D02*
X157069048Y-109863335D01*
X156116666Y-109863335D02*
X156116666Y-109063335D01*
X155278571Y-109863335D02*
X155545238Y-109482382D01*
X155735714Y-109863335D02*
X155735714Y-109063335D01*
X155735714Y-109063335D02*
X155430952Y-109063335D01*
X155430952Y-109063335D02*
X155354762Y-109101430D01*
X155354762Y-109101430D02*
X155316667Y-109139525D01*
X155316667Y-109139525D02*
X155278571Y-109215716D01*
X155278571Y-109215716D02*
X155278571Y-109330001D01*
X155278571Y-109330001D02*
X155316667Y-109406192D01*
X155316667Y-109406192D02*
X155354762Y-109444287D01*
X155354762Y-109444287D02*
X155430952Y-109482382D01*
X155430952Y-109482382D02*
X155735714Y-109482382D01*
X154173809Y-109063335D02*
X154021428Y-109063335D01*
X154021428Y-109063335D02*
X153945238Y-109101430D01*
X153945238Y-109101430D02*
X153869047Y-109177620D01*
X153869047Y-109177620D02*
X153830952Y-109330001D01*
X153830952Y-109330001D02*
X153830952Y-109596668D01*
X153830952Y-109596668D02*
X153869047Y-109749049D01*
X153869047Y-109749049D02*
X153945238Y-109825240D01*
X153945238Y-109825240D02*
X154021428Y-109863335D01*
X154021428Y-109863335D02*
X154173809Y-109863335D01*
X154173809Y-109863335D02*
X154250000Y-109825240D01*
X154250000Y-109825240D02*
X154326190Y-109749049D01*
X154326190Y-109749049D02*
X154364286Y-109596668D01*
X154364286Y-109596668D02*
X154364286Y-109330001D01*
X154364286Y-109330001D02*
X154326190Y-109177620D01*
X154326190Y-109177620D02*
X154250000Y-109101430D01*
X154250000Y-109101430D02*
X154173809Y-109063335D01*
X153488095Y-109863335D02*
X153488095Y-109063335D01*
X153488095Y-109063335D02*
X153183333Y-109063335D01*
X153183333Y-109063335D02*
X153107143Y-109101430D01*
X153107143Y-109101430D02*
X153069048Y-109139525D01*
X153069048Y-109139525D02*
X153030952Y-109215716D01*
X153030952Y-109215716D02*
X153030952Y-109330001D01*
X153030952Y-109330001D02*
X153069048Y-109406192D01*
X153069048Y-109406192D02*
X153107143Y-109444287D01*
X153107143Y-109444287D02*
X153183333Y-109482382D01*
X153183333Y-109482382D02*
X153488095Y-109482382D01*
X152802381Y-109063335D02*
X152345238Y-109063335D01*
X152573810Y-109863335D02*
X152573810Y-109063335D01*
X151659524Y-109863335D02*
X152116667Y-109863335D01*
X151888095Y-109863335D02*
X151888095Y-109063335D01*
X151888095Y-109063335D02*
X151964286Y-109177620D01*
X151964286Y-109177620D02*
X152040476Y-109253811D01*
X152040476Y-109253811D02*
X152116667Y-109291906D01*
X151164285Y-109063335D02*
X151088095Y-109063335D01*
X151088095Y-109063335D02*
X151011904Y-109101430D01*
X151011904Y-109101430D02*
X150973809Y-109139525D01*
X150973809Y-109139525D02*
X150935714Y-109215716D01*
X150935714Y-109215716D02*
X150897619Y-109368097D01*
X150897619Y-109368097D02*
X150897619Y-109558573D01*
X150897619Y-109558573D02*
X150935714Y-109710954D01*
X150935714Y-109710954D02*
X150973809Y-109787144D01*
X150973809Y-109787144D02*
X151011904Y-109825240D01*
X151011904Y-109825240D02*
X151088095Y-109863335D01*
X151088095Y-109863335D02*
X151164285Y-109863335D01*
X151164285Y-109863335D02*
X151240476Y-109825240D01*
X151240476Y-109825240D02*
X151278571Y-109787144D01*
X151278571Y-109787144D02*
X151316666Y-109710954D01*
X151316666Y-109710954D02*
X151354762Y-109558573D01*
X151354762Y-109558573D02*
X151354762Y-109368097D01*
X151354762Y-109368097D02*
X151316666Y-109215716D01*
X151316666Y-109215716D02*
X151278571Y-109139525D01*
X151278571Y-109139525D02*
X151240476Y-109101430D01*
X151240476Y-109101430D02*
X151164285Y-109063335D01*
X150135714Y-109863335D02*
X150592857Y-109863335D01*
X150364285Y-109863335D02*
X150364285Y-109063335D01*
X150364285Y-109063335D02*
X150440476Y-109177620D01*
X150440476Y-109177620D02*
X150516666Y-109253811D01*
X150516666Y-109253811D02*
X150592857Y-109291906D01*
X160990476Y-111791430D02*
X161066666Y-111753335D01*
X161066666Y-111753335D02*
X161180952Y-111753335D01*
X161180952Y-111753335D02*
X161295238Y-111791430D01*
X161295238Y-111791430D02*
X161371428Y-111867620D01*
X161371428Y-111867620D02*
X161409523Y-111943811D01*
X161409523Y-111943811D02*
X161447619Y-112096192D01*
X161447619Y-112096192D02*
X161447619Y-112210478D01*
X161447619Y-112210478D02*
X161409523Y-112362859D01*
X161409523Y-112362859D02*
X161371428Y-112439049D01*
X161371428Y-112439049D02*
X161295238Y-112515240D01*
X161295238Y-112515240D02*
X161180952Y-112553335D01*
X161180952Y-112553335D02*
X161104761Y-112553335D01*
X161104761Y-112553335D02*
X160990476Y-112515240D01*
X160990476Y-112515240D02*
X160952380Y-112477144D01*
X160952380Y-112477144D02*
X160952380Y-112210478D01*
X160952380Y-112210478D02*
X161104761Y-112210478D01*
X161828570Y-115093335D02*
X161828570Y-114293335D01*
X161828570Y-114293335D02*
X161371427Y-115093335D01*
X161371427Y-115093335D02*
X161371427Y-114293335D01*
X160533332Y-115017144D02*
X160571428Y-115055240D01*
X160571428Y-115055240D02*
X160685713Y-115093335D01*
X160685713Y-115093335D02*
X160761904Y-115093335D01*
X160761904Y-115093335D02*
X160876190Y-115055240D01*
X160876190Y-115055240D02*
X160952380Y-114979049D01*
X160952380Y-114979049D02*
X160990475Y-114902859D01*
X160990475Y-114902859D02*
X161028571Y-114750478D01*
X161028571Y-114750478D02*
X161028571Y-114636192D01*
X161028571Y-114636192D02*
X160990475Y-114483811D01*
X160990475Y-114483811D02*
X160952380Y-114407620D01*
X160952380Y-114407620D02*
X160876190Y-114331430D01*
X160876190Y-114331430D02*
X160761904Y-114293335D01*
X160761904Y-114293335D02*
X160685713Y-114293335D01*
X160685713Y-114293335D02*
X160571428Y-114331430D01*
X160571428Y-114331430D02*
X160533332Y-114369525D01*
X161828570Y-117633335D02*
X161828570Y-116833335D01*
X161828570Y-116833335D02*
X161371427Y-117633335D01*
X161371427Y-117633335D02*
X161371427Y-116833335D01*
X160533332Y-117557144D02*
X160571428Y-117595240D01*
X160571428Y-117595240D02*
X160685713Y-117633335D01*
X160685713Y-117633335D02*
X160761904Y-117633335D01*
X160761904Y-117633335D02*
X160876190Y-117595240D01*
X160876190Y-117595240D02*
X160952380Y-117519049D01*
X160952380Y-117519049D02*
X160990475Y-117442859D01*
X160990475Y-117442859D02*
X161028571Y-117290478D01*
X161028571Y-117290478D02*
X161028571Y-117176192D01*
X161028571Y-117176192D02*
X160990475Y-117023811D01*
X160990475Y-117023811D02*
X160952380Y-116947620D01*
X160952380Y-116947620D02*
X160876190Y-116871430D01*
X160876190Y-116871430D02*
X160761904Y-116833335D01*
X160761904Y-116833335D02*
X160685713Y-116833335D01*
X160685713Y-116833335D02*
X160571428Y-116871430D01*
X160571428Y-116871430D02*
X160533332Y-116909525D01*
X161999999Y-119373335D02*
X161847618Y-119373335D01*
X161847618Y-119373335D02*
X161771428Y-119411430D01*
X161771428Y-119411430D02*
X161695237Y-119487620D01*
X161695237Y-119487620D02*
X161657142Y-119640001D01*
X161657142Y-119640001D02*
X161657142Y-119906668D01*
X161657142Y-119906668D02*
X161695237Y-120059049D01*
X161695237Y-120059049D02*
X161771428Y-120135240D01*
X161771428Y-120135240D02*
X161847618Y-120173335D01*
X161847618Y-120173335D02*
X161999999Y-120173335D01*
X161999999Y-120173335D02*
X162076190Y-120135240D01*
X162076190Y-120135240D02*
X162152380Y-120059049D01*
X162152380Y-120059049D02*
X162190476Y-119906668D01*
X162190476Y-119906668D02*
X162190476Y-119640001D01*
X162190476Y-119640001D02*
X162152380Y-119487620D01*
X162152380Y-119487620D02*
X162076190Y-119411430D01*
X162076190Y-119411430D02*
X161999999Y-119373335D01*
X161314285Y-119373335D02*
X161314285Y-120020954D01*
X161314285Y-120020954D02*
X161276190Y-120097144D01*
X161276190Y-120097144D02*
X161238095Y-120135240D01*
X161238095Y-120135240D02*
X161161904Y-120173335D01*
X161161904Y-120173335D02*
X161009523Y-120173335D01*
X161009523Y-120173335D02*
X160933333Y-120135240D01*
X160933333Y-120135240D02*
X160895238Y-120097144D01*
X160895238Y-120097144D02*
X160857142Y-120020954D01*
X160857142Y-120020954D02*
X160857142Y-119373335D01*
X160590476Y-119373335D02*
X160133333Y-119373335D01*
X160361905Y-120173335D02*
X160361905Y-119373335D01*
X113363335Y-130247619D02*
X112982382Y-129980952D01*
X113363335Y-129790476D02*
X112563335Y-129790476D01*
X112563335Y-129790476D02*
X112563335Y-130095238D01*
X112563335Y-130095238D02*
X112601430Y-130171428D01*
X112601430Y-130171428D02*
X112639525Y-130209523D01*
X112639525Y-130209523D02*
X112715716Y-130247619D01*
X112715716Y-130247619D02*
X112830001Y-130247619D01*
X112830001Y-130247619D02*
X112906192Y-130209523D01*
X112906192Y-130209523D02*
X112944287Y-130171428D01*
X112944287Y-130171428D02*
X112982382Y-130095238D01*
X112982382Y-130095238D02*
X112982382Y-129790476D01*
X115363335Y-129371429D02*
X114563335Y-129371429D01*
X114563335Y-129371429D02*
X115363335Y-129828572D01*
X115363335Y-129828572D02*
X114563335Y-129828572D01*
X115287144Y-130666667D02*
X115325240Y-130628571D01*
X115325240Y-130628571D02*
X115363335Y-130514286D01*
X115363335Y-130514286D02*
X115363335Y-130438095D01*
X115363335Y-130438095D02*
X115325240Y-130323809D01*
X115325240Y-130323809D02*
X115249049Y-130247619D01*
X115249049Y-130247619D02*
X115172859Y-130209524D01*
X115172859Y-130209524D02*
X115020478Y-130171428D01*
X115020478Y-130171428D02*
X114906192Y-130171428D01*
X114906192Y-130171428D02*
X114753811Y-130209524D01*
X114753811Y-130209524D02*
X114677620Y-130247619D01*
X114677620Y-130247619D02*
X114601430Y-130323809D01*
X114601430Y-130323809D02*
X114563335Y-130438095D01*
X114563335Y-130438095D02*
X114563335Y-130514286D01*
X114563335Y-130514286D02*
X114601430Y-130628571D01*
X114601430Y-130628571D02*
X114639525Y-130666667D01*
X116563335Y-129733333D02*
X117363335Y-130000000D01*
X117363335Y-130000000D02*
X116563335Y-130266666D01*
X118601430Y-129809523D02*
X118563335Y-129733333D01*
X118563335Y-129733333D02*
X118563335Y-129619047D01*
X118563335Y-129619047D02*
X118601430Y-129504761D01*
X118601430Y-129504761D02*
X118677620Y-129428571D01*
X118677620Y-129428571D02*
X118753811Y-129390476D01*
X118753811Y-129390476D02*
X118906192Y-129352380D01*
X118906192Y-129352380D02*
X119020478Y-129352380D01*
X119020478Y-129352380D02*
X119172859Y-129390476D01*
X119172859Y-129390476D02*
X119249049Y-129428571D01*
X119249049Y-129428571D02*
X119325240Y-129504761D01*
X119325240Y-129504761D02*
X119363335Y-129619047D01*
X119363335Y-129619047D02*
X119363335Y-129695238D01*
X119363335Y-129695238D02*
X119325240Y-129809523D01*
X119325240Y-129809523D02*
X119287144Y-129847619D01*
X119287144Y-129847619D02*
X119020478Y-129847619D01*
X119020478Y-129847619D02*
X119020478Y-129695238D01*
X119363335Y-130647619D02*
X118982382Y-130380952D01*
X119363335Y-130190476D02*
X118563335Y-130190476D01*
X118563335Y-130190476D02*
X118563335Y-130495238D01*
X118563335Y-130495238D02*
X118601430Y-130571428D01*
X118601430Y-130571428D02*
X118639525Y-130609523D01*
X118639525Y-130609523D02*
X118715716Y-130647619D01*
X118715716Y-130647619D02*
X118830001Y-130647619D01*
X118830001Y-130647619D02*
X118906192Y-130609523D01*
X118906192Y-130609523D02*
X118944287Y-130571428D01*
X118944287Y-130571428D02*
X118982382Y-130495238D01*
X118982382Y-130495238D02*
X118982382Y-130190476D01*
X126363335Y-130247619D02*
X125982382Y-129980952D01*
X126363335Y-129790476D02*
X125563335Y-129790476D01*
X125563335Y-129790476D02*
X125563335Y-130095238D01*
X125563335Y-130095238D02*
X125601430Y-130171428D01*
X125601430Y-130171428D02*
X125639525Y-130209523D01*
X125639525Y-130209523D02*
X125715716Y-130247619D01*
X125715716Y-130247619D02*
X125830001Y-130247619D01*
X125830001Y-130247619D02*
X125906192Y-130209523D01*
X125906192Y-130209523D02*
X125944287Y-130171428D01*
X125944287Y-130171428D02*
X125982382Y-130095238D01*
X125982382Y-130095238D02*
X125982382Y-129790476D01*
X128903334Y-130000000D02*
X128103334Y-130000000D01*
X151363335Y-130000000D02*
X150563335Y-130000000D01*
X153363335Y-129371429D02*
X152563335Y-129371429D01*
X152563335Y-129371429D02*
X153363335Y-129828572D01*
X153363335Y-129828572D02*
X152563335Y-129828572D01*
X153287144Y-130666667D02*
X153325240Y-130628571D01*
X153325240Y-130628571D02*
X153363335Y-130514286D01*
X153363335Y-130514286D02*
X153363335Y-130438095D01*
X153363335Y-130438095D02*
X153325240Y-130323809D01*
X153325240Y-130323809D02*
X153249049Y-130247619D01*
X153249049Y-130247619D02*
X153172859Y-130209524D01*
X153172859Y-130209524D02*
X153020478Y-130171428D01*
X153020478Y-130171428D02*
X152906192Y-130171428D01*
X152906192Y-130171428D02*
X152753811Y-130209524D01*
X152753811Y-130209524D02*
X152677620Y-130247619D01*
X152677620Y-130247619D02*
X152601430Y-130323809D01*
X152601430Y-130323809D02*
X152563335Y-130438095D01*
X152563335Y-130438095D02*
X152563335Y-130514286D01*
X152563335Y-130514286D02*
X152601430Y-130628571D01*
X152601430Y-130628571D02*
X152639525Y-130666667D01*
X154563335Y-129733333D02*
X155363335Y-130000000D01*
X155363335Y-130000000D02*
X154563335Y-130266666D01*
X156601430Y-130019047D02*
X156563335Y-129942857D01*
X156563335Y-129942857D02*
X156563335Y-129828571D01*
X156563335Y-129828571D02*
X156601430Y-129714285D01*
X156601430Y-129714285D02*
X156677620Y-129638095D01*
X156677620Y-129638095D02*
X156753811Y-129600000D01*
X156753811Y-129600000D02*
X156906192Y-129561904D01*
X156906192Y-129561904D02*
X157020478Y-129561904D01*
X157020478Y-129561904D02*
X157172859Y-129600000D01*
X157172859Y-129600000D02*
X157249049Y-129638095D01*
X157249049Y-129638095D02*
X157325240Y-129714285D01*
X157325240Y-129714285D02*
X157363335Y-129828571D01*
X157363335Y-129828571D02*
X157363335Y-129904762D01*
X157363335Y-129904762D02*
X157325240Y-130019047D01*
X157325240Y-130019047D02*
X157287144Y-130057143D01*
X157287144Y-130057143D02*
X157020478Y-130057143D01*
X157020478Y-130057143D02*
X157020478Y-129904762D01*
X157363335Y-130400000D02*
X156563335Y-130400000D01*
X142532143Y-102832728D02*
X142532143Y-101882728D01*
X142532143Y-101882728D02*
X142305953Y-101882728D01*
X142305953Y-101882728D02*
X142170238Y-101927966D01*
X142170238Y-101927966D02*
X142079762Y-102018442D01*
X142079762Y-102018442D02*
X142034524Y-102108918D01*
X142034524Y-102108918D02*
X141989286Y-102289870D01*
X141989286Y-102289870D02*
X141989286Y-102425585D01*
X141989286Y-102425585D02*
X142034524Y-102606537D01*
X142034524Y-102606537D02*
X142079762Y-102697013D01*
X142079762Y-102697013D02*
X142170238Y-102787490D01*
X142170238Y-102787490D02*
X142305953Y-102832728D01*
X142305953Y-102832728D02*
X142532143Y-102832728D01*
X141627381Y-102561299D02*
X141175000Y-102561299D01*
X141717857Y-102832728D02*
X141401191Y-101882728D01*
X141401191Y-101882728D02*
X141084524Y-102832728D01*
X140903571Y-101882728D02*
X140360714Y-101882728D01*
X140632143Y-102832728D02*
X140632143Y-101882728D01*
X140044047Y-102832728D02*
X140044047Y-101882728D01*
X140044047Y-101882728D02*
X139501190Y-102832728D01*
X139501190Y-102832728D02*
X139501190Y-101882728D01*
X139048809Y-102742251D02*
X139003571Y-102787490D01*
X139003571Y-102787490D02*
X139048809Y-102832728D01*
X139048809Y-102832728D02*
X139094047Y-102787490D01*
X139094047Y-102787490D02*
X139048809Y-102742251D01*
X139048809Y-102742251D02*
X139048809Y-102832728D01*
X139048809Y-102244632D02*
X139003571Y-102289870D01*
X139003571Y-102289870D02*
X139048809Y-102335109D01*
X139048809Y-102335109D02*
X139094047Y-102289870D01*
X139094047Y-102289870D02*
X139048809Y-102244632D01*
X139048809Y-102244632D02*
X139048809Y-102335109D01*
X137872618Y-102832728D02*
X137872618Y-101882728D01*
X137872618Y-101882728D02*
X137510713Y-101882728D01*
X137510713Y-101882728D02*
X137420237Y-101927966D01*
X137420237Y-101927966D02*
X137374999Y-101973204D01*
X137374999Y-101973204D02*
X137329761Y-102063680D01*
X137329761Y-102063680D02*
X137329761Y-102199394D01*
X137329761Y-102199394D02*
X137374999Y-102289870D01*
X137374999Y-102289870D02*
X137420237Y-102335109D01*
X137420237Y-102335109D02*
X137510713Y-102380347D01*
X137510713Y-102380347D02*
X137872618Y-102380347D01*
X136922618Y-102832728D02*
X136922618Y-101882728D01*
X136922618Y-101882728D02*
X136560713Y-101882728D01*
X136560713Y-101882728D02*
X136470237Y-101927966D01*
X136470237Y-101927966D02*
X136424999Y-101973204D01*
X136424999Y-101973204D02*
X136379761Y-102063680D01*
X136379761Y-102063680D02*
X136379761Y-102199394D01*
X136379761Y-102199394D02*
X136424999Y-102289870D01*
X136424999Y-102289870D02*
X136470237Y-102335109D01*
X136470237Y-102335109D02*
X136560713Y-102380347D01*
X136560713Y-102380347D02*
X136922618Y-102380347D01*
X135474999Y-101927966D02*
X135565475Y-101882728D01*
X135565475Y-101882728D02*
X135701189Y-101882728D01*
X135701189Y-101882728D02*
X135836904Y-101927966D01*
X135836904Y-101927966D02*
X135927380Y-102018442D01*
X135927380Y-102018442D02*
X135972618Y-102108918D01*
X135972618Y-102108918D02*
X136017856Y-102289870D01*
X136017856Y-102289870D02*
X136017856Y-102425585D01*
X136017856Y-102425585D02*
X135972618Y-102606537D01*
X135972618Y-102606537D02*
X135927380Y-102697013D01*
X135927380Y-102697013D02*
X135836904Y-102787490D01*
X135836904Y-102787490D02*
X135701189Y-102832728D01*
X135701189Y-102832728D02*
X135610713Y-102832728D01*
X135610713Y-102832728D02*
X135474999Y-102787490D01*
X135474999Y-102787490D02*
X135429761Y-102742251D01*
X135429761Y-102742251D02*
X135429761Y-102425585D01*
X135429761Y-102425585D02*
X135610713Y-102425585D01*
X135022618Y-102470823D02*
X134298809Y-102470823D01*
X133891666Y-102787490D02*
X133755952Y-102832728D01*
X133755952Y-102832728D02*
X133529761Y-102832728D01*
X133529761Y-102832728D02*
X133439285Y-102787490D01*
X133439285Y-102787490D02*
X133394047Y-102742251D01*
X133394047Y-102742251D02*
X133348809Y-102651775D01*
X133348809Y-102651775D02*
X133348809Y-102561299D01*
X133348809Y-102561299D02*
X133394047Y-102470823D01*
X133394047Y-102470823D02*
X133439285Y-102425585D01*
X133439285Y-102425585D02*
X133529761Y-102380347D01*
X133529761Y-102380347D02*
X133710714Y-102335109D01*
X133710714Y-102335109D02*
X133801190Y-102289870D01*
X133801190Y-102289870D02*
X133846428Y-102244632D01*
X133846428Y-102244632D02*
X133891666Y-102154156D01*
X133891666Y-102154156D02*
X133891666Y-102063680D01*
X133891666Y-102063680D02*
X133846428Y-101973204D01*
X133846428Y-101973204D02*
X133801190Y-101927966D01*
X133801190Y-101927966D02*
X133710714Y-101882728D01*
X133710714Y-101882728D02*
X133484523Y-101882728D01*
X133484523Y-101882728D02*
X133348809Y-101927966D01*
X132941666Y-102832728D02*
X132941666Y-102199394D01*
X132941666Y-101882728D02*
X132986904Y-101927966D01*
X132986904Y-101927966D02*
X132941666Y-101973204D01*
X132941666Y-101973204D02*
X132896428Y-101927966D01*
X132896428Y-101927966D02*
X132941666Y-101882728D01*
X132941666Y-101882728D02*
X132941666Y-101973204D01*
X132489285Y-102832728D02*
X132489285Y-102199394D01*
X132489285Y-102289870D02*
X132444047Y-102244632D01*
X132444047Y-102244632D02*
X132353571Y-102199394D01*
X132353571Y-102199394D02*
X132217856Y-102199394D01*
X132217856Y-102199394D02*
X132127380Y-102244632D01*
X132127380Y-102244632D02*
X132082142Y-102335109D01*
X132082142Y-102335109D02*
X132082142Y-102832728D01*
X132082142Y-102335109D02*
X132036904Y-102244632D01*
X132036904Y-102244632D02*
X131946428Y-102199394D01*
X131946428Y-102199394D02*
X131810714Y-102199394D01*
X131810714Y-102199394D02*
X131720237Y-102244632D01*
X131720237Y-102244632D02*
X131674999Y-102335109D01*
X131674999Y-102335109D02*
X131674999Y-102832728D01*
X130815475Y-102199394D02*
X130815475Y-102832728D01*
X131222618Y-102199394D02*
X131222618Y-102697013D01*
X131222618Y-102697013D02*
X131177380Y-102787490D01*
X131177380Y-102787490D02*
X131086904Y-102832728D01*
X131086904Y-102832728D02*
X130951189Y-102832728D01*
X130951189Y-102832728D02*
X130860713Y-102787490D01*
X130860713Y-102787490D02*
X130815475Y-102742251D01*
X130227380Y-102832728D02*
X130317856Y-102787490D01*
X130317856Y-102787490D02*
X130363094Y-102697013D01*
X130363094Y-102697013D02*
X130363094Y-101882728D01*
X129458332Y-102832728D02*
X129458332Y-102335109D01*
X129458332Y-102335109D02*
X129503570Y-102244632D01*
X129503570Y-102244632D02*
X129594046Y-102199394D01*
X129594046Y-102199394D02*
X129774999Y-102199394D01*
X129774999Y-102199394D02*
X129865475Y-102244632D01*
X129458332Y-102787490D02*
X129548808Y-102832728D01*
X129548808Y-102832728D02*
X129774999Y-102832728D01*
X129774999Y-102832728D02*
X129865475Y-102787490D01*
X129865475Y-102787490D02*
X129910713Y-102697013D01*
X129910713Y-102697013D02*
X129910713Y-102606537D01*
X129910713Y-102606537D02*
X129865475Y-102516061D01*
X129865475Y-102516061D02*
X129774999Y-102470823D01*
X129774999Y-102470823D02*
X129548808Y-102470823D01*
X129548808Y-102470823D02*
X129458332Y-102425585D01*
X129141665Y-102199394D02*
X128779761Y-102199394D01*
X129005951Y-101882728D02*
X129005951Y-102697013D01*
X129005951Y-102697013D02*
X128960713Y-102787490D01*
X128960713Y-102787490D02*
X128870237Y-102832728D01*
X128870237Y-102832728D02*
X128779761Y-102832728D01*
X128327380Y-102832728D02*
X128417856Y-102787490D01*
X128417856Y-102787490D02*
X128463094Y-102742251D01*
X128463094Y-102742251D02*
X128508332Y-102651775D01*
X128508332Y-102651775D02*
X128508332Y-102380347D01*
X128508332Y-102380347D02*
X128463094Y-102289870D01*
X128463094Y-102289870D02*
X128417856Y-102244632D01*
X128417856Y-102244632D02*
X128327380Y-102199394D01*
X128327380Y-102199394D02*
X128191665Y-102199394D01*
X128191665Y-102199394D02*
X128101189Y-102244632D01*
X128101189Y-102244632D02*
X128055951Y-102289870D01*
X128055951Y-102289870D02*
X128010713Y-102380347D01*
X128010713Y-102380347D02*
X128010713Y-102651775D01*
X128010713Y-102651775D02*
X128055951Y-102742251D01*
X128055951Y-102742251D02*
X128101189Y-102787490D01*
X128101189Y-102787490D02*
X128191665Y-102832728D01*
X128191665Y-102832728D02*
X128327380Y-102832728D01*
X127603570Y-102832728D02*
X127603570Y-102199394D01*
X127603570Y-102380347D02*
X127558332Y-102289870D01*
X127558332Y-102289870D02*
X127513094Y-102244632D01*
X127513094Y-102244632D02*
X127422618Y-102199394D01*
X127422618Y-102199394D02*
X127332141Y-102199394D01*
%LPC*%
D11*
%TO.C,J3*%
X126000000Y-127000000D03*
D12*
X128540000Y-127000000D03*
%TD*%
D13*
%TO.C,U1*%
X111940000Y-112190000D03*
D14*
X111940000Y-114730000D03*
X111940000Y-117270000D03*
X111940000Y-119810000D03*
X119560000Y-119810000D03*
X119560000Y-117270000D03*
X119560000Y-114730000D03*
X119560000Y-112190000D03*
%TD*%
D15*
%TO.C,J1*%
X113000000Y-127000000D03*
D16*
X115000000Y-127000000D03*
X117000000Y-127000000D03*
X119000000Y-127000000D03*
%TD*%
D14*
%TO.C,C2*%
X150440000Y-108000000D03*
X152940000Y-108000000D03*
%TD*%
%TO.C,C1*%
X111940000Y-108000000D03*
X114440000Y-108000000D03*
%TD*%
D13*
%TO.C,U2*%
X150440000Y-112190000D03*
D14*
X150440000Y-114730000D03*
X150440000Y-117270000D03*
X150440000Y-119810000D03*
X158060000Y-119810000D03*
X158060000Y-117270000D03*
X158060000Y-114730000D03*
X158060000Y-112190000D03*
%TD*%
D17*
%TO.C,H2*%
X165500000Y-103500000D03*
%TD*%
%TO.C,H3*%
X104500000Y-128500000D03*
%TD*%
%TO.C,H4*%
X165500000Y-128500000D03*
%TD*%
%TO.C,H1*%
X104500000Y-103500000D03*
%TD*%
D15*
%TO.C,J2*%
X151000000Y-127000000D03*
D16*
X153000000Y-127000000D03*
X155000000Y-127000000D03*
X157000000Y-127000000D03*
%TD*%
%LPD*%
M02*
