M48
; DRILL file KiCad 10.0.6 date 2026-09-24T22:51:20
; FORMAT={-:-/ absolute / metric / decimal}
; #@! TF.CreationDate,2026-09-24T22:51:20+07:00
; #@! TF.GenerationSoftware,Kicad,Pcbnew,10.0.6
; #@! TF.FileFunction,Plated,1,2,PTH
FMAT,2
METRIC
; #@! TA.AperFunction,Plated,PTH,ComponentDrill
T1C0.800
; #@! TA.AperFunction,Plated,PTH,ComponentDrill
T2C1.000
%
G90
G05
T1
X111.94Y-108.0
X111.94Y-112.19
X111.94Y-114.73
X111.94Y-117.27
X111.94Y-119.81
X113.0Y-127.0
X114.44Y-108.0
X115.0Y-127.0
X117.0Y-127.0
X119.0Y-127.0
X119.56Y-112.19
X119.56Y-114.73
X119.56Y-117.27
X119.56Y-119.81
X150.44Y-108.0
X150.44Y-112.19
X150.44Y-114.73
X150.44Y-117.27
X150.44Y-119.81
X151.0Y-127.0
X152.94Y-108.0
X153.0Y-127.0
X155.0Y-127.0
X157.0Y-127.0
X158.06Y-112.19
X158.06Y-114.73
X158.06Y-117.27
X158.06Y-119.81
T2
X126.0Y-127.0
X128.54Y-127.0
M30
