%TF.GenerationSoftware,KiCad,Pcbnew,10.0.6*%
%TF.CreationDate,2026-09-24T22:51:19+07:00*%
%TF.ProjectId,opt101_receiver,6f707431-3031-45f7-9265-636569766572,rev?*%
%TF.SameCoordinates,Original*%
%TF.FileFunction,Copper,L2,Bot*%
%TF.FilePolarity,Positive*%
%FSLAX46Y46*%
G04 Gerber Fmt 4.6, Leading zero omitted, Abs format (unit mm)*
G04 Created by KiCad (PCBNEW 10.0.6) date 2026-09-24 22:51:19*
%MOMM*%
%LPD*%
G01*
G04 APERTURE LIST*
G04 Aperture macros list*
%AMRoundRect*
0 Rectangle with rounded corners*
0 $1 Rounding radius*
0 $2 $3 $4 $5 $6 $7 $8 $9 X,Y pos of 4 corners*
0 Add a 4 corners polygon primitive as box body*
4,1,4,$2,$3,$4,$5,$6,$7,$8,$9,$2,$3,0*
0 Add four circle primitives for the rounded corners*
1,1,$1+$1,$2,$3*
1,1,$1+$1,$4,$5*
1,1,$1+$1,$6,$7*
1,1,$1+$1,$8,$9*
0 Add four rect primitives between the rounded corners*
20,1,$1+$1,$2,$3,$4,$5,0*
20,1,$1+$1,$4,$5,$6,$7,0*
20,1,$1+$1,$6,$7,$8,$9,0*
20,1,$1+$1,$8,$9,$2,$3,0*%
G04 Aperture macros list end*
%TA.AperFunction,ComponentPad*%
%ADD10R,1.700000X1.700000*%
%TD*%
%TA.AperFunction,ComponentPad*%
%ADD11C,1.700000*%
%TD*%
%TA.AperFunction,ComponentPad*%
%ADD12RoundRect,0.250000X-0.550000X-0.550000X0.550000X-0.550000X0.550000X0.550000X-0.550000X0.550000X0*%
%TD*%
%TA.AperFunction,ComponentPad*%
%ADD13C,1.600000*%
%TD*%
%TA.AperFunction,ComponentPad*%
%ADD14R,1.350000X1.350000*%
%TD*%
%TA.AperFunction,ComponentPad*%
%ADD15C,1.350000*%
%TD*%
%TA.AperFunction,Conductor*%
%ADD16C,0.500000*%
%TD*%
G04 APERTURE END LIST*
D10*
%TO.P,J3,1*%
%TO.N,/OUT_RED*%
X126000000Y-127000000D03*
D11*
%TO.P,J3,2*%
%TO.N,/OUT_IR*%
X128540000Y-127000000D03*
%TD*%
D12*
%TO.P,U1,1*%
%TO.N,/3V3_RED*%
X111940000Y-112190000D03*
D13*
%TO.P,U1,2*%
%TO.N,unconnected-(U1--IN-Pad2)*%
X111940000Y-114730000D03*
%TO.P,U1,3*%
%TO.N,/GND_RED*%
X111940000Y-117270000D03*
%TO.P,U1,4*%
%TO.N,/OUT_RED*%
X111940000Y-119810000D03*
%TO.P,U1,5*%
X119560000Y-119810000D03*
%TO.P,U1,6*%
%TO.N,unconnected-(U1-NC-Pad6)*%
X119560000Y-117270000D03*
%TO.P,U1,7*%
%TO.N,unconnected-(U1-NC-Pad7)*%
X119560000Y-114730000D03*
%TO.P,U1,8*%
%TO.N,/GND_RED*%
X119560000Y-112190000D03*
%TD*%
D14*
%TO.P,J1,1*%
%TO.N,/OUT_RED*%
X113000000Y-127000000D03*
D15*
%TO.P,J1,2*%
%TO.N,unconnected-(J1-UNUSED-Pad2)*%
X115000000Y-127000000D03*
%TO.P,J1,3*%
%TO.N,/3V3_RED*%
X117000000Y-127000000D03*
%TO.P,J1,4*%
%TO.N,/GND_RED*%
X119000000Y-127000000D03*
%TD*%
D13*
%TO.P,C2,1*%
%TO.N,/3V3_IR*%
X150440000Y-108000000D03*
%TO.P,C2,2*%
%TO.N,/GND_IR*%
X152940000Y-108000000D03*
%TD*%
%TO.P,C1,1*%
%TO.N,/3V3_RED*%
X111940000Y-108000000D03*
%TO.P,C1,2*%
%TO.N,/GND_RED*%
X114440000Y-108000000D03*
%TD*%
D12*
%TO.P,U2,1*%
%TO.N,/3V3_IR*%
X150440000Y-112190000D03*
D13*
%TO.P,U2,2*%
%TO.N,unconnected-(U2--IN-Pad2)*%
X150440000Y-114730000D03*
%TO.P,U2,3*%
%TO.N,/GND_IR*%
X150440000Y-117270000D03*
%TO.P,U2,4*%
%TO.N,/OUT_IR*%
X150440000Y-119810000D03*
%TO.P,U2,5*%
X158060000Y-119810000D03*
%TO.P,U2,6*%
%TO.N,unconnected-(U2-NC-Pad6)*%
X158060000Y-117270000D03*
%TO.P,U2,7*%
%TO.N,unconnected-(U2-NC-Pad7)*%
X158060000Y-114730000D03*
%TO.P,U2,8*%
%TO.N,/GND_IR*%
X158060000Y-112190000D03*
%TD*%
D14*
%TO.P,J2,1*%
%TO.N,/OUT_IR*%
X151000000Y-127000000D03*
D15*
%TO.P,J2,2*%
%TO.N,unconnected-(J2-UNUSED-Pad2)*%
X153000000Y-127000000D03*
%TO.P,J2,3*%
%TO.N,/3V3_IR*%
X155000000Y-127000000D03*
%TO.P,J2,4*%
%TO.N,/GND_IR*%
X157000000Y-127000000D03*
%TD*%
%TO.N,/3V3_IR*%
D16*
X161500000Y-105000000D02*
X161500000Y-123500000D01*
X161500000Y-123500000D02*
X155000000Y-123500000D01*
X155000000Y-123500000D02*
X155000000Y-127000000D01*
X150440000Y-105000000D02*
X161500000Y-105000000D01*
X150440000Y-108000000D02*
X150440000Y-105000000D01*
%TO.N,/3V3_RED*%
X111940000Y-105000000D02*
X108500000Y-105000000D01*
X108500000Y-105000000D02*
X108500000Y-123500000D01*
X108500000Y-123500000D02*
X117000000Y-123500000D01*
X117000000Y-123500000D02*
X117000000Y-127000000D01*
X111940000Y-108000000D02*
X111940000Y-105000000D01*
%TD*%
%TA.AperFunction,Conductor*%
%TO.N,/GND_IR*%
G36*
X169343039Y-100619685D02*
G01*
X169388794Y-100672489D01*
X169400000Y-100724000D01*
X169400000Y-131276000D01*
X169380315Y-131343039D01*
X169327511Y-131388794D01*
X169276000Y-131400000D01*
X137124000Y-131400000D01*
X137056961Y-131380315D01*
X137011206Y-131327511D01*
X137000000Y-131276000D01*
X137000000Y-128353952D01*
X162899500Y-128353952D01*
X162899500Y-128646047D01*
X162932199Y-128936271D01*
X162932202Y-128936285D01*
X162997196Y-129221044D01*
X162997197Y-129221046D01*
X163093665Y-129496738D01*
X163220393Y-129759890D01*
X163220395Y-129759893D01*
X163375792Y-130007206D01*
X163557902Y-130235565D01*
X163764435Y-130442098D01*
X163992794Y-130624208D01*
X164240107Y-130779605D01*
X164503263Y-130906335D01*
X164778955Y-131002803D01*
X165063714Y-131067798D01*
X165063723Y-131067799D01*
X165063728Y-131067800D01*
X165257210Y-131089599D01*
X165353953Y-131100499D01*
X165353956Y-131100500D01*
X165353959Y-131100500D01*
X165646044Y-131100500D01*
X165646045Y-131100499D01*
X165794371Y-131083787D01*
X165936271Y-131067800D01*
X165936274Y-131067799D01*
X165936286Y-131067798D01*
X166221045Y-131002803D01*
X166496737Y-130906335D01*
X166759893Y-130779605D01*
X167007206Y-130624208D01*
X167235565Y-130442098D01*
X167442098Y-130235565D01*
X167624208Y-130007206D01*
X167779605Y-129759893D01*
X167906335Y-129496737D01*
X168002803Y-129221045D01*
X168067798Y-128936286D01*
X168100500Y-128646041D01*
X168100500Y-128353959D01*
X168067798Y-128063714D01*
X168002803Y-127778955D01*
X167906335Y-127503263D01*
X167779605Y-127240107D01*
X167624208Y-126992794D01*
X167442098Y-126764435D01*
X167235565Y-126557902D01*
X167007206Y-126375792D01*
X166759893Y-126220395D01*
X166759890Y-126220393D01*
X166496738Y-126093665D01*
X166221046Y-125997197D01*
X166221044Y-125997196D01*
X166001280Y-125947036D01*
X165936286Y-125932202D01*
X165936283Y-125932201D01*
X165936271Y-125932199D01*
X165646047Y-125899500D01*
X165646041Y-125899500D01*
X165353959Y-125899500D01*
X165353952Y-125899500D01*
X165063728Y-125932199D01*
X165063714Y-125932202D01*
X164778955Y-125997196D01*
X164778953Y-125997197D01*
X164503261Y-126093665D01*
X164240109Y-126220393D01*
X163992795Y-126375791D01*
X163764435Y-126557901D01*
X163557901Y-126764435D01*
X163375791Y-126992795D01*
X163220393Y-127240109D01*
X163093665Y-127503261D01*
X162997197Y-127778953D01*
X162997196Y-127778955D01*
X162932202Y-128063714D01*
X162932199Y-128063728D01*
X162899500Y-128353952D01*
X137000000Y-128353952D01*
X137000000Y-119723389D01*
X149339500Y-119723389D01*
X149339500Y-119896611D01*
X149366598Y-120067701D01*
X149420127Y-120232445D01*
X149498768Y-120386788D01*
X149600586Y-120526928D01*
X149723072Y-120649414D01*
X149863212Y-120751232D01*
X150017555Y-120829873D01*
X150182299Y-120883402D01*
X150353389Y-120910500D01*
X150353390Y-120910500D01*
X150526610Y-120910500D01*
X150526611Y-120910500D01*
X150697701Y-120883402D01*
X150862445Y-120829873D01*
X151016788Y-120751232D01*
X151156928Y-120649414D01*
X151279414Y-120526928D01*
X151381232Y-120386788D01*
X151459873Y-120232445D01*
X151513402Y-120067701D01*
X151540500Y-119896611D01*
X151540500Y-119723389D01*
X156959500Y-119723389D01*
X156959500Y-119896611D01*
X156986598Y-120067701D01*
X157040127Y-120232445D01*
X157118768Y-120386788D01*
X157220586Y-120526928D01*
X157343072Y-120649414D01*
X157483212Y-120751232D01*
X157637555Y-120829873D01*
X157802299Y-120883402D01*
X157973389Y-120910500D01*
X157973390Y-120910500D01*
X158146610Y-120910500D01*
X158146611Y-120910500D01*
X158317701Y-120883402D01*
X158482445Y-120829873D01*
X158636788Y-120751232D01*
X158776928Y-120649414D01*
X158899414Y-120526928D01*
X159001232Y-120386788D01*
X159079873Y-120232445D01*
X159133402Y-120067701D01*
X159160500Y-119896611D01*
X159160500Y-119723389D01*
X159133402Y-119552299D01*
X159079873Y-119387555D01*
X159001232Y-119233212D01*
X158899414Y-119093072D01*
X158776928Y-118970586D01*
X158636788Y-118868768D01*
X158482445Y-118790127D01*
X158317701Y-118736598D01*
X158317699Y-118736597D01*
X158317698Y-118736597D01*
X158186271Y-118715781D01*
X158146611Y-118709500D01*
X157973389Y-118709500D01*
X157933728Y-118715781D01*
X157802302Y-118736597D01*
X157637552Y-118790128D01*
X157483211Y-118868768D01*
X157403256Y-118926859D01*
X157343072Y-118970586D01*
X157343070Y-118970588D01*
X157343069Y-118970588D01*
X157220588Y-119093069D01*
X157220588Y-119093070D01*
X157220586Y-119093072D01*
X157176859Y-119153256D01*
X157118768Y-119233211D01*
X157040128Y-119387552D01*
X156986597Y-119552302D01*
X156959500Y-119723389D01*
X151540500Y-119723389D01*
X151513402Y-119552299D01*
X151459873Y-119387555D01*
X151381232Y-119233212D01*
X151279414Y-119093072D01*
X151156928Y-118970586D01*
X151016788Y-118868768D01*
X150862445Y-118790127D01*
X150697701Y-118736598D01*
X150697699Y-118736597D01*
X150697698Y-118736597D01*
X150566271Y-118715781D01*
X150526611Y-118709500D01*
X150353389Y-118709500D01*
X150313728Y-118715781D01*
X150182302Y-118736597D01*
X150017552Y-118790128D01*
X149863211Y-118868768D01*
X149783256Y-118926859D01*
X149723072Y-118970586D01*
X149723070Y-118970588D01*
X149723069Y-118970588D01*
X149600588Y-119093069D01*
X149600588Y-119093070D01*
X149600586Y-119093072D01*
X149556859Y-119153256D01*
X149498768Y-119233211D01*
X149420128Y-119387552D01*
X149366597Y-119552302D01*
X149339500Y-119723389D01*
X137000000Y-119723389D01*
X137000000Y-117183428D01*
X149340000Y-117183428D01*
X149340000Y-117356571D01*
X149367085Y-117527584D01*
X149420591Y-117692257D01*
X149499195Y-117846523D01*
X149499196Y-117846525D01*
X149533463Y-117893691D01*
X149533464Y-117893691D01*
X150053629Y-117373527D01*
X150067259Y-117424394D01*
X150119920Y-117515606D01*
X150194394Y-117590080D01*
X150285606Y-117642741D01*
X150336471Y-117656370D01*
X149816307Y-118176534D01*
X149863478Y-118210805D01*
X150017742Y-118289408D01*
X150182415Y-118342914D01*
X150353429Y-118370000D01*
X150526571Y-118370000D01*
X150697584Y-118342914D01*
X150862257Y-118289408D01*
X151016525Y-118210803D01*
X151063691Y-118176534D01*
X151063692Y-118176533D01*
X150543529Y-117656370D01*
X150594394Y-117642741D01*
X150685606Y-117590080D01*
X150760080Y-117515606D01*
X150812741Y-117424394D01*
X150826370Y-117373528D01*
X151346533Y-117893692D01*
X151346534Y-117893691D01*
X151380803Y-117846525D01*
X151459408Y-117692257D01*
X151512914Y-117527584D01*
X151540000Y-117356571D01*
X151540000Y-117183428D01*
X151539994Y-117183389D01*
X156959500Y-117183389D01*
X156959500Y-117356611D01*
X156986598Y-117527701D01*
X157040127Y-117692445D01*
X157118768Y-117846788D01*
X157220586Y-117986928D01*
X157343072Y-118109414D01*
X157483212Y-118211232D01*
X157637555Y-118289873D01*
X157802299Y-118343402D01*
X157973389Y-118370500D01*
X157973390Y-118370500D01*
X158146610Y-118370500D01*
X158146611Y-118370500D01*
X158317701Y-118343402D01*
X158482445Y-118289873D01*
X158636788Y-118211232D01*
X158776928Y-118109414D01*
X158899414Y-117986928D01*
X159001232Y-117846788D01*
X159079873Y-117692445D01*
X159133402Y-117527701D01*
X159160500Y-117356611D01*
X159160500Y-117183389D01*
X159133402Y-117012299D01*
X159079873Y-116847555D01*
X159001232Y-116693212D01*
X158899414Y-116553072D01*
X158776928Y-116430586D01*
X158636788Y-116328768D01*
X158482445Y-116250127D01*
X158317701Y-116196598D01*
X158317699Y-116196597D01*
X158317698Y-116196597D01*
X158186271Y-116175781D01*
X158146611Y-116169500D01*
X157973389Y-116169500D01*
X157933728Y-116175781D01*
X157802302Y-116196597D01*
X157637552Y-116250128D01*
X157483211Y-116328768D01*
X157435457Y-116363464D01*
X157343072Y-116430586D01*
X157343070Y-116430588D01*
X157343069Y-116430588D01*
X157220588Y-116553069D01*
X157220588Y-116553070D01*
X157220586Y-116553072D01*
X157176859Y-116613256D01*
X157118768Y-116693211D01*
X157040128Y-116847552D01*
X156986597Y-117012302D01*
X156984682Y-117024394D01*
X156959500Y-117183389D01*
X151539994Y-117183389D01*
X151512914Y-117012415D01*
X151459408Y-116847742D01*
X151380805Y-116693478D01*
X151346534Y-116646307D01*
X150826370Y-117166471D01*
X150812741Y-117115606D01*
X150760080Y-117024394D01*
X150685606Y-116949920D01*
X150594394Y-116897259D01*
X150543527Y-116883629D01*
X151063691Y-116363464D01*
X151063691Y-116363463D01*
X151016525Y-116329196D01*
X151016523Y-116329195D01*
X150862257Y-116250591D01*
X150697584Y-116197085D01*
X150526571Y-116170000D01*
X150353429Y-116170000D01*
X150182415Y-116197085D01*
X150017740Y-116250592D01*
X149863475Y-116329196D01*
X149816307Y-116363463D01*
X149816307Y-116363464D01*
X150336472Y-116883629D01*
X150285606Y-116897259D01*
X150194394Y-116949920D01*
X150119920Y-117024394D01*
X150067259Y-117115606D01*
X150053629Y-117166472D01*
X149533464Y-116646307D01*
X149533463Y-116646307D01*
X149499196Y-116693475D01*
X149420592Y-116847740D01*
X149367085Y-117012415D01*
X149340000Y-117183428D01*
X137000000Y-117183428D01*
X137000000Y-114643389D01*
X149339500Y-114643389D01*
X149339500Y-114816611D01*
X149366598Y-114987701D01*
X149420127Y-115152445D01*
X149498768Y-115306788D01*
X149600586Y-115446928D01*
X149723072Y-115569414D01*
X149863212Y-115671232D01*
X150017555Y-115749873D01*
X150182299Y-115803402D01*
X150353389Y-115830500D01*
X150353390Y-115830500D01*
X150526610Y-115830500D01*
X150526611Y-115830500D01*
X150697701Y-115803402D01*
X150862445Y-115749873D01*
X151016788Y-115671232D01*
X151156928Y-115569414D01*
X151279414Y-115446928D01*
X151381232Y-115306788D01*
X151459873Y-115152445D01*
X151513402Y-114987701D01*
X151540500Y-114816611D01*
X151540500Y-114643389D01*
X156959500Y-114643389D01*
X156959500Y-114816611D01*
X156986598Y-114987701D01*
X157040127Y-115152445D01*
X157118768Y-115306788D01*
X157220586Y-115446928D01*
X157343072Y-115569414D01*
X157483212Y-115671232D01*
X157637555Y-115749873D01*
X157802299Y-115803402D01*
X157973389Y-115830500D01*
X157973390Y-115830500D01*
X158146610Y-115830500D01*
X158146611Y-115830500D01*
X158317701Y-115803402D01*
X158482445Y-115749873D01*
X158636788Y-115671232D01*
X158776928Y-115569414D01*
X158899414Y-115446928D01*
X159001232Y-115306788D01*
X159079873Y-115152445D01*
X159133402Y-114987701D01*
X159160500Y-114816611D01*
X159160500Y-114643389D01*
X159133402Y-114472299D01*
X159079873Y-114307555D01*
X159001232Y-114153212D01*
X158899414Y-114013072D01*
X158776928Y-113890586D01*
X158636788Y-113788768D01*
X158482445Y-113710127D01*
X158317701Y-113656598D01*
X158317699Y-113656597D01*
X158317698Y-113656597D01*
X158186271Y-113635781D01*
X158146611Y-113629500D01*
X157973389Y-113629500D01*
X157933728Y-113635781D01*
X157802302Y-113656597D01*
X157637552Y-113710128D01*
X157483211Y-113788768D01*
X157403256Y-113846859D01*
X157343072Y-113890586D01*
X157343070Y-113890588D01*
X157343069Y-113890588D01*
X157220588Y-114013069D01*
X157220588Y-114013070D01*
X157220586Y-114013072D01*
X157176859Y-114073256D01*
X157118768Y-114153211D01*
X157040128Y-114307552D01*
X156986597Y-114472302D01*
X156959500Y-114643389D01*
X151540500Y-114643389D01*
X151513402Y-114472299D01*
X151459873Y-114307555D01*
X151381232Y-114153212D01*
X151279414Y-114013072D01*
X151156928Y-113890586D01*
X151016788Y-113788768D01*
X150862445Y-113710127D01*
X150697701Y-113656598D01*
X150697699Y-113656597D01*
X150697698Y-113656597D01*
X150566271Y-113635781D01*
X150526611Y-113629500D01*
X150353389Y-113629500D01*
X150313728Y-113635781D01*
X150182302Y-113656597D01*
X150017552Y-113710128D01*
X149863211Y-113788768D01*
X149783256Y-113846859D01*
X149723072Y-113890586D01*
X149723070Y-113890588D01*
X149723069Y-113890588D01*
X149600588Y-114013069D01*
X149600588Y-114013070D01*
X149600586Y-114013072D01*
X149556859Y-114073256D01*
X149498768Y-114153211D01*
X149420128Y-114307552D01*
X149366597Y-114472302D01*
X149339500Y-114643389D01*
X137000000Y-114643389D01*
X137000000Y-111596898D01*
X149339500Y-111596898D01*
X149339500Y-112783102D01*
X149345126Y-112829954D01*
X149350122Y-112871561D01*
X149405639Y-113012343D01*
X149497077Y-113132922D01*
X149617656Y-113224360D01*
X149617657Y-113224360D01*
X149617658Y-113224361D01*
X149758436Y-113279877D01*
X149846898Y-113290500D01*
X149846903Y-113290500D01*
X151033097Y-113290500D01*
X151033102Y-113290500D01*
X151121564Y-113279877D01*
X151262342Y-113224361D01*
X151382922Y-113132922D01*
X151474361Y-113012342D01*
X151529877Y-112871564D01*
X151540500Y-112783102D01*
X151540500Y-112103428D01*
X156960000Y-112103428D01*
X156960000Y-112276571D01*
X156987085Y-112447584D01*
X157040591Y-112612257D01*
X157119195Y-112766523D01*
X157119196Y-112766525D01*
X157153463Y-112813691D01*
X157153464Y-112813691D01*
X157673629Y-112293527D01*
X157687259Y-112344394D01*
X157739920Y-112435606D01*
X157814394Y-112510080D01*
X157905606Y-112562741D01*
X157956471Y-112576370D01*
X157436307Y-113096534D01*
X157483478Y-113130805D01*
X157637742Y-113209408D01*
X157802415Y-113262914D01*
X157973429Y-113290000D01*
X158146571Y-113290000D01*
X158317584Y-113262914D01*
X158482257Y-113209408D01*
X158636525Y-113130803D01*
X158683691Y-113096534D01*
X158683692Y-113096533D01*
X158163529Y-112576370D01*
X158214394Y-112562741D01*
X158305606Y-112510080D01*
X158380080Y-112435606D01*
X158432741Y-112344394D01*
X158446370Y-112293528D01*
X158966533Y-112813692D01*
X158966534Y-112813691D01*
X159000803Y-112766525D01*
X159079408Y-112612257D01*
X159132914Y-112447584D01*
X159160000Y-112276571D01*
X159160000Y-112103428D01*
X159132914Y-111932415D01*
X159079408Y-111767742D01*
X159000805Y-111613478D01*
X158966534Y-111566307D01*
X158446370Y-112086471D01*
X158432741Y-112035606D01*
X158380080Y-111944394D01*
X158305606Y-111869920D01*
X158214394Y-111817259D01*
X158163527Y-111803629D01*
X158683691Y-111283464D01*
X158683691Y-111283463D01*
X158636525Y-111249196D01*
X158636523Y-111249195D01*
X158482257Y-111170591D01*
X158317584Y-111117085D01*
X158146571Y-111090000D01*
X157973429Y-111090000D01*
X157802415Y-111117085D01*
X157637740Y-111170592D01*
X157483475Y-111249196D01*
X157436307Y-111283463D01*
X157436307Y-111283464D01*
X157956472Y-111803629D01*
X157905606Y-111817259D01*
X157814394Y-111869920D01*
X157739920Y-111944394D01*
X157687259Y-112035606D01*
X157673629Y-112086472D01*
X157153464Y-111566307D01*
X157153463Y-111566307D01*
X157119196Y-111613475D01*
X157040592Y-111767740D01*
X156987085Y-111932415D01*
X156960000Y-112103428D01*
X151540500Y-112103428D01*
X151540500Y-111596898D01*
X151529877Y-111508436D01*
X151474361Y-111367658D01*
X151474360Y-111367657D01*
X151474360Y-111367656D01*
X151382922Y-111247077D01*
X151262343Y-111155639D01*
X151121561Y-111100122D01*
X151075926Y-111094642D01*
X151033102Y-111089500D01*
X149846898Y-111089500D01*
X149807853Y-111094188D01*
X149758438Y-111100122D01*
X149617656Y-111155639D01*
X149497077Y-111247077D01*
X149405639Y-111367656D01*
X149350122Y-111508438D01*
X149344188Y-111557853D01*
X149339500Y-111596898D01*
X137000000Y-111596898D01*
X137000000Y-107913389D01*
X149339500Y-107913389D01*
X149339500Y-108086611D01*
X149366598Y-108257701D01*
X149420127Y-108422445D01*
X149498768Y-108576788D01*
X149600586Y-108716928D01*
X149723072Y-108839414D01*
X149863212Y-108941232D01*
X150017555Y-109019873D01*
X150182299Y-109073402D01*
X150353389Y-109100500D01*
X150353390Y-109100500D01*
X150526610Y-109100500D01*
X150526611Y-109100500D01*
X150697701Y-109073402D01*
X150862445Y-109019873D01*
X151016788Y-108941232D01*
X151156928Y-108839414D01*
X151279414Y-108716928D01*
X151381232Y-108576788D01*
X151459873Y-108422445D01*
X151513402Y-108257701D01*
X151540500Y-108086611D01*
X151540500Y-107913428D01*
X151840000Y-107913428D01*
X151840000Y-108086571D01*
X151867085Y-108257584D01*
X151920591Y-108422257D01*
X151999195Y-108576523D01*
X151999196Y-108576525D01*
X152033463Y-108623691D01*
X152033464Y-108623691D01*
X152553629Y-108103527D01*
X152567259Y-108154394D01*
X152619920Y-108245606D01*
X152694394Y-108320080D01*
X152785606Y-108372741D01*
X152836471Y-108386370D01*
X152316307Y-108906534D01*
X152363478Y-108940805D01*
X152517742Y-109019408D01*
X152682415Y-109072914D01*
X152853429Y-109100000D01*
X153026571Y-109100000D01*
X153197584Y-109072914D01*
X153362257Y-109019408D01*
X153516525Y-108940803D01*
X153563691Y-108906534D01*
X153563692Y-108906533D01*
X153043529Y-108386370D01*
X153094394Y-108372741D01*
X153185606Y-108320080D01*
X153260080Y-108245606D01*
X153312741Y-108154394D01*
X153326370Y-108103528D01*
X153846533Y-108623692D01*
X153846534Y-108623691D01*
X153880803Y-108576525D01*
X153959408Y-108422257D01*
X154012914Y-108257584D01*
X154040000Y-108086571D01*
X154040000Y-107913428D01*
X154012914Y-107742415D01*
X153959408Y-107577742D01*
X153880805Y-107423478D01*
X153846534Y-107376307D01*
X153326370Y-107896471D01*
X153312741Y-107845606D01*
X153260080Y-107754394D01*
X153185606Y-107679920D01*
X153094394Y-107627259D01*
X153043527Y-107613629D01*
X153563691Y-107093464D01*
X153563691Y-107093463D01*
X153516525Y-107059196D01*
X153516523Y-107059195D01*
X153362257Y-106980591D01*
X153197584Y-106927085D01*
X153026571Y-106900000D01*
X152853429Y-106900000D01*
X152682415Y-106927085D01*
X152517740Y-106980592D01*
X152363475Y-107059196D01*
X152316307Y-107093463D01*
X152316307Y-107093464D01*
X152836472Y-107613629D01*
X152785606Y-107627259D01*
X152694394Y-107679920D01*
X152619920Y-107754394D01*
X152567259Y-107845606D01*
X152553629Y-107896472D01*
X152033464Y-107376307D01*
X152033463Y-107376307D01*
X151999196Y-107423475D01*
X151920592Y-107577740D01*
X151867085Y-107742415D01*
X151840000Y-107913428D01*
X151540500Y-107913428D01*
X151540500Y-107913389D01*
X151513402Y-107742299D01*
X151459873Y-107577555D01*
X151381232Y-107423212D01*
X151279414Y-107283072D01*
X151156928Y-107160586D01*
X151041614Y-107076805D01*
X150998949Y-107021476D01*
X150990500Y-106976488D01*
X150990500Y-105674500D01*
X151010185Y-105607461D01*
X151062989Y-105561706D01*
X151114500Y-105550500D01*
X160825500Y-105550500D01*
X160892539Y-105570185D01*
X160938294Y-105622989D01*
X160949500Y-105674500D01*
X160949500Y-122825500D01*
X160929815Y-122892539D01*
X160877011Y-122938294D01*
X160825500Y-122949500D01*
X155072475Y-122949500D01*
X154927525Y-122949500D01*
X154798993Y-122983940D01*
X154787511Y-122987017D01*
X154661988Y-123059488D01*
X154661982Y-123059493D01*
X154559493Y-123161982D01*
X154559488Y-123161988D01*
X154487017Y-123287511D01*
X154487016Y-123287515D01*
X154449500Y-123427525D01*
X154449500Y-123427527D01*
X154449500Y-126128329D01*
X154429815Y-126195368D01*
X154394394Y-126231429D01*
X154378153Y-126242281D01*
X154378148Y-126242286D01*
X154242282Y-126378151D01*
X154242279Y-126378155D01*
X154135521Y-126537929D01*
X154114561Y-126588533D01*
X154070720Y-126642936D01*
X154004426Y-126665001D01*
X153936726Y-126647722D01*
X153889116Y-126596584D01*
X153885439Y-126588533D01*
X153864478Y-126537929D01*
X153833154Y-126491050D01*
X153757720Y-126378155D01*
X153757717Y-126378151D01*
X153621848Y-126242282D01*
X153621844Y-126242279D01*
X153462070Y-126135521D01*
X153462068Y-126135520D01*
X153284547Y-126061989D01*
X153284535Y-126061986D01*
X153096081Y-126024500D01*
X153096078Y-126024500D01*
X152903922Y-126024500D01*
X152903919Y-126024500D01*
X152715464Y-126061986D01*
X152715452Y-126061989D01*
X152537931Y-126135520D01*
X152537929Y-126135521D01*
X152378155Y-126242279D01*
X152378151Y-126242282D01*
X152242282Y-126378151D01*
X152242279Y-126378155D01*
X152202601Y-126437538D01*
X152148989Y-126482343D01*
X152079664Y-126491050D01*
X152016636Y-126460895D01*
X151979917Y-126401452D01*
X151975499Y-126368647D01*
X151975499Y-126280143D01*
X151975499Y-126280136D01*
X151975497Y-126280117D01*
X151972586Y-126255012D01*
X151972585Y-126255010D01*
X151972585Y-126255009D01*
X151927206Y-126152235D01*
X151847765Y-126072794D01*
X151823287Y-126061986D01*
X151744992Y-126027415D01*
X151719865Y-126024500D01*
X150280143Y-126024500D01*
X150280117Y-126024502D01*
X150255012Y-126027413D01*
X150255008Y-126027415D01*
X150152235Y-126072793D01*
X150072794Y-126152234D01*
X150027415Y-126255006D01*
X150027415Y-126255008D01*
X150024500Y-126280131D01*
X150024500Y-127719856D01*
X150024502Y-127719882D01*
X150027413Y-127744987D01*
X150027415Y-127744991D01*
X150072793Y-127847764D01*
X150072794Y-127847765D01*
X150152235Y-127927206D01*
X150255009Y-127972585D01*
X150280135Y-127975500D01*
X151719864Y-127975499D01*
X151719879Y-127975497D01*
X151719882Y-127975497D01*
X151744987Y-127972586D01*
X151744988Y-127972585D01*
X151744991Y-127972585D01*
X151847765Y-127927206D01*
X151927206Y-127847765D01*
X151972585Y-127744991D01*
X151975500Y-127719865D01*
X151975499Y-127631351D01*
X151995183Y-127564316D01*
X152047986Y-127518560D01*
X152117145Y-127508616D01*
X152180701Y-127537640D01*
X152202601Y-127562462D01*
X152242282Y-127621848D01*
X152378151Y-127757717D01*
X152378155Y-127757720D01*
X152537927Y-127864477D01*
X152537928Y-127864477D01*
X152537929Y-127864478D01*
X152537931Y-127864479D01*
X152715452Y-127938010D01*
X152715457Y-127938012D01*
X152901403Y-127974999D01*
X152903917Y-127975499D01*
X152903920Y-127975500D01*
X152903922Y-127975500D01*
X153096080Y-127975500D01*
X153096081Y-127975499D01*
X153284543Y-127938012D01*
X153462073Y-127864477D01*
X153621845Y-127757720D01*
X153757720Y-127621845D01*
X153864477Y-127462073D01*
X153885439Y-127411467D01*
X153929280Y-127357063D01*
X153995574Y-127334998D01*
X154063273Y-127352277D01*
X154110884Y-127403414D01*
X154114561Y-127411467D01*
X154135520Y-127462068D01*
X154135521Y-127462070D01*
X154242279Y-127621844D01*
X154242282Y-127621848D01*
X154378151Y-127757717D01*
X154378155Y-127757720D01*
X154537927Y-127864477D01*
X154537928Y-127864477D01*
X154537929Y-127864478D01*
X154537931Y-127864479D01*
X154715452Y-127938010D01*
X154715457Y-127938012D01*
X154901403Y-127974999D01*
X154903917Y-127975499D01*
X154903920Y-127975500D01*
X154903922Y-127975500D01*
X155096080Y-127975500D01*
X155096081Y-127975499D01*
X155284543Y-127938012D01*
X155462073Y-127864477D01*
X155621845Y-127757720D01*
X155634578Y-127744987D01*
X155697232Y-127682334D01*
X155757717Y-127621848D01*
X155757720Y-127621845D01*
X155864477Y-127462073D01*
X155885709Y-127410813D01*
X155929549Y-127356411D01*
X155995843Y-127334345D01*
X156063542Y-127351623D01*
X156111153Y-127402760D01*
X156114831Y-127410813D01*
X156135964Y-127461832D01*
X156135966Y-127461836D01*
X156183773Y-127533383D01*
X156613629Y-127103527D01*
X156627259Y-127154394D01*
X156679920Y-127245606D01*
X156754394Y-127320080D01*
X156845606Y-127372741D01*
X156896471Y-127386370D01*
X156466614Y-127816226D01*
X156538166Y-127864035D01*
X156715602Y-127937531D01*
X156715610Y-127937533D01*
X156903966Y-127974999D01*
X156903970Y-127975000D01*
X157096030Y-127975000D01*
X157096033Y-127974999D01*
X157284389Y-127937533D01*
X157284397Y-127937531D01*
X157461834Y-127864034D01*
X157461840Y-127864031D01*
X157533384Y-127816226D01*
X157533384Y-127816225D01*
X157103529Y-127386370D01*
X157154394Y-127372741D01*
X157245606Y-127320080D01*
X157320080Y-127245606D01*
X157372741Y-127154394D01*
X157386370Y-127103528D01*
X157816226Y-127533384D01*
X157864031Y-127461840D01*
X157864034Y-127461834D01*
X157937531Y-127284397D01*
X157937533Y-127284389D01*
X157974999Y-127096033D01*
X157975000Y-127096030D01*
X157975000Y-126903970D01*
X157974999Y-126903966D01*
X157937533Y-126715610D01*
X157937531Y-126715602D01*
X157864035Y-126538166D01*
X157816226Y-126466614D01*
X157386370Y-126896470D01*
X157372741Y-126845606D01*
X157320080Y-126754394D01*
X157245606Y-126679920D01*
X157154394Y-126627259D01*
X157103528Y-126613629D01*
X157533383Y-126183773D01*
X157461836Y-126135966D01*
X157461833Y-126135964D01*
X157284397Y-126062468D01*
X157284389Y-126062466D01*
X157096033Y-126025000D01*
X156903966Y-126025000D01*
X156715610Y-126062466D01*
X156715602Y-126062468D01*
X156538165Y-126135965D01*
X156466615Y-126183773D01*
X156466614Y-126183773D01*
X156896471Y-126613629D01*
X156845606Y-126627259D01*
X156754394Y-126679920D01*
X156679920Y-126754394D01*
X156627259Y-126845606D01*
X156613629Y-126896470D01*
X156183773Y-126466614D01*
X156183773Y-126466615D01*
X156135963Y-126538168D01*
X156114830Y-126589187D01*
X156070989Y-126643590D01*
X156004694Y-126665654D01*
X155936995Y-126648374D01*
X155889385Y-126597236D01*
X155885709Y-126589185D01*
X155864479Y-126537931D01*
X155864478Y-126537929D01*
X155833154Y-126491050D01*
X155757720Y-126378155D01*
X155757717Y-126378151D01*
X155699044Y-126319478D01*
X155699031Y-126319466D01*
X155621845Y-126242280D01*
X155597599Y-126226079D01*
X155590511Y-126219553D01*
X155577277Y-126197530D01*
X155560802Y-126177815D01*
X155558348Y-126166028D01*
X155554524Y-126159664D01*
X155554840Y-126149176D01*
X155550500Y-126128329D01*
X155550500Y-124174500D01*
X155570185Y-124107461D01*
X155622989Y-124061706D01*
X155674500Y-124050500D01*
X161572472Y-124050500D01*
X161572475Y-124050500D01*
X161712485Y-124012984D01*
X161838015Y-123940509D01*
X161940509Y-123838015D01*
X162012984Y-123712485D01*
X162050500Y-123572475D01*
X162050500Y-104927525D01*
X162012984Y-104787515D01*
X161997036Y-104759893D01*
X161940511Y-104661988D01*
X161940506Y-104661982D01*
X161838017Y-104559493D01*
X161838011Y-104559488D01*
X161712488Y-104487017D01*
X161712489Y-104487017D01*
X161701006Y-104483940D01*
X161572475Y-104449500D01*
X150512475Y-104449500D01*
X150367525Y-104449500D01*
X150238993Y-104483940D01*
X150227511Y-104487017D01*
X150101988Y-104559488D01*
X150101982Y-104559493D01*
X149999493Y-104661982D01*
X149999488Y-104661988D01*
X149927017Y-104787511D01*
X149927016Y-104787515D01*
X149889500Y-104927525D01*
X149889500Y-104927527D01*
X149889500Y-106976488D01*
X149869815Y-107043527D01*
X149838385Y-107076806D01*
X149723075Y-107160583D01*
X149723069Y-107160588D01*
X149600588Y-107283069D01*
X149600588Y-107283070D01*
X149600586Y-107283072D01*
X149556859Y-107343256D01*
X149498768Y-107423211D01*
X149420128Y-107577552D01*
X149366597Y-107742302D01*
X149364682Y-107754394D01*
X149339500Y-107913389D01*
X137000000Y-107913389D01*
X137000000Y-103353952D01*
X162899500Y-103353952D01*
X162899500Y-103646047D01*
X162932199Y-103936271D01*
X162932202Y-103936285D01*
X162997196Y-104221044D01*
X162997197Y-104221046D01*
X163093665Y-104496738D01*
X163220393Y-104759890D01*
X163237751Y-104787515D01*
X163375792Y-105007206D01*
X163557902Y-105235565D01*
X163764435Y-105442098D01*
X163992794Y-105624208D01*
X164240107Y-105779605D01*
X164503263Y-105906335D01*
X164778955Y-106002803D01*
X165063714Y-106067798D01*
X165063723Y-106067799D01*
X165063728Y-106067800D01*
X165257210Y-106089599D01*
X165353953Y-106100499D01*
X165353956Y-106100500D01*
X165353959Y-106100500D01*
X165646044Y-106100500D01*
X165646045Y-106100499D01*
X165794371Y-106083787D01*
X165936271Y-106067800D01*
X165936274Y-106067799D01*
X165936286Y-106067798D01*
X166221045Y-106002803D01*
X166496737Y-105906335D01*
X166759893Y-105779605D01*
X167007206Y-105624208D01*
X167235565Y-105442098D01*
X167442098Y-105235565D01*
X167624208Y-105007206D01*
X167779605Y-104759893D01*
X167906335Y-104496737D01*
X168002803Y-104221045D01*
X168067798Y-103936286D01*
X168100500Y-103646041D01*
X168100500Y-103353959D01*
X168067798Y-103063714D01*
X168002803Y-102778955D01*
X167906335Y-102503263D01*
X167779605Y-102240107D01*
X167624208Y-101992794D01*
X167442098Y-101764435D01*
X167235565Y-101557902D01*
X167007206Y-101375792D01*
X166759893Y-101220395D01*
X166759890Y-101220393D01*
X166496738Y-101093665D01*
X166221046Y-100997197D01*
X166221044Y-100997196D01*
X166001280Y-100947036D01*
X165936286Y-100932202D01*
X165936283Y-100932201D01*
X165936271Y-100932199D01*
X165646047Y-100899500D01*
X165646041Y-100899500D01*
X165353959Y-100899500D01*
X165353952Y-100899500D01*
X165063728Y-100932199D01*
X165063714Y-100932202D01*
X164778955Y-100997196D01*
X164778953Y-100997197D01*
X164503261Y-101093665D01*
X164240109Y-101220393D01*
X163992795Y-101375791D01*
X163764435Y-101557901D01*
X163557901Y-101764435D01*
X163375791Y-101992795D01*
X163220393Y-102240109D01*
X163093665Y-102503261D01*
X162997197Y-102778953D01*
X162997196Y-102778955D01*
X162932202Y-103063714D01*
X162932199Y-103063728D01*
X162899500Y-103353952D01*
X137000000Y-103353952D01*
X137000000Y-100724000D01*
X137019685Y-100656961D01*
X137072489Y-100611206D01*
X137124000Y-100600000D01*
X169276000Y-100600000D01*
X169343039Y-100619685D01*
G37*
%TD.AperFunction*%
%TD*%
%TA.AperFunction,Conductor*%
%TO.N,/GND_RED*%
G36*
X132943039Y-100619685D02*
G01*
X132988794Y-100672489D01*
X133000000Y-100724000D01*
X133000000Y-131276000D01*
X132980315Y-131343039D01*
X132927511Y-131388794D01*
X132876000Y-131400000D01*
X100724000Y-131400000D01*
X100656961Y-131380315D01*
X100611206Y-131327511D01*
X100600000Y-131276000D01*
X100600000Y-128353952D01*
X101899500Y-128353952D01*
X101899500Y-128646047D01*
X101932199Y-128936271D01*
X101932202Y-128936285D01*
X101997196Y-129221044D01*
X101997197Y-129221046D01*
X102093665Y-129496738D01*
X102220393Y-129759890D01*
X102220395Y-129759893D01*
X102375792Y-130007206D01*
X102557902Y-130235565D01*
X102764435Y-130442098D01*
X102992794Y-130624208D01*
X103240107Y-130779605D01*
X103503263Y-130906335D01*
X103778955Y-131002803D01*
X104063714Y-131067798D01*
X104063723Y-131067799D01*
X104063728Y-131067800D01*
X104257210Y-131089599D01*
X104353953Y-131100499D01*
X104353956Y-131100500D01*
X104353959Y-131100500D01*
X104646044Y-131100500D01*
X104646045Y-131100499D01*
X104794371Y-131083787D01*
X104936271Y-131067800D01*
X104936274Y-131067799D01*
X104936286Y-131067798D01*
X105221045Y-131002803D01*
X105496737Y-130906335D01*
X105759893Y-130779605D01*
X106007206Y-130624208D01*
X106235565Y-130442098D01*
X106442098Y-130235565D01*
X106624208Y-130007206D01*
X106779605Y-129759893D01*
X106906335Y-129496737D01*
X107002803Y-129221045D01*
X107067798Y-128936286D01*
X107100500Y-128646041D01*
X107100500Y-128353959D01*
X107077248Y-128147584D01*
X107067800Y-128063728D01*
X107067799Y-128063723D01*
X107067798Y-128063714D01*
X107002803Y-127778955D01*
X106906335Y-127503263D01*
X106779605Y-127240107D01*
X106624208Y-126992794D01*
X106442098Y-126764435D01*
X106235565Y-126557902D01*
X106007206Y-126375792D01*
X105759893Y-126220395D01*
X105759890Y-126220393D01*
X105496738Y-126093665D01*
X105221046Y-125997197D01*
X105221044Y-125997196D01*
X105001280Y-125947036D01*
X104936286Y-125932202D01*
X104936283Y-125932201D01*
X104936271Y-125932199D01*
X104646047Y-125899500D01*
X104646041Y-125899500D01*
X104353959Y-125899500D01*
X104353952Y-125899500D01*
X104063728Y-125932199D01*
X104063714Y-125932202D01*
X103778955Y-125997196D01*
X103778953Y-125997197D01*
X103503261Y-126093665D01*
X103240109Y-126220393D01*
X102992795Y-126375791D01*
X102764435Y-126557901D01*
X102557901Y-126764435D01*
X102375791Y-126992795D01*
X102220393Y-127240109D01*
X102093665Y-127503261D01*
X101997197Y-127778953D01*
X101997196Y-127778955D01*
X101932202Y-128063714D01*
X101932199Y-128063728D01*
X101899500Y-128353952D01*
X100600000Y-128353952D01*
X100600000Y-103353952D01*
X101899500Y-103353952D01*
X101899500Y-103646047D01*
X101932199Y-103936271D01*
X101932202Y-103936285D01*
X101997196Y-104221044D01*
X101997197Y-104221046D01*
X102093665Y-104496738D01*
X102220393Y-104759890D01*
X102237751Y-104787515D01*
X102375792Y-105007206D01*
X102557902Y-105235565D01*
X102764435Y-105442098D01*
X102992794Y-105624208D01*
X103240107Y-105779605D01*
X103503263Y-105906335D01*
X103778955Y-106002803D01*
X104063714Y-106067798D01*
X104063723Y-106067799D01*
X104063728Y-106067800D01*
X104257210Y-106089599D01*
X104353953Y-106100499D01*
X104353956Y-106100500D01*
X104353959Y-106100500D01*
X104646044Y-106100500D01*
X104646045Y-106100499D01*
X104794371Y-106083787D01*
X104936271Y-106067800D01*
X104936274Y-106067799D01*
X104936286Y-106067798D01*
X105221045Y-106002803D01*
X105496737Y-105906335D01*
X105759893Y-105779605D01*
X106007206Y-105624208D01*
X106235565Y-105442098D01*
X106442098Y-105235565D01*
X106624208Y-105007206D01*
X106674275Y-104927525D01*
X107949500Y-104927525D01*
X107949500Y-123427525D01*
X107949500Y-123572475D01*
X107987016Y-123712485D01*
X107987017Y-123712488D01*
X108059488Y-123838011D01*
X108059490Y-123838013D01*
X108059491Y-123838015D01*
X108161985Y-123940509D01*
X108161986Y-123940510D01*
X108161988Y-123940511D01*
X108287511Y-124012982D01*
X108287512Y-124012982D01*
X108287515Y-124012984D01*
X108427525Y-124050500D01*
X116325500Y-124050500D01*
X116392539Y-124070185D01*
X116438294Y-124122989D01*
X116449500Y-124174500D01*
X116449500Y-126128329D01*
X116429815Y-126195368D01*
X116394394Y-126231429D01*
X116378153Y-126242281D01*
X116378148Y-126242286D01*
X116242282Y-126378151D01*
X116242279Y-126378155D01*
X116135521Y-126537929D01*
X116114561Y-126588533D01*
X116070720Y-126642936D01*
X116004426Y-126665001D01*
X115936726Y-126647722D01*
X115889116Y-126596584D01*
X115885439Y-126588533D01*
X115864478Y-126537929D01*
X115833154Y-126491050D01*
X115757720Y-126378155D01*
X115757717Y-126378151D01*
X115621848Y-126242282D01*
X115621844Y-126242279D01*
X115462070Y-126135521D01*
X115462068Y-126135520D01*
X115284547Y-126061989D01*
X115284535Y-126061986D01*
X115096081Y-126024500D01*
X115096078Y-126024500D01*
X114903922Y-126024500D01*
X114903919Y-126024500D01*
X114715464Y-126061986D01*
X114715452Y-126061989D01*
X114537931Y-126135520D01*
X114537929Y-126135521D01*
X114378155Y-126242279D01*
X114378151Y-126242282D01*
X114242282Y-126378151D01*
X114242279Y-126378155D01*
X114202601Y-126437538D01*
X114148989Y-126482343D01*
X114079664Y-126491050D01*
X114016636Y-126460895D01*
X113979917Y-126401452D01*
X113975499Y-126368647D01*
X113975499Y-126280143D01*
X113975499Y-126280136D01*
X113975497Y-126280117D01*
X113972586Y-126255012D01*
X113972585Y-126255010D01*
X113972585Y-126255009D01*
X113927206Y-126152235D01*
X113847765Y-126072794D01*
X113823287Y-126061986D01*
X113744992Y-126027415D01*
X113719865Y-126024500D01*
X112280143Y-126024500D01*
X112280117Y-126024502D01*
X112255012Y-126027413D01*
X112255008Y-126027415D01*
X112152235Y-126072793D01*
X112072794Y-126152234D01*
X112027415Y-126255006D01*
X112027415Y-126255008D01*
X112024500Y-126280131D01*
X112024500Y-127719856D01*
X112024502Y-127719882D01*
X112027413Y-127744987D01*
X112027415Y-127744991D01*
X112072793Y-127847764D01*
X112072794Y-127847765D01*
X112152235Y-127927206D01*
X112255009Y-127972585D01*
X112280135Y-127975500D01*
X113719864Y-127975499D01*
X113719879Y-127975497D01*
X113719882Y-127975497D01*
X113744987Y-127972586D01*
X113744988Y-127972585D01*
X113744991Y-127972585D01*
X113847765Y-127927206D01*
X113927206Y-127847765D01*
X113972585Y-127744991D01*
X113975500Y-127719865D01*
X113975499Y-127631351D01*
X113995183Y-127564316D01*
X114047986Y-127518560D01*
X114117145Y-127508616D01*
X114180701Y-127537640D01*
X114202601Y-127562462D01*
X114242282Y-127621848D01*
X114378151Y-127757717D01*
X114378155Y-127757720D01*
X114537927Y-127864477D01*
X114537928Y-127864477D01*
X114537929Y-127864478D01*
X114537931Y-127864479D01*
X114715452Y-127938010D01*
X114715457Y-127938012D01*
X114901403Y-127974999D01*
X114903917Y-127975499D01*
X114903920Y-127975500D01*
X114903922Y-127975500D01*
X115096080Y-127975500D01*
X115096081Y-127975499D01*
X115284543Y-127938012D01*
X115462073Y-127864477D01*
X115621845Y-127757720D01*
X115757720Y-127621845D01*
X115864477Y-127462073D01*
X115885439Y-127411467D01*
X115929280Y-127357063D01*
X115995574Y-127334998D01*
X116063273Y-127352277D01*
X116110884Y-127403414D01*
X116114561Y-127411467D01*
X116135520Y-127462068D01*
X116135521Y-127462070D01*
X116242279Y-127621844D01*
X116242282Y-127621848D01*
X116378151Y-127757717D01*
X116378155Y-127757720D01*
X116537927Y-127864477D01*
X116537928Y-127864477D01*
X116537929Y-127864478D01*
X116537931Y-127864479D01*
X116715452Y-127938010D01*
X116715457Y-127938012D01*
X116901403Y-127974999D01*
X116903917Y-127975499D01*
X116903920Y-127975500D01*
X116903922Y-127975500D01*
X117096080Y-127975500D01*
X117096081Y-127975499D01*
X117284543Y-127938012D01*
X117462073Y-127864477D01*
X117621845Y-127757720D01*
X117634578Y-127744987D01*
X117697232Y-127682334D01*
X117757717Y-127621848D01*
X117757720Y-127621845D01*
X117864477Y-127462073D01*
X117885709Y-127410813D01*
X117929549Y-127356411D01*
X117995843Y-127334345D01*
X118063542Y-127351623D01*
X118111153Y-127402760D01*
X118114831Y-127410813D01*
X118135964Y-127461832D01*
X118135966Y-127461836D01*
X118183773Y-127533383D01*
X118613629Y-127103527D01*
X118627259Y-127154394D01*
X118679920Y-127245606D01*
X118754394Y-127320080D01*
X118845606Y-127372741D01*
X118896471Y-127386370D01*
X118466614Y-127816226D01*
X118538166Y-127864035D01*
X118715602Y-127937531D01*
X118715610Y-127937533D01*
X118903966Y-127974999D01*
X118903970Y-127975000D01*
X119096030Y-127975000D01*
X119096033Y-127974999D01*
X119284389Y-127937533D01*
X119284397Y-127937531D01*
X119461834Y-127864034D01*
X119461840Y-127864031D01*
X119533384Y-127816226D01*
X119533384Y-127816225D01*
X119103529Y-127386370D01*
X119154394Y-127372741D01*
X119245606Y-127320080D01*
X119320080Y-127245606D01*
X119372741Y-127154394D01*
X119386370Y-127103528D01*
X119816226Y-127533384D01*
X119864031Y-127461840D01*
X119864034Y-127461834D01*
X119937531Y-127284397D01*
X119937533Y-127284389D01*
X119974999Y-127096033D01*
X119975000Y-127096030D01*
X119975000Y-126903970D01*
X119974999Y-126903966D01*
X119937533Y-126715610D01*
X119937531Y-126715602D01*
X119864035Y-126538166D01*
X119816226Y-126466614D01*
X119386370Y-126896470D01*
X119372741Y-126845606D01*
X119320080Y-126754394D01*
X119245606Y-126679920D01*
X119154394Y-126627259D01*
X119103528Y-126613629D01*
X119533383Y-126183773D01*
X119461836Y-126135966D01*
X119461833Y-126135964D01*
X119387395Y-126105131D01*
X124849500Y-126105131D01*
X124849500Y-127894856D01*
X124849502Y-127894882D01*
X124852413Y-127919987D01*
X124852415Y-127919991D01*
X124897793Y-128022764D01*
X124897794Y-128022765D01*
X124977235Y-128102206D01*
X125080009Y-128147585D01*
X125105135Y-128150500D01*
X126894864Y-128150499D01*
X126894879Y-128150497D01*
X126894882Y-128150497D01*
X126919987Y-128147586D01*
X126919988Y-128147585D01*
X126919991Y-128147585D01*
X127022765Y-128102206D01*
X127102206Y-128022765D01*
X127147585Y-127919991D01*
X127150500Y-127894865D01*
X127150499Y-127157125D01*
X127170183Y-127090089D01*
X127222987Y-127044334D01*
X127292146Y-127034390D01*
X127355702Y-127063415D01*
X127393476Y-127122193D01*
X127396972Y-127137729D01*
X127417829Y-127269410D01*
X127473787Y-127441636D01*
X127473788Y-127441639D01*
X127512982Y-127518560D01*
X127536296Y-127564316D01*
X127556006Y-127602997D01*
X127662441Y-127749494D01*
X127662445Y-127749499D01*
X127790500Y-127877554D01*
X127790505Y-127877558D01*
X127873052Y-127937531D01*
X127937006Y-127983996D01*
X128013094Y-128022765D01*
X128098360Y-128066211D01*
X128098363Y-128066212D01*
X128184476Y-128094191D01*
X128270591Y-128122171D01*
X128353429Y-128135291D01*
X128449449Y-128150500D01*
X128449454Y-128150500D01*
X128630551Y-128150500D01*
X128717259Y-128136765D01*
X128809409Y-128122171D01*
X128981639Y-128066211D01*
X129142994Y-127983996D01*
X129289501Y-127877553D01*
X129417553Y-127749501D01*
X129523996Y-127602994D01*
X129606211Y-127441639D01*
X129662171Y-127269409D01*
X129676765Y-127177259D01*
X129690500Y-127090551D01*
X129690500Y-126909448D01*
X129665941Y-126754394D01*
X129662171Y-126730591D01*
X129616226Y-126589185D01*
X129606212Y-126558363D01*
X129606211Y-126558360D01*
X129571914Y-126491050D01*
X129523996Y-126397006D01*
X129439091Y-126280143D01*
X129417558Y-126250505D01*
X129417554Y-126250500D01*
X129289499Y-126122445D01*
X129289494Y-126122441D01*
X129142997Y-126016006D01*
X129142996Y-126016005D01*
X129142994Y-126016004D01*
X129066906Y-125977235D01*
X128981639Y-125933788D01*
X128981636Y-125933787D01*
X128809410Y-125877829D01*
X128630551Y-125849500D01*
X128630546Y-125849500D01*
X128449454Y-125849500D01*
X128449449Y-125849500D01*
X128270589Y-125877829D01*
X128098363Y-125933787D01*
X128098360Y-125933788D01*
X127937002Y-126016006D01*
X127790505Y-126122441D01*
X127790500Y-126122445D01*
X127662445Y-126250500D01*
X127662441Y-126250505D01*
X127556006Y-126397002D01*
X127473788Y-126558360D01*
X127473787Y-126558363D01*
X127417829Y-126730589D01*
X127396972Y-126862271D01*
X127367042Y-126925405D01*
X127307731Y-126962336D01*
X127237868Y-126961338D01*
X127179636Y-126922728D01*
X127151522Y-126858764D01*
X127150499Y-126842872D01*
X127150499Y-126105143D01*
X127150499Y-126105136D01*
X127149169Y-126093665D01*
X127147586Y-126080012D01*
X127147585Y-126080010D01*
X127147585Y-126080009D01*
X127102206Y-125977235D01*
X127022765Y-125897794D01*
X127022763Y-125897793D01*
X126919992Y-125852415D01*
X126894865Y-125849500D01*
X125105143Y-125849500D01*
X125105117Y-125849502D01*
X125080012Y-125852413D01*
X125080008Y-125852415D01*
X124977235Y-125897793D01*
X124897794Y-125977234D01*
X124852415Y-126080006D01*
X124852415Y-126080008D01*
X124849500Y-126105131D01*
X119387395Y-126105131D01*
X119284397Y-126062468D01*
X119284389Y-126062466D01*
X119096033Y-126025000D01*
X118903966Y-126025000D01*
X118715610Y-126062466D01*
X118715602Y-126062468D01*
X118538165Y-126135965D01*
X118466615Y-126183773D01*
X118466614Y-126183773D01*
X118896471Y-126613629D01*
X118845606Y-126627259D01*
X118754394Y-126679920D01*
X118679920Y-126754394D01*
X118627259Y-126845606D01*
X118613629Y-126896470D01*
X118183773Y-126466614D01*
X118183773Y-126466615D01*
X118135963Y-126538168D01*
X118114830Y-126589187D01*
X118070989Y-126643590D01*
X118004694Y-126665654D01*
X117936995Y-126648374D01*
X117889385Y-126597236D01*
X117885709Y-126589185D01*
X117864479Y-126537931D01*
X117864478Y-126537929D01*
X117833154Y-126491050D01*
X117757720Y-126378155D01*
X117757717Y-126378151D01*
X117699044Y-126319478D01*
X117699031Y-126319466D01*
X117621845Y-126242280D01*
X117597599Y-126226079D01*
X117590511Y-126219553D01*
X117577277Y-126197530D01*
X117560802Y-126177815D01*
X117558348Y-126166028D01*
X117554524Y-126159664D01*
X117554840Y-126149176D01*
X117550500Y-126128329D01*
X117550500Y-123427527D01*
X117550500Y-123427525D01*
X117512984Y-123287515D01*
X117440509Y-123161985D01*
X117338015Y-123059491D01*
X117338013Y-123059490D01*
X117338011Y-123059488D01*
X117212488Y-122987017D01*
X117212489Y-122987017D01*
X117201006Y-122983940D01*
X117072475Y-122949500D01*
X117072472Y-122949500D01*
X109174500Y-122949500D01*
X109107461Y-122929815D01*
X109061706Y-122877011D01*
X109050500Y-122825500D01*
X109050500Y-119723389D01*
X110839500Y-119723389D01*
X110839500Y-119896611D01*
X110866598Y-120067701D01*
X110920127Y-120232445D01*
X110998768Y-120386788D01*
X111100586Y-120526928D01*
X111223072Y-120649414D01*
X111363212Y-120751232D01*
X111517555Y-120829873D01*
X111682299Y-120883402D01*
X111853389Y-120910500D01*
X111853390Y-120910500D01*
X112026610Y-120910500D01*
X112026611Y-120910500D01*
X112197701Y-120883402D01*
X112362445Y-120829873D01*
X112516788Y-120751232D01*
X112656928Y-120649414D01*
X112779414Y-120526928D01*
X112881232Y-120386788D01*
X112959873Y-120232445D01*
X113013402Y-120067701D01*
X113040500Y-119896611D01*
X113040500Y-119723389D01*
X118459500Y-119723389D01*
X118459500Y-119896611D01*
X118486598Y-120067701D01*
X118540127Y-120232445D01*
X118618768Y-120386788D01*
X118720586Y-120526928D01*
X118843072Y-120649414D01*
X118983212Y-120751232D01*
X119137555Y-120829873D01*
X119302299Y-120883402D01*
X119473389Y-120910500D01*
X119473390Y-120910500D01*
X119646610Y-120910500D01*
X119646611Y-120910500D01*
X119817701Y-120883402D01*
X119982445Y-120829873D01*
X120136788Y-120751232D01*
X120276928Y-120649414D01*
X120399414Y-120526928D01*
X120501232Y-120386788D01*
X120579873Y-120232445D01*
X120633402Y-120067701D01*
X120660500Y-119896611D01*
X120660500Y-119723389D01*
X120633402Y-119552299D01*
X120579873Y-119387555D01*
X120501232Y-119233212D01*
X120399414Y-119093072D01*
X120276928Y-118970586D01*
X120136788Y-118868768D01*
X119982445Y-118790127D01*
X119817701Y-118736598D01*
X119817699Y-118736597D01*
X119817698Y-118736597D01*
X119686271Y-118715781D01*
X119646611Y-118709500D01*
X119473389Y-118709500D01*
X119433728Y-118715781D01*
X119302302Y-118736597D01*
X119137552Y-118790128D01*
X118983211Y-118868768D01*
X118903256Y-118926859D01*
X118843072Y-118970586D01*
X118843070Y-118970588D01*
X118843069Y-118970588D01*
X118720588Y-119093069D01*
X118720588Y-119093070D01*
X118720586Y-119093072D01*
X118676859Y-119153256D01*
X118618768Y-119233211D01*
X118540128Y-119387552D01*
X118486597Y-119552302D01*
X118459500Y-119723389D01*
X113040500Y-119723389D01*
X113013402Y-119552299D01*
X112959873Y-119387555D01*
X112881232Y-119233212D01*
X112779414Y-119093072D01*
X112656928Y-118970586D01*
X112516788Y-118868768D01*
X112362445Y-118790127D01*
X112197701Y-118736598D01*
X112197699Y-118736597D01*
X112197698Y-118736597D01*
X112066271Y-118715781D01*
X112026611Y-118709500D01*
X111853389Y-118709500D01*
X111813728Y-118715781D01*
X111682302Y-118736597D01*
X111517552Y-118790128D01*
X111363211Y-118868768D01*
X111283256Y-118926859D01*
X111223072Y-118970586D01*
X111223070Y-118970588D01*
X111223069Y-118970588D01*
X111100588Y-119093069D01*
X111100588Y-119093070D01*
X111100586Y-119093072D01*
X111056859Y-119153256D01*
X110998768Y-119233211D01*
X110920128Y-119387552D01*
X110866597Y-119552302D01*
X110839500Y-119723389D01*
X109050500Y-119723389D01*
X109050500Y-117183428D01*
X110840000Y-117183428D01*
X110840000Y-117356571D01*
X110867085Y-117527584D01*
X110920591Y-117692257D01*
X110999195Y-117846523D01*
X110999196Y-117846525D01*
X111033463Y-117893691D01*
X111033464Y-117893691D01*
X111553629Y-117373527D01*
X111567259Y-117424394D01*
X111619920Y-117515606D01*
X111694394Y-117590080D01*
X111785606Y-117642741D01*
X111836471Y-117656370D01*
X111316307Y-118176534D01*
X111363478Y-118210805D01*
X111517742Y-118289408D01*
X111682415Y-118342914D01*
X111853429Y-118370000D01*
X112026571Y-118370000D01*
X112197584Y-118342914D01*
X112362257Y-118289408D01*
X112516525Y-118210803D01*
X112563691Y-118176534D01*
X112563692Y-118176533D01*
X112043529Y-117656370D01*
X112094394Y-117642741D01*
X112185606Y-117590080D01*
X112260080Y-117515606D01*
X112312741Y-117424394D01*
X112326370Y-117373528D01*
X112846533Y-117893692D01*
X112846534Y-117893691D01*
X112880803Y-117846525D01*
X112959408Y-117692257D01*
X113012914Y-117527584D01*
X113040000Y-117356571D01*
X113040000Y-117183428D01*
X113039994Y-117183389D01*
X118459500Y-117183389D01*
X118459500Y-117356611D01*
X118486598Y-117527701D01*
X118540127Y-117692445D01*
X118618768Y-117846788D01*
X118720586Y-117986928D01*
X118843072Y-118109414D01*
X118983212Y-118211232D01*
X119137555Y-118289873D01*
X119302299Y-118343402D01*
X119473389Y-118370500D01*
X119473390Y-118370500D01*
X119646610Y-118370500D01*
X119646611Y-118370500D01*
X119817701Y-118343402D01*
X119982445Y-118289873D01*
X120136788Y-118211232D01*
X120276928Y-118109414D01*
X120399414Y-117986928D01*
X120501232Y-117846788D01*
X120579873Y-117692445D01*
X120633402Y-117527701D01*
X120660500Y-117356611D01*
X120660500Y-117183389D01*
X120633402Y-117012299D01*
X120579873Y-116847555D01*
X120501232Y-116693212D01*
X120399414Y-116553072D01*
X120276928Y-116430586D01*
X120136788Y-116328768D01*
X119982445Y-116250127D01*
X119817701Y-116196598D01*
X119817699Y-116196597D01*
X119817698Y-116196597D01*
X119686271Y-116175781D01*
X119646611Y-116169500D01*
X119473389Y-116169500D01*
X119433728Y-116175781D01*
X119302302Y-116196597D01*
X119137552Y-116250128D01*
X118983211Y-116328768D01*
X118935457Y-116363464D01*
X118843072Y-116430586D01*
X118843070Y-116430588D01*
X118843069Y-116430588D01*
X118720588Y-116553069D01*
X118720588Y-116553070D01*
X118720586Y-116553072D01*
X118676859Y-116613256D01*
X118618768Y-116693211D01*
X118540128Y-116847552D01*
X118486597Y-117012302D01*
X118484682Y-117024394D01*
X118459500Y-117183389D01*
X113039994Y-117183389D01*
X113012914Y-117012415D01*
X112959408Y-116847742D01*
X112880805Y-116693478D01*
X112846534Y-116646307D01*
X112326370Y-117166471D01*
X112312741Y-117115606D01*
X112260080Y-117024394D01*
X112185606Y-116949920D01*
X112094394Y-116897259D01*
X112043527Y-116883629D01*
X112563691Y-116363464D01*
X112563691Y-116363463D01*
X112516525Y-116329196D01*
X112516523Y-116329195D01*
X112362257Y-116250591D01*
X112197584Y-116197085D01*
X112026571Y-116170000D01*
X111853429Y-116170000D01*
X111682415Y-116197085D01*
X111517740Y-116250592D01*
X111363475Y-116329196D01*
X111316307Y-116363463D01*
X111316307Y-116363464D01*
X111836472Y-116883629D01*
X111785606Y-116897259D01*
X111694394Y-116949920D01*
X111619920Y-117024394D01*
X111567259Y-117115606D01*
X111553629Y-117166472D01*
X111033464Y-116646307D01*
X111033463Y-116646307D01*
X110999196Y-116693475D01*
X110920592Y-116847740D01*
X110867085Y-117012415D01*
X110840000Y-117183428D01*
X109050500Y-117183428D01*
X109050500Y-114643389D01*
X110839500Y-114643389D01*
X110839500Y-114816611D01*
X110866598Y-114987701D01*
X110920127Y-115152445D01*
X110998768Y-115306788D01*
X111100586Y-115446928D01*
X111223072Y-115569414D01*
X111363212Y-115671232D01*
X111517555Y-115749873D01*
X111682299Y-115803402D01*
X111853389Y-115830500D01*
X111853390Y-115830500D01*
X112026610Y-115830500D01*
X112026611Y-115830500D01*
X112197701Y-115803402D01*
X112362445Y-115749873D01*
X112516788Y-115671232D01*
X112656928Y-115569414D01*
X112779414Y-115446928D01*
X112881232Y-115306788D01*
X112959873Y-115152445D01*
X113013402Y-114987701D01*
X113040500Y-114816611D01*
X113040500Y-114643389D01*
X118459500Y-114643389D01*
X118459500Y-114816611D01*
X118486598Y-114987701D01*
X118540127Y-115152445D01*
X118618768Y-115306788D01*
X118720586Y-115446928D01*
X118843072Y-115569414D01*
X118983212Y-115671232D01*
X119137555Y-115749873D01*
X119302299Y-115803402D01*
X119473389Y-115830500D01*
X119473390Y-115830500D01*
X119646610Y-115830500D01*
X119646611Y-115830500D01*
X119817701Y-115803402D01*
X119982445Y-115749873D01*
X120136788Y-115671232D01*
X120276928Y-115569414D01*
X120399414Y-115446928D01*
X120501232Y-115306788D01*
X120579873Y-115152445D01*
X120633402Y-114987701D01*
X120660500Y-114816611D01*
X120660500Y-114643389D01*
X120633402Y-114472299D01*
X120579873Y-114307555D01*
X120501232Y-114153212D01*
X120399414Y-114013072D01*
X120276928Y-113890586D01*
X120136788Y-113788768D01*
X119982445Y-113710127D01*
X119817701Y-113656598D01*
X119817699Y-113656597D01*
X119817698Y-113656597D01*
X119686271Y-113635781D01*
X119646611Y-113629500D01*
X119473389Y-113629500D01*
X119433728Y-113635781D01*
X119302302Y-113656597D01*
X119137552Y-113710128D01*
X118983211Y-113788768D01*
X118903256Y-113846859D01*
X118843072Y-113890586D01*
X118843070Y-113890588D01*
X118843069Y-113890588D01*
X118720588Y-114013069D01*
X118720588Y-114013070D01*
X118720586Y-114013072D01*
X118676859Y-114073256D01*
X118618768Y-114153211D01*
X118540128Y-114307552D01*
X118486597Y-114472302D01*
X118459500Y-114643389D01*
X113040500Y-114643389D01*
X113013402Y-114472299D01*
X112959873Y-114307555D01*
X112881232Y-114153212D01*
X112779414Y-114013072D01*
X112656928Y-113890586D01*
X112516788Y-113788768D01*
X112362445Y-113710127D01*
X112197701Y-113656598D01*
X112197699Y-113656597D01*
X112197698Y-113656597D01*
X112066271Y-113635781D01*
X112026611Y-113629500D01*
X111853389Y-113629500D01*
X111813728Y-113635781D01*
X111682302Y-113656597D01*
X111517552Y-113710128D01*
X111363211Y-113788768D01*
X111283256Y-113846859D01*
X111223072Y-113890586D01*
X111223070Y-113890588D01*
X111223069Y-113890588D01*
X111100588Y-114013069D01*
X111100588Y-114013070D01*
X111100586Y-114013072D01*
X111056859Y-114073256D01*
X110998768Y-114153211D01*
X110920128Y-114307552D01*
X110866597Y-114472302D01*
X110839500Y-114643389D01*
X109050500Y-114643389D01*
X109050500Y-111596898D01*
X110839500Y-111596898D01*
X110839500Y-112783102D01*
X110845126Y-112829954D01*
X110850122Y-112871561D01*
X110905639Y-113012343D01*
X110997077Y-113132922D01*
X111117656Y-113224360D01*
X111117657Y-113224360D01*
X111117658Y-113224361D01*
X111258436Y-113279877D01*
X111346898Y-113290500D01*
X111346903Y-113290500D01*
X112533097Y-113290500D01*
X112533102Y-113290500D01*
X112621564Y-113279877D01*
X112762342Y-113224361D01*
X112882922Y-113132922D01*
X112974361Y-113012342D01*
X113029877Y-112871564D01*
X113040500Y-112783102D01*
X113040500Y-112103428D01*
X118460000Y-112103428D01*
X118460000Y-112276571D01*
X118487085Y-112447584D01*
X118540591Y-112612257D01*
X118619195Y-112766523D01*
X118619196Y-112766525D01*
X118653463Y-112813691D01*
X118653464Y-112813691D01*
X119173629Y-112293527D01*
X119187259Y-112344394D01*
X119239920Y-112435606D01*
X119314394Y-112510080D01*
X119405606Y-112562741D01*
X119456471Y-112576370D01*
X118936307Y-113096534D01*
X118983478Y-113130805D01*
X119137742Y-113209408D01*
X119302415Y-113262914D01*
X119473429Y-113290000D01*
X119646571Y-113290000D01*
X119817584Y-113262914D01*
X119982257Y-113209408D01*
X120136525Y-113130803D01*
X120183691Y-113096534D01*
X120183692Y-113096533D01*
X119663529Y-112576370D01*
X119714394Y-112562741D01*
X119805606Y-112510080D01*
X119880080Y-112435606D01*
X119932741Y-112344394D01*
X119946370Y-112293528D01*
X120466533Y-112813692D01*
X120466534Y-112813691D01*
X120500803Y-112766525D01*
X120579408Y-112612257D01*
X120632914Y-112447584D01*
X120660000Y-112276571D01*
X120660000Y-112103428D01*
X120632914Y-111932415D01*
X120579408Y-111767742D01*
X120500805Y-111613478D01*
X120466534Y-111566307D01*
X119946370Y-112086471D01*
X119932741Y-112035606D01*
X119880080Y-111944394D01*
X119805606Y-111869920D01*
X119714394Y-111817259D01*
X119663527Y-111803629D01*
X120183691Y-111283464D01*
X120183691Y-111283463D01*
X120136525Y-111249196D01*
X120136523Y-111249195D01*
X119982257Y-111170591D01*
X119817584Y-111117085D01*
X119646571Y-111090000D01*
X119473429Y-111090000D01*
X119302415Y-111117085D01*
X119137740Y-111170592D01*
X118983475Y-111249196D01*
X118936307Y-111283463D01*
X118936307Y-111283464D01*
X119456472Y-111803629D01*
X119405606Y-111817259D01*
X119314394Y-111869920D01*
X119239920Y-111944394D01*
X119187259Y-112035606D01*
X119173629Y-112086472D01*
X118653464Y-111566307D01*
X118653463Y-111566307D01*
X118619196Y-111613475D01*
X118540592Y-111767740D01*
X118487085Y-111932415D01*
X118460000Y-112103428D01*
X113040500Y-112103428D01*
X113040500Y-111596898D01*
X113029877Y-111508436D01*
X112974361Y-111367658D01*
X112974360Y-111367657D01*
X112974360Y-111367656D01*
X112882922Y-111247077D01*
X112762343Y-111155639D01*
X112621561Y-111100122D01*
X112575926Y-111094642D01*
X112533102Y-111089500D01*
X111346898Y-111089500D01*
X111307853Y-111094188D01*
X111258438Y-111100122D01*
X111117656Y-111155639D01*
X110997077Y-111247077D01*
X110905639Y-111367656D01*
X110850122Y-111508438D01*
X110844188Y-111557853D01*
X110839500Y-111596898D01*
X109050500Y-111596898D01*
X109050500Y-105674500D01*
X109070185Y-105607461D01*
X109122989Y-105561706D01*
X109174500Y-105550500D01*
X111265500Y-105550500D01*
X111332539Y-105570185D01*
X111378294Y-105622989D01*
X111389500Y-105674500D01*
X111389500Y-106976488D01*
X111369815Y-107043527D01*
X111338385Y-107076806D01*
X111223075Y-107160583D01*
X111223069Y-107160588D01*
X111100588Y-107283069D01*
X111100588Y-107283070D01*
X111100586Y-107283072D01*
X111056859Y-107343256D01*
X110998768Y-107423211D01*
X110920128Y-107577552D01*
X110866597Y-107742302D01*
X110864682Y-107754394D01*
X110839500Y-107913389D01*
X110839500Y-108086611D01*
X110866598Y-108257701D01*
X110920127Y-108422445D01*
X110998768Y-108576788D01*
X111100586Y-108716928D01*
X111223072Y-108839414D01*
X111363212Y-108941232D01*
X111517555Y-109019873D01*
X111682299Y-109073402D01*
X111853389Y-109100500D01*
X111853390Y-109100500D01*
X112026610Y-109100500D01*
X112026611Y-109100500D01*
X112197701Y-109073402D01*
X112362445Y-109019873D01*
X112516788Y-108941232D01*
X112656928Y-108839414D01*
X112779414Y-108716928D01*
X112881232Y-108576788D01*
X112959873Y-108422445D01*
X113013402Y-108257701D01*
X113040500Y-108086611D01*
X113040500Y-107913428D01*
X113340000Y-107913428D01*
X113340000Y-108086571D01*
X113367085Y-108257584D01*
X113420591Y-108422257D01*
X113499195Y-108576523D01*
X113499196Y-108576525D01*
X113533463Y-108623691D01*
X113533464Y-108623691D01*
X114053629Y-108103527D01*
X114067259Y-108154394D01*
X114119920Y-108245606D01*
X114194394Y-108320080D01*
X114285606Y-108372741D01*
X114336471Y-108386370D01*
X113816307Y-108906534D01*
X113863478Y-108940805D01*
X114017742Y-109019408D01*
X114182415Y-109072914D01*
X114353429Y-109100000D01*
X114526571Y-109100000D01*
X114697584Y-109072914D01*
X114862257Y-109019408D01*
X115016525Y-108940803D01*
X115063691Y-108906534D01*
X115063692Y-108906533D01*
X114543529Y-108386370D01*
X114594394Y-108372741D01*
X114685606Y-108320080D01*
X114760080Y-108245606D01*
X114812741Y-108154394D01*
X114826370Y-108103528D01*
X115346533Y-108623692D01*
X115346534Y-108623691D01*
X115380803Y-108576525D01*
X115459408Y-108422257D01*
X115512914Y-108257584D01*
X115540000Y-108086571D01*
X115540000Y-107913428D01*
X115512914Y-107742415D01*
X115459408Y-107577742D01*
X115380805Y-107423478D01*
X115346534Y-107376307D01*
X114826370Y-107896471D01*
X114812741Y-107845606D01*
X114760080Y-107754394D01*
X114685606Y-107679920D01*
X114594394Y-107627259D01*
X114543527Y-107613629D01*
X115063691Y-107093464D01*
X115063691Y-107093463D01*
X115016525Y-107059196D01*
X115016523Y-107059195D01*
X114862257Y-106980591D01*
X114697584Y-106927085D01*
X114526571Y-106900000D01*
X114353429Y-106900000D01*
X114182415Y-106927085D01*
X114017740Y-106980592D01*
X113863475Y-107059196D01*
X113816307Y-107093463D01*
X113816307Y-107093464D01*
X114336472Y-107613629D01*
X114285606Y-107627259D01*
X114194394Y-107679920D01*
X114119920Y-107754394D01*
X114067259Y-107845606D01*
X114053629Y-107896472D01*
X113533464Y-107376307D01*
X113533463Y-107376307D01*
X113499196Y-107423475D01*
X113420592Y-107577740D01*
X113367085Y-107742415D01*
X113340000Y-107913428D01*
X113040500Y-107913428D01*
X113040500Y-107913389D01*
X113013402Y-107742299D01*
X112959873Y-107577555D01*
X112881232Y-107423212D01*
X112779414Y-107283072D01*
X112656928Y-107160586D01*
X112541614Y-107076805D01*
X112498949Y-107021476D01*
X112490500Y-106976488D01*
X112490500Y-104927527D01*
X112490500Y-104927525D01*
X112452984Y-104787515D01*
X112437036Y-104759893D01*
X112380511Y-104661988D01*
X112380506Y-104661982D01*
X112278017Y-104559493D01*
X112278011Y-104559488D01*
X112152488Y-104487017D01*
X112152489Y-104487017D01*
X112141006Y-104483940D01*
X112012475Y-104449500D01*
X108572475Y-104449500D01*
X108427525Y-104449500D01*
X108298993Y-104483940D01*
X108287511Y-104487017D01*
X108161988Y-104559488D01*
X108161982Y-104559493D01*
X108059493Y-104661982D01*
X108059488Y-104661988D01*
X107987017Y-104787511D01*
X107987016Y-104787515D01*
X107949500Y-104927525D01*
X106674275Y-104927525D01*
X106779605Y-104759893D01*
X106906335Y-104496737D01*
X107002803Y-104221045D01*
X107067798Y-103936286D01*
X107100500Y-103646041D01*
X107100500Y-103353959D01*
X107067798Y-103063714D01*
X107002803Y-102778955D01*
X106906335Y-102503263D01*
X106779605Y-102240107D01*
X106624208Y-101992794D01*
X106442098Y-101764435D01*
X106235565Y-101557902D01*
X106007206Y-101375792D01*
X105759893Y-101220395D01*
X105759890Y-101220393D01*
X105496738Y-101093665D01*
X105221046Y-100997197D01*
X105221044Y-100997196D01*
X105001280Y-100947036D01*
X104936286Y-100932202D01*
X104936283Y-100932201D01*
X104936271Y-100932199D01*
X104646047Y-100899500D01*
X104646041Y-100899500D01*
X104353959Y-100899500D01*
X104353952Y-100899500D01*
X104063728Y-100932199D01*
X104063714Y-100932202D01*
X103778955Y-100997196D01*
X103778953Y-100997197D01*
X103503261Y-101093665D01*
X103240109Y-101220393D01*
X102992795Y-101375791D01*
X102764435Y-101557901D01*
X102557901Y-101764435D01*
X102375791Y-101992795D01*
X102220393Y-102240109D01*
X102093665Y-102503261D01*
X101997197Y-102778953D01*
X101997196Y-102778955D01*
X101932202Y-103063714D01*
X101932199Y-103063728D01*
X101899500Y-103353952D01*
X100600000Y-103353952D01*
X100600000Y-100724000D01*
X100619685Y-100656961D01*
X100672489Y-100611206D01*
X100724000Y-100600000D01*
X132876000Y-100600000D01*
X132943039Y-100619685D01*
G37*
%TD.AperFunction*%
%TD*%
M02*
