%TF.GenerationSoftware,KiCad,Pcbnew,10.0.6*%
%TF.CreationDate,2026-09-24T22:51:19+07:00*%
%TF.ProjectId,opt101_receiver,6f707431-3031-45f7-9265-636569766572,rev?*%
%TF.SameCoordinates,Original*%
%TF.FileFunction,Copper,L1,Top*%
%TF.FilePolarity,Positive*%
%FSLAX46Y46*%
G04 Gerber Fmt 4.6, Leading zero omitted, Abs format (unit mm)*
G04 Created by KiCad (PCBNEW 10.0.6) date 2026-09-24 22:51:19*
%MOMM*%
%LPD*%
G01*
G04 APERTURE LIST*
G04 Aperture macros list*
%AMRoundRect*
0 Rectangle with rounded corners*
0 $1 Rounding radius*
0 $2 $3 $4 $5 $6 $7 $8 $9 X,Y pos of 4 corners*
0 Add a 4 corners polygon primitive as box body*
4,1,4,$2,$3,$4,$5,$6,$7,$8,$9,$2,$3,0*
0 Add four circle primitives for the rounded corners*
1,1,$1+$1,$2,$3*
1,1,$1+$1,$4,$5*
1,1,$1+$1,$6,$7*
1,1,$1+$1,$8,$9*
0 Add four rect primitives between the rounded corners*
20,1,$1+$1,$2,$3,$4,$5,0*
20,1,$1+$1,$4,$5,$6,$7,0*
20,1,$1+$1,$6,$7,$8,$9,0*
20,1,$1+$1,$8,$9,$2,$3,0*%
G04 Aperture macros list end*
%TA.AperFunction,ComponentPad*%
%ADD10R,1.700000X1.700000*%
%TD*%
%TA.AperFunction,ComponentPad*%
%ADD11C,1.700000*%
%TD*%
%TA.AperFunction,ComponentPad*%
%ADD12RoundRect,0.250000X-0.550000X-0.550000X0.550000X-0.550000X0.550000X0.550000X-0.550000X0.550000X0*%
%TD*%
%TA.AperFunction,ComponentPad*%
%ADD13C,1.600000*%
%TD*%
%TA.AperFunction,ComponentPad*%
%ADD14R,1.350000X1.350000*%
%TD*%
%TA.AperFunction,ComponentPad*%
%ADD15C,1.350000*%
%TD*%
%TA.AperFunction,Conductor*%
%ADD16C,0.350000*%
%TD*%
%TA.AperFunction,Conductor*%
%ADD17C,0.500000*%
%TD*%
G04 APERTURE END LIST*
D10*
%TO.P,J3,1*%
%TO.N,/OUT_RED*%
X126000000Y-127000000D03*
D11*
%TO.P,J3,2*%
%TO.N,/OUT_IR*%
X128540000Y-127000000D03*
%TD*%
D12*
%TO.P,U1,1*%
%TO.N,/3V3_RED*%
X111940000Y-112190000D03*
D13*
%TO.P,U1,2*%
%TO.N,unconnected-(U1--IN-Pad2)*%
X111940000Y-114730000D03*
%TO.P,U1,3*%
%TO.N,/GND_RED*%
X111940000Y-117270000D03*
%TO.P,U1,4*%
%TO.N,/OUT_RED*%
X111940000Y-119810000D03*
%TO.P,U1,5*%
X119560000Y-119810000D03*
%TO.P,U1,6*%
%TO.N,unconnected-(U1-NC-Pad6)*%
X119560000Y-117270000D03*
%TO.P,U1,7*%
%TO.N,unconnected-(U1-NC-Pad7)*%
X119560000Y-114730000D03*
%TO.P,U1,8*%
%TO.N,/GND_RED*%
X119560000Y-112190000D03*
%TD*%
D14*
%TO.P,J1,1*%
%TO.N,/OUT_RED*%
X113000000Y-127000000D03*
D15*
%TO.P,J1,2*%
%TO.N,unconnected-(J1-UNUSED-Pad2)*%
X115000000Y-127000000D03*
%TO.P,J1,3*%
%TO.N,/3V3_RED*%
X117000000Y-127000000D03*
%TO.P,J1,4*%
%TO.N,/GND_RED*%
X119000000Y-127000000D03*
%TD*%
D13*
%TO.P,C2,1*%
%TO.N,/3V3_IR*%
X150440000Y-108000000D03*
%TO.P,C2,2*%
%TO.N,/GND_IR*%
X152940000Y-108000000D03*
%TD*%
%TO.P,C1,1*%
%TO.N,/3V3_RED*%
X111940000Y-108000000D03*
%TO.P,C1,2*%
%TO.N,/GND_RED*%
X114440000Y-108000000D03*
%TD*%
D12*
%TO.P,U2,1*%
%TO.N,/3V3_IR*%
X150440000Y-112190000D03*
D13*
%TO.P,U2,2*%
%TO.N,unconnected-(U2--IN-Pad2)*%
X150440000Y-114730000D03*
%TO.P,U2,3*%
%TO.N,/GND_IR*%
X150440000Y-117270000D03*
%TO.P,U2,4*%
%TO.N,/OUT_IR*%
X150440000Y-119810000D03*
%TO.P,U2,5*%
X158060000Y-119810000D03*
%TO.P,U2,6*%
%TO.N,unconnected-(U2-NC-Pad6)*%
X158060000Y-117270000D03*
%TO.P,U2,7*%
%TO.N,unconnected-(U2-NC-Pad7)*%
X158060000Y-114730000D03*
%TO.P,U2,8*%
%TO.N,/GND_IR*%
X158060000Y-112190000D03*
%TD*%
D14*
%TO.P,J2,1*%
%TO.N,/OUT_IR*%
X151000000Y-127000000D03*
D15*
%TO.P,J2,2*%
%TO.N,unconnected-(J2-UNUSED-Pad2)*%
X153000000Y-127000000D03*
%TO.P,J2,3*%
%TO.N,/3V3_IR*%
X155000000Y-127000000D03*
%TO.P,J2,4*%
%TO.N,/GND_IR*%
X157000000Y-127000000D03*
%TD*%
%TO.N,/3V3_IR*%
D16*
X150440000Y-112190000D02*
X150440000Y-108000000D01*
%TO.N,/3V3_RED*%
X111940000Y-112190000D02*
X111940000Y-108000000D01*
%TO.N,/GND_IR*%
D17*
X158060000Y-108000000D02*
X158060000Y-112190000D01*
X152940000Y-108000000D02*
X158060000Y-108000000D01*
%TO.N,/GND_RED*%
X119560000Y-108000000D02*
X119560000Y-112190000D01*
X114440000Y-108000000D02*
X119560000Y-108000000D01*
%TO.N,/OUT_IR*%
D16*
X150440000Y-119810000D02*
X158060000Y-119810000D01*
X151000000Y-125500000D02*
X128539999Y-125500000D01*
X151000000Y-123000000D02*
X151000000Y-127000000D01*
X150440000Y-119810000D02*
X150440000Y-123000000D01*
X128539999Y-125500000D02*
X128539999Y-127000000D01*
X151000000Y-127000000D02*
X151000000Y-125500000D01*
X150440000Y-123000000D02*
X151000000Y-123000000D01*
%TO.N,/OUT_RED*%
X111940000Y-119810000D02*
X111940000Y-123000000D01*
X126000000Y-125500000D02*
X126000000Y-127000000D01*
X111940000Y-123000000D02*
X113000000Y-123000000D01*
X113000000Y-127000000D02*
X113000000Y-125500000D01*
X111940000Y-119810000D02*
X119560000Y-119810000D01*
X113000000Y-123000000D02*
X113000000Y-127000000D01*
X113000000Y-125500000D02*
X126000000Y-125500000D01*
%TD*%
M02*
