%TF.GenerationSoftware,KiCad,Pcbnew,10.0.6*%
%TF.CreationDate,2026-09-29T21:11:43+07:00*%
%TF.ProjectId,opt101_receiver,6f707431-3031-45f7-9265-636569766572,rev?*%
%TF.SameCoordinates,Original*%
%TF.FileFunction,Legend,Top*%
%TF.FilePolarity,Positive*%
%FSLAX46Y46*%
G04 Gerber Fmt 4.6, Leading zero omitted, Abs format (unit mm)*
G04 Created by KiCad (PCBNEW 10.0.6) date 2026-09-29 21:11:43*
%MOMM*%
%LPD*%
G01*
G04 APERTURE LIST*
%ADD10C,0.130000*%
%ADD11C,0.120000*%
G04 APERTURE END LIST*
D10*
X106142856Y-124634763D02*
X106523809Y-124634763D01*
X106066666Y-124863335D02*
X106333333Y-124063335D01*
X106333333Y-124063335D02*
X106599999Y-124863335D01*
X106828570Y-124139525D02*
X106866666Y-124101430D01*
X106866666Y-124101430D02*
X106942856Y-124063335D01*
X106942856Y-124063335D02*
X107133332Y-124063335D01*
X107133332Y-124063335D02*
X107209523Y-124101430D01*
X107209523Y-124101430D02*
X107247618Y-124139525D01*
X107247618Y-124139525D02*
X107285713Y-124215716D01*
X107285713Y-124215716D02*
X107285713Y-124291906D01*
X107285713Y-124291906D02*
X107247618Y-124406192D01*
X107247618Y-124406192D02*
X106790475Y-124863335D01*
X106790475Y-124863335D02*
X107285713Y-124863335D01*
X108695238Y-124863335D02*
X108428571Y-124482382D01*
X108238095Y-124863335D02*
X108238095Y-124063335D01*
X108238095Y-124063335D02*
X108542857Y-124063335D01*
X108542857Y-124063335D02*
X108619047Y-124101430D01*
X108619047Y-124101430D02*
X108657142Y-124139525D01*
X108657142Y-124139525D02*
X108695238Y-124215716D01*
X108695238Y-124215716D02*
X108695238Y-124330001D01*
X108695238Y-124330001D02*
X108657142Y-124406192D01*
X108657142Y-124406192D02*
X108619047Y-124444287D01*
X108619047Y-124444287D02*
X108542857Y-124482382D01*
X108542857Y-124482382D02*
X108238095Y-124482382D01*
X109038095Y-124444287D02*
X109304761Y-124444287D01*
X109419047Y-124863335D02*
X109038095Y-124863335D01*
X109038095Y-124863335D02*
X109038095Y-124063335D01*
X109038095Y-124063335D02*
X109419047Y-124063335D01*
X109761905Y-124863335D02*
X109761905Y-124063335D01*
X109761905Y-124063335D02*
X109952381Y-124063335D01*
X109952381Y-124063335D02*
X110066667Y-124101430D01*
X110066667Y-124101430D02*
X110142857Y-124177620D01*
X110142857Y-124177620D02*
X110180952Y-124253811D01*
X110180952Y-124253811D02*
X110219048Y-124406192D01*
X110219048Y-124406192D02*
X110219048Y-124520478D01*
X110219048Y-124520478D02*
X110180952Y-124672859D01*
X110180952Y-124672859D02*
X110142857Y-124749049D01*
X110142857Y-124749049D02*
X110066667Y-124825240D01*
X110066667Y-124825240D02*
X109952381Y-124863335D01*
X109952381Y-124863335D02*
X109761905Y-124863335D01*
X111742857Y-124825240D02*
X111857143Y-124863335D01*
X111857143Y-124863335D02*
X112047619Y-124863335D01*
X112047619Y-124863335D02*
X112123810Y-124825240D01*
X112123810Y-124825240D02*
X112161905Y-124787144D01*
X112161905Y-124787144D02*
X112200000Y-124710954D01*
X112200000Y-124710954D02*
X112200000Y-124634763D01*
X112200000Y-124634763D02*
X112161905Y-124558573D01*
X112161905Y-124558573D02*
X112123810Y-124520478D01*
X112123810Y-124520478D02*
X112047619Y-124482382D01*
X112047619Y-124482382D02*
X111895238Y-124444287D01*
X111895238Y-124444287D02*
X111819048Y-124406192D01*
X111819048Y-124406192D02*
X111780953Y-124368097D01*
X111780953Y-124368097D02*
X111742857Y-124291906D01*
X111742857Y-124291906D02*
X111742857Y-124215716D01*
X111742857Y-124215716D02*
X111780953Y-124139525D01*
X111780953Y-124139525D02*
X111819048Y-124101430D01*
X111819048Y-124101430D02*
X111895238Y-124063335D01*
X111895238Y-124063335D02*
X112085715Y-124063335D01*
X112085715Y-124063335D02*
X112200000Y-124101430D01*
X112542858Y-124863335D02*
X112542858Y-124063335D01*
X113342857Y-124101430D02*
X113266667Y-124063335D01*
X113266667Y-124063335D02*
X113152381Y-124063335D01*
X113152381Y-124063335D02*
X113038095Y-124101430D01*
X113038095Y-124101430D02*
X112961905Y-124177620D01*
X112961905Y-124177620D02*
X112923810Y-124253811D01*
X112923810Y-124253811D02*
X112885714Y-124406192D01*
X112885714Y-124406192D02*
X112885714Y-124520478D01*
X112885714Y-124520478D02*
X112923810Y-124672859D01*
X112923810Y-124672859D02*
X112961905Y-124749049D01*
X112961905Y-124749049D02*
X113038095Y-124825240D01*
X113038095Y-124825240D02*
X113152381Y-124863335D01*
X113152381Y-124863335D02*
X113228572Y-124863335D01*
X113228572Y-124863335D02*
X113342857Y-124825240D01*
X113342857Y-124825240D02*
X113380953Y-124787144D01*
X113380953Y-124787144D02*
X113380953Y-124520478D01*
X113380953Y-124520478D02*
X113228572Y-124520478D01*
X114333334Y-124863335D02*
X114333334Y-124063335D01*
X114333334Y-124063335D02*
X114790477Y-124863335D01*
X114790477Y-124863335D02*
X114790477Y-124063335D01*
X115628572Y-124787144D02*
X115590476Y-124825240D01*
X115590476Y-124825240D02*
X115476191Y-124863335D01*
X115476191Y-124863335D02*
X115400000Y-124863335D01*
X115400000Y-124863335D02*
X115285714Y-124825240D01*
X115285714Y-124825240D02*
X115209524Y-124749049D01*
X115209524Y-124749049D02*
X115171429Y-124672859D01*
X115171429Y-124672859D02*
X115133333Y-124520478D01*
X115133333Y-124520478D02*
X115133333Y-124406192D01*
X115133333Y-124406192D02*
X115171429Y-124253811D01*
X115171429Y-124253811D02*
X115209524Y-124177620D01*
X115209524Y-124177620D02*
X115285714Y-124101430D01*
X115285714Y-124101430D02*
X115400000Y-124063335D01*
X115400000Y-124063335D02*
X115476191Y-124063335D01*
X115476191Y-124063335D02*
X115590476Y-124101430D01*
X115590476Y-124101430D02*
X115628572Y-124139525D01*
X116504762Y-124063335D02*
X117000000Y-124063335D01*
X117000000Y-124063335D02*
X116733334Y-124368097D01*
X116733334Y-124368097D02*
X116847619Y-124368097D01*
X116847619Y-124368097D02*
X116923810Y-124406192D01*
X116923810Y-124406192D02*
X116961905Y-124444287D01*
X116961905Y-124444287D02*
X117000000Y-124520478D01*
X117000000Y-124520478D02*
X117000000Y-124710954D01*
X117000000Y-124710954D02*
X116961905Y-124787144D01*
X116961905Y-124787144D02*
X116923810Y-124825240D01*
X116923810Y-124825240D02*
X116847619Y-124863335D01*
X116847619Y-124863335D02*
X116619048Y-124863335D01*
X116619048Y-124863335D02*
X116542857Y-124825240D01*
X116542857Y-124825240D02*
X116504762Y-124787144D01*
X117228572Y-124063335D02*
X117495239Y-124863335D01*
X117495239Y-124863335D02*
X117761905Y-124063335D01*
X117952381Y-124063335D02*
X118447619Y-124063335D01*
X118447619Y-124063335D02*
X118180953Y-124368097D01*
X118180953Y-124368097D02*
X118295238Y-124368097D01*
X118295238Y-124368097D02*
X118371429Y-124406192D01*
X118371429Y-124406192D02*
X118409524Y-124444287D01*
X118409524Y-124444287D02*
X118447619Y-124520478D01*
X118447619Y-124520478D02*
X118447619Y-124710954D01*
X118447619Y-124710954D02*
X118409524Y-124787144D01*
X118409524Y-124787144D02*
X118371429Y-124825240D01*
X118371429Y-124825240D02*
X118295238Y-124863335D01*
X118295238Y-124863335D02*
X118066667Y-124863335D01*
X118066667Y-124863335D02*
X117990476Y-124825240D01*
X117990476Y-124825240D02*
X117952381Y-124787144D01*
X119819048Y-124101430D02*
X119742858Y-124063335D01*
X119742858Y-124063335D02*
X119628572Y-124063335D01*
X119628572Y-124063335D02*
X119514286Y-124101430D01*
X119514286Y-124101430D02*
X119438096Y-124177620D01*
X119438096Y-124177620D02*
X119400001Y-124253811D01*
X119400001Y-124253811D02*
X119361905Y-124406192D01*
X119361905Y-124406192D02*
X119361905Y-124520478D01*
X119361905Y-124520478D02*
X119400001Y-124672859D01*
X119400001Y-124672859D02*
X119438096Y-124749049D01*
X119438096Y-124749049D02*
X119514286Y-124825240D01*
X119514286Y-124825240D02*
X119628572Y-124863335D01*
X119628572Y-124863335D02*
X119704763Y-124863335D01*
X119704763Y-124863335D02*
X119819048Y-124825240D01*
X119819048Y-124825240D02*
X119857144Y-124787144D01*
X119857144Y-124787144D02*
X119857144Y-124520478D01*
X119857144Y-124520478D02*
X119704763Y-124520478D01*
X111864285Y-105330001D02*
X111864285Y-105863335D01*
X111673809Y-105025240D02*
X111483332Y-105596668D01*
X111483332Y-105596668D02*
X111978571Y-105596668D01*
X112283333Y-105558573D02*
X112892857Y-105558573D01*
X113273809Y-105558573D02*
X113883333Y-105558573D01*
X114645237Y-105063335D02*
X114264285Y-105063335D01*
X114264285Y-105063335D02*
X114226189Y-105444287D01*
X114226189Y-105444287D02*
X114264285Y-105406192D01*
X114264285Y-105406192D02*
X114340475Y-105368097D01*
X114340475Y-105368097D02*
X114530951Y-105368097D01*
X114530951Y-105368097D02*
X114607142Y-105406192D01*
X114607142Y-105406192D02*
X114645237Y-105444287D01*
X114645237Y-105444287D02*
X114683332Y-105520478D01*
X114683332Y-105520478D02*
X114683332Y-105710954D01*
X114683332Y-105710954D02*
X114645237Y-105787144D01*
X114645237Y-105787144D02*
X114607142Y-105825240D01*
X114607142Y-105825240D02*
X114530951Y-105863335D01*
X114530951Y-105863335D02*
X114340475Y-105863335D01*
X114340475Y-105863335D02*
X114264285Y-105825240D01*
X114264285Y-105825240D02*
X114226189Y-105787144D01*
X116664285Y-105863335D02*
X116207142Y-105863335D01*
X116435714Y-105863335D02*
X116435714Y-105063335D01*
X116435714Y-105063335D02*
X116359523Y-105177620D01*
X116359523Y-105177620D02*
X116283333Y-105253811D01*
X116283333Y-105253811D02*
X116207142Y-105291906D01*
X117007143Y-105863335D02*
X117007143Y-105063335D01*
X117007143Y-105063335D02*
X117273809Y-105634763D01*
X117273809Y-105634763D02*
X117540476Y-105063335D01*
X117540476Y-105063335D02*
X117540476Y-105863335D01*
X118530953Y-105863335D02*
X118530953Y-105063335D01*
X118911905Y-105863335D02*
X118911905Y-105063335D01*
X118911905Y-105063335D02*
X119369048Y-105863335D01*
X119369048Y-105863335D02*
X119369048Y-105063335D01*
X119635714Y-105063335D02*
X120092857Y-105063335D01*
X119864285Y-105863335D02*
X119864285Y-105063335D01*
X123746190Y-124634763D02*
X124127143Y-124634763D01*
X123670000Y-124863335D02*
X123936667Y-124063335D01*
X123936667Y-124063335D02*
X124203333Y-124863335D01*
X124470000Y-124863335D02*
X124470000Y-124063335D01*
X124470000Y-124063335D02*
X124660476Y-124063335D01*
X124660476Y-124063335D02*
X124774762Y-124101430D01*
X124774762Y-124101430D02*
X124850952Y-124177620D01*
X124850952Y-124177620D02*
X124889047Y-124253811D01*
X124889047Y-124253811D02*
X124927143Y-124406192D01*
X124927143Y-124406192D02*
X124927143Y-124520478D01*
X124927143Y-124520478D02*
X124889047Y-124672859D01*
X124889047Y-124672859D02*
X124850952Y-124749049D01*
X124850952Y-124749049D02*
X124774762Y-124825240D01*
X124774762Y-124825240D02*
X124660476Y-124863335D01*
X124660476Y-124863335D02*
X124470000Y-124863335D01*
X125231904Y-124825240D02*
X125346190Y-124863335D01*
X125346190Y-124863335D02*
X125536666Y-124863335D01*
X125536666Y-124863335D02*
X125612857Y-124825240D01*
X125612857Y-124825240D02*
X125650952Y-124787144D01*
X125650952Y-124787144D02*
X125689047Y-124710954D01*
X125689047Y-124710954D02*
X125689047Y-124634763D01*
X125689047Y-124634763D02*
X125650952Y-124558573D01*
X125650952Y-124558573D02*
X125612857Y-124520478D01*
X125612857Y-124520478D02*
X125536666Y-124482382D01*
X125536666Y-124482382D02*
X125384285Y-124444287D01*
X125384285Y-124444287D02*
X125308095Y-124406192D01*
X125308095Y-124406192D02*
X125270000Y-124368097D01*
X125270000Y-124368097D02*
X125231904Y-124291906D01*
X125231904Y-124291906D02*
X125231904Y-124215716D01*
X125231904Y-124215716D02*
X125270000Y-124139525D01*
X125270000Y-124139525D02*
X125308095Y-124101430D01*
X125308095Y-124101430D02*
X125384285Y-124063335D01*
X125384285Y-124063335D02*
X125574762Y-124063335D01*
X125574762Y-124063335D02*
X125689047Y-124101430D01*
X126031905Y-124787144D02*
X126070000Y-124825240D01*
X126070000Y-124825240D02*
X126031905Y-124863335D01*
X126031905Y-124863335D02*
X125993809Y-124825240D01*
X125993809Y-124825240D02*
X126031905Y-124787144D01*
X126031905Y-124787144D02*
X126031905Y-124863335D01*
X126031905Y-124368097D02*
X126070000Y-124406192D01*
X126070000Y-124406192D02*
X126031905Y-124444287D01*
X126031905Y-124444287D02*
X125993809Y-124406192D01*
X125993809Y-124406192D02*
X126031905Y-124368097D01*
X126031905Y-124368097D02*
X126031905Y-124444287D01*
X127479524Y-124863335D02*
X127212857Y-124482382D01*
X127022381Y-124863335D02*
X127022381Y-124063335D01*
X127022381Y-124063335D02*
X127327143Y-124063335D01*
X127327143Y-124063335D02*
X127403333Y-124101430D01*
X127403333Y-124101430D02*
X127441428Y-124139525D01*
X127441428Y-124139525D02*
X127479524Y-124215716D01*
X127479524Y-124215716D02*
X127479524Y-124330001D01*
X127479524Y-124330001D02*
X127441428Y-124406192D01*
X127441428Y-124406192D02*
X127403333Y-124444287D01*
X127403333Y-124444287D02*
X127327143Y-124482382D01*
X127327143Y-124482382D02*
X127022381Y-124482382D01*
X127822381Y-124444287D02*
X128089047Y-124444287D01*
X128203333Y-124863335D02*
X127822381Y-124863335D01*
X127822381Y-124863335D02*
X127822381Y-124063335D01*
X127822381Y-124063335D02*
X128203333Y-124063335D01*
X128546191Y-124863335D02*
X128546191Y-124063335D01*
X128546191Y-124063335D02*
X128736667Y-124063335D01*
X128736667Y-124063335D02*
X128850953Y-124101430D01*
X128850953Y-124101430D02*
X128927143Y-124177620D01*
X128927143Y-124177620D02*
X128965238Y-124253811D01*
X128965238Y-124253811D02*
X129003334Y-124406192D01*
X129003334Y-124406192D02*
X129003334Y-124520478D01*
X129003334Y-124520478D02*
X128965238Y-124672859D01*
X128965238Y-124672859D02*
X128927143Y-124749049D01*
X128927143Y-124749049D02*
X128850953Y-124825240D01*
X128850953Y-124825240D02*
X128736667Y-124863335D01*
X128736667Y-124863335D02*
X128546191Y-124863335D01*
X129955715Y-124863335D02*
X129955715Y-124063335D01*
X130793810Y-124863335D02*
X130527143Y-124482382D01*
X130336667Y-124863335D02*
X130336667Y-124063335D01*
X130336667Y-124063335D02*
X130641429Y-124063335D01*
X130641429Y-124063335D02*
X130717619Y-124101430D01*
X130717619Y-124101430D02*
X130755714Y-124139525D01*
X130755714Y-124139525D02*
X130793810Y-124215716D01*
X130793810Y-124215716D02*
X130793810Y-124330001D01*
X130793810Y-124330001D02*
X130755714Y-124406192D01*
X130755714Y-124406192D02*
X130717619Y-124444287D01*
X130717619Y-124444287D02*
X130641429Y-124482382D01*
X130641429Y-124482382D02*
X130336667Y-124482382D01*
X132676190Y-121919358D02*
X132828571Y-121919358D01*
X132828571Y-121919358D02*
X132904761Y-121957453D01*
X132904761Y-121957453D02*
X132980952Y-122033643D01*
X132980952Y-122033643D02*
X133019047Y-122186024D01*
X133019047Y-122186024D02*
X133019047Y-122452691D01*
X133019047Y-122452691D02*
X132980952Y-122605072D01*
X132980952Y-122605072D02*
X132904761Y-122681263D01*
X132904761Y-122681263D02*
X132828571Y-122719358D01*
X132828571Y-122719358D02*
X132676190Y-122719358D01*
X132676190Y-122719358D02*
X132599999Y-122681263D01*
X132599999Y-122681263D02*
X132523809Y-122605072D01*
X132523809Y-122605072D02*
X132485713Y-122452691D01*
X132485713Y-122452691D02*
X132485713Y-122186024D01*
X132485713Y-122186024D02*
X132523809Y-122033643D01*
X132523809Y-122033643D02*
X132599999Y-121957453D01*
X132599999Y-121957453D02*
X132676190Y-121919358D01*
X133361904Y-122719358D02*
X133361904Y-121919358D01*
X133361904Y-121919358D02*
X133666666Y-121919358D01*
X133666666Y-121919358D02*
X133742856Y-121957453D01*
X133742856Y-121957453D02*
X133780951Y-121995548D01*
X133780951Y-121995548D02*
X133819047Y-122071739D01*
X133819047Y-122071739D02*
X133819047Y-122186024D01*
X133819047Y-122186024D02*
X133780951Y-122262215D01*
X133780951Y-122262215D02*
X133742856Y-122300310D01*
X133742856Y-122300310D02*
X133666666Y-122338405D01*
X133666666Y-122338405D02*
X133361904Y-122338405D01*
X134047618Y-121919358D02*
X134504761Y-121919358D01*
X134276189Y-122719358D02*
X134276189Y-121919358D01*
X135190475Y-122719358D02*
X134733332Y-122719358D01*
X134961904Y-122719358D02*
X134961904Y-121919358D01*
X134961904Y-121919358D02*
X134885713Y-122033643D01*
X134885713Y-122033643D02*
X134809523Y-122109834D01*
X134809523Y-122109834D02*
X134733332Y-122147929D01*
X135685714Y-121919358D02*
X135761904Y-121919358D01*
X135761904Y-121919358D02*
X135838095Y-121957453D01*
X135838095Y-121957453D02*
X135876190Y-121995548D01*
X135876190Y-121995548D02*
X135914285Y-122071739D01*
X135914285Y-122071739D02*
X135952380Y-122224120D01*
X135952380Y-122224120D02*
X135952380Y-122414596D01*
X135952380Y-122414596D02*
X135914285Y-122566977D01*
X135914285Y-122566977D02*
X135876190Y-122643167D01*
X135876190Y-122643167D02*
X135838095Y-122681263D01*
X135838095Y-122681263D02*
X135761904Y-122719358D01*
X135761904Y-122719358D02*
X135685714Y-122719358D01*
X135685714Y-122719358D02*
X135609523Y-122681263D01*
X135609523Y-122681263D02*
X135571428Y-122643167D01*
X135571428Y-122643167D02*
X135533333Y-122566977D01*
X135533333Y-122566977D02*
X135495237Y-122414596D01*
X135495237Y-122414596D02*
X135495237Y-122224120D01*
X135495237Y-122224120D02*
X135533333Y-122071739D01*
X135533333Y-122071739D02*
X135571428Y-121995548D01*
X135571428Y-121995548D02*
X135609523Y-121957453D01*
X135609523Y-121957453D02*
X135685714Y-121919358D01*
X136714285Y-122719358D02*
X136257142Y-122719358D01*
X136485714Y-122719358D02*
X136485714Y-121919358D01*
X136485714Y-121919358D02*
X136409523Y-122033643D01*
X136409523Y-122033643D02*
X136333333Y-122109834D01*
X136333333Y-122109834D02*
X136257142Y-122147929D01*
X137057143Y-122719358D02*
X137057143Y-121919358D01*
X137057143Y-121919358D02*
X137361905Y-121919358D01*
X137361905Y-121919358D02*
X137438095Y-121957453D01*
X137438095Y-121957453D02*
X137476190Y-121995548D01*
X137476190Y-121995548D02*
X137514286Y-122071739D01*
X137514286Y-122071739D02*
X137514286Y-122186024D01*
X137514286Y-122186024D02*
X137476190Y-122262215D01*
X137476190Y-122262215D02*
X137438095Y-122300310D01*
X137438095Y-122300310D02*
X137361905Y-122338405D01*
X137361905Y-122338405D02*
X137057143Y-122338405D01*
X132371429Y-124007313D02*
X132371429Y-123207313D01*
X132371429Y-123207313D02*
X132676191Y-123207313D01*
X132676191Y-123207313D02*
X132752381Y-123245408D01*
X132752381Y-123245408D02*
X132790476Y-123283503D01*
X132790476Y-123283503D02*
X132828572Y-123359694D01*
X132828572Y-123359694D02*
X132828572Y-123473979D01*
X132828572Y-123473979D02*
X132790476Y-123550170D01*
X132790476Y-123550170D02*
X132752381Y-123588265D01*
X132752381Y-123588265D02*
X132676191Y-123626360D01*
X132676191Y-123626360D02*
X132371429Y-123626360D01*
X133171429Y-124007313D02*
X133171429Y-123207313D01*
X133552381Y-124007313D02*
X133552381Y-123207313D01*
X133552381Y-123207313D02*
X134009524Y-124007313D01*
X134009524Y-124007313D02*
X134009524Y-123207313D01*
X135419047Y-124007313D02*
X134961904Y-124007313D01*
X135190476Y-124007313D02*
X135190476Y-123207313D01*
X135190476Y-123207313D02*
X135114285Y-123321598D01*
X135114285Y-123321598D02*
X135038095Y-123397789D01*
X135038095Y-123397789D02*
X134961904Y-123435884D01*
X136371429Y-123207313D02*
X136371429Y-123854932D01*
X136371429Y-123854932D02*
X136409524Y-123931122D01*
X136409524Y-123931122D02*
X136447619Y-123969218D01*
X136447619Y-123969218D02*
X136523810Y-124007313D01*
X136523810Y-124007313D02*
X136676191Y-124007313D01*
X136676191Y-124007313D02*
X136752381Y-123969218D01*
X136752381Y-123969218D02*
X136790476Y-123931122D01*
X136790476Y-123931122D02*
X136828572Y-123854932D01*
X136828572Y-123854932D02*
X136828572Y-123207313D01*
X137209524Y-124007313D02*
X137209524Y-123207313D01*
X137209524Y-123207313D02*
X137514286Y-123207313D01*
X137514286Y-123207313D02*
X137590476Y-123245408D01*
X137590476Y-123245408D02*
X137628571Y-123283503D01*
X137628571Y-123283503D02*
X137666667Y-123359694D01*
X137666667Y-123359694D02*
X137666667Y-123473979D01*
X137666667Y-123473979D02*
X137628571Y-123550170D01*
X137628571Y-123550170D02*
X137590476Y-123588265D01*
X137590476Y-123588265D02*
X137514286Y-123626360D01*
X137514286Y-123626360D02*
X137209524Y-123626360D01*
X145214285Y-124634763D02*
X145595238Y-124634763D01*
X145138095Y-124863335D02*
X145404762Y-124063335D01*
X145404762Y-124063335D02*
X145671428Y-124863335D01*
X146090476Y-124063335D02*
X146166666Y-124063335D01*
X146166666Y-124063335D02*
X146242857Y-124101430D01*
X146242857Y-124101430D02*
X146280952Y-124139525D01*
X146280952Y-124139525D02*
X146319047Y-124215716D01*
X146319047Y-124215716D02*
X146357142Y-124368097D01*
X146357142Y-124368097D02*
X146357142Y-124558573D01*
X146357142Y-124558573D02*
X146319047Y-124710954D01*
X146319047Y-124710954D02*
X146280952Y-124787144D01*
X146280952Y-124787144D02*
X146242857Y-124825240D01*
X146242857Y-124825240D02*
X146166666Y-124863335D01*
X146166666Y-124863335D02*
X146090476Y-124863335D01*
X146090476Y-124863335D02*
X146014285Y-124825240D01*
X146014285Y-124825240D02*
X145976190Y-124787144D01*
X145976190Y-124787144D02*
X145938095Y-124710954D01*
X145938095Y-124710954D02*
X145899999Y-124558573D01*
X145899999Y-124558573D02*
X145899999Y-124368097D01*
X145899999Y-124368097D02*
X145938095Y-124215716D01*
X145938095Y-124215716D02*
X145976190Y-124139525D01*
X145976190Y-124139525D02*
X146014285Y-124101430D01*
X146014285Y-124101430D02*
X146090476Y-124063335D01*
X147309524Y-124863335D02*
X147309524Y-124063335D01*
X148147619Y-124863335D02*
X147880952Y-124482382D01*
X147690476Y-124863335D02*
X147690476Y-124063335D01*
X147690476Y-124063335D02*
X147995238Y-124063335D01*
X147995238Y-124063335D02*
X148071428Y-124101430D01*
X148071428Y-124101430D02*
X148109523Y-124139525D01*
X148109523Y-124139525D02*
X148147619Y-124215716D01*
X148147619Y-124215716D02*
X148147619Y-124330001D01*
X148147619Y-124330001D02*
X148109523Y-124406192D01*
X148109523Y-124406192D02*
X148071428Y-124444287D01*
X148071428Y-124444287D02*
X147995238Y-124482382D01*
X147995238Y-124482382D02*
X147690476Y-124482382D01*
X149671428Y-124825240D02*
X149785714Y-124863335D01*
X149785714Y-124863335D02*
X149976190Y-124863335D01*
X149976190Y-124863335D02*
X150052381Y-124825240D01*
X150052381Y-124825240D02*
X150090476Y-124787144D01*
X150090476Y-124787144D02*
X150128571Y-124710954D01*
X150128571Y-124710954D02*
X150128571Y-124634763D01*
X150128571Y-124634763D02*
X150090476Y-124558573D01*
X150090476Y-124558573D02*
X150052381Y-124520478D01*
X150052381Y-124520478D02*
X149976190Y-124482382D01*
X149976190Y-124482382D02*
X149823809Y-124444287D01*
X149823809Y-124444287D02*
X149747619Y-124406192D01*
X149747619Y-124406192D02*
X149709524Y-124368097D01*
X149709524Y-124368097D02*
X149671428Y-124291906D01*
X149671428Y-124291906D02*
X149671428Y-124215716D01*
X149671428Y-124215716D02*
X149709524Y-124139525D01*
X149709524Y-124139525D02*
X149747619Y-124101430D01*
X149747619Y-124101430D02*
X149823809Y-124063335D01*
X149823809Y-124063335D02*
X150014286Y-124063335D01*
X150014286Y-124063335D02*
X150128571Y-124101430D01*
X150471429Y-124863335D02*
X150471429Y-124063335D01*
X151271428Y-124101430D02*
X151195238Y-124063335D01*
X151195238Y-124063335D02*
X151080952Y-124063335D01*
X151080952Y-124063335D02*
X150966666Y-124101430D01*
X150966666Y-124101430D02*
X150890476Y-124177620D01*
X150890476Y-124177620D02*
X150852381Y-124253811D01*
X150852381Y-124253811D02*
X150814285Y-124406192D01*
X150814285Y-124406192D02*
X150814285Y-124520478D01*
X150814285Y-124520478D02*
X150852381Y-124672859D01*
X150852381Y-124672859D02*
X150890476Y-124749049D01*
X150890476Y-124749049D02*
X150966666Y-124825240D01*
X150966666Y-124825240D02*
X151080952Y-124863335D01*
X151080952Y-124863335D02*
X151157143Y-124863335D01*
X151157143Y-124863335D02*
X151271428Y-124825240D01*
X151271428Y-124825240D02*
X151309524Y-124787144D01*
X151309524Y-124787144D02*
X151309524Y-124520478D01*
X151309524Y-124520478D02*
X151157143Y-124520478D01*
X152261905Y-124863335D02*
X152261905Y-124063335D01*
X152261905Y-124063335D02*
X152719048Y-124863335D01*
X152719048Y-124863335D02*
X152719048Y-124063335D01*
X153557143Y-124787144D02*
X153519047Y-124825240D01*
X153519047Y-124825240D02*
X153404762Y-124863335D01*
X153404762Y-124863335D02*
X153328571Y-124863335D01*
X153328571Y-124863335D02*
X153214285Y-124825240D01*
X153214285Y-124825240D02*
X153138095Y-124749049D01*
X153138095Y-124749049D02*
X153100000Y-124672859D01*
X153100000Y-124672859D02*
X153061904Y-124520478D01*
X153061904Y-124520478D02*
X153061904Y-124406192D01*
X153061904Y-124406192D02*
X153100000Y-124253811D01*
X153100000Y-124253811D02*
X153138095Y-124177620D01*
X153138095Y-124177620D02*
X153214285Y-124101430D01*
X153214285Y-124101430D02*
X153328571Y-124063335D01*
X153328571Y-124063335D02*
X153404762Y-124063335D01*
X153404762Y-124063335D02*
X153519047Y-124101430D01*
X153519047Y-124101430D02*
X153557143Y-124139525D01*
X154433333Y-124063335D02*
X154928571Y-124063335D01*
X154928571Y-124063335D02*
X154661905Y-124368097D01*
X154661905Y-124368097D02*
X154776190Y-124368097D01*
X154776190Y-124368097D02*
X154852381Y-124406192D01*
X154852381Y-124406192D02*
X154890476Y-124444287D01*
X154890476Y-124444287D02*
X154928571Y-124520478D01*
X154928571Y-124520478D02*
X154928571Y-124710954D01*
X154928571Y-124710954D02*
X154890476Y-124787144D01*
X154890476Y-124787144D02*
X154852381Y-124825240D01*
X154852381Y-124825240D02*
X154776190Y-124863335D01*
X154776190Y-124863335D02*
X154547619Y-124863335D01*
X154547619Y-124863335D02*
X154471428Y-124825240D01*
X154471428Y-124825240D02*
X154433333Y-124787144D01*
X155157143Y-124063335D02*
X155423810Y-124863335D01*
X155423810Y-124863335D02*
X155690476Y-124063335D01*
X155880952Y-124063335D02*
X156376190Y-124063335D01*
X156376190Y-124063335D02*
X156109524Y-124368097D01*
X156109524Y-124368097D02*
X156223809Y-124368097D01*
X156223809Y-124368097D02*
X156300000Y-124406192D01*
X156300000Y-124406192D02*
X156338095Y-124444287D01*
X156338095Y-124444287D02*
X156376190Y-124520478D01*
X156376190Y-124520478D02*
X156376190Y-124710954D01*
X156376190Y-124710954D02*
X156338095Y-124787144D01*
X156338095Y-124787144D02*
X156300000Y-124825240D01*
X156300000Y-124825240D02*
X156223809Y-124863335D01*
X156223809Y-124863335D02*
X155995238Y-124863335D01*
X155995238Y-124863335D02*
X155919047Y-124825240D01*
X155919047Y-124825240D02*
X155880952Y-124787144D01*
X157747619Y-124101430D02*
X157671429Y-124063335D01*
X157671429Y-124063335D02*
X157557143Y-124063335D01*
X157557143Y-124063335D02*
X157442857Y-124101430D01*
X157442857Y-124101430D02*
X157366667Y-124177620D01*
X157366667Y-124177620D02*
X157328572Y-124253811D01*
X157328572Y-124253811D02*
X157290476Y-124406192D01*
X157290476Y-124406192D02*
X157290476Y-124520478D01*
X157290476Y-124520478D02*
X157328572Y-124672859D01*
X157328572Y-124672859D02*
X157366667Y-124749049D01*
X157366667Y-124749049D02*
X157442857Y-124825240D01*
X157442857Y-124825240D02*
X157557143Y-124863335D01*
X157557143Y-124863335D02*
X157633334Y-124863335D01*
X157633334Y-124863335D02*
X157747619Y-124825240D01*
X157747619Y-124825240D02*
X157785715Y-124787144D01*
X157785715Y-124787144D02*
X157785715Y-124520478D01*
X157785715Y-124520478D02*
X157633334Y-124520478D01*
X150364285Y-105330001D02*
X150364285Y-105863335D01*
X150173809Y-105025240D02*
X149983332Y-105596668D01*
X149983332Y-105596668D02*
X150478571Y-105596668D01*
X150783333Y-105558573D02*
X151392857Y-105558573D01*
X151773809Y-105558573D02*
X152383333Y-105558573D01*
X153145237Y-105063335D02*
X152764285Y-105063335D01*
X152764285Y-105063335D02*
X152726189Y-105444287D01*
X152726189Y-105444287D02*
X152764285Y-105406192D01*
X152764285Y-105406192D02*
X152840475Y-105368097D01*
X152840475Y-105368097D02*
X153030951Y-105368097D01*
X153030951Y-105368097D02*
X153107142Y-105406192D01*
X153107142Y-105406192D02*
X153145237Y-105444287D01*
X153145237Y-105444287D02*
X153183332Y-105520478D01*
X153183332Y-105520478D02*
X153183332Y-105710954D01*
X153183332Y-105710954D02*
X153145237Y-105787144D01*
X153145237Y-105787144D02*
X153107142Y-105825240D01*
X153107142Y-105825240D02*
X153030951Y-105863335D01*
X153030951Y-105863335D02*
X152840475Y-105863335D01*
X152840475Y-105863335D02*
X152764285Y-105825240D01*
X152764285Y-105825240D02*
X152726189Y-105787144D01*
X155164285Y-105863335D02*
X154707142Y-105863335D01*
X154935714Y-105863335D02*
X154935714Y-105063335D01*
X154935714Y-105063335D02*
X154859523Y-105177620D01*
X154859523Y-105177620D02*
X154783333Y-105253811D01*
X154783333Y-105253811D02*
X154707142Y-105291906D01*
X155507143Y-105863335D02*
X155507143Y-105063335D01*
X155507143Y-105063335D02*
X155773809Y-105634763D01*
X155773809Y-105634763D02*
X156040476Y-105063335D01*
X156040476Y-105063335D02*
X156040476Y-105863335D01*
X157030953Y-105863335D02*
X157030953Y-105063335D01*
X157411905Y-105863335D02*
X157411905Y-105063335D01*
X157411905Y-105063335D02*
X157869048Y-105863335D01*
X157869048Y-105863335D02*
X157869048Y-105063335D01*
X158135714Y-105063335D02*
X158592857Y-105063335D01*
X158364285Y-105863335D02*
X158364285Y-105063335D01*
X131822619Y-105536467D02*
X132348810Y-105536467D01*
X132348810Y-105536467D02*
X132065476Y-105860276D01*
X132065476Y-105860276D02*
X132186905Y-105860276D01*
X132186905Y-105860276D02*
X132267857Y-105900752D01*
X132267857Y-105900752D02*
X132308333Y-105941229D01*
X132308333Y-105941229D02*
X132348810Y-106022181D01*
X132348810Y-106022181D02*
X132348810Y-106224562D01*
X132348810Y-106224562D02*
X132308333Y-106305514D01*
X132308333Y-106305514D02*
X132267857Y-106345991D01*
X132267857Y-106345991D02*
X132186905Y-106386467D01*
X132186905Y-106386467D02*
X131944048Y-106386467D01*
X131944048Y-106386467D02*
X131863095Y-106345991D01*
X131863095Y-106345991D02*
X131822619Y-106305514D01*
X132713095Y-106305514D02*
X132753572Y-106345991D01*
X132753572Y-106345991D02*
X132713095Y-106386467D01*
X132713095Y-106386467D02*
X132672619Y-106345991D01*
X132672619Y-106345991D02*
X132713095Y-106305514D01*
X132713095Y-106305514D02*
X132713095Y-106386467D01*
X133036905Y-105536467D02*
X133563096Y-105536467D01*
X133563096Y-105536467D02*
X133279762Y-105860276D01*
X133279762Y-105860276D02*
X133401191Y-105860276D01*
X133401191Y-105860276D02*
X133482143Y-105900752D01*
X133482143Y-105900752D02*
X133522619Y-105941229D01*
X133522619Y-105941229D02*
X133563096Y-106022181D01*
X133563096Y-106022181D02*
X133563096Y-106224562D01*
X133563096Y-106224562D02*
X133522619Y-106305514D01*
X133522619Y-106305514D02*
X133482143Y-106345991D01*
X133482143Y-106345991D02*
X133401191Y-106386467D01*
X133401191Y-106386467D02*
X133158334Y-106386467D01*
X133158334Y-106386467D02*
X133077381Y-106345991D01*
X133077381Y-106345991D02*
X133036905Y-106305514D01*
X133805953Y-105536467D02*
X134089286Y-106386467D01*
X134089286Y-106386467D02*
X134372620Y-105536467D01*
X135465476Y-105536467D02*
X135627381Y-105536467D01*
X135627381Y-105536467D02*
X135708333Y-105576943D01*
X135708333Y-105576943D02*
X135789286Y-105657895D01*
X135789286Y-105657895D02*
X135829762Y-105819800D01*
X135829762Y-105819800D02*
X135829762Y-106103133D01*
X135829762Y-106103133D02*
X135789286Y-106265038D01*
X135789286Y-106265038D02*
X135708333Y-106345991D01*
X135708333Y-106345991D02*
X135627381Y-106386467D01*
X135627381Y-106386467D02*
X135465476Y-106386467D01*
X135465476Y-106386467D02*
X135384524Y-106345991D01*
X135384524Y-106345991D02*
X135303571Y-106265038D01*
X135303571Y-106265038D02*
X135263095Y-106103133D01*
X135263095Y-106103133D02*
X135263095Y-105819800D01*
X135263095Y-105819800D02*
X135303571Y-105657895D01*
X135303571Y-105657895D02*
X135384524Y-105576943D01*
X135384524Y-105576943D02*
X135465476Y-105536467D01*
X136194047Y-106386467D02*
X136194047Y-105536467D01*
X136194047Y-105536467D02*
X136679762Y-106386467D01*
X136679762Y-106386467D02*
X136679762Y-105536467D01*
X137489285Y-106386467D02*
X137084523Y-106386467D01*
X137084523Y-106386467D02*
X137084523Y-105536467D01*
X137934523Y-105981705D02*
X137934523Y-106386467D01*
X137651190Y-105536467D02*
X137934523Y-105981705D01*
X137934523Y-105981705D02*
X138217857Y-105536467D01*
X132510714Y-129036467D02*
X133077381Y-129036467D01*
X133077381Y-129036467D02*
X132713095Y-129886467D01*
X133563095Y-129036467D02*
X133644048Y-129036467D01*
X133644048Y-129036467D02*
X133725000Y-129076943D01*
X133725000Y-129076943D02*
X133765476Y-129117419D01*
X133765476Y-129117419D02*
X133805952Y-129198371D01*
X133805952Y-129198371D02*
X133846429Y-129360276D01*
X133846429Y-129360276D02*
X133846429Y-129562657D01*
X133846429Y-129562657D02*
X133805952Y-129724562D01*
X133805952Y-129724562D02*
X133765476Y-129805514D01*
X133765476Y-129805514D02*
X133725000Y-129845991D01*
X133725000Y-129845991D02*
X133644048Y-129886467D01*
X133644048Y-129886467D02*
X133563095Y-129886467D01*
X133563095Y-129886467D02*
X133482143Y-129845991D01*
X133482143Y-129845991D02*
X133441667Y-129805514D01*
X133441667Y-129805514D02*
X133401190Y-129724562D01*
X133401190Y-129724562D02*
X133360714Y-129562657D01*
X133360714Y-129562657D02*
X133360714Y-129360276D01*
X133360714Y-129360276D02*
X133401190Y-129198371D01*
X133401190Y-129198371D02*
X133441667Y-129117419D01*
X133441667Y-129117419D02*
X133482143Y-129076943D01*
X133482143Y-129076943D02*
X133563095Y-129036467D01*
X134777381Y-129886467D02*
X135222619Y-129319800D01*
X134777381Y-129319800D02*
X135222619Y-129886467D01*
X136113095Y-129036467D02*
X136639286Y-129036467D01*
X136639286Y-129036467D02*
X136355952Y-129360276D01*
X136355952Y-129360276D02*
X136477381Y-129360276D01*
X136477381Y-129360276D02*
X136558333Y-129400752D01*
X136558333Y-129400752D02*
X136598809Y-129441229D01*
X136598809Y-129441229D02*
X136639286Y-129522181D01*
X136639286Y-129522181D02*
X136639286Y-129724562D01*
X136639286Y-129724562D02*
X136598809Y-129805514D01*
X136598809Y-129805514D02*
X136558333Y-129845991D01*
X136558333Y-129845991D02*
X136477381Y-129886467D01*
X136477381Y-129886467D02*
X136234524Y-129886467D01*
X136234524Y-129886467D02*
X136153571Y-129845991D01*
X136153571Y-129845991D02*
X136113095Y-129805514D01*
X136963095Y-129117419D02*
X137003571Y-129076943D01*
X137003571Y-129076943D02*
X137084524Y-129036467D01*
X137084524Y-129036467D02*
X137286905Y-129036467D01*
X137286905Y-129036467D02*
X137367857Y-129076943D01*
X137367857Y-129076943D02*
X137408333Y-129117419D01*
X137408333Y-129117419D02*
X137448810Y-129198371D01*
X137448810Y-129198371D02*
X137448810Y-129279324D01*
X137448810Y-129279324D02*
X137408333Y-129400752D01*
X137408333Y-129400752D02*
X136922619Y-129886467D01*
X136922619Y-129886467D02*
X137448810Y-129886467D01*
X130047619Y-103455859D02*
X130047619Y-102455859D01*
X130047619Y-102455859D02*
X130428571Y-102455859D01*
X130428571Y-102455859D02*
X130523809Y-102503478D01*
X130523809Y-102503478D02*
X130571428Y-102551097D01*
X130571428Y-102551097D02*
X130619047Y-102646335D01*
X130619047Y-102646335D02*
X130619047Y-102789192D01*
X130619047Y-102789192D02*
X130571428Y-102884430D01*
X130571428Y-102884430D02*
X130523809Y-102932049D01*
X130523809Y-102932049D02*
X130428571Y-102979668D01*
X130428571Y-102979668D02*
X130047619Y-102979668D01*
X131047619Y-103455859D02*
X131047619Y-102455859D01*
X131047619Y-102455859D02*
X131428571Y-102455859D01*
X131428571Y-102455859D02*
X131523809Y-102503478D01*
X131523809Y-102503478D02*
X131571428Y-102551097D01*
X131571428Y-102551097D02*
X131619047Y-102646335D01*
X131619047Y-102646335D02*
X131619047Y-102789192D01*
X131619047Y-102789192D02*
X131571428Y-102884430D01*
X131571428Y-102884430D02*
X131523809Y-102932049D01*
X131523809Y-102932049D02*
X131428571Y-102979668D01*
X131428571Y-102979668D02*
X131047619Y-102979668D01*
X132571428Y-102503478D02*
X132476190Y-102455859D01*
X132476190Y-102455859D02*
X132333333Y-102455859D01*
X132333333Y-102455859D02*
X132190476Y-102503478D01*
X132190476Y-102503478D02*
X132095238Y-102598716D01*
X132095238Y-102598716D02*
X132047619Y-102693954D01*
X132047619Y-102693954D02*
X132000000Y-102884430D01*
X132000000Y-102884430D02*
X132000000Y-103027287D01*
X132000000Y-103027287D02*
X132047619Y-103217763D01*
X132047619Y-103217763D02*
X132095238Y-103313001D01*
X132095238Y-103313001D02*
X132190476Y-103408240D01*
X132190476Y-103408240D02*
X132333333Y-103455859D01*
X132333333Y-103455859D02*
X132428571Y-103455859D01*
X132428571Y-103455859D02*
X132571428Y-103408240D01*
X132571428Y-103408240D02*
X132619047Y-103360620D01*
X132619047Y-103360620D02*
X132619047Y-103027287D01*
X132619047Y-103027287D02*
X132428571Y-103027287D01*
X134380952Y-103455859D02*
X134047619Y-102979668D01*
X133809524Y-103455859D02*
X133809524Y-102455859D01*
X133809524Y-102455859D02*
X134190476Y-102455859D01*
X134190476Y-102455859D02*
X134285714Y-102503478D01*
X134285714Y-102503478D02*
X134333333Y-102551097D01*
X134333333Y-102551097D02*
X134380952Y-102646335D01*
X134380952Y-102646335D02*
X134380952Y-102789192D01*
X134380952Y-102789192D02*
X134333333Y-102884430D01*
X134333333Y-102884430D02*
X134285714Y-102932049D01*
X134285714Y-102932049D02*
X134190476Y-102979668D01*
X134190476Y-102979668D02*
X133809524Y-102979668D01*
X134714286Y-102455859D02*
X135380952Y-103455859D01*
X135380952Y-102455859D02*
X134714286Y-103455859D01*
X137190477Y-102789192D02*
X137428572Y-103455859D01*
X137428572Y-103455859D02*
X137666667Y-102789192D01*
X138571429Y-103455859D02*
X138000001Y-103455859D01*
X138285715Y-103455859D02*
X138285715Y-102455859D01*
X138285715Y-102455859D02*
X138190477Y-102598716D01*
X138190477Y-102598716D02*
X138095239Y-102693954D01*
X138095239Y-102693954D02*
X138000001Y-102741573D01*
X139000001Y-103360620D02*
X139047620Y-103408240D01*
X139047620Y-103408240D02*
X139000001Y-103455859D01*
X139000001Y-103455859D02*
X138952382Y-103408240D01*
X138952382Y-103408240D02*
X139000001Y-103360620D01*
X139000001Y-103360620D02*
X139000001Y-103455859D01*
X139428572Y-102551097D02*
X139476191Y-102503478D01*
X139476191Y-102503478D02*
X139571429Y-102455859D01*
X139571429Y-102455859D02*
X139809524Y-102455859D01*
X139809524Y-102455859D02*
X139904762Y-102503478D01*
X139904762Y-102503478D02*
X139952381Y-102551097D01*
X139952381Y-102551097D02*
X140000000Y-102646335D01*
X140000000Y-102646335D02*
X140000000Y-102741573D01*
X140000000Y-102741573D02*
X139952381Y-102884430D01*
X139952381Y-102884430D02*
X139380953Y-103455859D01*
X139380953Y-103455859D02*
X140000000Y-103455859D01*
X112350000Y-102748382D02*
X111950000Y-102176954D01*
X111664286Y-102748382D02*
X111664286Y-101548382D01*
X111664286Y-101548382D02*
X112121429Y-101548382D01*
X112121429Y-101548382D02*
X112235714Y-101605525D01*
X112235714Y-101605525D02*
X112292857Y-101662668D01*
X112292857Y-101662668D02*
X112350000Y-101776954D01*
X112350000Y-101776954D02*
X112350000Y-101948382D01*
X112350000Y-101948382D02*
X112292857Y-102062668D01*
X112292857Y-102062668D02*
X112235714Y-102119811D01*
X112235714Y-102119811D02*
X112121429Y-102176954D01*
X112121429Y-102176954D02*
X111664286Y-102176954D01*
X112864286Y-102119811D02*
X113264286Y-102119811D01*
X113435714Y-102748382D02*
X112864286Y-102748382D01*
X112864286Y-102748382D02*
X112864286Y-101548382D01*
X112864286Y-101548382D02*
X113435714Y-101548382D01*
X113950000Y-102748382D02*
X113950000Y-101548382D01*
X113950000Y-101548382D02*
X114235714Y-101548382D01*
X114235714Y-101548382D02*
X114407143Y-101605525D01*
X114407143Y-101605525D02*
X114521428Y-101719811D01*
X114521428Y-101719811D02*
X114578571Y-101834097D01*
X114578571Y-101834097D02*
X114635714Y-102062668D01*
X114635714Y-102062668D02*
X114635714Y-102234097D01*
X114635714Y-102234097D02*
X114578571Y-102462668D01*
X114578571Y-102462668D02*
X114521428Y-102576954D01*
X114521428Y-102576954D02*
X114407143Y-102691240D01*
X114407143Y-102691240D02*
X114235714Y-102748382D01*
X114235714Y-102748382D02*
X113950000Y-102748382D01*
X116921429Y-101491240D02*
X115892857Y-103034097D01*
X118178572Y-102405525D02*
X118750001Y-102405525D01*
X118064286Y-102748382D02*
X118464286Y-101548382D01*
X118464286Y-101548382D02*
X118864286Y-102748382D01*
X119207143Y-101662668D02*
X119264286Y-101605525D01*
X119264286Y-101605525D02*
X119378572Y-101548382D01*
X119378572Y-101548382D02*
X119664286Y-101548382D01*
X119664286Y-101548382D02*
X119778572Y-101605525D01*
X119778572Y-101605525D02*
X119835714Y-101662668D01*
X119835714Y-101662668D02*
X119892857Y-101776954D01*
X119892857Y-101776954D02*
X119892857Y-101891240D01*
X119892857Y-101891240D02*
X119835714Y-102062668D01*
X119835714Y-102062668D02*
X119150000Y-102748382D01*
X119150000Y-102748382D02*
X119892857Y-102748382D01*
X151021428Y-102748382D02*
X151021428Y-101548382D01*
X152278571Y-102748382D02*
X151878571Y-102176954D01*
X151592857Y-102748382D02*
X151592857Y-101548382D01*
X151592857Y-101548382D02*
X152050000Y-101548382D01*
X152050000Y-101548382D02*
X152164285Y-101605525D01*
X152164285Y-101605525D02*
X152221428Y-101662668D01*
X152221428Y-101662668D02*
X152278571Y-101776954D01*
X152278571Y-101776954D02*
X152278571Y-101948382D01*
X152278571Y-101948382D02*
X152221428Y-102062668D01*
X152221428Y-102062668D02*
X152164285Y-102119811D01*
X152164285Y-102119811D02*
X152050000Y-102176954D01*
X152050000Y-102176954D02*
X151592857Y-102176954D01*
X154564286Y-101491240D02*
X153535714Y-103034097D01*
X155821429Y-102405525D02*
X156392858Y-102405525D01*
X155707143Y-102748382D02*
X156107143Y-101548382D01*
X156107143Y-101548382D02*
X156507143Y-102748382D01*
X157135714Y-101548382D02*
X157250000Y-101548382D01*
X157250000Y-101548382D02*
X157364286Y-101605525D01*
X157364286Y-101605525D02*
X157421429Y-101662668D01*
X157421429Y-101662668D02*
X157478571Y-101776954D01*
X157478571Y-101776954D02*
X157535714Y-102005525D01*
X157535714Y-102005525D02*
X157535714Y-102291240D01*
X157535714Y-102291240D02*
X157478571Y-102519811D01*
X157478571Y-102519811D02*
X157421429Y-102634097D01*
X157421429Y-102634097D02*
X157364286Y-102691240D01*
X157364286Y-102691240D02*
X157250000Y-102748382D01*
X157250000Y-102748382D02*
X157135714Y-102748382D01*
X157135714Y-102748382D02*
X157021429Y-102691240D01*
X157021429Y-102691240D02*
X156964286Y-102634097D01*
X156964286Y-102634097D02*
X156907143Y-102519811D01*
X156907143Y-102519811D02*
X156850000Y-102291240D01*
X156850000Y-102291240D02*
X156850000Y-102005525D01*
X156850000Y-102005525D02*
X156907143Y-101776954D01*
X156907143Y-101776954D02*
X156964286Y-101662668D01*
X156964286Y-101662668D02*
X157021429Y-101605525D01*
X157021429Y-101605525D02*
X157135714Y-101548382D01*
X126779597Y-130299999D02*
X127422454Y-130299999D01*
X127422454Y-130299999D02*
X127551025Y-130342856D01*
X127551025Y-130342856D02*
X127636740Y-130428570D01*
X127636740Y-130428570D02*
X127679597Y-130557142D01*
X127679597Y-130557142D02*
X127679597Y-130642856D01*
X126779597Y-129957142D02*
X126779597Y-129399999D01*
X126779597Y-129399999D02*
X127122454Y-129699999D01*
X127122454Y-129699999D02*
X127122454Y-129571428D01*
X127122454Y-129571428D02*
X127165311Y-129485714D01*
X127165311Y-129485714D02*
X127208168Y-129442856D01*
X127208168Y-129442856D02*
X127293882Y-129399999D01*
X127293882Y-129399999D02*
X127508168Y-129399999D01*
X127508168Y-129399999D02*
X127593882Y-129442856D01*
X127593882Y-129442856D02*
X127636740Y-129485714D01*
X127636740Y-129485714D02*
X127679597Y-129571428D01*
X127679597Y-129571428D02*
X127679597Y-129828571D01*
X127679597Y-129828571D02*
X127636740Y-129914285D01*
X127636740Y-129914285D02*
X127593882Y-129957142D01*
X120564285Y-109509597D02*
X120564285Y-110238168D01*
X120564285Y-110238168D02*
X120607142Y-110323882D01*
X120607142Y-110323882D02*
X120650000Y-110366740D01*
X120650000Y-110366740D02*
X120735714Y-110409597D01*
X120735714Y-110409597D02*
X120907142Y-110409597D01*
X120907142Y-110409597D02*
X120992857Y-110366740D01*
X120992857Y-110366740D02*
X121035714Y-110323882D01*
X121035714Y-110323882D02*
X121078571Y-110238168D01*
X121078571Y-110238168D02*
X121078571Y-109509597D01*
X121978571Y-110409597D02*
X121464285Y-110409597D01*
X121721428Y-110409597D02*
X121721428Y-109509597D01*
X121721428Y-109509597D02*
X121635714Y-109638168D01*
X121635714Y-109638168D02*
X121549999Y-109723882D01*
X121549999Y-109723882D02*
X121464285Y-109766740D01*
X115509597Y-130299999D02*
X116152454Y-130299999D01*
X116152454Y-130299999D02*
X116281025Y-130342856D01*
X116281025Y-130342856D02*
X116366740Y-130428570D01*
X116366740Y-130428570D02*
X116409597Y-130557142D01*
X116409597Y-130557142D02*
X116409597Y-130642856D01*
X116409597Y-129399999D02*
X116409597Y-129914285D01*
X116409597Y-129657142D02*
X115509597Y-129657142D01*
X115509597Y-129657142D02*
X115638168Y-129742856D01*
X115638168Y-129742856D02*
X115723882Y-129828571D01*
X115723882Y-129828571D02*
X115766740Y-129914285D01*
X151540000Y-105323882D02*
X151497143Y-105366740D01*
X151497143Y-105366740D02*
X151368571Y-105409597D01*
X151368571Y-105409597D02*
X151282857Y-105409597D01*
X151282857Y-105409597D02*
X151154286Y-105366740D01*
X151154286Y-105366740D02*
X151068571Y-105281025D01*
X151068571Y-105281025D02*
X151025714Y-105195311D01*
X151025714Y-105195311D02*
X150982857Y-105023882D01*
X150982857Y-105023882D02*
X150982857Y-104895311D01*
X150982857Y-104895311D02*
X151025714Y-104723882D01*
X151025714Y-104723882D02*
X151068571Y-104638168D01*
X151068571Y-104638168D02*
X151154286Y-104552454D01*
X151154286Y-104552454D02*
X151282857Y-104509597D01*
X151282857Y-104509597D02*
X151368571Y-104509597D01*
X151368571Y-104509597D02*
X151497143Y-104552454D01*
X151497143Y-104552454D02*
X151540000Y-104595311D01*
X151882857Y-104595311D02*
X151925714Y-104552454D01*
X151925714Y-104552454D02*
X152011429Y-104509597D01*
X152011429Y-104509597D02*
X152225714Y-104509597D01*
X152225714Y-104509597D02*
X152311429Y-104552454D01*
X152311429Y-104552454D02*
X152354286Y-104595311D01*
X152354286Y-104595311D02*
X152397143Y-104681025D01*
X152397143Y-104681025D02*
X152397143Y-104766740D01*
X152397143Y-104766740D02*
X152354286Y-104895311D01*
X152354286Y-104895311D02*
X151840000Y-105409597D01*
X151840000Y-105409597D02*
X152397143Y-105409597D01*
X113040000Y-105323882D02*
X112997143Y-105366740D01*
X112997143Y-105366740D02*
X112868571Y-105409597D01*
X112868571Y-105409597D02*
X112782857Y-105409597D01*
X112782857Y-105409597D02*
X112654286Y-105366740D01*
X112654286Y-105366740D02*
X112568571Y-105281025D01*
X112568571Y-105281025D02*
X112525714Y-105195311D01*
X112525714Y-105195311D02*
X112482857Y-105023882D01*
X112482857Y-105023882D02*
X112482857Y-104895311D01*
X112482857Y-104895311D02*
X112525714Y-104723882D01*
X112525714Y-104723882D02*
X112568571Y-104638168D01*
X112568571Y-104638168D02*
X112654286Y-104552454D01*
X112654286Y-104552454D02*
X112782857Y-104509597D01*
X112782857Y-104509597D02*
X112868571Y-104509597D01*
X112868571Y-104509597D02*
X112997143Y-104552454D01*
X112997143Y-104552454D02*
X113040000Y-104595311D01*
X113897143Y-105409597D02*
X113382857Y-105409597D01*
X113640000Y-105409597D02*
X113640000Y-104509597D01*
X113640000Y-104509597D02*
X113554286Y-104638168D01*
X113554286Y-104638168D02*
X113468571Y-104723882D01*
X113468571Y-104723882D02*
X113382857Y-104766740D01*
X159064285Y-109509597D02*
X159064285Y-110238168D01*
X159064285Y-110238168D02*
X159107142Y-110323882D01*
X159107142Y-110323882D02*
X159150000Y-110366740D01*
X159150000Y-110366740D02*
X159235714Y-110409597D01*
X159235714Y-110409597D02*
X159407142Y-110409597D01*
X159407142Y-110409597D02*
X159492857Y-110366740D01*
X159492857Y-110366740D02*
X159535714Y-110323882D01*
X159535714Y-110323882D02*
X159578571Y-110238168D01*
X159578571Y-110238168D02*
X159578571Y-109509597D01*
X159964285Y-109595311D02*
X160007142Y-109552454D01*
X160007142Y-109552454D02*
X160092857Y-109509597D01*
X160092857Y-109509597D02*
X160307142Y-109509597D01*
X160307142Y-109509597D02*
X160392857Y-109552454D01*
X160392857Y-109552454D02*
X160435714Y-109595311D01*
X160435714Y-109595311D02*
X160478571Y-109681025D01*
X160478571Y-109681025D02*
X160478571Y-109766740D01*
X160478571Y-109766740D02*
X160435714Y-109895311D01*
X160435714Y-109895311D02*
X159921428Y-110409597D01*
X159921428Y-110409597D02*
X160478571Y-110409597D01*
X153509597Y-130299999D02*
X154152454Y-130299999D01*
X154152454Y-130299999D02*
X154281025Y-130342856D01*
X154281025Y-130342856D02*
X154366740Y-130428570D01*
X154366740Y-130428570D02*
X154409597Y-130557142D01*
X154409597Y-130557142D02*
X154409597Y-130642856D01*
X153595311Y-129914285D02*
X153552454Y-129871428D01*
X153552454Y-129871428D02*
X153509597Y-129785714D01*
X153509597Y-129785714D02*
X153509597Y-129571428D01*
X153509597Y-129571428D02*
X153552454Y-129485714D01*
X153552454Y-129485714D02*
X153595311Y-129442856D01*
X153595311Y-129442856D02*
X153681025Y-129399999D01*
X153681025Y-129399999D02*
X153766740Y-129399999D01*
X153766740Y-129399999D02*
X153895311Y-129442856D01*
X153895311Y-129442856D02*
X154409597Y-129957142D01*
X154409597Y-129957142D02*
X154409597Y-129399999D01*
%TO.C,J3*%
D11*
X124620000Y-128380000D02*
X124620000Y-127000000D01*
X126000000Y-128380000D02*
X124620000Y-128380000D01*
X127270000Y-125620000D02*
X129920000Y-125620000D01*
X127270000Y-128380000D02*
X127270000Y-125620000D01*
X127270000Y-128380000D02*
X129920000Y-128380000D01*
X129920000Y-128380000D02*
X129920000Y-125620000D01*
%TO.C,U1*%
X113100000Y-110860000D02*
X113100000Y-121140000D01*
X113100000Y-121140000D02*
X118400000Y-121140000D01*
X114750000Y-110860000D02*
X113100000Y-110860000D01*
X118400000Y-110860000D02*
X116750000Y-110860000D01*
X118400000Y-121140000D02*
X118400000Y-110860000D01*
X110610000Y-110800000D02*
X120890000Y-110800000D01*
X120890000Y-121200000D01*
X110610000Y-121200000D01*
X110610000Y-110800000D01*
X116750000Y-110860000D02*
G75*
G02*
X114750000Y-110860000I-1000000J0D01*
G01*
%TO.C,J1*%
X111890000Y-128110000D02*
X111890000Y-127000000D01*
X113000000Y-128110000D02*
X111890000Y-128110000D01*
X114000000Y-125890000D02*
X120110000Y-125890000D01*
X114000000Y-128110000D02*
X114000000Y-125890000D01*
X114000000Y-128110000D02*
X120110000Y-128110000D01*
X120110000Y-128110000D02*
X120110000Y-125890000D01*
%TO.C,C2*%
X149070000Y-106630000D02*
X154310000Y-106630000D01*
X149070000Y-109370000D02*
X149070000Y-106630000D01*
X154310000Y-106630000D02*
X154310000Y-109370000D01*
X154310000Y-109370000D02*
X149070000Y-109370000D01*
%TO.C,C1*%
X110570000Y-106630000D02*
X115810000Y-106630000D01*
X110570000Y-109370000D02*
X110570000Y-106630000D01*
X115810000Y-106630000D02*
X115810000Y-109370000D01*
X115810000Y-109370000D02*
X110570000Y-109370000D01*
%TO.C,U2*%
X151600000Y-110860000D02*
X151600000Y-121140000D01*
X151600000Y-121140000D02*
X156900000Y-121140000D01*
X153250000Y-110860000D02*
X151600000Y-110860000D01*
X156900000Y-110860000D02*
X155250000Y-110860000D01*
X156900000Y-121140000D02*
X156900000Y-110860000D01*
X149110000Y-110800000D02*
X159390000Y-110800000D01*
X159390000Y-121200000D01*
X149110000Y-121200000D01*
X149110000Y-110800000D01*
X155250000Y-110860000D02*
G75*
G02*
X153250000Y-110860000I-1000000J0D01*
G01*
%TO.C,J2*%
X149890000Y-128110000D02*
X149890000Y-127000000D01*
X151000000Y-128110000D02*
X149890000Y-128110000D01*
X152000000Y-125890000D02*
X158110000Y-125890000D01*
X152000000Y-128110000D02*
X152000000Y-125890000D01*
X152000000Y-128110000D02*
X158110000Y-128110000D01*
X158110000Y-128110000D02*
X158110000Y-125890000D01*
%TD*%
M02*
