M48
; DRILL file KiCad 10.0.6 date 2026-10-01T22:33:47
; FORMAT={-:-/ absolute / metric / decimal}
; #@! TF.CreationDate,2026-10-01T22:33:47+07:00
; #@! TF.GenerationSoftware,Kicad,Pcbnew,10.0.6
; #@! TF.FileFunction,Plated,1,2,PTH
FMAT,2
METRIC
; #@! TA.AperFunction,Plated,PTH,ViaDrill
T1C0.400
; #@! TA.AperFunction,Plated,PTH,ComponentDrill
T2C0.800
; #@! TA.AperFunction,Plated,PTH,ComponentDrill
T3C1.000
%
G90
G05
T1
X124.75Y-122.0
X163.25Y-122.0
T2
X111.94Y-107.0
X111.94Y-111.19
X111.94Y-113.73
X111.94Y-116.27
X111.94Y-118.81
X113.0Y-125.0
X114.44Y-107.0
X115.0Y-125.0
X117.0Y-125.0
X119.0Y-125.0
X119.56Y-111.19
X119.56Y-113.73
X119.56Y-116.27
X119.56Y-118.81
X150.44Y-107.0
X150.44Y-111.19
X150.44Y-113.73
X150.44Y-116.27
X150.44Y-118.81
X151.0Y-125.0
X152.94Y-107.0
X153.0Y-125.0
X155.0Y-125.0
X157.0Y-125.0
X158.06Y-111.19
X158.06Y-113.73
X158.06Y-116.27
X158.06Y-118.81
T3
X126.0Y-125.0
X128.54Y-125.0
M30
