ISO-10303-21;
HEADER;
/* R_Axial_DIN0207_L6.3mm_D2.5mm_P7.62mm_Horizontal.step 3D STEP model for use in ECAD systems
 * Copyright (C) 2017, kicad StepUp
 *
 * This work is licensed under the [Creative Commons CC-BY-SA 4.0 License](https://creativecommons.org/licenses/by-sa/4.0/legalcode),
 * with the following exception:
 * To the extent that the creation of electronic designs that use 'Licensed Material' can be considered to be 'Adapted Material',
 * then the copyright holder waives article 3 of the license with respect to these designs and any generated files which use data provided
 * as part of the 'Licensed Material'.
 * You are free to use the library data in your own projects without the obligation to share your project files under this or any other license agreement.
 * However, if you wish to redistribute these libraries, or parts thereof (including in modified form) as a collection then the exception above does not apply.
 * Please refer to https://github.com/KiCad/kicad-packages3D/blob/master/LICENSE.md for further clarification of the exception.
 * Disclaimer of Warranties and Limitation of Liability.
 * These libraries are provided in the hope that they will be useful, but are provided without warranty of any kind, express or implied.
 * *USE 3D CAD DATA AT YOUR OWN RISK*
 * *DO NOT RELY UPON ANY INFORMATION FOUND HERE WITHOUT INDEPENDENT VERIFICATION.*
 *
 */

FILE_DESCRIPTION(
/* description */ ('model of R_Axial_DIN0207_L6.3mm_D2.5mm_P7.62mm_Horizontal'),
/* implementation_level */ '2;1');

FILE_NAME(
/* name */ 'R_Axial_DIN0207_L6.3mm_D2.5mm_P7.62mm_Horizontal.step',
/* time_stamp */ '2017-12-04T10:18:40',
/* author */ ('kicad StepUp','ksu'),
/* organization */ ('FreeCAD'),
/* preprocessor_version */ 'OCC',
/* originating_system */ 'kicad StepUp',
/* authorisation */ '');

FILE_SCHEMA(('AUTOMOTIVE_DESIGN_CC2 { 1 2 10303 214 -1 1 5 4 }'));
ENDSEC;

DATA;
#1=APPLICATION_PROTOCOL_DEFINITION('committee draft','automotive_design',1997,#2);
#2=APPLICATION_CONTEXT('core data for automotive mechanical design processes');
#3=SHAPE_DEFINITION_REPRESENTATION(#4,#10);
#4=PRODUCT_DEFINITION_SHAPE('','',#5);
#5=PRODUCT_DEFINITION('design','',#6,#9);
#6=PRODUCT_DEFINITION_FORMATION('','',#7);
#7=PRODUCT('R_Axial_DIN0207_L63mm_D25mm_P762mm_Horizontal','R_Axial_DIN0207_L63mm_D25mm_P762mm_Horizontal','',(#8));
#8=MECHANICAL_CONTEXT('',#2,'mechanical');
#9=PRODUCT_DEFINITION_CONTEXT('part definition',#2,'design');
#10=ADVANCED_BREP_SHAPE_REPRESENTATION('',(#11,#15),#576);
#11=AXIS2_PLACEMENT_3D('',#12,#13,#14);
#12=CARTESIAN_POINT('',(0.E+000,0.E+000,0.E+000));
#13=DIRECTION('',(0.E+000,0.E+000,1.));
#14=DIRECTION('',(1.,0.E+000,-0.E+000));
#15=MANIFOLD_SOLID_BREP('',#16);
#16=CLOSED_SHELL('',(#17,#45,#63,#78,#255,#272,#290,#303,#320,#335,#340,#357,#535,#552,#570));
#17=ADVANCED_FACE('',(#18),#41,.T.);
#18=FACE_BOUND('',#19,.F.);
#19=EDGE_LOOP('',(#20,#29,#35,#36));
#20=ORIENTED_EDGE('',*,*,#21,.T.);
#21=EDGE_CURVE('',#22,#24,#26,.T.);
#22=VERTEX_POINT('',#23);
#23=CARTESIAN_POINT('',(1.285,1.25,1.25));
#24=VERTEX_POINT('',#25);
#25=CARTESIAN_POINT('',(2.235,1.25,1.25));
#26=LINE('',#27,#28);
#27=CARTESIAN_POINT('',(0.66,1.25,1.25));
#28=VECTOR('',#14,1.);
#29=ORIENTED_EDGE('',*,*,#30,.T.);
#30=EDGE_CURVE('',#24,#24,#31,.T.);
#31=CIRCLE('',#32,1.25);
#32=AXIS2_PLACEMENT_3D('',#33,#14,#34);
#33=CARTESIAN_POINT('',(2.235,0.E+000,1.25));
#34=DIRECTION('',(0.E+000,1.,0.E+000));
#35=ORIENTED_EDGE('',*,*,#21,.F.);
#36=ORIENTED_EDGE('',*,*,#37,.F.);
#37=EDGE_CURVE('',#22,#22,#38,.T.);
#38=CIRCLE('',#39,1.25);
#39=AXIS2_PLACEMENT_3D('',#40,#14,#34);
#40=CARTESIAN_POINT('',(1.285,0.E+000,1.25));
#41=CYLINDRICAL_SURFACE('',#42,1.25);
#42=AXIS2_PLACEMENT_3D('',#43,#44,#34);
#43=CARTESIAN_POINT('',(0.66,0.E+000,1.25));
#44=DIRECTION('',(-1.,-0.E+000,-0.E+000));
#45=ADVANCED_FACE('',(#46),#61,.T.);
#46=FACE_BOUND('',#47,.F.);
#47=EDGE_LOOP('',(#48,#55,#56,#57));
#48=ORIENTED_EDGE('',*,*,#49,.F.);
#49=EDGE_CURVE('',#22,#50,#52,.T.);
#50=VERTEX_POINT('',#51);
#51=CARTESIAN_POINT('',(0.66,0.625,1.25));
#52=CIRCLE('',#53,0.625);
#53=AXIS2_PLACEMENT_3D('',#54,#13,#34);
#54=CARTESIAN_POINT('',(1.285,0.625,1.25));
#55=ORIENTED_EDGE('',*,*,#37,.T.);
#56=ORIENTED_EDGE('',*,*,#49,.T.);
#57=ORIENTED_EDGE('',*,*,#58,.F.);
#58=EDGE_CURVE('',#50,#50,#59,.T.);
#59=CIRCLE('',#60,0.625);
#60=AXIS2_PLACEMENT_3D('',#43,#14,#34);
#61=TOROIDAL_SURFACE('',#62,0.625,0.625);
#62=AXIS2_PLACEMENT_3D('',#40,#44,#34);
#63=ADVANCED_FACE('',(#64,#67),#75,.F.);
#64=FACE_BOUND('',#65,.F.);
#65=EDGE_LOOP('',(#66));
#66=ORIENTED_EDGE('',*,*,#30,.F.);
#67=FACE_BOUND('',#68,.F.);
#68=EDGE_LOOP('',(#69));
#69=ORIENTED_EDGE('',*,*,#70,.F.);
#70=EDGE_CURVE('',#71,#71,#73,.T.);
#71=VERTEX_POINT('',#72);
#72=CARTESIAN_POINT('',(2.235,1.125,1.25));
#73=CIRCLE('',#74,1.125);
#74=AXIS2_PLACEMENT_3D('',#33,#44,#34);
#75=PLANE('',#76);
#76=AXIS2_PLACEMENT_3D('',#25,#44,#77);
#77=DIRECTION('',(0.E+000,0.E+000,-1.));
#78=ADVANCED_FACE('',(#79,#81),#253,.T.);
#79=FACE_BOUND('',#80,.T.);
#80=EDGE_LOOP('',(#57));
#81=FACE_BOUND('',#82,.T.);
#82=EDGE_LOOP('',(#83));
#83=ORIENTED_EDGE('',*,*,#84,.F.);
#84=EDGE_CURVE('',#85,#85,#87,.T.);
#85=VERTEX_POINT('',#86);
#86=CARTESIAN_POINT('',(0.66,1.102182119233E-016,0.899909083395));
#87=B_SPLINE_CURVE_WITH_KNOTS('',6,(#86,#88,#89,#90,#91,#92,#93,#94,#95,#96,#97,#98,#99,#100,#101,#102,#103,#104,#105,#106,#107,#108,#109,#110,#111,#112,#113,#114,#115,#116,#117,#118,#119,#120,#121,#122,#123,#124,#125,#126,#127,#128,#129,#130,#131,#132,#133,#134,#135,#136,#137,#138,#139,#140,#141,#142,#143,#144,#145,#146,#147,#148,#149,#150,#151,#152,#153,#154,#155,#156,#157,#158,#159,#160,#161,#162,#163,#164,#165,#166,#167,#168,#169,#170,#171,#172,#173,#174,#175,#176,#177,#178,#179,#180,#181,#182,#183,#184,#185,#186,#187,#188,#189,#190,#191,#192,#193,#194,#195,#196,#197,#198,#199,#200,#201,#202,#203,#204,#205,#206,#207,#208,#209,#210,#211,#212,#213,#214,#215,#216,#217,#218,#219,#220,#221,#222,#223,#224,#225,#226,#227,#228,#229,#230,#231,#232,#233,#234,#235,#236,#237,#238,#239,#240,#241,#242,#243,#244,#245,#246,#247,#248,#249,#250,#251,#252,#86),.UNSPECIFIED.,.T.,.F.,(7,5,5,5,5,5,5,5,5,5,5,5,5,5,5,5,5,5,5,5,5,5,5,5,5,5,5,5,5,5,5,5,5,7),(0.E+000,2.521870323933E-002,5.431496394384E-002,8.648919549843E-002,0.120700162351,0.155854554579,0.191019956077,0.22552099352,0.258944151729,0.291091798271,0.321919308947,0.351475044446,0.379851974729,0.407153625953,0.43347490921,0.458900868731,0.483545347382,0.505902822615,0.530283950565,0.555351989471,0.581274789002,0.608140584187,0.636038742308,0.665070462617,0.695336577837,0.72690990423,0.759792997252,0.79386262098,0.828806470397,0.864066503475,0.898816439436,0.932013287381,0.962558356523,1.),.UNSPECIFIED.);
#88=CARTESIAN_POINT('',(0.66,-9.861963323296E-003,0.899909084471));
#89=CARTESIAN_POINT('',(0.66,-1.960383099012E-002,0.900333558971));
#90=CARTESIAN_POINT('',(0.66,-2.90667633729E-002,0.901163095205));
#91=CARTESIAN_POINT('',(0.66,-3.818473840012E-002,0.902336888075));
#92=CARTESIAN_POINT('',(0.66,-4.697555886318E-002,0.903805406252));
#93=CARTESIAN_POINT('',(0.66,-6.541217845247E-002,0.907588617289));
#94=CARTESIAN_POINT('',(0.66,-7.491989955217E-002,0.909985996381));
#95=CARTESIAN_POINT('',(0.66,-8.408858685729E-002,0.912709602459));
#96=CARTESIAN_POINT('',(0.66,-9.29431150905E-002,0.915726339128));
#97=CARTESIAN_POINT('',(0.66,-0.101504886237,0.919011492948));
#98=CARTESIAN_POINT('',(0.66,-0.118958160976,0.926453793498));
#99=CARTESIAN_POINT('',(0.66,-0.127787740677,0.930666021227));
#100=CARTESIAN_POINT('',(0.66,-0.136306213845,0.935155972835));
#101=CARTESIAN_POINT('',(0.66,-0.144532125259,0.939904061777));
#102=CARTESIAN_POINT('',(0.66,-0.152479834979,0.944895594586));
#103=CARTESIAN_POINT('',(0.66,-0.168328675181,0.955672717204));
#104=CARTESIAN_POINT('',(0.66,-0.176194628708,0.961488338811));
#105=CARTESIAN_POINT('',(0.66,-0.183772627725,0.967551590964));
#106=CARTESIAN_POINT('',(0.66,-0.191071921446,0.973851630909));
#107=CARTESIAN_POINT('',(0.66,-0.19809849539,0.980379998969));
#108=CARTESIAN_POINT('',(0.66,-0.211800252103,0.99406561399));
#109=CARTESIAN_POINT('',(0.66,-0.218460183619,1.001235038361));
#110=CARTESIAN_POINT('',(0.66,-0.224839916669,1.008630424477));
#111=CARTESIAN_POINT('',(0.66,-0.230940302033,1.016245317007));
#112=CARTESIAN_POINT('',(0.66,-0.236759778797,1.024074009311));
#113=CARTESIAN_POINT('',(0.66,-0.247832030244,1.040150827903));
#114=CARTESIAN_POINT('',(0.66,-0.253084597548,1.048398894868));
#115=CARTESIAN_POINT('',(0.66,-0.258049056373,1.056850063306));
#116=CARTESIAN_POINT('',(0.66,-0.262719990238,1.065498702059));
#117=CARTESIAN_POINT('',(0.66,-0.267090249501,1.07433884651));
#118=CARTESIAN_POINT('',(0.66,-0.275134936213,1.092219038761));
#119=CARTESIAN_POINT('',(0.66,-0.278821023102,1.101251941956));
#120=CARTESIAN_POINT('',(0.66,-0.282200792082,1.110456832947));
#121=CARTESIAN_POINT('',(0.66,-0.285264705632,1.119826546568));
#122=CARTESIAN_POINT('',(0.66,-0.288002108658,1.129352827713));
#123=CARTESIAN_POINT('',(0.66,-0.29272539517,1.148397615962));
#124=CARTESIAN_POINT('',(0.66,-0.29473218058,1.157906910826));
#125=CARTESIAN_POINT('',(0.66,-0.296410836061,1.167545600214));
#126=CARTESIAN_POINT('',(0.66,-0.297750151594,1.177303530334));
#127=CARTESIAN_POINT('',(0.66,-0.298738455802,1.187169009313));
#128=CARTESIAN_POINT('',(0.66,-0.299964918417,1.206708514181));
#129=CARTESIAN_POINT('',(0.66,-0.300230384291,1.216375379318));
#130=CARTESIAN_POINT('',(0.66,-0.300149186912,1.226117491764));
#131=CARTESIAN_POINT('',(0.66,-0.299710710819,1.235921272022));
#132=CARTESIAN_POINT('',(0.66,-0.298904551758,1.245771471938));
#133=CARTESIAN_POINT('',(0.66,-0.296585103724,1.265125169703));
#134=CARTESIAN_POINT('',(0.66,-0.295102339165,1.274626258325));
#135=CARTESIAN_POINT('',(0.66,-0.293263240337,1.284139377081));
#136=CARTESIAN_POINT('',(0.66,-0.291059628806,1.293647957516));
#137=CARTESIAN_POINT('',(0.66,-0.288484130363,1.303133926208));
#138=CARTESIAN_POINT('',(0.66,-0.282698083788,1.321631884472));
#139=CARTESIAN_POINT('',(0.66,-0.279518227914,1.330647303479));
#140=CARTESIAN_POINT('',(0.66,-0.275984860345,1.33960658093));
#141=CARTESIAN_POINT('',(0.66,-0.272093455342,1.348491200819));
#142=CARTESIAN_POINT('',(0.66,-0.267840708483,1.357281511993));
#143=CARTESIAN_POINT('',(0.66,-0.258792476906,1.374285940745));
#144=CARTESIAN_POINT('',(0.66,-0.254025481533,1.382509111114));
#145=CARTESIAN_POINT('',(0.66,-0.248921768643,1.390607755283));
#146=CARTESIAN_POINT('',(0.66,-0.243480982245,1.398562700734));
#147=CARTESIAN_POINT('',(0.66,-0.237704192262,1.406354086406));
#148=CARTESIAN_POINT('',(0.66,-0.22571513259,1.421280378602));
#149=CARTESIAN_POINT('',(0.66,-0.219527706492,1.428429037341));
#150=CARTESIAN_POINT('',(0.66,-0.213033892817,1.435388992124));
#151=CARTESIAN_POINT('',(0.66,-0.206237433156,1.442141613477));
#152=CARTESIAN_POINT('',(0.66,-0.199143534101,1.448667989237));
#153=CARTESIAN_POINT('',(0.66,-0.184639374507,1.46100431938));
#154=CARTESIAN_POINT('',(0.66,-0.177249666015,1.466831638372));
#155=CARTESIAN_POINT('',(0.66,-0.169595736209,1.472413656662));
#156=CARTESIAN_POINT('',(0.66,-0.161685054894,1.477733175901));
#157=CARTESIAN_POINT('',(0.66,-0.153526567249,1.482773024258));
#158=CARTESIAN_POINT('',(0.66,-0.137020407721,1.492097753386));
#159=CARTESIAN_POINT('',(0.66,-0.128688747003,1.496402530856));
#160=CARTESIAN_POINT('',(0.66,-0.12014499879,1.500414878928));
#161=CARTESIAN_POINT('',(0.66,-0.111400259626,1.504119593216));
#162=CARTESIAN_POINT('',(0.66,-0.102467435485,1.507501774849));
#163=CARTESIAN_POINT('',(0.66,-8.453493192811E-002,1.513498294635));
#164=CARTESIAN_POINT('',(0.66,-7.554639694304E-002,1.516132890753));
#165=CARTESIAN_POINT('',(0.66,-6.64085144705E-002,1.518437847791));
#166=CARTESIAN_POINT('',(0.66,-5.713783351899E-002,1.520400106432));
#167=CARTESIAN_POINT('',(0.66,-4.775488525608E-002,1.522007764907));
#168=CARTESIAN_POINT('',(0.66,-2.969295309097E-002,1.524379864025));
#169=CARTESIAN_POINT('',(0.66,-2.102888075484E-002,1.525208782901));
#170=CARTESIAN_POINT('',(0.66,-1.231401679426E-002,1.525730893697));
#171=CARTESIAN_POINT('',(0.66,-3.572675622322E-003,1.525941364018));
#172=CARTESIAN_POINT('',(0.66,5.168222805428E-003,1.525838983228));
#173=CARTESIAN_POINT('',(0.66,2.337847467049E-002,1.524978205181));
#174=CARTESIAN_POINT('',(0.66,3.284375814827E-002,1.524161190409));
#175=CARTESIAN_POINT('',(0.66,4.224166817951E-002,1.522980309203));
#176=CARTESIAN_POINT('',(0.66,5.154498116248E-002,1.52144453626));
#177=CARTESIAN_POINT('',(0.66,6.073223707979E-002,1.519565307122));
#178=CARTESIAN_POINT('',(0.66,7.909772773064E-002,1.515080653378));
#179=CARTESIAN_POINT('',(0.66,8.826753248322E-002,1.512456350085));
#180=CARTESIAN_POINT('',(0.66,9.727917108862E-002,1.509494369221));
#181=CARTESIAN_POINT('',(0.66,0.106117308319,1.506208374239));
#182=CARTESIAN_POINT('',(0.66,0.114768939441,1.502612541932));
#183=CARTESIAN_POINT('',(0.66,0.131966117695,1.494697909774));
#184=CARTESIAN_POINT('',(0.66,0.140497702999,1.490358571609));
#185=CARTESIAN_POINT('',(0.66,0.148806061897,1.485719660214));
#186=CARTESIAN_POINT('',(0.66,0.156880650792,1.480797427009));
#187=CARTESIAN_POINT('',(0.66,0.164712466725,1.47560826256));
#188=CARTESIAN_POINT('',(0.66,0.180151423764,1.464531255078));
#189=CARTESIAN_POINT('',(0.66,0.187739958872,1.458624810593));
#190=CARTESIAN_POINT('',(0.66,0.195051326582,1.452467732556));
#191=CARTESIAN_POINT('',(0.66,0.202078661493,1.446078253645));
#192=CARTESIAN_POINT('',(0.66,0.208816558921,1.439474469779));
#193=CARTESIAN_POINT('',(0.66,0.221953232148,1.425612904145));
#194=CARTESIAN_POINT('',(0.66,0.228328983313,1.41833967682));
#195=CARTESIAN_POINT('',(0.66,0.234383958936,1.410874731309));
#196=CARTESIAN_POINT('',(0.66,0.240115246881,1.403237638329));
#197=CARTESIAN_POINT('',(0.66,0.245521392347,1.395447466144));
#198=CARTESIAN_POINT('',(0.66,0.255889855564,1.379276097975));
#199=CARTESIAN_POINT('',(0.66,0.260825146013,1.370883681886));
#200=CARTESIAN_POINT('',(0.66,0.265408341569,1.362366377835));
#201=CARTESIAN_POINT('',(0.66,0.269640849736,1.353744088225));
#202=CARTESIAN_POINT('',(0.66,0.273525413156,1.345035772328));
#203=CARTESIAN_POINT('',(0.66,0.280757352367,1.327109961101));
#204=CARTESIAN_POINT('',(0.66,0.284074759274,1.317886517643));
#205=CARTESIAN_POINT('',(0.66,0.287023012024,1.308609403309));
#206=CARTESIAN_POINT('',(0.66,0.289607802772,1.299297542852));
#207=CARTESIAN_POINT('',(0.66,0.291835834134,1.289968498384));
#208=CARTESIAN_POINT('',(0.66,0.295674958709,1.270905470981));
#209=CARTESIAN_POINT('',(0.66,0.297255116553,1.261171411794));
#210=CARTESIAN_POINT('',(0.66,0.298464074992,1.251454521799));
#211=CARTESIAN_POINT('',(0.66,0.299311100714,1.241771401083));
#212=CARTESIAN_POINT('',(0.66,0.299805944827,1.232137019844));
#213=CARTESIAN_POINT('',(0.66,0.30011808361,1.212595326012));
#214=CARTESIAN_POINT('',(0.66,0.299906283631,1.202693348802));
#215=CARTESIAN_POINT('',(0.66,0.299334987113,1.192873693594));
#216=CARTESIAN_POINT('',(0.66,0.298415571185,1.183149633751));
#217=CARTESIAN_POINT('',(0.66,0.297159245916,1.173532809156));
#218=CARTESIAN_POINT('',(0.66,0.293937772017,1.154190866917));
#219=CARTESIAN_POINT('',(0.66,0.291948568133,1.144474505513));
#220=CARTESIAN_POINT('',(0.66,0.289621677512,1.134895129825));
#221=CARTESIAN_POINT('',(0.66,0.286968496105,1.125462405282));
#222=CARTESIAN_POINT('',(0.66,0.283999580964,1.116184674916));
#223=CARTESIAN_POINT('',(0.66,0.277365684897,1.097719334783));
#224=CARTESIAN_POINT('',(0.66,0.273684712853,1.08854034335));
#225=CARTESIAN_POINT('',(0.66,0.269692176119,1.079539433524));
#226=CARTESIAN_POINT('',(0.66,0.265397048483,1.07072335418));
#227=CARTESIAN_POINT('',(0.66,0.260806835513,1.062098154612));
#228=CARTESIAN_POINT('',(0.66,0.251004164416,1.045163946312));
#229=CARTESIAN_POINT('',(0.66,0.245786379559,1.036858764173));
#230=CARTESIAN_POINT('',(0.66,0.240280407048,1.028758964174));
#231=CARTESIAN_POINT('',(0.66,0.234490342534,1.020870115558));
#232=CARTESIAN_POINT('',(0.66,0.228418190257,1.013198030747));
#233=CARTESIAN_POINT('',(0.66,0.215801462132,0.998407266407));
#234=CARTESIAN_POINT('',(0.66,0.209265037039,0.991282398269));
#235=CARTESIAN_POINT('',(0.66,0.202454011648,0.98438004474));
#236=CARTESIAN_POINT('',(0.66,0.195365844133,0.977707070031));
#237=CARTESIAN_POINT('',(0.66,0.187995125017,0.971271927442));
#238=CARTESIAN_POINT('',(0.66,0.173012685338,0.959175110633));
#239=CARTESIAN_POINT('',(0.66,0.165426730288,0.953491920673));
#240=CARTESIAN_POINT('',(0.66,0.157566473117,0.948044968651));
#241=CARTESIAN_POINT('',(0.66,0.149421191466,0.9428457983));
#242=CARTESIAN_POINT('',(0.66,0.140976348171,0.937909629891));
#243=CARTESIAN_POINT('',(0.66,0.124148062588,0.928975570166));
#244=CARTESIAN_POINT('',(0.66,0.115814079383,0.924934455913));
#245=CARTESIAN_POINT('',(0.66,0.107194119667,0.921149233675));
#246=CARTESIAN_POINT('',(0.66,9.826941158436E-002,0.91763978502));
#247=CARTESIAN_POINT('',(0.66,8.901687105598E-002,0.914432779149));
#248=CARTESIAN_POINT('',(0.66,6.762842160337E-002,0.908048369916));
#249=CARTESIAN_POINT('',(0.66,5.540310162877E-002,0.905067930004));
#250=CARTESIAN_POINT('',(0.66,4.253150709481E-002,0.902628405907));
#251=CARTESIAN_POINT('',(0.66,2.893757304003E-002,0.900850137762));
#252=CARTESIAN_POINT('',(0.66,1.468319780375E-002,0.899909084997));
#253=PLANE('',#254);
#254=AXIS2_PLACEMENT_3D('',#27,#44,#77);
#255=ADVANCED_FACE('',(#256),#271,.T.);
#256=FACE_BOUND('',#257,.F.);
#257=EDGE_LOOP('',(#258,#264,#265,#266));
#258=ORIENTED_EDGE('',*,*,#259,.F.);
#259=EDGE_CURVE('',#71,#260,#262,.T.);
#260=VERTEX_POINT('',#261);
#261=CARTESIAN_POINT('',(5.385,1.125,1.25));
#262=LINE('',#263,#28);
#263=CARTESIAN_POINT('',(0.66,1.125,1.25));
#264=ORIENTED_EDGE('',*,*,#70,.T.);
#265=ORIENTED_EDGE('',*,*,#259,.T.);
#266=ORIENTED_EDGE('',*,*,#267,.F.);
#267=EDGE_CURVE('',#260,#260,#268,.T.);
#268=CIRCLE('',#269,1.125);
#269=AXIS2_PLACEMENT_3D('',#270,#44,#34);
#270=CARTESIAN_POINT('',(5.385,0.E+000,1.25));
#271=CYLINDRICAL_SURFACE('',#42,1.125);
#272=ADVANCED_FACE('',(#273),#289,.T.);
#273=FACE_BOUND('',#274,.T.);
#274=EDGE_LOOP('',(#275,#282,#287,#288));
#275=ORIENTED_EDGE('',*,*,#276,.T.);
#276=EDGE_CURVE('',#277,#277,#279,.T.);
#277=VERTEX_POINT('',#278);
#278=CARTESIAN_POINT('',(0.3,0.E+000,0.35));
#279=CIRCLE('',#280,0.3);
#280=AXIS2_PLACEMENT_3D('',#281,#13,#14);
#281=CARTESIAN_POINT('',(0.E+000,0.E+000,0.35));
#282=ORIENTED_EDGE('',*,*,#283,.T.);
#283=EDGE_CURVE('',#277,#85,#284,.T.);
#284=CIRCLE('',#285,0.6);
#285=AXIS2_PLACEMENT_3D('',#286,#34,#44);
#286=CARTESIAN_POINT('',(0.9,1.102182119233E-016,0.35));
#287=ORIENTED_EDGE('',*,*,#84,.T.);
#288=ORIENTED_EDGE('',*,*,#283,.F.);
#289=TOROIDAL_SURFACE('',#285,0.9,0.3);
#290=ADVANCED_FACE('',(#291,#299),#301,.T.);
#291=FACE_BOUND('',#292,.T.);
#292=EDGE_LOOP('',(#293));
#293=ORIENTED_EDGE('',*,*,#294,.F.);
#294=EDGE_CURVE('',#295,#295,#297,.T.);
#295=VERTEX_POINT('',#296);
#296=CARTESIAN_POINT('',(5.385,1.25,1.25));
#297=CIRCLE('',#298,1.25);
#298=AXIS2_PLACEMENT_3D('',#270,#14,#34);
#299=FACE_BOUND('',#300,.T.);
#300=EDGE_LOOP('',(#266));
#301=PLANE('',#302);
#302=AXIS2_PLACEMENT_3D('',#296,#44,#77);
#303=ADVANCED_FACE('',(#304),#319,.T.);
#304=FACE_BOUND('',#305,.T.);
#305=EDGE_LOOP('',(#306,#312,#313,#314));
#306=ORIENTED_EDGE('',*,*,#307,.T.);
#307=EDGE_CURVE('',#308,#277,#310,.T.);
#308=VERTEX_POINT('',#309);
#309=CARTESIAN_POINT('',(0.3,-7.347880794884E-017,-3.));
#310=LINE('',#309,#311);
#311=VECTOR('',#13,1.);
#312=ORIENTED_EDGE('',*,*,#276,.F.);
#313=ORIENTED_EDGE('',*,*,#307,.F.);
#314=ORIENTED_EDGE('',*,*,#315,.T.);
#315=EDGE_CURVE('',#308,#308,#316,.T.);
#316=CIRCLE('',#317,0.3);
#317=AXIS2_PLACEMENT_3D('',#318,#13,#14);
#318=CARTESIAN_POINT('',(0.E+000,0.E+000,-3.));
#319=CYLINDRICAL_SURFACE('',#317,0.3);
#320=ADVANCED_FACE('',(#321),#334,.T.);
#321=FACE_BOUND('',#322,.F.);
#322=EDGE_LOOP('',(#323,#328,#333,#293));
#323=ORIENTED_EDGE('',*,*,#324,.T.);
#324=EDGE_CURVE('',#295,#325,#327,.T.);
#325=VERTEX_POINT('',#326);
#326=CARTESIAN_POINT('',(6.335,1.25,1.25));
#327=LINE('',#296,#28);
#328=ORIENTED_EDGE('',*,*,#329,.T.);
#329=EDGE_CURVE('',#325,#325,#330,.T.);
#330=CIRCLE('',#331,1.25);
#331=AXIS2_PLACEMENT_3D('',#332,#14,#34);
#332=CARTESIAN_POINT('',(6.335,0.E+000,1.25));
#333=ORIENTED_EDGE('',*,*,#324,.F.);
#334=CYLINDRICAL_SURFACE('',#269,1.25);
#335=ADVANCED_FACE('',(#336),#338,.T.);
#336=FACE_BOUND('',#337,.F.);
#337=EDGE_LOOP('',(#314));
#338=PLANE('',#339);
#339=AXIS2_PLACEMENT_3D('',#309,#77,#44);
#340=ADVANCED_FACE('',(#341),#356,.T.);
#341=FACE_BOUND('',#342,.T.);
#342=EDGE_LOOP('',(#343,#328,#350,#351));
#343=ORIENTED_EDGE('',*,*,#344,.F.);
#344=EDGE_CURVE('',#325,#345,#347,.T.);
#345=VERTEX_POINT('',#346);
#346=CARTESIAN_POINT('',(6.96,0.625,1.25));
#347=CIRCLE('',#348,0.625);
#348=AXIS2_PLACEMENT_3D('',#349,#77,#34);
#349=CARTESIAN_POINT('',(6.335,0.625,1.25));
#350=ORIENTED_EDGE('',*,*,#344,.T.);
#351=ORIENTED_EDGE('',*,*,#352,.F.);
#352=EDGE_CURVE('',#345,#345,#353,.T.);
#353=CIRCLE('',#354,0.625);
#354=AXIS2_PLACEMENT_3D('',#355,#14,#34);
#355=CARTESIAN_POINT('',(6.96,0.E+000,1.25));
#356=TOROIDAL_SURFACE('',#331,0.625,0.625);
#357=ADVANCED_FACE('',(#358,#360),#532,.F.);
#358=FACE_BOUND('',#359,.F.);
#359=EDGE_LOOP('',(#351));
#360=FACE_BOUND('',#361,.F.);
#361=EDGE_LOOP('',(#362));
#362=ORIENTED_EDGE('',*,*,#363,.F.);
#363=EDGE_CURVE('',#364,#364,#366,.T.);
#364=VERTEX_POINT('',#365);
#365=CARTESIAN_POINT('',(6.96,1.102182119233E-016,0.899909083395));
#366=B_SPLINE_CURVE_WITH_KNOTS('',6,(#365,#367,#368,#369,#370,#371,#372,#373,#374,#375,#376,#377,#378,#379,#380,#381,#382,#383,#384,#385,#386,#387,#388,#389,#390,#391,#392,#393,#394,#395,#396,#397,#398,#399,#400,#401,#402,#403,#404,#405,#406,#407,#408,#409,#410,#411,#412,#413,#414,#415,#416,#417,#418,#419,#420,#421,#422,#423,#424,#425,#426,#427,#428,#429,#430,#431,#432,#433,#434,#435,#436,#437,#438,#439,#440,#441,#442,#443,#444,#445,#446,#447,#448,#449,#450,#451,#452,#453,#454,#455,#456,#457,#458,#459,#460,#461,#462,#463,#464,#465,#466,#467,#468,#469,#470,#471,#472,#473,#474,#475,#476,#477,#478,#479,#480,#481,#482,#483,#484,#485,#486,#487,#488,#489,#490,#491,#492,#493,#494,#495,#496,#497,#498,#499,#500,#501,#502,#503,#504,#505,#506,#507,#508,#509,#510,#511,#512,#513,#514,#515,#516,#517,#518,#519,#520,#521,#522,#523,#524,#525,#526,#527,#528,#529,#530,#531,#365),.UNSPECIFIED.,.T.,.F.,(7,5,5,5,5,5,5,5,5,5,5,5,5,5,5,5,5,5,5,5,5,5,5,5,5,5,5,5,5,5,5,5,5,7),(0.E+000,2.522151735631E-002,5.431626764274E-002,8.648932873413E-002,0.120698905604,0.15585219498,0.191016701755,0.225517033144,0.258939642143,0.291086884381,0.32191412294,0.351469698498,0.379846555914,0.407148198058,0.433469525493,0.458895614127,0.483540398702,0.505898369155,0.530279933853,0.555348100008,0.581270886766,0.608136607836,0.636034631737,0.665066137875,0.695331933304,0.726904811218,0.759787311372,0.793856187529,0.828799116201,0.864057997078,0.898806507422,0.932001552493,0.962545077037,1.),.UNSPECIFIED.);
#367=CARTESIAN_POINT('',(6.96,-9.860167462582E-003,0.89990896861));
#368=CARTESIAN_POINT('',(6.96,-1.96044152314E-002,0.900333777569));
#369=CARTESIAN_POINT('',(6.96,-2.906856746895E-002,0.901162791225));
#370=CARTESIAN_POINT('',(6.96,-3.818494668051E-002,0.902337445313));
#371=CARTESIAN_POINT('',(6.96,-4.697397432956E-002,0.903804960014));
#372=CARTESIAN_POINT('',(6.96,-6.54122858756E-002,0.907588661461));
#373=CARTESIAN_POINT('',(6.96,-7.491985816654E-002,0.909985989386));
#374=CARTESIAN_POINT('',(6.96,-8.408849098391E-002,0.912709553602));
#375=CARTESIAN_POINT('',(6.96,-9.294310465939E-002,0.915726321464));
#376=CARTESIAN_POINT('',(6.96,-0.10150496885,0.919011549987));
#377=CARTESIAN_POINT('',(6.96,-0.118958221281,0.926453836747));
#378=CARTESIAN_POINT('',(6.96,-0.127787715696,0.930666010737));
#379=CARTESIAN_POINT('',(6.96,-0.136306161655,0.935155928941));
#380=CARTESIAN_POINT('',(6.96,-0.144532121634,0.939904049757));
#381=CARTESIAN_POINT('',(6.96,-0.152479877126,0.944895641374));
#382=CARTESIAN_POINT('',(6.96,-0.168328600516,0.955672815412));
#383=CARTESIAN_POINT('',(6.96,-0.176194773963,0.961488214941));
#384=CARTESIAN_POINT('',(6.96,-0.183772608747,0.967551566344));
#385=CARTESIAN_POINT('',(6.96,-0.191071765541,0.973851742068));
#386=CARTESIAN_POINT('',(6.96,-0.198098606692,0.980379951052));
#387=CARTESIAN_POINT('',(6.96,-0.211800202804,0.994065659178));
#388=CARTESIAN_POINT('',(6.96,-0.218460270558,1.001234983766));
#389=CARTESIAN_POINT('',(6.96,-0.224839910615,1.00863041136));
#390=CARTESIAN_POINT('',(6.96,-0.230940211566,1.016245364777));
#391=CARTESIAN_POINT('',(6.96,-0.236759839456,1.024073990789));
#392=CARTESIAN_POINT('',(6.96,-0.247832003876,1.040150861324));
#393=CARTESIAN_POINT('',(6.96,-0.253084568675,1.048398903269));
#394=CARTESIAN_POINT('',(6.96,-0.258049049185,1.05685004652));
#395=CARTESIAN_POINT('',(6.96,-0.2627200155,1.065498685566));
#396=CARTESIAN_POINT('',(6.96,-0.267090290802,1.074338848812));
#397=CARTESIAN_POINT('',(6.96,-0.275134913375,1.092219064394));
#398=CARTESIAN_POINT('',(6.96,-0.278821000575,1.10125194666));
#399=CARTESIAN_POINT('',(6.96,-0.282200788118,1.110456818481));
#400=CARTESIAN_POINT('',(6.96,-0.285264726102,1.119826534893));
#401=CARTESIAN_POINT('',(6.96,-0.288002139566,1.129352832871));
#402=CARTESIAN_POINT('',(6.96,-0.292725370416,1.148397637921));
#403=CARTESIAN_POINT('',(6.96,-0.29473215882,1.157906911838));
#404=CARTESIAN_POINT('',(6.96,-0.296410834199,1.16754558505));
#405=CARTESIAN_POINT('',(6.96,-0.297750172302,1.177303521997));
#406=CARTESIAN_POINT('',(6.96,-0.298738484134,1.187169019587));
#407=CARTESIAN_POINT('',(6.96,-0.29996489055,1.20670853133));
#408=CARTESIAN_POINT('',(6.96,-0.300230362775,1.216375375657));
#409=CARTESIAN_POINT('',(6.96,-0.300149187552,1.22611747583));
#410=CARTESIAN_POINT('',(6.96,-0.299710732489,1.235921267953));
#411=CARTESIAN_POINT('',(6.96,-0.298904577874,1.245771488577));
#412=CARTESIAN_POINT('',(6.96,-0.296585075031,1.265125180201));
#413=CARTESIAN_POINT('',(6.96,-0.295102319855,1.27462625024));
#414=CARTESIAN_POINT('',(6.96,-0.293263243612,1.284139361954));
#415=CARTESIAN_POINT('',(6.96,-0.29105964956,1.293647958229));
#416=CARTESIAN_POINT('',(6.96,-0.288484151749,1.303133947704));
#417=CARTESIAN_POINT('',(6.96,-0.282698057797,1.321631888118));
#418=CARTESIAN_POINT('',(6.96,-0.279518212828,1.330647292743));
#419=CARTESIAN_POINT('',(6.96,-0.275984865526,1.339606568389));
#420=CARTESIAN_POINT('',(6.96,-0.27209347283,1.348491205415));
#421=CARTESIAN_POINT('',(6.96,-0.26784072321,1.357281534804));
#422=CARTESIAN_POINT('',(6.96,-0.258792456003,1.374285939199));
#423=CARTESIAN_POINT('',(6.96,-0.254025471274,1.382509099941));
#424=CARTESIAN_POINT('',(6.96,-0.248921774536,1.390607746147));
#425=CARTESIAN_POINT('',(6.96,-0.24348099529,1.398562707415));
#426=CARTESIAN_POINT('',(6.96,-0.237704200488,1.406354107177));
#427=CARTESIAN_POINT('',(6.96,-0.225715116467,1.421280374005));
#428=CARTESIAN_POINT('',(6.96,-0.219527700064,1.428429026844));
#429=CARTESIAN_POINT('',(6.96,-0.213033898729,1.435388985848));
#430=CARTESIAN_POINT('',(6.96,-0.206237442407,1.442141620875));
#431=CARTESIAN_POINT('',(6.96,-0.199143537578,1.448668007007));
#432=CARTESIAN_POINT('',(6.96,-0.184639358866,1.461004311837));
#433=CARTESIAN_POINT('',(6.96,-0.177249661366,1.46683162664));
#434=CARTESIAN_POINT('',(6.96,-0.169595743404,1.472413651413));
#435=CARTESIAN_POINT('',(6.96,-0.161685063001,1.477733185029));
#436=CARTESIAN_POINT('',(6.96,-0.153526567552,1.482773042789));
#437=CARTESIAN_POINT('',(6.96,-0.137020377957,1.492097733275));
#438=CARTESIAN_POINT('',(6.96,-0.128688741655,1.496402506097));
#439=CARTESIAN_POINT('',(6.96,-0.120145015698,1.500414870926));
#440=CARTESIAN_POINT('',(6.96,-0.111400273136,1.504119613979));
#441=CARTESIAN_POINT('',(6.96,-0.102467429294,1.507501811642));
#442=CARTESIAN_POINT('',(6.96,-8.453487359643E-002,1.513498183633));
#443=CARTESIAN_POINT('',(6.96,-7.554644720911E-002,1.51613308184));
#444=CARTESIAN_POINT('',(6.96,-6.640854708582E-002,1.518437839156));
#445=CARTESIAN_POINT('',(6.96,-5.713780068804E-002,1.520399910874));
#446=CARTESIAN_POINT('',(6.96,-4.775487845774E-002,1.522007893513));
#447=CARTESIAN_POINT('',(6.96,-2.969292548283E-002,1.52437977876));
#448=CARTESIAN_POINT('',(6.96,-2.102889094976E-002,1.525208924822));
#449=CARTESIAN_POINT('',(6.96,-1.231404153143E-002,1.525730890851));
#450=CARTESIAN_POINT('',(6.96,-3.572679276074E-003,1.525941220805));
#451=CARTESIAN_POINT('',(6.96,5.168243033088E-003,1.52583907475));
#452=CARTESIAN_POINT('',(6.96,2.337844678287E-002,1.524978413229));
#453=CARTESIAN_POINT('',(6.96,3.284373024997E-002,1.524160868463));
#454=CARTESIAN_POINT('',(6.96,4.224172239025E-002,1.522980299422));
#455=CARTESIAN_POINT('',(6.96,5.154503802108E-002,1.521444853212));
#456=CARTESIAN_POINT('',(6.96,6.073215666605E-002,1.519565119195));
#457=CARTESIAN_POINT('',(6.96,7.909771199475E-002,1.515080715405));
#458=CARTESIAN_POINT('',(6.96,8.82675531125E-002,1.512456387335));
#459=CARTESIAN_POINT('',(6.96,9.727920151967E-002,1.509494357792));
#460=CARTESIAN_POINT('',(6.96,0.106117302403,1.506208331254));
#461=CARTESIAN_POINT('',(6.96,0.114768890523,1.502612503667));
#462=CARTESIAN_POINT('',(6.96,0.1319661163,1.494697932395));
#463=CARTESIAN_POINT('',(6.96,0.140497712216,1.490358583428));
#464=CARTESIAN_POINT('',(6.96,0.148806071355,1.485719654426));
#465=CARTESIAN_POINT('',(6.96,0.156880646133,1.480797412311));
#466=CARTESIAN_POINT('',(6.96,0.164712447986,1.475608252032));
#467=CARTESIAN_POINT('',(6.96,0.180151425777,1.46453127229));
#468=CARTESIAN_POINT('',(6.96,0.187739967164,1.45862481836));
#469=CARTESIAN_POINT('',(6.96,0.195051332691,1.452467727028));
#470=CARTESIAN_POINT('',(6.96,0.20207865613,1.446078243141));
#471=CARTESIAN_POINT('',(6.96,0.208816543867,1.439474464151));
#472=CARTESIAN_POINT('',(6.96,0.221953238059,1.425612923524));
#473=CARTESIAN_POINT('',(6.96,0.228328994524,1.418339683896));
#474=CARTESIAN_POINT('',(6.96,0.234383964852,1.410874723556));
#475=CARTESIAN_POINT('',(6.96,0.240115238483,1.403237627432));
#476=CARTESIAN_POINT('',(6.96,0.245521373748,1.395447463058));
#477=CARTESIAN_POINT('',(6.96,0.25588986733,1.379276120213));
#478=CARTESIAN_POINT('',(6.96,0.260825161615,1.370883687614));
#479=CARTESIAN_POINT('',(6.96,0.265408347201,1.362366366749));
#480=CARTESIAN_POINT('',(6.96,0.269640836772,1.353744077057));
#481=CARTESIAN_POINT('',(6.96,0.273525389215,1.345035773446));
#482=CARTESIAN_POINT('',(6.96,0.280757370989,1.327109983642));
#483=CARTESIAN_POINT('',(6.96,0.284074778857,1.317886520225));
#484=CARTESIAN_POINT('',(6.96,0.28702301626,1.308609389122));
#485=CARTESIAN_POINT('',(6.96,0.289607785113,1.29929753334));
#486=CARTESIAN_POINT('',(6.96,0.291835806202,1.289968505808));
#487=CARTESIAN_POINT('',(6.96,0.295674983107,1.270905490066));
#488=CARTESIAN_POINT('',(6.96,0.297255138129,1.261171409814));
#489=CARTESIAN_POINT('',(6.96,0.298464076807,1.251454505978));
#490=CARTESIAN_POINT('',(6.96,0.299311079865,1.241771395371));
#491=CARTESIAN_POINT('',(6.96,0.299805916194,1.232137034265));
#492=CARTESIAN_POINT('',(6.96,0.300118111197,1.212595339038));
#493=CARTESIAN_POINT('',(6.96,0.299906304864,1.202693342182));
#494=CARTESIAN_POINT('',(6.96,0.299334986276,1.192873677979));
#495=CARTESIAN_POINT('',(6.96,0.298415549391,1.183149632812));
#496=CARTESIAN_POINT('',(6.96,0.29715921972,1.173532829284));
#497=CARTESIAN_POINT('',(6.96,0.293937801394,1.154190874));
#498=CARTESIAN_POINT('',(6.96,0.291948588365,1.144474495238));
#499=CARTESIAN_POINT('',(6.96,0.28962167445,1.134895115228));
#500=CARTESIAN_POINT('',(6.96,0.286968474246,1.125462408515));
#501=CARTESIAN_POINT('',(6.96,0.283999557728,1.116184698885));
#502=CARTESIAN_POINT('',(6.96,0.277365720041,1.097719338125));
#503=CARTESIAN_POINT('',(6.96,0.273684735103,1.088540329457));
#504=CARTESIAN_POINT('',(6.96,0.269692170683,1.079539418357));
#505=CARTESIAN_POINT('',(6.96,0.265397023465,1.070723360764));
#506=CARTESIAN_POINT('',(6.96,0.260806811571,1.062098183552));
#507=CARTESIAN_POINT('',(6.96,0.251004219697,1.045163947022));
#508=CARTESIAN_POINT('',(6.96,0.245786411547,1.036858741787));
#509=CARTESIAN_POINT('',(6.96,0.240280395782,1.028758943151));
#510=CARTESIAN_POINT('',(6.96,0.234490304979,1.02087012779));
#511=CARTESIAN_POINT('',(6.96,0.22841815861,1.013198074729));
#512=CARTESIAN_POINT('',(6.96,0.215801547815,0.998407234883));
#513=CARTESIAN_POINT('',(6.96,0.209264913083,0.99128247471));
#514=CARTESIAN_POINT('',(6.96,0.202454000094,0.984380026053));
#515=CARTESIAN_POINT('',(6.96,0.195365961507,0.977706983911));
#516=CARTESIAN_POINT('',(6.96,0.187995061392,0.971271997058));
#517=CARTESIAN_POINT('',(6.96,0.173012837564,0.959175029375));
#518=CARTESIAN_POINT('',(6.96,0.165426529007,0.953492099376));
#519=CARTESIAN_POINT('',(6.96,0.157566437944,0.948044934321));
#520=CARTESIAN_POINT('',(6.96,0.149421373308,0.942845601948));
#521=CARTESIAN_POINT('',(6.96,0.140976264593,0.937909781461));
#522=CARTESIAN_POINT('',(6.96,0.124148131162,0.928975627958));
#523=CARTESIAN_POINT('',(6.96,0.115814071992,0.924934439518));
#524=CARTESIAN_POINT('',(6.96,0.107194037794,0.921149181784));
#525=CARTESIAN_POINT('',(6.96,9.826937450524E-002,0.917639774974));
#526=CARTESIAN_POINT('',(6.96,8.901696421491E-002,0.914432828225));
#527=CARTESIAN_POINT('',(6.96,6.762356037127E-002,0.908046964389));
#528=CARTESIAN_POINT('',(6.96,5.540377745077E-002,0.905068595899));
#529=CARTESIAN_POINT('',(6.96,4.253681255711E-002,0.902629529668));
#530=CARTESIAN_POINT('',(6.96,2.893994360873E-002,0.900849442899));
#531=CARTESIAN_POINT('',(6.96,1.46772221458E-002,0.899909046356));
#532=PLANE('',#533);
#533=AXIS2_PLACEMENT_3D('',#534,#44,#77);
#534=CARTESIAN_POINT('',(6.96,1.25,1.25));
#535=ADVANCED_FACE('',(#536),#551,.T.);
#536=FACE_BOUND('',#537,.T.);
#537=EDGE_LOOP('',(#362,#538,#545,#550));
#538=ORIENTED_EDGE('',*,*,#539,.T.);
#539=EDGE_CURVE('',#364,#540,#542,.T.);
#540=VERTEX_POINT('',#541);
#541=CARTESIAN_POINT('',(7.32,0.E+000,0.35));
#542=CIRCLE('',#543,0.6);
#543=AXIS2_PLACEMENT_3D('',#544,#34,#13);
#544=CARTESIAN_POINT('',(6.72,1.102182119233E-016,0.35));
#545=ORIENTED_EDGE('',*,*,#546,.T.);
#546=EDGE_CURVE('',#540,#540,#547,.T.);
#547=CIRCLE('',#548,0.3);
#548=AXIS2_PLACEMENT_3D('',#549,#13,#14);
#549=CARTESIAN_POINT('',(7.62,0.E+000,0.35));
#550=ORIENTED_EDGE('',*,*,#539,.F.);
#551=TOROIDAL_SURFACE('',#543,0.9,0.3);
#552=ADVANCED_FACE('',(#553),#568,.T.);
#553=FACE_BOUND('',#554,.T.);
#554=EDGE_LOOP('',(#555,#561,#566,#567));
#555=ORIENTED_EDGE('',*,*,#556,.T.);
#556=EDGE_CURVE('',#540,#557,#559,.T.);
#557=VERTEX_POINT('',#558);
#558=CARTESIAN_POINT('',(7.32,-7.347880794884E-017,-3.));
#559=LINE('',#541,#560);
#560=VECTOR('',#77,1.);
#561=ORIENTED_EDGE('',*,*,#562,.F.);
#562=EDGE_CURVE('',#557,#557,#563,.T.);
#563=CIRCLE('',#564,0.3);
#564=AXIS2_PLACEMENT_3D('',#565,#77,#44);
#565=CARTESIAN_POINT('',(7.62,0.E+000,-3.));
#566=ORIENTED_EDGE('',*,*,#556,.F.);
#567=ORIENTED_EDGE('',*,*,#546,.F.);
#568=CYLINDRICAL_SURFACE('',#569,0.3);
#569=AXIS2_PLACEMENT_3D('',#549,#77,#44);
#570=ADVANCED_FACE('',(#571),#574,.F.);
#571=FACE_BOUND('',#572,.T.);
#572=EDGE_LOOP('',(#573));
#573=ORIENTED_EDGE('',*,*,#562,.T.);
#574=PLANE('',#575);
#575=AXIS2_PLACEMENT_3D('',#558,#13,#14);
#576=( GEOMETRIC_REPRESENTATION_CONTEXT(3) GLOBAL_UNCERTAINTY_ASSIGNED_CONTEXT((#580)) GLOBAL_UNIT_ASSIGNED_CONTEXT((#577,#578,#579)) REPRESENTATION_CONTEXT('Context #1','3D Context with UNIT and UNCERTAINTY') );
#577=( LENGTH_UNIT() NAMED_UNIT(*) SI_UNIT(.MILLI.,.METRE.) );
#578=( NAMED_UNIT(*) PLANE_ANGLE_UNIT() SI_UNIT($,.RADIAN.) );
#579=( NAMED_UNIT(*) SI_UNIT($,.STERADIAN.) SOLID_ANGLE_UNIT() );
#580=UNCERTAINTY_MEASURE_WITH_UNIT(LENGTH_MEASURE(5.E-007),#577,'distance_accuracy_value','confusion accuracy');
#581=MECHANICAL_DESIGN_GEOMETRIC_PRESENTATION_REPRESENTATION('',(#582,#590,#591,#592,#593,#594,#602,#603,#604,#605,#606,#607,#608,#609,#610),#576);
#582=STYLED_ITEM('color',(#583),#17);
#583=PRESENTATION_STYLE_ASSIGNMENT((#584));
#584=SURFACE_STYLE_USAGE(.BOTH.,#585);
#585=SURFACE_SIDE_STYLE('',(#586));
#586=SURFACE_STYLE_FILL_AREA(#587);
#587=FILL_AREA_STYLE('',(#588));
#588=FILL_AREA_STYLE_COLOUR('',#589);
#589=COLOUR_RGB('',0.883000016212,0.711000025272,0.49200001359);
#590=STYLED_ITEM('color',(#583),#45);
#591=STYLED_ITEM('color',(#583),#63);
#592=STYLED_ITEM('color',(#583),#78);
#593=STYLED_ITEM('color',(#583),#255);
#594=STYLED_ITEM('color',(#595),#272);
#595=PRESENTATION_STYLE_ASSIGNMENT((#596));
#596=SURFACE_STYLE_USAGE(.BOTH.,#597);
#597=SURFACE_SIDE_STYLE('',(#598));
#598=SURFACE_STYLE_FILL_AREA(#599);
#599=FILL_AREA_STYLE('',(#600));
#600=FILL_AREA_STYLE_COLOUR('',#601);
#601=COLOUR_RGB('',0.824000000954,0.819999992847,0.78100001812);
#602=STYLED_ITEM('color',(#583),#290);
#603=STYLED_ITEM('color',(#595),#303);
#604=STYLED_ITEM('color',(#583),#320);
#605=STYLED_ITEM('color',(#595),#335);
#606=STYLED_ITEM('color',(#583),#340);
#607=STYLED_ITEM('color',(#583),#357);
#608=STYLED_ITEM('color',(#595),#535);
#609=STYLED_ITEM('color',(#595),#552);
#610=STYLED_ITEM('color',(#595),#570);
ENDSEC;
END-ISO-10303-21;
