M48
; DRILL file KiCad 10.0.6 date 2026-10-02T21:55:37
; FORMAT={-:-/ absolute / metric / decimal}
; #@! TF.CreationDate,2026-10-02T21:55:37+07:00
; #@! TF.GenerationSoftware,Kicad,Pcbnew,10.0.6
; #@! TF.FileFunction,Plated,1,2,PTH
FMAT,2
METRIC
; #@! TA.AperFunction,Plated,PTH,ViaDrill
T1C0.300
; #@! TA.AperFunction,Plated,PTH,ViaDrill
T2C0.400
; #@! TA.AperFunction,Plated,PTH,ComponentDrill
T3C0.800
; #@! TA.AperFunction,Plated,PTH,ComponentDrill
T4C1.000
%
G90
G05
T1
X53.5Y-73.7
X53.5Y-81.7
X116.5Y-73.7
X116.5Y-81.7
T2
X59.0Y-109.75
X62.0Y-125.0
X62.5Y-73.367
X62.5Y-77.7
X66.5Y-77.367
X66.62Y-114.571
X71.5Y-80.233
X75.0Y-114.571
X77.0Y-118.875
X77.0Y-121.062
X79.0Y-53.5
X89.8Y-112.2
X96.0Y-109.75
X97.0Y-53.5
X98.5Y-77.367
X103.5Y-80.367
X103.5Y-84.667
X103.62Y-112.857
X105.0Y-75.2
X107.5Y-73.367
X107.5Y-76.7
X109.45Y-124.5
T3
X60.5Y-86.667
X61.94Y-54.0
X61.94Y-56.54
X61.94Y-59.08
X61.94Y-61.62
X62.5Y-86.667
X63.0Y-66.5
X64.5Y-86.667
X65.0Y-66.5
X66.5Y-86.667
X67.0Y-66.5
X68.0Y-121.5
X69.0Y-66.5
X69.56Y-54.0
X69.56Y-56.54
X69.56Y-59.08
X69.56Y-61.62
X70.54Y-121.5
X73.08Y-121.5
X79.0Y-101.5
X79.0Y-103.5
X79.0Y-105.5
X79.0Y-107.5
X81.19Y-112.19
X81.19Y-114.73
X81.19Y-117.27
X81.19Y-119.81
X88.81Y-112.19
X88.81Y-114.73
X88.81Y-117.27
X88.81Y-119.81
X97.0Y-121.5
X99.54Y-121.5
X100.44Y-54.0
X100.44Y-56.54
X100.44Y-59.08
X100.44Y-61.62
X101.0Y-66.5
X102.08Y-121.5
X103.0Y-66.5
X103.5Y-86.667
X105.0Y-66.5
X105.5Y-86.667
X107.0Y-66.5
X107.5Y-86.667
X108.06Y-54.0
X108.06Y-56.54
X108.06Y-59.08
X108.06Y-61.62
X109.5Y-86.667
T4
X57.0Y-95.0
X57.0Y-97.54
X57.0Y-100.08
X57.0Y-102.62
X57.0Y-105.16
X57.0Y-107.7
X63.2Y-81.7
X68.3Y-81.7
X72.0Y-86.667
X73.0Y-127.0
X74.54Y-86.667
X75.54Y-127.0
X76.0Y-66.5
X77.08Y-86.667
X78.54Y-66.5
X79.0Y-95.0
X79.0Y-97.54
X79.62Y-86.667
X84.0Y-127.0
X86.54Y-127.0
X90.0Y-95.0
X90.0Y-97.54
X90.0Y-100.08
X90.0Y-102.62
X90.0Y-105.16
X90.0Y-107.7
X96.0Y-127.0
X98.54Y-127.0
X101.7Y-81.7
X106.8Y-81.7
X112.0Y-95.0
X112.0Y-97.54
M30
