%TF.GenerationSoftware,KiCad,Pcbnew,10.0.6*%
%TF.CreationDate,2026-10-02T11:36:23+07:00*%
%TF.ProjectId,ppg_panel,7070675f-7061-46e6-956c-2e6b69636164,rev?*%
%TF.SameCoordinates,Original*%
%TF.FileFunction,Copper,L1,Top*%
%TF.FilePolarity,Positive*%
%FSLAX46Y46*%
G04 Gerber Fmt 4.6, Leading zero omitted, Abs format (unit mm)*
G04 Created by KiCad (PCBNEW 10.0.6) date 2026-10-02 11:36:23*
%MOMM*%
%LPD*%
G01*
G04 APERTURE LIST*
G04 Aperture macros list*
%AMRoundRect*
0 Rectangle with rounded corners*
0 $1 Rounding radius*
0 $2 $3 $4 $5 $6 $7 $8 $9 X,Y pos of 4 corners*
0 Add a 4 corners polygon primitive as box body*
4,1,4,$2,$3,$4,$5,$6,$7,$8,$9,$2,$3,0*
0 Add four circle primitives for the rounded corners*
1,1,$1+$1,$2,$3*
1,1,$1+$1,$4,$5*
1,1,$1+$1,$6,$7*
1,1,$1+$1,$8,$9*
0 Add four rect primitives between the rounded corners*
20,1,$1+$1,$2,$3,$4,$5,0*
20,1,$1+$1,$4,$5,$6,$7,0*
20,1,$1+$1,$6,$7,$8,$9,0*
20,1,$1+$1,$8,$9,$2,$3,0*%
G04 Aperture macros list end*
%TA.AperFunction,SMDPad,CuDef*%
%ADD10RoundRect,0.250000X-0.450000X0.350000X-0.450000X-0.350000X0.450000X-0.350000X0.450000X0.350000X0*%
%TD*%
%TA.AperFunction,ComponentPad*%
%ADD11RoundRect,0.250000X-0.550000X-0.550000X0.550000X-0.550000X0.550000X0.550000X-0.550000X0.550000X0*%
%TD*%
%TA.AperFunction,ComponentPad*%
%ADD12C,1.600000*%
%TD*%
%TA.AperFunction,ComponentPad*%
%ADD13R,1.700000X1.700000*%
%TD*%
%TA.AperFunction,ComponentPad*%
%ADD14C,1.700000*%
%TD*%
%TA.AperFunction,SMDPad,CuDef*%
%ADD15RoundRect,0.250000X-0.337500X-0.475000X0.337500X-0.475000X0.337500X0.475000X-0.337500X0.475000X0*%
%TD*%
%TA.AperFunction,SMDPad,CuDef*%
%ADD16RoundRect,0.250000X-0.350000X-0.450000X0.350000X-0.450000X0.350000X0.450000X-0.350000X0.450000X0*%
%TD*%
%TA.AperFunction,ComponentPad*%
%ADD17R,2.000000X2.000000*%
%TD*%
%TA.AperFunction,ComponentPad*%
%ADD18C,2.000000*%
%TD*%
%TA.AperFunction,ComponentPad*%
%ADD19R,1.350000X1.350000*%
%TD*%
%TA.AperFunction,ComponentPad*%
%ADD20C,1.350000*%
%TD*%
%TA.AperFunction,SMDPad,CuDef*%
%ADD21RoundRect,0.250000X-0.400000X-0.625000X0.400000X-0.625000X0.400000X0.625000X-0.400000X0.625000X0*%
%TD*%
%TA.AperFunction,SMDPad,CuDef*%
%ADD22RoundRect,0.250000X0.350000X0.450000X-0.350000X0.450000X-0.350000X-0.450000X0.350000X-0.450000X0*%
%TD*%
%TA.AperFunction,ComponentPad*%
%ADD23R,1.500000X1.500000*%
%TD*%
%TA.AperFunction,ComponentPad*%
%ADD24C,1.500000*%
%TD*%
%TA.AperFunction,SMDPad,CuDef*%
%ADD25RoundRect,0.250000X-0.475000X0.337500X-0.475000X-0.337500X0.475000X-0.337500X0.475000X0.337500X0*%
%TD*%
%TA.AperFunction,ComponentPad*%
%ADD26O,1.700000X1.700000*%
%TD*%
%TA.AperFunction,ComponentPad*%
%ADD27O,1.350000X1.350000*%
%TD*%
%TA.AperFunction,ViaPad*%
%ADD28C,0.800000*%
%TD*%
%TA.AperFunction,ViaPad*%
%ADD29C,0.650000*%
%TD*%
%TA.AperFunction,Conductor*%
%ADD30C,0.350000*%
%TD*%
%TA.AperFunction,Conductor*%
%ADD31C,0.500000*%
%TD*%
%TA.AperFunction,Conductor*%
%ADD32C,0.300000*%
%TD*%
%TA.AperFunction,Conductor*%
%ADD33C,0.400000*%
%TD*%
%TA.AperFunction,Conductor*%
%ADD34C,0.250000*%
%TD*%
%TA.AperFunction,Conductor*%
%ADD35C,0.220000*%
%TD*%
%TA.AperFunction,Conductor*%
%ADD36C,0.600000*%
%TD*%
G04 APERTURE END LIST*
D10*
%TO.P,TX_R3,1*%
%TO.N,TX/AMP_IR*%
X73000000Y-114310000D03*
%TO.P,TX_R3,2*%
%TO.N,TX/BASE_IR*%
X73000000Y-116310000D03*
%TD*%
D11*
%TO.P,OPT_U2,1*%
%TO.N,OPT/3V3_IR*%
X100440000Y-54000000D03*
D12*
%TO.P,OPT_U2,2*%
%TO.N,OPTunconnected-(U2--IN-Pad2)*%
X100440000Y-56540000D03*
%TO.P,OPT_U2,3*%
%TO.N,OPT/GND_IR*%
X100440000Y-59080000D03*
%TO.P,OPT_U2,4*%
%TO.N,OPT/RAW_IR*%
X100440000Y-61620000D03*
%TO.P,OPT_U2,5*%
X108060000Y-61620000D03*
%TO.P,OPT_U2,6*%
%TO.N,OPTunconnected-(U2-NC-Pad6)*%
X108060000Y-59080000D03*
%TO.P,OPT_U2,7*%
%TO.N,OPTunconnected-(U2-NC-Pad7)*%
X108060000Y-56540000D03*
%TO.P,OPT_U2,8*%
%TO.N,OPT/GND_IR*%
X108060000Y-54000000D03*
%TD*%
D13*
%TO.P,TX_J7,1*%
%TO.N,TX/5V*%
X84000000Y-127000000D03*
D14*
%TO.P,TX_J7,2*%
%TO.N,TX/GND*%
X86540000Y-127000000D03*
%TD*%
D15*
%TO.P,OPT_C2,1*%
%TO.N,OPT/3V3_IR*%
X92962500Y-53500000D03*
%TO.P,OPT_C2,2*%
%TO.N,OPT/GND_IR*%
X95037500Y-53500000D03*
%TD*%
D16*
%TO.P,TX_R6,1*%
%TO.N,TX/DAC_RED*%
X98810000Y-109000000D03*
%TO.P,TX_R6,2*%
%TO.N,TX/CMD_RED*%
X100810000Y-109000000D03*
%TD*%
D13*
%TO.P,BPW_J3,1*%
%TO.N,BPW/OUT_RED*%
X72000000Y-86666666D03*
D14*
%TO.P,BPW_J3,2*%
%TO.N,BPW/GND_RED*%
X74540000Y-86666666D03*
%TO.P,BPW_J3,3*%
%TO.N,BPW/OUT_IR*%
X77080000Y-86666666D03*
%TO.P,BPW_J3,4*%
%TO.N,BPW/GND_IR*%
X79620000Y-86666666D03*
%TD*%
D16*
%TO.P,TX_R1,1*%
%TO.N,TX/DAC_IR*%
X61810000Y-109000000D03*
%TO.P,TX_R1,2*%
%TO.N,TX/CMD_IR*%
X63810000Y-109000000D03*
%TD*%
D17*
%TO.P,BPW_D2,1*%
%TO.N,BPW/SUM_IR*%
X101700000Y-81700000D03*
D18*
%TO.P,BPW_D2,2*%
%TO.N,BPW/GND_IR*%
X106800000Y-81700000D03*
%TD*%
D16*
%TO.P,TX_R8,1*%
%TO.N,TX/AMP_RED*%
X98810000Y-117000000D03*
%TO.P,TX_R8,2*%
%TO.N,TX/BASE_RED*%
X100810000Y-117000000D03*
%TD*%
D15*
%TO.P,TX_C5,1*%
%TO.N,TX/5V*%
X92962500Y-111500000D03*
%TO.P,TX_C5,2*%
%TO.N,TX/GND*%
X95037500Y-111500000D03*
%TD*%
D19*
%TO.P,BPW_J2,1*%
%TO.N,BPW/OUT_IR*%
X103500000Y-86666666D03*
D20*
%TO.P,BPW_J2,2*%
%TO.N,BPWunconnected-(J2-UNUSED-Pad2)*%
X105500000Y-86666666D03*
%TO.P,BPW_J2,3*%
%TO.N,BPW/3V3_IR*%
X107500000Y-86666666D03*
%TO.P,BPW_J2,4*%
%TO.N,BPW/GND_IR*%
X109500000Y-86666666D03*
%TD*%
D11*
%TO.P,OPT_U1,1*%
%TO.N,OPT/3V3_RED*%
X61940000Y-54000000D03*
D12*
%TO.P,OPT_U1,2*%
%TO.N,OPTunconnected-(U1--IN-Pad2)*%
X61940000Y-56540000D03*
%TO.P,OPT_U1,3*%
%TO.N,OPT/GND_RED*%
X61940000Y-59080000D03*
%TO.P,OPT_U1,4*%
%TO.N,OPT/RAW_RED*%
X61940000Y-61620000D03*
%TO.P,OPT_U1,5*%
X69560000Y-61620000D03*
%TO.P,OPT_U1,6*%
%TO.N,OPTunconnected-(U1-NC-Pad6)*%
X69560000Y-59080000D03*
%TO.P,OPT_U1,7*%
%TO.N,OPTunconnected-(U1-NC-Pad7)*%
X69560000Y-56540000D03*
%TO.P,OPT_U1,8*%
%TO.N,OPT/GND_RED*%
X69560000Y-54000000D03*
%TD*%
D13*
%TO.P,TX_J6,1*%
%TO.N,TX/5V*%
X96000000Y-127000000D03*
D14*
%TO.P,TX_J6,2*%
%TO.N,TX/LED_K_RED*%
X98540000Y-127000000D03*
%TD*%
D21*
%TO.P,TX_R9,1*%
%TO.N,TX/SENSE_RED*%
X109450000Y-122500000D03*
%TO.P,TX_R9,2*%
%TO.N,TX/GND*%
X112550000Y-122500000D03*
%TD*%
D13*
%TO.P,OPT_J3,1*%
%TO.N,OPT/OUT_RED*%
X76000000Y-66500000D03*
D14*
%TO.P,OPT_J3,2*%
%TO.N,OPT/OUT_IR*%
X78540000Y-66500000D03*
%TD*%
D22*
%TO.P,TX_R7,1*%
%TO.N,TX/CMD_RED*%
X100810000Y-112000000D03*
%TO.P,TX_R7,2*%
%TO.N,TX/GND*%
X98810000Y-112000000D03*
%TD*%
D13*
%TO.P,TX_J1,1*%
%TO.N,TX/DAC_IR*%
X57000000Y-95000000D03*
D14*
%TO.P,TX_J1,2*%
%TO.N,TX/GND*%
X57000000Y-97540000D03*
%TO.P,TX_J1,3*%
%TO.N,TX/SCL*%
X57000000Y-100080000D03*
%TO.P,TX_J1,4*%
%TO.N,TX/SDA*%
X57000000Y-102620000D03*
%TO.P,TX_J1,5*%
%TO.N,TX/3V3*%
X57000000Y-105160000D03*
%TO.P,TX_J1,6*%
%TO.N,TX/GND*%
X57000000Y-107700000D03*
%TD*%
D21*
%TO.P,TX_R4,1*%
%TO.N,TX/SENSE_IR*%
X59450000Y-127000000D03*
%TO.P,TX_R4,2*%
%TO.N,TX/GND*%
X62550000Y-127000000D03*
%TD*%
D19*
%TO.P,OPT_J1,1*%
%TO.N,OPT/OUT_RED*%
X63000000Y-66500000D03*
D20*
%TO.P,OPT_J1,2*%
%TO.N,OPTunconnected-(J1-UNUSED-Pad2)*%
X65000000Y-66500000D03*
%TO.P,OPT_J1,3*%
%TO.N,OPT/3V3_RED*%
X67000000Y-66500000D03*
%TO.P,OPT_J1,4*%
%TO.N,OPT/GND_RED*%
X69000000Y-66500000D03*
%TD*%
D23*
%TO.P,TX_Q2,1*%
%TO.N,TX/SENSE_RED*%
X97000000Y-121500000D03*
D24*
%TO.P,TX_Q2,2*%
%TO.N,TX/BASE_RED*%
X99540000Y-121500000D03*
%TO.P,TX_Q2,3*%
%TO.N,TX/LED_K_RED*%
X102080000Y-121500000D03*
%TD*%
D19*
%TO.P,BPW_J1,1*%
%TO.N,BPW/OUT_RED*%
X60500000Y-86666666D03*
D20*
%TO.P,BPW_J1,2*%
%TO.N,BPWunconnected-(J1-UNUSED-Pad2)*%
X62500000Y-86666666D03*
%TO.P,BPW_J1,3*%
%TO.N,BPW/3V3_RED*%
X64500000Y-86666666D03*
%TO.P,BPW_J1,4*%
%TO.N,BPW/GND_RED*%
X66500000Y-86666666D03*
%TD*%
D11*
%TO.P,TX_U1,1*%
%TO.N,TX/AMP_IR*%
X81190000Y-112190000D03*
D12*
%TO.P,TX_U1,2*%
%TO.N,TX/SENSE_IR*%
X81190000Y-114730000D03*
%TO.P,TX_U1,3*%
%TO.N,TX/CMD_IR*%
X81190000Y-117270000D03*
%TO.P,TX_U1,4*%
%TO.N,TX/GND*%
X81190000Y-119810000D03*
%TO.P,TX_U1,5*%
%TO.N,TX/CMD_RED*%
X88810000Y-119810000D03*
%TO.P,TX_U1,6*%
%TO.N,TX/SENSE_RED*%
X88810000Y-117270000D03*
%TO.P,TX_U1,7*%
%TO.N,TX/AMP_RED*%
X88810000Y-114730000D03*
%TO.P,TX_U1,8*%
%TO.N,TX/5V*%
X88810000Y-112190000D03*
%TD*%
D13*
%TO.P,TX_J4,1*%
%TO.N,TX/DAC_RED*%
X112000000Y-95000000D03*
D14*
%TO.P,TX_J4,2*%
%TO.N,TX/GND*%
X112000000Y-97540000D03*
%TD*%
D22*
%TO.P,TX_R2,1*%
%TO.N,TX/CMD_IR*%
X63810000Y-112000000D03*
%TO.P,TX_R2,2*%
%TO.N,TX/GND*%
X61810000Y-112000000D03*
%TD*%
D25*
%TO.P,TX_C4,1*%
%TO.N,TX/AMP_RED*%
X93000000Y-119462500D03*
%TO.P,TX_C4,2*%
%TO.N,TX/SENSE_RED*%
X93000000Y-121537500D03*
%TD*%
D23*
%TO.P,TX_Q1,1*%
%TO.N,TX/SENSE_IR*%
X68000000Y-121500000D03*
D24*
%TO.P,TX_Q1,2*%
%TO.N,TX/BASE_IR*%
X70540000Y-121500000D03*
%TO.P,TX_Q1,3*%
%TO.N,TX/LED_K_IR*%
X73080000Y-121500000D03*
%TD*%
D13*
%TO.P,TX_J2,1*%
%TO.N,TX/DAC_IR*%
X79000000Y-95000000D03*
D26*
%TO.P,TX_J2,2*%
%TO.N,TX/GND*%
X79000000Y-97540000D03*
D19*
%TO.P,TX_J2,3*%
%TO.N,TX/SCL*%
X79000000Y-101500000D03*
D27*
%TO.P,TX_J2,4*%
%TO.N,TX/SDA*%
X79000000Y-103500000D03*
%TO.P,TX_J2,5*%
%TO.N,TX/3V3*%
X79000000Y-105500000D03*
%TO.P,TX_J2,6*%
%TO.N,TX/GND*%
X79000000Y-107500000D03*
%TD*%
D17*
%TO.P,BPW_D1,1*%
%TO.N,BPW/SUM_RED*%
X63200000Y-81700000D03*
D18*
%TO.P,BPW_D1,2*%
%TO.N,BPW/GND_RED*%
X68300000Y-81700000D03*
%TD*%
D15*
%TO.P,OPT_C1,1*%
%TO.N,OPT/3V3_RED*%
X74962500Y-53500000D03*
%TO.P,OPT_C1,2*%
%TO.N,OPT/GND_RED*%
X77037500Y-53500000D03*
%TD*%
D13*
%TO.P,TX_J3,1*%
%TO.N,TX/DAC_RED*%
X90000000Y-95000000D03*
D14*
%TO.P,TX_J3,2*%
%TO.N,TX/GND*%
X90000000Y-97540000D03*
%TO.P,TX_J3,3*%
%TO.N,TX/SCL*%
X90000000Y-100080000D03*
%TO.P,TX_J3,4*%
%TO.N,TX/SDA*%
X90000000Y-102620000D03*
%TO.P,TX_J3,5*%
%TO.N,TX/3V3*%
X90000000Y-105160000D03*
%TO.P,TX_J3,6*%
%TO.N,TX/GND*%
X90000000Y-107700000D03*
%TD*%
D25*
%TO.P,TX_C2,1*%
%TO.N,TX/AMP_IR*%
X77000000Y-119462500D03*
%TO.P,TX_C2,2*%
%TO.N,TX/SENSE_IR*%
X77000000Y-121537500D03*
%TD*%
D13*
%TO.P,TX_J5,1*%
%TO.N,TX/5V*%
X73000000Y-127000000D03*
D14*
%TO.P,TX_J5,2*%
%TO.N,TX/LED_K_IR*%
X75540000Y-127000000D03*
%TD*%
D19*
%TO.P,OPT_J2,1*%
%TO.N,OPT/OUT_IR*%
X101000000Y-66500000D03*
D20*
%TO.P,OPT_J2,2*%
%TO.N,OPTunconnected-(J2-UNUSED-Pad2)*%
X103000000Y-66500000D03*
%TO.P,OPT_J2,3*%
%TO.N,OPT/3V3_IR*%
X105000000Y-66500000D03*
%TO.P,OPT_J2,4*%
%TO.N,OPT/GND_IR*%
X107000000Y-66500000D03*
%TD*%
D28*
%TO.N,OPT/GND_RED*%
X79000000Y-53500000D03*
%TO.N,OPT/GND_IR*%
X97000000Y-53500000D03*
%TO.N,BPW/OUT_IR*%
X107500000Y-76700000D03*
X103500000Y-84666666D03*
%TO.N,BPW/3V3_IR*%
X107500000Y-73366666D03*
X112000000Y-85333333D03*
X98500000Y-77366666D03*
D29*
%TO.N,BPW/GND_IR*%
X116500000Y-73700000D03*
X116500000Y-81700000D03*
D28*
%TO.N,BPW/3V3_RED*%
X66500000Y-77366666D03*
X58000000Y-85333333D03*
X62500000Y-73366666D03*
D29*
%TO.N,BPW/GND_RED*%
X53500000Y-73700000D03*
X53500000Y-81700000D03*
D28*
%TO.N,BPW/VREF_IR*%
X105000000Y-75200000D03*
X103500000Y-80366666D03*
%TO.N,BPW/VREF_RED*%
X62500000Y-77700000D03*
X71500000Y-80233333D03*
%TO.N,TX/CMD_RED*%
X103620000Y-112857142D03*
%TO.N,TX/SENSE_RED*%
X98000000Y-125000000D03*
X109450000Y-124500000D03*
X93000000Y-121062500D03*
%TO.N,TX/5V*%
X89800000Y-112200000D03*
%TO.N,TX/AMP_IR*%
X77000000Y-118875000D03*
%TO.N,TX/SENSE_IR*%
X77000000Y-121062500D03*
X62000000Y-125000000D03*
%TO.N,TX/DAC_RED*%
X96000000Y-109750000D03*
%TO.N,TX/DAC_IR*%
X59000000Y-109750000D03*
%TO.N,TX/CMD_IR*%
X75000000Y-114571428D03*
X66620000Y-114571428D03*
%TD*%
%TO.N,OPT/3V3_RED*%
D30*
X74962500Y-51700000D02*
X74962500Y-53500000D01*
D31*
X58500000Y-54000000D02*
X61940000Y-54000000D01*
D30*
X61940000Y-51700000D02*
X74962500Y-51700000D01*
D31*
X58500000Y-67900000D02*
X58500000Y-54000000D01*
X67000000Y-66500000D02*
X67000000Y-67900000D01*
D30*
X61940000Y-54000000D02*
X61940000Y-51700000D01*
D31*
X67000000Y-67900000D02*
X58500000Y-67900000D01*
%TO.N,OPT/GND_RED*%
D30*
X77037500Y-53500000D02*
X79000000Y-53500000D01*
%TO.N,OPT/3V3_IR*%
X100440000Y-54000000D02*
X100440000Y-51700000D01*
D31*
X105000000Y-67900000D02*
X111500000Y-67900000D01*
X100440000Y-52200000D02*
X100440000Y-54000000D01*
D30*
X92962500Y-51700000D02*
X92962500Y-53500000D01*
X100440000Y-51700000D02*
X92962500Y-51700000D01*
D31*
X111500000Y-67900000D02*
X111500000Y-52200000D01*
X111500000Y-52200000D02*
X100440000Y-52200000D01*
X105000000Y-66500000D02*
X105000000Y-67900000D01*
%TO.N,OPT/GND_IR*%
D30*
X95037500Y-53500000D02*
X97000000Y-53500000D01*
%TO.N,OPT/RAW_RED*%
X61940000Y-61620000D02*
X69560000Y-61620000D01*
%TO.N,OPT/RAW_IR*%
X100440000Y-61620000D02*
X108060000Y-61620000D01*
%TO.N,BPW/OUT_IR*%
D32*
X107500000Y-76700000D02*
X110000000Y-76700000D01*
X110000000Y-76700000D02*
X110000000Y-83333333D01*
X77080000Y-83666666D02*
X77080000Y-86666666D01*
X110000000Y-83333333D02*
X103500000Y-83333333D01*
X103500000Y-83666666D02*
X77080000Y-83666666D01*
X103500000Y-83333333D02*
X103500000Y-86666666D01*
X103500000Y-86666666D02*
X103500000Y-83666666D01*
%TO.N,BPW/3V3_IR*%
D33*
X112000000Y-87900000D02*
X112000000Y-85333333D01*
X107500000Y-86666666D02*
X107500000Y-87900000D01*
D30*
X96500000Y-72700000D02*
X96500000Y-77366666D01*
D33*
X107500000Y-87900000D02*
X112000000Y-87900000D01*
D30*
X96500000Y-77366666D02*
X98500000Y-77366666D01*
X107500000Y-73366666D02*
X107500000Y-72700000D01*
X107500000Y-72700000D02*
X96500000Y-72700000D01*
%TO.N,BPW/GND_IR*%
D34*
X116500000Y-73700000D02*
X116500000Y-81700000D01*
%TO.N,BPW/OUT_RED*%
D32*
X72000000Y-84666666D02*
X72000000Y-86666666D01*
X60500000Y-86666666D02*
X60500000Y-84666666D01*
X60500000Y-84666666D02*
X72000000Y-84666666D01*
%TO.N,BPW/3V3_RED*%
D33*
X64500000Y-87900000D02*
X58000000Y-87900000D01*
D30*
X66500000Y-73366666D02*
X66500000Y-77366666D01*
D33*
X58000000Y-87900000D02*
X58000000Y-85333333D01*
D30*
X62500000Y-73366666D02*
X66500000Y-73366666D01*
D33*
X64500000Y-86666666D02*
X64500000Y-87900000D01*
%TO.N,BPW/GND_RED*%
D34*
X74000000Y-86666666D02*
X74540000Y-86666666D01*
X53500000Y-73700000D02*
X53500000Y-81700000D01*
X74000000Y-81700000D02*
X74000000Y-86666666D01*
X68300000Y-81700000D02*
X74000000Y-81700000D01*
%TO.N,BPW/VREF_IR*%
D35*
X103500000Y-75200000D02*
X103500000Y-80366666D01*
X105000000Y-75200000D02*
X103500000Y-75200000D01*
%TO.N,BPW/VREF_RED*%
X71500000Y-79500000D02*
X71500000Y-80233333D01*
X62500000Y-77700000D02*
X62500000Y-79500000D01*
X62500000Y-79500000D02*
X71500000Y-79500000D01*
%TO.N,TX/CMD_RED*%
D30*
X100810000Y-112857142D02*
X100810000Y-112000000D01*
X103620000Y-112857142D02*
X100810000Y-112857142D01*
X100810000Y-109750000D02*
X100810000Y-109000000D01*
X103620000Y-109750000D02*
X103620000Y-112857142D01*
X103620000Y-109750000D02*
X100810000Y-109750000D01*
%TO.N,TX/SENSE_RED*%
D36*
X98000000Y-122250000D02*
X98000000Y-125000000D01*
X98000000Y-121500000D02*
X98000000Y-122250000D01*
D30*
X88810000Y-117270000D02*
X90800000Y-117270000D01*
D36*
X97000000Y-121500000D02*
X98000000Y-121500000D01*
D34*
X109450000Y-124500000D02*
X109450000Y-122500000D01*
D30*
X90800000Y-116517142D02*
X90800000Y-125000000D01*
X90800000Y-117270000D02*
X90800000Y-116517142D01*
D36*
X93000000Y-121062500D02*
X93000000Y-121537500D01*
D30*
X90800000Y-125000000D02*
X98000000Y-125000000D01*
%TO.N,TX/BASE_RED*%
X103620000Y-119312500D02*
X99540000Y-119312500D01*
X103620000Y-116285714D02*
X103620000Y-119312500D01*
X99540000Y-119312500D02*
X99540000Y-121500000D01*
X103620000Y-116285714D02*
X100810000Y-116285714D01*
X100810000Y-116285714D02*
X100810000Y-117000000D01*
%TO.N,TX/LED_K_RED*%
D36*
X105000000Y-121500000D02*
X108000000Y-121500000D01*
X108000000Y-123750000D02*
X108000000Y-126500000D01*
X108000000Y-126500000D02*
X98540000Y-126500000D01*
X108000000Y-121500000D02*
X108000000Y-123750000D01*
X98540000Y-126500000D02*
X98540000Y-127000000D01*
X102079999Y-121500000D02*
X105000000Y-121500000D01*
%TO.N,TX/5V*%
X89800000Y-112200000D02*
X92962500Y-112200000D01*
X92962500Y-112200000D02*
X92962500Y-111500000D01*
%TO.N,TX/LED_K_IR*%
X74800000Y-126250000D02*
X75539999Y-126250000D01*
X75539999Y-126620000D02*
X75539999Y-127000000D01*
X73080000Y-121500000D02*
X74800000Y-121500000D01*
X75539999Y-126250000D02*
X75539999Y-126620000D01*
X74800000Y-121500000D02*
X74800000Y-122789999D01*
X74800000Y-122789999D02*
X74800000Y-126250000D01*
%TO.N,TX/AMP_IR*%
D30*
X81190000Y-112190000D02*
X79000000Y-112190000D01*
X77810000Y-112162857D02*
X77810000Y-111250000D01*
X77000000Y-118875000D02*
X77000000Y-119462500D01*
X79000000Y-112162857D02*
X77810000Y-112162857D01*
X73000000Y-111625000D02*
X73000000Y-114310000D01*
X73000000Y-111250000D02*
X73000000Y-111625000D01*
X77810000Y-111250000D02*
X73000000Y-111250000D01*
X79000000Y-112190000D02*
X79000000Y-112162857D01*
%TO.N,TX/SENSE_IR*%
D36*
X77000000Y-121062500D02*
X77000000Y-121537500D01*
X62000000Y-121500000D02*
X62000000Y-125000000D01*
X68000000Y-121500000D02*
X62000000Y-121500000D01*
X59450000Y-125000000D02*
X59450000Y-127000000D01*
X62000000Y-125000000D02*
X59450000Y-125000000D01*
%TO.N,TX/BASE_IR*%
D30*
X73000000Y-118105000D02*
X73000000Y-116310000D01*
X73000000Y-118105000D02*
X73000000Y-119312500D01*
X70539999Y-119312500D02*
X70539999Y-121500000D01*
X73000000Y-119312500D02*
X70539999Y-119312500D01*
%TO.N,TX/DAC_RED*%
X98810000Y-109750000D02*
X98810000Y-109000000D01*
X96000000Y-109750000D02*
X98810000Y-109750000D01*
%TO.N,TX/SCL*%
X79000000Y-101500000D02*
X81000000Y-101500000D01*
X81000000Y-101500000D02*
X81000000Y-100080000D01*
X76000000Y-101500000D02*
X79000000Y-101500000D01*
X57000000Y-100080000D02*
X76000000Y-100080000D01*
X81000000Y-100080000D02*
X90000000Y-100080000D01*
X76000000Y-100080000D02*
X76000000Y-101500000D01*
%TO.N,TX/SDA*%
X81000000Y-103500000D02*
X81000000Y-102620000D01*
X76000000Y-102620000D02*
X76000000Y-103500000D01*
X81000000Y-102620000D02*
X90000000Y-102620000D01*
X79000000Y-103500000D02*
X81000000Y-103500000D01*
X76000000Y-103500000D02*
X79000000Y-103500000D01*
X57000000Y-102620000D02*
X76000000Y-102620000D01*
%TO.N,TX/3V3*%
D36*
X81000000Y-105500000D02*
X81000000Y-105160000D01*
X79000000Y-105500000D02*
X81000000Y-105500000D01*
X76000000Y-105160000D02*
X76000000Y-105500000D01*
X81000000Y-105160000D02*
X90000000Y-105160000D01*
X57000000Y-105160000D02*
X76000000Y-105160000D01*
X76000000Y-105500000D02*
X79000000Y-105500000D01*
%TO.N,TX/AMP_RED*%
D30*
X88810000Y-114339999D02*
X94000000Y-114339999D01*
X98810000Y-116285714D02*
X98810000Y-117000000D01*
X94000000Y-114339999D02*
X96000000Y-114339999D01*
X96000000Y-116285714D02*
X98810000Y-116285714D01*
X96000000Y-116054285D02*
X96000000Y-116285714D01*
X96000000Y-114339999D02*
X96000000Y-116054285D01*
X93000000Y-118875000D02*
X93000000Y-119462500D01*
X96000000Y-116285714D02*
X93000000Y-116285714D01*
X93000000Y-116285714D02*
X93000000Y-118875000D01*
%TO.N,TX/DAC_IR*%
X61810000Y-109750000D02*
X61810000Y-109000000D01*
X59000000Y-109750000D02*
X61810000Y-109750000D01*
%TO.N,TX/CMD_IR*%
X79000000Y-116517142D02*
X81190000Y-116517142D01*
X77000000Y-114571428D02*
X79000000Y-114571428D01*
X63810000Y-112857142D02*
X63810000Y-112000000D01*
X81190000Y-116517142D02*
X81190000Y-117270000D01*
X63810000Y-109750000D02*
X63810000Y-109000000D01*
X66620000Y-109750000D02*
X66620000Y-112857142D01*
X79000000Y-116285714D02*
X79000000Y-116517142D01*
X66620000Y-109750000D02*
X63810000Y-109750000D01*
X79000000Y-114571428D02*
X79000000Y-116285714D01*
X66620000Y-112857142D02*
X63810000Y-112857142D01*
X75000000Y-114571428D02*
X77000000Y-114571428D01*
X66620000Y-112857142D02*
X66620000Y-114571428D01*
%TD*%
%TA.AperFunction,Conductor*%
%TO.N,TX/GND*%
G36*
X119343039Y-91519685D02*
G01*
X119388794Y-91572489D01*
X119400000Y-91624000D01*
X119400000Y-129276000D01*
X119380315Y-129343039D01*
X119327511Y-129388794D01*
X119276000Y-129400000D01*
X50724000Y-129400000D01*
X50656961Y-129380315D01*
X50611206Y-129327511D01*
X50600000Y-129276000D01*
X50600000Y-125865186D01*
X51599500Y-125865186D01*
X51599500Y-126134813D01*
X51629686Y-126402719D01*
X51629688Y-126402731D01*
X51689684Y-126665594D01*
X51689687Y-126665602D01*
X51778734Y-126920082D01*
X51895714Y-127162994D01*
X51895716Y-127162997D01*
X52039162Y-127391289D01*
X52207266Y-127602085D01*
X52397915Y-127792734D01*
X52608711Y-127960838D01*
X52833696Y-128102206D01*
X52837005Y-128104285D01*
X52873130Y-128121682D01*
X53079921Y-128221267D01*
X53271049Y-128288145D01*
X53334397Y-128310312D01*
X53334405Y-128310315D01*
X53334408Y-128310315D01*
X53334409Y-128310316D01*
X53597268Y-128370312D01*
X53865187Y-128400499D01*
X53865188Y-128400500D01*
X53865191Y-128400500D01*
X54134812Y-128400500D01*
X54134812Y-128400499D01*
X54402732Y-128370312D01*
X54665591Y-128310316D01*
X54920079Y-128221267D01*
X55162997Y-128104284D01*
X55391289Y-127960838D01*
X55602085Y-127792734D01*
X55792734Y-127602085D01*
X55960838Y-127391289D01*
X56104284Y-127162997D01*
X56221267Y-126920079D01*
X56310316Y-126665591D01*
X56370312Y-126402732D01*
X56378293Y-126331903D01*
X56378294Y-126331898D01*
X58499500Y-126331898D01*
X58499500Y-127668102D01*
X58505126Y-127714954D01*
X58510122Y-127756561D01*
X58565639Y-127897343D01*
X58657077Y-128017922D01*
X58777656Y-128109360D01*
X58777657Y-128109360D01*
X58777658Y-128109361D01*
X58918436Y-128164877D01*
X59006898Y-128175500D01*
X59006903Y-128175500D01*
X59893097Y-128175500D01*
X59893102Y-128175500D01*
X59981564Y-128164877D01*
X60122342Y-128109361D01*
X60242922Y-128017922D01*
X60334361Y-127897342D01*
X60389877Y-127756564D01*
X60400500Y-127668102D01*
X60400500Y-127668053D01*
X61600000Y-127668053D01*
X61610613Y-127756443D01*
X61666079Y-127897095D01*
X61757435Y-128017564D01*
X61877904Y-128108920D01*
X62018556Y-128164386D01*
X62106946Y-128175000D01*
X62350000Y-128175000D01*
X62750000Y-128175000D01*
X62993054Y-128175000D01*
X63081443Y-128164386D01*
X63222095Y-128108920D01*
X63342564Y-128017564D01*
X63433920Y-127897095D01*
X63489386Y-127756443D01*
X63500000Y-127668053D01*
X63500000Y-127200000D01*
X62750000Y-127200000D01*
X62750000Y-128175000D01*
X62350000Y-128175000D01*
X62350000Y-127200000D01*
X61600000Y-127200000D01*
X61600000Y-127668053D01*
X60400500Y-127668053D01*
X60400500Y-126331898D01*
X60389877Y-126243436D01*
X60334361Y-126102658D01*
X60334360Y-126102657D01*
X60334360Y-126102656D01*
X60242922Y-125982077D01*
X60122341Y-125890638D01*
X60114948Y-125886481D01*
X60116568Y-125883599D01*
X60073830Y-125850311D01*
X60050669Y-125784392D01*
X60050500Y-125777913D01*
X60050500Y-125724500D01*
X60070185Y-125657461D01*
X60122989Y-125611706D01*
X60174500Y-125600500D01*
X61600230Y-125600500D01*
X61662369Y-125618746D01*
X61662819Y-125617905D01*
X61666859Y-125620064D01*
X61667269Y-125620185D01*
X61668087Y-125620721D01*
X61668190Y-125620776D01*
X61756757Y-125657461D01*
X61795672Y-125673580D01*
X61817570Y-125677935D01*
X61879481Y-125710319D01*
X61914057Y-125771034D01*
X61910319Y-125840803D01*
X61869454Y-125897476D01*
X61868307Y-125898356D01*
X61757437Y-125982432D01*
X61666079Y-126102904D01*
X61610613Y-126243556D01*
X61600000Y-126331946D01*
X61600000Y-126800000D01*
X62350000Y-126800000D01*
X62750000Y-126800000D01*
X63500000Y-126800000D01*
X63500000Y-126331946D01*
X63489385Y-126243555D01*
X63451327Y-126147043D01*
X63451326Y-126147042D01*
X63434798Y-126105131D01*
X71849500Y-126105131D01*
X71849500Y-127894856D01*
X71849502Y-127894882D01*
X71852413Y-127919987D01*
X71852415Y-127919991D01*
X71897793Y-128022764D01*
X71897794Y-128022765D01*
X71977235Y-128102206D01*
X72080009Y-128147585D01*
X72105135Y-128150500D01*
X73894864Y-128150499D01*
X73894879Y-128150497D01*
X73894882Y-128150497D01*
X73919987Y-128147586D01*
X73919988Y-128147585D01*
X73919991Y-128147585D01*
X74022765Y-128102206D01*
X74102206Y-128022765D01*
X74147585Y-127919991D01*
X74150500Y-127894865D01*
X74150499Y-127157125D01*
X74170183Y-127090089D01*
X74222987Y-127044334D01*
X74292146Y-127034390D01*
X74355702Y-127063415D01*
X74393476Y-127122193D01*
X74396972Y-127137729D01*
X74417829Y-127269410D01*
X74473787Y-127441636D01*
X74473788Y-127441639D01*
X74529664Y-127551300D01*
X74555869Y-127602730D01*
X74556006Y-127602997D01*
X74662441Y-127749494D01*
X74662445Y-127749499D01*
X74790500Y-127877554D01*
X74790505Y-127877558D01*
X74918287Y-127970396D01*
X74937006Y-127983996D01*
X75013094Y-128022765D01*
X75098360Y-128066211D01*
X75098363Y-128066212D01*
X75184476Y-128094191D01*
X75270591Y-128122171D01*
X75353429Y-128135291D01*
X75449449Y-128150500D01*
X75449454Y-128150500D01*
X75630551Y-128150500D01*
X75717259Y-128136765D01*
X75809409Y-128122171D01*
X75981639Y-128066211D01*
X76142994Y-127983996D01*
X76289501Y-127877553D01*
X76417553Y-127749501D01*
X76523996Y-127602994D01*
X76606211Y-127441639D01*
X76662171Y-127269409D01*
X76679025Y-127162997D01*
X76690500Y-127090551D01*
X76690500Y-126909448D01*
X76673164Y-126800000D01*
X76662171Y-126730591D01*
X76619708Y-126599901D01*
X76606212Y-126558363D01*
X76606211Y-126558360D01*
X76567193Y-126481784D01*
X76523996Y-126397006D01*
X76482950Y-126340511D01*
X76417558Y-126250505D01*
X76417554Y-126250500D01*
X76289499Y-126122445D01*
X76289494Y-126122441D01*
X76265669Y-126105131D01*
X82849500Y-126105131D01*
X82849500Y-127894856D01*
X82849502Y-127894882D01*
X82852413Y-127919987D01*
X82852415Y-127919991D01*
X82897793Y-128022764D01*
X82897794Y-128022765D01*
X82977235Y-128102206D01*
X83080009Y-128147585D01*
X83105135Y-128150500D01*
X84894864Y-128150499D01*
X84894879Y-128150497D01*
X84894882Y-128150497D01*
X84919987Y-128147586D01*
X84919988Y-128147585D01*
X84919991Y-128147585D01*
X85022765Y-128102206D01*
X85102206Y-128022765D01*
X85147585Y-127919991D01*
X85150500Y-127894865D01*
X85150499Y-127153925D01*
X85170183Y-127086888D01*
X85222987Y-127041133D01*
X85292146Y-127031189D01*
X85355702Y-127060214D01*
X85393476Y-127118992D01*
X85396972Y-127134529D01*
X85418317Y-127269293D01*
X85474251Y-127441444D01*
X85474252Y-127441447D01*
X85556434Y-127602734D01*
X85597667Y-127659487D01*
X85597668Y-127659487D01*
X86071980Y-127185176D01*
X86074075Y-127192993D01*
X86139901Y-127307007D01*
X86232993Y-127400099D01*
X86347007Y-127465925D01*
X86354822Y-127468019D01*
X85880510Y-127942330D01*
X85880511Y-127942331D01*
X85937265Y-127983565D01*
X86098552Y-128065747D01*
X86098555Y-128065748D01*
X86270706Y-128121682D01*
X86449494Y-128150000D01*
X86630506Y-128150000D01*
X86809293Y-128121682D01*
X86981444Y-128065748D01*
X86981447Y-128065747D01*
X87142730Y-127983568D01*
X87199487Y-127942330D01*
X87199488Y-127942329D01*
X86725178Y-127468019D01*
X86732993Y-127465925D01*
X86847007Y-127400099D01*
X86940099Y-127307007D01*
X87005925Y-127192993D01*
X87008019Y-127185177D01*
X87482329Y-127659488D01*
X87482330Y-127659487D01*
X87523568Y-127602730D01*
X87605747Y-127441447D01*
X87605748Y-127441444D01*
X87661682Y-127269293D01*
X87690000Y-127090506D01*
X87690000Y-126909493D01*
X87661682Y-126730706D01*
X87605748Y-126558555D01*
X87605747Y-126558552D01*
X87523565Y-126397265D01*
X87482331Y-126340511D01*
X87482330Y-126340510D01*
X87008018Y-126814821D01*
X87005925Y-126807007D01*
X86940099Y-126692993D01*
X86847007Y-126599901D01*
X86732993Y-126534075D01*
X86725176Y-126531980D01*
X87199487Y-126057668D01*
X87199487Y-126057667D01*
X87142734Y-126016434D01*
X86981447Y-125934252D01*
X86981444Y-125934251D01*
X86809293Y-125878317D01*
X86630506Y-125850000D01*
X86449494Y-125850000D01*
X86270706Y-125878317D01*
X86098555Y-125934251D01*
X86098552Y-125934252D01*
X85937270Y-126016431D01*
X85937268Y-126016432D01*
X85880511Y-126057667D01*
X85880511Y-126057668D01*
X86354823Y-126531980D01*
X86347007Y-126534075D01*
X86232993Y-126599901D01*
X86139901Y-126692993D01*
X86074075Y-126807007D01*
X86071980Y-126814823D01*
X85597668Y-126340511D01*
X85597667Y-126340511D01*
X85556432Y-126397268D01*
X85556431Y-126397270D01*
X85474252Y-126558552D01*
X85474251Y-126558555D01*
X85418317Y-126730706D01*
X85396972Y-126865471D01*
X85367043Y-126928606D01*
X85307731Y-126965537D01*
X85237868Y-126964539D01*
X85179636Y-126925929D01*
X85151522Y-126861965D01*
X85150499Y-126846073D01*
X85150499Y-126105143D01*
X85150499Y-126105136D01*
X85150497Y-126105117D01*
X85147586Y-126080012D01*
X85147585Y-126080010D01*
X85147585Y-126080009D01*
X85102206Y-125977235D01*
X85022765Y-125897794D01*
X85007557Y-125891079D01*
X84919992Y-125852415D01*
X84894865Y-125849500D01*
X83105143Y-125849500D01*
X83105117Y-125849502D01*
X83080012Y-125852413D01*
X83080008Y-125852415D01*
X82977235Y-125897793D01*
X82897794Y-125977234D01*
X82852415Y-126080006D01*
X82852415Y-126080008D01*
X82849500Y-126105131D01*
X76265669Y-126105131D01*
X76142997Y-126016006D01*
X76142996Y-126016005D01*
X76142994Y-126016004D01*
X76112397Y-126000414D01*
X76061601Y-125952439D01*
X76061304Y-125951928D01*
X76051522Y-125934985D01*
X76020519Y-125881284D01*
X75908715Y-125769480D01*
X75908713Y-125769479D01*
X75908708Y-125769475D01*
X75771789Y-125690426D01*
X75771785Y-125690424D01*
X75771783Y-125690423D01*
X75619056Y-125649500D01*
X75619055Y-125649500D01*
X75524500Y-125649500D01*
X75457461Y-125629815D01*
X75411706Y-125577011D01*
X75400500Y-125525500D01*
X75400500Y-121420945D01*
X75400500Y-121420943D01*
X75359577Y-121268216D01*
X75359573Y-121268209D01*
X75280524Y-121131290D01*
X75280518Y-121131282D01*
X75168717Y-121019481D01*
X75168709Y-121019475D01*
X75031790Y-120940426D01*
X75031786Y-120940424D01*
X75031784Y-120940423D01*
X74879057Y-120899500D01*
X74879056Y-120899500D01*
X74008465Y-120899500D01*
X73941426Y-120879815D01*
X73905364Y-120844392D01*
X73895979Y-120830347D01*
X73895974Y-120830341D01*
X73749657Y-120684024D01*
X73589834Y-120577235D01*
X73577598Y-120569059D01*
X73555498Y-120559905D01*
X73386420Y-120489870D01*
X73386412Y-120489868D01*
X73183469Y-120449500D01*
X73183465Y-120449500D01*
X72976535Y-120449500D01*
X72976530Y-120449500D01*
X72773587Y-120489868D01*
X72773579Y-120489870D01*
X72582403Y-120569058D01*
X72410342Y-120684024D01*
X72264024Y-120830342D01*
X72149058Y-121002403D01*
X72069870Y-121193579D01*
X72069868Y-121193587D01*
X72029500Y-121396530D01*
X72029500Y-121603469D01*
X72069868Y-121806412D01*
X72069870Y-121806420D01*
X72149058Y-121997596D01*
X72264024Y-122169657D01*
X72410342Y-122315975D01*
X72410345Y-122315977D01*
X72582402Y-122430941D01*
X72773580Y-122510130D01*
X72961875Y-122547584D01*
X72976530Y-122550499D01*
X72976534Y-122550500D01*
X72976535Y-122550500D01*
X73183466Y-122550500D01*
X73183467Y-122550499D01*
X73386420Y-122510130D01*
X73577598Y-122430941D01*
X73749655Y-122315977D01*
X73895977Y-122169655D01*
X73896018Y-122169592D01*
X73905364Y-122155608D01*
X73958977Y-122110803D01*
X74008465Y-122100500D01*
X74075500Y-122100500D01*
X74142539Y-122120185D01*
X74188294Y-122172989D01*
X74199500Y-122224500D01*
X74199500Y-125785529D01*
X74179815Y-125852568D01*
X74127011Y-125898323D01*
X74057853Y-125908267D01*
X74025414Y-125898963D01*
X73919996Y-125852416D01*
X73919991Y-125852415D01*
X73894865Y-125849500D01*
X72105143Y-125849500D01*
X72105117Y-125849502D01*
X72080012Y-125852413D01*
X72080008Y-125852415D01*
X71977235Y-125897793D01*
X71897794Y-125977234D01*
X71852415Y-126080006D01*
X71852415Y-126080008D01*
X71849500Y-126105131D01*
X63434798Y-126105131D01*
X63433921Y-126102906D01*
X63342564Y-125982435D01*
X63222095Y-125891079D01*
X63081443Y-125835613D01*
X62993054Y-125825000D01*
X62750000Y-125825000D01*
X62750000Y-126800000D01*
X62350000Y-126800000D01*
X62350000Y-125825000D01*
X62327130Y-125802130D01*
X62293645Y-125740807D01*
X62298629Y-125671115D01*
X62340501Y-125615182D01*
X62345896Y-125611363D01*
X62446542Y-125544114D01*
X62544114Y-125446542D01*
X62620775Y-125331811D01*
X62673580Y-125204328D01*
X62690201Y-125120771D01*
X62700500Y-125068995D01*
X62700500Y-124931004D01*
X62673581Y-124795677D01*
X62673580Y-124795676D01*
X62673580Y-124795672D01*
X62669358Y-124785480D01*
X62620776Y-124668190D01*
X62617905Y-124662819D01*
X62619205Y-124662123D01*
X62600520Y-124602438D01*
X62600500Y-124600230D01*
X62600500Y-122224500D01*
X62620185Y-122157461D01*
X62672989Y-122111706D01*
X62724500Y-122100500D01*
X66825501Y-122100500D01*
X66892540Y-122120185D01*
X66938295Y-122172989D01*
X66949501Y-122224500D01*
X66949501Y-122294856D01*
X66949502Y-122294882D01*
X66952413Y-122319987D01*
X66952415Y-122319991D01*
X66997793Y-122422764D01*
X66997794Y-122422765D01*
X67077235Y-122502206D01*
X67180009Y-122547585D01*
X67205135Y-122550500D01*
X68794864Y-122550499D01*
X68794879Y-122550497D01*
X68794882Y-122550497D01*
X68819987Y-122547586D01*
X68819988Y-122547585D01*
X68819991Y-122547585D01*
X68922765Y-122502206D01*
X69002206Y-122422765D01*
X69047585Y-122319991D01*
X69050500Y-122294865D01*
X69050499Y-121396530D01*
X69489500Y-121396530D01*
X69489500Y-121603469D01*
X69529868Y-121806412D01*
X69529870Y-121806420D01*
X69609058Y-121997596D01*
X69724024Y-122169657D01*
X69870342Y-122315975D01*
X69870345Y-122315977D01*
X70042402Y-122430941D01*
X70233580Y-122510130D01*
X70421875Y-122547584D01*
X70436530Y-122550499D01*
X70436534Y-122550500D01*
X70436535Y-122550500D01*
X70643466Y-122550500D01*
X70643467Y-122550499D01*
X70846420Y-122510130D01*
X71037598Y-122430941D01*
X71209655Y-122315977D01*
X71355977Y-122169655D01*
X71470941Y-121997598D01*
X71550130Y-121806420D01*
X71590500Y-121603465D01*
X71590500Y-121396535D01*
X71550130Y-121193580D01*
X71470941Y-121002402D01*
X71355977Y-120830345D01*
X71355975Y-120830342D01*
X71209658Y-120684025D01*
X71209654Y-120684022D01*
X71070608Y-120591114D01*
X71025803Y-120537502D01*
X71015499Y-120488012D01*
X71015499Y-119912000D01*
X71035184Y-119844961D01*
X71087988Y-119799206D01*
X71139499Y-119788000D01*
X73062599Y-119788000D01*
X73062601Y-119788000D01*
X73183536Y-119755595D01*
X73291964Y-119692995D01*
X73380495Y-119604464D01*
X73443095Y-119496036D01*
X73475500Y-119375101D01*
X73475500Y-119081898D01*
X75974500Y-119081898D01*
X75974500Y-119843102D01*
X75976849Y-119862661D01*
X75985122Y-119931561D01*
X76040639Y-120072343D01*
X76132077Y-120192922D01*
X76252656Y-120284360D01*
X76252657Y-120284360D01*
X76252658Y-120284361D01*
X76393436Y-120339877D01*
X76442393Y-120345756D01*
X76506606Y-120373291D01*
X76545740Y-120431173D01*
X76547368Y-120501024D01*
X76515292Y-120556551D01*
X76455880Y-120615964D01*
X76452384Y-120620224D01*
X76400248Y-120655728D01*
X76400832Y-120657207D01*
X76393438Y-120660122D01*
X76393436Y-120660123D01*
X76343009Y-120680009D01*
X76252656Y-120715639D01*
X76132077Y-120807077D01*
X76040639Y-120927656D01*
X75985122Y-121068438D01*
X75979188Y-121117853D01*
X75974500Y-121156898D01*
X75974500Y-121918102D01*
X75980126Y-121964954D01*
X75985122Y-122006561D01*
X76040639Y-122147343D01*
X76132077Y-122267922D01*
X76252656Y-122359360D01*
X76252657Y-122359360D01*
X76252658Y-122359361D01*
X76393436Y-122414877D01*
X76481898Y-122425500D01*
X76481903Y-122425500D01*
X77518097Y-122425500D01*
X77518102Y-122425500D01*
X77606564Y-122414877D01*
X77747342Y-122359361D01*
X77867922Y-122267922D01*
X77959361Y-122147342D01*
X78014877Y-122006564D01*
X78025500Y-121918102D01*
X78025500Y-121156898D01*
X78014877Y-121068436D01*
X77959361Y-120927658D01*
X77959360Y-120927657D01*
X77959360Y-120927656D01*
X77867922Y-120807077D01*
X77816496Y-120768080D01*
X77747343Y-120715639D01*
X77667172Y-120684024D01*
X77606564Y-120660123D01*
X77606561Y-120660122D01*
X77599168Y-120657207D01*
X77600334Y-120654249D01*
X77552905Y-120626260D01*
X77547598Y-120620205D01*
X77544117Y-120615963D01*
X77544114Y-120615958D01*
X77544109Y-120615953D01*
X77544105Y-120615948D01*
X77484709Y-120556552D01*
X77451224Y-120495229D01*
X77456208Y-120425537D01*
X77498080Y-120369604D01*
X77557604Y-120345756D01*
X77606564Y-120339877D01*
X77747342Y-120284361D01*
X77867922Y-120192922D01*
X77959361Y-120072342D01*
X78014877Y-119931564D01*
X78025500Y-119843102D01*
X78025500Y-119723428D01*
X80090000Y-119723428D01*
X80090000Y-119896571D01*
X80117085Y-120067584D01*
X80170591Y-120232257D01*
X80249195Y-120386523D01*
X80249196Y-120386525D01*
X80283463Y-120433691D01*
X80283464Y-120433691D01*
X80803629Y-119913527D01*
X80817259Y-119964394D01*
X80869920Y-120055606D01*
X80944394Y-120130080D01*
X81035606Y-120182741D01*
X81086471Y-120196370D01*
X80566307Y-120716534D01*
X80613478Y-120750805D01*
X80767742Y-120829408D01*
X80932415Y-120882914D01*
X81103429Y-120910000D01*
X81276571Y-120910000D01*
X81447584Y-120882914D01*
X81612257Y-120829408D01*
X81766525Y-120750803D01*
X81813691Y-120716534D01*
X81813692Y-120716533D01*
X81293529Y-120196370D01*
X81344394Y-120182741D01*
X81435606Y-120130080D01*
X81510080Y-120055606D01*
X81562741Y-119964394D01*
X81576370Y-119913528D01*
X82096533Y-120433692D01*
X82096534Y-120433691D01*
X82130803Y-120386525D01*
X82209408Y-120232257D01*
X82262914Y-120067584D01*
X82290000Y-119896571D01*
X82290000Y-119723428D01*
X82289994Y-119723389D01*
X87709500Y-119723389D01*
X87709500Y-119896611D01*
X87736598Y-120067701D01*
X87756866Y-120130080D01*
X87790128Y-120232447D01*
X87856138Y-120362000D01*
X87868768Y-120386788D01*
X87970586Y-120526928D01*
X88093072Y-120649414D01*
X88233212Y-120751232D01*
X88387555Y-120829873D01*
X88552299Y-120883402D01*
X88723389Y-120910500D01*
X88723390Y-120910500D01*
X88896610Y-120910500D01*
X88896611Y-120910500D01*
X89067701Y-120883402D01*
X89232445Y-120829873D01*
X89386788Y-120751232D01*
X89526928Y-120649414D01*
X89649414Y-120526928D01*
X89751232Y-120386788D01*
X89829873Y-120232445D01*
X89883402Y-120067701D01*
X89910500Y-119896611D01*
X89910500Y-119723389D01*
X89883402Y-119552299D01*
X89829873Y-119387555D01*
X89751232Y-119233212D01*
X89649414Y-119093072D01*
X89526928Y-118970586D01*
X89386788Y-118868768D01*
X89232445Y-118790127D01*
X89067701Y-118736598D01*
X89067699Y-118736597D01*
X89067698Y-118736597D01*
X88918709Y-118713000D01*
X88896611Y-118709500D01*
X88723389Y-118709500D01*
X88701291Y-118713000D01*
X88552302Y-118736597D01*
X88387552Y-118790128D01*
X88233211Y-118868768D01*
X88185457Y-118903464D01*
X88093072Y-118970586D01*
X88093070Y-118970588D01*
X88093069Y-118970588D01*
X87970588Y-119093069D01*
X87970588Y-119093070D01*
X87970586Y-119093072D01*
X87944510Y-119128963D01*
X87868768Y-119233211D01*
X87790128Y-119387552D01*
X87736597Y-119552302D01*
X87720236Y-119655606D01*
X87709500Y-119723389D01*
X82289994Y-119723389D01*
X82262914Y-119552415D01*
X82209408Y-119387742D01*
X82130805Y-119233478D01*
X82096534Y-119186307D01*
X81576370Y-119706471D01*
X81562741Y-119655606D01*
X81510080Y-119564394D01*
X81435606Y-119489920D01*
X81344394Y-119437259D01*
X81293527Y-119423629D01*
X81813691Y-118903464D01*
X81813691Y-118903463D01*
X81766525Y-118869196D01*
X81766523Y-118869195D01*
X81612257Y-118790591D01*
X81447584Y-118737085D01*
X81276571Y-118710000D01*
X81103429Y-118710000D01*
X80932415Y-118737085D01*
X80767740Y-118790592D01*
X80613475Y-118869196D01*
X80566307Y-118903463D01*
X80566307Y-118903464D01*
X81086472Y-119423629D01*
X81035606Y-119437259D01*
X80944394Y-119489920D01*
X80869920Y-119564394D01*
X80817259Y-119655606D01*
X80803629Y-119706472D01*
X80283464Y-119186307D01*
X80283463Y-119186307D01*
X80249196Y-119233475D01*
X80170592Y-119387740D01*
X80117085Y-119552415D01*
X80090000Y-119723428D01*
X78025500Y-119723428D01*
X78025500Y-119081898D01*
X78014877Y-118993436D01*
X78014876Y-118993434D01*
X78014876Y-118993432D01*
X77959362Y-118852660D01*
X77959361Y-118852658D01*
X77867922Y-118732077D01*
X77747342Y-118640638D01*
X77707388Y-118624883D01*
X77693249Y-118619307D01*
X77638105Y-118576402D01*
X77624176Y-118551400D01*
X77620777Y-118543193D01*
X77620771Y-118543182D01*
X77544114Y-118428458D01*
X77544111Y-118428454D01*
X77446545Y-118330888D01*
X77446541Y-118330885D01*
X77331817Y-118254228D01*
X77331804Y-118254221D01*
X77204332Y-118201421D01*
X77204322Y-118201418D01*
X77068995Y-118174500D01*
X77068993Y-118174500D01*
X76931007Y-118174500D01*
X76931005Y-118174500D01*
X76795677Y-118201418D01*
X76795667Y-118201421D01*
X76668195Y-118254221D01*
X76668182Y-118254228D01*
X76553458Y-118330885D01*
X76553454Y-118330888D01*
X76455888Y-118428454D01*
X76455882Y-118428462D01*
X76379226Y-118543186D01*
X76379225Y-118543187D01*
X76375818Y-118551413D01*
X76331972Y-118605813D01*
X76306752Y-118619306D01*
X76252657Y-118640638D01*
X76132077Y-118732077D01*
X76040639Y-118852656D01*
X75985122Y-118993438D01*
X75979188Y-119042853D01*
X75974500Y-119081898D01*
X73475500Y-119081898D01*
X73475500Y-118042399D01*
X73475500Y-117322614D01*
X73495185Y-117255575D01*
X73547989Y-117209820D01*
X73574023Y-117202504D01*
X73573852Y-117201827D01*
X73581556Y-117199879D01*
X73581559Y-117199877D01*
X73581564Y-117199877D01*
X73722342Y-117144361D01*
X73842922Y-117052922D01*
X73934361Y-116932342D01*
X73989877Y-116791564D01*
X74000500Y-116703102D01*
X74000500Y-115916898D01*
X73989877Y-115828436D01*
X73934361Y-115687658D01*
X73934360Y-115687657D01*
X73934360Y-115687656D01*
X73842922Y-115567077D01*
X73722343Y-115475639D01*
X73649541Y-115446930D01*
X73594826Y-115425353D01*
X73539685Y-115382449D01*
X73516492Y-115316541D01*
X73532612Y-115248557D01*
X73582929Y-115200080D01*
X73594814Y-115194651D01*
X73722342Y-115144361D01*
X73842922Y-115052922D01*
X73934361Y-114932342D01*
X73989877Y-114791564D01*
X74000500Y-114703102D01*
X74000500Y-114640423D01*
X74299499Y-114640423D01*
X74326418Y-114775750D01*
X74326421Y-114775760D01*
X74379221Y-114903232D01*
X74379228Y-114903245D01*
X74455885Y-115017969D01*
X74455888Y-115017973D01*
X74553454Y-115115539D01*
X74553458Y-115115542D01*
X74668182Y-115192199D01*
X74668195Y-115192206D01*
X74777669Y-115237551D01*
X74795672Y-115245008D01*
X74795676Y-115245008D01*
X74795677Y-115245009D01*
X74931004Y-115271928D01*
X74931007Y-115271928D01*
X75068995Y-115271928D01*
X75186486Y-115248557D01*
X75204328Y-115245008D01*
X75313284Y-115199877D01*
X75331804Y-115192206D01*
X75331804Y-115192205D01*
X75331811Y-115192203D01*
X75446542Y-115115542D01*
X75478836Y-115083248D01*
X75540158Y-115049762D01*
X75566518Y-115046928D01*
X76937399Y-115046928D01*
X78400500Y-115046928D01*
X78467539Y-115066613D01*
X78513294Y-115119417D01*
X78524500Y-115170928D01*
X78524500Y-116223113D01*
X78524500Y-116454541D01*
X78524500Y-116579743D01*
X78556905Y-116700678D01*
X78619505Y-116809106D01*
X78708036Y-116897637D01*
X78816464Y-116960237D01*
X78937399Y-116992642D01*
X79974526Y-116992642D01*
X80041565Y-117012327D01*
X80087320Y-117065131D01*
X80097264Y-117134289D01*
X80097009Y-117135973D01*
X80089500Y-117183389D01*
X80089500Y-117183394D01*
X80089500Y-117356610D01*
X80114822Y-117516492D01*
X80116598Y-117527701D01*
X80170127Y-117692445D01*
X80248768Y-117846788D01*
X80350586Y-117986928D01*
X80473072Y-118109414D01*
X80613212Y-118211232D01*
X80767555Y-118289873D01*
X80932299Y-118343402D01*
X81103389Y-118370500D01*
X81103390Y-118370500D01*
X81276610Y-118370500D01*
X81276611Y-118370500D01*
X81447701Y-118343402D01*
X81612445Y-118289873D01*
X81766788Y-118211232D01*
X81906928Y-118109414D01*
X82029414Y-117986928D01*
X82131232Y-117846788D01*
X82209873Y-117692445D01*
X82263402Y-117527701D01*
X82290500Y-117356611D01*
X82290500Y-117183389D01*
X82263402Y-117012299D01*
X82209873Y-116847555D01*
X82131232Y-116693212D01*
X82029414Y-116553072D01*
X81906928Y-116430586D01*
X81766788Y-116328768D01*
X81612445Y-116250127D01*
X81607945Y-116248263D01*
X81608535Y-116246836D01*
X81566211Y-116220894D01*
X81481962Y-116136645D01*
X81373536Y-116074047D01*
X81373531Y-116074045D01*
X81329762Y-116062317D01*
X81270102Y-116025952D01*
X81239574Y-115963104D01*
X81247869Y-115893729D01*
X81292355Y-115839852D01*
X81342457Y-115820070D01*
X81447701Y-115803402D01*
X81612445Y-115749873D01*
X81766788Y-115671232D01*
X81906928Y-115569414D01*
X82029414Y-115446928D01*
X82131232Y-115306788D01*
X82209873Y-115152445D01*
X82263402Y-114987701D01*
X82290500Y-114816611D01*
X82290500Y-114643389D01*
X87709500Y-114643389D01*
X87709500Y-114816610D01*
X87728963Y-114939499D01*
X87736598Y-114987701D01*
X87790127Y-115152445D01*
X87868768Y-115306788D01*
X87970586Y-115446928D01*
X88093072Y-115569414D01*
X88233212Y-115671232D01*
X88387555Y-115749873D01*
X88552299Y-115803402D01*
X88723389Y-115830500D01*
X88723390Y-115830500D01*
X88896610Y-115830500D01*
X88896611Y-115830500D01*
X89067701Y-115803402D01*
X89232445Y-115749873D01*
X89386788Y-115671232D01*
X89526928Y-115569414D01*
X89649414Y-115446928D01*
X89751232Y-115306788D01*
X89829873Y-115152445D01*
X89883402Y-114987701D01*
X89894109Y-114920101D01*
X89924038Y-114856966D01*
X89983350Y-114820035D01*
X90016582Y-114815499D01*
X93937399Y-114815499D01*
X95400500Y-114815499D01*
X95467539Y-114835184D01*
X95513294Y-114887988D01*
X95524500Y-114939499D01*
X95524500Y-115686214D01*
X95504815Y-115753253D01*
X95452011Y-115799008D01*
X95400500Y-115810214D01*
X93062601Y-115810214D01*
X92937399Y-115810214D01*
X92861692Y-115830500D01*
X92816463Y-115842619D01*
X92708037Y-115905218D01*
X92708034Y-115905220D01*
X92619506Y-115993748D01*
X92619504Y-115993751D01*
X92556905Y-116102177D01*
X92524500Y-116223114D01*
X92524500Y-118459383D01*
X92504815Y-118526422D01*
X92452011Y-118572177D01*
X92415286Y-118582498D01*
X92393441Y-118585121D01*
X92252656Y-118640639D01*
X92132077Y-118732077D01*
X92040639Y-118852656D01*
X91985122Y-118993438D01*
X91979188Y-119042853D01*
X91974500Y-119081898D01*
X91974500Y-119843102D01*
X91976849Y-119862661D01*
X91985122Y-119931561D01*
X92040639Y-120072343D01*
X92132077Y-120192922D01*
X92252656Y-120284360D01*
X92252657Y-120284360D01*
X92252658Y-120284361D01*
X92393436Y-120339877D01*
X92442393Y-120345756D01*
X92506606Y-120373291D01*
X92545740Y-120431173D01*
X92547368Y-120501024D01*
X92515292Y-120556551D01*
X92455880Y-120615964D01*
X92452384Y-120620224D01*
X92400248Y-120655728D01*
X92400832Y-120657207D01*
X92393438Y-120660122D01*
X92393436Y-120660123D01*
X92343009Y-120680009D01*
X92252656Y-120715639D01*
X92132077Y-120807077D01*
X92040639Y-120927656D01*
X91985122Y-121068438D01*
X91979188Y-121117853D01*
X91974500Y-121156898D01*
X91974500Y-121918102D01*
X91980126Y-121964954D01*
X91985122Y-122006561D01*
X92040639Y-122147343D01*
X92132077Y-122267922D01*
X92252656Y-122359360D01*
X92252657Y-122359360D01*
X92252658Y-122359361D01*
X92393436Y-122414877D01*
X92481898Y-122425500D01*
X92481903Y-122425500D01*
X93518097Y-122425500D01*
X93518102Y-122425500D01*
X93606564Y-122414877D01*
X93747342Y-122359361D01*
X93867922Y-122267922D01*
X93959361Y-122147342D01*
X94014877Y-122006564D01*
X94025500Y-121918102D01*
X94025500Y-121156898D01*
X94014877Y-121068436D01*
X93959361Y-120927658D01*
X93959360Y-120927657D01*
X93959360Y-120927656D01*
X93867922Y-120807077D01*
X93747343Y-120715639D01*
X93667172Y-120684024D01*
X93606564Y-120660123D01*
X93606561Y-120660122D01*
X93599168Y-120657207D01*
X93600334Y-120654249D01*
X93552905Y-120626260D01*
X93547598Y-120620205D01*
X93544117Y-120615963D01*
X93544114Y-120615958D01*
X93544109Y-120615953D01*
X93544105Y-120615948D01*
X93484709Y-120556552D01*
X93451224Y-120495229D01*
X93456208Y-120425537D01*
X93498080Y-120369604D01*
X93557604Y-120345756D01*
X93606564Y-120339877D01*
X93747342Y-120284361D01*
X93867922Y-120192922D01*
X93959361Y-120072342D01*
X94014877Y-119931564D01*
X94025500Y-119843102D01*
X94025500Y-119081898D01*
X94014877Y-118993436D01*
X93959361Y-118852658D01*
X93959360Y-118852657D01*
X93959360Y-118852656D01*
X93867922Y-118732077D01*
X93747343Y-118640639D01*
X93659030Y-118605813D01*
X93606564Y-118585123D01*
X93606562Y-118585122D01*
X93606558Y-118585121D01*
X93584714Y-118582498D01*
X93520500Y-118554960D01*
X93481368Y-118497077D01*
X93475500Y-118459383D01*
X93475500Y-116885214D01*
X93495185Y-116818175D01*
X93547989Y-116772420D01*
X93599500Y-116761214D01*
X95937399Y-116761214D01*
X96062601Y-116761214D01*
X97785500Y-116761214D01*
X97852539Y-116780899D01*
X97898294Y-116833703D01*
X97909500Y-116885214D01*
X97909500Y-117493102D01*
X97913655Y-117527701D01*
X97920122Y-117581561D01*
X97975639Y-117722343D01*
X98067077Y-117842922D01*
X98187656Y-117934360D01*
X98187657Y-117934360D01*
X98187658Y-117934361D01*
X98328436Y-117989877D01*
X98416898Y-118000500D01*
X98416903Y-118000500D01*
X99203097Y-118000500D01*
X99203102Y-118000500D01*
X99291564Y-117989877D01*
X99432342Y-117934361D01*
X99552922Y-117842922D01*
X99644361Y-117722342D01*
X99694646Y-117594826D01*
X99737551Y-117539685D01*
X99803459Y-117516492D01*
X99871443Y-117532612D01*
X99919920Y-117582929D01*
X99925348Y-117594814D01*
X99960652Y-117684339D01*
X99975639Y-117722343D01*
X100067077Y-117842922D01*
X100187656Y-117934360D01*
X100187657Y-117934360D01*
X100187658Y-117934361D01*
X100328436Y-117989877D01*
X100416898Y-118000500D01*
X100416903Y-118000500D01*
X101203097Y-118000500D01*
X101203102Y-118000500D01*
X101291564Y-117989877D01*
X101432342Y-117934361D01*
X101552922Y-117842922D01*
X101644361Y-117722342D01*
X101699877Y-117581564D01*
X101710500Y-117493102D01*
X101710500Y-116885214D01*
X101730185Y-116818175D01*
X101782989Y-116772420D01*
X101834500Y-116761214D01*
X103020500Y-116761214D01*
X103087539Y-116780899D01*
X103133294Y-116833703D01*
X103144500Y-116885214D01*
X103144500Y-118713000D01*
X103124815Y-118780039D01*
X103072011Y-118825794D01*
X103020500Y-118837000D01*
X99602601Y-118837000D01*
X99477399Y-118837000D01*
X99396775Y-118858603D01*
X99356463Y-118869405D01*
X99248037Y-118932004D01*
X99248034Y-118932006D01*
X99159506Y-119020534D01*
X99159504Y-119020537D01*
X99096905Y-119128963D01*
X99096905Y-119128964D01*
X99068972Y-119233212D01*
X99064500Y-119249900D01*
X99064500Y-120488014D01*
X99044815Y-120555053D01*
X99009390Y-120591117D01*
X98870342Y-120684024D01*
X98724024Y-120830342D01*
X98609056Y-121002405D01*
X98604676Y-121012980D01*
X98560832Y-121067380D01*
X98494536Y-121089441D01*
X98426838Y-121072158D01*
X98402437Y-121053201D01*
X98368717Y-121019481D01*
X98368709Y-121019475D01*
X98231790Y-120940426D01*
X98231785Y-120940423D01*
X98142405Y-120916474D01*
X98082745Y-120880108D01*
X98052216Y-120817261D01*
X98050499Y-120796699D01*
X98050499Y-120705143D01*
X98050499Y-120705136D01*
X98048051Y-120684023D01*
X98047586Y-120680012D01*
X98047585Y-120680010D01*
X98047585Y-120680009D01*
X98002206Y-120577235D01*
X97922765Y-120497794D01*
X97904814Y-120489868D01*
X97819992Y-120452415D01*
X97794865Y-120449500D01*
X96205143Y-120449500D01*
X96205117Y-120449502D01*
X96180012Y-120452413D01*
X96180008Y-120452415D01*
X96077235Y-120497793D01*
X95997794Y-120577234D01*
X95952415Y-120680006D01*
X95952415Y-120680008D01*
X95949500Y-120705131D01*
X95949500Y-122294856D01*
X95949502Y-122294882D01*
X95952413Y-122319987D01*
X95952415Y-122319991D01*
X95997793Y-122422764D01*
X95997794Y-122422765D01*
X96077235Y-122502206D01*
X96180009Y-122547585D01*
X96205135Y-122550500D01*
X97275500Y-122550499D01*
X97342539Y-122570183D01*
X97388294Y-122622987D01*
X97399500Y-122674499D01*
X97399500Y-124400500D01*
X97379815Y-124467539D01*
X97327011Y-124513294D01*
X97275500Y-124524500D01*
X91399500Y-124524500D01*
X91332461Y-124504815D01*
X91286706Y-124452011D01*
X91275500Y-124400500D01*
X91275500Y-116454542D01*
X91275500Y-116454541D01*
X91243095Y-116333606D01*
X91180495Y-116225178D01*
X91091964Y-116136647D01*
X90983536Y-116074047D01*
X90983537Y-116074047D01*
X90939760Y-116062317D01*
X90862601Y-116041642D01*
X90737399Y-116041642D01*
X90660240Y-116062317D01*
X90616463Y-116074047D01*
X90508037Y-116136646D01*
X90508034Y-116136648D01*
X90419506Y-116225176D01*
X90419504Y-116225179D01*
X90356905Y-116333605D01*
X90356905Y-116333606D01*
X90334175Y-116418436D01*
X90324500Y-116454542D01*
X90324500Y-116670500D01*
X90304815Y-116737539D01*
X90252011Y-116783294D01*
X90200500Y-116794500D01*
X89878827Y-116794500D01*
X89811788Y-116774815D01*
X89768343Y-116726795D01*
X89751232Y-116693212D01*
X89751230Y-116693209D01*
X89751229Y-116693207D01*
X89721672Y-116652526D01*
X89649414Y-116553072D01*
X89526928Y-116430586D01*
X89386788Y-116328768D01*
X89232445Y-116250127D01*
X89067701Y-116196598D01*
X89067699Y-116196597D01*
X89067698Y-116196597D01*
X88936271Y-116175781D01*
X88896611Y-116169500D01*
X88723389Y-116169500D01*
X88683728Y-116175781D01*
X88552302Y-116196597D01*
X88387552Y-116250128D01*
X88233211Y-116328768D01*
X88176030Y-116370313D01*
X88093072Y-116430586D01*
X88093070Y-116430588D01*
X88093069Y-116430588D01*
X87970588Y-116553069D01*
X87970588Y-116553070D01*
X87970586Y-116553072D01*
X87926859Y-116613256D01*
X87868768Y-116693211D01*
X87790128Y-116847552D01*
X87736597Y-117012302D01*
X87709500Y-117183389D01*
X87709500Y-117356610D01*
X87734822Y-117516492D01*
X87736598Y-117527701D01*
X87790127Y-117692445D01*
X87868768Y-117846788D01*
X87970586Y-117986928D01*
X88093072Y-118109414D01*
X88233212Y-118211232D01*
X88387555Y-118289873D01*
X88552299Y-118343402D01*
X88723389Y-118370500D01*
X88723390Y-118370500D01*
X88896610Y-118370500D01*
X88896611Y-118370500D01*
X89067701Y-118343402D01*
X89232445Y-118289873D01*
X89386788Y-118211232D01*
X89526928Y-118109414D01*
X89649414Y-117986928D01*
X89751232Y-117846788D01*
X89768343Y-117813204D01*
X89816315Y-117762410D01*
X89878827Y-117745500D01*
X90200500Y-117745500D01*
X90267539Y-117765185D01*
X90313294Y-117817989D01*
X90324500Y-117869500D01*
X90324500Y-125062601D01*
X90356905Y-125183536D01*
X90419505Y-125291964D01*
X90508036Y-125380495D01*
X90616464Y-125443095D01*
X90737399Y-125475500D01*
X90862601Y-125475500D01*
X97433482Y-125475500D01*
X97500521Y-125495185D01*
X97521164Y-125511820D01*
X97553454Y-125544111D01*
X97553458Y-125544114D01*
X97668182Y-125620771D01*
X97668195Y-125620778D01*
X97756757Y-125657461D01*
X97795672Y-125673580D01*
X97795676Y-125673580D01*
X97795677Y-125673581D01*
X97931004Y-125700500D01*
X98039718Y-125700500D01*
X98106757Y-125720185D01*
X98152512Y-125772989D01*
X98162456Y-125842147D01*
X98133431Y-125905703D01*
X98096013Y-125934985D01*
X97937002Y-126016006D01*
X97790505Y-126122441D01*
X97790500Y-126122445D01*
X97662445Y-126250500D01*
X97662441Y-126250505D01*
X97556006Y-126397002D01*
X97473788Y-126558360D01*
X97473787Y-126558363D01*
X97417829Y-126730589D01*
X97396972Y-126862271D01*
X97367042Y-126925405D01*
X97307731Y-126962336D01*
X97237868Y-126961338D01*
X97179636Y-126922728D01*
X97151522Y-126858764D01*
X97150499Y-126842872D01*
X97150499Y-126105143D01*
X97150499Y-126105136D01*
X97150497Y-126105117D01*
X97147586Y-126080012D01*
X97147585Y-126080010D01*
X97147585Y-126080009D01*
X97102206Y-125977235D01*
X97022765Y-125897794D01*
X97007557Y-125891079D01*
X96919992Y-125852415D01*
X96894865Y-125849500D01*
X95105143Y-125849500D01*
X95105117Y-125849502D01*
X95080012Y-125852413D01*
X95080008Y-125852415D01*
X94977235Y-125897793D01*
X94897794Y-125977234D01*
X94852415Y-126080006D01*
X94852415Y-126080008D01*
X94849500Y-126105131D01*
X94849500Y-127894856D01*
X94849502Y-127894882D01*
X94852413Y-127919987D01*
X94852415Y-127919991D01*
X94897793Y-128022764D01*
X94897794Y-128022765D01*
X94977235Y-128102206D01*
X95080009Y-128147585D01*
X95105135Y-128150500D01*
X96894864Y-128150499D01*
X96894879Y-128150497D01*
X96894882Y-128150497D01*
X96919987Y-128147586D01*
X96919988Y-128147585D01*
X96919991Y-128147585D01*
X97022765Y-128102206D01*
X97102206Y-128022765D01*
X97147585Y-127919991D01*
X97150500Y-127894865D01*
X97150499Y-127157125D01*
X97170183Y-127090089D01*
X97222987Y-127044334D01*
X97292146Y-127034390D01*
X97355702Y-127063415D01*
X97393476Y-127122193D01*
X97396972Y-127137729D01*
X97417829Y-127269410D01*
X97473787Y-127441636D01*
X97473788Y-127441639D01*
X97529664Y-127551300D01*
X97555869Y-127602730D01*
X97556006Y-127602997D01*
X97662441Y-127749494D01*
X97662445Y-127749499D01*
X97790500Y-127877554D01*
X97790505Y-127877558D01*
X97918287Y-127970396D01*
X97937006Y-127983996D01*
X98013094Y-128022765D01*
X98098360Y-128066211D01*
X98098363Y-128066212D01*
X98184476Y-128094191D01*
X98270591Y-128122171D01*
X98353429Y-128135291D01*
X98449449Y-128150500D01*
X98449454Y-128150500D01*
X98630551Y-128150500D01*
X98717259Y-128136765D01*
X98809409Y-128122171D01*
X98981639Y-128066211D01*
X99142994Y-127983996D01*
X99289501Y-127877553D01*
X99417553Y-127749501D01*
X99523996Y-127602994D01*
X99606211Y-127441639D01*
X99662171Y-127269409D01*
X99672356Y-127205101D01*
X99702285Y-127141968D01*
X99761596Y-127105036D01*
X99794829Y-127100500D01*
X108079055Y-127100500D01*
X108079057Y-127100500D01*
X108231784Y-127059577D01*
X108368716Y-126980520D01*
X108480520Y-126868716D01*
X108559577Y-126731784D01*
X108600500Y-126579057D01*
X108600500Y-125865186D01*
X113599500Y-125865186D01*
X113599500Y-126134813D01*
X113629686Y-126402719D01*
X113629688Y-126402731D01*
X113689684Y-126665594D01*
X113689687Y-126665602D01*
X113778734Y-126920082D01*
X113895714Y-127162994D01*
X113895716Y-127162997D01*
X114039162Y-127391289D01*
X114207266Y-127602085D01*
X114397915Y-127792734D01*
X114608711Y-127960838D01*
X114833696Y-128102206D01*
X114837005Y-128104285D01*
X114873130Y-128121682D01*
X115079921Y-128221267D01*
X115271049Y-128288145D01*
X115334397Y-128310312D01*
X115334405Y-128310315D01*
X115334408Y-128310315D01*
X115334409Y-128310316D01*
X115597268Y-128370312D01*
X115865187Y-128400499D01*
X115865188Y-128400500D01*
X115865191Y-128400500D01*
X116134812Y-128400500D01*
X116134812Y-128400499D01*
X116402732Y-128370312D01*
X116665591Y-128310316D01*
X116920079Y-128221267D01*
X117162997Y-128104284D01*
X117391289Y-127960838D01*
X117602085Y-127792734D01*
X117792734Y-127602085D01*
X117960838Y-127391289D01*
X118104284Y-127162997D01*
X118221267Y-126920079D01*
X118310316Y-126665591D01*
X118370312Y-126402732D01*
X118400500Y-126134809D01*
X118400500Y-125865191D01*
X118370312Y-125597268D01*
X118310316Y-125334409D01*
X118309404Y-125331804D01*
X118264799Y-125204328D01*
X118221267Y-125079921D01*
X118104284Y-124837003D01*
X117960838Y-124608711D01*
X117792734Y-124397915D01*
X117602085Y-124207266D01*
X117391289Y-124039162D01*
X117185474Y-123909839D01*
X117162994Y-123895714D01*
X116920082Y-123778734D01*
X116665602Y-123689687D01*
X116665594Y-123689684D01*
X116455855Y-123641813D01*
X116402732Y-123629688D01*
X116402728Y-123629687D01*
X116402719Y-123629686D01*
X116134813Y-123599500D01*
X116134809Y-123599500D01*
X115865191Y-123599500D01*
X115865186Y-123599500D01*
X115597280Y-123629686D01*
X115597268Y-123629688D01*
X115334405Y-123689684D01*
X115334397Y-123689687D01*
X115079917Y-123778734D01*
X114837005Y-123895714D01*
X114608712Y-124039161D01*
X114397915Y-124207265D01*
X114207265Y-124397915D01*
X114039161Y-124608712D01*
X113895714Y-124837005D01*
X113778734Y-125079917D01*
X113689687Y-125334397D01*
X113689684Y-125334405D01*
X113629688Y-125597268D01*
X113629686Y-125597280D01*
X113599500Y-125865186D01*
X108600500Y-125865186D01*
X108600500Y-124898274D01*
X108620185Y-124831235D01*
X108672989Y-124785480D01*
X108742147Y-124775536D01*
X108805703Y-124804561D01*
X108827602Y-124829383D01*
X108905885Y-124946541D01*
X108905888Y-124946545D01*
X109003454Y-125044111D01*
X109003458Y-125044114D01*
X109118182Y-125120771D01*
X109118195Y-125120778D01*
X109245667Y-125173578D01*
X109245672Y-125173580D01*
X109245676Y-125173580D01*
X109245677Y-125173581D01*
X109381004Y-125200500D01*
X109381007Y-125200500D01*
X109518995Y-125200500D01*
X109610041Y-125182389D01*
X109654328Y-125173580D01*
X109781811Y-125120775D01*
X109896542Y-125044114D01*
X109994114Y-124946542D01*
X110070775Y-124831811D01*
X110123580Y-124704328D01*
X110138108Y-124631290D01*
X110150500Y-124568995D01*
X110150500Y-124431004D01*
X110123581Y-124295677D01*
X110123580Y-124295676D01*
X110123580Y-124295672D01*
X110090339Y-124215421D01*
X110070778Y-124168195D01*
X110070771Y-124168182D01*
X109994114Y-124053458D01*
X109994111Y-124053454D01*
X109911819Y-123971162D01*
X109878334Y-123909839D01*
X109875500Y-123883481D01*
X109875500Y-123787614D01*
X109895185Y-123720575D01*
X109947989Y-123674820D01*
X109974023Y-123667504D01*
X109973852Y-123666827D01*
X109981556Y-123664879D01*
X109981559Y-123664877D01*
X109981564Y-123664877D01*
X110122342Y-123609361D01*
X110242922Y-123517922D01*
X110334361Y-123397342D01*
X110389877Y-123256564D01*
X110400500Y-123168102D01*
X110400500Y-123168053D01*
X111600000Y-123168053D01*
X111610613Y-123256443D01*
X111666079Y-123397095D01*
X111757435Y-123517564D01*
X111877904Y-123608920D01*
X112018556Y-123664386D01*
X112106946Y-123675000D01*
X112350000Y-123675000D01*
X112750000Y-123675000D01*
X112993054Y-123675000D01*
X113081443Y-123664386D01*
X113222095Y-123608920D01*
X113342564Y-123517564D01*
X113433920Y-123397095D01*
X113489386Y-123256443D01*
X113500000Y-123168053D01*
X113500000Y-122700000D01*
X112750000Y-122700000D01*
X112750000Y-123675000D01*
X112350000Y-123675000D01*
X112350000Y-122700000D01*
X111600000Y-122700000D01*
X111600000Y-123168053D01*
X110400500Y-123168053D01*
X110400500Y-121831946D01*
X111600000Y-121831946D01*
X111600000Y-122300000D01*
X112350000Y-122300000D01*
X112750000Y-122300000D01*
X113500000Y-122300000D01*
X113500000Y-121831946D01*
X113489386Y-121743556D01*
X113433920Y-121602904D01*
X113342564Y-121482435D01*
X113222095Y-121391079D01*
X113081443Y-121335613D01*
X112993054Y-121325000D01*
X112750000Y-121325000D01*
X112750000Y-122300000D01*
X112350000Y-122300000D01*
X112350000Y-121325000D01*
X112106946Y-121325000D01*
X112018556Y-121335613D01*
X111877904Y-121391079D01*
X111757435Y-121482435D01*
X111666079Y-121602904D01*
X111610613Y-121743556D01*
X111600000Y-121831946D01*
X110400500Y-121831946D01*
X110400500Y-121831898D01*
X110389877Y-121743436D01*
X110334361Y-121602658D01*
X110334360Y-121602657D01*
X110334360Y-121602656D01*
X110242922Y-121482077D01*
X110122343Y-121390639D01*
X110026192Y-121352722D01*
X109981564Y-121335123D01*
X109981563Y-121335122D01*
X109981561Y-121335122D01*
X109932707Y-121329256D01*
X109893102Y-121324500D01*
X109006898Y-121324500D01*
X108967853Y-121329188D01*
X108918438Y-121335122D01*
X108777655Y-121390640D01*
X108770629Y-121395968D01*
X108705317Y-121420789D01*
X108636953Y-121406359D01*
X108587244Y-121357260D01*
X108575933Y-121329260D01*
X108559577Y-121268216D01*
X108559573Y-121268209D01*
X108480524Y-121131290D01*
X108480518Y-121131282D01*
X108368717Y-121019481D01*
X108368709Y-121019475D01*
X108231790Y-120940426D01*
X108231786Y-120940424D01*
X108231784Y-120940423D01*
X108079057Y-120899500D01*
X108079056Y-120899500D01*
X103008465Y-120899500D01*
X102941426Y-120879815D01*
X102905364Y-120844392D01*
X102895979Y-120830347D01*
X102895974Y-120830341D01*
X102749657Y-120684024D01*
X102589834Y-120577235D01*
X102577598Y-120569059D01*
X102555498Y-120559905D01*
X102386420Y-120489870D01*
X102386412Y-120489868D01*
X102183469Y-120449500D01*
X102183465Y-120449500D01*
X101976535Y-120449500D01*
X101976530Y-120449500D01*
X101773587Y-120489868D01*
X101773579Y-120489870D01*
X101582403Y-120569058D01*
X101410342Y-120684024D01*
X101264024Y-120830342D01*
X101149058Y-121002403D01*
X101069870Y-121193579D01*
X101069868Y-121193587D01*
X101029500Y-121396530D01*
X101029500Y-121603469D01*
X101069868Y-121806412D01*
X101069870Y-121806420D01*
X101149058Y-121997596D01*
X101264024Y-122169657D01*
X101410342Y-122315975D01*
X101410345Y-122315977D01*
X101582402Y-122430941D01*
X101773580Y-122510130D01*
X101961875Y-122547584D01*
X101976530Y-122550499D01*
X101976534Y-122550500D01*
X101976535Y-122550500D01*
X102183466Y-122550500D01*
X102183467Y-122550499D01*
X102386420Y-122510130D01*
X102577598Y-122430941D01*
X102749655Y-122315977D01*
X102895977Y-122169655D01*
X102896018Y-122169592D01*
X102905364Y-122155608D01*
X102958977Y-122110803D01*
X103008465Y-122100500D01*
X104920943Y-122100500D01*
X107275500Y-122100500D01*
X107342539Y-122120185D01*
X107388294Y-122172989D01*
X107399500Y-122224500D01*
X107399500Y-125775500D01*
X107379815Y-125842539D01*
X107327011Y-125888294D01*
X107275500Y-125899500D01*
X98895746Y-125899500D01*
X98857428Y-125893431D01*
X98809409Y-125877828D01*
X98630551Y-125849500D01*
X98630546Y-125849500D01*
X98449454Y-125849500D01*
X98449453Y-125849500D01*
X98399696Y-125857380D01*
X98330403Y-125848424D01*
X98276952Y-125803427D01*
X98256313Y-125736675D01*
X98275039Y-125669362D01*
X98327185Y-125622858D01*
X98331470Y-125620956D01*
X98331804Y-125620777D01*
X98331811Y-125620775D01*
X98446542Y-125544114D01*
X98544114Y-125446542D01*
X98620775Y-125331811D01*
X98673580Y-125204328D01*
X98690201Y-125120771D01*
X98700500Y-125068995D01*
X98700500Y-124931004D01*
X98673581Y-124795677D01*
X98673580Y-124795676D01*
X98673580Y-124795672D01*
X98669358Y-124785480D01*
X98620776Y-124668190D01*
X98617905Y-124662819D01*
X98619205Y-124662123D01*
X98600520Y-124602438D01*
X98600500Y-124600230D01*
X98600500Y-122345495D01*
X98620185Y-122278456D01*
X98672989Y-122232701D01*
X98742147Y-122222757D01*
X98805703Y-122251782D01*
X98812181Y-122257814D01*
X98870342Y-122315975D01*
X98870345Y-122315977D01*
X99042402Y-122430941D01*
X99233580Y-122510130D01*
X99421875Y-122547584D01*
X99436530Y-122550499D01*
X99436534Y-122550500D01*
X99436535Y-122550500D01*
X99643466Y-122550500D01*
X99643467Y-122550499D01*
X99846420Y-122510130D01*
X100037598Y-122430941D01*
X100209655Y-122315977D01*
X100355977Y-122169655D01*
X100470941Y-121997598D01*
X100550130Y-121806420D01*
X100590500Y-121603465D01*
X100590500Y-121396535D01*
X100550130Y-121193580D01*
X100470941Y-121002402D01*
X100355977Y-120830345D01*
X100355975Y-120830342D01*
X100209657Y-120684024D01*
X100070610Y-120591117D01*
X100025804Y-120537504D01*
X100015500Y-120488014D01*
X100015500Y-119912000D01*
X100035185Y-119844961D01*
X100087989Y-119799206D01*
X100139500Y-119788000D01*
X103682599Y-119788000D01*
X103682601Y-119788000D01*
X103803536Y-119755595D01*
X103911964Y-119692995D01*
X104000495Y-119604464D01*
X104063095Y-119496036D01*
X104095500Y-119375101D01*
X104095500Y-116223113D01*
X104063095Y-116102178D01*
X104000495Y-115993750D01*
X103911964Y-115905219D01*
X103803536Y-115842619D01*
X103803537Y-115842619D01*
X103758308Y-115830500D01*
X103682601Y-115810214D01*
X100872601Y-115810214D01*
X100747399Y-115810214D01*
X100671692Y-115830500D01*
X100626463Y-115842619D01*
X100518037Y-115905217D01*
X100455012Y-115968243D01*
X100393688Y-116001727D01*
X100382115Y-116003676D01*
X100328441Y-116010121D01*
X100187656Y-116065639D01*
X100067077Y-116157077D01*
X99975639Y-116277656D01*
X99953576Y-116333605D01*
X99925353Y-116405171D01*
X99882449Y-116460314D01*
X99816541Y-116483507D01*
X99748556Y-116467386D01*
X99700080Y-116417070D01*
X99694648Y-116405178D01*
X99644361Y-116277658D01*
X99644360Y-116277657D01*
X99644360Y-116277656D01*
X99552922Y-116157077D01*
X99432343Y-116065639D01*
X99291562Y-116010122D01*
X99248508Y-116004952D01*
X99237883Y-116003676D01*
X99173670Y-115976139D01*
X99164987Y-115968242D01*
X99101965Y-115905220D01*
X99101964Y-115905219D01*
X98993536Y-115842619D01*
X98993537Y-115842619D01*
X98948308Y-115830500D01*
X98872601Y-115810214D01*
X98872599Y-115810214D01*
X96599500Y-115810214D01*
X96532461Y-115790529D01*
X96486706Y-115737725D01*
X96475500Y-115686214D01*
X96475500Y-114277399D01*
X96465376Y-114239617D01*
X96443095Y-114156463D01*
X96380495Y-114048035D01*
X96291964Y-113959504D01*
X96183536Y-113896904D01*
X96183537Y-113896904D01*
X96143224Y-113886102D01*
X96065165Y-113865186D01*
X113599500Y-113865186D01*
X113599500Y-114134813D01*
X113629686Y-114402719D01*
X113629688Y-114402731D01*
X113689684Y-114665594D01*
X113689687Y-114665602D01*
X113778734Y-114920082D01*
X113895714Y-115162994D01*
X113895716Y-115162997D01*
X114039162Y-115391289D01*
X114207266Y-115602085D01*
X114397915Y-115792734D01*
X114608711Y-115960838D01*
X114837003Y-116104284D01*
X115079921Y-116221267D01*
X115241072Y-116277656D01*
X115334397Y-116310312D01*
X115334405Y-116310315D01*
X115334408Y-116310315D01*
X115334409Y-116310316D01*
X115597268Y-116370312D01*
X115865187Y-116400499D01*
X115865188Y-116400500D01*
X115865191Y-116400500D01*
X116134812Y-116400500D01*
X116134812Y-116400499D01*
X116402732Y-116370312D01*
X116665591Y-116310316D01*
X116920079Y-116221267D01*
X117162997Y-116104284D01*
X117391289Y-115960838D01*
X117602085Y-115792734D01*
X117792734Y-115602085D01*
X117960838Y-115391289D01*
X118104284Y-115162997D01*
X118221267Y-114920079D01*
X118310316Y-114665591D01*
X118370312Y-114402732D01*
X118400500Y-114134809D01*
X118400500Y-113865191D01*
X118370312Y-113597268D01*
X118310316Y-113334409D01*
X118221267Y-113079921D01*
X118104284Y-112837003D01*
X117960838Y-112608711D01*
X117792734Y-112397915D01*
X117602085Y-112207266D01*
X117391289Y-112039162D01*
X117162997Y-111895716D01*
X117162994Y-111895714D01*
X116920082Y-111778734D01*
X116665602Y-111689687D01*
X116665594Y-111689684D01*
X116468446Y-111644687D01*
X116402732Y-111629688D01*
X116402728Y-111629687D01*
X116402719Y-111629686D01*
X116134813Y-111599500D01*
X116134809Y-111599500D01*
X115865191Y-111599500D01*
X115865186Y-111599500D01*
X115597280Y-111629686D01*
X115597268Y-111629688D01*
X115334405Y-111689684D01*
X115334397Y-111689687D01*
X115079917Y-111778734D01*
X114837005Y-111895714D01*
X114608712Y-112039161D01*
X114397915Y-112207265D01*
X114207265Y-112397915D01*
X114039161Y-112608712D01*
X113895714Y-112837005D01*
X113778734Y-113079917D01*
X113689687Y-113334397D01*
X113689684Y-113334405D01*
X113629688Y-113597268D01*
X113629686Y-113597280D01*
X113599500Y-113865186D01*
X96065165Y-113865186D01*
X96062601Y-113864499D01*
X96062599Y-113864499D01*
X89531313Y-113864499D01*
X89464274Y-113844814D01*
X89458427Y-113840817D01*
X89386788Y-113788768D01*
X89232447Y-113710128D01*
X89232446Y-113710127D01*
X89232445Y-113710127D01*
X89067701Y-113656598D01*
X89067699Y-113656597D01*
X89067698Y-113656597D01*
X88936271Y-113635781D01*
X88896611Y-113629500D01*
X88723389Y-113629500D01*
X88683728Y-113635781D01*
X88552302Y-113656597D01*
X88387552Y-113710128D01*
X88233211Y-113788768D01*
X88178614Y-113828436D01*
X88093072Y-113890586D01*
X88093070Y-113890588D01*
X88093069Y-113890588D01*
X87970588Y-114013069D01*
X87970588Y-114013070D01*
X87970586Y-114013072D01*
X87957367Y-114031267D01*
X87868768Y-114153211D01*
X87790128Y-114307552D01*
X87736597Y-114472302D01*
X87709500Y-114643389D01*
X82290500Y-114643389D01*
X82263402Y-114472299D01*
X82209873Y-114307555D01*
X82131232Y-114153212D01*
X82029414Y-114013072D01*
X81906928Y-113890586D01*
X81766788Y-113788768D01*
X81612445Y-113710127D01*
X81447701Y-113656598D01*
X81447699Y-113656597D01*
X81447698Y-113656597D01*
X81316271Y-113635781D01*
X81276611Y-113629500D01*
X81103389Y-113629500D01*
X81063728Y-113635781D01*
X80932302Y-113656597D01*
X80767552Y-113710128D01*
X80613211Y-113788768D01*
X80558614Y-113828436D01*
X80473072Y-113890586D01*
X80473070Y-113890588D01*
X80473069Y-113890588D01*
X80350588Y-114013069D01*
X80350588Y-114013070D01*
X80350586Y-114013072D01*
X80337367Y-114031267D01*
X80248768Y-114153211D01*
X80170128Y-114307552D01*
X80116597Y-114472302D01*
X80089500Y-114643389D01*
X80089500Y-114816610D01*
X80108963Y-114939499D01*
X80116598Y-114987701D01*
X80170127Y-115152445D01*
X80248768Y-115306788D01*
X80350586Y-115446928D01*
X80473072Y-115569414D01*
X80613212Y-115671232D01*
X80767555Y-115749873D01*
X80920940Y-115799711D01*
X80978616Y-115839149D01*
X81005814Y-115903507D01*
X80993899Y-115972354D01*
X80946655Y-116023829D01*
X80882622Y-116041642D01*
X79599500Y-116041642D01*
X79532461Y-116021957D01*
X79486706Y-115969153D01*
X79475500Y-115917642D01*
X79475500Y-114508828D01*
X79447071Y-114402732D01*
X79443095Y-114387892D01*
X79380495Y-114279464D01*
X79291964Y-114190933D01*
X79183536Y-114128333D01*
X79183537Y-114128333D01*
X79143224Y-114117531D01*
X79062601Y-114095928D01*
X79062599Y-114095928D01*
X75566518Y-114095928D01*
X75499479Y-114076243D01*
X75478836Y-114059608D01*
X75446545Y-114027316D01*
X75446541Y-114027313D01*
X75331817Y-113950656D01*
X75331804Y-113950649D01*
X75204332Y-113897849D01*
X75204322Y-113897846D01*
X75068995Y-113870928D01*
X75068993Y-113870928D01*
X74931007Y-113870928D01*
X74931005Y-113870928D01*
X74795677Y-113897846D01*
X74795667Y-113897849D01*
X74668195Y-113950649D01*
X74668182Y-113950656D01*
X74553458Y-114027313D01*
X74553454Y-114027316D01*
X74455888Y-114124882D01*
X74455885Y-114124886D01*
X74379228Y-114239610D01*
X74379221Y-114239623D01*
X74326421Y-114367095D01*
X74326418Y-114367105D01*
X74299500Y-114502432D01*
X74299500Y-114502435D01*
X74299500Y-114640421D01*
X74299500Y-114640423D01*
X74299499Y-114640423D01*
X74000500Y-114640423D01*
X74000500Y-113916898D01*
X73989877Y-113828436D01*
X73934361Y-113687658D01*
X73934360Y-113687657D01*
X73934360Y-113687656D01*
X73842922Y-113567077D01*
X73722343Y-113475639D01*
X73581556Y-113420120D01*
X73573852Y-113418173D01*
X73574382Y-113416072D01*
X73520490Y-113392954D01*
X73481364Y-113335067D01*
X73475500Y-113297385D01*
X73475500Y-111849500D01*
X73495185Y-111782461D01*
X73547989Y-111736706D01*
X73599500Y-111725500D01*
X77210500Y-111725500D01*
X77277539Y-111745185D01*
X77323294Y-111797989D01*
X77334500Y-111849500D01*
X77334500Y-112100256D01*
X77334500Y-112225458D01*
X77366905Y-112346393D01*
X77429505Y-112454821D01*
X77518036Y-112543352D01*
X77626464Y-112605952D01*
X77747399Y-112638357D01*
X78819776Y-112638357D01*
X78851869Y-112642581D01*
X78937399Y-112665500D01*
X79965661Y-112665500D01*
X80032700Y-112685185D01*
X80078455Y-112737989D01*
X80088784Y-112779456D01*
X80089059Y-112779424D01*
X80089322Y-112781614D01*
X80089439Y-112782084D01*
X80089499Y-112783091D01*
X80100122Y-112871561D01*
X80100122Y-112871563D01*
X80100123Y-112871564D01*
X80106262Y-112887131D01*
X80155639Y-113012343D01*
X80247077Y-113132922D01*
X80367656Y-113224360D01*
X80367657Y-113224360D01*
X80367658Y-113224361D01*
X80508436Y-113279877D01*
X80596898Y-113290500D01*
X80596903Y-113290500D01*
X81783097Y-113290500D01*
X81783102Y-113290500D01*
X81871564Y-113279877D01*
X82012342Y-113224361D01*
X82132922Y-113132922D01*
X82224361Y-113012342D01*
X82279877Y-112871564D01*
X82290500Y-112783102D01*
X82290500Y-112103389D01*
X87709500Y-112103389D01*
X87709500Y-112276610D01*
X87728712Y-112397915D01*
X87736598Y-112447701D01*
X87790127Y-112612445D01*
X87868768Y-112766788D01*
X87970586Y-112906928D01*
X88093072Y-113029414D01*
X88233212Y-113131232D01*
X88387555Y-113209873D01*
X88552299Y-113263402D01*
X88723389Y-113290500D01*
X88723390Y-113290500D01*
X88896610Y-113290500D01*
X88896611Y-113290500D01*
X89067701Y-113263402D01*
X89232445Y-113209873D01*
X89386788Y-113131232D01*
X89526928Y-113029414D01*
X89621446Y-112934896D01*
X89682769Y-112901411D01*
X89724830Y-112901037D01*
X89724942Y-112899903D01*
X89731005Y-112900500D01*
X89731007Y-112900500D01*
X89868995Y-112900500D01*
X89960041Y-112882389D01*
X90004328Y-112873580D01*
X90131811Y-112820775D01*
X90131811Y-112820774D01*
X90137181Y-112817905D01*
X90137876Y-112819205D01*
X90197562Y-112800520D01*
X90199770Y-112800500D01*
X93041555Y-112800500D01*
X93041557Y-112800500D01*
X93194284Y-112759577D01*
X93331216Y-112680520D01*
X93443020Y-112568716D01*
X93465006Y-112530633D01*
X93515570Y-112482419D01*
X93526877Y-112477289D01*
X93572342Y-112459361D01*
X93692922Y-112367922D01*
X93784361Y-112247342D01*
X93839877Y-112106564D01*
X93850500Y-112018102D01*
X93850500Y-112018053D01*
X94150000Y-112018053D01*
X94160613Y-112106443D01*
X94216079Y-112247095D01*
X94307435Y-112367564D01*
X94427904Y-112458920D01*
X94568556Y-112514386D01*
X94656946Y-112525000D01*
X94837500Y-112525000D01*
X95237500Y-112525000D01*
X95418054Y-112525000D01*
X95506443Y-112514386D01*
X95560540Y-112493053D01*
X97910000Y-112493053D01*
X97920613Y-112581443D01*
X97976079Y-112722095D01*
X98067435Y-112842564D01*
X98187904Y-112933920D01*
X98328556Y-112989386D01*
X98416946Y-113000000D01*
X98610000Y-113000000D01*
X98610000Y-112200000D01*
X97910000Y-112200000D01*
X97910000Y-112493053D01*
X95560540Y-112493053D01*
X95647095Y-112458920D01*
X95767564Y-112367564D01*
X95858921Y-112247093D01*
X95858922Y-112247091D01*
X95914385Y-112106448D01*
X95925000Y-112018053D01*
X95925000Y-111700000D01*
X95237500Y-111700000D01*
X95237500Y-112525000D01*
X94837500Y-112525000D01*
X94837500Y-111700000D01*
X94150000Y-111700000D01*
X94150000Y-112018053D01*
X93850500Y-112018053D01*
X93850500Y-111506946D01*
X97910000Y-111506946D01*
X97910000Y-111800000D01*
X98610000Y-111800000D01*
X98610000Y-111000000D01*
X98416946Y-111000000D01*
X98328556Y-111010613D01*
X98187904Y-111066079D01*
X98067435Y-111157435D01*
X97976079Y-111277904D01*
X97920613Y-111418556D01*
X97910000Y-111506946D01*
X93850500Y-111506946D01*
X93850500Y-110981946D01*
X94150000Y-110981946D01*
X94150000Y-111300000D01*
X94837500Y-111300000D01*
X94837500Y-110475000D01*
X95237500Y-110475000D01*
X95237500Y-111300000D01*
X95925000Y-111300000D01*
X95925000Y-110981946D01*
X95914386Y-110893556D01*
X95858920Y-110752904D01*
X95773425Y-110640163D01*
X95748602Y-110574851D01*
X95763030Y-110506487D01*
X95812127Y-110456776D01*
X95880307Y-110441500D01*
X95896411Y-110443618D01*
X95931007Y-110450500D01*
X96068995Y-110450500D01*
X96160041Y-110432389D01*
X96204328Y-110423580D01*
X96331811Y-110370775D01*
X96446542Y-110294114D01*
X96478836Y-110261820D01*
X96540158Y-110228334D01*
X96566518Y-110225500D01*
X98872599Y-110225500D01*
X98872601Y-110225500D01*
X98993536Y-110193095D01*
X99101964Y-110130495D01*
X99190495Y-110041964D01*
X99190499Y-110041956D01*
X99192478Y-110039378D01*
X99194714Y-110037744D01*
X99196243Y-110036216D01*
X99196481Y-110036454D01*
X99248900Y-109998168D01*
X99276081Y-109991736D01*
X99291564Y-109989877D01*
X99432342Y-109934361D01*
X99552922Y-109842922D01*
X99644361Y-109722342D01*
X99694646Y-109594826D01*
X99737551Y-109539685D01*
X99803459Y-109516492D01*
X99871443Y-109532612D01*
X99919920Y-109582929D01*
X99925348Y-109594814D01*
X99960652Y-109684339D01*
X99975639Y-109722343D01*
X100067077Y-109842922D01*
X100187656Y-109934360D01*
X100187657Y-109934360D01*
X100187658Y-109934361D01*
X100328436Y-109989877D01*
X100343915Y-109991735D01*
X100408129Y-110019269D01*
X100427511Y-110039365D01*
X100429504Y-110041962D01*
X100429505Y-110041964D01*
X100518036Y-110130495D01*
X100626464Y-110193095D01*
X100747399Y-110225500D01*
X103020500Y-110225500D01*
X103087539Y-110245185D01*
X103133294Y-110297989D01*
X103144500Y-110349500D01*
X103144500Y-112257642D01*
X103124815Y-112324681D01*
X103072011Y-112370436D01*
X103020500Y-112381642D01*
X101834500Y-112381642D01*
X101767461Y-112361957D01*
X101721706Y-112309153D01*
X101710500Y-112257642D01*
X101710500Y-111506903D01*
X101710500Y-111506898D01*
X101699877Y-111418436D01*
X101644361Y-111277658D01*
X101644360Y-111277657D01*
X101644360Y-111277656D01*
X101552922Y-111157077D01*
X101432343Y-111065639D01*
X101336192Y-111027722D01*
X101291564Y-111010123D01*
X101291563Y-111010122D01*
X101291561Y-111010122D01*
X101245926Y-111004642D01*
X101203102Y-110999500D01*
X100416898Y-110999500D01*
X100377853Y-111004188D01*
X100328438Y-111010122D01*
X100187656Y-111065639D01*
X100067077Y-111157077D01*
X99975639Y-111277656D01*
X99925086Y-111405852D01*
X99882180Y-111460996D01*
X99816272Y-111484189D01*
X99748287Y-111468068D01*
X99699811Y-111417752D01*
X99694376Y-111405852D01*
X99643920Y-111277904D01*
X99552564Y-111157435D01*
X99432095Y-111066079D01*
X99291443Y-111010613D01*
X99203054Y-111000000D01*
X99010000Y-111000000D01*
X99010000Y-113000000D01*
X99203054Y-113000000D01*
X99291443Y-112989386D01*
X99432095Y-112933920D01*
X99552564Y-112842564D01*
X99643920Y-112722095D01*
X99694376Y-112594147D01*
X99737282Y-112539003D01*
X99803190Y-112515810D01*
X99871174Y-112531930D01*
X99919651Y-112582247D01*
X99925079Y-112594132D01*
X99944186Y-112642582D01*
X99975639Y-112722343D01*
X100067077Y-112842922D01*
X100187658Y-112934361D01*
X100187660Y-112934362D01*
X100300325Y-112978792D01*
X100355469Y-113021697D01*
X100362300Y-113033952D01*
X100362842Y-113033640D01*
X100366904Y-113040676D01*
X100366905Y-113040678D01*
X100429505Y-113149106D01*
X100518036Y-113237637D01*
X100626464Y-113300237D01*
X100747399Y-113332642D01*
X100872601Y-113332642D01*
X103053482Y-113332642D01*
X103120521Y-113352327D01*
X103141164Y-113368962D01*
X103173454Y-113401253D01*
X103173458Y-113401256D01*
X103288182Y-113477913D01*
X103288195Y-113477920D01*
X103415667Y-113530720D01*
X103415672Y-113530722D01*
X103415676Y-113530722D01*
X103415677Y-113530723D01*
X103551004Y-113557642D01*
X103551007Y-113557642D01*
X103688995Y-113557642D01*
X103780041Y-113539531D01*
X103824328Y-113530722D01*
X103951811Y-113477917D01*
X104066542Y-113401256D01*
X104164114Y-113303684D01*
X104240775Y-113188953D01*
X104293580Y-113061470D01*
X104310026Y-112978792D01*
X104320500Y-112926137D01*
X104320500Y-112788146D01*
X104293581Y-112652819D01*
X104293580Y-112652818D01*
X104293580Y-112652814D01*
X104276859Y-112612445D01*
X104240778Y-112525337D01*
X104240771Y-112525324D01*
X104164114Y-112410600D01*
X104164111Y-112410596D01*
X104131819Y-112378304D01*
X104098334Y-112316981D01*
X104095500Y-112290623D01*
X104095500Y-109687400D01*
X104093786Y-109681004D01*
X104063095Y-109566464D01*
X104000495Y-109458036D01*
X103911964Y-109369505D01*
X103803536Y-109306905D01*
X103803537Y-109306905D01*
X103763224Y-109296103D01*
X103682601Y-109274500D01*
X103682599Y-109274500D01*
X101834500Y-109274500D01*
X101767461Y-109254815D01*
X101721706Y-109202011D01*
X101710500Y-109150500D01*
X101710500Y-108506903D01*
X101710500Y-108506898D01*
X101699877Y-108418436D01*
X101644361Y-108277658D01*
X101644360Y-108277657D01*
X101644360Y-108277656D01*
X101552922Y-108157077D01*
X101432343Y-108065639D01*
X101291561Y-108010122D01*
X101245926Y-108004642D01*
X101203102Y-107999500D01*
X100416898Y-107999500D01*
X100377853Y-108004188D01*
X100328438Y-108010122D01*
X100187656Y-108065639D01*
X100067077Y-108157077D01*
X99975639Y-108277656D01*
X99965750Y-108302734D01*
X99925353Y-108405171D01*
X99882449Y-108460314D01*
X99816541Y-108483507D01*
X99748556Y-108467386D01*
X99700080Y-108417070D01*
X99694648Y-108405178D01*
X99644361Y-108277658D01*
X99644360Y-108277657D01*
X99644360Y-108277656D01*
X99552922Y-108157077D01*
X99432343Y-108065639D01*
X99291561Y-108010122D01*
X99245926Y-108004642D01*
X99203102Y-107999500D01*
X98416898Y-107999500D01*
X98377853Y-108004188D01*
X98328438Y-108010122D01*
X98187656Y-108065639D01*
X98067077Y-108157077D01*
X97975639Y-108277656D01*
X97920122Y-108418438D01*
X97915814Y-108454319D01*
X97909500Y-108506898D01*
X97909500Y-108506903D01*
X97909500Y-109150500D01*
X97889815Y-109217539D01*
X97837011Y-109263294D01*
X97785500Y-109274500D01*
X96566518Y-109274500D01*
X96499479Y-109254815D01*
X96478836Y-109238180D01*
X96446545Y-109205888D01*
X96446541Y-109205885D01*
X96331817Y-109129228D01*
X96331804Y-109129221D01*
X96204332Y-109076421D01*
X96204322Y-109076418D01*
X96068995Y-109049500D01*
X96068993Y-109049500D01*
X95931007Y-109049500D01*
X95931005Y-109049500D01*
X95795677Y-109076418D01*
X95795667Y-109076421D01*
X95668195Y-109129221D01*
X95668182Y-109129228D01*
X95553458Y-109205885D01*
X95553454Y-109205888D01*
X95455888Y-109303454D01*
X95455885Y-109303458D01*
X95379228Y-109418182D01*
X95379221Y-109418195D01*
X95326421Y-109545667D01*
X95326418Y-109545677D01*
X95299500Y-109681004D01*
X95299500Y-109681007D01*
X95299500Y-109818993D01*
X95299500Y-109818995D01*
X95299499Y-109818995D01*
X95326418Y-109954322D01*
X95326421Y-109954332D01*
X95379221Y-110081804D01*
X95379228Y-110081817D01*
X95455885Y-110196541D01*
X95455888Y-110196545D01*
X95523959Y-110264616D01*
X95557444Y-110325939D01*
X95552460Y-110395631D01*
X95510588Y-110451564D01*
X95445124Y-110475981D01*
X95421496Y-110475413D01*
X95418056Y-110475000D01*
X95237500Y-110475000D01*
X94837500Y-110475000D01*
X94656946Y-110475000D01*
X94568556Y-110485613D01*
X94427904Y-110541079D01*
X94307435Y-110632435D01*
X94216079Y-110752904D01*
X94160613Y-110893556D01*
X94150000Y-110981946D01*
X93850500Y-110981946D01*
X93850500Y-110981898D01*
X93839877Y-110893436D01*
X93784361Y-110752658D01*
X93784360Y-110752657D01*
X93784360Y-110752656D01*
X93692922Y-110632077D01*
X93572343Y-110540639D01*
X93476192Y-110502722D01*
X93431564Y-110485123D01*
X93431563Y-110485122D01*
X93431561Y-110485122D01*
X93385926Y-110479642D01*
X93343102Y-110474500D01*
X92581898Y-110474500D01*
X92542853Y-110479188D01*
X92493438Y-110485122D01*
X92352656Y-110540639D01*
X92232077Y-110632077D01*
X92140639Y-110752656D01*
X92085122Y-110893438D01*
X92079188Y-110942853D01*
X92074500Y-110981898D01*
X92074500Y-110981903D01*
X92074500Y-111475500D01*
X92054815Y-111542539D01*
X92002011Y-111588294D01*
X91950500Y-111599500D01*
X90199770Y-111599500D01*
X90137630Y-111581253D01*
X90137181Y-111582095D01*
X90133140Y-111579935D01*
X90132731Y-111579815D01*
X90131912Y-111579278D01*
X90131809Y-111579223D01*
X90004332Y-111526421D01*
X90004322Y-111526418D01*
X89868995Y-111499500D01*
X89868993Y-111499500D01*
X89731007Y-111499500D01*
X89727204Y-111499500D01*
X89660165Y-111479815D01*
X89639523Y-111463181D01*
X89526930Y-111350588D01*
X89526928Y-111350586D01*
X89386788Y-111248768D01*
X89232445Y-111170127D01*
X89067701Y-111116598D01*
X89067699Y-111116597D01*
X89067698Y-111116597D01*
X88936271Y-111095781D01*
X88896611Y-111089500D01*
X88723389Y-111089500D01*
X88683728Y-111095781D01*
X88552302Y-111116597D01*
X88387552Y-111170128D01*
X88233211Y-111248768D01*
X88162697Y-111300000D01*
X88093072Y-111350586D01*
X88093070Y-111350588D01*
X88093069Y-111350588D01*
X87970588Y-111473069D01*
X87970588Y-111473070D01*
X87970586Y-111473072D01*
X87944891Y-111508438D01*
X87868768Y-111613211D01*
X87790128Y-111767552D01*
X87736597Y-111932302D01*
X87709500Y-112103389D01*
X82290500Y-112103389D01*
X82290500Y-111596898D01*
X82279877Y-111508436D01*
X82224361Y-111367658D01*
X82224360Y-111367657D01*
X82224360Y-111367656D01*
X82132922Y-111247077D01*
X82012343Y-111155639D01*
X81871561Y-111100122D01*
X81825926Y-111094642D01*
X81783102Y-111089500D01*
X80596898Y-111089500D01*
X80557853Y-111094188D01*
X80508438Y-111100122D01*
X80367656Y-111155639D01*
X80247077Y-111247077D01*
X80155639Y-111367656D01*
X80100122Y-111508438D01*
X80089499Y-111596908D01*
X80089439Y-111597916D01*
X80089348Y-111598168D01*
X80089059Y-111600576D01*
X80088505Y-111600509D01*
X80065781Y-111663658D01*
X80010335Y-111706173D01*
X79965661Y-111714500D01*
X79180224Y-111714500D01*
X79148130Y-111710275D01*
X79062601Y-111687357D01*
X79062599Y-111687357D01*
X78409500Y-111687357D01*
X78342461Y-111667672D01*
X78296706Y-111614868D01*
X78285500Y-111563357D01*
X78285500Y-111187400D01*
X78277375Y-111157077D01*
X78253095Y-111066464D01*
X78190495Y-110958036D01*
X78101964Y-110869505D01*
X77993536Y-110806905D01*
X77993537Y-110806905D01*
X77953224Y-110796103D01*
X77872601Y-110774500D01*
X73062601Y-110774500D01*
X72937399Y-110774500D01*
X72856775Y-110796103D01*
X72816463Y-110806905D01*
X72708037Y-110869504D01*
X72708034Y-110869506D01*
X72619506Y-110958034D01*
X72619504Y-110958037D01*
X72556905Y-111066463D01*
X72524500Y-111187400D01*
X72524500Y-113297385D01*
X72504815Y-113364424D01*
X72452011Y-113410179D01*
X72425977Y-113417497D01*
X72426148Y-113418173D01*
X72418443Y-113420120D01*
X72277656Y-113475639D01*
X72157077Y-113567077D01*
X72065639Y-113687656D01*
X72010122Y-113828438D01*
X72005709Y-113865191D01*
X71999500Y-113916898D01*
X71999500Y-114703102D01*
X72005126Y-114749954D01*
X72010122Y-114791561D01*
X72065639Y-114932343D01*
X72157077Y-115052922D01*
X72277656Y-115144360D01*
X72277657Y-115144360D01*
X72277658Y-115144361D01*
X72405171Y-115194646D01*
X72460314Y-115237551D01*
X72483507Y-115303459D01*
X72467386Y-115371444D01*
X72417070Y-115419920D01*
X72405178Y-115425351D01*
X72353663Y-115445665D01*
X72277656Y-115475639D01*
X72157077Y-115567077D01*
X72065639Y-115687656D01*
X72010122Y-115828438D01*
X72004188Y-115877853D01*
X71999500Y-115916898D01*
X71999500Y-116703102D01*
X72005126Y-116749954D01*
X72010122Y-116791561D01*
X72065639Y-116932343D01*
X72157077Y-117052922D01*
X72277656Y-117144360D01*
X72277657Y-117144360D01*
X72277658Y-117144361D01*
X72418436Y-117199877D01*
X72418438Y-117199877D01*
X72418443Y-117199879D01*
X72426148Y-117201827D01*
X72425616Y-117203931D01*
X72479490Y-117227028D01*
X72518628Y-117284907D01*
X72524500Y-117322614D01*
X72524500Y-118713000D01*
X72504815Y-118780039D01*
X72452011Y-118825794D01*
X72400500Y-118837000D01*
X70602600Y-118837000D01*
X70477398Y-118837000D01*
X70396774Y-118858603D01*
X70356462Y-118869405D01*
X70248036Y-118932004D01*
X70248033Y-118932006D01*
X70159505Y-119020534D01*
X70159503Y-119020537D01*
X70096904Y-119128963D01*
X70096904Y-119128964D01*
X70068971Y-119233212D01*
X70064499Y-119249900D01*
X70064499Y-120488014D01*
X70044814Y-120555053D01*
X70009390Y-120591116D01*
X69870344Y-120684022D01*
X69724024Y-120830342D01*
X69609058Y-121002403D01*
X69529870Y-121193579D01*
X69529868Y-121193587D01*
X69489500Y-121396530D01*
X69050499Y-121396530D01*
X69050499Y-120705136D01*
X69048051Y-120684023D01*
X69047586Y-120680012D01*
X69047585Y-120680010D01*
X69047585Y-120680009D01*
X69002206Y-120577235D01*
X68922765Y-120497794D01*
X68904814Y-120489868D01*
X68819992Y-120452415D01*
X68794865Y-120449500D01*
X67205143Y-120449500D01*
X67205117Y-120449502D01*
X67180012Y-120452413D01*
X67180008Y-120452415D01*
X67077235Y-120497793D01*
X66997794Y-120577234D01*
X66952415Y-120680006D01*
X66952415Y-120680008D01*
X66949500Y-120705131D01*
X66949500Y-120775500D01*
X66929815Y-120842539D01*
X66877011Y-120888294D01*
X66825500Y-120899500D01*
X61920943Y-120899500D01*
X61768216Y-120940423D01*
X61768209Y-120940426D01*
X61631290Y-121019475D01*
X61631282Y-121019481D01*
X61519481Y-121131282D01*
X61519475Y-121131290D01*
X61440426Y-121268209D01*
X61440423Y-121268216D01*
X61399500Y-121420943D01*
X61399500Y-124275500D01*
X61379815Y-124342539D01*
X61327011Y-124388294D01*
X61275500Y-124399500D01*
X59370943Y-124399500D01*
X59218216Y-124440423D01*
X59218209Y-124440426D01*
X59081290Y-124519475D01*
X59081282Y-124519481D01*
X58969481Y-124631282D01*
X58969475Y-124631290D01*
X58890426Y-124768209D01*
X58890423Y-124768216D01*
X58849500Y-124920943D01*
X58849500Y-125777913D01*
X58829815Y-125844952D01*
X58784015Y-125884637D01*
X58785052Y-125886481D01*
X58777658Y-125890638D01*
X58657077Y-125982077D01*
X58565639Y-126102656D01*
X58510122Y-126243438D01*
X58504188Y-126292853D01*
X58499500Y-126331898D01*
X56378294Y-126331898D01*
X56380276Y-126314308D01*
X56380276Y-126314307D01*
X56394602Y-126187152D01*
X56400500Y-126134809D01*
X56400500Y-125865191D01*
X56370312Y-125597268D01*
X56310316Y-125334409D01*
X56309404Y-125331804D01*
X56264799Y-125204328D01*
X56221267Y-125079921D01*
X56104284Y-124837003D01*
X55960838Y-124608711D01*
X55792734Y-124397915D01*
X55602085Y-124207266D01*
X55391289Y-124039162D01*
X55185474Y-123909839D01*
X55162994Y-123895714D01*
X54920082Y-123778734D01*
X54665602Y-123689687D01*
X54665594Y-123689684D01*
X54455855Y-123641813D01*
X54402732Y-123629688D01*
X54402728Y-123629687D01*
X54402719Y-123629686D01*
X54134813Y-123599500D01*
X54134809Y-123599500D01*
X53865191Y-123599500D01*
X53865186Y-123599500D01*
X53597280Y-123629686D01*
X53597268Y-123629688D01*
X53334405Y-123689684D01*
X53334397Y-123689687D01*
X53079917Y-123778734D01*
X52837005Y-123895714D01*
X52608712Y-124039161D01*
X52397915Y-124207265D01*
X52207265Y-124397915D01*
X52039161Y-124608712D01*
X51895714Y-124837005D01*
X51778734Y-125079917D01*
X51689687Y-125334397D01*
X51689684Y-125334405D01*
X51629688Y-125597268D01*
X51629686Y-125597280D01*
X51599500Y-125865186D01*
X50600000Y-125865186D01*
X50600000Y-113865186D01*
X51599500Y-113865186D01*
X51599500Y-114134813D01*
X51629686Y-114402719D01*
X51629688Y-114402731D01*
X51689684Y-114665594D01*
X51689687Y-114665602D01*
X51778734Y-114920082D01*
X51895714Y-115162994D01*
X51895716Y-115162997D01*
X52039162Y-115391289D01*
X52207266Y-115602085D01*
X52397915Y-115792734D01*
X52608711Y-115960838D01*
X52837003Y-116104284D01*
X53079921Y-116221267D01*
X53241072Y-116277656D01*
X53334397Y-116310312D01*
X53334405Y-116310315D01*
X53334408Y-116310315D01*
X53334409Y-116310316D01*
X53597268Y-116370312D01*
X53865187Y-116400499D01*
X53865188Y-116400500D01*
X53865191Y-116400500D01*
X54134812Y-116400500D01*
X54134812Y-116400499D01*
X54402732Y-116370312D01*
X54665591Y-116310316D01*
X54920079Y-116221267D01*
X55162997Y-116104284D01*
X55391289Y-115960838D01*
X55602085Y-115792734D01*
X55792734Y-115602085D01*
X55960838Y-115391289D01*
X56104284Y-115162997D01*
X56221267Y-114920079D01*
X56310316Y-114665591D01*
X56370312Y-114402732D01*
X56400500Y-114134809D01*
X56400500Y-113865191D01*
X56370312Y-113597268D01*
X56310316Y-113334409D01*
X56221267Y-113079921D01*
X56104284Y-112837003D01*
X55960838Y-112608711D01*
X55868604Y-112493053D01*
X60910000Y-112493053D01*
X60920613Y-112581443D01*
X60976079Y-112722095D01*
X61067435Y-112842564D01*
X61187904Y-112933920D01*
X61328556Y-112989386D01*
X61416946Y-113000000D01*
X61610000Y-113000000D01*
X61610000Y-112200000D01*
X60910000Y-112200000D01*
X60910000Y-112493053D01*
X55868604Y-112493053D01*
X55792734Y-112397915D01*
X55602085Y-112207266D01*
X55391289Y-112039162D01*
X55162997Y-111895716D01*
X55162994Y-111895714D01*
X54920082Y-111778734D01*
X54665602Y-111689687D01*
X54665594Y-111689684D01*
X54468446Y-111644687D01*
X54402732Y-111629688D01*
X54402728Y-111629687D01*
X54402719Y-111629686D01*
X54374034Y-111626454D01*
X54134813Y-111599500D01*
X54134809Y-111599500D01*
X53865191Y-111599500D01*
X53865186Y-111599500D01*
X53597280Y-111629686D01*
X53597268Y-111629688D01*
X53334405Y-111689684D01*
X53334397Y-111689687D01*
X53079917Y-111778734D01*
X52837005Y-111895714D01*
X52608712Y-112039161D01*
X52397915Y-112207265D01*
X52207265Y-112397915D01*
X52039161Y-112608712D01*
X51895714Y-112837005D01*
X51778734Y-113079917D01*
X51689687Y-113334397D01*
X51689684Y-113334405D01*
X51629688Y-113597268D01*
X51629686Y-113597280D01*
X51599500Y-113865186D01*
X50600000Y-113865186D01*
X50600000Y-111506946D01*
X60910000Y-111506946D01*
X60910000Y-111800000D01*
X61610000Y-111800000D01*
X61610000Y-111000000D01*
X61416946Y-111000000D01*
X61328556Y-111010613D01*
X61187904Y-111066079D01*
X61067435Y-111157435D01*
X60976079Y-111277904D01*
X60920613Y-111418556D01*
X60910000Y-111506946D01*
X50600000Y-111506946D01*
X50600000Y-109818995D01*
X58299499Y-109818995D01*
X58326418Y-109954322D01*
X58326421Y-109954332D01*
X58379221Y-110081804D01*
X58379228Y-110081817D01*
X58455885Y-110196541D01*
X58455888Y-110196545D01*
X58553454Y-110294111D01*
X58553458Y-110294114D01*
X58668182Y-110370771D01*
X58668195Y-110370778D01*
X58795667Y-110423578D01*
X58795672Y-110423580D01*
X58795676Y-110423580D01*
X58795677Y-110423581D01*
X58931004Y-110450500D01*
X58931007Y-110450500D01*
X59068995Y-110450500D01*
X59160041Y-110432389D01*
X59204328Y-110423580D01*
X59331811Y-110370775D01*
X59446542Y-110294114D01*
X59478836Y-110261820D01*
X59540158Y-110228334D01*
X59566518Y-110225500D01*
X61872599Y-110225500D01*
X61872601Y-110225500D01*
X61993536Y-110193095D01*
X62101964Y-110130495D01*
X62190495Y-110041964D01*
X62190499Y-110041956D01*
X62192478Y-110039378D01*
X62194714Y-110037744D01*
X62196243Y-110036216D01*
X62196481Y-110036454D01*
X62248900Y-109998168D01*
X62276081Y-109991736D01*
X62291564Y-109989877D01*
X62432342Y-109934361D01*
X62552922Y-109842922D01*
X62644361Y-109722342D01*
X62694646Y-109594826D01*
X62737551Y-109539685D01*
X62803459Y-109516492D01*
X62871443Y-109532612D01*
X62919920Y-109582929D01*
X62925348Y-109594814D01*
X62960652Y-109684339D01*
X62975639Y-109722343D01*
X63067077Y-109842922D01*
X63187656Y-109934360D01*
X63187657Y-109934360D01*
X63187658Y-109934361D01*
X63328436Y-109989877D01*
X63343915Y-109991735D01*
X63408129Y-110019269D01*
X63427511Y-110039365D01*
X63429504Y-110041962D01*
X63429505Y-110041964D01*
X63518036Y-110130495D01*
X63626464Y-110193095D01*
X63747399Y-110225500D01*
X63872601Y-110225500D01*
X66020500Y-110225500D01*
X66087539Y-110245185D01*
X66133294Y-110297989D01*
X66144500Y-110349500D01*
X66144500Y-112257642D01*
X66124815Y-112324681D01*
X66072011Y-112370436D01*
X66020500Y-112381642D01*
X64834500Y-112381642D01*
X64767461Y-112361957D01*
X64721706Y-112309153D01*
X64710500Y-112257642D01*
X64710500Y-111506903D01*
X64710500Y-111506898D01*
X64699877Y-111418436D01*
X64644361Y-111277658D01*
X64644360Y-111277657D01*
X64644360Y-111277656D01*
X64552922Y-111157077D01*
X64432343Y-111065639D01*
X64336192Y-111027722D01*
X64291564Y-111010123D01*
X64291563Y-111010122D01*
X64291561Y-111010122D01*
X64245926Y-111004642D01*
X64203102Y-110999500D01*
X63416898Y-110999500D01*
X63377853Y-111004188D01*
X63328438Y-111010122D01*
X63187656Y-111065639D01*
X63067077Y-111157077D01*
X62975639Y-111277656D01*
X62925086Y-111405852D01*
X62882180Y-111460996D01*
X62816272Y-111484189D01*
X62748287Y-111468068D01*
X62699811Y-111417752D01*
X62694376Y-111405852D01*
X62643920Y-111277904D01*
X62552564Y-111157435D01*
X62432095Y-111066079D01*
X62291443Y-111010613D01*
X62203054Y-111000000D01*
X62010000Y-111000000D01*
X62010000Y-113000000D01*
X62203054Y-113000000D01*
X62291443Y-112989386D01*
X62432095Y-112933920D01*
X62552564Y-112842564D01*
X62643920Y-112722095D01*
X62694376Y-112594147D01*
X62737282Y-112539003D01*
X62803190Y-112515810D01*
X62871174Y-112531930D01*
X62919651Y-112582247D01*
X62925079Y-112594132D01*
X62944186Y-112642582D01*
X62975639Y-112722343D01*
X63067077Y-112842922D01*
X63187658Y-112934361D01*
X63187660Y-112934362D01*
X63300325Y-112978792D01*
X63355469Y-113021697D01*
X63362300Y-113033952D01*
X63362842Y-113033640D01*
X63366904Y-113040676D01*
X63366905Y-113040678D01*
X63429505Y-113149106D01*
X63518036Y-113237637D01*
X63626464Y-113300237D01*
X63747399Y-113332642D01*
X63872601Y-113332642D01*
X66020500Y-113332642D01*
X66087539Y-113352327D01*
X66133294Y-113405131D01*
X66144500Y-113456642D01*
X66144500Y-114004909D01*
X66124815Y-114071948D01*
X66108181Y-114092590D01*
X66075888Y-114124882D01*
X66075885Y-114124886D01*
X65999228Y-114239610D01*
X65999221Y-114239623D01*
X65946421Y-114367095D01*
X65946418Y-114367105D01*
X65919500Y-114502432D01*
X65919500Y-114502435D01*
X65919500Y-114640421D01*
X65919500Y-114640423D01*
X65919499Y-114640423D01*
X65946418Y-114775750D01*
X65946421Y-114775760D01*
X65999221Y-114903232D01*
X65999228Y-114903245D01*
X66075885Y-115017969D01*
X66075888Y-115017973D01*
X66173454Y-115115539D01*
X66173458Y-115115542D01*
X66288182Y-115192199D01*
X66288195Y-115192206D01*
X66397669Y-115237551D01*
X66415672Y-115245008D01*
X66415676Y-115245008D01*
X66415677Y-115245009D01*
X66551004Y-115271928D01*
X66551007Y-115271928D01*
X66688995Y-115271928D01*
X66806486Y-115248557D01*
X66824328Y-115245008D01*
X66933284Y-115199877D01*
X66951804Y-115192206D01*
X66951804Y-115192205D01*
X66951811Y-115192203D01*
X67066542Y-115115542D01*
X67164114Y-115017970D01*
X67240775Y-114903239D01*
X67293580Y-114775756D01*
X67315493Y-114665594D01*
X67320500Y-114640423D01*
X67320500Y-114502432D01*
X67293581Y-114367105D01*
X67293580Y-114367104D01*
X67293580Y-114367100D01*
X67268916Y-114307555D01*
X67240778Y-114239623D01*
X67240771Y-114239610D01*
X67164114Y-114124886D01*
X67164111Y-114124882D01*
X67131819Y-114092590D01*
X67098334Y-114031267D01*
X67095500Y-114004909D01*
X67095500Y-109687400D01*
X67093786Y-109681004D01*
X67063095Y-109566464D01*
X67000495Y-109458036D01*
X66911964Y-109369505D01*
X66803536Y-109306905D01*
X66803537Y-109306905D01*
X66763224Y-109296103D01*
X66682601Y-109274500D01*
X66682599Y-109274500D01*
X64834500Y-109274500D01*
X64767461Y-109254815D01*
X64721706Y-109202011D01*
X64710500Y-109150500D01*
X64710500Y-108506903D01*
X64710500Y-108506898D01*
X64699877Y-108418436D01*
X64644361Y-108277658D01*
X64644360Y-108277657D01*
X64644360Y-108277656D01*
X64552922Y-108157077D01*
X64432343Y-108065639D01*
X64291561Y-108010122D01*
X64245926Y-108004642D01*
X64203102Y-107999500D01*
X63416898Y-107999500D01*
X63377853Y-108004188D01*
X63328438Y-108010122D01*
X63187656Y-108065639D01*
X63067077Y-108157077D01*
X62975639Y-108277656D01*
X62965750Y-108302734D01*
X62925353Y-108405171D01*
X62882449Y-108460314D01*
X62816541Y-108483507D01*
X62748556Y-108467386D01*
X62700080Y-108417070D01*
X62694648Y-108405178D01*
X62644361Y-108277658D01*
X62644360Y-108277657D01*
X62644360Y-108277656D01*
X62552922Y-108157077D01*
X62432343Y-108065639D01*
X62291561Y-108010122D01*
X62245926Y-108004642D01*
X62203102Y-107999500D01*
X61416898Y-107999500D01*
X61377853Y-108004188D01*
X61328438Y-108010122D01*
X61187656Y-108065639D01*
X61067077Y-108157077D01*
X60975639Y-108277656D01*
X60920122Y-108418438D01*
X60915814Y-108454319D01*
X60909500Y-108506898D01*
X60909500Y-108506903D01*
X60909500Y-109150500D01*
X60889815Y-109217539D01*
X60837011Y-109263294D01*
X60785500Y-109274500D01*
X59566518Y-109274500D01*
X59499479Y-109254815D01*
X59478836Y-109238180D01*
X59446545Y-109205888D01*
X59446541Y-109205885D01*
X59331817Y-109129228D01*
X59331804Y-109129221D01*
X59204332Y-109076421D01*
X59204322Y-109076418D01*
X59068995Y-109049500D01*
X59068993Y-109049500D01*
X58931007Y-109049500D01*
X58931005Y-109049500D01*
X58795677Y-109076418D01*
X58795667Y-109076421D01*
X58668195Y-109129221D01*
X58668182Y-109129228D01*
X58553458Y-109205885D01*
X58553454Y-109205888D01*
X58455888Y-109303454D01*
X58455885Y-109303458D01*
X58379228Y-109418182D01*
X58379221Y-109418195D01*
X58326421Y-109545667D01*
X58326418Y-109545677D01*
X58299500Y-109681004D01*
X58299500Y-109681007D01*
X58299500Y-109818993D01*
X58299500Y-109818995D01*
X58299499Y-109818995D01*
X50600000Y-109818995D01*
X50600000Y-94105131D01*
X55849500Y-94105131D01*
X55849500Y-95894856D01*
X55849502Y-95894882D01*
X55852413Y-95919987D01*
X55852415Y-95919991D01*
X55897793Y-96022764D01*
X55897794Y-96022765D01*
X55977235Y-96102206D01*
X56080009Y-96147585D01*
X56105135Y-96150500D01*
X56846073Y-96150499D01*
X56913111Y-96170183D01*
X56958866Y-96222987D01*
X56968810Y-96292146D01*
X56939785Y-96355702D01*
X56881007Y-96393476D01*
X56865470Y-96396972D01*
X56730706Y-96418316D01*
X56558555Y-96474251D01*
X56558552Y-96474252D01*
X56397270Y-96556431D01*
X56397268Y-96556432D01*
X56340511Y-96597667D01*
X56340511Y-96597668D01*
X56814823Y-97071980D01*
X56807007Y-97074075D01*
X56692993Y-97139901D01*
X56599901Y-97232993D01*
X56534075Y-97347007D01*
X56531980Y-97354823D01*
X56057668Y-96880511D01*
X56057667Y-96880511D01*
X56016432Y-96937268D01*
X56016431Y-96937270D01*
X55934252Y-97098552D01*
X55934251Y-97098555D01*
X55878317Y-97270706D01*
X55850000Y-97449493D01*
X55850000Y-97630506D01*
X55878317Y-97809293D01*
X55934251Y-97981444D01*
X55934252Y-97981447D01*
X56016434Y-98142734D01*
X56057667Y-98199487D01*
X56057668Y-98199487D01*
X56531980Y-97725176D01*
X56534075Y-97732993D01*
X56599901Y-97847007D01*
X56692993Y-97940099D01*
X56807007Y-98005925D01*
X56814822Y-98008019D01*
X56340510Y-98482330D01*
X56340511Y-98482331D01*
X56397265Y-98523565D01*
X56558552Y-98605747D01*
X56558555Y-98605748D01*
X56730706Y-98661682D01*
X56892279Y-98687273D01*
X56955413Y-98717202D01*
X56992345Y-98776513D01*
X56991347Y-98846376D01*
X56952738Y-98904609D01*
X56892280Y-98932219D01*
X56730589Y-98957829D01*
X56558363Y-99013787D01*
X56558360Y-99013788D01*
X56397002Y-99096006D01*
X56250505Y-99202441D01*
X56250500Y-99202445D01*
X56122445Y-99330500D01*
X56122441Y-99330505D01*
X56016006Y-99477002D01*
X55933788Y-99638360D01*
X55933787Y-99638363D01*
X55877829Y-99810589D01*
X55849500Y-99989448D01*
X55849500Y-100170551D01*
X55877829Y-100349410D01*
X55933787Y-100521636D01*
X55933788Y-100521639D01*
X55961072Y-100575185D01*
X56000331Y-100652235D01*
X56016006Y-100682997D01*
X56122441Y-100829494D01*
X56122445Y-100829499D01*
X56250500Y-100957554D01*
X56250505Y-100957558D01*
X56327220Y-101013294D01*
X56397006Y-101063996D01*
X56502484Y-101117740D01*
X56558360Y-101146211D01*
X56558363Y-101146212D01*
X56644476Y-101174191D01*
X56730591Y-101202171D01*
X56803639Y-101213740D01*
X56890678Y-101227527D01*
X56953813Y-101257456D01*
X56990744Y-101316768D01*
X56989746Y-101386631D01*
X56951136Y-101444863D01*
X56890678Y-101472473D01*
X56730589Y-101497829D01*
X56558363Y-101553787D01*
X56558360Y-101553788D01*
X56397002Y-101636006D01*
X56250505Y-101742441D01*
X56250500Y-101742445D01*
X56122445Y-101870500D01*
X56122441Y-101870505D01*
X56016006Y-102017002D01*
X55933788Y-102178360D01*
X55933787Y-102178363D01*
X55877829Y-102350589D01*
X55849500Y-102529448D01*
X55849500Y-102710551D01*
X55877829Y-102889410D01*
X55933787Y-103061636D01*
X55933788Y-103061639D01*
X56016006Y-103222997D01*
X56122441Y-103369494D01*
X56122445Y-103369499D01*
X56250500Y-103497554D01*
X56250505Y-103497558D01*
X56340030Y-103562601D01*
X56397006Y-103603996D01*
X56502484Y-103657740D01*
X56558360Y-103686211D01*
X56558363Y-103686212D01*
X56644476Y-103714191D01*
X56730591Y-103742171D01*
X56803639Y-103753740D01*
X56890678Y-103767527D01*
X56953813Y-103797456D01*
X56990744Y-103856768D01*
X56989746Y-103926631D01*
X56951136Y-103984863D01*
X56890678Y-104012473D01*
X56730589Y-104037829D01*
X56558363Y-104093787D01*
X56558360Y-104093788D01*
X56397002Y-104176006D01*
X56250505Y-104282441D01*
X56250500Y-104282445D01*
X56122445Y-104410500D01*
X56122441Y-104410505D01*
X56016006Y-104557002D01*
X55933788Y-104718360D01*
X55933787Y-104718363D01*
X55877829Y-104890589D01*
X55849500Y-105069448D01*
X55849500Y-105250551D01*
X55877829Y-105429410D01*
X55933787Y-105601636D01*
X55933788Y-105601639D01*
X55989664Y-105711300D01*
X56014733Y-105760500D01*
X56016006Y-105762997D01*
X56122441Y-105909494D01*
X56122445Y-105909499D01*
X56250500Y-106037554D01*
X56250505Y-106037558D01*
X56341039Y-106103334D01*
X56397006Y-106143996D01*
X56502484Y-106197740D01*
X56558360Y-106226211D01*
X56558363Y-106226212D01*
X56644476Y-106254191D01*
X56730591Y-106282171D01*
X56850038Y-106301089D01*
X56892279Y-106307780D01*
X56955414Y-106337709D01*
X56992345Y-106397021D01*
X56991347Y-106466883D01*
X56952737Y-106525116D01*
X56892279Y-106552726D01*
X56730706Y-106578317D01*
X56558555Y-106634251D01*
X56558552Y-106634252D01*
X56397270Y-106716431D01*
X56397268Y-106716432D01*
X56340511Y-106757667D01*
X56340511Y-106757668D01*
X56814823Y-107231980D01*
X56807007Y-107234075D01*
X56692993Y-107299901D01*
X56599901Y-107392993D01*
X56534075Y-107507007D01*
X56531980Y-107514823D01*
X56057668Y-107040511D01*
X56057667Y-107040511D01*
X56016432Y-107097268D01*
X56016431Y-107097270D01*
X55934252Y-107258552D01*
X55934251Y-107258555D01*
X55878317Y-107430706D01*
X55850000Y-107609493D01*
X55850000Y-107790506D01*
X55878317Y-107969293D01*
X55934251Y-108141444D01*
X55934252Y-108141447D01*
X56016434Y-108302734D01*
X56057667Y-108359487D01*
X56057668Y-108359487D01*
X56531980Y-107885176D01*
X56534075Y-107892993D01*
X56599901Y-108007007D01*
X56692993Y-108100099D01*
X56807007Y-108165925D01*
X56814822Y-108168019D01*
X56340510Y-108642330D01*
X56340511Y-108642331D01*
X56397265Y-108683565D01*
X56558552Y-108765747D01*
X56558555Y-108765748D01*
X56730706Y-108821682D01*
X56909494Y-108850000D01*
X57090506Y-108850000D01*
X57269293Y-108821682D01*
X57441444Y-108765748D01*
X57441447Y-108765747D01*
X57602730Y-108683568D01*
X57659487Y-108642330D01*
X57659488Y-108642329D01*
X57185178Y-108168019D01*
X57192993Y-108165925D01*
X57307007Y-108100099D01*
X57400099Y-108007007D01*
X57465925Y-107892993D01*
X57468019Y-107885177D01*
X57942329Y-108359488D01*
X57942330Y-108359487D01*
X57983568Y-108302730D01*
X58065747Y-108141447D01*
X58065748Y-108141444D01*
X58121682Y-107969293D01*
X58150000Y-107790506D01*
X58150000Y-107609493D01*
X58121682Y-107430706D01*
X58065748Y-107258555D01*
X58065747Y-107258552D01*
X57983565Y-107097265D01*
X57942331Y-107040511D01*
X57942330Y-107040510D01*
X57468018Y-107514821D01*
X57465925Y-107507007D01*
X57400099Y-107392993D01*
X57307007Y-107299901D01*
X57192993Y-107234075D01*
X57185176Y-107231980D01*
X57659487Y-106757668D01*
X57659487Y-106757667D01*
X57602734Y-106716434D01*
X57441447Y-106634252D01*
X57441444Y-106634251D01*
X57269293Y-106578317D01*
X57107720Y-106552726D01*
X57044585Y-106522797D01*
X57007654Y-106463485D01*
X57008652Y-106393623D01*
X57047262Y-106335390D01*
X57107720Y-106307780D01*
X57122270Y-106305475D01*
X57269409Y-106282171D01*
X57441639Y-106226211D01*
X57602994Y-106143996D01*
X57749501Y-106037553D01*
X57877553Y-105909501D01*
X57948670Y-105811615D01*
X58004000Y-105768949D01*
X58048989Y-105760500D01*
X75385410Y-105760500D01*
X75452449Y-105780185D01*
X75492797Y-105822500D01*
X75519477Y-105868712D01*
X75519479Y-105868715D01*
X75519480Y-105868716D01*
X75631284Y-105980520D01*
X75631286Y-105980521D01*
X75631290Y-105980524D01*
X75768209Y-106059573D01*
X75768216Y-106059577D01*
X75920943Y-106100500D01*
X78169572Y-106100500D01*
X78236611Y-106120185D01*
X78257253Y-106136819D01*
X78378151Y-106257717D01*
X78378155Y-106257720D01*
X78537927Y-106364477D01*
X78537928Y-106364477D01*
X78537929Y-106364478D01*
X78537931Y-106364479D01*
X78589185Y-106385709D01*
X78643589Y-106429549D01*
X78665654Y-106495843D01*
X78648375Y-106563543D01*
X78597238Y-106611154D01*
X78589187Y-106614830D01*
X78538172Y-106635961D01*
X78538157Y-106635969D01*
X78378473Y-106742667D01*
X78378469Y-106742670D01*
X78242670Y-106878469D01*
X78242667Y-106878473D01*
X78135969Y-107038157D01*
X78135964Y-107038166D01*
X78062469Y-107215600D01*
X78062466Y-107215610D01*
X78045680Y-107299999D01*
X78045681Y-107300000D01*
X78653589Y-107300000D01*
X78627259Y-107345606D01*
X78600000Y-107447339D01*
X78600000Y-107552661D01*
X78627259Y-107654394D01*
X78653590Y-107700000D01*
X78045680Y-107700000D01*
X78062466Y-107784389D01*
X78062469Y-107784399D01*
X78135964Y-107961833D01*
X78135969Y-107961842D01*
X78242667Y-108121526D01*
X78242670Y-108121530D01*
X78378469Y-108257329D01*
X78378473Y-108257332D01*
X78538157Y-108364030D01*
X78538166Y-108364035D01*
X78715600Y-108437530D01*
X78715610Y-108437533D01*
X78799999Y-108454319D01*
X78800000Y-108454319D01*
X78800000Y-107846410D01*
X78845606Y-107872741D01*
X78947339Y-107900000D01*
X79052661Y-107900000D01*
X79154394Y-107872741D01*
X79200000Y-107846410D01*
X79200000Y-108454319D01*
X79284389Y-108437533D01*
X79284399Y-108437530D01*
X79461833Y-108364035D01*
X79461842Y-108364030D01*
X79621526Y-108257332D01*
X79621530Y-108257329D01*
X79757329Y-108121530D01*
X79757332Y-108121526D01*
X79864030Y-107961842D01*
X79864035Y-107961833D01*
X79937530Y-107784399D01*
X79937533Y-107784389D01*
X79954319Y-107700000D01*
X79346410Y-107700000D01*
X79372741Y-107654394D01*
X79400000Y-107552661D01*
X79400000Y-107447339D01*
X79372741Y-107345606D01*
X79346411Y-107300000D01*
X79954319Y-107300000D01*
X79954319Y-107299999D01*
X79937533Y-107215610D01*
X79937530Y-107215600D01*
X79864035Y-107038166D01*
X79864030Y-107038157D01*
X79757332Y-106878473D01*
X79757329Y-106878469D01*
X79621530Y-106742670D01*
X79621526Y-106742667D01*
X79461842Y-106635969D01*
X79461832Y-106635964D01*
X79410813Y-106614831D01*
X79356409Y-106570989D01*
X79334345Y-106504695D01*
X79351625Y-106436996D01*
X79402762Y-106389386D01*
X79410799Y-106385715D01*
X79462073Y-106364477D01*
X79621845Y-106257720D01*
X79653354Y-106226211D01*
X79742747Y-106136819D01*
X79804070Y-106103334D01*
X79830428Y-106100500D01*
X81079055Y-106100500D01*
X81079057Y-106100500D01*
X81231784Y-106059577D01*
X81368716Y-105980520D01*
X81480520Y-105868716D01*
X81507203Y-105822500D01*
X81557770Y-105774285D01*
X81614590Y-105760500D01*
X88951011Y-105760500D01*
X89018050Y-105780185D01*
X89051330Y-105811616D01*
X89122443Y-105909497D01*
X89250500Y-106037554D01*
X89250505Y-106037558D01*
X89341039Y-106103334D01*
X89397006Y-106143996D01*
X89502484Y-106197740D01*
X89558360Y-106226211D01*
X89558363Y-106226212D01*
X89644476Y-106254191D01*
X89730591Y-106282171D01*
X89850038Y-106301089D01*
X89892279Y-106307780D01*
X89955414Y-106337709D01*
X89992345Y-106397021D01*
X89991347Y-106466883D01*
X89952737Y-106525116D01*
X89892279Y-106552726D01*
X89730706Y-106578317D01*
X89558555Y-106634251D01*
X89558552Y-106634252D01*
X89397270Y-106716431D01*
X89397268Y-106716432D01*
X89340511Y-106757667D01*
X89340511Y-106757668D01*
X89814823Y-107231980D01*
X89807007Y-107234075D01*
X89692993Y-107299901D01*
X89599901Y-107392993D01*
X89534075Y-107507007D01*
X89531980Y-107514823D01*
X89057668Y-107040511D01*
X89057667Y-107040511D01*
X89016432Y-107097268D01*
X89016431Y-107097270D01*
X88934252Y-107258552D01*
X88934251Y-107258555D01*
X88878317Y-107430706D01*
X88850000Y-107609493D01*
X88850000Y-107790506D01*
X88878317Y-107969293D01*
X88934251Y-108141444D01*
X88934252Y-108141447D01*
X89016434Y-108302734D01*
X89057667Y-108359487D01*
X89057668Y-108359487D01*
X89531980Y-107885176D01*
X89534075Y-107892993D01*
X89599901Y-108007007D01*
X89692993Y-108100099D01*
X89807007Y-108165925D01*
X89814822Y-108168019D01*
X89340510Y-108642330D01*
X89340511Y-108642331D01*
X89397265Y-108683565D01*
X89558552Y-108765747D01*
X89558555Y-108765748D01*
X89730706Y-108821682D01*
X89909494Y-108850000D01*
X90090506Y-108850000D01*
X90269293Y-108821682D01*
X90441444Y-108765748D01*
X90441447Y-108765747D01*
X90602730Y-108683568D01*
X90659487Y-108642330D01*
X90659488Y-108642329D01*
X90185178Y-108168019D01*
X90192993Y-108165925D01*
X90307007Y-108100099D01*
X90400099Y-108007007D01*
X90465925Y-107892993D01*
X90468019Y-107885177D01*
X90942329Y-108359488D01*
X90942330Y-108359487D01*
X90983568Y-108302730D01*
X91065747Y-108141447D01*
X91065748Y-108141444D01*
X91121682Y-107969293D01*
X91150000Y-107790506D01*
X91150000Y-107609493D01*
X91121682Y-107430706D01*
X91065748Y-107258555D01*
X91065747Y-107258552D01*
X90983565Y-107097265D01*
X90942331Y-107040511D01*
X90942330Y-107040510D01*
X90468018Y-107514821D01*
X90465925Y-107507007D01*
X90400099Y-107392993D01*
X90307007Y-107299901D01*
X90192993Y-107234075D01*
X90185176Y-107231980D01*
X90659487Y-106757668D01*
X90659487Y-106757667D01*
X90602734Y-106716434D01*
X90441447Y-106634252D01*
X90441444Y-106634251D01*
X90269293Y-106578317D01*
X90107720Y-106552726D01*
X90044585Y-106522797D01*
X90007654Y-106463485D01*
X90008652Y-106393623D01*
X90047262Y-106335390D01*
X90107720Y-106307780D01*
X90122270Y-106305475D01*
X90269409Y-106282171D01*
X90441639Y-106226211D01*
X90602994Y-106143996D01*
X90749501Y-106037553D01*
X90877553Y-105909501D01*
X90983996Y-105762994D01*
X91066211Y-105601639D01*
X91122171Y-105429409D01*
X91136765Y-105337259D01*
X91150500Y-105250551D01*
X91150500Y-105069448D01*
X91134019Y-104965397D01*
X91122171Y-104890591D01*
X91089904Y-104791282D01*
X91066212Y-104718363D01*
X91066211Y-104718360D01*
X91037740Y-104662484D01*
X90983996Y-104557006D01*
X90924779Y-104475500D01*
X90877558Y-104410505D01*
X90877554Y-104410500D01*
X90749499Y-104282445D01*
X90749494Y-104282441D01*
X90602997Y-104176006D01*
X90602996Y-104176005D01*
X90602994Y-104176004D01*
X90551300Y-104149664D01*
X90441639Y-104093788D01*
X90441636Y-104093787D01*
X90269410Y-104037829D01*
X90109321Y-104012473D01*
X90046186Y-103982544D01*
X90009255Y-103923232D01*
X90010253Y-103853370D01*
X90048863Y-103795137D01*
X90109321Y-103767527D01*
X90179425Y-103756422D01*
X90269409Y-103742171D01*
X90441639Y-103686211D01*
X90602994Y-103603996D01*
X90749501Y-103497553D01*
X90877553Y-103369501D01*
X90983996Y-103222994D01*
X91066211Y-103061639D01*
X91122171Y-102889409D01*
X91145474Y-102742280D01*
X91150500Y-102710551D01*
X91150500Y-102529448D01*
X91134019Y-102425397D01*
X91122171Y-102350591D01*
X91079695Y-102219862D01*
X91066212Y-102178363D01*
X91066211Y-102178360D01*
X91024832Y-102097151D01*
X90983996Y-102017006D01*
X90930297Y-101943095D01*
X90877558Y-101870505D01*
X90877554Y-101870500D01*
X90749499Y-101742445D01*
X90749494Y-101742441D01*
X90602997Y-101636006D01*
X90602996Y-101636005D01*
X90602994Y-101636004D01*
X90551300Y-101609664D01*
X90441639Y-101553788D01*
X90441636Y-101553787D01*
X90269410Y-101497829D01*
X90109321Y-101472473D01*
X90046186Y-101442544D01*
X90009255Y-101383232D01*
X90010253Y-101313370D01*
X90048863Y-101255137D01*
X90109321Y-101227527D01*
X90179425Y-101216422D01*
X90269409Y-101202171D01*
X90441639Y-101146211D01*
X90602994Y-101063996D01*
X90749501Y-100957553D01*
X90877553Y-100829501D01*
X90983996Y-100682994D01*
X91066211Y-100521639D01*
X91122171Y-100349409D01*
X91136765Y-100257259D01*
X91150500Y-100170551D01*
X91150500Y-99989448D01*
X91134019Y-99885397D01*
X91122171Y-99810591D01*
X91066211Y-99638361D01*
X91066211Y-99638360D01*
X91014460Y-99536795D01*
X90983996Y-99477006D01*
X90970396Y-99458287D01*
X90877558Y-99330505D01*
X90877554Y-99330500D01*
X90749499Y-99202445D01*
X90749494Y-99202441D01*
X90602997Y-99096006D01*
X90602996Y-99096005D01*
X90602994Y-99096004D01*
X90551300Y-99069664D01*
X90441639Y-99013788D01*
X90441636Y-99013787D01*
X90269410Y-98957828D01*
X90107720Y-98932219D01*
X90044585Y-98902289D01*
X90007654Y-98842978D01*
X90008652Y-98773115D01*
X90047262Y-98714883D01*
X90107721Y-98687273D01*
X90269292Y-98661683D01*
X90441444Y-98605748D01*
X90441447Y-98605747D01*
X90602730Y-98523568D01*
X90659487Y-98482330D01*
X90659488Y-98482329D01*
X90185178Y-98008019D01*
X90192993Y-98005925D01*
X90307007Y-97940099D01*
X90400099Y-97847007D01*
X90465925Y-97732993D01*
X90468019Y-97725177D01*
X90942329Y-98199488D01*
X90942330Y-98199487D01*
X90983568Y-98142730D01*
X91065747Y-97981447D01*
X91065748Y-97981444D01*
X91121682Y-97809293D01*
X91150000Y-97630506D01*
X91150000Y-97449493D01*
X91121682Y-97270706D01*
X91065748Y-97098555D01*
X91065747Y-97098552D01*
X90983565Y-96937265D01*
X90942331Y-96880511D01*
X90942330Y-96880510D01*
X90468018Y-97354821D01*
X90465925Y-97347007D01*
X90400099Y-97232993D01*
X90307007Y-97139901D01*
X90192993Y-97074075D01*
X90185176Y-97071980D01*
X90659487Y-96597668D01*
X90659487Y-96597667D01*
X90602734Y-96556434D01*
X90441447Y-96474252D01*
X90441444Y-96474251D01*
X90269293Y-96418317D01*
X90134528Y-96396972D01*
X90071393Y-96367043D01*
X90034462Y-96307731D01*
X90035460Y-96237869D01*
X90074070Y-96179636D01*
X90138034Y-96151522D01*
X90153919Y-96150499D01*
X90894864Y-96150499D01*
X90894879Y-96150497D01*
X90894882Y-96150497D01*
X90919987Y-96147586D01*
X90919988Y-96147585D01*
X90919991Y-96147585D01*
X91022765Y-96102206D01*
X91102206Y-96022765D01*
X91147585Y-95919991D01*
X91150500Y-95894865D01*
X91150499Y-94105136D01*
X91150499Y-94105135D01*
X91150499Y-94105131D01*
X110849500Y-94105131D01*
X110849500Y-95894856D01*
X110849502Y-95894882D01*
X110852413Y-95919987D01*
X110852415Y-95919991D01*
X110897793Y-96022764D01*
X110897794Y-96022765D01*
X110977235Y-96102206D01*
X111080009Y-96147585D01*
X111105135Y-96150500D01*
X111846073Y-96150499D01*
X111913111Y-96170183D01*
X111958866Y-96222987D01*
X111968810Y-96292146D01*
X111939785Y-96355702D01*
X111881007Y-96393476D01*
X111865470Y-96396972D01*
X111730706Y-96418316D01*
X111558555Y-96474251D01*
X111558552Y-96474252D01*
X111397270Y-96556431D01*
X111397268Y-96556432D01*
X111340511Y-96597667D01*
X111340511Y-96597668D01*
X111814823Y-97071980D01*
X111807007Y-97074075D01*
X111692993Y-97139901D01*
X111599901Y-97232993D01*
X111534075Y-97347007D01*
X111531980Y-97354823D01*
X111057668Y-96880511D01*
X111057667Y-96880511D01*
X111016432Y-96937268D01*
X111016431Y-96937270D01*
X110934252Y-97098552D01*
X110934251Y-97098555D01*
X110878317Y-97270706D01*
X110850000Y-97449493D01*
X110850000Y-97630506D01*
X110878317Y-97809293D01*
X110934251Y-97981444D01*
X110934252Y-97981447D01*
X111016434Y-98142734D01*
X111057667Y-98199487D01*
X111057668Y-98199487D01*
X111531980Y-97725176D01*
X111534075Y-97732993D01*
X111599901Y-97847007D01*
X111692993Y-97940099D01*
X111807007Y-98005925D01*
X111814822Y-98008019D01*
X111340510Y-98482330D01*
X111340511Y-98482331D01*
X111397265Y-98523565D01*
X111558552Y-98605747D01*
X111558555Y-98605748D01*
X111730706Y-98661682D01*
X111909494Y-98690000D01*
X112090506Y-98690000D01*
X112269293Y-98661682D01*
X112441444Y-98605748D01*
X112441447Y-98605747D01*
X112602730Y-98523568D01*
X112659487Y-98482330D01*
X112659488Y-98482329D01*
X112185178Y-98008019D01*
X112192993Y-98005925D01*
X112307007Y-97940099D01*
X112400099Y-97847007D01*
X112465925Y-97732993D01*
X112468019Y-97725177D01*
X112942329Y-98199488D01*
X112942330Y-98199487D01*
X112983568Y-98142730D01*
X113065747Y-97981447D01*
X113065748Y-97981444D01*
X113121682Y-97809293D01*
X113150000Y-97630506D01*
X113150000Y-97449493D01*
X113121682Y-97270706D01*
X113065748Y-97098555D01*
X113065747Y-97098552D01*
X112983565Y-96937265D01*
X112942331Y-96880511D01*
X112942330Y-96880510D01*
X112468018Y-97354821D01*
X112465925Y-97347007D01*
X112400099Y-97232993D01*
X112307007Y-97139901D01*
X112192993Y-97074075D01*
X112185176Y-97071980D01*
X112659487Y-96597668D01*
X112659487Y-96597667D01*
X112602734Y-96556434D01*
X112441447Y-96474252D01*
X112441444Y-96474251D01*
X112269293Y-96418317D01*
X112134528Y-96396972D01*
X112071393Y-96367043D01*
X112034462Y-96307731D01*
X112035460Y-96237869D01*
X112074070Y-96179636D01*
X112138034Y-96151522D01*
X112153919Y-96150499D01*
X112894864Y-96150499D01*
X112894879Y-96150497D01*
X112894882Y-96150497D01*
X112919987Y-96147586D01*
X112919988Y-96147585D01*
X112919991Y-96147585D01*
X113022765Y-96102206D01*
X113102206Y-96022765D01*
X113147585Y-95919991D01*
X113150500Y-95894865D01*
X113150499Y-94105136D01*
X113150497Y-94105117D01*
X113147586Y-94080012D01*
X113147585Y-94080010D01*
X113147585Y-94080009D01*
X113102206Y-93977235D01*
X113022765Y-93897794D01*
X113022763Y-93897793D01*
X112919992Y-93852415D01*
X112894865Y-93849500D01*
X111105143Y-93849500D01*
X111105117Y-93849502D01*
X111080012Y-93852413D01*
X111080008Y-93852415D01*
X110977235Y-93897793D01*
X110897794Y-93977234D01*
X110852415Y-94080006D01*
X110852415Y-94080008D01*
X110849500Y-94105131D01*
X91150499Y-94105131D01*
X91150499Y-94105130D01*
X91147586Y-94080012D01*
X91147585Y-94080010D01*
X91147585Y-94080009D01*
X91102206Y-93977235D01*
X91022765Y-93897794D01*
X91022763Y-93897793D01*
X90919992Y-93852415D01*
X90894865Y-93849500D01*
X89105143Y-93849500D01*
X89105117Y-93849502D01*
X89080012Y-93852413D01*
X89080008Y-93852415D01*
X88977235Y-93897793D01*
X88897794Y-93977234D01*
X88852415Y-94080006D01*
X88852415Y-94080008D01*
X88849500Y-94105131D01*
X88849500Y-95894856D01*
X88849502Y-95894882D01*
X88852413Y-95919987D01*
X88852415Y-95919991D01*
X88897793Y-96022764D01*
X88897794Y-96022765D01*
X88977235Y-96102206D01*
X89080009Y-96147585D01*
X89105135Y-96150500D01*
X89846073Y-96150499D01*
X89913111Y-96170183D01*
X89958866Y-96222987D01*
X89968810Y-96292146D01*
X89939785Y-96355702D01*
X89881007Y-96393476D01*
X89865470Y-96396972D01*
X89730706Y-96418316D01*
X89558555Y-96474251D01*
X89558552Y-96474252D01*
X89397270Y-96556431D01*
X89397268Y-96556432D01*
X89340511Y-96597667D01*
X89340511Y-96597668D01*
X89814823Y-97071980D01*
X89807007Y-97074075D01*
X89692993Y-97139901D01*
X89599901Y-97232993D01*
X89534075Y-97347007D01*
X89531980Y-97354823D01*
X89057668Y-96880511D01*
X89057667Y-96880511D01*
X89016432Y-96937268D01*
X89016431Y-96937270D01*
X88934252Y-97098552D01*
X88934251Y-97098555D01*
X88878317Y-97270706D01*
X88850000Y-97449493D01*
X88850000Y-97630506D01*
X88878317Y-97809293D01*
X88934251Y-97981444D01*
X88934252Y-97981447D01*
X89016434Y-98142734D01*
X89057667Y-98199487D01*
X89057668Y-98199487D01*
X89531980Y-97725176D01*
X89534075Y-97732993D01*
X89599901Y-97847007D01*
X89692993Y-97940099D01*
X89807007Y-98005925D01*
X89814822Y-98008019D01*
X89340510Y-98482330D01*
X89340511Y-98482331D01*
X89397265Y-98523565D01*
X89558552Y-98605747D01*
X89558555Y-98605748D01*
X89730706Y-98661682D01*
X89892279Y-98687273D01*
X89955413Y-98717202D01*
X89992345Y-98776513D01*
X89991347Y-98846376D01*
X89952738Y-98904609D01*
X89892280Y-98932219D01*
X89730589Y-98957829D01*
X89558363Y-99013787D01*
X89558360Y-99013788D01*
X89397002Y-99096006D01*
X89250505Y-99202441D01*
X89250500Y-99202445D01*
X89122445Y-99330500D01*
X89122441Y-99330505D01*
X89016006Y-99477002D01*
X88985540Y-99536795D01*
X88937565Y-99587591D01*
X88875055Y-99604500D01*
X81062601Y-99604500D01*
X80937399Y-99604500D01*
X80856775Y-99626103D01*
X80816463Y-99636905D01*
X80708037Y-99699504D01*
X80708034Y-99699506D01*
X80619506Y-99788034D01*
X80619504Y-99788037D01*
X80556905Y-99896463D01*
X80524500Y-100017400D01*
X80524500Y-100900500D01*
X80504815Y-100967539D01*
X80452011Y-101013294D01*
X80400500Y-101024500D01*
X80099499Y-101024500D01*
X80032460Y-101004815D01*
X79986705Y-100952011D01*
X79975499Y-100900500D01*
X79975499Y-100780143D01*
X79975499Y-100780136D01*
X79975497Y-100780117D01*
X79972586Y-100755012D01*
X79972585Y-100755010D01*
X79972585Y-100755009D01*
X79927206Y-100652235D01*
X79847765Y-100572794D01*
X79808598Y-100555500D01*
X79744992Y-100527415D01*
X79719865Y-100524500D01*
X78280143Y-100524500D01*
X78280117Y-100524502D01*
X78255012Y-100527413D01*
X78255008Y-100527415D01*
X78152235Y-100572793D01*
X78072794Y-100652234D01*
X78027415Y-100755006D01*
X78027415Y-100755008D01*
X78024500Y-100780131D01*
X78024500Y-100900500D01*
X78004815Y-100967539D01*
X77952011Y-101013294D01*
X77900500Y-101024500D01*
X76599500Y-101024500D01*
X76532461Y-101004815D01*
X76486706Y-100952011D01*
X76475500Y-100900500D01*
X76475500Y-100017400D01*
X76468010Y-99989448D01*
X76443095Y-99896464D01*
X76380495Y-99788036D01*
X76291964Y-99699505D01*
X76183536Y-99636905D01*
X76183537Y-99636905D01*
X76143224Y-99626103D01*
X76062601Y-99604500D01*
X76062599Y-99604500D01*
X58124945Y-99604500D01*
X58057906Y-99584815D01*
X58014460Y-99536795D01*
X57983996Y-99477006D01*
X57970396Y-99458287D01*
X57877558Y-99330505D01*
X57877554Y-99330500D01*
X57749499Y-99202445D01*
X57749494Y-99202441D01*
X57602997Y-99096006D01*
X57602996Y-99096005D01*
X57602994Y-99096004D01*
X57551300Y-99069664D01*
X57441639Y-99013788D01*
X57441636Y-99013787D01*
X57269410Y-98957828D01*
X57107720Y-98932219D01*
X57044585Y-98902289D01*
X57007654Y-98842978D01*
X57008652Y-98773115D01*
X57047262Y-98714883D01*
X57107721Y-98687273D01*
X57269292Y-98661683D01*
X57441444Y-98605748D01*
X57441447Y-98605747D01*
X57602730Y-98523568D01*
X57659487Y-98482330D01*
X57659488Y-98482329D01*
X57185178Y-98008019D01*
X57192993Y-98005925D01*
X57307007Y-97940099D01*
X57400099Y-97847007D01*
X57465925Y-97732993D01*
X57468019Y-97725177D01*
X57942329Y-98199488D01*
X57942330Y-98199487D01*
X57983568Y-98142730D01*
X58065747Y-97981447D01*
X58065748Y-97981444D01*
X58121683Y-97809292D01*
X58141600Y-97683540D01*
X58141600Y-97683538D01*
X58150000Y-97630504D01*
X58150000Y-97449493D01*
X58121682Y-97270706D01*
X58065748Y-97098555D01*
X58065747Y-97098552D01*
X57983565Y-96937265D01*
X57942331Y-96880511D01*
X57942330Y-96880510D01*
X57468018Y-97354821D01*
X57465925Y-97347007D01*
X57400099Y-97232993D01*
X57307007Y-97139901D01*
X57192993Y-97074075D01*
X57185176Y-97071980D01*
X57659487Y-96597668D01*
X57659487Y-96597667D01*
X57602734Y-96556434D01*
X57441447Y-96474252D01*
X57441444Y-96474251D01*
X57269293Y-96418317D01*
X57134528Y-96396972D01*
X57071393Y-96367043D01*
X57034462Y-96307731D01*
X57035460Y-96237869D01*
X57074070Y-96179636D01*
X57138034Y-96151522D01*
X57153919Y-96150499D01*
X57894864Y-96150499D01*
X57894879Y-96150497D01*
X57894882Y-96150497D01*
X57919987Y-96147586D01*
X57919988Y-96147585D01*
X57919991Y-96147585D01*
X58022765Y-96102206D01*
X58102206Y-96022765D01*
X58147585Y-95919991D01*
X58150500Y-95894865D01*
X58150499Y-94105136D01*
X58150499Y-94105135D01*
X58150499Y-94105131D01*
X77849500Y-94105131D01*
X77849500Y-95894856D01*
X77849502Y-95894882D01*
X77852413Y-95919987D01*
X77852415Y-95919991D01*
X77897793Y-96022764D01*
X77897794Y-96022765D01*
X77977235Y-96102206D01*
X78080009Y-96147585D01*
X78105135Y-96150500D01*
X78846073Y-96150499D01*
X78913111Y-96170183D01*
X78958866Y-96222987D01*
X78968810Y-96292146D01*
X78939785Y-96355702D01*
X78881007Y-96393476D01*
X78865470Y-96396972D01*
X78730706Y-96418316D01*
X78558555Y-96474251D01*
X78558552Y-96474252D01*
X78397265Y-96556434D01*
X78250830Y-96662823D01*
X78122823Y-96790830D01*
X78016434Y-96937265D01*
X77934252Y-97098552D01*
X77934251Y-97098555D01*
X77878316Y-97270706D01*
X77867342Y-97340000D01*
X78538120Y-97340000D01*
X78534075Y-97347007D01*
X78500000Y-97474174D01*
X78500000Y-97605826D01*
X78534075Y-97732993D01*
X78538120Y-97740000D01*
X77867342Y-97740000D01*
X77878316Y-97809293D01*
X77934251Y-97981444D01*
X77934252Y-97981447D01*
X78016434Y-98142734D01*
X78122823Y-98289169D01*
X78250830Y-98417176D01*
X78397265Y-98523565D01*
X78558552Y-98605747D01*
X78558555Y-98605748D01*
X78730700Y-98661680D01*
X78800000Y-98672656D01*
X78800000Y-98001879D01*
X78807007Y-98005925D01*
X78934174Y-98040000D01*
X79065826Y-98040000D01*
X79192993Y-98005925D01*
X79200000Y-98001879D01*
X79200000Y-98672655D01*
X79269299Y-98661680D01*
X79441444Y-98605748D01*
X79441447Y-98605747D01*
X79602734Y-98523565D01*
X79749169Y-98417176D01*
X79877176Y-98289169D01*
X79983565Y-98142734D01*
X80065747Y-97981447D01*
X80065748Y-97981444D01*
X80121683Y-97809293D01*
X80132658Y-97740000D01*
X79461880Y-97740000D01*
X79465925Y-97732993D01*
X79500000Y-97605826D01*
X79500000Y-97474174D01*
X79465925Y-97347007D01*
X79461880Y-97340000D01*
X80132658Y-97340000D01*
X80132658Y-97339999D01*
X80121683Y-97270706D01*
X80065748Y-97098555D01*
X80065747Y-97098552D01*
X79983565Y-96937265D01*
X79877176Y-96790830D01*
X79749169Y-96662823D01*
X79602734Y-96556434D01*
X79441447Y-96474252D01*
X79441444Y-96474251D01*
X79269293Y-96418317D01*
X79134528Y-96396972D01*
X79071393Y-96367043D01*
X79034462Y-96307731D01*
X79035460Y-96237869D01*
X79074070Y-96179636D01*
X79138034Y-96151522D01*
X79153919Y-96150499D01*
X79894864Y-96150499D01*
X79894879Y-96150497D01*
X79894882Y-96150497D01*
X79919987Y-96147586D01*
X79919988Y-96147585D01*
X79919991Y-96147585D01*
X80022765Y-96102206D01*
X80102206Y-96022765D01*
X80147585Y-95919991D01*
X80150500Y-95894865D01*
X80150499Y-94105136D01*
X80150499Y-94105135D01*
X80150499Y-94105130D01*
X80147586Y-94080012D01*
X80147585Y-94080010D01*
X80147585Y-94080009D01*
X80102206Y-93977235D01*
X80022765Y-93897794D01*
X80022763Y-93897793D01*
X79919992Y-93852415D01*
X79894865Y-93849500D01*
X78105143Y-93849500D01*
X78105117Y-93849502D01*
X78080012Y-93852413D01*
X78080008Y-93852415D01*
X77977235Y-93897793D01*
X77897794Y-93977234D01*
X77852415Y-94080006D01*
X77852415Y-94080008D01*
X77849500Y-94105131D01*
X58150499Y-94105131D01*
X58150499Y-94105130D01*
X58147586Y-94080012D01*
X58147585Y-94080010D01*
X58147585Y-94080009D01*
X58102206Y-93977235D01*
X58022765Y-93897794D01*
X58022763Y-93897793D01*
X57919992Y-93852415D01*
X57894865Y-93849500D01*
X56105143Y-93849500D01*
X56105117Y-93849502D01*
X56080012Y-93852413D01*
X56080008Y-93852415D01*
X55977235Y-93897793D01*
X55897794Y-93977234D01*
X55852415Y-94080006D01*
X55852415Y-94080008D01*
X55849500Y-94105131D01*
X50600000Y-94105131D01*
X50600000Y-91624000D01*
X50619685Y-91556961D01*
X50672489Y-91511206D01*
X50724000Y-91500000D01*
X119276000Y-91500000D01*
X119343039Y-91519685D01*
G37*
%TD.AperFunction*%
%TD*%
M02*
