%TF.GenerationSoftware,KiCad,Pcbnew,10.0.6*%
%TF.CreationDate,2026-10-01T22:37:40+07:00*%
%TF.ProjectId,ppg_panel,7070675f-7061-46e6-956c-2e6b69636164,rev?*%
%TF.SameCoordinates,Original*%
%TF.FileFunction,Other,Comment*%
%FSLAX46Y46*%
G04 Gerber Fmt 4.6, Leading zero omitted, Abs format (unit mm)*
G04 Created by KiCad (PCBNEW 10.0.6) date 2026-10-01 22:37:40*
%MOMM*%
%LPD*%
G01*
G04 APERTURE LIST*
%ADD10C,0.050000*%
%ADD11C,0.150000*%
G04 APERTURE END LIST*
D10*
X50000000Y-80000000D02*
X120000000Y-80000000D01*
X50000000Y-110000000D02*
X120000000Y-110000000D01*
%TO.C,OPT_H4*%
D11*
X118700000Y-76500000D02*
G75*
G02*
X112300000Y-76500000I-3200000J0D01*
G01*
X112300000Y-76500000D02*
G75*
G02*
X118700000Y-76500000I3200000J0D01*
G01*
%TO.C,BPW_H4*%
X118700000Y-106500000D02*
G75*
G02*
X112300000Y-106500000I-3200000J0D01*
G01*
X112300000Y-106500000D02*
G75*
G02*
X118700000Y-106500000I3200000J0D01*
G01*
%TO.C,TX_H1*%
X57200000Y-135000000D02*
G75*
G02*
X50800000Y-135000000I-3200000J0D01*
G01*
X50800000Y-135000000D02*
G75*
G02*
X57200000Y-135000000I3200000J0D01*
G01*
%TO.C,TX_H2*%
X119200000Y-135000000D02*
G75*
G02*
X112800000Y-135000000I-3200000J0D01*
G01*
X112800000Y-135000000D02*
G75*
G02*
X119200000Y-135000000I3200000J0D01*
G01*
%TO.C,OPT_H1*%
X57700000Y-53500000D02*
G75*
G02*
X51300000Y-53500000I-3200000J0D01*
G01*
X51300000Y-53500000D02*
G75*
G02*
X57700000Y-53500000I3200000J0D01*
G01*
%TO.C,BPW_H3*%
X57700000Y-106500000D02*
G75*
G02*
X51300000Y-106500000I-3200000J0D01*
G01*
X51300000Y-106500000D02*
G75*
G02*
X57700000Y-106500000I3200000J0D01*
G01*
%TO.C,OPT_H3*%
X57700000Y-76500000D02*
G75*
G02*
X51300000Y-76500000I-3200000J0D01*
G01*
X51300000Y-76500000D02*
G75*
G02*
X57700000Y-76500000I3200000J0D01*
G01*
%TO.C,OPT_H2*%
X118700000Y-53500000D02*
G75*
G02*
X112300000Y-53500000I-3200000J0D01*
G01*
X112300000Y-53500000D02*
G75*
G02*
X118700000Y-53500000I3200000J0D01*
G01*
%TO.C,BPW_H1*%
X57700000Y-83500000D02*
G75*
G02*
X51300000Y-83500000I-3200000J0D01*
G01*
X51300000Y-83500000D02*
G75*
G02*
X57700000Y-83500000I3200000J0D01*
G01*
%TO.C,TX_H4*%
X119200000Y-156000000D02*
G75*
G02*
X112800000Y-156000000I-3200000J0D01*
G01*
X112800000Y-156000000D02*
G75*
G02*
X119200000Y-156000000I3200000J0D01*
G01*
%TO.C,BPW_H2*%
X118700000Y-83500000D02*
G75*
G02*
X112300000Y-83500000I-3200000J0D01*
G01*
X112300000Y-83500000D02*
G75*
G02*
X118700000Y-83500000I3200000J0D01*
G01*
%TO.C,TX_H3*%
X57200000Y-156000000D02*
G75*
G02*
X50800000Y-156000000I-3200000J0D01*
G01*
X50800000Y-156000000D02*
G75*
G02*
X57200000Y-156000000I3200000J0D01*
G01*
%TD*%
M02*
