%TF.GenerationSoftware,KiCad,Pcbnew,10.0.6*%
%TF.CreationDate,2026-10-02T09:51:44+07:00*%
%TF.ProjectId,ppg_panel,7070675f-7061-46e6-956c-2e6b69636164,rev?*%
%TF.SameCoordinates,Original*%
%TF.FileFunction,Paste,Bot*%
%TF.FilePolarity,Positive*%
%FSLAX46Y46*%
G04 Gerber Fmt 4.6, Leading zero omitted, Abs format (unit mm)*
G04 Created by KiCad (PCBNEW 10.0.6) date 2026-10-02 09:51:44*
%MOMM*%
%LPD*%
G01*
G04 APERTURE LIST*
G04 Aperture macros list*
%AMRoundRect*
0 Rectangle with rounded corners*
0 $1 Rounding radius*
0 $2 $3 $4 $5 $6 $7 $8 $9 X,Y pos of 4 corners*
0 Add a 4 corners polygon primitive as box body*
4,1,4,$2,$3,$4,$5,$6,$7,$8,$9,$2,$3,0*
0 Add four circle primitives for the rounded corners*
1,1,$1+$1,$2,$3*
1,1,$1+$1,$4,$5*
1,1,$1+$1,$6,$7*
1,1,$1+$1,$8,$9*
0 Add four rect primitives between the rounded corners*
20,1,$1+$1,$2,$3,$4,$5,0*
20,1,$1+$1,$4,$5,$6,$7,0*
20,1,$1+$1,$6,$7,$8,$9,0*
20,1,$1+$1,$8,$9,$2,$3,0*%
G04 Aperture macros list end*
%ADD10RoundRect,0.250000X-0.350000X-0.450000X0.350000X-0.450000X0.350000X0.450000X-0.350000X0.450000X0*%
%ADD11RoundRect,0.250000X-0.337500X-0.475000X0.337500X-0.475000X0.337500X0.475000X-0.337500X0.475000X0*%
%ADD12RoundRect,0.250000X-0.475000X0.337500X-0.475000X-0.337500X0.475000X-0.337500X0.475000X0.337500X0*%
%ADD13RoundRect,0.250000X0.450000X-0.350000X0.450000X0.350000X-0.450000X0.350000X-0.450000X-0.350000X0*%
%ADD14RoundRect,0.250000X0.337500X0.475000X-0.337500X0.475000X-0.337500X-0.475000X0.337500X-0.475000X0*%
%ADD15RoundRect,0.162500X0.617500X0.162500X-0.617500X0.162500X-0.617500X-0.162500X0.617500X-0.162500X0*%
G04 APERTURE END LIST*
D10*
%TO.C,BPW_R3*%
X73500000Y-89550000D03*
X75500000Y-89550000D03*
%TD*%
D11*
%TO.C,BPW_C8*%
X105962500Y-102000000D03*
X108037500Y-102000000D03*
%TD*%
D12*
%TO.C,BPW_C3*%
X61500000Y-89962500D03*
X61500000Y-92037500D03*
%TD*%
D11*
%TO.C,BPW_C2*%
X99962500Y-87500000D03*
X102037500Y-87500000D03*
%TD*%
D13*
%TO.C,BPW_R7*%
X58500000Y-92000000D03*
X58500000Y-90000000D03*
%TD*%
D14*
%TO.C,BPW_C5*%
X61537500Y-82500000D03*
X59462500Y-82500000D03*
%TD*%
D11*
%TO.C,BPW_C7*%
X62962500Y-102000000D03*
X65037500Y-102000000D03*
%TD*%
D13*
%TO.C,BPW_R8*%
X111500000Y-92000000D03*
X111500000Y-90000000D03*
%TD*%
%TO.C,BPW_R6*%
X111500000Y-87000000D03*
X111500000Y-85000000D03*
%TD*%
D10*
%TO.C,BPW_R2*%
X100000000Y-85000000D03*
X102000000Y-85000000D03*
%TD*%
D11*
%TO.C,BPW_C1*%
X67962500Y-87500000D03*
X70037500Y-87500000D03*
%TD*%
D15*
%TO.C,BPW_U1*%
X70350000Y-89550000D03*
X70350000Y-90500000D03*
X70350000Y-91450000D03*
X67650000Y-91450000D03*
X67650000Y-89550000D03*
%TD*%
%TO.C,BPW_U2*%
X102350000Y-89550000D03*
X102350000Y-90500000D03*
X102350000Y-91450000D03*
X99650000Y-91450000D03*
X99650000Y-89550000D03*
%TD*%
D10*
%TO.C,BPW_R4*%
X104500000Y-87500000D03*
X106500000Y-87500000D03*
%TD*%
%TO.C,BPW_R1*%
X68000000Y-85000000D03*
X70000000Y-85000000D03*
%TD*%
D11*
%TO.C,BPW_C6*%
X108462500Y-82500000D03*
X110537500Y-82500000D03*
%TD*%
D13*
%TO.C,BPW_R5*%
X58500000Y-87000000D03*
X58500000Y-85000000D03*
%TD*%
D12*
%TO.C,BPW_C4*%
X108500000Y-89962500D03*
X108500000Y-92037500D03*
%TD*%
M02*
