%TF.GenerationSoftware,KiCad,Pcbnew,10.0.6*%
%TF.CreationDate,2026-10-01T22:37:40+07:00*%
%TF.ProjectId,ppg_panel,7070675f-7061-46e6-956c-2e6b69636164,rev?*%
%TF.SameCoordinates,Original*%
%TF.FileFunction,Soldermask,Bot*%
%TF.FilePolarity,Negative*%
%FSLAX46Y46*%
G04 Gerber Fmt 4.6, Leading zero omitted, Abs format (unit mm)*
G04 Created by KiCad (PCBNEW 10.0.6) date 2026-10-01 22:37:40*
%MOMM*%
%LPD*%
G01*
G04 APERTURE LIST*
G04 Aperture macros list*
%AMRoundRect*
0 Rectangle with rounded corners*
0 $1 Rounding radius*
0 $2 $3 $4 $5 $6 $7 $8 $9 X,Y pos of 4 corners*
0 Add a 4 corners polygon primitive as box body*
4,1,4,$2,$3,$4,$5,$6,$7,$8,$9,$2,$3,0*
0 Add four circle primitives for the rounded corners*
1,1,$1+$1,$2,$3*
1,1,$1+$1,$4,$5*
1,1,$1+$1,$6,$7*
1,1,$1+$1,$8,$9*
0 Add four rect primitives between the rounded corners*
20,1,$1+$1,$2,$3,$4,$5,0*
20,1,$1+$1,$4,$5,$6,$7,0*
20,1,$1+$1,$6,$7,$8,$9,0*
20,1,$1+$1,$8,$9,$2,$3,0*%
G04 Aperture macros list end*
%ADD10C,3.200000*%
%ADD11C,1.600000*%
%ADD12R,1.700000X1.700000*%
%ADD13C,1.700000*%
%ADD14R,1.350000X1.350000*%
%ADD15C,1.350000*%
%ADD16RoundRect,0.250000X-0.550000X-0.550000X0.550000X-0.550000X0.550000X0.550000X-0.550000X0.550000X0*%
%ADD17O,1.700000X1.700000*%
%ADD18O,1.350000X1.350000*%
%ADD19R,2.000000X2.000000*%
%ADD20C,2.000000*%
%ADD21R,1.500000X1.500000*%
%ADD22C,1.500000*%
%ADD23RoundRect,0.162500X0.617500X0.162500X-0.617500X0.162500X-0.617500X-0.162500X0.617500X-0.162500X0*%
%ADD24RoundRect,0.250000X-0.337500X-0.475000X0.337500X-0.475000X0.337500X0.475000X-0.337500X0.475000X0*%
%ADD25RoundRect,0.250000X0.337500X0.475000X-0.337500X0.475000X-0.337500X-0.475000X0.337500X-0.475000X0*%
%ADD26RoundRect,0.250000X0.450000X-0.350000X0.450000X0.350000X-0.450000X0.350000X-0.450000X-0.350000X0*%
%ADD27RoundRect,0.250000X-0.475000X0.337500X-0.475000X-0.337500X0.475000X-0.337500X0.475000X0.337500X0*%
%ADD28RoundRect,0.250000X-0.350000X-0.450000X0.350000X-0.450000X0.350000X0.450000X-0.350000X0.450000X0*%
G04 APERTURE END LIST*
D10*
%TO.C,OPT_H4*%
X115500000Y-76500000D03*
%TD*%
D11*
%TO.C,TX_R8*%
X96000000Y-140000000D03*
X103620000Y-140000000D03*
%TD*%
%TO.C,TX_C4*%
X93000000Y-143000000D03*
X93000000Y-145500000D03*
%TD*%
D10*
%TO.C,BPW_H4*%
X115500000Y-106500000D03*
%TD*%
D12*
%TO.C,TX_J1*%
X57000000Y-115000000D03*
D13*
X57000000Y-117540000D03*
X57000000Y-120080000D03*
X57000000Y-122620000D03*
X57000000Y-125160000D03*
X57000000Y-127700000D03*
%TD*%
D14*
%TO.C,BPW_J2*%
X103500000Y-105000000D03*
D15*
X105500000Y-105000000D03*
X107500000Y-105000000D03*
X109500000Y-105000000D03*
%TD*%
D10*
%TO.C,TX_H1*%
X54000000Y-135000000D03*
%TD*%
D14*
%TO.C,OPT_J2*%
X101000000Y-75000000D03*
D15*
X103000000Y-75000000D03*
X105000000Y-75000000D03*
X107000000Y-75000000D03*
%TD*%
D10*
%TO.C,TX_H2*%
X116000000Y-135000000D03*
%TD*%
%TO.C,OPT_H1*%
X54500000Y-53500000D03*
%TD*%
%TO.C,BPW_H3*%
X54500000Y-106500000D03*
%TD*%
D16*
%TO.C,OPT_U1*%
X61940000Y-61190000D03*
D11*
X61940000Y-63730000D03*
X61940000Y-66270000D03*
X61940000Y-68810000D03*
X69560000Y-68810000D03*
X69560000Y-66270000D03*
X69560000Y-63730000D03*
X69560000Y-61190000D03*
%TD*%
D12*
%TO.C,TX_J2*%
X79000000Y-115000000D03*
D17*
X79000000Y-117540000D03*
D14*
X79000000Y-121500000D03*
D18*
X79000000Y-123500000D03*
X79000000Y-125500000D03*
X79000000Y-127500000D03*
%TD*%
D14*
%TO.C,OPT_J1*%
X63000000Y-75000000D03*
D15*
X65000000Y-75000000D03*
X67000000Y-75000000D03*
X69000000Y-75000000D03*
%TD*%
D12*
%TO.C,TX_J5*%
X73000000Y-155000000D03*
D13*
X75540000Y-155000000D03*
%TD*%
D11*
%TO.C,TX_R7*%
X103620000Y-136000000D03*
X96000000Y-136000000D03*
%TD*%
D14*
%TO.C,BPW_J1*%
X60500000Y-105000000D03*
D15*
X62500000Y-105000000D03*
X64500000Y-105000000D03*
X66500000Y-105000000D03*
%TD*%
D10*
%TO.C,OPT_H3*%
X54500000Y-76500000D03*
%TD*%
D19*
%TO.C,BPW_D1*%
X63200000Y-95000000D03*
D20*
X68300000Y-95000000D03*
%TD*%
D16*
%TO.C,OPT_U2*%
X100440000Y-61190000D03*
D11*
X100440000Y-63730000D03*
X100440000Y-66270000D03*
X100440000Y-68810000D03*
X108060000Y-68810000D03*
X108060000Y-66270000D03*
X108060000Y-63730000D03*
X108060000Y-61190000D03*
%TD*%
D10*
%TO.C,OPT_H2*%
X115500000Y-53500000D03*
%TD*%
D16*
%TO.C,TX_U1*%
X81190000Y-135190000D03*
D11*
X81190000Y-137730000D03*
X81190000Y-140270000D03*
X81190000Y-142810000D03*
X88810000Y-142810000D03*
X88810000Y-140270000D03*
X88810000Y-137730000D03*
X88810000Y-135190000D03*
%TD*%
D10*
%TO.C,BPW_H1*%
X54500000Y-83500000D03*
%TD*%
D11*
%TO.C,TX_C5*%
X88810000Y-131000000D03*
X91310000Y-131000000D03*
%TD*%
%TO.C,TX_R6*%
X96000000Y-132000000D03*
X103620000Y-132000000D03*
%TD*%
D12*
%TO.C,TX_J4*%
X112000000Y-115000000D03*
D13*
X112000000Y-117540000D03*
%TD*%
D11*
%TO.C,TX_R2*%
X66620000Y-136000000D03*
X59000000Y-136000000D03*
%TD*%
D21*
%TO.C,TX_Q2*%
X97000000Y-146000000D03*
D22*
X99540000Y-146000000D03*
X102080000Y-146000000D03*
%TD*%
D12*
%TO.C,TX_J6*%
X96000000Y-155000000D03*
D13*
X98540000Y-155000000D03*
%TD*%
D11*
%TO.C,OPT_C2*%
X100440000Y-57000000D03*
X102940000Y-57000000D03*
%TD*%
D10*
%TO.C,TX_H4*%
X116000000Y-156000000D03*
%TD*%
D11*
%TO.C,TX_C2*%
X77000000Y-143000000D03*
X77000000Y-145500000D03*
%TD*%
D12*
%TO.C,BPW_J3*%
X72000000Y-105000000D03*
D13*
X74540000Y-105000000D03*
X77080000Y-105000000D03*
X79620000Y-105000000D03*
%TD*%
D11*
%TO.C,TX_R4*%
X62000000Y-151000000D03*
X69620000Y-151000000D03*
%TD*%
D21*
%TO.C,TX_Q1*%
X68000000Y-146000000D03*
D22*
X70540000Y-146000000D03*
X73080000Y-146000000D03*
%TD*%
D11*
%TO.C,OPT_C1*%
X61940000Y-57000000D03*
X64440000Y-57000000D03*
%TD*%
D19*
%TO.C,BPW_D2*%
X101700000Y-95000000D03*
D20*
X106800000Y-95000000D03*
%TD*%
D12*
%TO.C,TX_J3*%
X90000000Y-115000000D03*
D13*
X90000000Y-117540000D03*
X90000000Y-120080000D03*
X90000000Y-122620000D03*
X90000000Y-125160000D03*
X90000000Y-127700000D03*
%TD*%
D11*
%TO.C,TX_R3*%
X73000000Y-134500000D03*
X73000000Y-142120000D03*
%TD*%
D16*
%TO.C,TX_C7*%
X80000000Y-150000000D03*
D11*
X82000000Y-150000000D03*
%TD*%
D12*
%TO.C,TX_J7*%
X84000000Y-155000000D03*
D13*
X86540000Y-155000000D03*
%TD*%
D12*
%TO.C,OPT_J3*%
X76000000Y-75000000D03*
D13*
X78540000Y-75000000D03*
%TD*%
D10*
%TO.C,BPW_H2*%
X115500000Y-83500000D03*
%TD*%
D11*
%TO.C,TX_R9*%
X98000000Y-151000000D03*
X105620000Y-151000000D03*
%TD*%
D10*
%TO.C,TX_H3*%
X54000000Y-156000000D03*
%TD*%
D11*
%TO.C,TX_R1*%
X59000000Y-132000000D03*
X66620000Y-132000000D03*
%TD*%
D23*
%TO.C,BPW_U2*%
X102350000Y-89550000D03*
X102350000Y-90500000D03*
X102350000Y-91450000D03*
X99650000Y-91450000D03*
X99650000Y-89550000D03*
%TD*%
D24*
%TO.C,BPW_C6*%
X108462500Y-82500000D03*
X110537500Y-82500000D03*
%TD*%
D25*
%TO.C,BPW_C5*%
X61537500Y-82500000D03*
X59462500Y-82500000D03*
%TD*%
D24*
%TO.C,BPW_C1*%
X67962500Y-87500000D03*
X70037500Y-87500000D03*
%TD*%
D26*
%TO.C,BPW_R5*%
X58500000Y-87000000D03*
X58500000Y-85000000D03*
%TD*%
%TO.C,BPW_R8*%
X111500000Y-92000000D03*
X111500000Y-90000000D03*
%TD*%
D27*
%TO.C,BPW_C3*%
X61500000Y-89962500D03*
X61500000Y-92037500D03*
%TD*%
D28*
%TO.C,BPW_R3*%
X73500000Y-89550000D03*
X75500000Y-89550000D03*
%TD*%
%TO.C,BPW_R1*%
X68000000Y-85000000D03*
X70000000Y-85000000D03*
%TD*%
D26*
%TO.C,BPW_R7*%
X58500000Y-92000000D03*
X58500000Y-90000000D03*
%TD*%
D28*
%TO.C,BPW_R2*%
X100000000Y-85000000D03*
X102000000Y-85000000D03*
%TD*%
D26*
%TO.C,BPW_R6*%
X111500000Y-87000000D03*
X111500000Y-85000000D03*
%TD*%
D24*
%TO.C,BPW_C7*%
X62962500Y-102000000D03*
X65037500Y-102000000D03*
%TD*%
D28*
%TO.C,BPW_R4*%
X104500000Y-87500000D03*
X106500000Y-87500000D03*
%TD*%
D24*
%TO.C,BPW_C2*%
X99962500Y-87500000D03*
X102037500Y-87500000D03*
%TD*%
D27*
%TO.C,BPW_C4*%
X108500000Y-89962500D03*
X108500000Y-92037500D03*
%TD*%
D24*
%TO.C,BPW_C8*%
X105962500Y-102000000D03*
X108037500Y-102000000D03*
%TD*%
D23*
%TO.C,BPW_U1*%
X70350000Y-89550000D03*
X70350000Y-90500000D03*
X70350000Y-91450000D03*
X67650000Y-91450000D03*
X67650000Y-89550000D03*
%TD*%
M02*
