%TF.GenerationSoftware,KiCad,Pcbnew,10.0.6*%
%TF.CreationDate,2026-10-02T21:55:37+07:00*%
%TF.ProjectId,ppg_panel,7070675f-7061-46e6-956c-2e6b69636164,rev?*%
%TF.SameCoordinates,Original*%
%TF.FileFunction,Soldermask,Top*%
%TF.FilePolarity,Negative*%
%FSLAX46Y46*%
G04 Gerber Fmt 4.6, Leading zero omitted, Abs format (unit mm)*
G04 Created by KiCad (PCBNEW 10.0.6) date 2026-10-02 21:55:37*
%MOMM*%
%LPD*%
G01*
G04 APERTURE LIST*
G04 Aperture macros list*
%AMRoundRect*
0 Rectangle with rounded corners*
0 $1 Rounding radius*
0 $2 $3 $4 $5 $6 $7 $8 $9 X,Y pos of 4 corners*
0 Add a 4 corners polygon primitive as box body*
4,1,4,$2,$3,$4,$5,$6,$7,$8,$9,$2,$3,0*
0 Add four circle primitives for the rounded corners*
1,1,$1+$1,$2,$3*
1,1,$1+$1,$4,$5*
1,1,$1+$1,$6,$7*
1,1,$1+$1,$8,$9*
0 Add four rect primitives between the rounded corners*
20,1,$1+$1,$2,$3,$4,$5,0*
20,1,$1+$1,$4,$5,$6,$7,0*
20,1,$1+$1,$6,$7,$8,$9,0*
20,1,$1+$1,$8,$9,$2,$3,0*%
G04 Aperture macros list end*
%ADD10R,1.350000X1.350000*%
%ADD11C,1.350000*%
%ADD12RoundRect,0.250000X-0.337500X-0.475000X0.337500X-0.475000X0.337500X0.475000X-0.337500X0.475000X0*%
%ADD13R,1.700000X1.700000*%
%ADD14C,1.700000*%
%ADD15RoundRect,0.250000X-0.350000X-0.450000X0.350000X-0.450000X0.350000X0.450000X-0.350000X0.450000X0*%
%ADD16C,3.200000*%
%ADD17RoundRect,0.250000X0.350000X0.450000X-0.350000X0.450000X-0.350000X-0.450000X0.350000X-0.450000X0*%
%ADD18RoundRect,0.250000X-0.475000X0.337500X-0.475000X-0.337500X0.475000X-0.337500X0.475000X0.337500X0*%
%ADD19R,2.000000X2.000000*%
%ADD20C,2.000000*%
%ADD21RoundRect,0.250000X-0.450000X0.350000X-0.450000X-0.350000X0.450000X-0.350000X0.450000X0.350000X0*%
%ADD22RoundRect,0.250000X-0.550000X-0.550000X0.550000X-0.550000X0.550000X0.550000X-0.550000X0.550000X0*%
%ADD23C,1.600000*%
%ADD24O,1.700000X1.700000*%
%ADD25O,1.350000X1.350000*%
%ADD26RoundRect,0.250000X-0.400000X-0.625000X0.400000X-0.625000X0.400000X0.625000X-0.400000X0.625000X0*%
%ADD27R,1.500000X1.500000*%
%ADD28C,1.500000*%
G04 APERTURE END LIST*
D10*
%TO.C,OPT_J1*%
X63000000Y-66500000D03*
D11*
X65000000Y-66500000D03*
X67000000Y-66500000D03*
X69000000Y-66500000D03*
%TD*%
D12*
%TO.C,TX_C5*%
X92962500Y-111500000D03*
X95037500Y-111500000D03*
%TD*%
D13*
%TO.C,TX_J4*%
X112000000Y-95000000D03*
D14*
X112000000Y-97540000D03*
%TD*%
D15*
%TO.C,TX_R1*%
X61810000Y-109000000D03*
X63810000Y-109000000D03*
%TD*%
D16*
%TO.C,TX_H3*%
X54000000Y-126000000D03*
%TD*%
D10*
%TO.C,BPW_J2*%
X103500000Y-86666666D03*
D11*
X105500000Y-86666666D03*
X107500000Y-86666666D03*
X109500000Y-86666666D03*
%TD*%
D16*
%TO.C,TX_H1*%
X54000000Y-114000000D03*
%TD*%
D17*
%TO.C,TX_R2*%
X63810000Y-112000000D03*
X61810000Y-112000000D03*
%TD*%
D16*
%TO.C,TX_H2*%
X116000000Y-114000000D03*
%TD*%
D15*
%TO.C,TX_R6*%
X98810000Y-109000000D03*
X100810000Y-109000000D03*
%TD*%
D18*
%TO.C,TX_C4*%
X93000000Y-119462500D03*
X93000000Y-121537500D03*
%TD*%
D19*
%TO.C,BPW_D2*%
X101700000Y-81700000D03*
D20*
X106800000Y-81700000D03*
%TD*%
D21*
%TO.C,TX_R3*%
X73000000Y-114310000D03*
X73000000Y-116310000D03*
%TD*%
D12*
%TO.C,OPT_C1*%
X74962500Y-53500000D03*
X77037500Y-53500000D03*
%TD*%
D22*
%TO.C,OPT_U2*%
X100440000Y-54000000D03*
D23*
X100440000Y-56540000D03*
X100440000Y-59080000D03*
X100440000Y-61620000D03*
X108060000Y-61620000D03*
X108060000Y-59080000D03*
X108060000Y-56540000D03*
X108060000Y-54000000D03*
%TD*%
D13*
%TO.C,TX_J3*%
X90000000Y-95000000D03*
D14*
X90000000Y-97540000D03*
X90000000Y-100080000D03*
X90000000Y-102620000D03*
X90000000Y-105160000D03*
X90000000Y-107700000D03*
%TD*%
D13*
%TO.C,OPT_J3*%
X76000000Y-66500000D03*
D14*
X78540000Y-66500000D03*
%TD*%
D13*
%TO.C,TX_J2*%
X79000000Y-95000000D03*
D24*
X79000000Y-97540000D03*
D10*
X79000000Y-101500000D03*
D25*
X79000000Y-103500000D03*
X79000000Y-105500000D03*
X79000000Y-107500000D03*
%TD*%
D22*
%TO.C,TX_U1*%
X81190000Y-112190000D03*
D23*
X81190000Y-114730000D03*
X81190000Y-117270000D03*
X81190000Y-119810000D03*
X88810000Y-119810000D03*
X88810000Y-117270000D03*
X88810000Y-114730000D03*
X88810000Y-112190000D03*
%TD*%
D12*
%TO.C,OPT_C2*%
X92962500Y-53500000D03*
X95037500Y-53500000D03*
%TD*%
D13*
%TO.C,TX_J5*%
X73000000Y-127000000D03*
D14*
X75540000Y-127000000D03*
%TD*%
D26*
%TO.C,TX_R9*%
X109450000Y-122500000D03*
X112550000Y-122500000D03*
%TD*%
%TO.C,TX_R4*%
X59450000Y-127000000D03*
X62550000Y-127000000D03*
%TD*%
D18*
%TO.C,TX_C2*%
X77000000Y-119462500D03*
X77000000Y-121537500D03*
%TD*%
D13*
%TO.C,TX_J6*%
X96000000Y-127000000D03*
D14*
X98540000Y-127000000D03*
%TD*%
D10*
%TO.C,OPT_J2*%
X101000000Y-66500000D03*
D11*
X103000000Y-66500000D03*
X105000000Y-66500000D03*
X107000000Y-66500000D03*
%TD*%
D27*
%TO.C,TX_Q1*%
X68000000Y-121500000D03*
D28*
X70540000Y-121500000D03*
X73080000Y-121500000D03*
%TD*%
D19*
%TO.C,BPW_D1*%
X63200000Y-81700000D03*
D20*
X68300000Y-81700000D03*
%TD*%
D13*
%TO.C,TX_J1*%
X57000000Y-95000000D03*
D14*
X57000000Y-97540000D03*
X57000000Y-100080000D03*
X57000000Y-102620000D03*
X57000000Y-105160000D03*
X57000000Y-107700000D03*
%TD*%
D16*
%TO.C,TX_H4*%
X116000000Y-126000000D03*
%TD*%
D13*
%TO.C,TX_J7*%
X84000000Y-127000000D03*
D14*
X86540000Y-127000000D03*
%TD*%
D17*
%TO.C,TX_R7*%
X100810000Y-112000000D03*
X98810000Y-112000000D03*
%TD*%
D15*
%TO.C,TX_R8*%
X98810000Y-117000000D03*
X100810000Y-117000000D03*
%TD*%
D22*
%TO.C,OPT_U1*%
X61940000Y-54000000D03*
D23*
X61940000Y-56540000D03*
X61940000Y-59080000D03*
X61940000Y-61620000D03*
X69560000Y-61620000D03*
X69560000Y-59080000D03*
X69560000Y-56540000D03*
X69560000Y-54000000D03*
%TD*%
D13*
%TO.C,BPW_J3*%
X72000000Y-86666666D03*
D14*
X74540000Y-86666666D03*
X77080000Y-86666666D03*
X79620000Y-86666666D03*
%TD*%
D27*
%TO.C,TX_Q2*%
X97000000Y-121500000D03*
D28*
X99540000Y-121500000D03*
X102080000Y-121500000D03*
%TD*%
D10*
%TO.C,BPW_J1*%
X60500000Y-86666666D03*
D11*
X62500000Y-86666666D03*
X64500000Y-86666666D03*
X66500000Y-86666666D03*
%TD*%
M02*
