%TF.GenerationSoftware,KiCad,Pcbnew,10.0.6*%
%TF.CreationDate,2026-10-02T11:36:23+07:00*%
%TF.ProjectId,ppg_panel,7070675f-7061-46e6-956c-2e6b69636164,rev?*%
%TF.SameCoordinates,Original*%
%TF.FileFunction,Paste,Bot*%
%TF.FilePolarity,Positive*%
%FSLAX46Y46*%
G04 Gerber Fmt 4.6, Leading zero omitted, Abs format (unit mm)*
G04 Created by KiCad (PCBNEW 10.0.6) date 2026-10-02 11:36:23*
%MOMM*%
%LPD*%
G01*
G04 APERTURE LIST*
G04 Aperture macros list*
%AMRoundRect*
0 Rectangle with rounded corners*
0 $1 Rounding radius*
0 $2 $3 $4 $5 $6 $7 $8 $9 X,Y pos of 4 corners*
0 Add a 4 corners polygon primitive as box body*
4,1,4,$2,$3,$4,$5,$6,$7,$8,$9,$2,$3,0*
0 Add four circle primitives for the rounded corners*
1,1,$1+$1,$2,$3*
1,1,$1+$1,$4,$5*
1,1,$1+$1,$6,$7*
1,1,$1+$1,$8,$9*
0 Add four rect primitives between the rounded corners*
20,1,$1+$1,$2,$3,$4,$5,0*
20,1,$1+$1,$4,$5,$6,$7,0*
20,1,$1+$1,$6,$7,$8,$9,0*
20,1,$1+$1,$8,$9,$2,$3,0*%
G04 Aperture macros list end*
%ADD10RoundRect,0.250000X-0.475000X0.337500X-0.475000X-0.337500X0.475000X-0.337500X0.475000X0.337500X0*%
%ADD11RoundRect,0.250000X-0.337500X-0.475000X0.337500X-0.475000X0.337500X0.475000X-0.337500X0.475000X0*%
%ADD12RoundRect,0.250000X0.450000X-0.350000X0.450000X0.350000X-0.450000X0.350000X-0.450000X-0.350000X0*%
%ADD13RoundRect,0.250000X-0.350000X-0.450000X0.350000X-0.450000X0.350000X0.450000X-0.350000X0.450000X0*%
%ADD14RoundRect,0.250000X0.550000X-1.250000X0.550000X1.250000X-0.550000X1.250000X-0.550000X-1.250000X0*%
%ADD15RoundRect,0.250000X0.350000X0.450000X-0.350000X0.450000X-0.350000X-0.450000X0.350000X-0.450000X0*%
%ADD16RoundRect,0.162500X0.617500X0.162500X-0.617500X0.162500X-0.617500X-0.162500X0.617500X-0.162500X0*%
%ADD17RoundRect,0.250000X0.337500X0.475000X-0.337500X0.475000X-0.337500X-0.475000X0.337500X-0.475000X0*%
G04 APERTURE END LIST*
D10*
%TO.C,BPW_C4*%
X114500000Y-78862500D03*
X114500000Y-80937500D03*
%TD*%
D11*
%TO.C,OPT_C3*%
X72962500Y-63700000D03*
X75037500Y-63700000D03*
%TD*%
%TO.C,BPW_C6*%
X113462500Y-73100000D03*
X115537500Y-73100000D03*
%TD*%
D12*
%TO.C,BPW_R6*%
X111500000Y-76700000D03*
X111500000Y-74700000D03*
%TD*%
%TO.C,BPW_R8*%
X111500000Y-80900000D03*
X111500000Y-78900000D03*
%TD*%
D13*
%TO.C,OPT_R1*%
X64750000Y-63700000D03*
X66750000Y-63700000D03*
%TD*%
%TO.C,BPW_R4*%
X104500000Y-76700000D03*
X106500000Y-76700000D03*
%TD*%
%TO.C,BPW_R1*%
X68000000Y-73350000D03*
X70000000Y-73350000D03*
%TD*%
D11*
%TO.C,BPW_C8*%
X105962500Y-84666666D03*
X108037500Y-84666666D03*
%TD*%
D13*
%TO.C,BPW_R2*%
X100000000Y-73350000D03*
X102000000Y-73350000D03*
%TD*%
D14*
%TO.C,TX_C7*%
X84300000Y-108550000D03*
X84300000Y-104150000D03*
%TD*%
D15*
%TO.C,OPT_R2*%
X105250000Y-63700000D03*
X103250000Y-63700000D03*
%TD*%
D16*
%TO.C,BPW_U1*%
X70350000Y-77750000D03*
X70350000Y-78700000D03*
X70350000Y-79650000D03*
X67650000Y-79650000D03*
X67650000Y-77750000D03*
%TD*%
D17*
%TO.C,OPT_C4*%
X97037500Y-63700000D03*
X94962500Y-63700000D03*
%TD*%
D11*
%TO.C,BPW_C2*%
X99962500Y-75650000D03*
X102037500Y-75650000D03*
%TD*%
%TO.C,BPW_C1*%
X67962500Y-75650000D03*
X70037500Y-75650000D03*
%TD*%
%TO.C,BPW_C7*%
X62962500Y-84666666D03*
X65037500Y-84666666D03*
%TD*%
D13*
%TO.C,BPW_R3*%
X73500000Y-78066666D03*
X75500000Y-78066666D03*
%TD*%
D12*
%TO.C,BPW_R7*%
X58500000Y-80900000D03*
X58500000Y-78900000D03*
%TD*%
D10*
%TO.C,BPW_C3*%
X55500000Y-78862500D03*
X55500000Y-80937500D03*
%TD*%
D12*
%TO.C,BPW_R5*%
X58500000Y-76700000D03*
X58500000Y-74700000D03*
%TD*%
D16*
%TO.C,BPW_U2*%
X102350000Y-77750000D03*
X102350000Y-78700000D03*
X102350000Y-79650000D03*
X99650000Y-79650000D03*
X99650000Y-77750000D03*
%TD*%
D17*
%TO.C,BPW_C5*%
X56537500Y-73100000D03*
X54462500Y-73100000D03*
%TD*%
M02*
