%TF.GenerationSoftware,KiCad,Pcbnew,10.0.6*%
%TF.CreationDate,2026-10-02T11:36:23+07:00*%
%TF.ProjectId,ppg_panel,7070675f-7061-46e6-956c-2e6b69636164,rev?*%
%TF.SameCoordinates,Original*%
%TF.FileFunction,Legend,Bot*%
%TF.FilePolarity,Positive*%
%FSLAX46Y46*%
G04 Gerber Fmt 4.6, Leading zero omitted, Abs format (unit mm)*
G04 Created by KiCad (PCBNEW 10.0.6) date 2026-10-02 11:36:23*
%MOMM*%
%LPD*%
G01*
G04 APERTURE LIST*
%ADD10C,0.100000*%
%ADD11C,0.110000*%
%ADD12C,0.120000*%
G04 APERTURE END LIST*
D10*
X60252380Y-88764895D02*
X60519047Y-88383942D01*
X60709523Y-88764895D02*
X60709523Y-87964895D01*
X60709523Y-87964895D02*
X60404761Y-87964895D01*
X60404761Y-87964895D02*
X60328571Y-88002990D01*
X60328571Y-88002990D02*
X60290476Y-88041085D01*
X60290476Y-88041085D02*
X60252380Y-88117276D01*
X60252380Y-88117276D02*
X60252380Y-88231561D01*
X60252380Y-88231561D02*
X60290476Y-88307752D01*
X60290476Y-88307752D02*
X60328571Y-88345847D01*
X60328571Y-88345847D02*
X60404761Y-88383942D01*
X60404761Y-88383942D02*
X60709523Y-88383942D01*
X61099999Y-95364895D02*
X61099999Y-94564895D01*
X60261904Y-95364895D02*
X60528571Y-94983942D01*
X60719047Y-95364895D02*
X60719047Y-94564895D01*
X60719047Y-94564895D02*
X60414285Y-94564895D01*
X60414285Y-94564895D02*
X60338095Y-94602990D01*
X60338095Y-94602990D02*
X60300000Y-94641085D01*
X60300000Y-94641085D02*
X60261904Y-94717276D01*
X60261904Y-94717276D02*
X60261904Y-94831561D01*
X60261904Y-94831561D02*
X60300000Y-94907752D01*
X60300000Y-94907752D02*
X60338095Y-94945847D01*
X60338095Y-94945847D02*
X60414285Y-94983942D01*
X60414285Y-94983942D02*
X60719047Y-94983942D01*
X61309523Y-97142990D02*
X61385713Y-97104895D01*
X61385713Y-97104895D02*
X61499999Y-97104895D01*
X61499999Y-97104895D02*
X61614285Y-97142990D01*
X61614285Y-97142990D02*
X61690475Y-97219180D01*
X61690475Y-97219180D02*
X61728570Y-97295371D01*
X61728570Y-97295371D02*
X61766666Y-97447752D01*
X61766666Y-97447752D02*
X61766666Y-97562038D01*
X61766666Y-97562038D02*
X61728570Y-97714419D01*
X61728570Y-97714419D02*
X61690475Y-97790609D01*
X61690475Y-97790609D02*
X61614285Y-97866800D01*
X61614285Y-97866800D02*
X61499999Y-97904895D01*
X61499999Y-97904895D02*
X61423808Y-97904895D01*
X61423808Y-97904895D02*
X61309523Y-97866800D01*
X61309523Y-97866800D02*
X61271427Y-97828704D01*
X61271427Y-97828704D02*
X61271427Y-97562038D01*
X61271427Y-97562038D02*
X61423808Y-97562038D01*
X60928570Y-97904895D02*
X60928570Y-97104895D01*
X60928570Y-97104895D02*
X60471427Y-97904895D01*
X60471427Y-97904895D02*
X60471427Y-97104895D01*
X60090475Y-97904895D02*
X60090475Y-97104895D01*
X60090475Y-97104895D02*
X59899999Y-97104895D01*
X59899999Y-97104895D02*
X59785713Y-97142990D01*
X59785713Y-97142990D02*
X59709523Y-97219180D01*
X59709523Y-97219180D02*
X59671428Y-97295371D01*
X59671428Y-97295371D02*
X59633332Y-97447752D01*
X59633332Y-97447752D02*
X59633332Y-97562038D01*
X59633332Y-97562038D02*
X59671428Y-97714419D01*
X59671428Y-97714419D02*
X59709523Y-97790609D01*
X59709523Y-97790609D02*
X59785713Y-97866800D01*
X59785713Y-97866800D02*
X59899999Y-97904895D01*
X59899999Y-97904895D02*
X60090475Y-97904895D01*
X61652381Y-100406800D02*
X61538095Y-100444895D01*
X61538095Y-100444895D02*
X61347619Y-100444895D01*
X61347619Y-100444895D02*
X61271428Y-100406800D01*
X61271428Y-100406800D02*
X61233333Y-100368704D01*
X61233333Y-100368704D02*
X61195238Y-100292514D01*
X61195238Y-100292514D02*
X61195238Y-100216323D01*
X61195238Y-100216323D02*
X61233333Y-100140133D01*
X61233333Y-100140133D02*
X61271428Y-100102038D01*
X61271428Y-100102038D02*
X61347619Y-100063942D01*
X61347619Y-100063942D02*
X61500000Y-100025847D01*
X61500000Y-100025847D02*
X61576190Y-99987752D01*
X61576190Y-99987752D02*
X61614285Y-99949657D01*
X61614285Y-99949657D02*
X61652381Y-99873466D01*
X61652381Y-99873466D02*
X61652381Y-99797276D01*
X61652381Y-99797276D02*
X61614285Y-99721085D01*
X61614285Y-99721085D02*
X61576190Y-99682990D01*
X61576190Y-99682990D02*
X61500000Y-99644895D01*
X61500000Y-99644895D02*
X61309523Y-99644895D01*
X61309523Y-99644895D02*
X61195238Y-99682990D01*
X60395237Y-100368704D02*
X60433333Y-100406800D01*
X60433333Y-100406800D02*
X60547618Y-100444895D01*
X60547618Y-100444895D02*
X60623809Y-100444895D01*
X60623809Y-100444895D02*
X60738095Y-100406800D01*
X60738095Y-100406800D02*
X60814285Y-100330609D01*
X60814285Y-100330609D02*
X60852380Y-100254419D01*
X60852380Y-100254419D02*
X60890476Y-100102038D01*
X60890476Y-100102038D02*
X60890476Y-99987752D01*
X60890476Y-99987752D02*
X60852380Y-99835371D01*
X60852380Y-99835371D02*
X60814285Y-99759180D01*
X60814285Y-99759180D02*
X60738095Y-99682990D01*
X60738095Y-99682990D02*
X60623809Y-99644895D01*
X60623809Y-99644895D02*
X60547618Y-99644895D01*
X60547618Y-99644895D02*
X60433333Y-99682990D01*
X60433333Y-99682990D02*
X60395237Y-99721085D01*
X59671428Y-100444895D02*
X60052380Y-100444895D01*
X60052380Y-100444895D02*
X60052380Y-99644895D01*
X61671428Y-102946800D02*
X61557142Y-102984895D01*
X61557142Y-102984895D02*
X61366666Y-102984895D01*
X61366666Y-102984895D02*
X61290475Y-102946800D01*
X61290475Y-102946800D02*
X61252380Y-102908704D01*
X61252380Y-102908704D02*
X61214285Y-102832514D01*
X61214285Y-102832514D02*
X61214285Y-102756323D01*
X61214285Y-102756323D02*
X61252380Y-102680133D01*
X61252380Y-102680133D02*
X61290475Y-102642038D01*
X61290475Y-102642038D02*
X61366666Y-102603942D01*
X61366666Y-102603942D02*
X61519047Y-102565847D01*
X61519047Y-102565847D02*
X61595237Y-102527752D01*
X61595237Y-102527752D02*
X61633332Y-102489657D01*
X61633332Y-102489657D02*
X61671428Y-102413466D01*
X61671428Y-102413466D02*
X61671428Y-102337276D01*
X61671428Y-102337276D02*
X61633332Y-102261085D01*
X61633332Y-102261085D02*
X61595237Y-102222990D01*
X61595237Y-102222990D02*
X61519047Y-102184895D01*
X61519047Y-102184895D02*
X61328570Y-102184895D01*
X61328570Y-102184895D02*
X61214285Y-102222990D01*
X60871427Y-102984895D02*
X60871427Y-102184895D01*
X60871427Y-102184895D02*
X60680951Y-102184895D01*
X60680951Y-102184895D02*
X60566665Y-102222990D01*
X60566665Y-102222990D02*
X60490475Y-102299180D01*
X60490475Y-102299180D02*
X60452380Y-102375371D01*
X60452380Y-102375371D02*
X60414284Y-102527752D01*
X60414284Y-102527752D02*
X60414284Y-102642038D01*
X60414284Y-102642038D02*
X60452380Y-102794419D01*
X60452380Y-102794419D02*
X60490475Y-102870609D01*
X60490475Y-102870609D02*
X60566665Y-102946800D01*
X60566665Y-102946800D02*
X60680951Y-102984895D01*
X60680951Y-102984895D02*
X60871427Y-102984895D01*
X60109523Y-102756323D02*
X59728570Y-102756323D01*
X60185713Y-102984895D02*
X59919046Y-102184895D01*
X59919046Y-102184895D02*
X59652380Y-102984895D01*
X61690476Y-104724895D02*
X61195238Y-104724895D01*
X61195238Y-104724895D02*
X61461904Y-105029657D01*
X61461904Y-105029657D02*
X61347619Y-105029657D01*
X61347619Y-105029657D02*
X61271428Y-105067752D01*
X61271428Y-105067752D02*
X61233333Y-105105847D01*
X61233333Y-105105847D02*
X61195238Y-105182038D01*
X61195238Y-105182038D02*
X61195238Y-105372514D01*
X61195238Y-105372514D02*
X61233333Y-105448704D01*
X61233333Y-105448704D02*
X61271428Y-105486800D01*
X61271428Y-105486800D02*
X61347619Y-105524895D01*
X61347619Y-105524895D02*
X61576190Y-105524895D01*
X61576190Y-105524895D02*
X61652381Y-105486800D01*
X61652381Y-105486800D02*
X61690476Y-105448704D01*
X60966666Y-104724895D02*
X60699999Y-105524895D01*
X60699999Y-105524895D02*
X60433333Y-104724895D01*
X60242857Y-104724895D02*
X59747619Y-104724895D01*
X59747619Y-104724895D02*
X60014285Y-105029657D01*
X60014285Y-105029657D02*
X59900000Y-105029657D01*
X59900000Y-105029657D02*
X59823809Y-105067752D01*
X59823809Y-105067752D02*
X59785714Y-105105847D01*
X59785714Y-105105847D02*
X59747619Y-105182038D01*
X59747619Y-105182038D02*
X59747619Y-105372514D01*
X59747619Y-105372514D02*
X59785714Y-105448704D01*
X59785714Y-105448704D02*
X59823809Y-105486800D01*
X59823809Y-105486800D02*
X59900000Y-105524895D01*
X59900000Y-105524895D02*
X60128571Y-105524895D01*
X60128571Y-105524895D02*
X60204762Y-105486800D01*
X60204762Y-105486800D02*
X60242857Y-105448704D01*
X61309523Y-107302990D02*
X61385713Y-107264895D01*
X61385713Y-107264895D02*
X61499999Y-107264895D01*
X61499999Y-107264895D02*
X61614285Y-107302990D01*
X61614285Y-107302990D02*
X61690475Y-107379180D01*
X61690475Y-107379180D02*
X61728570Y-107455371D01*
X61728570Y-107455371D02*
X61766666Y-107607752D01*
X61766666Y-107607752D02*
X61766666Y-107722038D01*
X61766666Y-107722038D02*
X61728570Y-107874419D01*
X61728570Y-107874419D02*
X61690475Y-107950609D01*
X61690475Y-107950609D02*
X61614285Y-108026800D01*
X61614285Y-108026800D02*
X61499999Y-108064895D01*
X61499999Y-108064895D02*
X61423808Y-108064895D01*
X61423808Y-108064895D02*
X61309523Y-108026800D01*
X61309523Y-108026800D02*
X61271427Y-107988704D01*
X61271427Y-107988704D02*
X61271427Y-107722038D01*
X61271427Y-107722038D02*
X61423808Y-107722038D01*
X60928570Y-108064895D02*
X60928570Y-107264895D01*
X60928570Y-107264895D02*
X60471427Y-108064895D01*
X60471427Y-108064895D02*
X60471427Y-107264895D01*
X60090475Y-108064895D02*
X60090475Y-107264895D01*
X60090475Y-107264895D02*
X59899999Y-107264895D01*
X59899999Y-107264895D02*
X59785713Y-107302990D01*
X59785713Y-107302990D02*
X59709523Y-107379180D01*
X59709523Y-107379180D02*
X59671428Y-107455371D01*
X59671428Y-107455371D02*
X59633332Y-107607752D01*
X59633332Y-107607752D02*
X59633332Y-107722038D01*
X59633332Y-107722038D02*
X59671428Y-107874419D01*
X59671428Y-107874419D02*
X59709523Y-107950609D01*
X59709523Y-107950609D02*
X59785713Y-108026800D01*
X59785713Y-108026800D02*
X59899999Y-108064895D01*
X59899999Y-108064895D02*
X60090475Y-108064895D01*
X61409523Y-82064895D02*
X61409523Y-81264895D01*
X60952380Y-82064895D02*
X61295238Y-81607752D01*
X60952380Y-81264895D02*
X61409523Y-81722038D01*
X63128570Y-88764895D02*
X63128570Y-87964895D01*
X63128570Y-87964895D02*
X62671427Y-88764895D01*
X62671427Y-88764895D02*
X62671427Y-87964895D01*
X61833332Y-88688704D02*
X61871428Y-88726800D01*
X61871428Y-88726800D02*
X61985713Y-88764895D01*
X61985713Y-88764895D02*
X62061904Y-88764895D01*
X62061904Y-88764895D02*
X62176190Y-88726800D01*
X62176190Y-88726800D02*
X62252380Y-88650609D01*
X62252380Y-88650609D02*
X62290475Y-88574419D01*
X62290475Y-88574419D02*
X62328571Y-88422038D01*
X62328571Y-88422038D02*
X62328571Y-88307752D01*
X62328571Y-88307752D02*
X62290475Y-88155371D01*
X62290475Y-88155371D02*
X62252380Y-88079180D01*
X62252380Y-88079180D02*
X62176190Y-88002990D01*
X62176190Y-88002990D02*
X62061904Y-87964895D01*
X62061904Y-87964895D02*
X61985713Y-87964895D01*
X61985713Y-87964895D02*
X61871428Y-88002990D01*
X61871428Y-88002990D02*
X61833332Y-88041085D01*
X64766666Y-87964895D02*
X64499999Y-88764895D01*
X64499999Y-88764895D02*
X64233333Y-87964895D01*
X66690476Y-88002990D02*
X66766666Y-87964895D01*
X66766666Y-87964895D02*
X66880952Y-87964895D01*
X66880952Y-87964895D02*
X66995238Y-88002990D01*
X66995238Y-88002990D02*
X67071428Y-88079180D01*
X67071428Y-88079180D02*
X67109523Y-88155371D01*
X67109523Y-88155371D02*
X67147619Y-88307752D01*
X67147619Y-88307752D02*
X67147619Y-88422038D01*
X67147619Y-88422038D02*
X67109523Y-88574419D01*
X67109523Y-88574419D02*
X67071428Y-88650609D01*
X67071428Y-88650609D02*
X66995238Y-88726800D01*
X66995238Y-88726800D02*
X66880952Y-88764895D01*
X66880952Y-88764895D02*
X66804761Y-88764895D01*
X66804761Y-88764895D02*
X66690476Y-88726800D01*
X66690476Y-88726800D02*
X66652380Y-88688704D01*
X66652380Y-88688704D02*
X66652380Y-88422038D01*
X66652380Y-88422038D02*
X66804761Y-88422038D01*
X65852380Y-88764895D02*
X66119047Y-88383942D01*
X66309523Y-88764895D02*
X66309523Y-87964895D01*
X66309523Y-87964895D02*
X66004761Y-87964895D01*
X66004761Y-87964895D02*
X65928571Y-88002990D01*
X65928571Y-88002990D02*
X65890476Y-88041085D01*
X65890476Y-88041085D02*
X65852380Y-88117276D01*
X65852380Y-88117276D02*
X65852380Y-88231561D01*
X65852380Y-88231561D02*
X65890476Y-88307752D01*
X65890476Y-88307752D02*
X65928571Y-88345847D01*
X65928571Y-88345847D02*
X66004761Y-88383942D01*
X66004761Y-88383942D02*
X66309523Y-88383942D01*
X68171428Y-123495847D02*
X67904762Y-123495847D01*
X67790476Y-123914895D02*
X68171428Y-123914895D01*
X68171428Y-123914895D02*
X68171428Y-123114895D01*
X68171428Y-123114895D02*
X67790476Y-123114895D01*
X70490476Y-81836323D02*
X70109523Y-81836323D01*
X70566666Y-82064895D02*
X70299999Y-81264895D01*
X70299999Y-81264895D02*
X70033333Y-82064895D01*
X70482857Y-123495847D02*
X70368571Y-123533942D01*
X70368571Y-123533942D02*
X70330476Y-123572038D01*
X70330476Y-123572038D02*
X70292380Y-123648228D01*
X70292380Y-123648228D02*
X70292380Y-123762514D01*
X70292380Y-123762514D02*
X70330476Y-123838704D01*
X70330476Y-123838704D02*
X70368571Y-123876800D01*
X70368571Y-123876800D02*
X70444761Y-123914895D01*
X70444761Y-123914895D02*
X70749523Y-123914895D01*
X70749523Y-123914895D02*
X70749523Y-123114895D01*
X70749523Y-123114895D02*
X70482857Y-123114895D01*
X70482857Y-123114895D02*
X70406666Y-123152990D01*
X70406666Y-123152990D02*
X70368571Y-123191085D01*
X70368571Y-123191085D02*
X70330476Y-123267276D01*
X70330476Y-123267276D02*
X70330476Y-123343466D01*
X70330476Y-123343466D02*
X70368571Y-123419657D01*
X70368571Y-123419657D02*
X70406666Y-123457752D01*
X70406666Y-123457752D02*
X70482857Y-123495847D01*
X70482857Y-123495847D02*
X70749523Y-123495847D01*
X71752380Y-88764895D02*
X72019047Y-88383942D01*
X72209523Y-88764895D02*
X72209523Y-87964895D01*
X72209523Y-87964895D02*
X71904761Y-87964895D01*
X71904761Y-87964895D02*
X71828571Y-88002990D01*
X71828571Y-88002990D02*
X71790476Y-88041085D01*
X71790476Y-88041085D02*
X71752380Y-88117276D01*
X71752380Y-88117276D02*
X71752380Y-88231561D01*
X71752380Y-88231561D02*
X71790476Y-88307752D01*
X71790476Y-88307752D02*
X71828571Y-88345847D01*
X71828571Y-88345847D02*
X71904761Y-88383942D01*
X71904761Y-88383942D02*
X72209523Y-88383942D01*
X73152380Y-128414895D02*
X73533332Y-128414895D01*
X73533332Y-128414895D02*
X73571428Y-128795847D01*
X73571428Y-128795847D02*
X73533332Y-128757752D01*
X73533332Y-128757752D02*
X73457142Y-128719657D01*
X73457142Y-128719657D02*
X73266666Y-128719657D01*
X73266666Y-128719657D02*
X73190475Y-128757752D01*
X73190475Y-128757752D02*
X73152380Y-128795847D01*
X73152380Y-128795847D02*
X73114285Y-128872038D01*
X73114285Y-128872038D02*
X73114285Y-129062514D01*
X73114285Y-129062514D02*
X73152380Y-129138704D01*
X73152380Y-129138704D02*
X73190475Y-129176800D01*
X73190475Y-129176800D02*
X73266666Y-129214895D01*
X73266666Y-129214895D02*
X73457142Y-129214895D01*
X73457142Y-129214895D02*
X73533332Y-129176800D01*
X73533332Y-129176800D02*
X73571428Y-129138704D01*
X72885713Y-128414895D02*
X72619046Y-129214895D01*
X72619046Y-129214895D02*
X72352380Y-128414895D01*
X72832380Y-123838704D02*
X72870476Y-123876800D01*
X72870476Y-123876800D02*
X72984761Y-123914895D01*
X72984761Y-123914895D02*
X73060952Y-123914895D01*
X73060952Y-123914895D02*
X73175238Y-123876800D01*
X73175238Y-123876800D02*
X73251428Y-123800609D01*
X73251428Y-123800609D02*
X73289523Y-123724419D01*
X73289523Y-123724419D02*
X73327619Y-123572038D01*
X73327619Y-123572038D02*
X73327619Y-123457752D01*
X73327619Y-123457752D02*
X73289523Y-123305371D01*
X73289523Y-123305371D02*
X73251428Y-123229180D01*
X73251428Y-123229180D02*
X73175238Y-123152990D01*
X73175238Y-123152990D02*
X73060952Y-123114895D01*
X73060952Y-123114895D02*
X72984761Y-123114895D01*
X72984761Y-123114895D02*
X72870476Y-123152990D01*
X72870476Y-123152990D02*
X72832380Y-123191085D01*
X74730476Y-88002990D02*
X74806666Y-87964895D01*
X74806666Y-87964895D02*
X74920952Y-87964895D01*
X74920952Y-87964895D02*
X75035238Y-88002990D01*
X75035238Y-88002990D02*
X75111428Y-88079180D01*
X75111428Y-88079180D02*
X75149523Y-88155371D01*
X75149523Y-88155371D02*
X75187619Y-88307752D01*
X75187619Y-88307752D02*
X75187619Y-88422038D01*
X75187619Y-88422038D02*
X75149523Y-88574419D01*
X75149523Y-88574419D02*
X75111428Y-88650609D01*
X75111428Y-88650609D02*
X75035238Y-88726800D01*
X75035238Y-88726800D02*
X74920952Y-88764895D01*
X74920952Y-88764895D02*
X74844761Y-88764895D01*
X74844761Y-88764895D02*
X74730476Y-88726800D01*
X74730476Y-88726800D02*
X74692380Y-88688704D01*
X74692380Y-88688704D02*
X74692380Y-88422038D01*
X74692380Y-88422038D02*
X74844761Y-88422038D01*
X73892380Y-88764895D02*
X74159047Y-88383942D01*
X74349523Y-88764895D02*
X74349523Y-87964895D01*
X74349523Y-87964895D02*
X74044761Y-87964895D01*
X74044761Y-87964895D02*
X73968571Y-88002990D01*
X73968571Y-88002990D02*
X73930476Y-88041085D01*
X73930476Y-88041085D02*
X73892380Y-88117276D01*
X73892380Y-88117276D02*
X73892380Y-88231561D01*
X73892380Y-88231561D02*
X73930476Y-88307752D01*
X73930476Y-88307752D02*
X73968571Y-88345847D01*
X73968571Y-88345847D02*
X74044761Y-88383942D01*
X74044761Y-88383942D02*
X74349523Y-88383942D01*
X75399999Y-95364895D02*
X75399999Y-94564895D01*
X74561904Y-95364895D02*
X74828571Y-94983942D01*
X75019047Y-95364895D02*
X75019047Y-94564895D01*
X75019047Y-94564895D02*
X74714285Y-94564895D01*
X74714285Y-94564895D02*
X74638095Y-94602990D01*
X74638095Y-94602990D02*
X74600000Y-94641085D01*
X74600000Y-94641085D02*
X74561904Y-94717276D01*
X74561904Y-94717276D02*
X74561904Y-94831561D01*
X74561904Y-94831561D02*
X74600000Y-94907752D01*
X74600000Y-94907752D02*
X74638095Y-94945847D01*
X74638095Y-94945847D02*
X74714285Y-94983942D01*
X74714285Y-94983942D02*
X75019047Y-94983942D01*
X75609523Y-97142990D02*
X75685713Y-97104895D01*
X75685713Y-97104895D02*
X75799999Y-97104895D01*
X75799999Y-97104895D02*
X75914285Y-97142990D01*
X75914285Y-97142990D02*
X75990475Y-97219180D01*
X75990475Y-97219180D02*
X76028570Y-97295371D01*
X76028570Y-97295371D02*
X76066666Y-97447752D01*
X76066666Y-97447752D02*
X76066666Y-97562038D01*
X76066666Y-97562038D02*
X76028570Y-97714419D01*
X76028570Y-97714419D02*
X75990475Y-97790609D01*
X75990475Y-97790609D02*
X75914285Y-97866800D01*
X75914285Y-97866800D02*
X75799999Y-97904895D01*
X75799999Y-97904895D02*
X75723808Y-97904895D01*
X75723808Y-97904895D02*
X75609523Y-97866800D01*
X75609523Y-97866800D02*
X75571427Y-97828704D01*
X75571427Y-97828704D02*
X75571427Y-97562038D01*
X75571427Y-97562038D02*
X75723808Y-97562038D01*
X75228570Y-97904895D02*
X75228570Y-97104895D01*
X75228570Y-97104895D02*
X74771427Y-97904895D01*
X74771427Y-97904895D02*
X74771427Y-97104895D01*
X74390475Y-97904895D02*
X74390475Y-97104895D01*
X74390475Y-97104895D02*
X74199999Y-97104895D01*
X74199999Y-97104895D02*
X74085713Y-97142990D01*
X74085713Y-97142990D02*
X74009523Y-97219180D01*
X74009523Y-97219180D02*
X73971428Y-97295371D01*
X73971428Y-97295371D02*
X73933332Y-97447752D01*
X73933332Y-97447752D02*
X73933332Y-97562038D01*
X73933332Y-97562038D02*
X73971428Y-97714419D01*
X73971428Y-97714419D02*
X74009523Y-97790609D01*
X74009523Y-97790609D02*
X74085713Y-97866800D01*
X74085713Y-97866800D02*
X74199999Y-97904895D01*
X74199999Y-97904895D02*
X74390475Y-97904895D01*
X75952381Y-101826800D02*
X75838095Y-101864895D01*
X75838095Y-101864895D02*
X75647619Y-101864895D01*
X75647619Y-101864895D02*
X75571428Y-101826800D01*
X75571428Y-101826800D02*
X75533333Y-101788704D01*
X75533333Y-101788704D02*
X75495238Y-101712514D01*
X75495238Y-101712514D02*
X75495238Y-101636323D01*
X75495238Y-101636323D02*
X75533333Y-101560133D01*
X75533333Y-101560133D02*
X75571428Y-101522038D01*
X75571428Y-101522038D02*
X75647619Y-101483942D01*
X75647619Y-101483942D02*
X75800000Y-101445847D01*
X75800000Y-101445847D02*
X75876190Y-101407752D01*
X75876190Y-101407752D02*
X75914285Y-101369657D01*
X75914285Y-101369657D02*
X75952381Y-101293466D01*
X75952381Y-101293466D02*
X75952381Y-101217276D01*
X75952381Y-101217276D02*
X75914285Y-101141085D01*
X75914285Y-101141085D02*
X75876190Y-101102990D01*
X75876190Y-101102990D02*
X75800000Y-101064895D01*
X75800000Y-101064895D02*
X75609523Y-101064895D01*
X75609523Y-101064895D02*
X75495238Y-101102990D01*
X74695237Y-101788704D02*
X74733333Y-101826800D01*
X74733333Y-101826800D02*
X74847618Y-101864895D01*
X74847618Y-101864895D02*
X74923809Y-101864895D01*
X74923809Y-101864895D02*
X75038095Y-101826800D01*
X75038095Y-101826800D02*
X75114285Y-101750609D01*
X75114285Y-101750609D02*
X75152380Y-101674419D01*
X75152380Y-101674419D02*
X75190476Y-101522038D01*
X75190476Y-101522038D02*
X75190476Y-101407752D01*
X75190476Y-101407752D02*
X75152380Y-101255371D01*
X75152380Y-101255371D02*
X75114285Y-101179180D01*
X75114285Y-101179180D02*
X75038095Y-101102990D01*
X75038095Y-101102990D02*
X74923809Y-101064895D01*
X74923809Y-101064895D02*
X74847618Y-101064895D01*
X74847618Y-101064895D02*
X74733333Y-101102990D01*
X74733333Y-101102990D02*
X74695237Y-101141085D01*
X73971428Y-101864895D02*
X74352380Y-101864895D01*
X74352380Y-101864895D02*
X74352380Y-101064895D01*
X75971428Y-103826800D02*
X75857142Y-103864895D01*
X75857142Y-103864895D02*
X75666666Y-103864895D01*
X75666666Y-103864895D02*
X75590475Y-103826800D01*
X75590475Y-103826800D02*
X75552380Y-103788704D01*
X75552380Y-103788704D02*
X75514285Y-103712514D01*
X75514285Y-103712514D02*
X75514285Y-103636323D01*
X75514285Y-103636323D02*
X75552380Y-103560133D01*
X75552380Y-103560133D02*
X75590475Y-103522038D01*
X75590475Y-103522038D02*
X75666666Y-103483942D01*
X75666666Y-103483942D02*
X75819047Y-103445847D01*
X75819047Y-103445847D02*
X75895237Y-103407752D01*
X75895237Y-103407752D02*
X75933332Y-103369657D01*
X75933332Y-103369657D02*
X75971428Y-103293466D01*
X75971428Y-103293466D02*
X75971428Y-103217276D01*
X75971428Y-103217276D02*
X75933332Y-103141085D01*
X75933332Y-103141085D02*
X75895237Y-103102990D01*
X75895237Y-103102990D02*
X75819047Y-103064895D01*
X75819047Y-103064895D02*
X75628570Y-103064895D01*
X75628570Y-103064895D02*
X75514285Y-103102990D01*
X75171427Y-103864895D02*
X75171427Y-103064895D01*
X75171427Y-103064895D02*
X74980951Y-103064895D01*
X74980951Y-103064895D02*
X74866665Y-103102990D01*
X74866665Y-103102990D02*
X74790475Y-103179180D01*
X74790475Y-103179180D02*
X74752380Y-103255371D01*
X74752380Y-103255371D02*
X74714284Y-103407752D01*
X74714284Y-103407752D02*
X74714284Y-103522038D01*
X74714284Y-103522038D02*
X74752380Y-103674419D01*
X74752380Y-103674419D02*
X74790475Y-103750609D01*
X74790475Y-103750609D02*
X74866665Y-103826800D01*
X74866665Y-103826800D02*
X74980951Y-103864895D01*
X74980951Y-103864895D02*
X75171427Y-103864895D01*
X74409523Y-103636323D02*
X74028570Y-103636323D01*
X74485713Y-103864895D02*
X74219046Y-103064895D01*
X74219046Y-103064895D02*
X73952380Y-103864895D01*
X75990476Y-105064895D02*
X75495238Y-105064895D01*
X75495238Y-105064895D02*
X75761904Y-105369657D01*
X75761904Y-105369657D02*
X75647619Y-105369657D01*
X75647619Y-105369657D02*
X75571428Y-105407752D01*
X75571428Y-105407752D02*
X75533333Y-105445847D01*
X75533333Y-105445847D02*
X75495238Y-105522038D01*
X75495238Y-105522038D02*
X75495238Y-105712514D01*
X75495238Y-105712514D02*
X75533333Y-105788704D01*
X75533333Y-105788704D02*
X75571428Y-105826800D01*
X75571428Y-105826800D02*
X75647619Y-105864895D01*
X75647619Y-105864895D02*
X75876190Y-105864895D01*
X75876190Y-105864895D02*
X75952381Y-105826800D01*
X75952381Y-105826800D02*
X75990476Y-105788704D01*
X75266666Y-105064895D02*
X74999999Y-105864895D01*
X74999999Y-105864895D02*
X74733333Y-105064895D01*
X74542857Y-105064895D02*
X74047619Y-105064895D01*
X74047619Y-105064895D02*
X74314285Y-105369657D01*
X74314285Y-105369657D02*
X74200000Y-105369657D01*
X74200000Y-105369657D02*
X74123809Y-105407752D01*
X74123809Y-105407752D02*
X74085714Y-105445847D01*
X74085714Y-105445847D02*
X74047619Y-105522038D01*
X74047619Y-105522038D02*
X74047619Y-105712514D01*
X74047619Y-105712514D02*
X74085714Y-105788704D01*
X74085714Y-105788704D02*
X74123809Y-105826800D01*
X74123809Y-105826800D02*
X74200000Y-105864895D01*
X74200000Y-105864895D02*
X74428571Y-105864895D01*
X74428571Y-105864895D02*
X74504762Y-105826800D01*
X74504762Y-105826800D02*
X74542857Y-105788704D01*
X75609523Y-107102990D02*
X75685713Y-107064895D01*
X75685713Y-107064895D02*
X75799999Y-107064895D01*
X75799999Y-107064895D02*
X75914285Y-107102990D01*
X75914285Y-107102990D02*
X75990475Y-107179180D01*
X75990475Y-107179180D02*
X76028570Y-107255371D01*
X76028570Y-107255371D02*
X76066666Y-107407752D01*
X76066666Y-107407752D02*
X76066666Y-107522038D01*
X76066666Y-107522038D02*
X76028570Y-107674419D01*
X76028570Y-107674419D02*
X75990475Y-107750609D01*
X75990475Y-107750609D02*
X75914285Y-107826800D01*
X75914285Y-107826800D02*
X75799999Y-107864895D01*
X75799999Y-107864895D02*
X75723808Y-107864895D01*
X75723808Y-107864895D02*
X75609523Y-107826800D01*
X75609523Y-107826800D02*
X75571427Y-107788704D01*
X75571427Y-107788704D02*
X75571427Y-107522038D01*
X75571427Y-107522038D02*
X75723808Y-107522038D01*
X75228570Y-107864895D02*
X75228570Y-107064895D01*
X75228570Y-107064895D02*
X74771427Y-107864895D01*
X74771427Y-107864895D02*
X74771427Y-107064895D01*
X74390475Y-107864895D02*
X74390475Y-107064895D01*
X74390475Y-107064895D02*
X74199999Y-107064895D01*
X74199999Y-107064895D02*
X74085713Y-107102990D01*
X74085713Y-107102990D02*
X74009523Y-107179180D01*
X74009523Y-107179180D02*
X73971428Y-107255371D01*
X73971428Y-107255371D02*
X73933332Y-107407752D01*
X73933332Y-107407752D02*
X73933332Y-107522038D01*
X73933332Y-107522038D02*
X73971428Y-107674419D01*
X73971428Y-107674419D02*
X74009523Y-107750609D01*
X74009523Y-107750609D02*
X74085713Y-107826800D01*
X74085713Y-107826800D02*
X74199999Y-107864895D01*
X74199999Y-107864895D02*
X74390475Y-107864895D01*
X76435237Y-129214895D02*
X76435237Y-128414895D01*
X75597142Y-129214895D02*
X75863809Y-128833942D01*
X76054285Y-129214895D02*
X76054285Y-128414895D01*
X76054285Y-128414895D02*
X75749523Y-128414895D01*
X75749523Y-128414895D02*
X75673333Y-128452990D01*
X75673333Y-128452990D02*
X75635238Y-128491085D01*
X75635238Y-128491085D02*
X75597142Y-128567276D01*
X75597142Y-128567276D02*
X75597142Y-128681561D01*
X75597142Y-128681561D02*
X75635238Y-128757752D01*
X75635238Y-128757752D02*
X75673333Y-128795847D01*
X75673333Y-128795847D02*
X75749523Y-128833942D01*
X75749523Y-128833942D02*
X76054285Y-128833942D01*
X75254285Y-128910133D02*
X74644762Y-128910133D01*
X77079999Y-88764895D02*
X77079999Y-87964895D01*
X79242857Y-112326323D02*
X78861904Y-112326323D01*
X79319047Y-112554895D02*
X79052380Y-111754895D01*
X79052380Y-111754895D02*
X78785714Y-112554895D01*
X78519047Y-112554895D02*
X78519047Y-111754895D01*
X78519047Y-111754895D02*
X78252381Y-112326323D01*
X78252381Y-112326323D02*
X77985714Y-111754895D01*
X77985714Y-111754895D02*
X77985714Y-112554895D01*
X77604761Y-112554895D02*
X77604761Y-111754895D01*
X77604761Y-111754895D02*
X77299999Y-111754895D01*
X77299999Y-111754895D02*
X77223809Y-111792990D01*
X77223809Y-111792990D02*
X77185714Y-111831085D01*
X77185714Y-111831085D02*
X77147618Y-111907276D01*
X77147618Y-111907276D02*
X77147618Y-112021561D01*
X77147618Y-112021561D02*
X77185714Y-112097752D01*
X77185714Y-112097752D02*
X77223809Y-112135847D01*
X77223809Y-112135847D02*
X77299999Y-112173942D01*
X77299999Y-112173942D02*
X77604761Y-112173942D01*
X76995238Y-112631085D02*
X76385714Y-112631085D01*
X76195237Y-112554895D02*
X76195237Y-111754895D01*
X79223809Y-115056800D02*
X79109523Y-115094895D01*
X79109523Y-115094895D02*
X78919047Y-115094895D01*
X78919047Y-115094895D02*
X78842856Y-115056800D01*
X78842856Y-115056800D02*
X78804761Y-115018704D01*
X78804761Y-115018704D02*
X78766666Y-114942514D01*
X78766666Y-114942514D02*
X78766666Y-114866323D01*
X78766666Y-114866323D02*
X78804761Y-114790133D01*
X78804761Y-114790133D02*
X78842856Y-114752038D01*
X78842856Y-114752038D02*
X78919047Y-114713942D01*
X78919047Y-114713942D02*
X79071428Y-114675847D01*
X79071428Y-114675847D02*
X79147618Y-114637752D01*
X79147618Y-114637752D02*
X79185713Y-114599657D01*
X79185713Y-114599657D02*
X79223809Y-114523466D01*
X79223809Y-114523466D02*
X79223809Y-114447276D01*
X79223809Y-114447276D02*
X79185713Y-114371085D01*
X79185713Y-114371085D02*
X79147618Y-114332990D01*
X79147618Y-114332990D02*
X79071428Y-114294895D01*
X79071428Y-114294895D02*
X78880951Y-114294895D01*
X78880951Y-114294895D02*
X78766666Y-114332990D01*
X78423808Y-115094895D02*
X78423808Y-114294895D01*
X78423808Y-114294895D02*
X77966665Y-115094895D01*
X77966665Y-115094895D02*
X77966665Y-114294895D01*
X77623809Y-115056800D02*
X77509523Y-115094895D01*
X77509523Y-115094895D02*
X77319047Y-115094895D01*
X77319047Y-115094895D02*
X77242856Y-115056800D01*
X77242856Y-115056800D02*
X77204761Y-115018704D01*
X77204761Y-115018704D02*
X77166666Y-114942514D01*
X77166666Y-114942514D02*
X77166666Y-114866323D01*
X77166666Y-114866323D02*
X77204761Y-114790133D01*
X77204761Y-114790133D02*
X77242856Y-114752038D01*
X77242856Y-114752038D02*
X77319047Y-114713942D01*
X77319047Y-114713942D02*
X77471428Y-114675847D01*
X77471428Y-114675847D02*
X77547618Y-114637752D01*
X77547618Y-114637752D02*
X77585713Y-114599657D01*
X77585713Y-114599657D02*
X77623809Y-114523466D01*
X77623809Y-114523466D02*
X77623809Y-114447276D01*
X77623809Y-114447276D02*
X77585713Y-114371085D01*
X77585713Y-114371085D02*
X77547618Y-114332990D01*
X77547618Y-114332990D02*
X77471428Y-114294895D01*
X77471428Y-114294895D02*
X77280951Y-114294895D01*
X77280951Y-114294895D02*
X77166666Y-114332990D01*
X77014285Y-115171085D02*
X76404761Y-115171085D01*
X76214284Y-115094895D02*
X76214284Y-114294895D01*
X78804761Y-117558704D02*
X78842857Y-117596800D01*
X78842857Y-117596800D02*
X78957142Y-117634895D01*
X78957142Y-117634895D02*
X79033333Y-117634895D01*
X79033333Y-117634895D02*
X79147619Y-117596800D01*
X79147619Y-117596800D02*
X79223809Y-117520609D01*
X79223809Y-117520609D02*
X79261904Y-117444419D01*
X79261904Y-117444419D02*
X79300000Y-117292038D01*
X79300000Y-117292038D02*
X79300000Y-117177752D01*
X79300000Y-117177752D02*
X79261904Y-117025371D01*
X79261904Y-117025371D02*
X79223809Y-116949180D01*
X79223809Y-116949180D02*
X79147619Y-116872990D01*
X79147619Y-116872990D02*
X79033333Y-116834895D01*
X79033333Y-116834895D02*
X78957142Y-116834895D01*
X78957142Y-116834895D02*
X78842857Y-116872990D01*
X78842857Y-116872990D02*
X78804761Y-116911085D01*
X78461904Y-117634895D02*
X78461904Y-116834895D01*
X78461904Y-116834895D02*
X78195238Y-117406323D01*
X78195238Y-117406323D02*
X77928571Y-116834895D01*
X77928571Y-116834895D02*
X77928571Y-117634895D01*
X77547618Y-117634895D02*
X77547618Y-116834895D01*
X77547618Y-116834895D02*
X77357142Y-116834895D01*
X77357142Y-116834895D02*
X77242856Y-116872990D01*
X77242856Y-116872990D02*
X77166666Y-116949180D01*
X77166666Y-116949180D02*
X77128571Y-117025371D01*
X77128571Y-117025371D02*
X77090475Y-117177752D01*
X77090475Y-117177752D02*
X77090475Y-117292038D01*
X77090475Y-117292038D02*
X77128571Y-117444419D01*
X77128571Y-117444419D02*
X77166666Y-117520609D01*
X77166666Y-117520609D02*
X77242856Y-117596800D01*
X77242856Y-117596800D02*
X77357142Y-117634895D01*
X77357142Y-117634895D02*
X77547618Y-117634895D01*
X76938095Y-117711085D02*
X76328571Y-117711085D01*
X76138094Y-117634895D02*
X76138094Y-116834895D01*
X78309523Y-119412990D02*
X78385713Y-119374895D01*
X78385713Y-119374895D02*
X78499999Y-119374895D01*
X78499999Y-119374895D02*
X78614285Y-119412990D01*
X78614285Y-119412990D02*
X78690475Y-119489180D01*
X78690475Y-119489180D02*
X78728570Y-119565371D01*
X78728570Y-119565371D02*
X78766666Y-119717752D01*
X78766666Y-119717752D02*
X78766666Y-119832038D01*
X78766666Y-119832038D02*
X78728570Y-119984419D01*
X78728570Y-119984419D02*
X78690475Y-120060609D01*
X78690475Y-120060609D02*
X78614285Y-120136800D01*
X78614285Y-120136800D02*
X78499999Y-120174895D01*
X78499999Y-120174895D02*
X78423808Y-120174895D01*
X78423808Y-120174895D02*
X78309523Y-120136800D01*
X78309523Y-120136800D02*
X78271427Y-120098704D01*
X78271427Y-120098704D02*
X78271427Y-119832038D01*
X78271427Y-119832038D02*
X78423808Y-119832038D01*
X77928570Y-120174895D02*
X77928570Y-119374895D01*
X77928570Y-119374895D02*
X77471427Y-120174895D01*
X77471427Y-120174895D02*
X77471427Y-119374895D01*
X77090475Y-120174895D02*
X77090475Y-119374895D01*
X77090475Y-119374895D02*
X76899999Y-119374895D01*
X76899999Y-119374895D02*
X76785713Y-119412990D01*
X76785713Y-119412990D02*
X76709523Y-119489180D01*
X76709523Y-119489180D02*
X76671428Y-119565371D01*
X76671428Y-119565371D02*
X76633332Y-119717752D01*
X76633332Y-119717752D02*
X76633332Y-119832038D01*
X76633332Y-119832038D02*
X76671428Y-119984419D01*
X76671428Y-119984419D02*
X76709523Y-120060609D01*
X76709523Y-120060609D02*
X76785713Y-120136800D01*
X76785713Y-120136800D02*
X76899999Y-120174895D01*
X76899999Y-120174895D02*
X77090475Y-120174895D01*
X79600952Y-88002990D02*
X79677142Y-87964895D01*
X79677142Y-87964895D02*
X79791428Y-87964895D01*
X79791428Y-87964895D02*
X79905714Y-88002990D01*
X79905714Y-88002990D02*
X79981904Y-88079180D01*
X79981904Y-88079180D02*
X80019999Y-88155371D01*
X80019999Y-88155371D02*
X80058095Y-88307752D01*
X80058095Y-88307752D02*
X80058095Y-88422038D01*
X80058095Y-88422038D02*
X80019999Y-88574419D01*
X80019999Y-88574419D02*
X79981904Y-88650609D01*
X79981904Y-88650609D02*
X79905714Y-88726800D01*
X79905714Y-88726800D02*
X79791428Y-88764895D01*
X79791428Y-88764895D02*
X79715237Y-88764895D01*
X79715237Y-88764895D02*
X79600952Y-88726800D01*
X79600952Y-88726800D02*
X79562856Y-88688704D01*
X79562856Y-88688704D02*
X79562856Y-88422038D01*
X79562856Y-88422038D02*
X79715237Y-88422038D01*
X79219999Y-88764895D02*
X79219999Y-87964895D01*
X84152380Y-128414895D02*
X84533332Y-128414895D01*
X84533332Y-128414895D02*
X84571428Y-128795847D01*
X84571428Y-128795847D02*
X84533332Y-128757752D01*
X84533332Y-128757752D02*
X84457142Y-128719657D01*
X84457142Y-128719657D02*
X84266666Y-128719657D01*
X84266666Y-128719657D02*
X84190475Y-128757752D01*
X84190475Y-128757752D02*
X84152380Y-128795847D01*
X84152380Y-128795847D02*
X84114285Y-128872038D01*
X84114285Y-128872038D02*
X84114285Y-129062514D01*
X84114285Y-129062514D02*
X84152380Y-129138704D01*
X84152380Y-129138704D02*
X84190475Y-129176800D01*
X84190475Y-129176800D02*
X84266666Y-129214895D01*
X84266666Y-129214895D02*
X84457142Y-129214895D01*
X84457142Y-129214895D02*
X84533332Y-129176800D01*
X84533332Y-129176800D02*
X84571428Y-129138704D01*
X83885713Y-128414895D02*
X83619046Y-129214895D01*
X83619046Y-129214895D02*
X83352380Y-128414895D01*
X91342857Y-72364895D02*
X91342857Y-71564895D01*
X91342857Y-71564895D02*
X91152381Y-71564895D01*
X91152381Y-71564895D02*
X91038095Y-71602990D01*
X91038095Y-71602990D02*
X90961905Y-71679180D01*
X90961905Y-71679180D02*
X90923810Y-71755371D01*
X90923810Y-71755371D02*
X90885714Y-71907752D01*
X90885714Y-71907752D02*
X90885714Y-72022038D01*
X90885714Y-72022038D02*
X90923810Y-72174419D01*
X90923810Y-72174419D02*
X90961905Y-72250609D01*
X90961905Y-72250609D02*
X91038095Y-72326800D01*
X91038095Y-72326800D02*
X91152381Y-72364895D01*
X91152381Y-72364895D02*
X91342857Y-72364895D01*
X90580953Y-72136323D02*
X90200000Y-72136323D01*
X90657143Y-72364895D02*
X90390476Y-71564895D01*
X90390476Y-71564895D02*
X90123810Y-72364895D01*
X89971429Y-71564895D02*
X89514286Y-71564895D01*
X89742858Y-72364895D02*
X89742858Y-71564895D01*
X89247619Y-72364895D02*
X89247619Y-71564895D01*
X89247619Y-71564895D02*
X88790476Y-72364895D01*
X88790476Y-72364895D02*
X88790476Y-71564895D01*
X88409524Y-72288704D02*
X88371429Y-72326800D01*
X88371429Y-72326800D02*
X88409524Y-72364895D01*
X88409524Y-72364895D02*
X88447620Y-72326800D01*
X88447620Y-72326800D02*
X88409524Y-72288704D01*
X88409524Y-72288704D02*
X88409524Y-72364895D01*
X88409524Y-71869657D02*
X88371429Y-71907752D01*
X88371429Y-71907752D02*
X88409524Y-71945847D01*
X88409524Y-71945847D02*
X88447620Y-71907752D01*
X88447620Y-71907752D02*
X88409524Y-71869657D01*
X88409524Y-71869657D02*
X88409524Y-71945847D01*
X87419048Y-72364895D02*
X87419048Y-71564895D01*
X87419048Y-71564895D02*
X87114286Y-71564895D01*
X87114286Y-71564895D02*
X87038096Y-71602990D01*
X87038096Y-71602990D02*
X87000001Y-71641085D01*
X87000001Y-71641085D02*
X86961905Y-71717276D01*
X86961905Y-71717276D02*
X86961905Y-71831561D01*
X86961905Y-71831561D02*
X87000001Y-71907752D01*
X87000001Y-71907752D02*
X87038096Y-71945847D01*
X87038096Y-71945847D02*
X87114286Y-71983942D01*
X87114286Y-71983942D02*
X87419048Y-71983942D01*
X86619048Y-72364895D02*
X86619048Y-71564895D01*
X86619048Y-71564895D02*
X86314286Y-71564895D01*
X86314286Y-71564895D02*
X86238096Y-71602990D01*
X86238096Y-71602990D02*
X86200001Y-71641085D01*
X86200001Y-71641085D02*
X86161905Y-71717276D01*
X86161905Y-71717276D02*
X86161905Y-71831561D01*
X86161905Y-71831561D02*
X86200001Y-71907752D01*
X86200001Y-71907752D02*
X86238096Y-71945847D01*
X86238096Y-71945847D02*
X86314286Y-71983942D01*
X86314286Y-71983942D02*
X86619048Y-71983942D01*
X85400001Y-71602990D02*
X85476191Y-71564895D01*
X85476191Y-71564895D02*
X85590477Y-71564895D01*
X85590477Y-71564895D02*
X85704763Y-71602990D01*
X85704763Y-71602990D02*
X85780953Y-71679180D01*
X85780953Y-71679180D02*
X85819048Y-71755371D01*
X85819048Y-71755371D02*
X85857144Y-71907752D01*
X85857144Y-71907752D02*
X85857144Y-72022038D01*
X85857144Y-72022038D02*
X85819048Y-72174419D01*
X85819048Y-72174419D02*
X85780953Y-72250609D01*
X85780953Y-72250609D02*
X85704763Y-72326800D01*
X85704763Y-72326800D02*
X85590477Y-72364895D01*
X85590477Y-72364895D02*
X85514286Y-72364895D01*
X85514286Y-72364895D02*
X85400001Y-72326800D01*
X85400001Y-72326800D02*
X85361905Y-72288704D01*
X85361905Y-72288704D02*
X85361905Y-72022038D01*
X85361905Y-72022038D02*
X85514286Y-72022038D01*
X85019048Y-72060133D02*
X84409525Y-72060133D01*
X84066668Y-72326800D02*
X83952382Y-72364895D01*
X83952382Y-72364895D02*
X83761906Y-72364895D01*
X83761906Y-72364895D02*
X83685715Y-72326800D01*
X83685715Y-72326800D02*
X83647620Y-72288704D01*
X83647620Y-72288704D02*
X83609525Y-72212514D01*
X83609525Y-72212514D02*
X83609525Y-72136323D01*
X83609525Y-72136323D02*
X83647620Y-72060133D01*
X83647620Y-72060133D02*
X83685715Y-72022038D01*
X83685715Y-72022038D02*
X83761906Y-71983942D01*
X83761906Y-71983942D02*
X83914287Y-71945847D01*
X83914287Y-71945847D02*
X83990477Y-71907752D01*
X83990477Y-71907752D02*
X84028572Y-71869657D01*
X84028572Y-71869657D02*
X84066668Y-71793466D01*
X84066668Y-71793466D02*
X84066668Y-71717276D01*
X84066668Y-71717276D02*
X84028572Y-71641085D01*
X84028572Y-71641085D02*
X83990477Y-71602990D01*
X83990477Y-71602990D02*
X83914287Y-71564895D01*
X83914287Y-71564895D02*
X83723810Y-71564895D01*
X83723810Y-71564895D02*
X83609525Y-71602990D01*
X83266667Y-72364895D02*
X83266667Y-71831561D01*
X83266667Y-71564895D02*
X83304763Y-71602990D01*
X83304763Y-71602990D02*
X83266667Y-71641085D01*
X83266667Y-71641085D02*
X83228572Y-71602990D01*
X83228572Y-71602990D02*
X83266667Y-71564895D01*
X83266667Y-71564895D02*
X83266667Y-71641085D01*
X82885715Y-72364895D02*
X82885715Y-71831561D01*
X82885715Y-71907752D02*
X82847620Y-71869657D01*
X82847620Y-71869657D02*
X82771430Y-71831561D01*
X82771430Y-71831561D02*
X82657144Y-71831561D01*
X82657144Y-71831561D02*
X82580953Y-71869657D01*
X82580953Y-71869657D02*
X82542858Y-71945847D01*
X82542858Y-71945847D02*
X82542858Y-72364895D01*
X82542858Y-71945847D02*
X82504763Y-71869657D01*
X82504763Y-71869657D02*
X82428572Y-71831561D01*
X82428572Y-71831561D02*
X82314287Y-71831561D01*
X82314287Y-71831561D02*
X82238096Y-71869657D01*
X82238096Y-71869657D02*
X82200001Y-71945847D01*
X82200001Y-71945847D02*
X82200001Y-72364895D01*
X81476191Y-71831561D02*
X81476191Y-72364895D01*
X81819048Y-71831561D02*
X81819048Y-72250609D01*
X81819048Y-72250609D02*
X81780953Y-72326800D01*
X81780953Y-72326800D02*
X81704763Y-72364895D01*
X81704763Y-72364895D02*
X81590477Y-72364895D01*
X81590477Y-72364895D02*
X81514286Y-72326800D01*
X81514286Y-72326800D02*
X81476191Y-72288704D01*
X80980953Y-72364895D02*
X81057143Y-72326800D01*
X81057143Y-72326800D02*
X81095238Y-72250609D01*
X81095238Y-72250609D02*
X81095238Y-71564895D01*
X80333333Y-72364895D02*
X80333333Y-71945847D01*
X80333333Y-71945847D02*
X80371428Y-71869657D01*
X80371428Y-71869657D02*
X80447619Y-71831561D01*
X80447619Y-71831561D02*
X80600000Y-71831561D01*
X80600000Y-71831561D02*
X80676190Y-71869657D01*
X80333333Y-72326800D02*
X80409524Y-72364895D01*
X80409524Y-72364895D02*
X80600000Y-72364895D01*
X80600000Y-72364895D02*
X80676190Y-72326800D01*
X80676190Y-72326800D02*
X80714286Y-72250609D01*
X80714286Y-72250609D02*
X80714286Y-72174419D01*
X80714286Y-72174419D02*
X80676190Y-72098228D01*
X80676190Y-72098228D02*
X80600000Y-72060133D01*
X80600000Y-72060133D02*
X80409524Y-72060133D01*
X80409524Y-72060133D02*
X80333333Y-72022038D01*
X80066666Y-71831561D02*
X79761904Y-71831561D01*
X79952380Y-71564895D02*
X79952380Y-72250609D01*
X79952380Y-72250609D02*
X79914285Y-72326800D01*
X79914285Y-72326800D02*
X79838095Y-72364895D01*
X79838095Y-72364895D02*
X79761904Y-72364895D01*
X79380952Y-72364895D02*
X79457142Y-72326800D01*
X79457142Y-72326800D02*
X79495237Y-72288704D01*
X79495237Y-72288704D02*
X79533333Y-72212514D01*
X79533333Y-72212514D02*
X79533333Y-71983942D01*
X79533333Y-71983942D02*
X79495237Y-71907752D01*
X79495237Y-71907752D02*
X79457142Y-71869657D01*
X79457142Y-71869657D02*
X79380952Y-71831561D01*
X79380952Y-71831561D02*
X79266666Y-71831561D01*
X79266666Y-71831561D02*
X79190475Y-71869657D01*
X79190475Y-71869657D02*
X79152380Y-71907752D01*
X79152380Y-71907752D02*
X79114285Y-71983942D01*
X79114285Y-71983942D02*
X79114285Y-72212514D01*
X79114285Y-72212514D02*
X79152380Y-72288704D01*
X79152380Y-72288704D02*
X79190475Y-72326800D01*
X79190475Y-72326800D02*
X79266666Y-72364895D01*
X79266666Y-72364895D02*
X79380952Y-72364895D01*
X78771427Y-72364895D02*
X78771427Y-71831561D01*
X78771427Y-71983942D02*
X78733332Y-71907752D01*
X78733332Y-71907752D02*
X78695237Y-71869657D01*
X78695237Y-71869657D02*
X78619046Y-71831561D01*
X78619046Y-71831561D02*
X78542856Y-71831561D01*
X95800002Y-73964895D02*
X95800002Y-73164895D01*
X95800002Y-73164895D02*
X95342859Y-73964895D01*
X95342859Y-73964895D02*
X95342859Y-73164895D01*
X94619050Y-73431561D02*
X94619050Y-74079180D01*
X94619050Y-74079180D02*
X94657145Y-74155371D01*
X94657145Y-74155371D02*
X94695241Y-74193466D01*
X94695241Y-74193466D02*
X94771431Y-74231561D01*
X94771431Y-74231561D02*
X94885717Y-74231561D01*
X94885717Y-74231561D02*
X94961907Y-74193466D01*
X94619050Y-73926800D02*
X94695241Y-73964895D01*
X94695241Y-73964895D02*
X94847622Y-73964895D01*
X94847622Y-73964895D02*
X94923812Y-73926800D01*
X94923812Y-73926800D02*
X94961907Y-73888704D01*
X94961907Y-73888704D02*
X95000003Y-73812514D01*
X95000003Y-73812514D02*
X95000003Y-73583942D01*
X95000003Y-73583942D02*
X94961907Y-73507752D01*
X94961907Y-73507752D02*
X94923812Y-73469657D01*
X94923812Y-73469657D02*
X94847622Y-73431561D01*
X94847622Y-73431561D02*
X94695241Y-73431561D01*
X94695241Y-73431561D02*
X94619050Y-73469657D01*
X93895240Y-73431561D02*
X93895240Y-73964895D01*
X94238097Y-73431561D02*
X94238097Y-73850609D01*
X94238097Y-73850609D02*
X94200002Y-73926800D01*
X94200002Y-73926800D02*
X94123812Y-73964895D01*
X94123812Y-73964895D02*
X94009526Y-73964895D01*
X94009526Y-73964895D02*
X93933335Y-73926800D01*
X93933335Y-73926800D02*
X93895240Y-73888704D01*
X93590478Y-73431561D02*
X93400002Y-73964895D01*
X93209525Y-73431561D02*
X93400002Y-73964895D01*
X93400002Y-73964895D02*
X93476192Y-74155371D01*
X93476192Y-74155371D02*
X93514287Y-74193466D01*
X93514287Y-74193466D02*
X93590478Y-74231561D01*
X92600001Y-73926800D02*
X92676192Y-73964895D01*
X92676192Y-73964895D02*
X92828573Y-73964895D01*
X92828573Y-73964895D02*
X92904763Y-73926800D01*
X92904763Y-73926800D02*
X92942859Y-73850609D01*
X92942859Y-73850609D02*
X92942859Y-73545847D01*
X92942859Y-73545847D02*
X92904763Y-73469657D01*
X92904763Y-73469657D02*
X92828573Y-73431561D01*
X92828573Y-73431561D02*
X92676192Y-73431561D01*
X92676192Y-73431561D02*
X92600001Y-73469657D01*
X92600001Y-73469657D02*
X92561906Y-73545847D01*
X92561906Y-73545847D02*
X92561906Y-73622038D01*
X92561906Y-73622038D02*
X92942859Y-73698228D01*
X92219049Y-73431561D02*
X92219049Y-73964895D01*
X92219049Y-73507752D02*
X92180954Y-73469657D01*
X92180954Y-73469657D02*
X92104764Y-73431561D01*
X92104764Y-73431561D02*
X91990478Y-73431561D01*
X91990478Y-73431561D02*
X91914287Y-73469657D01*
X91914287Y-73469657D02*
X91876192Y-73545847D01*
X91876192Y-73545847D02*
X91876192Y-73964895D01*
X90885715Y-73964895D02*
X90885715Y-73164895D01*
X90885715Y-73164895D02*
X90428572Y-73964895D01*
X90428572Y-73964895D02*
X90428572Y-73164895D01*
X90047620Y-73964895D02*
X90047620Y-73164895D01*
X89704763Y-73964895D02*
X89704763Y-73545847D01*
X89704763Y-73545847D02*
X89742858Y-73469657D01*
X89742858Y-73469657D02*
X89819049Y-73431561D01*
X89819049Y-73431561D02*
X89933335Y-73431561D01*
X89933335Y-73431561D02*
X90009525Y-73469657D01*
X90009525Y-73469657D02*
X90047620Y-73507752D01*
X88980953Y-73964895D02*
X88980953Y-73545847D01*
X88980953Y-73545847D02*
X89019048Y-73469657D01*
X89019048Y-73469657D02*
X89095239Y-73431561D01*
X89095239Y-73431561D02*
X89247620Y-73431561D01*
X89247620Y-73431561D02*
X89323810Y-73469657D01*
X88980953Y-73926800D02*
X89057144Y-73964895D01*
X89057144Y-73964895D02*
X89247620Y-73964895D01*
X89247620Y-73964895D02*
X89323810Y-73926800D01*
X89323810Y-73926800D02*
X89361906Y-73850609D01*
X89361906Y-73850609D02*
X89361906Y-73774419D01*
X89361906Y-73774419D02*
X89323810Y-73698228D01*
X89323810Y-73698228D02*
X89247620Y-73660133D01*
X89247620Y-73660133D02*
X89057144Y-73660133D01*
X89057144Y-73660133D02*
X88980953Y-73622038D01*
X88714286Y-73431561D02*
X88409524Y-73431561D01*
X88600000Y-73164895D02*
X88600000Y-73850609D01*
X88600000Y-73850609D02*
X88561905Y-73926800D01*
X88561905Y-73926800D02*
X88485715Y-73964895D01*
X88485715Y-73964895D02*
X88409524Y-73964895D01*
X87533333Y-73964895D02*
X87533333Y-73164895D01*
X87533333Y-73545847D02*
X87076190Y-73545847D01*
X87076190Y-73964895D02*
X87076190Y-73164895D01*
X86352381Y-73431561D02*
X86352381Y-73964895D01*
X86695238Y-73431561D02*
X86695238Y-73850609D01*
X86695238Y-73850609D02*
X86657143Y-73926800D01*
X86657143Y-73926800D02*
X86580953Y-73964895D01*
X86580953Y-73964895D02*
X86466667Y-73964895D01*
X86466667Y-73964895D02*
X86390476Y-73926800D01*
X86390476Y-73926800D02*
X86352381Y-73888704D01*
X86047619Y-73431561D02*
X85857143Y-73964895D01*
X85666666Y-73431561D02*
X85857143Y-73964895D01*
X85857143Y-73964895D02*
X85933333Y-74155371D01*
X85933333Y-74155371D02*
X85971428Y-74193466D01*
X85971428Y-74193466D02*
X86047619Y-74231561D01*
X84752380Y-73660133D02*
X84142857Y-73660133D01*
X83152380Y-73964895D02*
X83152380Y-73164895D01*
X83152380Y-73164895D02*
X82847618Y-73164895D01*
X82847618Y-73164895D02*
X82771428Y-73202990D01*
X82771428Y-73202990D02*
X82733333Y-73241085D01*
X82733333Y-73241085D02*
X82695237Y-73317276D01*
X82695237Y-73317276D02*
X82695237Y-73431561D01*
X82695237Y-73431561D02*
X82733333Y-73507752D01*
X82733333Y-73507752D02*
X82771428Y-73545847D01*
X82771428Y-73545847D02*
X82847618Y-73583942D01*
X82847618Y-73583942D02*
X83152380Y-73583942D01*
X82352380Y-73964895D02*
X82352380Y-73164895D01*
X82009523Y-73964895D02*
X82009523Y-73545847D01*
X82009523Y-73545847D02*
X82047618Y-73469657D01*
X82047618Y-73469657D02*
X82123809Y-73431561D01*
X82123809Y-73431561D02*
X82238095Y-73431561D01*
X82238095Y-73431561D02*
X82314285Y-73469657D01*
X82314285Y-73469657D02*
X82352380Y-73507752D01*
X81285713Y-73964895D02*
X81285713Y-73545847D01*
X81285713Y-73545847D02*
X81323808Y-73469657D01*
X81323808Y-73469657D02*
X81399999Y-73431561D01*
X81399999Y-73431561D02*
X81552380Y-73431561D01*
X81552380Y-73431561D02*
X81628570Y-73469657D01*
X81285713Y-73926800D02*
X81361904Y-73964895D01*
X81361904Y-73964895D02*
X81552380Y-73964895D01*
X81552380Y-73964895D02*
X81628570Y-73926800D01*
X81628570Y-73926800D02*
X81666666Y-73850609D01*
X81666666Y-73850609D02*
X81666666Y-73774419D01*
X81666666Y-73774419D02*
X81628570Y-73698228D01*
X81628570Y-73698228D02*
X81552380Y-73660133D01*
X81552380Y-73660133D02*
X81361904Y-73660133D01*
X81361904Y-73660133D02*
X81285713Y-73622038D01*
X80904760Y-73964895D02*
X80904760Y-73431561D01*
X80904760Y-73507752D02*
X80866665Y-73469657D01*
X80866665Y-73469657D02*
X80790475Y-73431561D01*
X80790475Y-73431561D02*
X80676189Y-73431561D01*
X80676189Y-73431561D02*
X80599998Y-73469657D01*
X80599998Y-73469657D02*
X80561903Y-73545847D01*
X80561903Y-73545847D02*
X80561903Y-73964895D01*
X80561903Y-73545847D02*
X80523808Y-73469657D01*
X80523808Y-73469657D02*
X80447617Y-73431561D01*
X80447617Y-73431561D02*
X80333332Y-73431561D01*
X80333332Y-73431561D02*
X80257141Y-73469657D01*
X80257141Y-73469657D02*
X80219046Y-73545847D01*
X80219046Y-73545847D02*
X80219046Y-73964895D01*
X79342855Y-73164895D02*
X78885712Y-73164895D01*
X79114284Y-73964895D02*
X79114284Y-73164895D01*
X78619045Y-73964895D02*
X78619045Y-73164895D01*
X78276188Y-73964895D02*
X78276188Y-73545847D01*
X78276188Y-73545847D02*
X78314283Y-73469657D01*
X78314283Y-73469657D02*
X78390474Y-73431561D01*
X78390474Y-73431561D02*
X78504760Y-73431561D01*
X78504760Y-73431561D02*
X78580950Y-73469657D01*
X78580950Y-73469657D02*
X78619045Y-73507752D01*
X77552378Y-73964895D02*
X77552378Y-73545847D01*
X77552378Y-73545847D02*
X77590473Y-73469657D01*
X77590473Y-73469657D02*
X77666664Y-73431561D01*
X77666664Y-73431561D02*
X77819045Y-73431561D01*
X77819045Y-73431561D02*
X77895235Y-73469657D01*
X77552378Y-73926800D02*
X77628569Y-73964895D01*
X77628569Y-73964895D02*
X77819045Y-73964895D01*
X77819045Y-73964895D02*
X77895235Y-73926800D01*
X77895235Y-73926800D02*
X77933331Y-73850609D01*
X77933331Y-73850609D02*
X77933331Y-73774419D01*
X77933331Y-73774419D02*
X77895235Y-73698228D01*
X77895235Y-73698228D02*
X77819045Y-73660133D01*
X77819045Y-73660133D02*
X77628569Y-73660133D01*
X77628569Y-73660133D02*
X77552378Y-73622038D01*
X77171425Y-73431561D02*
X77171425Y-73964895D01*
X77171425Y-73507752D02*
X77133330Y-73469657D01*
X77133330Y-73469657D02*
X77057140Y-73431561D01*
X77057140Y-73431561D02*
X76942854Y-73431561D01*
X76942854Y-73431561D02*
X76866663Y-73469657D01*
X76866663Y-73469657D02*
X76828568Y-73545847D01*
X76828568Y-73545847D02*
X76828568Y-73964895D01*
X76447615Y-73964895D02*
X76447615Y-73164895D01*
X76104758Y-73964895D02*
X76104758Y-73545847D01*
X76104758Y-73545847D02*
X76142853Y-73469657D01*
X76142853Y-73469657D02*
X76219044Y-73431561D01*
X76219044Y-73431561D02*
X76333330Y-73431561D01*
X76333330Y-73431561D02*
X76409520Y-73469657D01*
X76409520Y-73469657D02*
X76447615Y-73507752D01*
X75228567Y-73164895D02*
X74961900Y-73964895D01*
X74961900Y-73964895D02*
X74695234Y-73164895D01*
X74504758Y-73431561D02*
X74314282Y-73964895D01*
X74123805Y-73431561D02*
X74314282Y-73964895D01*
X74314282Y-73964895D02*
X74390472Y-74155371D01*
X74390472Y-74155371D02*
X74428567Y-74193466D01*
X74428567Y-74193466D02*
X74504758Y-74231561D01*
X91342857Y-91764895D02*
X91342857Y-90964895D01*
X91342857Y-90964895D02*
X91152381Y-90964895D01*
X91152381Y-90964895D02*
X91038095Y-91002990D01*
X91038095Y-91002990D02*
X90961905Y-91079180D01*
X90961905Y-91079180D02*
X90923810Y-91155371D01*
X90923810Y-91155371D02*
X90885714Y-91307752D01*
X90885714Y-91307752D02*
X90885714Y-91422038D01*
X90885714Y-91422038D02*
X90923810Y-91574419D01*
X90923810Y-91574419D02*
X90961905Y-91650609D01*
X90961905Y-91650609D02*
X91038095Y-91726800D01*
X91038095Y-91726800D02*
X91152381Y-91764895D01*
X91152381Y-91764895D02*
X91342857Y-91764895D01*
X90580953Y-91536323D02*
X90200000Y-91536323D01*
X90657143Y-91764895D02*
X90390476Y-90964895D01*
X90390476Y-90964895D02*
X90123810Y-91764895D01*
X89971429Y-90964895D02*
X89514286Y-90964895D01*
X89742858Y-91764895D02*
X89742858Y-90964895D01*
X89247619Y-91764895D02*
X89247619Y-90964895D01*
X89247619Y-90964895D02*
X88790476Y-91764895D01*
X88790476Y-91764895D02*
X88790476Y-90964895D01*
X88409524Y-91688704D02*
X88371429Y-91726800D01*
X88371429Y-91726800D02*
X88409524Y-91764895D01*
X88409524Y-91764895D02*
X88447620Y-91726800D01*
X88447620Y-91726800D02*
X88409524Y-91688704D01*
X88409524Y-91688704D02*
X88409524Y-91764895D01*
X88409524Y-91269657D02*
X88371429Y-91307752D01*
X88371429Y-91307752D02*
X88409524Y-91345847D01*
X88409524Y-91345847D02*
X88447620Y-91307752D01*
X88447620Y-91307752D02*
X88409524Y-91269657D01*
X88409524Y-91269657D02*
X88409524Y-91345847D01*
X87419048Y-91764895D02*
X87419048Y-90964895D01*
X87419048Y-90964895D02*
X87114286Y-90964895D01*
X87114286Y-90964895D02*
X87038096Y-91002990D01*
X87038096Y-91002990D02*
X87000001Y-91041085D01*
X87000001Y-91041085D02*
X86961905Y-91117276D01*
X86961905Y-91117276D02*
X86961905Y-91231561D01*
X86961905Y-91231561D02*
X87000001Y-91307752D01*
X87000001Y-91307752D02*
X87038096Y-91345847D01*
X87038096Y-91345847D02*
X87114286Y-91383942D01*
X87114286Y-91383942D02*
X87419048Y-91383942D01*
X86619048Y-91764895D02*
X86619048Y-90964895D01*
X86619048Y-90964895D02*
X86314286Y-90964895D01*
X86314286Y-90964895D02*
X86238096Y-91002990D01*
X86238096Y-91002990D02*
X86200001Y-91041085D01*
X86200001Y-91041085D02*
X86161905Y-91117276D01*
X86161905Y-91117276D02*
X86161905Y-91231561D01*
X86161905Y-91231561D02*
X86200001Y-91307752D01*
X86200001Y-91307752D02*
X86238096Y-91345847D01*
X86238096Y-91345847D02*
X86314286Y-91383942D01*
X86314286Y-91383942D02*
X86619048Y-91383942D01*
X85400001Y-91002990D02*
X85476191Y-90964895D01*
X85476191Y-90964895D02*
X85590477Y-90964895D01*
X85590477Y-90964895D02*
X85704763Y-91002990D01*
X85704763Y-91002990D02*
X85780953Y-91079180D01*
X85780953Y-91079180D02*
X85819048Y-91155371D01*
X85819048Y-91155371D02*
X85857144Y-91307752D01*
X85857144Y-91307752D02*
X85857144Y-91422038D01*
X85857144Y-91422038D02*
X85819048Y-91574419D01*
X85819048Y-91574419D02*
X85780953Y-91650609D01*
X85780953Y-91650609D02*
X85704763Y-91726800D01*
X85704763Y-91726800D02*
X85590477Y-91764895D01*
X85590477Y-91764895D02*
X85514286Y-91764895D01*
X85514286Y-91764895D02*
X85400001Y-91726800D01*
X85400001Y-91726800D02*
X85361905Y-91688704D01*
X85361905Y-91688704D02*
X85361905Y-91422038D01*
X85361905Y-91422038D02*
X85514286Y-91422038D01*
X85019048Y-91460133D02*
X84409525Y-91460133D01*
X84066668Y-91726800D02*
X83952382Y-91764895D01*
X83952382Y-91764895D02*
X83761906Y-91764895D01*
X83761906Y-91764895D02*
X83685715Y-91726800D01*
X83685715Y-91726800D02*
X83647620Y-91688704D01*
X83647620Y-91688704D02*
X83609525Y-91612514D01*
X83609525Y-91612514D02*
X83609525Y-91536323D01*
X83609525Y-91536323D02*
X83647620Y-91460133D01*
X83647620Y-91460133D02*
X83685715Y-91422038D01*
X83685715Y-91422038D02*
X83761906Y-91383942D01*
X83761906Y-91383942D02*
X83914287Y-91345847D01*
X83914287Y-91345847D02*
X83990477Y-91307752D01*
X83990477Y-91307752D02*
X84028572Y-91269657D01*
X84028572Y-91269657D02*
X84066668Y-91193466D01*
X84066668Y-91193466D02*
X84066668Y-91117276D01*
X84066668Y-91117276D02*
X84028572Y-91041085D01*
X84028572Y-91041085D02*
X83990477Y-91002990D01*
X83990477Y-91002990D02*
X83914287Y-90964895D01*
X83914287Y-90964895D02*
X83723810Y-90964895D01*
X83723810Y-90964895D02*
X83609525Y-91002990D01*
X83266667Y-91764895D02*
X83266667Y-91231561D01*
X83266667Y-90964895D02*
X83304763Y-91002990D01*
X83304763Y-91002990D02*
X83266667Y-91041085D01*
X83266667Y-91041085D02*
X83228572Y-91002990D01*
X83228572Y-91002990D02*
X83266667Y-90964895D01*
X83266667Y-90964895D02*
X83266667Y-91041085D01*
X82885715Y-91764895D02*
X82885715Y-91231561D01*
X82885715Y-91307752D02*
X82847620Y-91269657D01*
X82847620Y-91269657D02*
X82771430Y-91231561D01*
X82771430Y-91231561D02*
X82657144Y-91231561D01*
X82657144Y-91231561D02*
X82580953Y-91269657D01*
X82580953Y-91269657D02*
X82542858Y-91345847D01*
X82542858Y-91345847D02*
X82542858Y-91764895D01*
X82542858Y-91345847D02*
X82504763Y-91269657D01*
X82504763Y-91269657D02*
X82428572Y-91231561D01*
X82428572Y-91231561D02*
X82314287Y-91231561D01*
X82314287Y-91231561D02*
X82238096Y-91269657D01*
X82238096Y-91269657D02*
X82200001Y-91345847D01*
X82200001Y-91345847D02*
X82200001Y-91764895D01*
X81476191Y-91231561D02*
X81476191Y-91764895D01*
X81819048Y-91231561D02*
X81819048Y-91650609D01*
X81819048Y-91650609D02*
X81780953Y-91726800D01*
X81780953Y-91726800D02*
X81704763Y-91764895D01*
X81704763Y-91764895D02*
X81590477Y-91764895D01*
X81590477Y-91764895D02*
X81514286Y-91726800D01*
X81514286Y-91726800D02*
X81476191Y-91688704D01*
X80980953Y-91764895D02*
X81057143Y-91726800D01*
X81057143Y-91726800D02*
X81095238Y-91650609D01*
X81095238Y-91650609D02*
X81095238Y-90964895D01*
X80333333Y-91764895D02*
X80333333Y-91345847D01*
X80333333Y-91345847D02*
X80371428Y-91269657D01*
X80371428Y-91269657D02*
X80447619Y-91231561D01*
X80447619Y-91231561D02*
X80600000Y-91231561D01*
X80600000Y-91231561D02*
X80676190Y-91269657D01*
X80333333Y-91726800D02*
X80409524Y-91764895D01*
X80409524Y-91764895D02*
X80600000Y-91764895D01*
X80600000Y-91764895D02*
X80676190Y-91726800D01*
X80676190Y-91726800D02*
X80714286Y-91650609D01*
X80714286Y-91650609D02*
X80714286Y-91574419D01*
X80714286Y-91574419D02*
X80676190Y-91498228D01*
X80676190Y-91498228D02*
X80600000Y-91460133D01*
X80600000Y-91460133D02*
X80409524Y-91460133D01*
X80409524Y-91460133D02*
X80333333Y-91422038D01*
X80066666Y-91231561D02*
X79761904Y-91231561D01*
X79952380Y-90964895D02*
X79952380Y-91650609D01*
X79952380Y-91650609D02*
X79914285Y-91726800D01*
X79914285Y-91726800D02*
X79838095Y-91764895D01*
X79838095Y-91764895D02*
X79761904Y-91764895D01*
X79380952Y-91764895D02*
X79457142Y-91726800D01*
X79457142Y-91726800D02*
X79495237Y-91688704D01*
X79495237Y-91688704D02*
X79533333Y-91612514D01*
X79533333Y-91612514D02*
X79533333Y-91383942D01*
X79533333Y-91383942D02*
X79495237Y-91307752D01*
X79495237Y-91307752D02*
X79457142Y-91269657D01*
X79457142Y-91269657D02*
X79380952Y-91231561D01*
X79380952Y-91231561D02*
X79266666Y-91231561D01*
X79266666Y-91231561D02*
X79190475Y-91269657D01*
X79190475Y-91269657D02*
X79152380Y-91307752D01*
X79152380Y-91307752D02*
X79114285Y-91383942D01*
X79114285Y-91383942D02*
X79114285Y-91612514D01*
X79114285Y-91612514D02*
X79152380Y-91688704D01*
X79152380Y-91688704D02*
X79190475Y-91726800D01*
X79190475Y-91726800D02*
X79266666Y-91764895D01*
X79266666Y-91764895D02*
X79380952Y-91764895D01*
X78771427Y-91764895D02*
X78771427Y-91231561D01*
X78771427Y-91383942D02*
X78733332Y-91307752D01*
X78733332Y-91307752D02*
X78695237Y-91269657D01*
X78695237Y-91269657D02*
X78619046Y-91231561D01*
X78619046Y-91231561D02*
X78542856Y-91231561D01*
X95800002Y-93264895D02*
X95800002Y-92464895D01*
X95800002Y-92464895D02*
X95342859Y-93264895D01*
X95342859Y-93264895D02*
X95342859Y-92464895D01*
X94619050Y-92731561D02*
X94619050Y-93379180D01*
X94619050Y-93379180D02*
X94657145Y-93455371D01*
X94657145Y-93455371D02*
X94695241Y-93493466D01*
X94695241Y-93493466D02*
X94771431Y-93531561D01*
X94771431Y-93531561D02*
X94885717Y-93531561D01*
X94885717Y-93531561D02*
X94961907Y-93493466D01*
X94619050Y-93226800D02*
X94695241Y-93264895D01*
X94695241Y-93264895D02*
X94847622Y-93264895D01*
X94847622Y-93264895D02*
X94923812Y-93226800D01*
X94923812Y-93226800D02*
X94961907Y-93188704D01*
X94961907Y-93188704D02*
X95000003Y-93112514D01*
X95000003Y-93112514D02*
X95000003Y-92883942D01*
X95000003Y-92883942D02*
X94961907Y-92807752D01*
X94961907Y-92807752D02*
X94923812Y-92769657D01*
X94923812Y-92769657D02*
X94847622Y-92731561D01*
X94847622Y-92731561D02*
X94695241Y-92731561D01*
X94695241Y-92731561D02*
X94619050Y-92769657D01*
X93895240Y-92731561D02*
X93895240Y-93264895D01*
X94238097Y-92731561D02*
X94238097Y-93150609D01*
X94238097Y-93150609D02*
X94200002Y-93226800D01*
X94200002Y-93226800D02*
X94123812Y-93264895D01*
X94123812Y-93264895D02*
X94009526Y-93264895D01*
X94009526Y-93264895D02*
X93933335Y-93226800D01*
X93933335Y-93226800D02*
X93895240Y-93188704D01*
X93590478Y-92731561D02*
X93400002Y-93264895D01*
X93209525Y-92731561D02*
X93400002Y-93264895D01*
X93400002Y-93264895D02*
X93476192Y-93455371D01*
X93476192Y-93455371D02*
X93514287Y-93493466D01*
X93514287Y-93493466D02*
X93590478Y-93531561D01*
X92600001Y-93226800D02*
X92676192Y-93264895D01*
X92676192Y-93264895D02*
X92828573Y-93264895D01*
X92828573Y-93264895D02*
X92904763Y-93226800D01*
X92904763Y-93226800D02*
X92942859Y-93150609D01*
X92942859Y-93150609D02*
X92942859Y-92845847D01*
X92942859Y-92845847D02*
X92904763Y-92769657D01*
X92904763Y-92769657D02*
X92828573Y-92731561D01*
X92828573Y-92731561D02*
X92676192Y-92731561D01*
X92676192Y-92731561D02*
X92600001Y-92769657D01*
X92600001Y-92769657D02*
X92561906Y-92845847D01*
X92561906Y-92845847D02*
X92561906Y-92922038D01*
X92561906Y-92922038D02*
X92942859Y-92998228D01*
X92219049Y-92731561D02*
X92219049Y-93264895D01*
X92219049Y-92807752D02*
X92180954Y-92769657D01*
X92180954Y-92769657D02*
X92104764Y-92731561D01*
X92104764Y-92731561D02*
X91990478Y-92731561D01*
X91990478Y-92731561D02*
X91914287Y-92769657D01*
X91914287Y-92769657D02*
X91876192Y-92845847D01*
X91876192Y-92845847D02*
X91876192Y-93264895D01*
X90885715Y-93264895D02*
X90885715Y-92464895D01*
X90885715Y-92464895D02*
X90428572Y-93264895D01*
X90428572Y-93264895D02*
X90428572Y-92464895D01*
X90047620Y-93264895D02*
X90047620Y-92464895D01*
X89704763Y-93264895D02*
X89704763Y-92845847D01*
X89704763Y-92845847D02*
X89742858Y-92769657D01*
X89742858Y-92769657D02*
X89819049Y-92731561D01*
X89819049Y-92731561D02*
X89933335Y-92731561D01*
X89933335Y-92731561D02*
X90009525Y-92769657D01*
X90009525Y-92769657D02*
X90047620Y-92807752D01*
X88980953Y-93264895D02*
X88980953Y-92845847D01*
X88980953Y-92845847D02*
X89019048Y-92769657D01*
X89019048Y-92769657D02*
X89095239Y-92731561D01*
X89095239Y-92731561D02*
X89247620Y-92731561D01*
X89247620Y-92731561D02*
X89323810Y-92769657D01*
X88980953Y-93226800D02*
X89057144Y-93264895D01*
X89057144Y-93264895D02*
X89247620Y-93264895D01*
X89247620Y-93264895D02*
X89323810Y-93226800D01*
X89323810Y-93226800D02*
X89361906Y-93150609D01*
X89361906Y-93150609D02*
X89361906Y-93074419D01*
X89361906Y-93074419D02*
X89323810Y-92998228D01*
X89323810Y-92998228D02*
X89247620Y-92960133D01*
X89247620Y-92960133D02*
X89057144Y-92960133D01*
X89057144Y-92960133D02*
X88980953Y-92922038D01*
X88714286Y-92731561D02*
X88409524Y-92731561D01*
X88600000Y-92464895D02*
X88600000Y-93150609D01*
X88600000Y-93150609D02*
X88561905Y-93226800D01*
X88561905Y-93226800D02*
X88485715Y-93264895D01*
X88485715Y-93264895D02*
X88409524Y-93264895D01*
X87533333Y-93264895D02*
X87533333Y-92464895D01*
X87533333Y-92845847D02*
X87076190Y-92845847D01*
X87076190Y-93264895D02*
X87076190Y-92464895D01*
X86352381Y-92731561D02*
X86352381Y-93264895D01*
X86695238Y-92731561D02*
X86695238Y-93150609D01*
X86695238Y-93150609D02*
X86657143Y-93226800D01*
X86657143Y-93226800D02*
X86580953Y-93264895D01*
X86580953Y-93264895D02*
X86466667Y-93264895D01*
X86466667Y-93264895D02*
X86390476Y-93226800D01*
X86390476Y-93226800D02*
X86352381Y-93188704D01*
X86047619Y-92731561D02*
X85857143Y-93264895D01*
X85666666Y-92731561D02*
X85857143Y-93264895D01*
X85857143Y-93264895D02*
X85933333Y-93455371D01*
X85933333Y-93455371D02*
X85971428Y-93493466D01*
X85971428Y-93493466D02*
X86047619Y-93531561D01*
X84752380Y-92960133D02*
X84142857Y-92960133D01*
X83152380Y-93264895D02*
X83152380Y-92464895D01*
X83152380Y-92464895D02*
X82847618Y-92464895D01*
X82847618Y-92464895D02*
X82771428Y-92502990D01*
X82771428Y-92502990D02*
X82733333Y-92541085D01*
X82733333Y-92541085D02*
X82695237Y-92617276D01*
X82695237Y-92617276D02*
X82695237Y-92731561D01*
X82695237Y-92731561D02*
X82733333Y-92807752D01*
X82733333Y-92807752D02*
X82771428Y-92845847D01*
X82771428Y-92845847D02*
X82847618Y-92883942D01*
X82847618Y-92883942D02*
X83152380Y-92883942D01*
X82352380Y-93264895D02*
X82352380Y-92464895D01*
X82009523Y-93264895D02*
X82009523Y-92845847D01*
X82009523Y-92845847D02*
X82047618Y-92769657D01*
X82047618Y-92769657D02*
X82123809Y-92731561D01*
X82123809Y-92731561D02*
X82238095Y-92731561D01*
X82238095Y-92731561D02*
X82314285Y-92769657D01*
X82314285Y-92769657D02*
X82352380Y-92807752D01*
X81285713Y-93264895D02*
X81285713Y-92845847D01*
X81285713Y-92845847D02*
X81323808Y-92769657D01*
X81323808Y-92769657D02*
X81399999Y-92731561D01*
X81399999Y-92731561D02*
X81552380Y-92731561D01*
X81552380Y-92731561D02*
X81628570Y-92769657D01*
X81285713Y-93226800D02*
X81361904Y-93264895D01*
X81361904Y-93264895D02*
X81552380Y-93264895D01*
X81552380Y-93264895D02*
X81628570Y-93226800D01*
X81628570Y-93226800D02*
X81666666Y-93150609D01*
X81666666Y-93150609D02*
X81666666Y-93074419D01*
X81666666Y-93074419D02*
X81628570Y-92998228D01*
X81628570Y-92998228D02*
X81552380Y-92960133D01*
X81552380Y-92960133D02*
X81361904Y-92960133D01*
X81361904Y-92960133D02*
X81285713Y-92922038D01*
X80904760Y-93264895D02*
X80904760Y-92731561D01*
X80904760Y-92807752D02*
X80866665Y-92769657D01*
X80866665Y-92769657D02*
X80790475Y-92731561D01*
X80790475Y-92731561D02*
X80676189Y-92731561D01*
X80676189Y-92731561D02*
X80599998Y-92769657D01*
X80599998Y-92769657D02*
X80561903Y-92845847D01*
X80561903Y-92845847D02*
X80561903Y-93264895D01*
X80561903Y-92845847D02*
X80523808Y-92769657D01*
X80523808Y-92769657D02*
X80447617Y-92731561D01*
X80447617Y-92731561D02*
X80333332Y-92731561D01*
X80333332Y-92731561D02*
X80257141Y-92769657D01*
X80257141Y-92769657D02*
X80219046Y-92845847D01*
X80219046Y-92845847D02*
X80219046Y-93264895D01*
X79342855Y-92464895D02*
X78885712Y-92464895D01*
X79114284Y-93264895D02*
X79114284Y-92464895D01*
X78619045Y-93264895D02*
X78619045Y-92464895D01*
X78276188Y-93264895D02*
X78276188Y-92845847D01*
X78276188Y-92845847D02*
X78314283Y-92769657D01*
X78314283Y-92769657D02*
X78390474Y-92731561D01*
X78390474Y-92731561D02*
X78504760Y-92731561D01*
X78504760Y-92731561D02*
X78580950Y-92769657D01*
X78580950Y-92769657D02*
X78619045Y-92807752D01*
X77552378Y-93264895D02*
X77552378Y-92845847D01*
X77552378Y-92845847D02*
X77590473Y-92769657D01*
X77590473Y-92769657D02*
X77666664Y-92731561D01*
X77666664Y-92731561D02*
X77819045Y-92731561D01*
X77819045Y-92731561D02*
X77895235Y-92769657D01*
X77552378Y-93226800D02*
X77628569Y-93264895D01*
X77628569Y-93264895D02*
X77819045Y-93264895D01*
X77819045Y-93264895D02*
X77895235Y-93226800D01*
X77895235Y-93226800D02*
X77933331Y-93150609D01*
X77933331Y-93150609D02*
X77933331Y-93074419D01*
X77933331Y-93074419D02*
X77895235Y-92998228D01*
X77895235Y-92998228D02*
X77819045Y-92960133D01*
X77819045Y-92960133D02*
X77628569Y-92960133D01*
X77628569Y-92960133D02*
X77552378Y-92922038D01*
X77171425Y-92731561D02*
X77171425Y-93264895D01*
X77171425Y-92807752D02*
X77133330Y-92769657D01*
X77133330Y-92769657D02*
X77057140Y-92731561D01*
X77057140Y-92731561D02*
X76942854Y-92731561D01*
X76942854Y-92731561D02*
X76866663Y-92769657D01*
X76866663Y-92769657D02*
X76828568Y-92845847D01*
X76828568Y-92845847D02*
X76828568Y-93264895D01*
X76447615Y-93264895D02*
X76447615Y-92464895D01*
X76104758Y-93264895D02*
X76104758Y-92845847D01*
X76104758Y-92845847D02*
X76142853Y-92769657D01*
X76142853Y-92769657D02*
X76219044Y-92731561D01*
X76219044Y-92731561D02*
X76333330Y-92731561D01*
X76333330Y-92731561D02*
X76409520Y-92769657D01*
X76409520Y-92769657D02*
X76447615Y-92807752D01*
X75228567Y-92464895D02*
X74961900Y-93264895D01*
X74961900Y-93264895D02*
X74695234Y-92464895D01*
X74504758Y-92731561D02*
X74314282Y-93264895D01*
X74123805Y-92731561D02*
X74314282Y-93264895D01*
X74314282Y-93264895D02*
X74390472Y-93455371D01*
X74390472Y-93455371D02*
X74428567Y-93493466D01*
X74428567Y-93493466D02*
X74504758Y-93531561D01*
X87149523Y-128452990D02*
X87225713Y-128414895D01*
X87225713Y-128414895D02*
X87339999Y-128414895D01*
X87339999Y-128414895D02*
X87454285Y-128452990D01*
X87454285Y-128452990D02*
X87530475Y-128529180D01*
X87530475Y-128529180D02*
X87568570Y-128605371D01*
X87568570Y-128605371D02*
X87606666Y-128757752D01*
X87606666Y-128757752D02*
X87606666Y-128872038D01*
X87606666Y-128872038D02*
X87568570Y-129024419D01*
X87568570Y-129024419D02*
X87530475Y-129100609D01*
X87530475Y-129100609D02*
X87454285Y-129176800D01*
X87454285Y-129176800D02*
X87339999Y-129214895D01*
X87339999Y-129214895D02*
X87263808Y-129214895D01*
X87263808Y-129214895D02*
X87149523Y-129176800D01*
X87149523Y-129176800D02*
X87111427Y-129138704D01*
X87111427Y-129138704D02*
X87111427Y-128872038D01*
X87111427Y-128872038D02*
X87263808Y-128872038D01*
X86768570Y-129214895D02*
X86768570Y-128414895D01*
X86768570Y-128414895D02*
X86311427Y-129214895D01*
X86311427Y-129214895D02*
X86311427Y-128414895D01*
X85930475Y-129214895D02*
X85930475Y-128414895D01*
X85930475Y-128414895D02*
X85739999Y-128414895D01*
X85739999Y-128414895D02*
X85625713Y-128452990D01*
X85625713Y-128452990D02*
X85549523Y-128529180D01*
X85549523Y-128529180D02*
X85511428Y-128605371D01*
X85511428Y-128605371D02*
X85473332Y-128757752D01*
X85473332Y-128757752D02*
X85473332Y-128872038D01*
X85473332Y-128872038D02*
X85511428Y-129024419D01*
X85511428Y-129024419D02*
X85549523Y-129100609D01*
X85549523Y-129100609D02*
X85625713Y-129176800D01*
X85625713Y-129176800D02*
X85739999Y-129214895D01*
X85739999Y-129214895D02*
X85930475Y-129214895D01*
X93352380Y-111754895D02*
X93733332Y-111754895D01*
X93733332Y-111754895D02*
X93771428Y-112135847D01*
X93771428Y-112135847D02*
X93733332Y-112097752D01*
X93733332Y-112097752D02*
X93657142Y-112059657D01*
X93657142Y-112059657D02*
X93466666Y-112059657D01*
X93466666Y-112059657D02*
X93390475Y-112097752D01*
X93390475Y-112097752D02*
X93352380Y-112135847D01*
X93352380Y-112135847D02*
X93314285Y-112212038D01*
X93314285Y-112212038D02*
X93314285Y-112402514D01*
X93314285Y-112402514D02*
X93352380Y-112478704D01*
X93352380Y-112478704D02*
X93390475Y-112516800D01*
X93390475Y-112516800D02*
X93466666Y-112554895D01*
X93466666Y-112554895D02*
X93657142Y-112554895D01*
X93657142Y-112554895D02*
X93733332Y-112516800D01*
X93733332Y-112516800D02*
X93771428Y-112478704D01*
X93085713Y-111754895D02*
X92819046Y-112554895D01*
X92819046Y-112554895D02*
X92552380Y-111754895D01*
X94952381Y-114866323D02*
X94571428Y-114866323D01*
X95028571Y-115094895D02*
X94761904Y-114294895D01*
X94761904Y-114294895D02*
X94495238Y-115094895D01*
X94228571Y-115094895D02*
X94228571Y-114294895D01*
X94228571Y-114294895D02*
X93961905Y-114866323D01*
X93961905Y-114866323D02*
X93695238Y-114294895D01*
X93695238Y-114294895D02*
X93695238Y-115094895D01*
X93314285Y-115094895D02*
X93314285Y-114294895D01*
X93314285Y-114294895D02*
X93009523Y-114294895D01*
X93009523Y-114294895D02*
X92933333Y-114332990D01*
X92933333Y-114332990D02*
X92895238Y-114371085D01*
X92895238Y-114371085D02*
X92857142Y-114447276D01*
X92857142Y-114447276D02*
X92857142Y-114561561D01*
X92857142Y-114561561D02*
X92895238Y-114637752D01*
X92895238Y-114637752D02*
X92933333Y-114675847D01*
X92933333Y-114675847D02*
X93009523Y-114713942D01*
X93009523Y-114713942D02*
X93314285Y-114713942D01*
X92704762Y-115171085D02*
X92095238Y-115171085D01*
X91447618Y-115094895D02*
X91714285Y-114713942D01*
X91904761Y-115094895D02*
X91904761Y-114294895D01*
X91904761Y-114294895D02*
X91599999Y-114294895D01*
X91599999Y-114294895D02*
X91523809Y-114332990D01*
X91523809Y-114332990D02*
X91485714Y-114371085D01*
X91485714Y-114371085D02*
X91447618Y-114447276D01*
X91447618Y-114447276D02*
X91447618Y-114561561D01*
X91447618Y-114561561D02*
X91485714Y-114637752D01*
X91485714Y-114637752D02*
X91523809Y-114675847D01*
X91523809Y-114675847D02*
X91599999Y-114713942D01*
X91599999Y-114713942D02*
X91904761Y-114713942D01*
X94933333Y-117596800D02*
X94819047Y-117634895D01*
X94819047Y-117634895D02*
X94628571Y-117634895D01*
X94628571Y-117634895D02*
X94552380Y-117596800D01*
X94552380Y-117596800D02*
X94514285Y-117558704D01*
X94514285Y-117558704D02*
X94476190Y-117482514D01*
X94476190Y-117482514D02*
X94476190Y-117406323D01*
X94476190Y-117406323D02*
X94514285Y-117330133D01*
X94514285Y-117330133D02*
X94552380Y-117292038D01*
X94552380Y-117292038D02*
X94628571Y-117253942D01*
X94628571Y-117253942D02*
X94780952Y-117215847D01*
X94780952Y-117215847D02*
X94857142Y-117177752D01*
X94857142Y-117177752D02*
X94895237Y-117139657D01*
X94895237Y-117139657D02*
X94933333Y-117063466D01*
X94933333Y-117063466D02*
X94933333Y-116987276D01*
X94933333Y-116987276D02*
X94895237Y-116911085D01*
X94895237Y-116911085D02*
X94857142Y-116872990D01*
X94857142Y-116872990D02*
X94780952Y-116834895D01*
X94780952Y-116834895D02*
X94590475Y-116834895D01*
X94590475Y-116834895D02*
X94476190Y-116872990D01*
X94133332Y-117634895D02*
X94133332Y-116834895D01*
X94133332Y-116834895D02*
X93676189Y-117634895D01*
X93676189Y-117634895D02*
X93676189Y-116834895D01*
X93333333Y-117596800D02*
X93219047Y-117634895D01*
X93219047Y-117634895D02*
X93028571Y-117634895D01*
X93028571Y-117634895D02*
X92952380Y-117596800D01*
X92952380Y-117596800D02*
X92914285Y-117558704D01*
X92914285Y-117558704D02*
X92876190Y-117482514D01*
X92876190Y-117482514D02*
X92876190Y-117406323D01*
X92876190Y-117406323D02*
X92914285Y-117330133D01*
X92914285Y-117330133D02*
X92952380Y-117292038D01*
X92952380Y-117292038D02*
X93028571Y-117253942D01*
X93028571Y-117253942D02*
X93180952Y-117215847D01*
X93180952Y-117215847D02*
X93257142Y-117177752D01*
X93257142Y-117177752D02*
X93295237Y-117139657D01*
X93295237Y-117139657D02*
X93333333Y-117063466D01*
X93333333Y-117063466D02*
X93333333Y-116987276D01*
X93333333Y-116987276D02*
X93295237Y-116911085D01*
X93295237Y-116911085D02*
X93257142Y-116872990D01*
X93257142Y-116872990D02*
X93180952Y-116834895D01*
X93180952Y-116834895D02*
X92990475Y-116834895D01*
X92990475Y-116834895D02*
X92876190Y-116872990D01*
X92723809Y-117711085D02*
X92114285Y-117711085D01*
X91466665Y-117634895D02*
X91733332Y-117253942D01*
X91923808Y-117634895D02*
X91923808Y-116834895D01*
X91923808Y-116834895D02*
X91619046Y-116834895D01*
X91619046Y-116834895D02*
X91542856Y-116872990D01*
X91542856Y-116872990D02*
X91504761Y-116911085D01*
X91504761Y-116911085D02*
X91466665Y-116987276D01*
X91466665Y-116987276D02*
X91466665Y-117101561D01*
X91466665Y-117101561D02*
X91504761Y-117177752D01*
X91504761Y-117177752D02*
X91542856Y-117215847D01*
X91542856Y-117215847D02*
X91619046Y-117253942D01*
X91619046Y-117253942D02*
X91923808Y-117253942D01*
X94514285Y-120098704D02*
X94552381Y-120136800D01*
X94552381Y-120136800D02*
X94666666Y-120174895D01*
X94666666Y-120174895D02*
X94742857Y-120174895D01*
X94742857Y-120174895D02*
X94857143Y-120136800D01*
X94857143Y-120136800D02*
X94933333Y-120060609D01*
X94933333Y-120060609D02*
X94971428Y-119984419D01*
X94971428Y-119984419D02*
X95009524Y-119832038D01*
X95009524Y-119832038D02*
X95009524Y-119717752D01*
X95009524Y-119717752D02*
X94971428Y-119565371D01*
X94971428Y-119565371D02*
X94933333Y-119489180D01*
X94933333Y-119489180D02*
X94857143Y-119412990D01*
X94857143Y-119412990D02*
X94742857Y-119374895D01*
X94742857Y-119374895D02*
X94666666Y-119374895D01*
X94666666Y-119374895D02*
X94552381Y-119412990D01*
X94552381Y-119412990D02*
X94514285Y-119451085D01*
X94171428Y-120174895D02*
X94171428Y-119374895D01*
X94171428Y-119374895D02*
X93904762Y-119946323D01*
X93904762Y-119946323D02*
X93638095Y-119374895D01*
X93638095Y-119374895D02*
X93638095Y-120174895D01*
X93257142Y-120174895D02*
X93257142Y-119374895D01*
X93257142Y-119374895D02*
X93066666Y-119374895D01*
X93066666Y-119374895D02*
X92952380Y-119412990D01*
X92952380Y-119412990D02*
X92876190Y-119489180D01*
X92876190Y-119489180D02*
X92838095Y-119565371D01*
X92838095Y-119565371D02*
X92799999Y-119717752D01*
X92799999Y-119717752D02*
X92799999Y-119832038D01*
X92799999Y-119832038D02*
X92838095Y-119984419D01*
X92838095Y-119984419D02*
X92876190Y-120060609D01*
X92876190Y-120060609D02*
X92952380Y-120136800D01*
X92952380Y-120136800D02*
X93066666Y-120174895D01*
X93066666Y-120174895D02*
X93257142Y-120174895D01*
X92647619Y-120251085D02*
X92038095Y-120251085D01*
X91390475Y-120174895D02*
X91657142Y-119793942D01*
X91847618Y-120174895D02*
X91847618Y-119374895D01*
X91847618Y-119374895D02*
X91542856Y-119374895D01*
X91542856Y-119374895D02*
X91466666Y-119412990D01*
X91466666Y-119412990D02*
X91428571Y-119451085D01*
X91428571Y-119451085D02*
X91390475Y-119527276D01*
X91390475Y-119527276D02*
X91390475Y-119641561D01*
X91390475Y-119641561D02*
X91428571Y-119717752D01*
X91428571Y-119717752D02*
X91466666Y-119755847D01*
X91466666Y-119755847D02*
X91542856Y-119793942D01*
X91542856Y-119793942D02*
X91847618Y-119793942D01*
X94214285Y-95364895D02*
X94480952Y-94983942D01*
X94671428Y-95364895D02*
X94671428Y-94564895D01*
X94671428Y-94564895D02*
X94366666Y-94564895D01*
X94366666Y-94564895D02*
X94290476Y-94602990D01*
X94290476Y-94602990D02*
X94252381Y-94641085D01*
X94252381Y-94641085D02*
X94214285Y-94717276D01*
X94214285Y-94717276D02*
X94214285Y-94831561D01*
X94214285Y-94831561D02*
X94252381Y-94907752D01*
X94252381Y-94907752D02*
X94290476Y-94945847D01*
X94290476Y-94945847D02*
X94366666Y-94983942D01*
X94366666Y-94983942D02*
X94671428Y-94983942D01*
X93871428Y-94945847D02*
X93604762Y-94945847D01*
X93490476Y-95364895D02*
X93871428Y-95364895D01*
X93871428Y-95364895D02*
X93871428Y-94564895D01*
X93871428Y-94564895D02*
X93490476Y-94564895D01*
X93147618Y-95364895D02*
X93147618Y-94564895D01*
X93147618Y-94564895D02*
X92957142Y-94564895D01*
X92957142Y-94564895D02*
X92842856Y-94602990D01*
X92842856Y-94602990D02*
X92766666Y-94679180D01*
X92766666Y-94679180D02*
X92728571Y-94755371D01*
X92728571Y-94755371D02*
X92690475Y-94907752D01*
X92690475Y-94907752D02*
X92690475Y-95022038D01*
X92690475Y-95022038D02*
X92728571Y-95174419D01*
X92728571Y-95174419D02*
X92766666Y-95250609D01*
X92766666Y-95250609D02*
X92842856Y-95326800D01*
X92842856Y-95326800D02*
X92957142Y-95364895D01*
X92957142Y-95364895D02*
X93147618Y-95364895D01*
X94309523Y-97142990D02*
X94385713Y-97104895D01*
X94385713Y-97104895D02*
X94499999Y-97104895D01*
X94499999Y-97104895D02*
X94614285Y-97142990D01*
X94614285Y-97142990D02*
X94690475Y-97219180D01*
X94690475Y-97219180D02*
X94728570Y-97295371D01*
X94728570Y-97295371D02*
X94766666Y-97447752D01*
X94766666Y-97447752D02*
X94766666Y-97562038D01*
X94766666Y-97562038D02*
X94728570Y-97714419D01*
X94728570Y-97714419D02*
X94690475Y-97790609D01*
X94690475Y-97790609D02*
X94614285Y-97866800D01*
X94614285Y-97866800D02*
X94499999Y-97904895D01*
X94499999Y-97904895D02*
X94423808Y-97904895D01*
X94423808Y-97904895D02*
X94309523Y-97866800D01*
X94309523Y-97866800D02*
X94271427Y-97828704D01*
X94271427Y-97828704D02*
X94271427Y-97562038D01*
X94271427Y-97562038D02*
X94423808Y-97562038D01*
X93928570Y-97904895D02*
X93928570Y-97104895D01*
X93928570Y-97104895D02*
X93471427Y-97904895D01*
X93471427Y-97904895D02*
X93471427Y-97104895D01*
X93090475Y-97904895D02*
X93090475Y-97104895D01*
X93090475Y-97104895D02*
X92899999Y-97104895D01*
X92899999Y-97104895D02*
X92785713Y-97142990D01*
X92785713Y-97142990D02*
X92709523Y-97219180D01*
X92709523Y-97219180D02*
X92671428Y-97295371D01*
X92671428Y-97295371D02*
X92633332Y-97447752D01*
X92633332Y-97447752D02*
X92633332Y-97562038D01*
X92633332Y-97562038D02*
X92671428Y-97714419D01*
X92671428Y-97714419D02*
X92709523Y-97790609D01*
X92709523Y-97790609D02*
X92785713Y-97866800D01*
X92785713Y-97866800D02*
X92899999Y-97904895D01*
X92899999Y-97904895D02*
X93090475Y-97904895D01*
X94652381Y-100406800D02*
X94538095Y-100444895D01*
X94538095Y-100444895D02*
X94347619Y-100444895D01*
X94347619Y-100444895D02*
X94271428Y-100406800D01*
X94271428Y-100406800D02*
X94233333Y-100368704D01*
X94233333Y-100368704D02*
X94195238Y-100292514D01*
X94195238Y-100292514D02*
X94195238Y-100216323D01*
X94195238Y-100216323D02*
X94233333Y-100140133D01*
X94233333Y-100140133D02*
X94271428Y-100102038D01*
X94271428Y-100102038D02*
X94347619Y-100063942D01*
X94347619Y-100063942D02*
X94500000Y-100025847D01*
X94500000Y-100025847D02*
X94576190Y-99987752D01*
X94576190Y-99987752D02*
X94614285Y-99949657D01*
X94614285Y-99949657D02*
X94652381Y-99873466D01*
X94652381Y-99873466D02*
X94652381Y-99797276D01*
X94652381Y-99797276D02*
X94614285Y-99721085D01*
X94614285Y-99721085D02*
X94576190Y-99682990D01*
X94576190Y-99682990D02*
X94500000Y-99644895D01*
X94500000Y-99644895D02*
X94309523Y-99644895D01*
X94309523Y-99644895D02*
X94195238Y-99682990D01*
X93395237Y-100368704D02*
X93433333Y-100406800D01*
X93433333Y-100406800D02*
X93547618Y-100444895D01*
X93547618Y-100444895D02*
X93623809Y-100444895D01*
X93623809Y-100444895D02*
X93738095Y-100406800D01*
X93738095Y-100406800D02*
X93814285Y-100330609D01*
X93814285Y-100330609D02*
X93852380Y-100254419D01*
X93852380Y-100254419D02*
X93890476Y-100102038D01*
X93890476Y-100102038D02*
X93890476Y-99987752D01*
X93890476Y-99987752D02*
X93852380Y-99835371D01*
X93852380Y-99835371D02*
X93814285Y-99759180D01*
X93814285Y-99759180D02*
X93738095Y-99682990D01*
X93738095Y-99682990D02*
X93623809Y-99644895D01*
X93623809Y-99644895D02*
X93547618Y-99644895D01*
X93547618Y-99644895D02*
X93433333Y-99682990D01*
X93433333Y-99682990D02*
X93395237Y-99721085D01*
X92671428Y-100444895D02*
X93052380Y-100444895D01*
X93052380Y-100444895D02*
X93052380Y-99644895D01*
X94671428Y-102946800D02*
X94557142Y-102984895D01*
X94557142Y-102984895D02*
X94366666Y-102984895D01*
X94366666Y-102984895D02*
X94290475Y-102946800D01*
X94290475Y-102946800D02*
X94252380Y-102908704D01*
X94252380Y-102908704D02*
X94214285Y-102832514D01*
X94214285Y-102832514D02*
X94214285Y-102756323D01*
X94214285Y-102756323D02*
X94252380Y-102680133D01*
X94252380Y-102680133D02*
X94290475Y-102642038D01*
X94290475Y-102642038D02*
X94366666Y-102603942D01*
X94366666Y-102603942D02*
X94519047Y-102565847D01*
X94519047Y-102565847D02*
X94595237Y-102527752D01*
X94595237Y-102527752D02*
X94633332Y-102489657D01*
X94633332Y-102489657D02*
X94671428Y-102413466D01*
X94671428Y-102413466D02*
X94671428Y-102337276D01*
X94671428Y-102337276D02*
X94633332Y-102261085D01*
X94633332Y-102261085D02*
X94595237Y-102222990D01*
X94595237Y-102222990D02*
X94519047Y-102184895D01*
X94519047Y-102184895D02*
X94328570Y-102184895D01*
X94328570Y-102184895D02*
X94214285Y-102222990D01*
X93871427Y-102984895D02*
X93871427Y-102184895D01*
X93871427Y-102184895D02*
X93680951Y-102184895D01*
X93680951Y-102184895D02*
X93566665Y-102222990D01*
X93566665Y-102222990D02*
X93490475Y-102299180D01*
X93490475Y-102299180D02*
X93452380Y-102375371D01*
X93452380Y-102375371D02*
X93414284Y-102527752D01*
X93414284Y-102527752D02*
X93414284Y-102642038D01*
X93414284Y-102642038D02*
X93452380Y-102794419D01*
X93452380Y-102794419D02*
X93490475Y-102870609D01*
X93490475Y-102870609D02*
X93566665Y-102946800D01*
X93566665Y-102946800D02*
X93680951Y-102984895D01*
X93680951Y-102984895D02*
X93871427Y-102984895D01*
X93109523Y-102756323D02*
X92728570Y-102756323D01*
X93185713Y-102984895D02*
X92919046Y-102184895D01*
X92919046Y-102184895D02*
X92652380Y-102984895D01*
X94690476Y-104724895D02*
X94195238Y-104724895D01*
X94195238Y-104724895D02*
X94461904Y-105029657D01*
X94461904Y-105029657D02*
X94347619Y-105029657D01*
X94347619Y-105029657D02*
X94271428Y-105067752D01*
X94271428Y-105067752D02*
X94233333Y-105105847D01*
X94233333Y-105105847D02*
X94195238Y-105182038D01*
X94195238Y-105182038D02*
X94195238Y-105372514D01*
X94195238Y-105372514D02*
X94233333Y-105448704D01*
X94233333Y-105448704D02*
X94271428Y-105486800D01*
X94271428Y-105486800D02*
X94347619Y-105524895D01*
X94347619Y-105524895D02*
X94576190Y-105524895D01*
X94576190Y-105524895D02*
X94652381Y-105486800D01*
X94652381Y-105486800D02*
X94690476Y-105448704D01*
X93966666Y-104724895D02*
X93699999Y-105524895D01*
X93699999Y-105524895D02*
X93433333Y-104724895D01*
X93242857Y-104724895D02*
X92747619Y-104724895D01*
X92747619Y-104724895D02*
X93014285Y-105029657D01*
X93014285Y-105029657D02*
X92900000Y-105029657D01*
X92900000Y-105029657D02*
X92823809Y-105067752D01*
X92823809Y-105067752D02*
X92785714Y-105105847D01*
X92785714Y-105105847D02*
X92747619Y-105182038D01*
X92747619Y-105182038D02*
X92747619Y-105372514D01*
X92747619Y-105372514D02*
X92785714Y-105448704D01*
X92785714Y-105448704D02*
X92823809Y-105486800D01*
X92823809Y-105486800D02*
X92900000Y-105524895D01*
X92900000Y-105524895D02*
X93128571Y-105524895D01*
X93128571Y-105524895D02*
X93204762Y-105486800D01*
X93204762Y-105486800D02*
X93242857Y-105448704D01*
X94309523Y-107302990D02*
X94385713Y-107264895D01*
X94385713Y-107264895D02*
X94499999Y-107264895D01*
X94499999Y-107264895D02*
X94614285Y-107302990D01*
X94614285Y-107302990D02*
X94690475Y-107379180D01*
X94690475Y-107379180D02*
X94728570Y-107455371D01*
X94728570Y-107455371D02*
X94766666Y-107607752D01*
X94766666Y-107607752D02*
X94766666Y-107722038D01*
X94766666Y-107722038D02*
X94728570Y-107874419D01*
X94728570Y-107874419D02*
X94690475Y-107950609D01*
X94690475Y-107950609D02*
X94614285Y-108026800D01*
X94614285Y-108026800D02*
X94499999Y-108064895D01*
X94499999Y-108064895D02*
X94423808Y-108064895D01*
X94423808Y-108064895D02*
X94309523Y-108026800D01*
X94309523Y-108026800D02*
X94271427Y-107988704D01*
X94271427Y-107988704D02*
X94271427Y-107722038D01*
X94271427Y-107722038D02*
X94423808Y-107722038D01*
X93928570Y-108064895D02*
X93928570Y-107264895D01*
X93928570Y-107264895D02*
X93471427Y-108064895D01*
X93471427Y-108064895D02*
X93471427Y-107264895D01*
X93090475Y-108064895D02*
X93090475Y-107264895D01*
X93090475Y-107264895D02*
X92899999Y-107264895D01*
X92899999Y-107264895D02*
X92785713Y-107302990D01*
X92785713Y-107302990D02*
X92709523Y-107379180D01*
X92709523Y-107379180D02*
X92671428Y-107455371D01*
X92671428Y-107455371D02*
X92633332Y-107607752D01*
X92633332Y-107607752D02*
X92633332Y-107722038D01*
X92633332Y-107722038D02*
X92671428Y-107874419D01*
X92671428Y-107874419D02*
X92709523Y-107950609D01*
X92709523Y-107950609D02*
X92785713Y-108026800D01*
X92785713Y-108026800D02*
X92899999Y-108064895D01*
X92899999Y-108064895D02*
X93090475Y-108064895D01*
X96152380Y-128414895D02*
X96533332Y-128414895D01*
X96533332Y-128414895D02*
X96571428Y-128795847D01*
X96571428Y-128795847D02*
X96533332Y-128757752D01*
X96533332Y-128757752D02*
X96457142Y-128719657D01*
X96457142Y-128719657D02*
X96266666Y-128719657D01*
X96266666Y-128719657D02*
X96190475Y-128757752D01*
X96190475Y-128757752D02*
X96152380Y-128795847D01*
X96152380Y-128795847D02*
X96114285Y-128872038D01*
X96114285Y-128872038D02*
X96114285Y-129062514D01*
X96114285Y-129062514D02*
X96152380Y-129138704D01*
X96152380Y-129138704D02*
X96190475Y-129176800D01*
X96190475Y-129176800D02*
X96266666Y-129214895D01*
X96266666Y-129214895D02*
X96457142Y-129214895D01*
X96457142Y-129214895D02*
X96533332Y-129176800D01*
X96533332Y-129176800D02*
X96571428Y-129138704D01*
X95885713Y-128414895D02*
X95619046Y-129214895D01*
X95619046Y-129214895D02*
X95352380Y-128414895D01*
X97171428Y-123495847D02*
X96904762Y-123495847D01*
X96790476Y-123914895D02*
X97171428Y-123914895D01*
X97171428Y-123914895D02*
X97171428Y-123114895D01*
X97171428Y-123114895D02*
X96790476Y-123114895D01*
X99549523Y-129214895D02*
X99816190Y-128833942D01*
X100006666Y-129214895D02*
X100006666Y-128414895D01*
X100006666Y-128414895D02*
X99701904Y-128414895D01*
X99701904Y-128414895D02*
X99625714Y-128452990D01*
X99625714Y-128452990D02*
X99587619Y-128491085D01*
X99587619Y-128491085D02*
X99549523Y-128567276D01*
X99549523Y-128567276D02*
X99549523Y-128681561D01*
X99549523Y-128681561D02*
X99587619Y-128757752D01*
X99587619Y-128757752D02*
X99625714Y-128795847D01*
X99625714Y-128795847D02*
X99701904Y-128833942D01*
X99701904Y-128833942D02*
X100006666Y-128833942D01*
X99206666Y-128795847D02*
X98940000Y-128795847D01*
X98825714Y-129214895D02*
X99206666Y-129214895D01*
X99206666Y-129214895D02*
X99206666Y-128414895D01*
X99206666Y-128414895D02*
X98825714Y-128414895D01*
X98482856Y-129214895D02*
X98482856Y-128414895D01*
X98482856Y-128414895D02*
X98292380Y-128414895D01*
X98292380Y-128414895D02*
X98178094Y-128452990D01*
X98178094Y-128452990D02*
X98101904Y-128529180D01*
X98101904Y-128529180D02*
X98063809Y-128605371D01*
X98063809Y-128605371D02*
X98025713Y-128757752D01*
X98025713Y-128757752D02*
X98025713Y-128872038D01*
X98025713Y-128872038D02*
X98063809Y-129024419D01*
X98063809Y-129024419D02*
X98101904Y-129100609D01*
X98101904Y-129100609D02*
X98178094Y-129176800D01*
X98178094Y-129176800D02*
X98292380Y-129214895D01*
X98292380Y-129214895D02*
X98482856Y-129214895D01*
X97682856Y-128910133D02*
X97073333Y-128910133D01*
X99482857Y-123495847D02*
X99368571Y-123533942D01*
X99368571Y-123533942D02*
X99330476Y-123572038D01*
X99330476Y-123572038D02*
X99292380Y-123648228D01*
X99292380Y-123648228D02*
X99292380Y-123762514D01*
X99292380Y-123762514D02*
X99330476Y-123838704D01*
X99330476Y-123838704D02*
X99368571Y-123876800D01*
X99368571Y-123876800D02*
X99444761Y-123914895D01*
X99444761Y-123914895D02*
X99749523Y-123914895D01*
X99749523Y-123914895D02*
X99749523Y-123114895D01*
X99749523Y-123114895D02*
X99482857Y-123114895D01*
X99482857Y-123114895D02*
X99406666Y-123152990D01*
X99406666Y-123152990D02*
X99368571Y-123191085D01*
X99368571Y-123191085D02*
X99330476Y-123267276D01*
X99330476Y-123267276D02*
X99330476Y-123343466D01*
X99330476Y-123343466D02*
X99368571Y-123419657D01*
X99368571Y-123419657D02*
X99406666Y-123457752D01*
X99406666Y-123457752D02*
X99482857Y-123495847D01*
X99482857Y-123495847D02*
X99749523Y-123495847D01*
X99909523Y-82064895D02*
X99909523Y-81264895D01*
X99452380Y-82064895D02*
X99795238Y-81607752D01*
X99452380Y-81264895D02*
X99909523Y-81722038D01*
X101832380Y-123838704D02*
X101870476Y-123876800D01*
X101870476Y-123876800D02*
X101984761Y-123914895D01*
X101984761Y-123914895D02*
X102060952Y-123914895D01*
X102060952Y-123914895D02*
X102175238Y-123876800D01*
X102175238Y-123876800D02*
X102251428Y-123800609D01*
X102251428Y-123800609D02*
X102289523Y-123724419D01*
X102289523Y-123724419D02*
X102327619Y-123572038D01*
X102327619Y-123572038D02*
X102327619Y-123457752D01*
X102327619Y-123457752D02*
X102289523Y-123305371D01*
X102289523Y-123305371D02*
X102251428Y-123229180D01*
X102251428Y-123229180D02*
X102175238Y-123152990D01*
X102175238Y-123152990D02*
X102060952Y-123114895D01*
X102060952Y-123114895D02*
X101984761Y-123114895D01*
X101984761Y-123114895D02*
X101870476Y-123152990D01*
X101870476Y-123152990D02*
X101832380Y-123191085D01*
X103499999Y-88764895D02*
X103499999Y-87964895D01*
X106128570Y-88764895D02*
X106128570Y-87964895D01*
X106128570Y-87964895D02*
X105671427Y-88764895D01*
X105671427Y-88764895D02*
X105671427Y-87964895D01*
X104833332Y-88688704D02*
X104871428Y-88726800D01*
X104871428Y-88726800D02*
X104985713Y-88764895D01*
X104985713Y-88764895D02*
X105061904Y-88764895D01*
X105061904Y-88764895D02*
X105176190Y-88726800D01*
X105176190Y-88726800D02*
X105252380Y-88650609D01*
X105252380Y-88650609D02*
X105290475Y-88574419D01*
X105290475Y-88574419D02*
X105328571Y-88422038D01*
X105328571Y-88422038D02*
X105328571Y-88307752D01*
X105328571Y-88307752D02*
X105290475Y-88155371D01*
X105290475Y-88155371D02*
X105252380Y-88079180D01*
X105252380Y-88079180D02*
X105176190Y-88002990D01*
X105176190Y-88002990D02*
X105061904Y-87964895D01*
X105061904Y-87964895D02*
X104985713Y-87964895D01*
X104985713Y-87964895D02*
X104871428Y-88002990D01*
X104871428Y-88002990D02*
X104833332Y-88041085D01*
X107766666Y-87964895D02*
X107499999Y-88764895D01*
X107499999Y-88764895D02*
X107233333Y-87964895D01*
X108990476Y-81836323D02*
X108609523Y-81836323D01*
X109066666Y-82064895D02*
X108799999Y-81264895D01*
X108799999Y-81264895D02*
X108533333Y-82064895D01*
X109480952Y-88002990D02*
X109557142Y-87964895D01*
X109557142Y-87964895D02*
X109671428Y-87964895D01*
X109671428Y-87964895D02*
X109785714Y-88002990D01*
X109785714Y-88002990D02*
X109861904Y-88079180D01*
X109861904Y-88079180D02*
X109899999Y-88155371D01*
X109899999Y-88155371D02*
X109938095Y-88307752D01*
X109938095Y-88307752D02*
X109938095Y-88422038D01*
X109938095Y-88422038D02*
X109899999Y-88574419D01*
X109899999Y-88574419D02*
X109861904Y-88650609D01*
X109861904Y-88650609D02*
X109785714Y-88726800D01*
X109785714Y-88726800D02*
X109671428Y-88764895D01*
X109671428Y-88764895D02*
X109595237Y-88764895D01*
X109595237Y-88764895D02*
X109480952Y-88726800D01*
X109480952Y-88726800D02*
X109442856Y-88688704D01*
X109442856Y-88688704D02*
X109442856Y-88422038D01*
X109442856Y-88422038D02*
X109595237Y-88422038D01*
X109099999Y-88764895D02*
X109099999Y-87964895D01*
X116014285Y-95364895D02*
X116280952Y-94983942D01*
X116471428Y-95364895D02*
X116471428Y-94564895D01*
X116471428Y-94564895D02*
X116166666Y-94564895D01*
X116166666Y-94564895D02*
X116090476Y-94602990D01*
X116090476Y-94602990D02*
X116052381Y-94641085D01*
X116052381Y-94641085D02*
X116014285Y-94717276D01*
X116014285Y-94717276D02*
X116014285Y-94831561D01*
X116014285Y-94831561D02*
X116052381Y-94907752D01*
X116052381Y-94907752D02*
X116090476Y-94945847D01*
X116090476Y-94945847D02*
X116166666Y-94983942D01*
X116166666Y-94983942D02*
X116471428Y-94983942D01*
X115671428Y-94945847D02*
X115404762Y-94945847D01*
X115290476Y-95364895D02*
X115671428Y-95364895D01*
X115671428Y-95364895D02*
X115671428Y-94564895D01*
X115671428Y-94564895D02*
X115290476Y-94564895D01*
X114947618Y-95364895D02*
X114947618Y-94564895D01*
X114947618Y-94564895D02*
X114757142Y-94564895D01*
X114757142Y-94564895D02*
X114642856Y-94602990D01*
X114642856Y-94602990D02*
X114566666Y-94679180D01*
X114566666Y-94679180D02*
X114528571Y-94755371D01*
X114528571Y-94755371D02*
X114490475Y-94907752D01*
X114490475Y-94907752D02*
X114490475Y-95022038D01*
X114490475Y-95022038D02*
X114528571Y-95174419D01*
X114528571Y-95174419D02*
X114566666Y-95250609D01*
X114566666Y-95250609D02*
X114642856Y-95326800D01*
X114642856Y-95326800D02*
X114757142Y-95364895D01*
X114757142Y-95364895D02*
X114947618Y-95364895D01*
X116109523Y-97142990D02*
X116185713Y-97104895D01*
X116185713Y-97104895D02*
X116299999Y-97104895D01*
X116299999Y-97104895D02*
X116414285Y-97142990D01*
X116414285Y-97142990D02*
X116490475Y-97219180D01*
X116490475Y-97219180D02*
X116528570Y-97295371D01*
X116528570Y-97295371D02*
X116566666Y-97447752D01*
X116566666Y-97447752D02*
X116566666Y-97562038D01*
X116566666Y-97562038D02*
X116528570Y-97714419D01*
X116528570Y-97714419D02*
X116490475Y-97790609D01*
X116490475Y-97790609D02*
X116414285Y-97866800D01*
X116414285Y-97866800D02*
X116299999Y-97904895D01*
X116299999Y-97904895D02*
X116223808Y-97904895D01*
X116223808Y-97904895D02*
X116109523Y-97866800D01*
X116109523Y-97866800D02*
X116071427Y-97828704D01*
X116071427Y-97828704D02*
X116071427Y-97562038D01*
X116071427Y-97562038D02*
X116223808Y-97562038D01*
X115728570Y-97904895D02*
X115728570Y-97104895D01*
X115728570Y-97104895D02*
X115271427Y-97904895D01*
X115271427Y-97904895D02*
X115271427Y-97104895D01*
X114890475Y-97904895D02*
X114890475Y-97104895D01*
X114890475Y-97104895D02*
X114699999Y-97104895D01*
X114699999Y-97104895D02*
X114585713Y-97142990D01*
X114585713Y-97142990D02*
X114509523Y-97219180D01*
X114509523Y-97219180D02*
X114471428Y-97295371D01*
X114471428Y-97295371D02*
X114433332Y-97447752D01*
X114433332Y-97447752D02*
X114433332Y-97562038D01*
X114433332Y-97562038D02*
X114471428Y-97714419D01*
X114471428Y-97714419D02*
X114509523Y-97790609D01*
X114509523Y-97790609D02*
X114585713Y-97866800D01*
X114585713Y-97866800D02*
X114699999Y-97904895D01*
X114699999Y-97904895D02*
X114890475Y-97904895D01*
D11*
X59606666Y-53564375D02*
X59339999Y-54364375D01*
X59339999Y-54364375D02*
X59073333Y-53564375D01*
X59968570Y-56904375D02*
X59968570Y-56104375D01*
X59968570Y-56104375D02*
X59511427Y-56904375D01*
X59511427Y-56904375D02*
X59511427Y-56104375D01*
X58673332Y-56828184D02*
X58711428Y-56866280D01*
X58711428Y-56866280D02*
X58825713Y-56904375D01*
X58825713Y-56904375D02*
X58901904Y-56904375D01*
X58901904Y-56904375D02*
X59016190Y-56866280D01*
X59016190Y-56866280D02*
X59092380Y-56790089D01*
X59092380Y-56790089D02*
X59130475Y-56713899D01*
X59130475Y-56713899D02*
X59168571Y-56561518D01*
X59168571Y-56561518D02*
X59168571Y-56447232D01*
X59168571Y-56447232D02*
X59130475Y-56294851D01*
X59130475Y-56294851D02*
X59092380Y-56218660D01*
X59092380Y-56218660D02*
X59016190Y-56142470D01*
X59016190Y-56142470D02*
X58901904Y-56104375D01*
X58901904Y-56104375D02*
X58825713Y-56104375D01*
X58825713Y-56104375D02*
X58711428Y-56142470D01*
X58711428Y-56142470D02*
X58673332Y-56180565D01*
X59130476Y-58682470D02*
X59206666Y-58644375D01*
X59206666Y-58644375D02*
X59320952Y-58644375D01*
X59320952Y-58644375D02*
X59435238Y-58682470D01*
X59435238Y-58682470D02*
X59511428Y-58758660D01*
X59511428Y-58758660D02*
X59549523Y-58834851D01*
X59549523Y-58834851D02*
X59587619Y-58987232D01*
X59587619Y-58987232D02*
X59587619Y-59101518D01*
X59587619Y-59101518D02*
X59549523Y-59253899D01*
X59549523Y-59253899D02*
X59511428Y-59330089D01*
X59511428Y-59330089D02*
X59435238Y-59406280D01*
X59435238Y-59406280D02*
X59320952Y-59444375D01*
X59320952Y-59444375D02*
X59244761Y-59444375D01*
X59244761Y-59444375D02*
X59130476Y-59406280D01*
X59130476Y-59406280D02*
X59092380Y-59368184D01*
X59092380Y-59368184D02*
X59092380Y-59101518D01*
X59092380Y-59101518D02*
X59244761Y-59101518D01*
X59625714Y-61565327D02*
X59892380Y-61565327D01*
X59892380Y-61984375D02*
X59892380Y-61184375D01*
X59892380Y-61184375D02*
X59511428Y-61184375D01*
X58940000Y-61565327D02*
X58825714Y-61603422D01*
X58825714Y-61603422D02*
X58787619Y-61641518D01*
X58787619Y-61641518D02*
X58749523Y-61717708D01*
X58749523Y-61717708D02*
X58749523Y-61831994D01*
X58749523Y-61831994D02*
X58787619Y-61908184D01*
X58787619Y-61908184D02*
X58825714Y-61946280D01*
X58825714Y-61946280D02*
X58901904Y-61984375D01*
X58901904Y-61984375D02*
X59206666Y-61984375D01*
X59206666Y-61984375D02*
X59206666Y-61184375D01*
X59206666Y-61184375D02*
X58940000Y-61184375D01*
X58940000Y-61184375D02*
X58863809Y-61222470D01*
X58863809Y-61222470D02*
X58825714Y-61260565D01*
X58825714Y-61260565D02*
X58787619Y-61336756D01*
X58787619Y-61336756D02*
X58787619Y-61412946D01*
X58787619Y-61412946D02*
X58825714Y-61489137D01*
X58825714Y-61489137D02*
X58863809Y-61527232D01*
X58863809Y-61527232D02*
X58940000Y-61565327D01*
X58940000Y-61565327D02*
X59206666Y-61565327D01*
X63228571Y-68526280D02*
X63114285Y-68564375D01*
X63114285Y-68564375D02*
X62923809Y-68564375D01*
X62923809Y-68564375D02*
X62847618Y-68526280D01*
X62847618Y-68526280D02*
X62809523Y-68488184D01*
X62809523Y-68488184D02*
X62771428Y-68411994D01*
X62771428Y-68411994D02*
X62771428Y-68335803D01*
X62771428Y-68335803D02*
X62809523Y-68259613D01*
X62809523Y-68259613D02*
X62847618Y-68221518D01*
X62847618Y-68221518D02*
X62923809Y-68183422D01*
X62923809Y-68183422D02*
X63076190Y-68145327D01*
X63076190Y-68145327D02*
X63152380Y-68107232D01*
X63152380Y-68107232D02*
X63190475Y-68069137D01*
X63190475Y-68069137D02*
X63228571Y-67992946D01*
X63228571Y-67992946D02*
X63228571Y-67916756D01*
X63228571Y-67916756D02*
X63190475Y-67840565D01*
X63190475Y-67840565D02*
X63152380Y-67802470D01*
X63152380Y-67802470D02*
X63076190Y-67764375D01*
X63076190Y-67764375D02*
X62885713Y-67764375D01*
X62885713Y-67764375D02*
X62771428Y-67802470D01*
X65628570Y-68564375D02*
X65628570Y-67764375D01*
X65628570Y-67764375D02*
X65171427Y-68564375D01*
X65171427Y-68564375D02*
X65171427Y-67764375D01*
X64333332Y-68488184D02*
X64371428Y-68526280D01*
X64371428Y-68526280D02*
X64485713Y-68564375D01*
X64485713Y-68564375D02*
X64561904Y-68564375D01*
X64561904Y-68564375D02*
X64676190Y-68526280D01*
X64676190Y-68526280D02*
X64752380Y-68450089D01*
X64752380Y-68450089D02*
X64790475Y-68373899D01*
X64790475Y-68373899D02*
X64828571Y-68221518D01*
X64828571Y-68221518D02*
X64828571Y-68107232D01*
X64828571Y-68107232D02*
X64790475Y-67954851D01*
X64790475Y-67954851D02*
X64752380Y-67878660D01*
X64752380Y-67878660D02*
X64676190Y-67802470D01*
X64676190Y-67802470D02*
X64561904Y-67764375D01*
X64561904Y-67764375D02*
X64485713Y-67764375D01*
X64485713Y-67764375D02*
X64371428Y-67802470D01*
X64371428Y-67802470D02*
X64333332Y-67840565D01*
X67266666Y-67764375D02*
X66999999Y-68564375D01*
X66999999Y-68564375D02*
X66733333Y-67764375D01*
X68790476Y-67802470D02*
X68866666Y-67764375D01*
X68866666Y-67764375D02*
X68980952Y-67764375D01*
X68980952Y-67764375D02*
X69095238Y-67802470D01*
X69095238Y-67802470D02*
X69171428Y-67878660D01*
X69171428Y-67878660D02*
X69209523Y-67954851D01*
X69209523Y-67954851D02*
X69247619Y-68107232D01*
X69247619Y-68107232D02*
X69247619Y-68221518D01*
X69247619Y-68221518D02*
X69209523Y-68373899D01*
X69209523Y-68373899D02*
X69171428Y-68450089D01*
X69171428Y-68450089D02*
X69095238Y-68526280D01*
X69095238Y-68526280D02*
X68980952Y-68564375D01*
X68980952Y-68564375D02*
X68904761Y-68564375D01*
X68904761Y-68564375D02*
X68790476Y-68526280D01*
X68790476Y-68526280D02*
X68752380Y-68488184D01*
X68752380Y-68488184D02*
X68752380Y-68221518D01*
X68752380Y-68221518D02*
X68904761Y-68221518D01*
X71950476Y-53602470D02*
X72026666Y-53564375D01*
X72026666Y-53564375D02*
X72140952Y-53564375D01*
X72140952Y-53564375D02*
X72255238Y-53602470D01*
X72255238Y-53602470D02*
X72331428Y-53678660D01*
X72331428Y-53678660D02*
X72369523Y-53754851D01*
X72369523Y-53754851D02*
X72407619Y-53907232D01*
X72407619Y-53907232D02*
X72407619Y-54021518D01*
X72407619Y-54021518D02*
X72369523Y-54173899D01*
X72369523Y-54173899D02*
X72331428Y-54250089D01*
X72331428Y-54250089D02*
X72255238Y-54326280D01*
X72255238Y-54326280D02*
X72140952Y-54364375D01*
X72140952Y-54364375D02*
X72064761Y-54364375D01*
X72064761Y-54364375D02*
X71950476Y-54326280D01*
X71950476Y-54326280D02*
X71912380Y-54288184D01*
X71912380Y-54288184D02*
X71912380Y-54021518D01*
X71912380Y-54021518D02*
X72064761Y-54021518D01*
X72788570Y-56904375D02*
X72788570Y-56104375D01*
X72788570Y-56104375D02*
X72331427Y-56904375D01*
X72331427Y-56904375D02*
X72331427Y-56104375D01*
X71493332Y-56828184D02*
X71531428Y-56866280D01*
X71531428Y-56866280D02*
X71645713Y-56904375D01*
X71645713Y-56904375D02*
X71721904Y-56904375D01*
X71721904Y-56904375D02*
X71836190Y-56866280D01*
X71836190Y-56866280D02*
X71912380Y-56790089D01*
X71912380Y-56790089D02*
X71950475Y-56713899D01*
X71950475Y-56713899D02*
X71988571Y-56561518D01*
X71988571Y-56561518D02*
X71988571Y-56447232D01*
X71988571Y-56447232D02*
X71950475Y-56294851D01*
X71950475Y-56294851D02*
X71912380Y-56218660D01*
X71912380Y-56218660D02*
X71836190Y-56142470D01*
X71836190Y-56142470D02*
X71721904Y-56104375D01*
X71721904Y-56104375D02*
X71645713Y-56104375D01*
X71645713Y-56104375D02*
X71531428Y-56142470D01*
X71531428Y-56142470D02*
X71493332Y-56180565D01*
X72788570Y-59444375D02*
X72788570Y-58644375D01*
X72788570Y-58644375D02*
X72331427Y-59444375D01*
X72331427Y-59444375D02*
X72331427Y-58644375D01*
X71493332Y-59368184D02*
X71531428Y-59406280D01*
X71531428Y-59406280D02*
X71645713Y-59444375D01*
X71645713Y-59444375D02*
X71721904Y-59444375D01*
X71721904Y-59444375D02*
X71836190Y-59406280D01*
X71836190Y-59406280D02*
X71912380Y-59330089D01*
X71912380Y-59330089D02*
X71950475Y-59253899D01*
X71950475Y-59253899D02*
X71988571Y-59101518D01*
X71988571Y-59101518D02*
X71988571Y-58987232D01*
X71988571Y-58987232D02*
X71950475Y-58834851D01*
X71950475Y-58834851D02*
X71912380Y-58758660D01*
X71912380Y-58758660D02*
X71836190Y-58682470D01*
X71836190Y-58682470D02*
X71721904Y-58644375D01*
X71721904Y-58644375D02*
X71645713Y-58644375D01*
X71645713Y-58644375D02*
X71531428Y-58682470D01*
X71531428Y-58682470D02*
X71493332Y-58720565D01*
X72959999Y-61184375D02*
X72807618Y-61184375D01*
X72807618Y-61184375D02*
X72731428Y-61222470D01*
X72731428Y-61222470D02*
X72655237Y-61298660D01*
X72655237Y-61298660D02*
X72617142Y-61451041D01*
X72617142Y-61451041D02*
X72617142Y-61717708D01*
X72617142Y-61717708D02*
X72655237Y-61870089D01*
X72655237Y-61870089D02*
X72731428Y-61946280D01*
X72731428Y-61946280D02*
X72807618Y-61984375D01*
X72807618Y-61984375D02*
X72959999Y-61984375D01*
X72959999Y-61984375D02*
X73036190Y-61946280D01*
X73036190Y-61946280D02*
X73112380Y-61870089D01*
X73112380Y-61870089D02*
X73150476Y-61717708D01*
X73150476Y-61717708D02*
X73150476Y-61451041D01*
X73150476Y-61451041D02*
X73112380Y-61298660D01*
X73112380Y-61298660D02*
X73036190Y-61222470D01*
X73036190Y-61222470D02*
X72959999Y-61184375D01*
X72274285Y-61184375D02*
X72274285Y-61831994D01*
X72274285Y-61831994D02*
X72236190Y-61908184D01*
X72236190Y-61908184D02*
X72198095Y-61946280D01*
X72198095Y-61946280D02*
X72121904Y-61984375D01*
X72121904Y-61984375D02*
X71969523Y-61984375D01*
X71969523Y-61984375D02*
X71893333Y-61946280D01*
X71893333Y-61946280D02*
X71855238Y-61908184D01*
X71855238Y-61908184D02*
X71817142Y-61831994D01*
X71817142Y-61831994D02*
X71817142Y-61184375D01*
X71550476Y-61184375D02*
X71093333Y-61184375D01*
X71321905Y-61984375D02*
X71321905Y-61184375D01*
X75752380Y-68564375D02*
X76019047Y-68183422D01*
X76209523Y-68564375D02*
X76209523Y-67764375D01*
X76209523Y-67764375D02*
X75904761Y-67764375D01*
X75904761Y-67764375D02*
X75828571Y-67802470D01*
X75828571Y-67802470D02*
X75790476Y-67840565D01*
X75790476Y-67840565D02*
X75752380Y-67916756D01*
X75752380Y-67916756D02*
X75752380Y-68031041D01*
X75752380Y-68031041D02*
X75790476Y-68107232D01*
X75790476Y-68107232D02*
X75828571Y-68145327D01*
X75828571Y-68145327D02*
X75904761Y-68183422D01*
X75904761Y-68183422D02*
X76209523Y-68183422D01*
X78539998Y-68564375D02*
X78539998Y-67764375D01*
X91342857Y-51864375D02*
X91342857Y-51064375D01*
X91342857Y-51064375D02*
X91152381Y-51064375D01*
X91152381Y-51064375D02*
X91038095Y-51102470D01*
X91038095Y-51102470D02*
X90961905Y-51178660D01*
X90961905Y-51178660D02*
X90923810Y-51254851D01*
X90923810Y-51254851D02*
X90885714Y-51407232D01*
X90885714Y-51407232D02*
X90885714Y-51521518D01*
X90885714Y-51521518D02*
X90923810Y-51673899D01*
X90923810Y-51673899D02*
X90961905Y-51750089D01*
X90961905Y-51750089D02*
X91038095Y-51826280D01*
X91038095Y-51826280D02*
X91152381Y-51864375D01*
X91152381Y-51864375D02*
X91342857Y-51864375D01*
X90580953Y-51635803D02*
X90200000Y-51635803D01*
X90657143Y-51864375D02*
X90390476Y-51064375D01*
X90390476Y-51064375D02*
X90123810Y-51864375D01*
X89971429Y-51064375D02*
X89514286Y-51064375D01*
X89742858Y-51864375D02*
X89742858Y-51064375D01*
X89247619Y-51864375D02*
X89247619Y-51064375D01*
X89247619Y-51064375D02*
X88790476Y-51864375D01*
X88790476Y-51864375D02*
X88790476Y-51064375D01*
X88409524Y-51788184D02*
X88371429Y-51826280D01*
X88371429Y-51826280D02*
X88409524Y-51864375D01*
X88409524Y-51864375D02*
X88447620Y-51826280D01*
X88447620Y-51826280D02*
X88409524Y-51788184D01*
X88409524Y-51788184D02*
X88409524Y-51864375D01*
X88409524Y-51369137D02*
X88371429Y-51407232D01*
X88371429Y-51407232D02*
X88409524Y-51445327D01*
X88409524Y-51445327D02*
X88447620Y-51407232D01*
X88447620Y-51407232D02*
X88409524Y-51369137D01*
X88409524Y-51369137D02*
X88409524Y-51445327D01*
X87419048Y-51864375D02*
X87419048Y-51064375D01*
X87419048Y-51064375D02*
X87114286Y-51064375D01*
X87114286Y-51064375D02*
X87038096Y-51102470D01*
X87038096Y-51102470D02*
X87000001Y-51140565D01*
X87000001Y-51140565D02*
X86961905Y-51216756D01*
X86961905Y-51216756D02*
X86961905Y-51331041D01*
X86961905Y-51331041D02*
X87000001Y-51407232D01*
X87000001Y-51407232D02*
X87038096Y-51445327D01*
X87038096Y-51445327D02*
X87114286Y-51483422D01*
X87114286Y-51483422D02*
X87419048Y-51483422D01*
X86619048Y-51864375D02*
X86619048Y-51064375D01*
X86619048Y-51064375D02*
X86314286Y-51064375D01*
X86314286Y-51064375D02*
X86238096Y-51102470D01*
X86238096Y-51102470D02*
X86200001Y-51140565D01*
X86200001Y-51140565D02*
X86161905Y-51216756D01*
X86161905Y-51216756D02*
X86161905Y-51331041D01*
X86161905Y-51331041D02*
X86200001Y-51407232D01*
X86200001Y-51407232D02*
X86238096Y-51445327D01*
X86238096Y-51445327D02*
X86314286Y-51483422D01*
X86314286Y-51483422D02*
X86619048Y-51483422D01*
X85400001Y-51102470D02*
X85476191Y-51064375D01*
X85476191Y-51064375D02*
X85590477Y-51064375D01*
X85590477Y-51064375D02*
X85704763Y-51102470D01*
X85704763Y-51102470D02*
X85780953Y-51178660D01*
X85780953Y-51178660D02*
X85819048Y-51254851D01*
X85819048Y-51254851D02*
X85857144Y-51407232D01*
X85857144Y-51407232D02*
X85857144Y-51521518D01*
X85857144Y-51521518D02*
X85819048Y-51673899D01*
X85819048Y-51673899D02*
X85780953Y-51750089D01*
X85780953Y-51750089D02*
X85704763Y-51826280D01*
X85704763Y-51826280D02*
X85590477Y-51864375D01*
X85590477Y-51864375D02*
X85514286Y-51864375D01*
X85514286Y-51864375D02*
X85400001Y-51826280D01*
X85400001Y-51826280D02*
X85361905Y-51788184D01*
X85361905Y-51788184D02*
X85361905Y-51521518D01*
X85361905Y-51521518D02*
X85514286Y-51521518D01*
X85019048Y-51559613D02*
X84409525Y-51559613D01*
X84066668Y-51826280D02*
X83952382Y-51864375D01*
X83952382Y-51864375D02*
X83761906Y-51864375D01*
X83761906Y-51864375D02*
X83685715Y-51826280D01*
X83685715Y-51826280D02*
X83647620Y-51788184D01*
X83647620Y-51788184D02*
X83609525Y-51711994D01*
X83609525Y-51711994D02*
X83609525Y-51635803D01*
X83609525Y-51635803D02*
X83647620Y-51559613D01*
X83647620Y-51559613D02*
X83685715Y-51521518D01*
X83685715Y-51521518D02*
X83761906Y-51483422D01*
X83761906Y-51483422D02*
X83914287Y-51445327D01*
X83914287Y-51445327D02*
X83990477Y-51407232D01*
X83990477Y-51407232D02*
X84028572Y-51369137D01*
X84028572Y-51369137D02*
X84066668Y-51292946D01*
X84066668Y-51292946D02*
X84066668Y-51216756D01*
X84066668Y-51216756D02*
X84028572Y-51140565D01*
X84028572Y-51140565D02*
X83990477Y-51102470D01*
X83990477Y-51102470D02*
X83914287Y-51064375D01*
X83914287Y-51064375D02*
X83723810Y-51064375D01*
X83723810Y-51064375D02*
X83609525Y-51102470D01*
X83266667Y-51864375D02*
X83266667Y-51331041D01*
X83266667Y-51064375D02*
X83304763Y-51102470D01*
X83304763Y-51102470D02*
X83266667Y-51140565D01*
X83266667Y-51140565D02*
X83228572Y-51102470D01*
X83228572Y-51102470D02*
X83266667Y-51064375D01*
X83266667Y-51064375D02*
X83266667Y-51140565D01*
X82885715Y-51864375D02*
X82885715Y-51331041D01*
X82885715Y-51407232D02*
X82847620Y-51369137D01*
X82847620Y-51369137D02*
X82771430Y-51331041D01*
X82771430Y-51331041D02*
X82657144Y-51331041D01*
X82657144Y-51331041D02*
X82580953Y-51369137D01*
X82580953Y-51369137D02*
X82542858Y-51445327D01*
X82542858Y-51445327D02*
X82542858Y-51864375D01*
X82542858Y-51445327D02*
X82504763Y-51369137D01*
X82504763Y-51369137D02*
X82428572Y-51331041D01*
X82428572Y-51331041D02*
X82314287Y-51331041D01*
X82314287Y-51331041D02*
X82238096Y-51369137D01*
X82238096Y-51369137D02*
X82200001Y-51445327D01*
X82200001Y-51445327D02*
X82200001Y-51864375D01*
X81476191Y-51331041D02*
X81476191Y-51864375D01*
X81819048Y-51331041D02*
X81819048Y-51750089D01*
X81819048Y-51750089D02*
X81780953Y-51826280D01*
X81780953Y-51826280D02*
X81704763Y-51864375D01*
X81704763Y-51864375D02*
X81590477Y-51864375D01*
X81590477Y-51864375D02*
X81514286Y-51826280D01*
X81514286Y-51826280D02*
X81476191Y-51788184D01*
X80980953Y-51864375D02*
X81057143Y-51826280D01*
X81057143Y-51826280D02*
X81095238Y-51750089D01*
X81095238Y-51750089D02*
X81095238Y-51064375D01*
X80333333Y-51864375D02*
X80333333Y-51445327D01*
X80333333Y-51445327D02*
X80371428Y-51369137D01*
X80371428Y-51369137D02*
X80447619Y-51331041D01*
X80447619Y-51331041D02*
X80600000Y-51331041D01*
X80600000Y-51331041D02*
X80676190Y-51369137D01*
X80333333Y-51826280D02*
X80409524Y-51864375D01*
X80409524Y-51864375D02*
X80600000Y-51864375D01*
X80600000Y-51864375D02*
X80676190Y-51826280D01*
X80676190Y-51826280D02*
X80714286Y-51750089D01*
X80714286Y-51750089D02*
X80714286Y-51673899D01*
X80714286Y-51673899D02*
X80676190Y-51597708D01*
X80676190Y-51597708D02*
X80600000Y-51559613D01*
X80600000Y-51559613D02*
X80409524Y-51559613D01*
X80409524Y-51559613D02*
X80333333Y-51521518D01*
X80066666Y-51331041D02*
X79761904Y-51331041D01*
X79952380Y-51064375D02*
X79952380Y-51750089D01*
X79952380Y-51750089D02*
X79914285Y-51826280D01*
X79914285Y-51826280D02*
X79838095Y-51864375D01*
X79838095Y-51864375D02*
X79761904Y-51864375D01*
X79380952Y-51864375D02*
X79457142Y-51826280D01*
X79457142Y-51826280D02*
X79495237Y-51788184D01*
X79495237Y-51788184D02*
X79533333Y-51711994D01*
X79533333Y-51711994D02*
X79533333Y-51483422D01*
X79533333Y-51483422D02*
X79495237Y-51407232D01*
X79495237Y-51407232D02*
X79457142Y-51369137D01*
X79457142Y-51369137D02*
X79380952Y-51331041D01*
X79380952Y-51331041D02*
X79266666Y-51331041D01*
X79266666Y-51331041D02*
X79190475Y-51369137D01*
X79190475Y-51369137D02*
X79152380Y-51407232D01*
X79152380Y-51407232D02*
X79114285Y-51483422D01*
X79114285Y-51483422D02*
X79114285Y-51711994D01*
X79114285Y-51711994D02*
X79152380Y-51788184D01*
X79152380Y-51788184D02*
X79190475Y-51826280D01*
X79190475Y-51826280D02*
X79266666Y-51864375D01*
X79266666Y-51864375D02*
X79380952Y-51864375D01*
X78771427Y-51864375D02*
X78771427Y-51331041D01*
X78771427Y-51483422D02*
X78733332Y-51407232D01*
X78733332Y-51407232D02*
X78695237Y-51369137D01*
X78695237Y-51369137D02*
X78619046Y-51331041D01*
X78619046Y-51331041D02*
X78542856Y-51331041D01*
X95800002Y-53464375D02*
X95800002Y-52664375D01*
X95800002Y-52664375D02*
X95342859Y-53464375D01*
X95342859Y-53464375D02*
X95342859Y-52664375D01*
X94619050Y-52931041D02*
X94619050Y-53578660D01*
X94619050Y-53578660D02*
X94657145Y-53654851D01*
X94657145Y-53654851D02*
X94695241Y-53692946D01*
X94695241Y-53692946D02*
X94771431Y-53731041D01*
X94771431Y-53731041D02*
X94885717Y-53731041D01*
X94885717Y-53731041D02*
X94961907Y-53692946D01*
X94619050Y-53426280D02*
X94695241Y-53464375D01*
X94695241Y-53464375D02*
X94847622Y-53464375D01*
X94847622Y-53464375D02*
X94923812Y-53426280D01*
X94923812Y-53426280D02*
X94961907Y-53388184D01*
X94961907Y-53388184D02*
X95000003Y-53311994D01*
X95000003Y-53311994D02*
X95000003Y-53083422D01*
X95000003Y-53083422D02*
X94961907Y-53007232D01*
X94961907Y-53007232D02*
X94923812Y-52969137D01*
X94923812Y-52969137D02*
X94847622Y-52931041D01*
X94847622Y-52931041D02*
X94695241Y-52931041D01*
X94695241Y-52931041D02*
X94619050Y-52969137D01*
X93895240Y-52931041D02*
X93895240Y-53464375D01*
X94238097Y-52931041D02*
X94238097Y-53350089D01*
X94238097Y-53350089D02*
X94200002Y-53426280D01*
X94200002Y-53426280D02*
X94123812Y-53464375D01*
X94123812Y-53464375D02*
X94009526Y-53464375D01*
X94009526Y-53464375D02*
X93933335Y-53426280D01*
X93933335Y-53426280D02*
X93895240Y-53388184D01*
X93590478Y-52931041D02*
X93400002Y-53464375D01*
X93209525Y-52931041D02*
X93400002Y-53464375D01*
X93400002Y-53464375D02*
X93476192Y-53654851D01*
X93476192Y-53654851D02*
X93514287Y-53692946D01*
X93514287Y-53692946D02*
X93590478Y-53731041D01*
X92600001Y-53426280D02*
X92676192Y-53464375D01*
X92676192Y-53464375D02*
X92828573Y-53464375D01*
X92828573Y-53464375D02*
X92904763Y-53426280D01*
X92904763Y-53426280D02*
X92942859Y-53350089D01*
X92942859Y-53350089D02*
X92942859Y-53045327D01*
X92942859Y-53045327D02*
X92904763Y-52969137D01*
X92904763Y-52969137D02*
X92828573Y-52931041D01*
X92828573Y-52931041D02*
X92676192Y-52931041D01*
X92676192Y-52931041D02*
X92600001Y-52969137D01*
X92600001Y-52969137D02*
X92561906Y-53045327D01*
X92561906Y-53045327D02*
X92561906Y-53121518D01*
X92561906Y-53121518D02*
X92942859Y-53197708D01*
X92219049Y-52931041D02*
X92219049Y-53464375D01*
X92219049Y-53007232D02*
X92180954Y-52969137D01*
X92180954Y-52969137D02*
X92104764Y-52931041D01*
X92104764Y-52931041D02*
X91990478Y-52931041D01*
X91990478Y-52931041D02*
X91914287Y-52969137D01*
X91914287Y-52969137D02*
X91876192Y-53045327D01*
X91876192Y-53045327D02*
X91876192Y-53464375D01*
X90885715Y-53464375D02*
X90885715Y-52664375D01*
X90885715Y-52664375D02*
X90428572Y-53464375D01*
X90428572Y-53464375D02*
X90428572Y-52664375D01*
X90047620Y-53464375D02*
X90047620Y-52664375D01*
X89704763Y-53464375D02*
X89704763Y-53045327D01*
X89704763Y-53045327D02*
X89742858Y-52969137D01*
X89742858Y-52969137D02*
X89819049Y-52931041D01*
X89819049Y-52931041D02*
X89933335Y-52931041D01*
X89933335Y-52931041D02*
X90009525Y-52969137D01*
X90009525Y-52969137D02*
X90047620Y-53007232D01*
X88980953Y-53464375D02*
X88980953Y-53045327D01*
X88980953Y-53045327D02*
X89019048Y-52969137D01*
X89019048Y-52969137D02*
X89095239Y-52931041D01*
X89095239Y-52931041D02*
X89247620Y-52931041D01*
X89247620Y-52931041D02*
X89323810Y-52969137D01*
X88980953Y-53426280D02*
X89057144Y-53464375D01*
X89057144Y-53464375D02*
X89247620Y-53464375D01*
X89247620Y-53464375D02*
X89323810Y-53426280D01*
X89323810Y-53426280D02*
X89361906Y-53350089D01*
X89361906Y-53350089D02*
X89361906Y-53273899D01*
X89361906Y-53273899D02*
X89323810Y-53197708D01*
X89323810Y-53197708D02*
X89247620Y-53159613D01*
X89247620Y-53159613D02*
X89057144Y-53159613D01*
X89057144Y-53159613D02*
X88980953Y-53121518D01*
X88714286Y-52931041D02*
X88409524Y-52931041D01*
X88600000Y-52664375D02*
X88600000Y-53350089D01*
X88600000Y-53350089D02*
X88561905Y-53426280D01*
X88561905Y-53426280D02*
X88485715Y-53464375D01*
X88485715Y-53464375D02*
X88409524Y-53464375D01*
X87533333Y-53464375D02*
X87533333Y-52664375D01*
X87533333Y-53045327D02*
X87076190Y-53045327D01*
X87076190Y-53464375D02*
X87076190Y-52664375D01*
X86352381Y-52931041D02*
X86352381Y-53464375D01*
X86695238Y-52931041D02*
X86695238Y-53350089D01*
X86695238Y-53350089D02*
X86657143Y-53426280D01*
X86657143Y-53426280D02*
X86580953Y-53464375D01*
X86580953Y-53464375D02*
X86466667Y-53464375D01*
X86466667Y-53464375D02*
X86390476Y-53426280D01*
X86390476Y-53426280D02*
X86352381Y-53388184D01*
X86047619Y-52931041D02*
X85857143Y-53464375D01*
X85666666Y-52931041D02*
X85857143Y-53464375D01*
X85857143Y-53464375D02*
X85933333Y-53654851D01*
X85933333Y-53654851D02*
X85971428Y-53692946D01*
X85971428Y-53692946D02*
X86047619Y-53731041D01*
X84752380Y-53159613D02*
X84142857Y-53159613D01*
X83152380Y-53464375D02*
X83152380Y-52664375D01*
X83152380Y-52664375D02*
X82847618Y-52664375D01*
X82847618Y-52664375D02*
X82771428Y-52702470D01*
X82771428Y-52702470D02*
X82733333Y-52740565D01*
X82733333Y-52740565D02*
X82695237Y-52816756D01*
X82695237Y-52816756D02*
X82695237Y-52931041D01*
X82695237Y-52931041D02*
X82733333Y-53007232D01*
X82733333Y-53007232D02*
X82771428Y-53045327D01*
X82771428Y-53045327D02*
X82847618Y-53083422D01*
X82847618Y-53083422D02*
X83152380Y-53083422D01*
X82352380Y-53464375D02*
X82352380Y-52664375D01*
X82009523Y-53464375D02*
X82009523Y-53045327D01*
X82009523Y-53045327D02*
X82047618Y-52969137D01*
X82047618Y-52969137D02*
X82123809Y-52931041D01*
X82123809Y-52931041D02*
X82238095Y-52931041D01*
X82238095Y-52931041D02*
X82314285Y-52969137D01*
X82314285Y-52969137D02*
X82352380Y-53007232D01*
X81285713Y-53464375D02*
X81285713Y-53045327D01*
X81285713Y-53045327D02*
X81323808Y-52969137D01*
X81323808Y-52969137D02*
X81399999Y-52931041D01*
X81399999Y-52931041D02*
X81552380Y-52931041D01*
X81552380Y-52931041D02*
X81628570Y-52969137D01*
X81285713Y-53426280D02*
X81361904Y-53464375D01*
X81361904Y-53464375D02*
X81552380Y-53464375D01*
X81552380Y-53464375D02*
X81628570Y-53426280D01*
X81628570Y-53426280D02*
X81666666Y-53350089D01*
X81666666Y-53350089D02*
X81666666Y-53273899D01*
X81666666Y-53273899D02*
X81628570Y-53197708D01*
X81628570Y-53197708D02*
X81552380Y-53159613D01*
X81552380Y-53159613D02*
X81361904Y-53159613D01*
X81361904Y-53159613D02*
X81285713Y-53121518D01*
X80904760Y-53464375D02*
X80904760Y-52931041D01*
X80904760Y-53007232D02*
X80866665Y-52969137D01*
X80866665Y-52969137D02*
X80790475Y-52931041D01*
X80790475Y-52931041D02*
X80676189Y-52931041D01*
X80676189Y-52931041D02*
X80599998Y-52969137D01*
X80599998Y-52969137D02*
X80561903Y-53045327D01*
X80561903Y-53045327D02*
X80561903Y-53464375D01*
X80561903Y-53045327D02*
X80523808Y-52969137D01*
X80523808Y-52969137D02*
X80447617Y-52931041D01*
X80447617Y-52931041D02*
X80333332Y-52931041D01*
X80333332Y-52931041D02*
X80257141Y-52969137D01*
X80257141Y-52969137D02*
X80219046Y-53045327D01*
X80219046Y-53045327D02*
X80219046Y-53464375D01*
X79342855Y-52664375D02*
X78885712Y-52664375D01*
X79114284Y-53464375D02*
X79114284Y-52664375D01*
X78619045Y-53464375D02*
X78619045Y-52664375D01*
X78276188Y-53464375D02*
X78276188Y-53045327D01*
X78276188Y-53045327D02*
X78314283Y-52969137D01*
X78314283Y-52969137D02*
X78390474Y-52931041D01*
X78390474Y-52931041D02*
X78504760Y-52931041D01*
X78504760Y-52931041D02*
X78580950Y-52969137D01*
X78580950Y-52969137D02*
X78619045Y-53007232D01*
X77552378Y-53464375D02*
X77552378Y-53045327D01*
X77552378Y-53045327D02*
X77590473Y-52969137D01*
X77590473Y-52969137D02*
X77666664Y-52931041D01*
X77666664Y-52931041D02*
X77819045Y-52931041D01*
X77819045Y-52931041D02*
X77895235Y-52969137D01*
X77552378Y-53426280D02*
X77628569Y-53464375D01*
X77628569Y-53464375D02*
X77819045Y-53464375D01*
X77819045Y-53464375D02*
X77895235Y-53426280D01*
X77895235Y-53426280D02*
X77933331Y-53350089D01*
X77933331Y-53350089D02*
X77933331Y-53273899D01*
X77933331Y-53273899D02*
X77895235Y-53197708D01*
X77895235Y-53197708D02*
X77819045Y-53159613D01*
X77819045Y-53159613D02*
X77628569Y-53159613D01*
X77628569Y-53159613D02*
X77552378Y-53121518D01*
X77171425Y-52931041D02*
X77171425Y-53464375D01*
X77171425Y-53007232D02*
X77133330Y-52969137D01*
X77133330Y-52969137D02*
X77057140Y-52931041D01*
X77057140Y-52931041D02*
X76942854Y-52931041D01*
X76942854Y-52931041D02*
X76866663Y-52969137D01*
X76866663Y-52969137D02*
X76828568Y-53045327D01*
X76828568Y-53045327D02*
X76828568Y-53464375D01*
X76447615Y-53464375D02*
X76447615Y-52664375D01*
X76104758Y-53464375D02*
X76104758Y-53045327D01*
X76104758Y-53045327D02*
X76142853Y-52969137D01*
X76142853Y-52969137D02*
X76219044Y-52931041D01*
X76219044Y-52931041D02*
X76333330Y-52931041D01*
X76333330Y-52931041D02*
X76409520Y-52969137D01*
X76409520Y-52969137D02*
X76447615Y-53007232D01*
X75228567Y-52664375D02*
X74961900Y-53464375D01*
X74961900Y-53464375D02*
X74695234Y-52664375D01*
X74504758Y-52931041D02*
X74314282Y-53464375D01*
X74123805Y-52931041D02*
X74314282Y-53464375D01*
X74314282Y-53464375D02*
X74390472Y-53654851D01*
X74390472Y-53654851D02*
X74428567Y-53692946D01*
X74428567Y-53692946D02*
X74504758Y-53731041D01*
X98106666Y-53564375D02*
X97839999Y-54364375D01*
X97839999Y-54364375D02*
X97573333Y-53564375D01*
X98468570Y-56904375D02*
X98468570Y-56104375D01*
X98468570Y-56104375D02*
X98011427Y-56904375D01*
X98011427Y-56904375D02*
X98011427Y-56104375D01*
X97173332Y-56828184D02*
X97211428Y-56866280D01*
X97211428Y-56866280D02*
X97325713Y-56904375D01*
X97325713Y-56904375D02*
X97401904Y-56904375D01*
X97401904Y-56904375D02*
X97516190Y-56866280D01*
X97516190Y-56866280D02*
X97592380Y-56790089D01*
X97592380Y-56790089D02*
X97630475Y-56713899D01*
X97630475Y-56713899D02*
X97668571Y-56561518D01*
X97668571Y-56561518D02*
X97668571Y-56447232D01*
X97668571Y-56447232D02*
X97630475Y-56294851D01*
X97630475Y-56294851D02*
X97592380Y-56218660D01*
X97592380Y-56218660D02*
X97516190Y-56142470D01*
X97516190Y-56142470D02*
X97401904Y-56104375D01*
X97401904Y-56104375D02*
X97325713Y-56104375D01*
X97325713Y-56104375D02*
X97211428Y-56142470D01*
X97211428Y-56142470D02*
X97173332Y-56180565D01*
X97630476Y-58682470D02*
X97706666Y-58644375D01*
X97706666Y-58644375D02*
X97820952Y-58644375D01*
X97820952Y-58644375D02*
X97935238Y-58682470D01*
X97935238Y-58682470D02*
X98011428Y-58758660D01*
X98011428Y-58758660D02*
X98049523Y-58834851D01*
X98049523Y-58834851D02*
X98087619Y-58987232D01*
X98087619Y-58987232D02*
X98087619Y-59101518D01*
X98087619Y-59101518D02*
X98049523Y-59253899D01*
X98049523Y-59253899D02*
X98011428Y-59330089D01*
X98011428Y-59330089D02*
X97935238Y-59406280D01*
X97935238Y-59406280D02*
X97820952Y-59444375D01*
X97820952Y-59444375D02*
X97744761Y-59444375D01*
X97744761Y-59444375D02*
X97630476Y-59406280D01*
X97630476Y-59406280D02*
X97592380Y-59368184D01*
X97592380Y-59368184D02*
X97592380Y-59101518D01*
X97592380Y-59101518D02*
X97744761Y-59101518D01*
X98125714Y-61565327D02*
X98392380Y-61565327D01*
X98392380Y-61984375D02*
X98392380Y-61184375D01*
X98392380Y-61184375D02*
X98011428Y-61184375D01*
X97440000Y-61565327D02*
X97325714Y-61603422D01*
X97325714Y-61603422D02*
X97287619Y-61641518D01*
X97287619Y-61641518D02*
X97249523Y-61717708D01*
X97249523Y-61717708D02*
X97249523Y-61831994D01*
X97249523Y-61831994D02*
X97287619Y-61908184D01*
X97287619Y-61908184D02*
X97325714Y-61946280D01*
X97325714Y-61946280D02*
X97401904Y-61984375D01*
X97401904Y-61984375D02*
X97706666Y-61984375D01*
X97706666Y-61984375D02*
X97706666Y-61184375D01*
X97706666Y-61184375D02*
X97440000Y-61184375D01*
X97440000Y-61184375D02*
X97363809Y-61222470D01*
X97363809Y-61222470D02*
X97325714Y-61260565D01*
X97325714Y-61260565D02*
X97287619Y-61336756D01*
X97287619Y-61336756D02*
X97287619Y-61412946D01*
X97287619Y-61412946D02*
X97325714Y-61489137D01*
X97325714Y-61489137D02*
X97363809Y-61527232D01*
X97363809Y-61527232D02*
X97440000Y-61565327D01*
X97440000Y-61565327D02*
X97706666Y-61565327D01*
X101228571Y-68526280D02*
X101114285Y-68564375D01*
X101114285Y-68564375D02*
X100923809Y-68564375D01*
X100923809Y-68564375D02*
X100847618Y-68526280D01*
X100847618Y-68526280D02*
X100809523Y-68488184D01*
X100809523Y-68488184D02*
X100771428Y-68411994D01*
X100771428Y-68411994D02*
X100771428Y-68335803D01*
X100771428Y-68335803D02*
X100809523Y-68259613D01*
X100809523Y-68259613D02*
X100847618Y-68221518D01*
X100847618Y-68221518D02*
X100923809Y-68183422D01*
X100923809Y-68183422D02*
X101076190Y-68145327D01*
X101076190Y-68145327D02*
X101152380Y-68107232D01*
X101152380Y-68107232D02*
X101190475Y-68069137D01*
X101190475Y-68069137D02*
X101228571Y-67992946D01*
X101228571Y-67992946D02*
X101228571Y-67916756D01*
X101228571Y-67916756D02*
X101190475Y-67840565D01*
X101190475Y-67840565D02*
X101152380Y-67802470D01*
X101152380Y-67802470D02*
X101076190Y-67764375D01*
X101076190Y-67764375D02*
X100885713Y-67764375D01*
X100885713Y-67764375D02*
X100771428Y-67802470D01*
X103628570Y-68564375D02*
X103628570Y-67764375D01*
X103628570Y-67764375D02*
X103171427Y-68564375D01*
X103171427Y-68564375D02*
X103171427Y-67764375D01*
X102333332Y-68488184D02*
X102371428Y-68526280D01*
X102371428Y-68526280D02*
X102485713Y-68564375D01*
X102485713Y-68564375D02*
X102561904Y-68564375D01*
X102561904Y-68564375D02*
X102676190Y-68526280D01*
X102676190Y-68526280D02*
X102752380Y-68450089D01*
X102752380Y-68450089D02*
X102790475Y-68373899D01*
X102790475Y-68373899D02*
X102828571Y-68221518D01*
X102828571Y-68221518D02*
X102828571Y-68107232D01*
X102828571Y-68107232D02*
X102790475Y-67954851D01*
X102790475Y-67954851D02*
X102752380Y-67878660D01*
X102752380Y-67878660D02*
X102676190Y-67802470D01*
X102676190Y-67802470D02*
X102561904Y-67764375D01*
X102561904Y-67764375D02*
X102485713Y-67764375D01*
X102485713Y-67764375D02*
X102371428Y-67802470D01*
X102371428Y-67802470D02*
X102333332Y-67840565D01*
X105266666Y-67764375D02*
X104999999Y-68564375D01*
X104999999Y-68564375D02*
X104733333Y-67764375D01*
X106790476Y-67802470D02*
X106866666Y-67764375D01*
X106866666Y-67764375D02*
X106980952Y-67764375D01*
X106980952Y-67764375D02*
X107095238Y-67802470D01*
X107095238Y-67802470D02*
X107171428Y-67878660D01*
X107171428Y-67878660D02*
X107209523Y-67954851D01*
X107209523Y-67954851D02*
X107247619Y-68107232D01*
X107247619Y-68107232D02*
X107247619Y-68221518D01*
X107247619Y-68221518D02*
X107209523Y-68373899D01*
X107209523Y-68373899D02*
X107171428Y-68450089D01*
X107171428Y-68450089D02*
X107095238Y-68526280D01*
X107095238Y-68526280D02*
X106980952Y-68564375D01*
X106980952Y-68564375D02*
X106904761Y-68564375D01*
X106904761Y-68564375D02*
X106790476Y-68526280D01*
X106790476Y-68526280D02*
X106752380Y-68488184D01*
X106752380Y-68488184D02*
X106752380Y-68221518D01*
X106752380Y-68221518D02*
X106904761Y-68221518D01*
X110450476Y-53602470D02*
X110526666Y-53564375D01*
X110526666Y-53564375D02*
X110640952Y-53564375D01*
X110640952Y-53564375D02*
X110755238Y-53602470D01*
X110755238Y-53602470D02*
X110831428Y-53678660D01*
X110831428Y-53678660D02*
X110869523Y-53754851D01*
X110869523Y-53754851D02*
X110907619Y-53907232D01*
X110907619Y-53907232D02*
X110907619Y-54021518D01*
X110907619Y-54021518D02*
X110869523Y-54173899D01*
X110869523Y-54173899D02*
X110831428Y-54250089D01*
X110831428Y-54250089D02*
X110755238Y-54326280D01*
X110755238Y-54326280D02*
X110640952Y-54364375D01*
X110640952Y-54364375D02*
X110564761Y-54364375D01*
X110564761Y-54364375D02*
X110450476Y-54326280D01*
X110450476Y-54326280D02*
X110412380Y-54288184D01*
X110412380Y-54288184D02*
X110412380Y-54021518D01*
X110412380Y-54021518D02*
X110564761Y-54021518D01*
X111288570Y-56904375D02*
X111288570Y-56104375D01*
X111288570Y-56104375D02*
X110831427Y-56904375D01*
X110831427Y-56904375D02*
X110831427Y-56104375D01*
X109993332Y-56828184D02*
X110031428Y-56866280D01*
X110031428Y-56866280D02*
X110145713Y-56904375D01*
X110145713Y-56904375D02*
X110221904Y-56904375D01*
X110221904Y-56904375D02*
X110336190Y-56866280D01*
X110336190Y-56866280D02*
X110412380Y-56790089D01*
X110412380Y-56790089D02*
X110450475Y-56713899D01*
X110450475Y-56713899D02*
X110488571Y-56561518D01*
X110488571Y-56561518D02*
X110488571Y-56447232D01*
X110488571Y-56447232D02*
X110450475Y-56294851D01*
X110450475Y-56294851D02*
X110412380Y-56218660D01*
X110412380Y-56218660D02*
X110336190Y-56142470D01*
X110336190Y-56142470D02*
X110221904Y-56104375D01*
X110221904Y-56104375D02*
X110145713Y-56104375D01*
X110145713Y-56104375D02*
X110031428Y-56142470D01*
X110031428Y-56142470D02*
X109993332Y-56180565D01*
X111288570Y-59444375D02*
X111288570Y-58644375D01*
X111288570Y-58644375D02*
X110831427Y-59444375D01*
X110831427Y-59444375D02*
X110831427Y-58644375D01*
X109993332Y-59368184D02*
X110031428Y-59406280D01*
X110031428Y-59406280D02*
X110145713Y-59444375D01*
X110145713Y-59444375D02*
X110221904Y-59444375D01*
X110221904Y-59444375D02*
X110336190Y-59406280D01*
X110336190Y-59406280D02*
X110412380Y-59330089D01*
X110412380Y-59330089D02*
X110450475Y-59253899D01*
X110450475Y-59253899D02*
X110488571Y-59101518D01*
X110488571Y-59101518D02*
X110488571Y-58987232D01*
X110488571Y-58987232D02*
X110450475Y-58834851D01*
X110450475Y-58834851D02*
X110412380Y-58758660D01*
X110412380Y-58758660D02*
X110336190Y-58682470D01*
X110336190Y-58682470D02*
X110221904Y-58644375D01*
X110221904Y-58644375D02*
X110145713Y-58644375D01*
X110145713Y-58644375D02*
X110031428Y-58682470D01*
X110031428Y-58682470D02*
X109993332Y-58720565D01*
X111459999Y-61184375D02*
X111307618Y-61184375D01*
X111307618Y-61184375D02*
X111231428Y-61222470D01*
X111231428Y-61222470D02*
X111155237Y-61298660D01*
X111155237Y-61298660D02*
X111117142Y-61451041D01*
X111117142Y-61451041D02*
X111117142Y-61717708D01*
X111117142Y-61717708D02*
X111155237Y-61870089D01*
X111155237Y-61870089D02*
X111231428Y-61946280D01*
X111231428Y-61946280D02*
X111307618Y-61984375D01*
X111307618Y-61984375D02*
X111459999Y-61984375D01*
X111459999Y-61984375D02*
X111536190Y-61946280D01*
X111536190Y-61946280D02*
X111612380Y-61870089D01*
X111612380Y-61870089D02*
X111650476Y-61717708D01*
X111650476Y-61717708D02*
X111650476Y-61451041D01*
X111650476Y-61451041D02*
X111612380Y-61298660D01*
X111612380Y-61298660D02*
X111536190Y-61222470D01*
X111536190Y-61222470D02*
X111459999Y-61184375D01*
X110774285Y-61184375D02*
X110774285Y-61831994D01*
X110774285Y-61831994D02*
X110736190Y-61908184D01*
X110736190Y-61908184D02*
X110698095Y-61946280D01*
X110698095Y-61946280D02*
X110621904Y-61984375D01*
X110621904Y-61984375D02*
X110469523Y-61984375D01*
X110469523Y-61984375D02*
X110393333Y-61946280D01*
X110393333Y-61946280D02*
X110355238Y-61908184D01*
X110355238Y-61908184D02*
X110317142Y-61831994D01*
X110317142Y-61831994D02*
X110317142Y-61184375D01*
X110050476Y-61184375D02*
X109593333Y-61184375D01*
X109821905Y-61984375D02*
X109821905Y-61184375D01*
%TO.C,BPW_C4*%
D12*
X113765000Y-79638748D02*
X113765000Y-80161252D01*
X115235000Y-79638748D02*
X115235000Y-80161252D01*
%TO.C,OPT_C3*%
X73738748Y-62965000D02*
X74261252Y-62965000D01*
X73738748Y-64435000D02*
X74261252Y-64435000D01*
%TO.C,BPW_C6*%
X114238748Y-72365000D02*
X114761252Y-72365000D01*
X114238748Y-73835000D02*
X114761252Y-73835000D01*
%TO.C,BPW_R6*%
X110765000Y-75927064D02*
X110765000Y-75472936D01*
X112235000Y-75927064D02*
X112235000Y-75472936D01*
%TO.C,BPW_R8*%
X110765000Y-80127064D02*
X110765000Y-79672936D01*
X112235000Y-80127064D02*
X112235000Y-79672936D01*
%TO.C,OPT_R1*%
X65522936Y-62965000D02*
X65977064Y-62965000D01*
X65522936Y-64435000D02*
X65977064Y-64435000D01*
%TO.C,BPW_R4*%
X105272936Y-75965000D02*
X105727064Y-75965000D01*
X105272936Y-77435000D02*
X105727064Y-77435000D01*
%TO.C,BPW_R1*%
X68772936Y-72615000D02*
X69227064Y-72615000D01*
X68772936Y-74085000D02*
X69227064Y-74085000D01*
%TO.C,BPW_C8*%
X106738748Y-83931666D02*
X107261252Y-83931666D01*
X106738748Y-85401666D02*
X107261252Y-85401666D01*
%TO.C,BPW_R2*%
X100772936Y-72615000D02*
X101227064Y-72615000D01*
X100772936Y-74085000D02*
X101227064Y-74085000D01*
%TO.C,TX_C7*%
X81540000Y-103590000D02*
X83240000Y-103590000D01*
X81540000Y-108045563D02*
X81540000Y-103590000D01*
X82604437Y-109110000D02*
X81540000Y-108045563D01*
X82604437Y-109110000D02*
X83240000Y-109110000D01*
X85985000Y-109975000D02*
X85985000Y-109350000D01*
X85995563Y-109110000D02*
X85360000Y-109110000D01*
X85995563Y-109110000D02*
X87060000Y-108045563D01*
X86297500Y-109662500D02*
X85672500Y-109662500D01*
X87060000Y-103590000D02*
X85360000Y-103590000D01*
X87060000Y-108045563D02*
X87060000Y-103590000D01*
%TO.C,OPT_R2*%
X104477064Y-62965000D02*
X104022936Y-62965000D01*
X104477064Y-64435000D02*
X104022936Y-64435000D01*
%TO.C,BPW_U1*%
X68900000Y-77090000D02*
X68100000Y-77090000D01*
X68900000Y-77090000D02*
X69700000Y-77090000D01*
X69900000Y-80310000D02*
X68100000Y-80310000D01*
X70200000Y-77140000D02*
X70440000Y-76810000D01*
X69960000Y-76810000D01*
X70200000Y-77140000D01*
G36*
X70200000Y-77140000D02*
G01*
X69960000Y-76810000D01*
X70440000Y-76810000D01*
X70200000Y-77140000D01*
G37*
%TO.C,OPT_C4*%
X96261252Y-62965000D02*
X95738748Y-62965000D01*
X96261252Y-64435000D02*
X95738748Y-64435000D01*
%TO.C,BPW_C2*%
X100738748Y-74915000D02*
X101261252Y-74915000D01*
X100738748Y-76385000D02*
X101261252Y-76385000D01*
%TO.C,BPW_C1*%
X68738748Y-74915000D02*
X69261252Y-74915000D01*
X68738748Y-76385000D02*
X69261252Y-76385000D01*
%TO.C,BPW_C7*%
X63738748Y-83931666D02*
X64261252Y-83931666D01*
X63738748Y-85401666D02*
X64261252Y-85401666D01*
%TO.C,BPW_R3*%
X74272936Y-77331666D02*
X74727064Y-77331666D01*
X74272936Y-78801666D02*
X74727064Y-78801666D01*
%TO.C,BPW_R7*%
X57765000Y-80127064D02*
X57765000Y-79672936D01*
X59235000Y-80127064D02*
X59235000Y-79672936D01*
%TO.C,BPW_C3*%
X54765000Y-79638748D02*
X54765000Y-80161252D01*
X56235000Y-79638748D02*
X56235000Y-80161252D01*
%TO.C,BPW_R5*%
X57765000Y-75927064D02*
X57765000Y-75472936D01*
X59235000Y-75927064D02*
X59235000Y-75472936D01*
%TO.C,BPW_U2*%
X100900000Y-77090000D02*
X100100000Y-77090000D01*
X100900000Y-77090000D02*
X101700000Y-77090000D01*
X101900000Y-80310000D02*
X100100000Y-80310000D01*
X102200000Y-77140000D02*
X102440000Y-76810000D01*
X101960000Y-76810000D01*
X102200000Y-77140000D01*
G36*
X102200000Y-77140000D02*
G01*
X101960000Y-76810000D01*
X102440000Y-76810000D01*
X102200000Y-77140000D01*
G37*
%TO.C,BPW_C5*%
X55761252Y-72365000D02*
X55238748Y-72365000D01*
X55761252Y-73835000D02*
X55238748Y-73835000D01*
%TD*%
M02*
