%TF.GenerationSoftware,KiCad,Pcbnew,10.0.6*%
%TF.CreationDate,2026-10-01T22:37:40+07:00*%
%TF.ProjectId,ppg_panel,7070675f-7061-46e6-956c-2e6b69636164,rev?*%
%TF.SameCoordinates,Original*%
%TF.FileFunction,Copper,L1,Top*%
%TF.FilePolarity,Positive*%
%FSLAX46Y46*%
G04 Gerber Fmt 4.6, Leading zero omitted, Abs format (unit mm)*
G04 Created by KiCad (PCBNEW 10.0.6) date 2026-10-01 22:37:40*
%MOMM*%
%LPD*%
G01*
G04 APERTURE LIST*
G04 Aperture macros list*
%AMRoundRect*
0 Rectangle with rounded corners*
0 $1 Rounding radius*
0 $2 $3 $4 $5 $6 $7 $8 $9 X,Y pos of 4 corners*
0 Add a 4 corners polygon primitive as box body*
4,1,4,$2,$3,$4,$5,$6,$7,$8,$9,$2,$3,0*
0 Add four circle primitives for the rounded corners*
1,1,$1+$1,$2,$3*
1,1,$1+$1,$4,$5*
1,1,$1+$1,$6,$7*
1,1,$1+$1,$8,$9*
0 Add four rect primitives between the rounded corners*
20,1,$1+$1,$2,$3,$4,$5,0*
20,1,$1+$1,$4,$5,$6,$7,0*
20,1,$1+$1,$6,$7,$8,$9,0*
20,1,$1+$1,$8,$9,$2,$3,0*%
G04 Aperture macros list end*
%TA.AperFunction,SMDPad,CuDef*%
%ADD10RoundRect,0.250000X-0.337500X-0.475000X0.337500X-0.475000X0.337500X0.475000X-0.337500X0.475000X0*%
%TD*%
%TA.AperFunction,ComponentPad*%
%ADD11C,1.600000*%
%TD*%
%TA.AperFunction,ComponentPad*%
%ADD12R,1.700000X1.700000*%
%TD*%
%TA.AperFunction,ComponentPad*%
%ADD13C,1.700000*%
%TD*%
%TA.AperFunction,ComponentPad*%
%ADD14R,1.350000X1.350000*%
%TD*%
%TA.AperFunction,ComponentPad*%
%ADD15C,1.350000*%
%TD*%
%TA.AperFunction,ComponentPad*%
%ADD16RoundRect,0.250000X-0.550000X-0.550000X0.550000X-0.550000X0.550000X0.550000X-0.550000X0.550000X0*%
%TD*%
%TA.AperFunction,ComponentPad*%
%ADD17O,1.700000X1.700000*%
%TD*%
%TA.AperFunction,ComponentPad*%
%ADD18O,1.350000X1.350000*%
%TD*%
%TA.AperFunction,ComponentPad*%
%ADD19R,2.000000X2.000000*%
%TD*%
%TA.AperFunction,ComponentPad*%
%ADD20C,2.000000*%
%TD*%
%TA.AperFunction,SMDPad,CuDef*%
%ADD21RoundRect,0.250000X-0.350000X-0.450000X0.350000X-0.450000X0.350000X0.450000X-0.350000X0.450000X0*%
%TD*%
%TA.AperFunction,ComponentPad*%
%ADD22R,1.500000X1.500000*%
%TD*%
%TA.AperFunction,ComponentPad*%
%ADD23C,1.500000*%
%TD*%
%TA.AperFunction,ViaPad*%
%ADD24C,0.800000*%
%TD*%
%TA.AperFunction,Conductor*%
%ADD25C,0.350000*%
%TD*%
%TA.AperFunction,Conductor*%
%ADD26C,0.500000*%
%TD*%
%TA.AperFunction,Conductor*%
%ADD27C,0.600000*%
%TD*%
%TA.AperFunction,Conductor*%
%ADD28C,0.300000*%
%TD*%
%TA.AperFunction,Conductor*%
%ADD29C,0.400000*%
%TD*%
%TA.AperFunction,Conductor*%
%ADD30C,0.800000*%
%TD*%
%TA.AperFunction,Conductor*%
%ADD31C,0.220000*%
%TD*%
G04 APERTURE END LIST*
D10*
%TO.P,OPT_C4,1*%
%TO.N,OPT/OUT_IR*%
X109212500Y-72000000D03*
%TO.P,OPT_C4,2*%
%TO.N,OPT/GND_IR*%
X111287500Y-72000000D03*
%TD*%
D11*
%TO.P,TX_R8,1*%
%TO.N,TX/AMP_RED*%
X96000000Y-140000000D03*
%TO.P,TX_R8,2*%
%TO.N,TX/BASE_RED*%
X103620000Y-140000000D03*
%TD*%
%TO.P,TX_C4,1*%
%TO.N,TX/AMP_RED*%
X93000000Y-143000000D03*
%TO.P,TX_C4,2*%
%TO.N,TX/SENSE_RED*%
X93000000Y-145500000D03*
%TD*%
D12*
%TO.P,TX_J1,1*%
%TO.N,TX/DAC_IR*%
X57000000Y-115000000D03*
D13*
%TO.P,TX_J1,2*%
%TO.N,TX/GND*%
X57000000Y-117540000D03*
%TO.P,TX_J1,3*%
%TO.N,TX/SCL*%
X57000000Y-120080000D03*
%TO.P,TX_J1,4*%
%TO.N,TX/SDA*%
X57000000Y-122620000D03*
%TO.P,TX_J1,5*%
%TO.N,TX/3V3*%
X57000000Y-125160000D03*
%TO.P,TX_J1,6*%
%TO.N,TX/GND*%
X57000000Y-127700000D03*
%TD*%
D14*
%TO.P,BPW_J2,1*%
%TO.N,BPW/OUT_IR*%
X103500000Y-105000000D03*
D15*
%TO.P,BPW_J2,2*%
%TO.N,BPWunconnected-(J2-UNUSED-Pad2)*%
X105500000Y-105000000D03*
%TO.P,BPW_J2,3*%
%TO.N,BPW/3V3_IR*%
X107500000Y-105000000D03*
%TO.P,BPW_J2,4*%
%TO.N,BPW/GND_IR*%
X109500000Y-105000000D03*
%TD*%
D14*
%TO.P,OPT_J2,1*%
%TO.N,OPT/OUT_IR*%
X101000000Y-75000000D03*
D15*
%TO.P,OPT_J2,2*%
%TO.N,OPTunconnected-(J2-UNUSED-Pad2)*%
X103000000Y-75000000D03*
%TO.P,OPT_J2,3*%
%TO.N,OPT/3V3_IR*%
X105000000Y-75000000D03*
%TO.P,OPT_J2,4*%
%TO.N,OPT/GND_IR*%
X107000000Y-75000000D03*
%TD*%
D10*
%TO.P,OPT_C3,1*%
%TO.N,OPT/OUT_RED*%
X70712500Y-72000000D03*
%TO.P,OPT_C3,2*%
%TO.N,OPT/GND_RED*%
X72787500Y-72000000D03*
%TD*%
D16*
%TO.P,OPT_U1,1*%
%TO.N,OPT/3V3_RED*%
X61940000Y-61190000D03*
D11*
%TO.P,OPT_U1,2*%
%TO.N,OPTunconnected-(U1--IN-Pad2)*%
X61940000Y-63730000D03*
%TO.P,OPT_U1,3*%
%TO.N,OPT/GND_RED*%
X61940000Y-66270000D03*
%TO.P,OPT_U1,4*%
%TO.N,OPT/RAW_RED*%
X61940000Y-68810000D03*
%TO.P,OPT_U1,5*%
X69560000Y-68810000D03*
%TO.P,OPT_U1,6*%
%TO.N,OPTunconnected-(U1-NC-Pad6)*%
X69560000Y-66270000D03*
%TO.P,OPT_U1,7*%
%TO.N,OPTunconnected-(U1-NC-Pad7)*%
X69560000Y-63730000D03*
%TO.P,OPT_U1,8*%
%TO.N,OPT/GND_RED*%
X69560000Y-61190000D03*
%TD*%
D12*
%TO.P,TX_J2,1*%
%TO.N,TX/DAC_IR*%
X79000000Y-115000000D03*
D17*
%TO.P,TX_J2,2*%
%TO.N,TX/GND*%
X79000000Y-117540000D03*
D14*
%TO.P,TX_J2,3*%
%TO.N,TX/SCL*%
X79000000Y-121500000D03*
D18*
%TO.P,TX_J2,4*%
%TO.N,TX/SDA*%
X79000000Y-123500000D03*
%TO.P,TX_J2,5*%
%TO.N,TX/3V3*%
X79000000Y-125500000D03*
%TO.P,TX_J2,6*%
%TO.N,TX/GND*%
X79000000Y-127500000D03*
%TD*%
D14*
%TO.P,OPT_J1,1*%
%TO.N,OPT/OUT_RED*%
X63000000Y-75000000D03*
D15*
%TO.P,OPT_J1,2*%
%TO.N,OPTunconnected-(J1-UNUSED-Pad2)*%
X65000000Y-75000000D03*
%TO.P,OPT_J1,3*%
%TO.N,OPT/3V3_RED*%
X67000000Y-75000000D03*
%TO.P,OPT_J1,4*%
%TO.N,OPT/GND_RED*%
X69000000Y-75000000D03*
%TD*%
D12*
%TO.P,TX_J5,1*%
%TO.N,TX/5V*%
X73000000Y-155000000D03*
D13*
%TO.P,TX_J5,2*%
%TO.N,TX/LED_K_IR*%
X75540000Y-155000000D03*
%TD*%
D11*
%TO.P,TX_R7,1*%
%TO.N,TX/CMD_RED*%
X103620000Y-136000000D03*
%TO.P,TX_R7,2*%
%TO.N,TX/GND*%
X96000000Y-136000000D03*
%TD*%
D14*
%TO.P,BPW_J1,1*%
%TO.N,BPW/OUT_RED*%
X60500000Y-105000000D03*
D15*
%TO.P,BPW_J1,2*%
%TO.N,BPWunconnected-(J1-UNUSED-Pad2)*%
X62500000Y-105000000D03*
%TO.P,BPW_J1,3*%
%TO.N,BPW/3V3_RED*%
X64500000Y-105000000D03*
%TO.P,BPW_J1,4*%
%TO.N,BPW/GND_RED*%
X66500000Y-105000000D03*
%TD*%
D19*
%TO.P,BPW_D1,1*%
%TO.N,BPW/SUM_RED*%
X63200000Y-95000000D03*
D20*
%TO.P,BPW_D1,2*%
%TO.N,BPW/GND_RED*%
X68300000Y-95000000D03*
%TD*%
D16*
%TO.P,OPT_U2,1*%
%TO.N,OPT/3V3_IR*%
X100440000Y-61190000D03*
D11*
%TO.P,OPT_U2,2*%
%TO.N,OPTunconnected-(U2--IN-Pad2)*%
X100440000Y-63730000D03*
%TO.P,OPT_U2,3*%
%TO.N,OPT/GND_IR*%
X100440000Y-66270000D03*
%TO.P,OPT_U2,4*%
%TO.N,OPT/RAW_IR*%
X100440000Y-68810000D03*
%TO.P,OPT_U2,5*%
X108060000Y-68810000D03*
%TO.P,OPT_U2,6*%
%TO.N,OPTunconnected-(U2-NC-Pad6)*%
X108060000Y-66270000D03*
%TO.P,OPT_U2,7*%
%TO.N,OPTunconnected-(U2-NC-Pad7)*%
X108060000Y-63730000D03*
%TO.P,OPT_U2,8*%
%TO.N,OPT/GND_IR*%
X108060000Y-61190000D03*
%TD*%
D21*
%TO.P,OPT_R2,1*%
%TO.N,OPT/RAW_IR*%
X103250000Y-72000000D03*
%TO.P,OPT_R2,2*%
%TO.N,OPT/OUT_IR*%
X105250000Y-72000000D03*
%TD*%
D16*
%TO.P,TX_U1,1*%
%TO.N,TX/AMP_IR*%
X81190000Y-135190000D03*
D11*
%TO.P,TX_U1,2*%
%TO.N,TX/SENSE_IR*%
X81190000Y-137730000D03*
%TO.P,TX_U1,3*%
%TO.N,TX/CMD_IR*%
X81190000Y-140270000D03*
%TO.P,TX_U1,4*%
%TO.N,TX/GND*%
X81190000Y-142810000D03*
%TO.P,TX_U1,5*%
%TO.N,TX/CMD_RED*%
X88810000Y-142810000D03*
%TO.P,TX_U1,6*%
%TO.N,TX/SENSE_RED*%
X88810000Y-140270000D03*
%TO.P,TX_U1,7*%
%TO.N,TX/AMP_RED*%
X88810000Y-137730000D03*
%TO.P,TX_U1,8*%
%TO.N,TX/5V*%
X88810000Y-135190000D03*
%TD*%
%TO.P,TX_C5,1*%
%TO.N,TX/5V*%
X88810000Y-131000000D03*
%TO.P,TX_C5,2*%
%TO.N,TX/GND*%
X91310000Y-131000000D03*
%TD*%
%TO.P,TX_R6,1*%
%TO.N,TX/DAC_RED*%
X96000000Y-132000000D03*
%TO.P,TX_R6,2*%
%TO.N,TX/CMD_RED*%
X103620000Y-132000000D03*
%TD*%
D12*
%TO.P,TX_J4,1*%
%TO.N,TX/DAC_RED*%
X112000000Y-115000000D03*
D13*
%TO.P,TX_J4,2*%
%TO.N,TX/GND*%
X112000000Y-117540000D03*
%TD*%
D11*
%TO.P,TX_R2,1*%
%TO.N,TX/CMD_IR*%
X66620000Y-136000000D03*
%TO.P,TX_R2,2*%
%TO.N,TX/GND*%
X59000000Y-136000000D03*
%TD*%
D22*
%TO.P,TX_Q2,1*%
%TO.N,TX/SENSE_RED*%
X97000000Y-146000000D03*
D23*
%TO.P,TX_Q2,2*%
%TO.N,TX/BASE_RED*%
X99540000Y-146000000D03*
%TO.P,TX_Q2,3*%
%TO.N,TX/LED_K_RED*%
X102080000Y-146000000D03*
%TD*%
D12*
%TO.P,TX_J6,1*%
%TO.N,TX/5V*%
X96000000Y-155000000D03*
D13*
%TO.P,TX_J6,2*%
%TO.N,TX/LED_K_RED*%
X98540000Y-155000000D03*
%TD*%
D11*
%TO.P,OPT_C2,1*%
%TO.N,OPT/3V3_IR*%
X100440000Y-57000000D03*
%TO.P,OPT_C2,2*%
%TO.N,OPT/GND_IR*%
X102940000Y-57000000D03*
%TD*%
%TO.P,TX_C2,1*%
%TO.N,TX/AMP_IR*%
X77000000Y-143000000D03*
%TO.P,TX_C2,2*%
%TO.N,TX/SENSE_IR*%
X77000000Y-145500000D03*
%TD*%
D12*
%TO.P,BPW_J3,1*%
%TO.N,BPW/OUT_RED*%
X72000000Y-105000000D03*
D13*
%TO.P,BPW_J3,2*%
%TO.N,BPW/GND_RED*%
X74540000Y-105000000D03*
%TO.P,BPW_J3,3*%
%TO.N,BPW/OUT_IR*%
X77080000Y-105000000D03*
%TO.P,BPW_J3,4*%
%TO.N,BPW/GND_IR*%
X79620000Y-105000000D03*
%TD*%
D11*
%TO.P,TX_R4,1*%
%TO.N,TX/SENSE_IR*%
X62000000Y-151000000D03*
%TO.P,TX_R4,2*%
%TO.N,TX/GND*%
X69620000Y-151000000D03*
%TD*%
D22*
%TO.P,TX_Q1,1*%
%TO.N,TX/SENSE_IR*%
X68000000Y-146000000D03*
D23*
%TO.P,TX_Q1,2*%
%TO.N,TX/BASE_IR*%
X70540000Y-146000000D03*
%TO.P,TX_Q1,3*%
%TO.N,TX/LED_K_IR*%
X73080000Y-146000000D03*
%TD*%
D11*
%TO.P,OPT_C1,1*%
%TO.N,OPT/3V3_RED*%
X61940000Y-57000000D03*
%TO.P,OPT_C1,2*%
%TO.N,OPT/GND_RED*%
X64440000Y-57000000D03*
%TD*%
D19*
%TO.P,BPW_D2,1*%
%TO.N,BPW/SUM_IR*%
X101700000Y-95000000D03*
D20*
%TO.P,BPW_D2,2*%
%TO.N,BPW/GND_IR*%
X106800000Y-95000000D03*
%TD*%
D12*
%TO.P,TX_J3,1*%
%TO.N,TX/DAC_RED*%
X90000000Y-115000000D03*
D13*
%TO.P,TX_J3,2*%
%TO.N,TX/GND*%
X90000000Y-117540000D03*
%TO.P,TX_J3,3*%
%TO.N,TX/SCL*%
X90000000Y-120080000D03*
%TO.P,TX_J3,4*%
%TO.N,TX/SDA*%
X90000000Y-122620000D03*
%TO.P,TX_J3,5*%
%TO.N,TX/3V3*%
X90000000Y-125160000D03*
%TO.P,TX_J3,6*%
%TO.N,TX/GND*%
X90000000Y-127700000D03*
%TD*%
D11*
%TO.P,TX_R3,1*%
%TO.N,TX/AMP_IR*%
X73000000Y-134500000D03*
%TO.P,TX_R3,2*%
%TO.N,TX/BASE_IR*%
X73000000Y-142120000D03*
%TD*%
D16*
%TO.P,TX_C7,1*%
%TO.N,TX/5V*%
X80000000Y-150000000D03*
D11*
%TO.P,TX_C7,2*%
%TO.N,TX/GND*%
X82000000Y-150000000D03*
%TD*%
D12*
%TO.P,TX_J7,1*%
%TO.N,TX/5V*%
X84000000Y-155000000D03*
D13*
%TO.P,TX_J7,2*%
%TO.N,TX/GND*%
X86540000Y-155000000D03*
%TD*%
D12*
%TO.P,OPT_J3,1*%
%TO.N,OPT/OUT_RED*%
X76000000Y-75000000D03*
D13*
%TO.P,OPT_J3,2*%
%TO.N,OPT/OUT_IR*%
X78540000Y-75000000D03*
%TD*%
D21*
%TO.P,OPT_R1,1*%
%TO.N,OPT/RAW_RED*%
X64750000Y-72000000D03*
%TO.P,OPT_R1,2*%
%TO.N,OPT/OUT_RED*%
X66750000Y-72000000D03*
%TD*%
D11*
%TO.P,TX_R9,1*%
%TO.N,TX/SENSE_RED*%
X98000000Y-151000000D03*
%TO.P,TX_R9,2*%
%TO.N,TX/GND*%
X105620000Y-151000000D03*
%TD*%
%TO.P,TX_R1,1*%
%TO.N,TX/DAC_IR*%
X59000000Y-132000000D03*
%TO.P,TX_R1,2*%
%TO.N,TX/CMD_IR*%
X66620000Y-132000000D03*
%TD*%
D24*
%TO.N,OPT/GND_IR*%
X113250000Y-72000000D03*
%TO.N,BPW/OUT_IR*%
X103500000Y-102000000D03*
X107500000Y-87500000D03*
%TO.N,BPW/3V3_IR*%
X98500000Y-88500000D03*
X112000000Y-103000000D03*
X107500000Y-82500000D03*
%TO.N,OPT/GND_RED*%
X74750000Y-72000000D03*
%TO.N,BPW/3V3_RED*%
X58000000Y-103000000D03*
X62500000Y-82500000D03*
X66500000Y-88500000D03*
%TO.N,BPW/VREF_IR*%
X103500000Y-93000000D03*
X109500000Y-86500000D03*
%TO.N,BPW/VREF_RED*%
X62500000Y-89000000D03*
X71500000Y-92800000D03*
%TD*%
%TO.N,OPT/OUT_IR*%
D25*
X105250000Y-73500000D02*
X101000000Y-73500000D01*
X101000000Y-73500000D02*
X101000000Y-75000000D01*
X105250000Y-72000000D02*
X105250000Y-73500000D01*
X105250000Y-72000000D02*
X109212500Y-72000000D01*
X78539999Y-73500000D02*
X78539999Y-75000000D01*
X101000000Y-73500000D02*
X78539999Y-73500000D01*
X101000000Y-75000000D02*
X101000000Y-73500000D01*
%TO.N,OPT/GND_IR*%
D26*
X108060000Y-57000000D02*
X108060000Y-61190000D01*
X102940000Y-57000000D02*
X108060000Y-57000000D01*
D25*
X111287500Y-72000000D02*
X113250000Y-72000000D01*
%TO.N,TX/AMP_RED*%
X93000000Y-140000000D02*
X93000000Y-143000000D01*
X96000000Y-139730000D02*
X96000000Y-140000000D01*
X94000000Y-137729999D02*
X96000000Y-139730000D01*
X96000000Y-140000000D02*
X93000000Y-140000000D01*
X88810000Y-137729999D02*
X94000000Y-137729999D01*
%TO.N,TX/BASE_RED*%
X103620000Y-143500000D02*
X99540000Y-143500000D01*
X103620000Y-140000000D02*
X103620000Y-143500000D01*
X99540000Y-143500000D02*
X99540000Y-146000000D01*
%TO.N,TX/SENSE_RED*%
X90800000Y-151000000D02*
X98000000Y-151000000D01*
X90800000Y-140270000D02*
X90800000Y-151000000D01*
D27*
X97000000Y-146000000D02*
X98000000Y-147000000D01*
D25*
X88810000Y-140270000D02*
X90800000Y-140270000D01*
D27*
X98000000Y-147000000D02*
X98000000Y-151000000D01*
%TO.N,TX/SCL*%
D25*
X76000000Y-120080000D02*
X76000000Y-121500000D01*
X79000000Y-121500000D02*
X81000000Y-121500000D01*
X81000000Y-120080000D02*
X90000000Y-120080000D01*
X57000000Y-120080000D02*
X76000000Y-120080000D01*
X81000000Y-121500000D02*
X81000000Y-120080000D01*
X76000000Y-121500000D02*
X79000000Y-121500000D01*
%TO.N,TX/SDA*%
X79000000Y-123500000D02*
X81000000Y-123500000D01*
X57000000Y-122620000D02*
X76000000Y-122620000D01*
X81000000Y-123500000D02*
X81000000Y-122620000D01*
X76000000Y-122620000D02*
X76000000Y-123500000D01*
X81000000Y-122620000D02*
X90000000Y-122620000D01*
X76000000Y-123500000D02*
X79000000Y-123500000D01*
%TO.N,TX/3V3*%
D27*
X81000000Y-125160000D02*
X90000000Y-125160000D01*
X76000000Y-125500000D02*
X79000000Y-125500000D01*
X57000000Y-125160000D02*
X76000000Y-125160000D01*
X81000000Y-125500000D02*
X81000000Y-125160000D01*
X76000000Y-125160000D02*
X76000000Y-125500000D01*
X79000000Y-125500000D02*
X81000000Y-125500000D01*
%TO.N,BPW/OUT_IR*%
D28*
X103500000Y-100000000D02*
X103500000Y-105000000D01*
X77080000Y-100500000D02*
X77080000Y-105000000D01*
X110000000Y-100000000D02*
X103500000Y-100000000D01*
X107500000Y-87500000D02*
X110000000Y-87500000D01*
X103500000Y-100500000D02*
X77080000Y-100500000D01*
X110000000Y-87500000D02*
X110000000Y-100000000D01*
X103500000Y-105000000D02*
X103500000Y-100500000D01*
%TO.N,BPW/3V3_IR*%
D29*
X112000000Y-108000000D02*
X112000000Y-103000000D01*
X107500000Y-105000000D02*
X107500000Y-108000000D01*
D25*
X107500000Y-81500000D02*
X96500000Y-81500000D01*
X96500000Y-88500000D02*
X98500000Y-88500000D01*
X96500000Y-81500000D02*
X96500000Y-88500000D01*
D29*
X107500000Y-108000000D02*
X112000000Y-108000000D01*
D25*
X107500000Y-82500000D02*
X107500000Y-81500000D01*
%TO.N,OPT/3V3_IR*%
X100440000Y-61190000D02*
X100440000Y-57000000D01*
%TO.N,OPT/OUT_RED*%
X66750000Y-72000000D02*
X66750000Y-73500000D01*
X66750000Y-73500000D02*
X63000000Y-73500000D01*
X63000000Y-73500000D02*
X76000000Y-73500000D01*
X63000000Y-75000000D02*
X63000000Y-73500000D01*
X63000000Y-73500000D02*
X63000000Y-75000000D01*
X76000000Y-73500000D02*
X76000000Y-75000000D01*
X66750000Y-72000000D02*
X70712500Y-72000000D01*
%TO.N,OPT/GND_RED*%
D26*
X69560000Y-57000000D02*
X69560000Y-61190000D01*
X64440000Y-57000000D02*
X69560000Y-57000000D01*
D25*
X72787500Y-72000000D02*
X74750000Y-72000000D01*
%TO.N,OPT/3V3_RED*%
X61940000Y-61190000D02*
X61940000Y-57000000D01*
%TO.N,OPT/RAW_RED*%
X61940000Y-68810000D02*
X69560000Y-68810000D01*
X61940000Y-68810000D02*
X61940000Y-72000000D01*
X61940000Y-72000000D02*
X64750000Y-72000000D01*
%TO.N,TX/5V*%
D30*
X80000000Y-152000000D02*
X80000000Y-150000000D01*
X84000000Y-152000000D02*
X80000000Y-152000000D01*
X84000000Y-155000000D02*
X84000000Y-152000000D01*
%TO.N,TX/LED_K_IR*%
D27*
X73080000Y-146000000D02*
X74800000Y-147720000D01*
X74800000Y-147720000D02*
X74800000Y-153500000D01*
X74800000Y-153500000D02*
X75539999Y-154240000D01*
X75539999Y-154240000D02*
X75539999Y-155000000D01*
%TO.N,TX/CMD_RED*%
D25*
X103620000Y-132000000D02*
X103620000Y-136000000D01*
%TO.N,BPW/OUT_RED*%
D28*
X72000000Y-102000000D02*
X72000000Y-105000000D01*
X60500000Y-102000000D02*
X72000000Y-102000000D01*
X60500000Y-105000000D02*
X60500000Y-102000000D01*
%TO.N,BPW/3V3_RED*%
D25*
X62500000Y-82500000D02*
X66500000Y-82500000D01*
D29*
X64500000Y-108000000D02*
X58000000Y-108000000D01*
X58000000Y-108000000D02*
X58000000Y-103000000D01*
D25*
X66500000Y-82500000D02*
X66500000Y-88500000D01*
D29*
X64500000Y-105000000D02*
X64500000Y-108000000D01*
%TO.N,OPT/RAW_IR*%
D25*
X100440000Y-68810000D02*
X108060000Y-68810000D01*
X100440000Y-72000000D02*
X103250000Y-72000000D01*
X100440000Y-68810000D02*
X100440000Y-72000000D01*
%TO.N,TX/AMP_IR*%
X81190000Y-135190000D02*
X79000000Y-135190000D01*
X79000000Y-135190000D02*
X77810000Y-134000000D01*
X73000000Y-134000000D02*
X73000000Y-134500000D01*
X77810000Y-134000000D02*
X73000000Y-134000000D01*
%TO.N,TX/SENSE_IR*%
D27*
X68000000Y-146000000D02*
X62000000Y-146000000D01*
X62000000Y-146000000D02*
X62000000Y-151000000D01*
%TO.N,TX/CMD_IR*%
D25*
X79000000Y-140000000D02*
X79000000Y-140270000D01*
X77000000Y-138000000D02*
X79000000Y-140000000D01*
X79000000Y-140270000D02*
X81190000Y-140270000D01*
X66620000Y-136000000D02*
X66620000Y-138000000D01*
X66620000Y-138000000D02*
X77000000Y-138000000D01*
X66620000Y-132000000D02*
X66620000Y-136000000D01*
%TO.N,TX/LED_K_RED*%
D27*
X108000000Y-154000000D02*
X98540000Y-154000000D01*
X105000000Y-146000000D02*
X108000000Y-149000000D01*
X102079999Y-146000000D02*
X105000000Y-146000000D01*
X108000000Y-149000000D02*
X108000000Y-154000000D01*
X98540000Y-154000000D02*
X98540000Y-155000000D01*
%TO.N,TX/BASE_IR*%
D25*
X73000000Y-142120000D02*
X73000000Y-143500000D01*
X73000000Y-143500000D02*
X70539999Y-143500000D01*
X70539999Y-143500000D02*
X70539999Y-146000000D01*
%TO.N,BPW/VREF_IR*%
D31*
X109500000Y-86500000D02*
X109500000Y-84000000D01*
X109500000Y-84000000D02*
X103500000Y-84000000D01*
X103500000Y-84000000D02*
X103500000Y-93000000D01*
%TO.N,BPW/VREF_RED*%
X62500000Y-91700000D02*
X71500000Y-91700000D01*
X62500000Y-89000000D02*
X62500000Y-91700000D01*
X71500000Y-91700000D02*
X71500000Y-92800000D01*
%TD*%
M02*
