%TF.GenerationSoftware,KiCad,Pcbnew,10.0.6*%
%TF.CreationDate,2026-10-02T21:55:37+07:00*%
%TF.ProjectId,ppg_panel,7070675f-7061-46e6-956c-2e6b69636164,rev?*%
%TF.SameCoordinates,Original*%
%TF.FileFunction,Legend,Top*%
%TF.FilePolarity,Positive*%
%FSLAX46Y46*%
G04 Gerber Fmt 4.6, Leading zero omitted, Abs format (unit mm)*
G04 Created by KiCad (PCBNEW 10.0.6) date 2026-10-02 21:55:37*
%MOMM*%
%LPD*%
G01*
G04 APERTURE LIST*
G04 Aperture macros list*
%AMRoundRect*
0 Rectangle with rounded corners*
0 $1 Rounding radius*
0 $2 $3 $4 $5 $6 $7 $8 $9 X,Y pos of 4 corners*
0 Add a 4 corners polygon primitive as box body*
4,1,4,$2,$3,$4,$5,$6,$7,$8,$9,$2,$3,0*
0 Add four circle primitives for the rounded corners*
1,1,$1+$1,$2,$3*
1,1,$1+$1,$4,$5*
1,1,$1+$1,$6,$7*
1,1,$1+$1,$8,$9*
0 Add four rect primitives between the rounded corners*
20,1,$1+$1,$2,$3,$4,$5,0*
20,1,$1+$1,$4,$5,$6,$7,0*
20,1,$1+$1,$6,$7,$8,$9,0*
20,1,$1+$1,$8,$9,$2,$3,0*%
G04 Aperture macros list end*
%ADD10C,0.100000*%
%ADD11C,0.110000*%
%ADD12C,0.120000*%
%ADD13C,0.150000*%
%ADD14C,0.350000*%
%ADD15R,1.350000X1.350000*%
%ADD16C,1.350000*%
%ADD17RoundRect,0.250000X-0.337500X-0.475000X0.337500X-0.475000X0.337500X0.475000X-0.337500X0.475000X0*%
%ADD18R,1.700000X1.700000*%
%ADD19C,1.700000*%
%ADD20RoundRect,0.250000X-0.350000X-0.450000X0.350000X-0.450000X0.350000X0.450000X-0.350000X0.450000X0*%
%ADD21C,3.200000*%
%ADD22RoundRect,0.250000X0.350000X0.450000X-0.350000X0.450000X-0.350000X-0.450000X0.350000X-0.450000X0*%
%ADD23RoundRect,0.250000X-0.475000X0.337500X-0.475000X-0.337500X0.475000X-0.337500X0.475000X0.337500X0*%
%ADD24R,2.000000X2.000000*%
%ADD25C,2.000000*%
%ADD26RoundRect,0.250000X-0.450000X0.350000X-0.450000X-0.350000X0.450000X-0.350000X0.450000X0.350000X0*%
%ADD27RoundRect,0.250000X-0.550000X-0.550000X0.550000X-0.550000X0.550000X0.550000X-0.550000X0.550000X0*%
%ADD28C,1.600000*%
%ADD29O,1.700000X1.700000*%
%ADD30O,1.350000X1.350000*%
%ADD31RoundRect,0.250000X-0.400000X-0.625000X0.400000X-0.625000X0.400000X0.625000X-0.400000X0.625000X0*%
%ADD32R,1.500000X1.500000*%
%ADD33C,1.500000*%
G04 APERTURE END LIST*
D10*
X63483333Y-72564895D02*
X63216666Y-72183942D01*
X63026190Y-72564895D02*
X63026190Y-71764895D01*
X63026190Y-71764895D02*
X63330952Y-71764895D01*
X63330952Y-71764895D02*
X63407142Y-71802990D01*
X63407142Y-71802990D02*
X63445237Y-71841085D01*
X63445237Y-71841085D02*
X63483333Y-71917276D01*
X63483333Y-71917276D02*
X63483333Y-72031561D01*
X63483333Y-72031561D02*
X63445237Y-72107752D01*
X63445237Y-72107752D02*
X63407142Y-72145847D01*
X63407142Y-72145847D02*
X63330952Y-72183942D01*
X63330952Y-72183942D02*
X63026190Y-72183942D01*
X63826190Y-72145847D02*
X64092856Y-72145847D01*
X64207142Y-72564895D02*
X63826190Y-72564895D01*
X63826190Y-72564895D02*
X63826190Y-71764895D01*
X63826190Y-71764895D02*
X64207142Y-71764895D01*
X64550000Y-72564895D02*
X64550000Y-71764895D01*
X64550000Y-71764895D02*
X64740476Y-71764895D01*
X64740476Y-71764895D02*
X64854762Y-71802990D01*
X64854762Y-71802990D02*
X64930952Y-71879180D01*
X64930952Y-71879180D02*
X64969047Y-71955371D01*
X64969047Y-71955371D02*
X65007143Y-72107752D01*
X65007143Y-72107752D02*
X65007143Y-72222038D01*
X65007143Y-72222038D02*
X64969047Y-72374419D01*
X64969047Y-72374419D02*
X64930952Y-72450609D01*
X64930952Y-72450609D02*
X64854762Y-72526800D01*
X64854762Y-72526800D02*
X64740476Y-72564895D01*
X64740476Y-72564895D02*
X64550000Y-72564895D01*
X66530952Y-71726800D02*
X65845238Y-72755371D01*
X67369047Y-72336323D02*
X67750000Y-72336323D01*
X67292857Y-72564895D02*
X67559524Y-71764895D01*
X67559524Y-71764895D02*
X67826190Y-72564895D01*
X68054761Y-71841085D02*
X68092857Y-71802990D01*
X68092857Y-71802990D02*
X68169047Y-71764895D01*
X68169047Y-71764895D02*
X68359523Y-71764895D01*
X68359523Y-71764895D02*
X68435714Y-71802990D01*
X68435714Y-71802990D02*
X68473809Y-71841085D01*
X68473809Y-71841085D02*
X68511904Y-71917276D01*
X68511904Y-71917276D02*
X68511904Y-71993466D01*
X68511904Y-71993466D02*
X68473809Y-72107752D01*
X68473809Y-72107752D02*
X68016666Y-72564895D01*
X68016666Y-72564895D02*
X68511904Y-72564895D01*
X68600000Y-91864895D02*
X68600000Y-91064895D01*
X69438095Y-91864895D02*
X69171428Y-91483942D01*
X68980952Y-91864895D02*
X68980952Y-91064895D01*
X68980952Y-91064895D02*
X69285714Y-91064895D01*
X69285714Y-91064895D02*
X69361904Y-91102990D01*
X69361904Y-91102990D02*
X69399999Y-91141085D01*
X69399999Y-91141085D02*
X69438095Y-91217276D01*
X69438095Y-91217276D02*
X69438095Y-91331561D01*
X69438095Y-91331561D02*
X69399999Y-91407752D01*
X69399999Y-91407752D02*
X69361904Y-91445847D01*
X69361904Y-91445847D02*
X69285714Y-91483942D01*
X69285714Y-91483942D02*
X68980952Y-91483942D01*
X78428570Y-73564895D02*
X78428570Y-72764895D01*
X78428570Y-72764895D02*
X78733332Y-72764895D01*
X78733332Y-72764895D02*
X78809522Y-72802990D01*
X78809522Y-72802990D02*
X78847617Y-72841085D01*
X78847617Y-72841085D02*
X78885713Y-72917276D01*
X78885713Y-72917276D02*
X78885713Y-73031561D01*
X78885713Y-73031561D02*
X78847617Y-73107752D01*
X78847617Y-73107752D02*
X78809522Y-73145847D01*
X78809522Y-73145847D02*
X78733332Y-73183942D01*
X78733332Y-73183942D02*
X78428570Y-73183942D01*
X79228570Y-73564895D02*
X79228570Y-72764895D01*
X79228570Y-72764895D02*
X79533332Y-72764895D01*
X79533332Y-72764895D02*
X79609522Y-72802990D01*
X79609522Y-72802990D02*
X79647617Y-72841085D01*
X79647617Y-72841085D02*
X79685713Y-72917276D01*
X79685713Y-72917276D02*
X79685713Y-73031561D01*
X79685713Y-73031561D02*
X79647617Y-73107752D01*
X79647617Y-73107752D02*
X79609522Y-73145847D01*
X79609522Y-73145847D02*
X79533332Y-73183942D01*
X79533332Y-73183942D02*
X79228570Y-73183942D01*
X80447617Y-72802990D02*
X80371427Y-72764895D01*
X80371427Y-72764895D02*
X80257141Y-72764895D01*
X80257141Y-72764895D02*
X80142855Y-72802990D01*
X80142855Y-72802990D02*
X80066665Y-72879180D01*
X80066665Y-72879180D02*
X80028570Y-72955371D01*
X80028570Y-72955371D02*
X79990474Y-73107752D01*
X79990474Y-73107752D02*
X79990474Y-73222038D01*
X79990474Y-73222038D02*
X80028570Y-73374419D01*
X80028570Y-73374419D02*
X80066665Y-73450609D01*
X80066665Y-73450609D02*
X80142855Y-73526800D01*
X80142855Y-73526800D02*
X80257141Y-73564895D01*
X80257141Y-73564895D02*
X80333332Y-73564895D01*
X80333332Y-73564895D02*
X80447617Y-73526800D01*
X80447617Y-73526800D02*
X80485713Y-73488704D01*
X80485713Y-73488704D02*
X80485713Y-73222038D01*
X80485713Y-73222038D02*
X80333332Y-73222038D01*
X81704760Y-73145847D02*
X81819046Y-73183942D01*
X81819046Y-73183942D02*
X81857141Y-73222038D01*
X81857141Y-73222038D02*
X81895237Y-73298228D01*
X81895237Y-73298228D02*
X81895237Y-73412514D01*
X81895237Y-73412514D02*
X81857141Y-73488704D01*
X81857141Y-73488704D02*
X81819046Y-73526800D01*
X81819046Y-73526800D02*
X81742856Y-73564895D01*
X81742856Y-73564895D02*
X81438094Y-73564895D01*
X81438094Y-73564895D02*
X81438094Y-72764895D01*
X81438094Y-72764895D02*
X81704760Y-72764895D01*
X81704760Y-72764895D02*
X81780951Y-72802990D01*
X81780951Y-72802990D02*
X81819046Y-72841085D01*
X81819046Y-72841085D02*
X81857141Y-72917276D01*
X81857141Y-72917276D02*
X81857141Y-72993466D01*
X81857141Y-72993466D02*
X81819046Y-73069657D01*
X81819046Y-73069657D02*
X81780951Y-73107752D01*
X81780951Y-73107752D02*
X81704760Y-73145847D01*
X81704760Y-73145847D02*
X81438094Y-73145847D01*
X82238094Y-73564895D02*
X82238094Y-72764895D01*
X82238094Y-72764895D02*
X82542856Y-72764895D01*
X82542856Y-72764895D02*
X82619046Y-72802990D01*
X82619046Y-72802990D02*
X82657141Y-72841085D01*
X82657141Y-72841085D02*
X82695237Y-72917276D01*
X82695237Y-72917276D02*
X82695237Y-73031561D01*
X82695237Y-73031561D02*
X82657141Y-73107752D01*
X82657141Y-73107752D02*
X82619046Y-73145847D01*
X82619046Y-73145847D02*
X82542856Y-73183942D01*
X82542856Y-73183942D02*
X82238094Y-73183942D01*
X82961903Y-72764895D02*
X83152379Y-73564895D01*
X83152379Y-73564895D02*
X83304760Y-72993466D01*
X83304760Y-72993466D02*
X83457141Y-73564895D01*
X83457141Y-73564895D02*
X83647618Y-72764895D01*
X83876189Y-72764895D02*
X84371427Y-72764895D01*
X84371427Y-72764895D02*
X84104761Y-73069657D01*
X84104761Y-73069657D02*
X84219046Y-73069657D01*
X84219046Y-73069657D02*
X84295237Y-73107752D01*
X84295237Y-73107752D02*
X84333332Y-73145847D01*
X84333332Y-73145847D02*
X84371427Y-73222038D01*
X84371427Y-73222038D02*
X84371427Y-73412514D01*
X84371427Y-73412514D02*
X84333332Y-73488704D01*
X84333332Y-73488704D02*
X84295237Y-73526800D01*
X84295237Y-73526800D02*
X84219046Y-73564895D01*
X84219046Y-73564895D02*
X83990475Y-73564895D01*
X83990475Y-73564895D02*
X83914284Y-73526800D01*
X83914284Y-73526800D02*
X83876189Y-73488704D01*
X85057142Y-73031561D02*
X85057142Y-73564895D01*
X84866666Y-72726800D02*
X84676189Y-73298228D01*
X84676189Y-73298228D02*
X85171428Y-73298228D01*
X86542857Y-73564895D02*
X86276190Y-73183942D01*
X86085714Y-73564895D02*
X86085714Y-72764895D01*
X86085714Y-72764895D02*
X86390476Y-72764895D01*
X86390476Y-72764895D02*
X86466666Y-72802990D01*
X86466666Y-72802990D02*
X86504761Y-72841085D01*
X86504761Y-72841085D02*
X86542857Y-72917276D01*
X86542857Y-72917276D02*
X86542857Y-73031561D01*
X86542857Y-73031561D02*
X86504761Y-73107752D01*
X86504761Y-73107752D02*
X86466666Y-73145847D01*
X86466666Y-73145847D02*
X86390476Y-73183942D01*
X86390476Y-73183942D02*
X86085714Y-73183942D01*
X86809523Y-72764895D02*
X87342857Y-73564895D01*
X87342857Y-72764895D02*
X86809523Y-73564895D01*
X88180952Y-72764895D02*
X88714286Y-72764895D01*
X88714286Y-72764895D02*
X88371428Y-73564895D01*
X89171429Y-72764895D02*
X89247619Y-72764895D01*
X89247619Y-72764895D02*
X89323810Y-72802990D01*
X89323810Y-72802990D02*
X89361905Y-72841085D01*
X89361905Y-72841085D02*
X89400000Y-72917276D01*
X89400000Y-72917276D02*
X89438095Y-73069657D01*
X89438095Y-73069657D02*
X89438095Y-73260133D01*
X89438095Y-73260133D02*
X89400000Y-73412514D01*
X89400000Y-73412514D02*
X89361905Y-73488704D01*
X89361905Y-73488704D02*
X89323810Y-73526800D01*
X89323810Y-73526800D02*
X89247619Y-73564895D01*
X89247619Y-73564895D02*
X89171429Y-73564895D01*
X89171429Y-73564895D02*
X89095238Y-73526800D01*
X89095238Y-73526800D02*
X89057143Y-73488704D01*
X89057143Y-73488704D02*
X89019048Y-73412514D01*
X89019048Y-73412514D02*
X88980952Y-73260133D01*
X88980952Y-73260133D02*
X88980952Y-73069657D01*
X88980952Y-73069657D02*
X89019048Y-72917276D01*
X89019048Y-72917276D02*
X89057143Y-72841085D01*
X89057143Y-72841085D02*
X89095238Y-72802990D01*
X89095238Y-72802990D02*
X89171429Y-72764895D01*
X89704762Y-73564895D02*
X90123810Y-73031561D01*
X89704762Y-73031561D02*
X90123810Y-73564895D01*
X90390476Y-72841085D02*
X90428572Y-72802990D01*
X90428572Y-72802990D02*
X90504762Y-72764895D01*
X90504762Y-72764895D02*
X90695238Y-72764895D01*
X90695238Y-72764895D02*
X90771429Y-72802990D01*
X90771429Y-72802990D02*
X90809524Y-72841085D01*
X90809524Y-72841085D02*
X90847619Y-72917276D01*
X90847619Y-72917276D02*
X90847619Y-72993466D01*
X90847619Y-72993466D02*
X90809524Y-73107752D01*
X90809524Y-73107752D02*
X90352381Y-73564895D01*
X90352381Y-73564895D02*
X90847619Y-73564895D01*
X91342858Y-72764895D02*
X91419048Y-72764895D01*
X91419048Y-72764895D02*
X91495239Y-72802990D01*
X91495239Y-72802990D02*
X91533334Y-72841085D01*
X91533334Y-72841085D02*
X91571429Y-72917276D01*
X91571429Y-72917276D02*
X91609524Y-73069657D01*
X91609524Y-73069657D02*
X91609524Y-73260133D01*
X91609524Y-73260133D02*
X91571429Y-73412514D01*
X91571429Y-73412514D02*
X91533334Y-73488704D01*
X91533334Y-73488704D02*
X91495239Y-73526800D01*
X91495239Y-73526800D02*
X91419048Y-73564895D01*
X91419048Y-73564895D02*
X91342858Y-73564895D01*
X91342858Y-73564895D02*
X91266667Y-73526800D01*
X91266667Y-73526800D02*
X91228572Y-73488704D01*
X91228572Y-73488704D02*
X91190477Y-73412514D01*
X91190477Y-73412514D02*
X91152381Y-73260133D01*
X91152381Y-73260133D02*
X91152381Y-73069657D01*
X91152381Y-73069657D02*
X91190477Y-72917276D01*
X91190477Y-72917276D02*
X91228572Y-72841085D01*
X91228572Y-72841085D02*
X91266667Y-72802990D01*
X91266667Y-72802990D02*
X91342858Y-72764895D01*
X82200000Y-74564895D02*
X82695238Y-74564895D01*
X82695238Y-74564895D02*
X82428572Y-74869657D01*
X82428572Y-74869657D02*
X82542857Y-74869657D01*
X82542857Y-74869657D02*
X82619048Y-74907752D01*
X82619048Y-74907752D02*
X82657143Y-74945847D01*
X82657143Y-74945847D02*
X82695238Y-75022038D01*
X82695238Y-75022038D02*
X82695238Y-75212514D01*
X82695238Y-75212514D02*
X82657143Y-75288704D01*
X82657143Y-75288704D02*
X82619048Y-75326800D01*
X82619048Y-75326800D02*
X82542857Y-75364895D01*
X82542857Y-75364895D02*
X82314286Y-75364895D01*
X82314286Y-75364895D02*
X82238095Y-75326800D01*
X82238095Y-75326800D02*
X82200000Y-75288704D01*
X82923810Y-74564895D02*
X83190477Y-75364895D01*
X83190477Y-75364895D02*
X83457143Y-74564895D01*
X83647619Y-74564895D02*
X84142857Y-74564895D01*
X84142857Y-74564895D02*
X83876191Y-74869657D01*
X83876191Y-74869657D02*
X83990476Y-74869657D01*
X83990476Y-74869657D02*
X84066667Y-74907752D01*
X84066667Y-74907752D02*
X84104762Y-74945847D01*
X84104762Y-74945847D02*
X84142857Y-75022038D01*
X84142857Y-75022038D02*
X84142857Y-75212514D01*
X84142857Y-75212514D02*
X84104762Y-75288704D01*
X84104762Y-75288704D02*
X84066667Y-75326800D01*
X84066667Y-75326800D02*
X83990476Y-75364895D01*
X83990476Y-75364895D02*
X83761905Y-75364895D01*
X83761905Y-75364895D02*
X83685714Y-75326800D01*
X83685714Y-75326800D02*
X83647619Y-75288704D01*
X85247620Y-74564895D02*
X85400001Y-74564895D01*
X85400001Y-74564895D02*
X85476191Y-74602990D01*
X85476191Y-74602990D02*
X85552382Y-74679180D01*
X85552382Y-74679180D02*
X85590477Y-74831561D01*
X85590477Y-74831561D02*
X85590477Y-75098228D01*
X85590477Y-75098228D02*
X85552382Y-75250609D01*
X85552382Y-75250609D02*
X85476191Y-75326800D01*
X85476191Y-75326800D02*
X85400001Y-75364895D01*
X85400001Y-75364895D02*
X85247620Y-75364895D01*
X85247620Y-75364895D02*
X85171429Y-75326800D01*
X85171429Y-75326800D02*
X85095239Y-75250609D01*
X85095239Y-75250609D02*
X85057143Y-75098228D01*
X85057143Y-75098228D02*
X85057143Y-74831561D01*
X85057143Y-74831561D02*
X85095239Y-74679180D01*
X85095239Y-74679180D02*
X85171429Y-74602990D01*
X85171429Y-74602990D02*
X85247620Y-74564895D01*
X85933334Y-75364895D02*
X85933334Y-74564895D01*
X85933334Y-74564895D02*
X86390477Y-75364895D01*
X86390477Y-75364895D02*
X86390477Y-74564895D01*
X87152381Y-75364895D02*
X86771429Y-75364895D01*
X86771429Y-75364895D02*
X86771429Y-74564895D01*
X87571429Y-74983942D02*
X87571429Y-75364895D01*
X87304762Y-74564895D02*
X87571429Y-74983942D01*
X87571429Y-74983942D02*
X87838095Y-74564895D01*
X80028570Y-80445847D02*
X80142856Y-80483942D01*
X80142856Y-80483942D02*
X80180951Y-80522038D01*
X80180951Y-80522038D02*
X80219047Y-80598228D01*
X80219047Y-80598228D02*
X80219047Y-80712514D01*
X80219047Y-80712514D02*
X80180951Y-80788704D01*
X80180951Y-80788704D02*
X80142856Y-80826800D01*
X80142856Y-80826800D02*
X80066666Y-80864895D01*
X80066666Y-80864895D02*
X79761904Y-80864895D01*
X79761904Y-80864895D02*
X79761904Y-80064895D01*
X79761904Y-80064895D02*
X80028570Y-80064895D01*
X80028570Y-80064895D02*
X80104761Y-80102990D01*
X80104761Y-80102990D02*
X80142856Y-80141085D01*
X80142856Y-80141085D02*
X80180951Y-80217276D01*
X80180951Y-80217276D02*
X80180951Y-80293466D01*
X80180951Y-80293466D02*
X80142856Y-80369657D01*
X80142856Y-80369657D02*
X80104761Y-80407752D01*
X80104761Y-80407752D02*
X80028570Y-80445847D01*
X80028570Y-80445847D02*
X79761904Y-80445847D01*
X80561904Y-80864895D02*
X80561904Y-80064895D01*
X80561904Y-80064895D02*
X80866666Y-80064895D01*
X80866666Y-80064895D02*
X80942856Y-80102990D01*
X80942856Y-80102990D02*
X80980951Y-80141085D01*
X80980951Y-80141085D02*
X81019047Y-80217276D01*
X81019047Y-80217276D02*
X81019047Y-80331561D01*
X81019047Y-80331561D02*
X80980951Y-80407752D01*
X80980951Y-80407752D02*
X80942856Y-80445847D01*
X80942856Y-80445847D02*
X80866666Y-80483942D01*
X80866666Y-80483942D02*
X80561904Y-80483942D01*
X81285713Y-80064895D02*
X81476189Y-80864895D01*
X81476189Y-80864895D02*
X81628570Y-80293466D01*
X81628570Y-80293466D02*
X81780951Y-80864895D01*
X81780951Y-80864895D02*
X81971428Y-80064895D01*
X82199999Y-80064895D02*
X82695237Y-80064895D01*
X82695237Y-80064895D02*
X82428571Y-80369657D01*
X82428571Y-80369657D02*
X82542856Y-80369657D01*
X82542856Y-80369657D02*
X82619047Y-80407752D01*
X82619047Y-80407752D02*
X82657142Y-80445847D01*
X82657142Y-80445847D02*
X82695237Y-80522038D01*
X82695237Y-80522038D02*
X82695237Y-80712514D01*
X82695237Y-80712514D02*
X82657142Y-80788704D01*
X82657142Y-80788704D02*
X82619047Y-80826800D01*
X82619047Y-80826800D02*
X82542856Y-80864895D01*
X82542856Y-80864895D02*
X82314285Y-80864895D01*
X82314285Y-80864895D02*
X82238094Y-80826800D01*
X82238094Y-80826800D02*
X82199999Y-80788704D01*
X83380952Y-80331561D02*
X83380952Y-80864895D01*
X83190476Y-80026800D02*
X82999999Y-80598228D01*
X82999999Y-80598228D02*
X83495238Y-80598228D01*
X84409524Y-80864895D02*
X84409524Y-80064895D01*
X84409524Y-80064895D02*
X84676190Y-80636323D01*
X84676190Y-80636323D02*
X84942857Y-80064895D01*
X84942857Y-80064895D02*
X84942857Y-80864895D01*
X85285714Y-80636323D02*
X85666667Y-80636323D01*
X85209524Y-80864895D02*
X85476191Y-80064895D01*
X85476191Y-80064895D02*
X85742857Y-80864895D01*
X86466667Y-80864895D02*
X86200000Y-80483942D01*
X86009524Y-80864895D02*
X86009524Y-80064895D01*
X86009524Y-80064895D02*
X86314286Y-80064895D01*
X86314286Y-80064895D02*
X86390476Y-80102990D01*
X86390476Y-80102990D02*
X86428571Y-80141085D01*
X86428571Y-80141085D02*
X86466667Y-80217276D01*
X86466667Y-80217276D02*
X86466667Y-80331561D01*
X86466667Y-80331561D02*
X86428571Y-80407752D01*
X86428571Y-80407752D02*
X86390476Y-80445847D01*
X86390476Y-80445847D02*
X86314286Y-80483942D01*
X86314286Y-80483942D02*
X86009524Y-80483942D01*
X86809524Y-80864895D02*
X86809524Y-80064895D01*
X87266667Y-80864895D02*
X86923809Y-80407752D01*
X87266667Y-80064895D02*
X86809524Y-80522038D01*
X88219048Y-80445847D02*
X88828572Y-80445847D01*
X88828572Y-80674419D02*
X88219048Y-80674419D01*
X89819048Y-80864895D02*
X89819048Y-80064895D01*
X90276191Y-80864895D02*
X89933333Y-80407752D01*
X90276191Y-80064895D02*
X89819048Y-80522038D01*
X78447618Y-91864895D02*
X78447618Y-91064895D01*
X78447618Y-91064895D02*
X78752380Y-91064895D01*
X78752380Y-91064895D02*
X78828570Y-91102990D01*
X78828570Y-91102990D02*
X78866665Y-91141085D01*
X78866665Y-91141085D02*
X78904761Y-91217276D01*
X78904761Y-91217276D02*
X78904761Y-91331561D01*
X78904761Y-91331561D02*
X78866665Y-91407752D01*
X78866665Y-91407752D02*
X78828570Y-91445847D01*
X78828570Y-91445847D02*
X78752380Y-91483942D01*
X78752380Y-91483942D02*
X78447618Y-91483942D01*
X79247618Y-91864895D02*
X79247618Y-91064895D01*
X79247618Y-91064895D02*
X79552380Y-91064895D01*
X79552380Y-91064895D02*
X79628570Y-91102990D01*
X79628570Y-91102990D02*
X79666665Y-91141085D01*
X79666665Y-91141085D02*
X79704761Y-91217276D01*
X79704761Y-91217276D02*
X79704761Y-91331561D01*
X79704761Y-91331561D02*
X79666665Y-91407752D01*
X79666665Y-91407752D02*
X79628570Y-91445847D01*
X79628570Y-91445847D02*
X79552380Y-91483942D01*
X79552380Y-91483942D02*
X79247618Y-91483942D01*
X80466665Y-91102990D02*
X80390475Y-91064895D01*
X80390475Y-91064895D02*
X80276189Y-91064895D01*
X80276189Y-91064895D02*
X80161903Y-91102990D01*
X80161903Y-91102990D02*
X80085713Y-91179180D01*
X80085713Y-91179180D02*
X80047618Y-91255371D01*
X80047618Y-91255371D02*
X80009522Y-91407752D01*
X80009522Y-91407752D02*
X80009522Y-91522038D01*
X80009522Y-91522038D02*
X80047618Y-91674419D01*
X80047618Y-91674419D02*
X80085713Y-91750609D01*
X80085713Y-91750609D02*
X80161903Y-91826800D01*
X80161903Y-91826800D02*
X80276189Y-91864895D01*
X80276189Y-91864895D02*
X80352380Y-91864895D01*
X80352380Y-91864895D02*
X80466665Y-91826800D01*
X80466665Y-91826800D02*
X80504761Y-91788704D01*
X80504761Y-91788704D02*
X80504761Y-91522038D01*
X80504761Y-91522038D02*
X80352380Y-91522038D01*
X81838094Y-91864895D02*
X81457142Y-91864895D01*
X81457142Y-91864895D02*
X81457142Y-91064895D01*
X82104761Y-91445847D02*
X82371427Y-91445847D01*
X82485713Y-91864895D02*
X82104761Y-91864895D01*
X82104761Y-91864895D02*
X82104761Y-91064895D01*
X82104761Y-91064895D02*
X82485713Y-91064895D01*
X82828571Y-91864895D02*
X82828571Y-91064895D01*
X82828571Y-91064895D02*
X83019047Y-91064895D01*
X83019047Y-91064895D02*
X83133333Y-91102990D01*
X83133333Y-91102990D02*
X83209523Y-91179180D01*
X83209523Y-91179180D02*
X83247618Y-91255371D01*
X83247618Y-91255371D02*
X83285714Y-91407752D01*
X83285714Y-91407752D02*
X83285714Y-91522038D01*
X83285714Y-91522038D02*
X83247618Y-91674419D01*
X83247618Y-91674419D02*
X83209523Y-91750609D01*
X83209523Y-91750609D02*
X83133333Y-91826800D01*
X83133333Y-91826800D02*
X83019047Y-91864895D01*
X83019047Y-91864895D02*
X82828571Y-91864895D01*
X84199999Y-91026800D02*
X83514285Y-92055371D01*
X84466666Y-91864895D02*
X84466666Y-91064895D01*
X85304761Y-91864895D02*
X85038094Y-91483942D01*
X84847618Y-91864895D02*
X84847618Y-91064895D01*
X84847618Y-91064895D02*
X85152380Y-91064895D01*
X85152380Y-91064895D02*
X85228570Y-91102990D01*
X85228570Y-91102990D02*
X85266665Y-91141085D01*
X85266665Y-91141085D02*
X85304761Y-91217276D01*
X85304761Y-91217276D02*
X85304761Y-91331561D01*
X85304761Y-91331561D02*
X85266665Y-91407752D01*
X85266665Y-91407752D02*
X85228570Y-91445847D01*
X85228570Y-91445847D02*
X85152380Y-91483942D01*
X85152380Y-91483942D02*
X84847618Y-91483942D01*
X86142856Y-91064895D02*
X86599999Y-91064895D01*
X86371427Y-91864895D02*
X86371427Y-91064895D01*
X86790475Y-91064895D02*
X87323809Y-91864895D01*
X87323809Y-91064895D02*
X86790475Y-91864895D01*
X88161904Y-91064895D02*
X88695238Y-91064895D01*
X88695238Y-91064895D02*
X88352380Y-91864895D01*
X89152381Y-91064895D02*
X89228571Y-91064895D01*
X89228571Y-91064895D02*
X89304762Y-91102990D01*
X89304762Y-91102990D02*
X89342857Y-91141085D01*
X89342857Y-91141085D02*
X89380952Y-91217276D01*
X89380952Y-91217276D02*
X89419047Y-91369657D01*
X89419047Y-91369657D02*
X89419047Y-91560133D01*
X89419047Y-91560133D02*
X89380952Y-91712514D01*
X89380952Y-91712514D02*
X89342857Y-91788704D01*
X89342857Y-91788704D02*
X89304762Y-91826800D01*
X89304762Y-91826800D02*
X89228571Y-91864895D01*
X89228571Y-91864895D02*
X89152381Y-91864895D01*
X89152381Y-91864895D02*
X89076190Y-91826800D01*
X89076190Y-91826800D02*
X89038095Y-91788704D01*
X89038095Y-91788704D02*
X89000000Y-91712514D01*
X89000000Y-91712514D02*
X88961904Y-91560133D01*
X88961904Y-91560133D02*
X88961904Y-91369657D01*
X88961904Y-91369657D02*
X89000000Y-91217276D01*
X89000000Y-91217276D02*
X89038095Y-91141085D01*
X89038095Y-91141085D02*
X89076190Y-91102990D01*
X89076190Y-91102990D02*
X89152381Y-91064895D01*
X89685714Y-91864895D02*
X90104762Y-91331561D01*
X89685714Y-91331561D02*
X90104762Y-91864895D01*
X90752381Y-91331561D02*
X90752381Y-91864895D01*
X90561905Y-91026800D02*
X90371428Y-91598228D01*
X90371428Y-91598228D02*
X90866667Y-91598228D01*
X91323810Y-91064895D02*
X91400000Y-91064895D01*
X91400000Y-91064895D02*
X91476191Y-91102990D01*
X91476191Y-91102990D02*
X91514286Y-91141085D01*
X91514286Y-91141085D02*
X91552381Y-91217276D01*
X91552381Y-91217276D02*
X91590476Y-91369657D01*
X91590476Y-91369657D02*
X91590476Y-91560133D01*
X91590476Y-91560133D02*
X91552381Y-91712514D01*
X91552381Y-91712514D02*
X91514286Y-91788704D01*
X91514286Y-91788704D02*
X91476191Y-91826800D01*
X91476191Y-91826800D02*
X91400000Y-91864895D01*
X91400000Y-91864895D02*
X91323810Y-91864895D01*
X91323810Y-91864895D02*
X91247619Y-91826800D01*
X91247619Y-91826800D02*
X91209524Y-91788704D01*
X91209524Y-91788704D02*
X91171429Y-91712514D01*
X91171429Y-91712514D02*
X91133333Y-91560133D01*
X91133333Y-91560133D02*
X91133333Y-91369657D01*
X91133333Y-91369657D02*
X91171429Y-91217276D01*
X91171429Y-91217276D02*
X91209524Y-91141085D01*
X91209524Y-91141085D02*
X91247619Y-91102990D01*
X91247619Y-91102990D02*
X91323810Y-91064895D01*
X100485714Y-91864895D02*
X100219047Y-91483942D01*
X100028571Y-91864895D02*
X100028571Y-91064895D01*
X100028571Y-91064895D02*
X100333333Y-91064895D01*
X100333333Y-91064895D02*
X100409523Y-91102990D01*
X100409523Y-91102990D02*
X100447618Y-91141085D01*
X100447618Y-91141085D02*
X100485714Y-91217276D01*
X100485714Y-91217276D02*
X100485714Y-91331561D01*
X100485714Y-91331561D02*
X100447618Y-91407752D01*
X100447618Y-91407752D02*
X100409523Y-91445847D01*
X100409523Y-91445847D02*
X100333333Y-91483942D01*
X100333333Y-91483942D02*
X100028571Y-91483942D01*
X100828571Y-91445847D02*
X101095237Y-91445847D01*
X101209523Y-91864895D02*
X100828571Y-91864895D01*
X100828571Y-91864895D02*
X100828571Y-91064895D01*
X100828571Y-91064895D02*
X101209523Y-91064895D01*
X101552381Y-91864895D02*
X101552381Y-91064895D01*
X101552381Y-91064895D02*
X101742857Y-91064895D01*
X101742857Y-91064895D02*
X101857143Y-91102990D01*
X101857143Y-91102990D02*
X101933333Y-91179180D01*
X101933333Y-91179180D02*
X101971428Y-91255371D01*
X101971428Y-91255371D02*
X102009524Y-91407752D01*
X102009524Y-91407752D02*
X102009524Y-91522038D01*
X102009524Y-91522038D02*
X101971428Y-91674419D01*
X101971428Y-91674419D02*
X101933333Y-91750609D01*
X101933333Y-91750609D02*
X101857143Y-91826800D01*
X101857143Y-91826800D02*
X101742857Y-91864895D01*
X101742857Y-91864895D02*
X101552381Y-91864895D01*
X102097619Y-72564895D02*
X102097619Y-71764895D01*
X102935714Y-72564895D02*
X102669047Y-72183942D01*
X102478571Y-72564895D02*
X102478571Y-71764895D01*
X102478571Y-71764895D02*
X102783333Y-71764895D01*
X102783333Y-71764895D02*
X102859523Y-71802990D01*
X102859523Y-71802990D02*
X102897618Y-71841085D01*
X102897618Y-71841085D02*
X102935714Y-71917276D01*
X102935714Y-71917276D02*
X102935714Y-72031561D01*
X102935714Y-72031561D02*
X102897618Y-72107752D01*
X102897618Y-72107752D02*
X102859523Y-72145847D01*
X102859523Y-72145847D02*
X102783333Y-72183942D01*
X102783333Y-72183942D02*
X102478571Y-72183942D01*
X104459523Y-71726800D02*
X103773809Y-72755371D01*
X105297618Y-72336323D02*
X105678571Y-72336323D01*
X105221428Y-72564895D02*
X105488095Y-71764895D01*
X105488095Y-71764895D02*
X105754761Y-72564895D01*
X106173809Y-71764895D02*
X106249999Y-71764895D01*
X106249999Y-71764895D02*
X106326190Y-71802990D01*
X106326190Y-71802990D02*
X106364285Y-71841085D01*
X106364285Y-71841085D02*
X106402380Y-71917276D01*
X106402380Y-71917276D02*
X106440475Y-72069657D01*
X106440475Y-72069657D02*
X106440475Y-72260133D01*
X106440475Y-72260133D02*
X106402380Y-72412514D01*
X106402380Y-72412514D02*
X106364285Y-72488704D01*
X106364285Y-72488704D02*
X106326190Y-72526800D01*
X106326190Y-72526800D02*
X106249999Y-72564895D01*
X106249999Y-72564895D02*
X106173809Y-72564895D01*
X106173809Y-72564895D02*
X106097618Y-72526800D01*
X106097618Y-72526800D02*
X106059523Y-72488704D01*
X106059523Y-72488704D02*
X106021428Y-72412514D01*
X106021428Y-72412514D02*
X105983332Y-72260133D01*
X105983332Y-72260133D02*
X105983332Y-72069657D01*
X105983332Y-72069657D02*
X106021428Y-71917276D01*
X106021428Y-71917276D02*
X106059523Y-71841085D01*
X106059523Y-71841085D02*
X106097618Y-71802990D01*
X106097618Y-71802990D02*
X106173809Y-71764895D01*
D11*
X78180951Y-58364375D02*
X78180951Y-57564375D01*
X78180951Y-57564375D02*
X78485713Y-57564375D01*
X78485713Y-57564375D02*
X78561903Y-57602470D01*
X78561903Y-57602470D02*
X78599998Y-57640565D01*
X78599998Y-57640565D02*
X78638094Y-57716756D01*
X78638094Y-57716756D02*
X78638094Y-57831041D01*
X78638094Y-57831041D02*
X78599998Y-57907232D01*
X78599998Y-57907232D02*
X78561903Y-57945327D01*
X78561903Y-57945327D02*
X78485713Y-57983422D01*
X78485713Y-57983422D02*
X78180951Y-57983422D01*
X78980951Y-58364375D02*
X78980951Y-57564375D01*
X78980951Y-57564375D02*
X79285713Y-57564375D01*
X79285713Y-57564375D02*
X79361903Y-57602470D01*
X79361903Y-57602470D02*
X79399998Y-57640565D01*
X79399998Y-57640565D02*
X79438094Y-57716756D01*
X79438094Y-57716756D02*
X79438094Y-57831041D01*
X79438094Y-57831041D02*
X79399998Y-57907232D01*
X79399998Y-57907232D02*
X79361903Y-57945327D01*
X79361903Y-57945327D02*
X79285713Y-57983422D01*
X79285713Y-57983422D02*
X78980951Y-57983422D01*
X80199998Y-57602470D02*
X80123808Y-57564375D01*
X80123808Y-57564375D02*
X80009522Y-57564375D01*
X80009522Y-57564375D02*
X79895236Y-57602470D01*
X79895236Y-57602470D02*
X79819046Y-57678660D01*
X79819046Y-57678660D02*
X79780951Y-57754851D01*
X79780951Y-57754851D02*
X79742855Y-57907232D01*
X79742855Y-57907232D02*
X79742855Y-58021518D01*
X79742855Y-58021518D02*
X79780951Y-58173899D01*
X79780951Y-58173899D02*
X79819046Y-58250089D01*
X79819046Y-58250089D02*
X79895236Y-58326280D01*
X79895236Y-58326280D02*
X80009522Y-58364375D01*
X80009522Y-58364375D02*
X80085713Y-58364375D01*
X80085713Y-58364375D02*
X80199998Y-58326280D01*
X80199998Y-58326280D02*
X80238094Y-58288184D01*
X80238094Y-58288184D02*
X80238094Y-58021518D01*
X80238094Y-58021518D02*
X80085713Y-58021518D01*
X81342856Y-57564375D02*
X81495237Y-57564375D01*
X81495237Y-57564375D02*
X81571427Y-57602470D01*
X81571427Y-57602470D02*
X81647618Y-57678660D01*
X81647618Y-57678660D02*
X81685713Y-57831041D01*
X81685713Y-57831041D02*
X81685713Y-58097708D01*
X81685713Y-58097708D02*
X81647618Y-58250089D01*
X81647618Y-58250089D02*
X81571427Y-58326280D01*
X81571427Y-58326280D02*
X81495237Y-58364375D01*
X81495237Y-58364375D02*
X81342856Y-58364375D01*
X81342856Y-58364375D02*
X81266665Y-58326280D01*
X81266665Y-58326280D02*
X81190475Y-58250089D01*
X81190475Y-58250089D02*
X81152379Y-58097708D01*
X81152379Y-58097708D02*
X81152379Y-57831041D01*
X81152379Y-57831041D02*
X81190475Y-57678660D01*
X81190475Y-57678660D02*
X81266665Y-57602470D01*
X81266665Y-57602470D02*
X81342856Y-57564375D01*
X82028570Y-58364375D02*
X82028570Y-57564375D01*
X82028570Y-57564375D02*
X82333332Y-57564375D01*
X82333332Y-57564375D02*
X82409522Y-57602470D01*
X82409522Y-57602470D02*
X82447617Y-57640565D01*
X82447617Y-57640565D02*
X82485713Y-57716756D01*
X82485713Y-57716756D02*
X82485713Y-57831041D01*
X82485713Y-57831041D02*
X82447617Y-57907232D01*
X82447617Y-57907232D02*
X82409522Y-57945327D01*
X82409522Y-57945327D02*
X82333332Y-57983422D01*
X82333332Y-57983422D02*
X82028570Y-57983422D01*
X82714284Y-57564375D02*
X83171427Y-57564375D01*
X82942855Y-58364375D02*
X82942855Y-57564375D01*
X83857141Y-58364375D02*
X83399998Y-58364375D01*
X83628570Y-58364375D02*
X83628570Y-57564375D01*
X83628570Y-57564375D02*
X83552379Y-57678660D01*
X83552379Y-57678660D02*
X83476189Y-57754851D01*
X83476189Y-57754851D02*
X83399998Y-57792946D01*
X84352380Y-57564375D02*
X84428570Y-57564375D01*
X84428570Y-57564375D02*
X84504761Y-57602470D01*
X84504761Y-57602470D02*
X84542856Y-57640565D01*
X84542856Y-57640565D02*
X84580951Y-57716756D01*
X84580951Y-57716756D02*
X84619046Y-57869137D01*
X84619046Y-57869137D02*
X84619046Y-58059613D01*
X84619046Y-58059613D02*
X84580951Y-58211994D01*
X84580951Y-58211994D02*
X84542856Y-58288184D01*
X84542856Y-58288184D02*
X84504761Y-58326280D01*
X84504761Y-58326280D02*
X84428570Y-58364375D01*
X84428570Y-58364375D02*
X84352380Y-58364375D01*
X84352380Y-58364375D02*
X84276189Y-58326280D01*
X84276189Y-58326280D02*
X84238094Y-58288184D01*
X84238094Y-58288184D02*
X84199999Y-58211994D01*
X84199999Y-58211994D02*
X84161903Y-58059613D01*
X84161903Y-58059613D02*
X84161903Y-57869137D01*
X84161903Y-57869137D02*
X84199999Y-57716756D01*
X84199999Y-57716756D02*
X84238094Y-57640565D01*
X84238094Y-57640565D02*
X84276189Y-57602470D01*
X84276189Y-57602470D02*
X84352380Y-57564375D01*
X85380951Y-58364375D02*
X84923808Y-58364375D01*
X85152380Y-58364375D02*
X85152380Y-57564375D01*
X85152380Y-57564375D02*
X85076189Y-57678660D01*
X85076189Y-57678660D02*
X84999999Y-57754851D01*
X84999999Y-57754851D02*
X84923808Y-57792946D01*
X86790476Y-58364375D02*
X86523809Y-57983422D01*
X86333333Y-58364375D02*
X86333333Y-57564375D01*
X86333333Y-57564375D02*
X86638095Y-57564375D01*
X86638095Y-57564375D02*
X86714285Y-57602470D01*
X86714285Y-57602470D02*
X86752380Y-57640565D01*
X86752380Y-57640565D02*
X86790476Y-57716756D01*
X86790476Y-57716756D02*
X86790476Y-57831041D01*
X86790476Y-57831041D02*
X86752380Y-57907232D01*
X86752380Y-57907232D02*
X86714285Y-57945327D01*
X86714285Y-57945327D02*
X86638095Y-57983422D01*
X86638095Y-57983422D02*
X86333333Y-57983422D01*
X87057142Y-57564375D02*
X87590476Y-58364375D01*
X87590476Y-57564375D02*
X87057142Y-58364375D01*
X88428571Y-57564375D02*
X88961905Y-57564375D01*
X88961905Y-57564375D02*
X88619047Y-58364375D01*
X89419048Y-57564375D02*
X89495238Y-57564375D01*
X89495238Y-57564375D02*
X89571429Y-57602470D01*
X89571429Y-57602470D02*
X89609524Y-57640565D01*
X89609524Y-57640565D02*
X89647619Y-57716756D01*
X89647619Y-57716756D02*
X89685714Y-57869137D01*
X89685714Y-57869137D02*
X89685714Y-58059613D01*
X89685714Y-58059613D02*
X89647619Y-58211994D01*
X89647619Y-58211994D02*
X89609524Y-58288184D01*
X89609524Y-58288184D02*
X89571429Y-58326280D01*
X89571429Y-58326280D02*
X89495238Y-58364375D01*
X89495238Y-58364375D02*
X89419048Y-58364375D01*
X89419048Y-58364375D02*
X89342857Y-58326280D01*
X89342857Y-58326280D02*
X89304762Y-58288184D01*
X89304762Y-58288184D02*
X89266667Y-58211994D01*
X89266667Y-58211994D02*
X89228571Y-58059613D01*
X89228571Y-58059613D02*
X89228571Y-57869137D01*
X89228571Y-57869137D02*
X89266667Y-57716756D01*
X89266667Y-57716756D02*
X89304762Y-57640565D01*
X89304762Y-57640565D02*
X89342857Y-57602470D01*
X89342857Y-57602470D02*
X89419048Y-57564375D01*
X89952381Y-58364375D02*
X90371429Y-57831041D01*
X89952381Y-57831041D02*
X90371429Y-58364375D01*
X90638095Y-57640565D02*
X90676191Y-57602470D01*
X90676191Y-57602470D02*
X90752381Y-57564375D01*
X90752381Y-57564375D02*
X90942857Y-57564375D01*
X90942857Y-57564375D02*
X91019048Y-57602470D01*
X91019048Y-57602470D02*
X91057143Y-57640565D01*
X91057143Y-57640565D02*
X91095238Y-57716756D01*
X91095238Y-57716756D02*
X91095238Y-57792946D01*
X91095238Y-57792946D02*
X91057143Y-57907232D01*
X91057143Y-57907232D02*
X90600000Y-58364375D01*
X90600000Y-58364375D02*
X91095238Y-58364375D01*
X91590477Y-57564375D02*
X91666667Y-57564375D01*
X91666667Y-57564375D02*
X91742858Y-57602470D01*
X91742858Y-57602470D02*
X91780953Y-57640565D01*
X91780953Y-57640565D02*
X91819048Y-57716756D01*
X91819048Y-57716756D02*
X91857143Y-57869137D01*
X91857143Y-57869137D02*
X91857143Y-58059613D01*
X91857143Y-58059613D02*
X91819048Y-58211994D01*
X91819048Y-58211994D02*
X91780953Y-58288184D01*
X91780953Y-58288184D02*
X91742858Y-58326280D01*
X91742858Y-58326280D02*
X91666667Y-58364375D01*
X91666667Y-58364375D02*
X91590477Y-58364375D01*
X91590477Y-58364375D02*
X91514286Y-58326280D01*
X91514286Y-58326280D02*
X91476191Y-58288184D01*
X91476191Y-58288184D02*
X91438096Y-58211994D01*
X91438096Y-58211994D02*
X91400000Y-58059613D01*
X91400000Y-58059613D02*
X91400000Y-57869137D01*
X91400000Y-57869137D02*
X91438096Y-57716756D01*
X91438096Y-57716756D02*
X91476191Y-57640565D01*
X91476191Y-57640565D02*
X91514286Y-57602470D01*
X91514286Y-57602470D02*
X91590477Y-57564375D01*
X82200000Y-59264375D02*
X82695238Y-59264375D01*
X82695238Y-59264375D02*
X82428572Y-59569137D01*
X82428572Y-59569137D02*
X82542857Y-59569137D01*
X82542857Y-59569137D02*
X82619048Y-59607232D01*
X82619048Y-59607232D02*
X82657143Y-59645327D01*
X82657143Y-59645327D02*
X82695238Y-59721518D01*
X82695238Y-59721518D02*
X82695238Y-59911994D01*
X82695238Y-59911994D02*
X82657143Y-59988184D01*
X82657143Y-59988184D02*
X82619048Y-60026280D01*
X82619048Y-60026280D02*
X82542857Y-60064375D01*
X82542857Y-60064375D02*
X82314286Y-60064375D01*
X82314286Y-60064375D02*
X82238095Y-60026280D01*
X82238095Y-60026280D02*
X82200000Y-59988184D01*
X82923810Y-59264375D02*
X83190477Y-60064375D01*
X83190477Y-60064375D02*
X83457143Y-59264375D01*
X83647619Y-59264375D02*
X84142857Y-59264375D01*
X84142857Y-59264375D02*
X83876191Y-59569137D01*
X83876191Y-59569137D02*
X83990476Y-59569137D01*
X83990476Y-59569137D02*
X84066667Y-59607232D01*
X84066667Y-59607232D02*
X84104762Y-59645327D01*
X84104762Y-59645327D02*
X84142857Y-59721518D01*
X84142857Y-59721518D02*
X84142857Y-59911994D01*
X84142857Y-59911994D02*
X84104762Y-59988184D01*
X84104762Y-59988184D02*
X84066667Y-60026280D01*
X84066667Y-60026280D02*
X83990476Y-60064375D01*
X83990476Y-60064375D02*
X83761905Y-60064375D01*
X83761905Y-60064375D02*
X83685714Y-60026280D01*
X83685714Y-60026280D02*
X83647619Y-59988184D01*
X85247620Y-59264375D02*
X85400001Y-59264375D01*
X85400001Y-59264375D02*
X85476191Y-59302470D01*
X85476191Y-59302470D02*
X85552382Y-59378660D01*
X85552382Y-59378660D02*
X85590477Y-59531041D01*
X85590477Y-59531041D02*
X85590477Y-59797708D01*
X85590477Y-59797708D02*
X85552382Y-59950089D01*
X85552382Y-59950089D02*
X85476191Y-60026280D01*
X85476191Y-60026280D02*
X85400001Y-60064375D01*
X85400001Y-60064375D02*
X85247620Y-60064375D01*
X85247620Y-60064375D02*
X85171429Y-60026280D01*
X85171429Y-60026280D02*
X85095239Y-59950089D01*
X85095239Y-59950089D02*
X85057143Y-59797708D01*
X85057143Y-59797708D02*
X85057143Y-59531041D01*
X85057143Y-59531041D02*
X85095239Y-59378660D01*
X85095239Y-59378660D02*
X85171429Y-59302470D01*
X85171429Y-59302470D02*
X85247620Y-59264375D01*
X85933334Y-60064375D02*
X85933334Y-59264375D01*
X85933334Y-59264375D02*
X86390477Y-60064375D01*
X86390477Y-60064375D02*
X86390477Y-59264375D01*
X87152381Y-60064375D02*
X86771429Y-60064375D01*
X86771429Y-60064375D02*
X86771429Y-59264375D01*
X87571429Y-59683422D02*
X87571429Y-60064375D01*
X87304762Y-59264375D02*
X87571429Y-59683422D01*
X87571429Y-59683422D02*
X87838095Y-59264375D01*
X63341667Y-51987507D02*
X63058333Y-51582745D01*
X62855952Y-51987507D02*
X62855952Y-51137507D01*
X62855952Y-51137507D02*
X63179762Y-51137507D01*
X63179762Y-51137507D02*
X63260714Y-51177983D01*
X63260714Y-51177983D02*
X63301191Y-51218459D01*
X63301191Y-51218459D02*
X63341667Y-51299411D01*
X63341667Y-51299411D02*
X63341667Y-51420840D01*
X63341667Y-51420840D02*
X63301191Y-51501792D01*
X63301191Y-51501792D02*
X63260714Y-51542269D01*
X63260714Y-51542269D02*
X63179762Y-51582745D01*
X63179762Y-51582745D02*
X62855952Y-51582745D01*
X63705952Y-51542269D02*
X63989286Y-51542269D01*
X64110714Y-51987507D02*
X63705952Y-51987507D01*
X63705952Y-51987507D02*
X63705952Y-51137507D01*
X63705952Y-51137507D02*
X64110714Y-51137507D01*
X64475000Y-51987507D02*
X64475000Y-51137507D01*
X64475000Y-51137507D02*
X64677381Y-51137507D01*
X64677381Y-51137507D02*
X64798810Y-51177983D01*
X64798810Y-51177983D02*
X64879762Y-51258935D01*
X64879762Y-51258935D02*
X64920239Y-51339888D01*
X64920239Y-51339888D02*
X64960715Y-51501792D01*
X64960715Y-51501792D02*
X64960715Y-51623221D01*
X64960715Y-51623221D02*
X64920239Y-51785126D01*
X64920239Y-51785126D02*
X64879762Y-51866078D01*
X64879762Y-51866078D02*
X64798810Y-51947031D01*
X64798810Y-51947031D02*
X64677381Y-51987507D01*
X64677381Y-51987507D02*
X64475000Y-51987507D01*
X66579762Y-51097031D02*
X65851191Y-52189888D01*
X67470238Y-51744650D02*
X67875000Y-51744650D01*
X67389286Y-51987507D02*
X67672619Y-51137507D01*
X67672619Y-51137507D02*
X67955953Y-51987507D01*
X68198809Y-51218459D02*
X68239285Y-51177983D01*
X68239285Y-51177983D02*
X68320238Y-51137507D01*
X68320238Y-51137507D02*
X68522619Y-51137507D01*
X68522619Y-51137507D02*
X68603571Y-51177983D01*
X68603571Y-51177983D02*
X68644047Y-51218459D01*
X68644047Y-51218459D02*
X68684524Y-51299411D01*
X68684524Y-51299411D02*
X68684524Y-51380364D01*
X68684524Y-51380364D02*
X68644047Y-51501792D01*
X68644047Y-51501792D02*
X68158333Y-51987507D01*
X68158333Y-51987507D02*
X68684524Y-51987507D01*
X101963095Y-51987507D02*
X101963095Y-51137507D01*
X102853572Y-51987507D02*
X102570238Y-51582745D01*
X102367857Y-51987507D02*
X102367857Y-51137507D01*
X102367857Y-51137507D02*
X102691667Y-51137507D01*
X102691667Y-51137507D02*
X102772619Y-51177983D01*
X102772619Y-51177983D02*
X102813096Y-51218459D01*
X102813096Y-51218459D02*
X102853572Y-51299411D01*
X102853572Y-51299411D02*
X102853572Y-51420840D01*
X102853572Y-51420840D02*
X102813096Y-51501792D01*
X102813096Y-51501792D02*
X102772619Y-51542269D01*
X102772619Y-51542269D02*
X102691667Y-51582745D01*
X102691667Y-51582745D02*
X102367857Y-51582745D01*
X104472619Y-51097031D02*
X103744048Y-52189888D01*
X105363095Y-51744650D02*
X105767857Y-51744650D01*
X105282143Y-51987507D02*
X105565476Y-51137507D01*
X105565476Y-51137507D02*
X105848810Y-51987507D01*
X106294047Y-51137507D02*
X106375000Y-51137507D01*
X106375000Y-51137507D02*
X106455952Y-51177983D01*
X106455952Y-51177983D02*
X106496428Y-51218459D01*
X106496428Y-51218459D02*
X106536904Y-51299411D01*
X106536904Y-51299411D02*
X106577381Y-51461316D01*
X106577381Y-51461316D02*
X106577381Y-51663697D01*
X106577381Y-51663697D02*
X106536904Y-51825602D01*
X106536904Y-51825602D02*
X106496428Y-51906554D01*
X106496428Y-51906554D02*
X106455952Y-51947031D01*
X106455952Y-51947031D02*
X106375000Y-51987507D01*
X106375000Y-51987507D02*
X106294047Y-51987507D01*
X106294047Y-51987507D02*
X106213095Y-51947031D01*
X106213095Y-51947031D02*
X106172619Y-51906554D01*
X106172619Y-51906554D02*
X106132142Y-51825602D01*
X106132142Y-51825602D02*
X106091666Y-51663697D01*
X106091666Y-51663697D02*
X106091666Y-51461316D01*
X106091666Y-51461316D02*
X106132142Y-51299411D01*
X106132142Y-51299411D02*
X106172619Y-51218459D01*
X106172619Y-51218459D02*
X106213095Y-51177983D01*
X106213095Y-51177983D02*
X106294047Y-51137507D01*
%TO.C,OPT_J1*%
D12*
X61890000Y-67610000D02*
X61890000Y-66500000D01*
X63000000Y-67610000D02*
X61890000Y-67610000D01*
X64000000Y-65390000D02*
X70110000Y-65390000D01*
X64000000Y-67610000D02*
X64000000Y-65390000D01*
X64000000Y-67610000D02*
X70110000Y-67610000D01*
X70110000Y-67610000D02*
X70110000Y-65390000D01*
%TO.C,TX_C5*%
X93738748Y-110765000D02*
X94261252Y-110765000D01*
X93738748Y-112235000D02*
X94261252Y-112235000D01*
%TO.C,TX_J4*%
X110620000Y-93620000D02*
X112000000Y-93620000D01*
X110620000Y-95000000D02*
X110620000Y-93620000D01*
X110620000Y-96270000D02*
X110620000Y-98920000D01*
X110620000Y-96270000D02*
X113380000Y-96270000D01*
X110620000Y-98920000D02*
X113380000Y-98920000D01*
X113380000Y-96270000D02*
X113380000Y-98920000D01*
%TO.C,TX_R1*%
X62582936Y-108265000D02*
X63037064Y-108265000D01*
X62582936Y-109735000D02*
X63037064Y-109735000D01*
%TO.C,BPW_J2*%
X102390000Y-87776666D02*
X102390000Y-86666666D01*
X103500000Y-87776666D02*
X102390000Y-87776666D01*
X104500000Y-85556666D02*
X110610000Y-85556666D01*
X104500000Y-87776666D02*
X104500000Y-85556666D01*
X104500000Y-87776666D02*
X110610000Y-87776666D01*
X110610000Y-87776666D02*
X110610000Y-85556666D01*
%TO.C,TX_R2*%
X63037064Y-111265000D02*
X62582936Y-111265000D01*
X63037064Y-112735000D02*
X62582936Y-112735000D01*
%TO.C,TX_R6*%
X99582936Y-108265000D02*
X100037064Y-108265000D01*
X99582936Y-109735000D02*
X100037064Y-109735000D01*
%TO.C,TX_C4*%
X92265000Y-120238748D02*
X92265000Y-120761252D01*
X93735000Y-120238748D02*
X93735000Y-120761252D01*
%TO.C,BPW_D2*%
D13*
X101550000Y-79550000D02*
X101550000Y-80450000D01*
D14*
X101550000Y-79550000D02*
X102100000Y-80100000D01*
D13*
X101550000Y-79550000D02*
X106950000Y-79550000D01*
X101550000Y-82950000D02*
X101550000Y-83850000D01*
X101550000Y-83850000D02*
X106950000Y-83850000D01*
X106950000Y-79550000D02*
X106950000Y-80450000D01*
X106950000Y-82950000D02*
X106950000Y-83850000D01*
%TO.C,TX_R3*%
D12*
X72265000Y-115082936D02*
X72265000Y-115537064D01*
X73735000Y-115082936D02*
X73735000Y-115537064D01*
%TO.C,OPT_C1*%
X75738748Y-52765000D02*
X76261252Y-52765000D01*
X75738748Y-54235000D02*
X76261252Y-54235000D01*
%TO.C,OPT_U2*%
X101600000Y-52670000D02*
X101600000Y-62950000D01*
X101600000Y-62950000D02*
X106900000Y-62950000D01*
X103250000Y-52670000D02*
X101600000Y-52670000D01*
X106900000Y-52670000D02*
X105250000Y-52670000D01*
X106900000Y-62950000D02*
X106900000Y-52670000D01*
X99110000Y-52610000D02*
X109390000Y-52610000D01*
X109390000Y-63010000D01*
X99110000Y-63010000D01*
X99110000Y-52610000D01*
X105250000Y-52670000D02*
G75*
G02*
X103250000Y-52670000I-1000000J0D01*
G01*
%TO.C,TX_J3*%
X88670000Y-96270000D02*
X88670000Y-109030000D01*
X88670000Y-96270000D02*
X91330000Y-96270000D01*
X88670000Y-109030000D02*
X91330000Y-109030000D01*
X90000000Y-93670000D02*
X91330000Y-93670000D01*
X91330000Y-93670000D02*
X91330000Y-95000000D01*
X91330000Y-96270000D02*
X91330000Y-109030000D01*
%TO.C,OPT_J3*%
X74620000Y-67880000D02*
X74620000Y-66500000D01*
X76000000Y-67880000D02*
X74620000Y-67880000D01*
X77270000Y-65120000D02*
X79920000Y-65120000D01*
X77270000Y-67880000D02*
X77270000Y-65120000D01*
X77270000Y-67880000D02*
X79920000Y-67880000D01*
X79920000Y-67880000D02*
X79920000Y-65120000D01*
%TO.C,TX_J2*%
X77650000Y-93650000D02*
X80350000Y-93650000D01*
X80350000Y-98890000D01*
X77650000Y-98890000D01*
X77650000Y-93650000D01*
X77900000Y-100400000D02*
X80100000Y-100400000D01*
X80100000Y-108600000D01*
X77900000Y-108600000D01*
X77900000Y-100400000D01*
%TO.C,TX_U1*%
X82350000Y-110860000D02*
X82350000Y-121140000D01*
X82350000Y-121140000D02*
X87650000Y-121140000D01*
X84000000Y-110860000D02*
X82350000Y-110860000D01*
X87650000Y-110860000D02*
X86000000Y-110860000D01*
X87650000Y-121140000D02*
X87650000Y-110860000D01*
X79860000Y-110800000D02*
X90140000Y-110800000D01*
X90140000Y-121200000D01*
X79860000Y-121200000D01*
X79860000Y-110800000D01*
X86000000Y-110860000D02*
G75*
G02*
X84000000Y-110860000I-1000000J0D01*
G01*
%TO.C,OPT_C2*%
X93738748Y-52765000D02*
X94261252Y-52765000D01*
X93738748Y-54235000D02*
X94261252Y-54235000D01*
%TO.C,TX_J5*%
X71620000Y-128380000D02*
X71620000Y-127000000D01*
X73000000Y-128380000D02*
X71620000Y-128380000D01*
X74270000Y-125620000D02*
X76920000Y-125620000D01*
X74270000Y-128380000D02*
X74270000Y-125620000D01*
X74270000Y-128380000D02*
X76920000Y-128380000D01*
X76920000Y-128380000D02*
X76920000Y-125620000D01*
%TO.C,TX_R9*%
X110272936Y-121590000D02*
X111727064Y-121590000D01*
X110272936Y-123410000D02*
X111727064Y-123410000D01*
%TO.C,TX_R4*%
X60272936Y-126090000D02*
X61727064Y-126090000D01*
X60272936Y-127910000D02*
X61727064Y-127910000D01*
%TO.C,TX_C2*%
X76265000Y-120238748D02*
X76265000Y-120761252D01*
X77735000Y-120238748D02*
X77735000Y-120761252D01*
%TO.C,TX_J6*%
X94620000Y-128380000D02*
X94620000Y-127000000D01*
X96000000Y-128380000D02*
X94620000Y-128380000D01*
X97270000Y-125620000D02*
X99920000Y-125620000D01*
X97270000Y-128380000D02*
X97270000Y-125620000D01*
X97270000Y-128380000D02*
X99920000Y-128380000D01*
X99920000Y-128380000D02*
X99920000Y-125620000D01*
%TO.C,OPT_J2*%
X99890000Y-67610000D02*
X99890000Y-66500000D01*
X101000000Y-67610000D02*
X99890000Y-67610000D01*
X102000000Y-65390000D02*
X108110000Y-65390000D01*
X102000000Y-67610000D02*
X102000000Y-65390000D01*
X102000000Y-67610000D02*
X108110000Y-67610000D01*
X108110000Y-67610000D02*
X108110000Y-65390000D01*
%TO.C,TX_Q1*%
X68740000Y-123350000D02*
X72340000Y-123350000D01*
X68183600Y-120401193D02*
G75*
G02*
X70540000Y-118900000I2356400J-1098807D01*
G01*
X68740000Y-123350000D02*
G75*
G02*
X68215816Y-122622795I1800000J1850000D01*
G01*
X70540000Y-118900000D02*
G75*
G02*
X72896400Y-120401193I0J-2600000D01*
G01*
X72864184Y-122622795D02*
G75*
G02*
X72340000Y-123350000I-2324184J1122795D01*
G01*
%TO.C,BPW_D1*%
D13*
X63050000Y-79550000D02*
X63050000Y-80450000D01*
D14*
X63050000Y-79550000D02*
X63600000Y-80100000D01*
D13*
X63050000Y-79550000D02*
X68450000Y-79550000D01*
X63050000Y-82950000D02*
X63050000Y-83850000D01*
X63050000Y-83850000D02*
X68450000Y-83850000D01*
X68450000Y-79550000D02*
X68450000Y-80450000D01*
X68450000Y-82950000D02*
X68450000Y-83850000D01*
%TO.C,TX_J1*%
D12*
X55670000Y-96270000D02*
X55670000Y-109030000D01*
X55670000Y-96270000D02*
X58330000Y-96270000D01*
X55670000Y-109030000D02*
X58330000Y-109030000D01*
X57000000Y-93670000D02*
X58330000Y-93670000D01*
X58330000Y-93670000D02*
X58330000Y-95000000D01*
X58330000Y-96270000D02*
X58330000Y-109030000D01*
%TO.C,TX_J7*%
X82620000Y-128380000D02*
X82620000Y-127000000D01*
X84000000Y-128380000D02*
X82620000Y-128380000D01*
X85270000Y-125620000D02*
X87920000Y-125620000D01*
X85270000Y-128380000D02*
X85270000Y-125620000D01*
X85270000Y-128380000D02*
X87920000Y-128380000D01*
X87920000Y-128380000D02*
X87920000Y-125620000D01*
%TO.C,TX_R7*%
X100037064Y-111265000D02*
X99582936Y-111265000D01*
X100037064Y-112735000D02*
X99582936Y-112735000D01*
%TO.C,TX_R8*%
X99582936Y-116265000D02*
X100037064Y-116265000D01*
X99582936Y-117735000D02*
X100037064Y-117735000D01*
%TO.C,OPT_U1*%
X63100000Y-52670000D02*
X63100000Y-62950000D01*
X63100000Y-62950000D02*
X68400000Y-62950000D01*
X64750000Y-52670000D02*
X63100000Y-52670000D01*
X68400000Y-52670000D02*
X66750000Y-52670000D01*
X68400000Y-62950000D02*
X68400000Y-52670000D01*
X60610000Y-52610000D02*
X70890000Y-52610000D01*
X70890000Y-63010000D01*
X60610000Y-63010000D01*
X60610000Y-52610000D01*
X66750000Y-52670000D02*
G75*
G02*
X64750000Y-52670000I-1000000J0D01*
G01*
%TO.C,BPW_J3*%
X70620000Y-88046666D02*
X70620000Y-86666666D01*
X72000000Y-88046666D02*
X70620000Y-88046666D01*
X73270000Y-85286666D02*
X81000000Y-85286666D01*
X73270000Y-88046666D02*
X73270000Y-85286666D01*
X73270000Y-88046666D02*
X81000000Y-88046666D01*
X81000000Y-88046666D02*
X81000000Y-85286666D01*
%TO.C,TX_Q2*%
X97740000Y-123350000D02*
X101340000Y-123350000D01*
X97183600Y-120401193D02*
G75*
G02*
X99540000Y-118900000I2356400J-1098807D01*
G01*
X97740000Y-123350000D02*
G75*
G02*
X97215816Y-122622795I1800000J1850000D01*
G01*
X99540000Y-118900000D02*
G75*
G02*
X101896400Y-120401193I0J-2600000D01*
G01*
X101864184Y-122622795D02*
G75*
G02*
X101340000Y-123350000I-2324184J1122795D01*
G01*
%TO.C,BPW_J1*%
X59390000Y-87776666D02*
X59390000Y-86666666D01*
X60500000Y-87776666D02*
X59390000Y-87776666D01*
X61500000Y-85556666D02*
X67610000Y-85556666D01*
X61500000Y-87776666D02*
X61500000Y-85556666D01*
X61500000Y-87776666D02*
X67610000Y-87776666D01*
X67610000Y-87776666D02*
X67610000Y-85556666D01*
%TD*%
%LPC*%
D15*
%TO.C,OPT_J1*%
X63000000Y-66500000D03*
D16*
X65000000Y-66500000D03*
X67000000Y-66500000D03*
X69000000Y-66500000D03*
%TD*%
D17*
%TO.C,TX_C5*%
X92962500Y-111500000D03*
X95037500Y-111500000D03*
%TD*%
D18*
%TO.C,TX_J4*%
X112000000Y-95000000D03*
D19*
X112000000Y-97540000D03*
%TD*%
D20*
%TO.C,TX_R1*%
X61810000Y-109000000D03*
X63810000Y-109000000D03*
%TD*%
D21*
%TO.C,TX_H3*%
X54000000Y-126000000D03*
%TD*%
D15*
%TO.C,BPW_J2*%
X103500000Y-86666666D03*
D16*
X105500000Y-86666666D03*
X107500000Y-86666666D03*
X109500000Y-86666666D03*
%TD*%
D21*
%TO.C,TX_H1*%
X54000000Y-114000000D03*
%TD*%
D22*
%TO.C,TX_R2*%
X63810000Y-112000000D03*
X61810000Y-112000000D03*
%TD*%
D21*
%TO.C,TX_H2*%
X116000000Y-114000000D03*
%TD*%
D20*
%TO.C,TX_R6*%
X98810000Y-109000000D03*
X100810000Y-109000000D03*
%TD*%
D23*
%TO.C,TX_C4*%
X93000000Y-119462500D03*
X93000000Y-121537500D03*
%TD*%
D24*
%TO.C,BPW_D2*%
X101700000Y-81700000D03*
D25*
X106800000Y-81700000D03*
%TD*%
D26*
%TO.C,TX_R3*%
X73000000Y-114310000D03*
X73000000Y-116310000D03*
%TD*%
D17*
%TO.C,OPT_C1*%
X74962500Y-53500000D03*
X77037500Y-53500000D03*
%TD*%
D27*
%TO.C,OPT_U2*%
X100440000Y-54000000D03*
D28*
X100440000Y-56540000D03*
X100440000Y-59080000D03*
X100440000Y-61620000D03*
X108060000Y-61620000D03*
X108060000Y-59080000D03*
X108060000Y-56540000D03*
X108060000Y-54000000D03*
%TD*%
D18*
%TO.C,TX_J3*%
X90000000Y-95000000D03*
D19*
X90000000Y-97540000D03*
X90000000Y-100080000D03*
X90000000Y-102620000D03*
X90000000Y-105160000D03*
X90000000Y-107700000D03*
%TD*%
D18*
%TO.C,OPT_J3*%
X76000000Y-66500000D03*
D19*
X78540000Y-66500000D03*
%TD*%
D18*
%TO.C,TX_J2*%
X79000000Y-95000000D03*
D29*
X79000000Y-97540000D03*
D15*
X79000000Y-101500000D03*
D30*
X79000000Y-103500000D03*
X79000000Y-105500000D03*
X79000000Y-107500000D03*
%TD*%
D27*
%TO.C,TX_U1*%
X81190000Y-112190000D03*
D28*
X81190000Y-114730000D03*
X81190000Y-117270000D03*
X81190000Y-119810000D03*
X88810000Y-119810000D03*
X88810000Y-117270000D03*
X88810000Y-114730000D03*
X88810000Y-112190000D03*
%TD*%
D17*
%TO.C,OPT_C2*%
X92962500Y-53500000D03*
X95037500Y-53500000D03*
%TD*%
D18*
%TO.C,TX_J5*%
X73000000Y-127000000D03*
D19*
X75540000Y-127000000D03*
%TD*%
D31*
%TO.C,TX_R9*%
X109450000Y-122500000D03*
X112550000Y-122500000D03*
%TD*%
%TO.C,TX_R4*%
X59450000Y-127000000D03*
X62550000Y-127000000D03*
%TD*%
D23*
%TO.C,TX_C2*%
X77000000Y-119462500D03*
X77000000Y-121537500D03*
%TD*%
D18*
%TO.C,TX_J6*%
X96000000Y-127000000D03*
D19*
X98540000Y-127000000D03*
%TD*%
D15*
%TO.C,OPT_J2*%
X101000000Y-66500000D03*
D16*
X103000000Y-66500000D03*
X105000000Y-66500000D03*
X107000000Y-66500000D03*
%TD*%
D32*
%TO.C,TX_Q1*%
X68000000Y-121500000D03*
D33*
X70540000Y-121500000D03*
X73080000Y-121500000D03*
%TD*%
D24*
%TO.C,BPW_D1*%
X63200000Y-81700000D03*
D25*
X68300000Y-81700000D03*
%TD*%
D18*
%TO.C,TX_J1*%
X57000000Y-95000000D03*
D19*
X57000000Y-97540000D03*
X57000000Y-100080000D03*
X57000000Y-102620000D03*
X57000000Y-105160000D03*
X57000000Y-107700000D03*
%TD*%
D21*
%TO.C,TX_H4*%
X116000000Y-126000000D03*
%TD*%
D18*
%TO.C,TX_J7*%
X84000000Y-127000000D03*
D19*
X86540000Y-127000000D03*
%TD*%
D22*
%TO.C,TX_R7*%
X100810000Y-112000000D03*
X98810000Y-112000000D03*
%TD*%
D20*
%TO.C,TX_R8*%
X98810000Y-117000000D03*
X100810000Y-117000000D03*
%TD*%
D27*
%TO.C,OPT_U1*%
X61940000Y-54000000D03*
D28*
X61940000Y-56540000D03*
X61940000Y-59080000D03*
X61940000Y-61620000D03*
X69560000Y-61620000D03*
X69560000Y-59080000D03*
X69560000Y-56540000D03*
X69560000Y-54000000D03*
%TD*%
D18*
%TO.C,BPW_J3*%
X72000000Y-86666666D03*
D19*
X74540000Y-86666666D03*
X77080000Y-86666666D03*
X79620000Y-86666666D03*
%TD*%
D32*
%TO.C,TX_Q2*%
X97000000Y-121500000D03*
D33*
X99540000Y-121500000D03*
X102080000Y-121500000D03*
%TD*%
D15*
%TO.C,BPW_J1*%
X60500000Y-86666666D03*
D16*
X62500000Y-86666666D03*
X64500000Y-86666666D03*
X66500000Y-86666666D03*
%TD*%
%LPD*%
M02*
