M48
; DRILL file KiCad 10.0.6 date 2026-10-01T22:37:41
; FORMAT={-:-/ absolute / metric / decimal}
; #@! TF.CreationDate,2026-10-01T22:37:41+07:00
; #@! TF.GenerationSoftware,Kicad,Pcbnew,10.0.6
; #@! TF.FileFunction,Plated,1,2,PTH
FMAT,2
METRIC
; #@! TA.AperFunction,Plated,PTH,ViaDrill
T1C0.400
; #@! TA.AperFunction,Plated,PTH,ComponentDrill
T2C0.800
; #@! TA.AperFunction,Plated,PTH,ComponentDrill
T3C1.000
%
G90
G05
T1
X58.0Y-103.0
X62.5Y-82.5
X62.5Y-89.0
X66.5Y-88.5
X71.5Y-92.8
X74.75Y-72.0
X98.5Y-88.5
X103.5Y-93.0
X103.5Y-102.0
X107.5Y-82.5
X107.5Y-87.5
X109.5Y-86.5
X112.0Y-103.0
X113.25Y-72.0
T2
X59.0Y-132.0
X59.0Y-136.0
X60.5Y-105.0
X61.94Y-57.0
X61.94Y-61.19
X61.94Y-63.73
X61.94Y-66.27
X61.94Y-68.81
X62.0Y-151.0
X62.5Y-105.0
X63.0Y-75.0
X64.44Y-57.0
X64.5Y-105.0
X65.0Y-75.0
X66.5Y-105.0
X66.62Y-132.0
X66.62Y-136.0
X67.0Y-75.0
X68.0Y-146.0
X69.0Y-75.0
X69.56Y-61.19
X69.56Y-63.73
X69.56Y-66.27
X69.56Y-68.81
X69.62Y-151.0
X70.54Y-146.0
X73.0Y-134.5
X73.0Y-142.12
X73.08Y-146.0
X77.0Y-143.0
X77.0Y-145.5
X79.0Y-121.5
X79.0Y-123.5
X79.0Y-125.5
X79.0Y-127.5
X80.0Y-150.0
X81.19Y-135.19
X81.19Y-137.73
X81.19Y-140.27
X81.19Y-142.81
X82.0Y-150.0
X88.81Y-131.0
X88.81Y-135.19
X88.81Y-137.73
X88.81Y-140.27
X88.81Y-142.81
X91.31Y-131.0
X93.0Y-143.0
X93.0Y-145.5
X96.0Y-132.0
X96.0Y-136.0
X96.0Y-140.0
X97.0Y-146.0
X98.0Y-151.0
X99.54Y-146.0
X100.44Y-57.0
X100.44Y-61.19
X100.44Y-63.73
X100.44Y-66.27
X100.44Y-68.81
X101.0Y-75.0
X102.08Y-146.0
X102.94Y-57.0
X103.0Y-75.0
X103.5Y-105.0
X103.62Y-132.0
X103.62Y-136.0
X103.62Y-140.0
X105.0Y-75.0
X105.5Y-105.0
X105.62Y-151.0
X107.0Y-75.0
X107.5Y-105.0
X108.06Y-61.19
X108.06Y-63.73
X108.06Y-66.27
X108.06Y-68.81
X109.5Y-105.0
T3
X57.0Y-115.0
X57.0Y-117.54
X57.0Y-120.08
X57.0Y-122.62
X57.0Y-125.16
X57.0Y-127.7
X63.2Y-95.0
X68.3Y-95.0
X72.0Y-105.0
X73.0Y-155.0
X74.54Y-105.0
X75.54Y-155.0
X76.0Y-75.0
X77.08Y-105.0
X78.54Y-75.0
X79.0Y-115.0
X79.0Y-117.54
X79.62Y-105.0
X84.0Y-155.0
X86.54Y-155.0
X90.0Y-115.0
X90.0Y-117.54
X90.0Y-120.08
X90.0Y-122.62
X90.0Y-125.16
X90.0Y-127.7
X96.0Y-155.0
X98.54Y-155.0
X101.7Y-95.0
X106.8Y-95.0
X112.0Y-115.0
X112.0Y-117.54
M30
