ISO-10303-21;
HEADER;
/* CP_Radial_D5.0mm_P2.00mm.step 3D STEP model for use in ECAD systems
 * Copyright (C) 2017, kicad StepUp
 *
 * This program is free software: you can redistribute it and/or modify
 * it under the terms of the GNU General Public License as published by
 * the Free Software Foundation, either version 3 of the License, or
 * any later version.
 *
 * This program is distributed in the hope that it will be useful,
 * but WITHOUT ANY WARRANTY; without even the implied warranty of
 * MERCHANTABILITY or FITNESS FOR A PARTICULAR PURPOSE.  See the
 * GNU General Public License for more details.
 *
 * You should have received a copy of the GNU General Public License
 * along with this program.  If not, see http://www.gnu.org/licenses/.
 *
 * As a special exception, if you create a design which uses this symbol,
 * and embed this symbol or unaltered portions of this symbol into the design,
 * this symbol does not by itself cause the resulting design to be covered by
 * the GNU General Public License.
 * This exception does not however invalidate any other reasons why the design
 * itself might be covered by the GNU General Public License.
 * If you modify this symbol, you may extend this exception to your version of the symbol,
 * but you are not obligated to do so.
 * If you do not wish to do so, delete this exception statement from your version
 * Risk disclaimer
 * *USE 3D CAD DATA AT YOUR OWN RISK*
 * *DO NOT RELY UPON ANY INFORMATION FOUND HERE WITHOUT INDEPENDENT VERIFICATION.*
 *
 */

FILE_DESCRIPTION(
/* description */ ('model of CP_Radial_D5.0mm_P2.00mm'),
/* implementation_level */ '2;1');

FILE_NAME(
/* name */ 'CP_Radial_D5.0mm_P2.00mm.step',
/* time_stamp */ '2017-05-20T20:36:03',
/* author */ ('kicad StepUp','ksu'),
/* organization */ ('FreeCAD'),
/* preprocessor_version */ 'OCC',
/* originating_system */ 'kicad StepUp',
/* authorisation */ '');

FILE_SCHEMA(('AUTOMOTIVE_DESIGN_CC2 { 1 2 10303 214 -1 1 5 4 }'));
ENDSEC;

DATA;
#1=APPLICATION_PROTOCOL_DEFINITION('committee draft','automotive_design',1997,#2);
#2=APPLICATION_CONTEXT('core data for automotive mechanical design processes');
#3=SHAPE_DEFINITION_REPRESENTATION(#4,#10);
#4=PRODUCT_DEFINITION_SHAPE('','',#5);
#5=PRODUCT_DEFINITION('design','',#6,#9);
#6=PRODUCT_DEFINITION_FORMATION('','',#7);
#7=PRODUCT('CP_Radial_D50mm_P200mm','CP_Radial_D50mm_P200mm','',(#8));
#8=MECHANICAL_CONTEXT('',#2,'mechanical');
#9=PRODUCT_DEFINITION_CONTEXT('part definition',#2,'design');
#10=ADVANCED_BREP_SHAPE_REPRESENTATION('',(#11,#15),#1245);
#11=AXIS2_PLACEMENT_3D('',#12,#13,#14);
#12=CARTESIAN_POINT('',(0.,0.,0.));
#13=DIRECTION('',(0.,0.,1.));
#14=DIRECTION('',(1.,0.,-0.));
#15=BREP_WITH_VOIDS('',#16,(#1177));
#16=CLOSED_SHELL('',(#17,#29,#49,#79,#105,#118,#136,#156,#166,#170,#196,#207,#259,#284,#381,#418,#475,#561,#658,#707,#717,#736,#759,#766,#824,#849,#858,#870,#892,#902,#988,#1017,#1033,#1048,#1061,#1098,#1107,#1121,#1128,#1143,#1150,#1156,#1163,#1170));
#17=ADVANCED_FACE('',(#18),#28,.F.);
#18=FACE_BOUND('',#19,.F.);
#19=EDGE_LOOP('',(#20));
#20=ORIENTED_EDGE('',*,*,#21,.T.);
#21=EDGE_CURVE('',#22,#22,#24,.T.);
#22=VERTEX_POINT('',#23);
#23=CARTESIAN_POINT('',(1.75,-9.184850993605E-17,-1.9));
#24=CIRCLE('',#25,0.25);
#25=AXIS2_PLACEMENT_3D('',#26,#13,#27);
#26=CARTESIAN_POINT('',(2.,-1.224646799147E-16,-1.9));
#27=DIRECTION('',(-1.,1.224646799147E-16,0.));
#28=PLANE('',#25);
#29=ADVANCED_FACE('',(#30),#46,.T.);
#30=FACE_BOUND('',#31,.T.);
#31=EDGE_LOOP('',(#32,#39,#20,#45));
#32=ORIENTED_EDGE('',*,*,#33,.F.);
#33=EDGE_CURVE('',#34,#34,#36,.T.);
#34=VERTEX_POINT('',#35);
#35=CARTESIAN_POINT('',(1.75,-9.184850993605E-17,0.2));
#36=CIRCLE('',#37,0.25);
#37=AXIS2_PLACEMENT_3D('',#38,#13,#27);
#38=CARTESIAN_POINT('',(2.,-1.224646799147E-16,0.2));
#39=ORIENTED_EDGE('',*,*,#40,.T.);
#40=EDGE_CURVE('',#34,#22,#41,.T.);
#41=LINE('',#42,#43);
#42=CARTESIAN_POINT('',(1.75,-9.184850993605E-17,0.3));
#43=VECTOR('',#44,1.);
#44=DIRECTION('',(0.,0.,-1.));
#45=ORIENTED_EDGE('',*,*,#40,.F.);
#46=CYLINDRICAL_SURFACE('',#47,0.25);
#47=AXIS2_PLACEMENT_3D('',#48,#13,#27);
#48=CARTESIAN_POINT('',(2.,-1.224646799147E-16,0.3));
#49=ADVANCED_FACE('',(#50,#67,#69),#78,.F.);
#50=FACE_BOUND('',#51,.F.);
#51=EDGE_LOOP('',(#52,#61,#65));
#52=ORIENTED_EDGE('',*,*,#53,.T.);
#53=EDGE_CURVE('',#54,#56,#58,.T.);
#54=VERTEX_POINT('',#55);
#55=CARTESIAN_POINT('',(-0.75,2.143131898508E-16,0.2));
#56=VERTEX_POINT('',#57);
#57=CARTESIAN_POINT('',(2.616789181895,-0.669696006639,0.2));
#58=CIRCLE('',#59,1.75);
#59=AXIS2_PLACEMENT_3D('',#60,#13,#27);
#60=CARTESIAN_POINT('',(1.,0.,0.2));
#61=ORIENTED_EDGE('',*,*,#62,.T.);
#62=EDGE_CURVE('',#56,#63,#58,.T.);
#63=VERTEX_POINT('',#64);
#64=CARTESIAN_POINT('',(2.616789181895,0.669696006639,0.2));
#65=ORIENTED_EDGE('',*,*,#66,.T.);
#66=EDGE_CURVE('',#63,#54,#58,.T.);
#67=FACE_BOUND('',#68,.F.);
#68=EDGE_LOOP('',(#32));
#69=FACE_BOUND('',#70,.F.);
#70=EDGE_LOOP('',(#71));
#71=ORIENTED_EDGE('',*,*,#72,.F.);
#72=EDGE_CURVE('',#73,#73,#75,.T.);
#73=VERTEX_POINT('',#74);
#74=CARTESIAN_POINT('',(-0.25,1.530808498934E-16,0.2));
#75=CIRCLE('',#76,0.25);
#76=AXIS2_PLACEMENT_3D('',#77,#13,#27);
#77=CARTESIAN_POINT('',(0.,1.224646799147E-16,0.2));
#78=PLANE('',#59);
#79=ADVANCED_FACE('',(#80),#102,.F.);
#80=FACE_BOUND('',#81,.F.);
#81=EDGE_LOOP('',(#82,#88,#89,#90,#96));
#82=ORIENTED_EDGE('',*,*,#83,.F.);
#83=EDGE_CURVE('',#56,#84,#86,.T.);
#84=VERTEX_POINT('',#85);
#85=CARTESIAN_POINT('',(2.616789181895,-0.669696006639,0.));
#86=LINE('',#87,#43);
#87=CARTESIAN_POINT('',(2.616789181895,-0.669696006639,0.3));
#88=ORIENTED_EDGE('',*,*,#53,.F.);
#89=ORIENTED_EDGE('',*,*,#66,.F.);
#90=ORIENTED_EDGE('',*,*,#91,.T.);
#91=EDGE_CURVE('',#63,#92,#94,.T.);
#92=VERTEX_POINT('',#93);
#93=CARTESIAN_POINT('',(2.616789181895,0.669696006639,0.));
#94=LINE('',#95,#43);
#95=CARTESIAN_POINT('',(2.616789181895,0.669696006639,0.3));
#96=ORIENTED_EDGE('',*,*,#97,.F.);
#97=EDGE_CURVE('',#84,#92,#98,.T.);
#98=CIRCLE('',#99,1.75);
#99=AXIS2_PLACEMENT_3D('',#100,#44,#101);
#100=CARTESIAN_POINT('',(1.,0.,0.));
#101=DIRECTION('',(0.923879532511,-0.382683432365,0.));
#102=CYLINDRICAL_SURFACE('',#103,1.75);
#103=AXIS2_PLACEMENT_3D('',#104,#44,#101);
#104=CARTESIAN_POINT('',(1.,0.,0.3));
#105=ADVANCED_FACE('',(#106),#116,.F.);
#106=FACE_BOUND('',#107,.F.);
#107=EDGE_LOOP('',(#108,#109,#110,#111));
#108=ORIENTED_EDGE('',*,*,#91,.F.);
#109=ORIENTED_EDGE('',*,*,#62,.F.);
#110=ORIENTED_EDGE('',*,*,#83,.T.);
#111=ORIENTED_EDGE('',*,*,#112,.F.);
#112=EDGE_CURVE('',#92,#84,#113,.T.);
#113=CIRCLE('',#114,1.75);
#114=AXIS2_PLACEMENT_3D('',#100,#44,#115);
#115=DIRECTION('',(0.923879532511,0.382683432365,0.));
#116=CYLINDRICAL_SURFACE('',#117,1.75);
#117=AXIS2_PLACEMENT_3D('',#104,#44,#115);
#118=ADVANCED_FACE('',(#119),#133,.T.);
#119=FACE_BOUND('',#120,.T.);
#120=EDGE_LOOP('',(#71,#121,#127,#132));
#121=ORIENTED_EDGE('',*,*,#122,.T.);
#122=EDGE_CURVE('',#73,#123,#125,.T.);
#123=VERTEX_POINT('',#124);
#124=CARTESIAN_POINT('',(-0.25,1.530808498934E-16,-2.));
#125=LINE('',#126,#43);
#126=CARTESIAN_POINT('',(-0.25,1.530808498934E-16,0.3));
#127=ORIENTED_EDGE('',*,*,#128,.T.);
#128=EDGE_CURVE('',#123,#123,#129,.T.);
#129=CIRCLE('',#130,0.25);
#130=AXIS2_PLACEMENT_3D('',#131,#13,#27);
#131=CARTESIAN_POINT('',(0.,1.224646799147E-16,-2.));
#132=ORIENTED_EDGE('',*,*,#122,.F.);
#133=CYLINDRICAL_SURFACE('',#134,0.25);
#134=AXIS2_PLACEMENT_3D('',#135,#13,#27);
#135=CARTESIAN_POINT('',(0.,1.224646799147E-16,0.3));
#136=ADVANCED_FACE('',(#137),#155,.T.);
#137=FACE_BOUND('',#138,.F.);
#138=EDGE_LOOP('',(#139,#140,#146,#151));
#139=ORIENTED_EDGE('',*,*,#97,.T.);
#140=ORIENTED_EDGE('',*,*,#141,.T.);
#141=EDGE_CURVE('',#92,#142,#144,.T.);
#142=VERTEX_POINT('',#143);
#143=CARTESIAN_POINT('',(3.124922924776,0.88017189444,1.387778780781E-17));
#144=LINE('',#93,#145);
#145=VECTOR('',#115,1.);
#146=ORIENTED_EDGE('',*,*,#147,.F.);
#147=EDGE_CURVE('',#148,#142,#150,.T.);
#148=VERTEX_POINT('',#149);
#149=CARTESIAN_POINT('',(3.124922924776,-0.88017189444,1.387778780781E-17));
#150=CIRCLE('',#99,2.3);
#151=ORIENTED_EDGE('',*,*,#152,.F.);
#152=EDGE_CURVE('',#84,#148,#153,.T.);
#153=LINE('',#85,#154);
#154=VECTOR('',#101,1.);
#155=PLANE('',#99);
#156=ADVANCED_FACE('',(#157),#165,.T.);
#157=FACE_BOUND('',#158,.F.);
#158=EDGE_LOOP('',(#159,#160,#161,#164));
#159=ORIENTED_EDGE('',*,*,#112,.T.);
#160=ORIENTED_EDGE('',*,*,#152,.T.);
#161=ORIENTED_EDGE('',*,*,#162,.F.);
#162=EDGE_CURVE('',#142,#148,#163,.T.);
#163=CIRCLE('',#114,2.3);
#164=ORIENTED_EDGE('',*,*,#141,.F.);
#165=PLANE('',#114);
#166=ADVANCED_FACE('',(#167),#169,.F.);
#167=FACE_BOUND('',#168,.F.);
#168=EDGE_LOOP('',(#127));
#169=PLANE('',#130);
#170=ADVANCED_FACE('',(#171),#194,.F.);
#171=FACE_BOUND('',#172,.F.);
#172=EDGE_LOOP('',(#173,#174,#182,#188));
#173=ORIENTED_EDGE('',*,*,#147,.T.);
#174=ORIENTED_EDGE('',*,*,#175,.T.);
#175=EDGE_CURVE('',#142,#176,#178,.T.);
#176=VERTEX_POINT('',#177);
#177=CARTESIAN_POINT('',(3.309698831278,0.956708580913,0.2));
#178=CIRCLE('',#179,0.2);
#179=AXIS2_PLACEMENT_3D('',#180,#181,#44);
#180=CARTESIAN_POINT('',(3.124922924776,0.88017189444,0.2));
#181=DIRECTION('',(0.382683432365,-0.923879532511,0.));
#182=ORIENTED_EDGE('',*,*,#183,.F.);
#183=EDGE_CURVE('',#184,#176,#186,.T.);
#184=VERTEX_POINT('',#185);
#185=CARTESIAN_POINT('',(3.309698831278,-0.956708580913,0.2));
#186=CIRCLE('',#187,2.5);
#187=AXIS2_PLACEMENT_3D('',#60,#44,#101);
#188=ORIENTED_EDGE('',*,*,#189,.F.);
#189=EDGE_CURVE('',#148,#184,#190,.T.);
#190=CIRCLE('',#191,0.2);
#191=AXIS2_PLACEMENT_3D('',#192,#193,#44);
#192=CARTESIAN_POINT('',(3.124922924776,-0.88017189444,0.2));
#193=DIRECTION('',(-0.382683432365,-0.923879532511,-0.));
#194=SURFACE_OF_REVOLUTION('',#190,#195);
#195=AXIS1_PLACEMENT('',#100,#44);
#196=ADVANCED_FACE('',(#197),#206,.F.);
#197=FACE_BOUND('',#198,.F.);
#198=EDGE_LOOP('',(#199,#200,#201,#205));
#199=ORIENTED_EDGE('',*,*,#162,.T.);
#200=ORIENTED_EDGE('',*,*,#189,.T.);
#201=ORIENTED_EDGE('',*,*,#202,.F.);
#202=EDGE_CURVE('',#176,#184,#203,.T.);
#203=CIRCLE('',#204,2.5);
#204=AXIS2_PLACEMENT_3D('',#60,#44,#115);
#205=ORIENTED_EDGE('',*,*,#175,.F.);
#206=SURFACE_OF_REVOLUTION('',#178,#195);
#207=ADVANCED_FACE('',(#208),#257,.T.);
#208=FACE_BOUND('',#209,.F.);
#209=EDGE_LOOP('',(#210,#216,#217,#222));
#210=ORIENTED_EDGE('',*,*,#211,.F.);
#211=EDGE_CURVE('',#184,#212,#214,.T.);
#212=VERTEX_POINT('',#213);
#213=CARTESIAN_POINT('',(3.309698831278,-0.956708580913,1.064979142851));
#214=LINE('',#185,#215);
#215=VECTOR('',#13,1.);
#216=ORIENTED_EDGE('',*,*,#183,.T.);
#217=ORIENTED_EDGE('',*,*,#218,.T.);
#218=EDGE_CURVE('',#176,#219,#221,.T.);
#219=VERTEX_POINT('',#220);
#220=CARTESIAN_POINT('',(3.309698831278,0.956708580913,1.064979142851));
#221=LINE('',#177,#215);
#222=ORIENTED_EDGE('',*,*,#223,.F.);
#223=EDGE_CURVE('',#212,#219,#224,.T.);
#224=B_SPLINE_CURVE_WITH_KNOTS('',11,(#225,#226,#227,#228,#229,#230,#231,#232,#233,#234,#235,#236,#237,#238,#239,#240,#241,#242,#243,#244,#245,#246,#247,#248,#249,#250,#251,#252,#253,#254,#255,#256),.UNSPECIFIED.,.F.,.F.,(12,10,10,12),(-0.585615641583,2.874910026413E-15,13.744467859455,14.330083501039),.UNSPECIFIED.);
#225=CARTESIAN_POINT('',(3.533804235046,-0.415670275735,1.064979142851));
#226=CARTESIAN_POINT('',(3.513289829604,-0.465196431576,1.064979142851));
#227=CARTESIAN_POINT('',(3.492803661547,-0.514654416342,1.064979142851));
#228=CARTESIAN_POINT('',(3.472345730872,-0.564044230035,1.064979142851));
#229=CARTESIAN_POINT('',(3.451916037581,-0.613365872653,1.064979142851));
#230=CARTESIAN_POINT('',(3.431514581673,-0.662619344198,1.064979142851));
#231=CARTESIAN_POINT('',(3.411141363149,-0.711804644669,1.064979142851));
#232=CARTESIAN_POINT('',(3.390796382008,-0.760921774065,1.064979142851));
#233=CARTESIAN_POINT('',(3.370479638251,-0.809970732388,1.064979142851));
#234=CARTESIAN_POINT('',(3.350191131876,-0.858951519637,1.064979142851));
#235=CARTESIAN_POINT('',(3.329930862886,-0.907864135812,1.064979142851));
#236=CARTESIAN_POINT('',(2.834850674205,-2.103093441787,1.064979142851));
#237=CARTESIAN_POINT('',(1.727586252494,-3.009448724487,1.064979062911));
#238=CARTESIAN_POINT('',(0.105855011951,-3.257464103804,1.064979307428));
#239=CARTESIAN_POINT('',(-1.475741298782,-2.506760000403,1.064978963603));
#240=CARTESIAN_POINT('',(-2.588653308495,-1.059860959896,1.064979218435));
#241=CARTESIAN_POINT('',(-2.588653308509,1.059860959896,1.064979218442));
#242=CARTESIAN_POINT('',(-1.475741298772,2.506760000402,1.064978963597));
#243=CARTESIAN_POINT('',(0.105855011945,3.257464103804,1.064979307432));
#244=CARTESIAN_POINT('',(1.727586252497,3.009448724487,1.064979062909));
#245=CARTESIAN_POINT('',(2.834850674204,2.103093441788,1.064979142851));
#246=CARTESIAN_POINT('',(3.329930862886,0.907864135812,1.064979142851));
#247=CARTESIAN_POINT('',(3.350191131876,0.858951519637,1.064979142851));
#248=CARTESIAN_POINT('',(3.370479638251,0.809970732388,1.064979142851));
#249=CARTESIAN_POINT('',(3.390796382008,0.760921774065,1.064979142851));
#250=CARTESIAN_POINT('',(3.411141363149,0.711804644669,1.064979142851));
#251=CARTESIAN_POINT('',(3.431514581673,0.662619344198,1.064979142851));
#252=CARTESIAN_POINT('',(3.451916037581,0.613365872653,1.064979142851));
#253=CARTESIAN_POINT('',(3.472345730872,0.564044230035,1.064979142851));
#254=CARTESIAN_POINT('',(3.492803661547,0.514654416342,1.064979142851));
#255=CARTESIAN_POINT('',(3.513289829605,0.465196431576,1.064979142851));
#256=CARTESIAN_POINT('',(3.533804235046,0.415670275736,1.064979142851));
#257=CYLINDRICAL_SURFACE('',#258,2.5);
#258=AXIS2_PLACEMENT_3D('',#60,#13,#101);
#259=ADVANCED_FACE('',(#260),#282,.T.);
#260=FACE_BOUND('',#261,.F.);
#261=EDGE_LOOP('',(#262,#263,#264,#265));
#262=ORIENTED_EDGE('',*,*,#218,.F.);
#263=ORIENTED_EDGE('',*,*,#202,.T.);
#264=ORIENTED_EDGE('',*,*,#211,.T.);
#265=ORIENTED_EDGE('',*,*,#266,.F.);
#266=EDGE_CURVE('',#219,#212,#267,.T.);
#267=B_SPLINE_CURVE_WITH_KNOTS('',5,(#268,#269,#270,#271,#272,#273,#274,#275,#276,#277,#278,#279,#280,#281),.UNSPECIFIED.,.F.,.F.,(6,4,4,6),(-0.119413470026,-1.353371911114E-07,1.96349554383,2.08290869425),.UNSPECIFIED.);
#268=CARTESIAN_POINT('',(3.264001325546,1.067032118743,1.064979142851));
#269=CARTESIAN_POINT('',(3.273140829292,1.0449674049,1.064979142851));
#270=CARTESIAN_POINT('',(3.282280331654,1.0229026944,1.064979142851));
#271=CARTESIAN_POINT('',(3.291419832631,1.000837987243,1.064979142851));
#272=CARTESIAN_POINT('',(3.300559332224,0.978773283428,1.064979142851));
#273=CARTESIAN_POINT('',(3.45997823841,0.593901998977,1.064979142851));
#274=CARTESIAN_POINT('',(3.539038746156,0.201591257513,1.064979142851));
#275=CARTESIAN_POINT('',(3.539039291386,-0.201589955698,1.064979142851));
#276=CARTESIAN_POINT('',(3.45997851584,-0.593901329202,1.064979142851));
#277=CARTESIAN_POINT('',(3.300559329455,-0.978773290113,1.064979142851));
#278=CARTESIAN_POINT('',(3.291419828478,-1.00083799727,1.064979142851));
#279=CARTESIAN_POINT('',(3.2822803275,-1.022902704428,1.064979142851));
#280=CARTESIAN_POINT('',(3.273140826523,-1.044967411585,1.064979142851));
#281=CARTESIAN_POINT('',(3.264001325546,-1.067032118743,1.064979142851));
#282=CYLINDRICAL_SURFACE('',#283,2.5);
#283=AXIS2_PLACEMENT_3D('',#60,#13,#115);
#284=ADVANCED_FACE('',(#285),#348,.T.);
#285=FACE_BOUND('',#286,.T.);
#286=EDGE_LOOP('',(#287,#300,#337,#222));
#287=ORIENTED_EDGE('',*,*,#288,.T.);
#288=EDGE_CURVE('',#212,#289,#291,.T.);
#289=VERTEX_POINT('',#290);
#290=CARTESIAN_POINT('',(3.235446538439,-0.925952274181,1.269338405373));
#291=B_SPLINE_CURVE_WITH_KNOTS('',5,(#213,#292,#293,#294,#295,#296,#297,#298,#299,#290),.UNSPECIFIED.,.F.,.F.,(6,4,6),(0.,0.5,1.),.UNSPECIFIED.);
#292=CARTESIAN_POINT('',(3.30969883117,-0.956708580868,1.086946886076));
#293=CARTESIAN_POINT('',(3.307841659805,-0.955939315301,1.109289585017));
#294=CARTESIAN_POINT('',(3.303997166347,-0.95434687397,1.131655175667));
#295=CARTESIAN_POINT('',(3.298159251937,-0.951928730645,1.153610443506));
#296=CARTESIAN_POINT('',(3.282778034968,-0.945557621971,1.195943064308));
#297=CARTESIAN_POINT('',(3.273234543788,-0.941604578492,1.2163209364));
#298=CARTESIAN_POINT('',(3.261973435419,-0.936940074678,1.235529410754));
#299=CARTESIAN_POINT('',(3.249271815997,-0.93167889165,1.253255827993));
#300=ORIENTED_EDGE('',*,*,#301,.T.);
#301=EDGE_CURVE('',#289,#302,#304,.T.);
#302=VERTEX_POINT('',#303);
#303=CARTESIAN_POINT('',(3.235446538439,0.925952274181,1.269338405373));
#304=B_SPLINE_CURVE_WITH_KNOTS('',11,(#305,#306,#307,#308,#309,#310,#311,#312,#313,#314,#315,#316,#317,#318,#319,#320,#321,#322,#323,#324,#325,#326,#327,#328,#329,#330,#331,#332,#333,#334,#335,#336),.UNSPECIFIED.,.F.,.F.,(12,10,10,12),(-0.585615641583,2.874910026413E-15,13.744467859455,14.330083501039),.UNSPECIFIED.);
#305=CARTESIAN_POINT('',(3.459551942206,-0.384913969004,1.269338405373));
#306=CARTESIAN_POINT('',(3.438387116582,-0.43601037807,1.269338405373));
#307=CARTESIAN_POINT('',(3.417380612378,-0.486724565418,1.269338405373));
#308=CARTESIAN_POINT('',(3.396532429594,-0.537056531046,1.269338405373));
#309=CARTESIAN_POINT('',(3.37584256823,-0.587006274955,1.269338405373));
#310=CARTESIAN_POINT('',(3.355311028286,-0.636573797145,1.269338405373));
#311=CARTESIAN_POINT('',(3.334937809761,-0.685759097616,1.269338405373));
#312=CARTESIAN_POINT('',(3.314722912657,-0.734562176367,1.269338405373));
#313=CARTESIAN_POINT('',(3.294666336973,-0.782983033399,1.269338405373));
#314=CARTESIAN_POINT('',(3.274768082708,-0.831021668713,1.269338405373));
#315=CARTESIAN_POINT('',(3.255028149863,-0.878678082306,1.269338405373));
#316=CARTESIAN_POINT('',(2.775863819411,-2.03548310749,1.269338405373));
#317=CARTESIAN_POINT('',(1.704091980563,-2.912929929979,1.269338420699));
#318=CARTESIAN_POINT('',(0.134360577618,-3.152280979089,1.26933837382));
#319=CARTESIAN_POINT('',(-1.395396108631,-2.426388868524,1.26933843974));
#320=CARTESIAN_POINT('',(-2.473728053044,-1.02623416819,1.269338390878));
#321=CARTESIAN_POINT('',(-2.473728053057,1.026234168191,1.269338390886));
#322=CARTESIAN_POINT('',(-1.395396108622,2.426388868523,1.269338439734));
#323=CARTESIAN_POINT('',(0.134360577613,3.152280979089,1.269338373823));
#324=CARTESIAN_POINT('',(1.704091980565,2.912929929979,1.269338420697));
#325=CARTESIAN_POINT('',(2.775863819411,2.03548310749,1.269338405373));
#326=CARTESIAN_POINT('',(3.255028149863,0.878678082306,1.269338405373));
#327=CARTESIAN_POINT('',(3.274768082708,0.831021668713,1.269338405373));
#328=CARTESIAN_POINT('',(3.294666336973,0.782983033399,1.269338405373));
#329=CARTESIAN_POINT('',(3.314722912657,0.734562176367,1.269338405373));
#330=CARTESIAN_POINT('',(3.334937809762,0.685759097616,1.269338405373));
#331=CARTESIAN_POINT('',(3.355311028286,0.636573797145,1.269338405373));
#332=CARTESIAN_POINT('',(3.37584256823,0.587006274955,1.269338405373));
#333=CARTESIAN_POINT('',(3.396532429594,0.537056531046,1.269338405373));
#334=CARTESIAN_POINT('',(3.417380612378,0.486724565418,1.269338405373));
#335=CARTESIAN_POINT('',(3.438387116583,0.436010378071,1.269338405373));
#336=CARTESIAN_POINT('',(3.459551942206,0.384913969004,1.269338405373));
#337=ORIENTED_EDGE('',*,*,#338,.F.);
#338=EDGE_CURVE('',#219,#302,#339,.T.);
#339=B_SPLINE_CURVE_WITH_KNOTS('',5,(#220,#340,#341,#342,#343,#344,#345,#346,#347,#303),.UNSPECIFIED.,.F.,.F.,(6,4,6),(0.,0.5,1.),.UNSPECIFIED.);
#340=CARTESIAN_POINT('',(3.30969883117,0.956708580868,1.086946886076));
#341=CARTESIAN_POINT('',(3.307841659805,0.955939315301,1.109289585017));
#342=CARTESIAN_POINT('',(3.303997166347,0.95434687397,1.131655175667));
#343=CARTESIAN_POINT('',(3.298159251937,0.951928730645,1.153610443506));
#344=CARTESIAN_POINT('',(3.282778034968,0.945557621971,1.195943064308));
#345=CARTESIAN_POINT('',(3.273234543788,0.941604578492,1.2163209364));
#346=CARTESIAN_POINT('',(3.261973435419,0.936940074678,1.235529410754));
#347=CARTESIAN_POINT('',(3.249271815997,0.93167889165,1.253255827993));
#348=( BOUNDED_SURFACE() B_SPLINE_SURFACE(2,11,((#225,#226,#227,#228,#229,#230,#231,#232,#233,#234,#235,#236,#237,#238,#239,#240,#241,#242,#243,#244,#245,#246,#247,#248,#249,#250,#251,#252,#253,#254,#255,#256),(#349,#350,#351,#352,#353,#354,#355,#356,#357,#358,#359,#360,#361,#362,#363,#364,#365,#366,#367,#368,#369,#370,#371,#372,#373,#374,#375,#376,#377,#378,#379,#380),(#305,#306,#307,#308,#309,#310,#311,#312,#313,#314,#315,#316,#317,#318,#319,#320,#321,#322,#323,#324,#325,#326,#327,#328,#329,#330,#331,#332,#333,#334,#335,#336)),.UNSPECIFIED.,.F.,.F.,.F.) B_SPLINE_SURFACE_WITH_KNOTS((3,3),(12,10,10,12),(0.,13.744467859455),(-0.585615641583,2.874910026413E-15,13.744467859455,14.330083501039),.UNSPECIFIED.) GEOMETRIC_REPRESENTATION_ITEM() RATIONAL_B_SPLINE_SURFACE(((1.,1.,1.,1.,1.,1.,1.,1.,1.,1.,1.,1.,1.,1.,1.,1.,1.,1.,1.,1.,1.,1.,1.,1.,1.,1.,1.,1.,1.,1.,1.,1.),(0.93061798229,0.93061798229,0.93061798229,0.93061798229,0.93061798229,0.93061798229,0.93061798229,0.93061798229,0.93061798229,0.93061798229,0.93061798229,0.93061798229,0.930617902914,0.930618145704,0.930617804307,0.93061805734,0.930618057346,0.930617804303,0.930618145707,0.930617902913,0.93061798229,0.93061798229,0.93061798229,0.93061798229,0.93061798229,0.93061798229,0.93061798229,0.93061798229,0.93061798229,0.93061798229,0.93061798229,0.93061798229),(1.,1.,1.,1.,1.,1.,1.,1.,1.,1.,1.,1.,1.,1.,1.,1.,1.,1.,1.,1.,1.,1.,1.,1.,1.,1.,1.,1.,1.,1.,1.,1.))) REPRESENTATION_ITEM('') SURFACE() );
#349=CARTESIAN_POINT('',(3.533804235046,-0.415670275735,1.182962690499));
#350=CARTESIAN_POINT('',(3.513289829604,-0.465196431576,1.182962690499));
#351=CARTESIAN_POINT('',(3.492803661547,-0.514654416342,1.182962690499));
#352=CARTESIAN_POINT('',(3.472345730872,-0.564044230035,1.182962690499));
#353=CARTESIAN_POINT('',(3.451916037581,-0.613365872653,1.182962690499));
#354=CARTESIAN_POINT('',(3.431514581673,-0.662619344198,1.182962690499));
#355=CARTESIAN_POINT('',(3.411141363149,-0.711804644669,1.182962690499));
#356=CARTESIAN_POINT('',(3.390796382008,-0.760921774065,1.182962690499));
#357=CARTESIAN_POINT('',(3.37047963825,-0.809970732388,1.182962690499));
#358=CARTESIAN_POINT('',(3.350191131876,-0.858951519637,1.182962690499));
#359=CARTESIAN_POINT('',(3.329930862886,-0.907864135812,1.182962690499));
#360=CARTESIAN_POINT('',(2.834850674205,-2.103093441788,1.182962690499));
#361=CARTESIAN_POINT('',(1.727586214542,-3.009448936943,1.182962685685));
#362=CARTESIAN_POINT('',(0.105855341319,-3.257463206685,1.18296270041));
#363=CARTESIAN_POINT('',(-1.475741895234,-2.506761759151,1.182962679705));
#364=CARTESIAN_POINT('',(-2.588652975416,-1.059858637809,1.182962695051));
#365=CARTESIAN_POINT('',(-2.588652975407,1.059858637802,1.182962695051));
#366=CARTESIAN_POINT('',(-1.475741895235,2.506761759163,1.182962679705));
#367=CARTESIAN_POINT('',(0.105855341315,3.257463206676,1.18296270041));
#368=CARTESIAN_POINT('',(1.727586214545,3.009448936947,1.182962685685));
#369=CARTESIAN_POINT('',(2.834850674204,2.103093441787,1.182962690499));
#370=CARTESIAN_POINT('',(3.329930862886,0.907864135812,1.182962690499));
#371=CARTESIAN_POINT('',(3.350191131876,0.858951519637,1.182962690499));
#372=CARTESIAN_POINT('',(3.370479638251,0.809970732388,1.182962690499));
#373=CARTESIAN_POINT('',(3.390796382008,0.760921774065,1.182962690499));
#374=CARTESIAN_POINT('',(3.411141363149,0.711804644669,1.182962690499));
#375=CARTESIAN_POINT('',(3.431514581674,0.662619344198,1.182962690499));
#376=CARTESIAN_POINT('',(3.451916037581,0.613365872653,1.182962690499));
#377=CARTESIAN_POINT('',(3.472345730872,0.564044230035,1.182962690499));
#378=CARTESIAN_POINT('',(3.492803661547,0.514654416342,1.182962690499));
#379=CARTESIAN_POINT('',(3.513289829605,0.465196431576,1.182962690499));
#380=CARTESIAN_POINT('',(3.533804235046,0.415670275736,1.182962690499));
#381=ADVANCED_FACE('',(#382),#403,.T.);
#382=FACE_BOUND('',#383,.T.);
#383=EDGE_LOOP('',(#384,#385,#402,#265));
#384=ORIENTED_EDGE('',*,*,#338,.T.);
#385=ORIENTED_EDGE('',*,*,#386,.T.);
#386=EDGE_CURVE('',#302,#289,#387,.T.);
#387=B_SPLINE_CURVE_WITH_KNOTS('',5,(#388,#389,#390,#391,#392,#393,#394,#395,#396,#397,#398,#399,#400,#401),.UNSPECIFIED.,.F.,.F.,(6,4,4,6),(-0.119413470026,-1.353371911114E-07,1.96349554383,2.08290869425),.UNSPECIFIED.);
#388=CARTESIAN_POINT('',(3.189749034566,1.036275808073,1.269338405373));
#389=CARTESIAN_POINT('',(3.199182355483,1.013501756721,1.269338405373));
#390=CARTESIAN_POINT('',(3.20846876641,0.991082377458,1.269338405373));
#391=CARTESIAN_POINT('',(3.217608267348,0.969017670284,1.269338405373));
#392=CARTESIAN_POINT('',(3.226600858298,0.9473076352,1.269338405373));
#393=CARTESIAN_POINT('',(3.380894753976,0.574809218729,1.269338405373));
#394=CARTESIAN_POINT('',(3.457413628123,0.195110560338,1.269338405373));
#395=CARTESIAN_POINT('',(3.457414134116,-0.1951093668,1.269338405373));
#396=CARTESIAN_POINT('',(3.380895040325,-0.574808527422,1.269338405373));
#397=CARTESIAN_POINT('',(3.226600854533,-0.947307644289,1.269338405373));
#398=CARTESIAN_POINT('',(3.217608261701,-0.969017683918,1.269338405373));
#399=CARTESIAN_POINT('',(3.208468760763,-0.991082391091,1.269338405373));
#400=CARTESIAN_POINT('',(3.199182351718,-1.01350176581,1.269338405373));
#401=CARTESIAN_POINT('',(3.189749034566,-1.036275808073,1.269338405373));
#402=ORIENTED_EDGE('',*,*,#288,.F.);
#403=( BOUNDED_SURFACE() B_SPLINE_SURFACE(2,5,((#268,#269,#270,#271,#272,#273,#274,#275,#276,#277,#278,#279,#280,#281),(#404,#405,#406,#407,#408,#409,#410,#411,#412,#413,#414,#415,#416,#417),(#388,#389,#390,#391,#392,#393,#394,#395,#396,#397,#398,#399,#400,#401)),.UNSPECIFIED.,.F.,.F.,.F.) B_SPLINE_SURFACE_WITH_KNOTS((3,3),(6,4,4,6),(0.,1.963495679168),(-0.119413470026,-1.353371911114E-07,1.96349554383,2.08290869425),.UNSPECIFIED.) GEOMETRIC_REPRESENTATION_ITEM() RATIONAL_B_SPLINE_SURFACE(((1.,1.,1.,1.,1.,1.,1.,1.,1.,1.,1.,1.,1.,1.),(0.93061798229,0.93061798229,0.93061798229,0.93061798229,0.93061798229,0.93061798229,0.93061798229,0.93061798229,0.93061798229,0.93061798229,0.93061798229,0.93061798229,0.93061798229,0.93061798229),(1.,1.,1.,1.,1.,1.,1.,1.,1.,1.,1.,1.,1.,1.))) REPRESENTATION_ITEM('') SURFACE() );
#404=CARTESIAN_POINT('',(3.264001325546,1.067032118743,1.182962690499));
#405=CARTESIAN_POINT('',(3.273140829292,1.0449674049,1.182962690499));
#406=CARTESIAN_POINT('',(3.282280331654,1.0229026944,1.182962690499));
#407=CARTESIAN_POINT('',(3.291419832631,1.000837987243,1.182962690499));
#408=CARTESIAN_POINT('',(3.300559332224,0.978773283428,1.182962690499));
#409=CARTESIAN_POINT('',(3.45997823841,0.593901998977,1.182962690499));
#410=CARTESIAN_POINT('',(3.539038746156,0.201591257513,1.182962690499));
#411=CARTESIAN_POINT('',(3.539039291386,-0.201589955698,1.182962690499));
#412=CARTESIAN_POINT('',(3.45997851584,-0.593901329202,1.182962690499));
#413=CARTESIAN_POINT('',(3.300559329455,-0.978773290113,1.182962690499));
#414=CARTESIAN_POINT('',(3.291419828478,-1.00083799727,1.182962690499));
#415=CARTESIAN_POINT('',(3.2822803275,-1.022902704428,1.182962690499));
#416=CARTESIAN_POINT('',(3.273140826523,-1.044967411585,1.182962690499));
#417=CARTESIAN_POINT('',(3.264001325546,-1.067032118743,1.182962690499));
#418=ADVANCED_FACE('',(#419),#474,.F.);
#419=FACE_BOUND('',#420,.F.);
#420=EDGE_LOOP('',(#421,#300,#430,#439));
#421=ORIENTED_EDGE('',*,*,#422,.F.);
#422=EDGE_CURVE('',#289,#423,#425,.T.);
#423=VERTEX_POINT('',#424);
#424=CARTESIAN_POINT('',(3.235446538439,-0.925952274181,1.930661594627));
#425=CIRCLE('',#426,0.485412195974);
#426=AXIS2_PLACEMENT_3D('',#427,#428,#429);
#427=CARTESIAN_POINT('',(3.563765702719,-1.061946524813,1.6));
#428=DIRECTION('',(0.382683432365,0.923879532511,0.));
#429=DIRECTION('',(-0.523404384043,0.216801194476,-0.824041924199));
#430=ORIENTED_EDGE('',*,*,#431,.T.);
#431=EDGE_CURVE('',#302,#432,#434,.T.);
#432=VERTEX_POINT('',#433);
#433=CARTESIAN_POINT('',(3.235446538439,0.925952274181,1.930661594627));
#434=CIRCLE('',#435,0.485412195974);
#435=AXIS2_PLACEMENT_3D('',#436,#437,#438);
#436=CARTESIAN_POINT('',(3.563765702719,1.061946524813,1.6));
#437=DIRECTION('',(-0.382683432365,0.923879532511,0.));
#438=DIRECTION('',(-0.523404384043,-0.216801194476,-0.824041924199));
#439=ORIENTED_EDGE('',*,*,#440,.F.);
#440=EDGE_CURVE('',#423,#432,#441,.T.);
#441=B_SPLINE_CURVE_WITH_KNOTS('',11,(#442,#443,#444,#445,#446,#447,#448,#449,#450,#451,#452,#453,#454,#455,#456,#457,#458,#459,#460,#461,#462,#463,#464,#465,#466,#467,#468,#469,#470,#471,#472,#473),.UNSPECIFIED.,.F.,.F.,(12,10,10,12),(-0.585615641583,2.901255980386E-15,13.744467859455,14.330083501039),.UNSPECIFIED.);
#442=CARTESIAN_POINT('',(3.459551942206,-0.384913969004,1.930661594627));
#443=CARTESIAN_POINT('',(3.438387116582,-0.43601037807,1.930661594627));
#444=CARTESIAN_POINT('',(3.417380612378,-0.486724565418,1.930661594627));
#445=CARTESIAN_POINT('',(3.396532429594,-0.537056531046,1.930661594627));
#446=CARTESIAN_POINT('',(3.37584256823,-0.587006274955,1.930661594627));
#447=CARTESIAN_POINT('',(3.355311028286,-0.636573797145,1.930661594627));
#448=CARTESIAN_POINT('',(3.334937809762,-0.685759097616,1.930661594627));
#449=CARTESIAN_POINT('',(3.314722912657,-0.734562176367,1.930661594627));
#450=CARTESIAN_POINT('',(3.294666336973,-0.782983033399,1.930661594627));
#451=CARTESIAN_POINT('',(3.274768082708,-0.831021668713,1.930661594627));
#452=CARTESIAN_POINT('',(3.255028149863,-0.878678082306,1.930661594627));
#453=CARTESIAN_POINT('',(2.775863819411,-2.03548310749,1.930661594627));
#454=CARTESIAN_POINT('',(1.704091980563,-2.912929929979,1.930661579303));
#455=CARTESIAN_POINT('',(0.134360577617,-3.15228097909,1.930661626176));
#456=CARTESIAN_POINT('',(-1.395396108631,-2.426388868523,1.930661560267));
#457=CARTESIAN_POINT('',(-2.473728053045,-1.026234168191,1.930661609113));
#458=CARTESIAN_POINT('',(-2.473728053056,1.026234168191,1.930661609123));
#459=CARTESIAN_POINT('',(-1.395396108622,2.426388868523,1.93066156026));
#460=CARTESIAN_POINT('',(0.134360577613,3.15228097909,1.93066162618));
#461=CARTESIAN_POINT('',(1.704091980565,2.912929929979,1.930661579301));
#462=CARTESIAN_POINT('',(2.775863819411,2.03548310749,1.930661594627));
#463=CARTESIAN_POINT('',(3.255028149863,0.878678082306,1.930661594627));
#464=CARTESIAN_POINT('',(3.274768082708,0.831021668713,1.930661594627));
#465=CARTESIAN_POINT('',(3.294666336973,0.782983033399,1.930661594627));
#466=CARTESIAN_POINT('',(3.314722912657,0.734562176367,1.930661594627));
#467=CARTESIAN_POINT('',(3.334937809762,0.685759097616,1.930661594627));
#468=CARTESIAN_POINT('',(3.355311028286,0.636573797145,1.930661594627));
#469=CARTESIAN_POINT('',(3.37584256823,0.587006274955,1.930661594627));
#470=CARTESIAN_POINT('',(3.396532429594,0.537056531046,1.930661594627));
#471=CARTESIAN_POINT('',(3.417380612378,0.486724565418,1.930661594627));
#472=CARTESIAN_POINT('',(3.438387116582,0.436010378071,1.930661594627));
#473=CARTESIAN_POINT('',(3.459551942206,0.384913969004,1.930661594627));
#474=SURFACE_OF_REVOLUTION('',#425,#195);
#475=ADVANCED_FACE('',(#476),#560,.F.);
#476=FACE_BOUND('',#477,.F.);
#477=EDGE_LOOP('',(#478,#385,#479,#480,#499,#509,#526,#531,#548,#558));
#478=ORIENTED_EDGE('',*,*,#431,.F.);
#479=ORIENTED_EDGE('',*,*,#422,.T.);
#480=ORIENTED_EDGE('',*,*,#481,.F.);
#481=EDGE_CURVE('',#482,#423,#484,.T.);
#482=VERTEX_POINT('',#483);
#483=CARTESIAN_POINT('',(3.406679829997,-0.25,1.930661594627));
#484=B_SPLINE_CURVE_WITH_KNOTS('',5,(#485,#486,#487,#488,#489,#490,#491,#492,#493,#494,#495,#496,#497,#498),.UNSPECIFIED.,.F.,.F.,(6,4,4,6),(-0.119413470026,-1.353371911203E-07,1.96349554383,2.08290869425),.UNSPECIFIED.);
#485=CARTESIAN_POINT('',(3.189749034566,1.036275808073,1.930661594627));
#486=CARTESIAN_POINT('',(3.199182355483,1.013501756721,1.930661594627));
#487=CARTESIAN_POINT('',(3.20846876641,0.991082377458,1.930661594627));
#488=CARTESIAN_POINT('',(3.217608267348,0.969017670284,1.930661594627));
#489=CARTESIAN_POINT('',(3.226600858298,0.9473076352,1.930661594627));
#490=CARTESIAN_POINT('',(3.380894753976,0.574809218729,1.930661594627));
#491=CARTESIAN_POINT('',(3.457413628123,0.195110560338,1.930661594627));
#492=CARTESIAN_POINT('',(3.457414134116,-0.1951093668,1.930661594627));
#493=CARTESIAN_POINT('',(3.380895040325,-0.574808527422,1.930661594627));
#494=CARTESIAN_POINT('',(3.226600854533,-0.947307644289,1.930661594627));
#495=CARTESIAN_POINT('',(3.217608261701,-0.969017683918,1.930661594627));
#496=CARTESIAN_POINT('',(3.208468760763,-0.991082391091,1.930661594627));
#497=CARTESIAN_POINT('',(3.199182351718,-1.01350176581,1.930661594627));
#498=CARTESIAN_POINT('',(3.189749034566,-1.036275808073,1.930661594627));
#499=ORIENTED_EDGE('',*,*,#500,.F.);
#500=EDGE_CURVE('',#501,#482,#503,.T.);
#501=VERTEX_POINT('',#502);
#502=CARTESIAN_POINT('',(3.299471489861,-0.25,1.749));
#503=B_SPLINE_CURVE_WITH_KNOTS('',5,(#502,#504,#505,#506,#507,#508),.UNSPECIFIED.,.F.,.F.,(6,6),(0.,1.),.PIECEWISE_BEZIER_KNOTS.);
#504=CARTESIAN_POINT('',(3.312587202196,-0.25,1.789427365424));
#505=CARTESIAN_POINT('',(3.33014872115,-0.25,1.828424172249));
#506=CARTESIAN_POINT('',(3.351941636815,-0.25,1.865341021624));
#507=CARTESIAN_POINT('',(3.377608548406,-0.25,1.899584994083));
#508=CARTESIAN_POINT('',(3.40668024473,-0.25,1.930661807849));
#509=ORIENTED_EDGE('',*,*,#510,.T.);
#510=EDGE_CURVE('',#501,#511,#513,.T.);
#511=VERTEX_POINT('',#512);
#512=CARTESIAN_POINT('',(3.299999782609,-1.E-03,1.5));
#513=B_SPLINE_CURVE_WITH_KNOTS('',7,(#502,#514,#515,#516,#517,#518,#519,#520,#521,#522,#523,#524,#525,#512),.UNSPECIFIED.,.F.,.F.,(8,6,8),(0.,0.656899903514,1.),.UNSPECIFIED.);
#514=CARTESIAN_POINT('',(3.288903887063,-0.25,1.716426818984));
#515=CARTESIAN_POINT('',(3.281699509879,-0.245028477564,1.683385522006));
#516=CARTESIAN_POINT('',(3.278045828963,-0.234830048078,1.650728113424));
#517=CARTESIAN_POINT('',(3.277713110475,-0.219290375561,1.619367410059));
#518=CARTESIAN_POINT('',(3.280087341319,-0.198436579318,1.590251266333));
#519=CARTESIAN_POINT('',(3.284149886785,-0.172302430004,1.564384728938));
#520=CARTESIAN_POINT('',(3.29090216963,-0.124770531607,1.532041582647));
#521=CARTESIAN_POINT('',(3.293310489781,-0.107148532185,1.522255641965));
#522=CARTESIAN_POINT('',(3.295638205192,-8.813505246606E-02,1.513869244735));
#523=CARTESIAN_POINT('',(3.297696231285,-6.772624403228E-02,1.507131244826));
#524=CARTESIAN_POINT('',(3.2992147289,-4.608658790058E-02,1.502401965702));
#525=CARTESIAN_POINT('',(3.299989938095,-2.364237892977E-02,1.5));
#526=ORIENTED_EDGE('',*,*,#527,.T.);
#527=EDGE_CURVE('',#511,#528,#530,.T.);
#528=VERTEX_POINT('',#529);
#529=CARTESIAN_POINT('',(3.299999782609,9.999999999998E-04,1.5));
#530=B_SPLINE_CURVE_WITH_KNOTS('',1,(#512,#529),.UNSPECIFIED.,.F.,.F.,(2,2),(0.,1.),.PIECEWISE_BEZIER_KNOTS.);
#531=ORIENTED_EDGE('',*,*,#532,.T.);
#532=EDGE_CURVE('',#528,#533,#535,.T.);
#533=VERTEX_POINT('',#534);
#534=CARTESIAN_POINT('',(3.299471489861,0.25,1.749));
#535=B_SPLINE_CURVE_WITH_KNOTS('',7,(#529,#536,#537,#538,#539,#540,#541,#542,#543,#544,#545,#546,#547,#534),.UNSPECIFIED.,.F.,.F.,(8,6,8),(0.,0.343710672019,1.),.UNSPECIFIED.);
#536=CARTESIAN_POINT('',(3.299989920585,2.368265119001E-02,1.5));
#537=CARTESIAN_POINT('',(3.299211971008,4.616604948054E-02,1.502410516981));
#538=CARTESIAN_POINT('',(3.297688162784,6.784108201107E-02,1.507156358887));
#539=CARTESIAN_POINT('',(3.295623636424,8.827968087268E-02,1.513916973069));
#540=CARTESIAN_POINT('',(3.293289812594,0.10731720987,1.522330091337));
#541=CARTESIAN_POINT('',(3.290876523628,0.124958092937,1.532145912779));
#542=CARTESIAN_POINT('',(3.284127396232,0.172447200062,1.564528141918));
#543=CARTESIAN_POINT('',(3.280076399241,0.198532790636,1.590385718193));
#544=CARTESIAN_POINT('',(3.277714368661,0.21934776166,1.619483238628));
#545=CARTESIAN_POINT('',(3.278055943653,0.234858301632,1.650818612401));
#546=CARTESIAN_POINT('',(3.281712830825,0.245037663177,1.683446586849));
#547=CARTESIAN_POINT('',(3.288913652378,0.25,1.716456919224));
#548=ORIENTED_EDGE('',*,*,#549,.T.);
#549=EDGE_CURVE('',#533,#550,#552,.T.);
#550=VERTEX_POINT('',#551);
#551=CARTESIAN_POINT('',(3.40667978278,0.25,1.930661594627));
#552=B_SPLINE_CURVE_WITH_KNOTS('',5,(#534,#553,#554,#555,#556,#557),.UNSPECIFIED.,.F.,.F.,(6,6),(0.,1.),.PIECEWISE_BEZIER_KNOTS.);
#553=CARTESIAN_POINT('',(3.312587202196,0.25,1.789427365424));
#554=CARTESIAN_POINT('',(3.33014872115,0.25,1.828424172249));
#555=CARTESIAN_POINT('',(3.351941636815,0.25,1.865341021624));
#556=CARTESIAN_POINT('',(3.377608548406,0.25,1.899584994083));
#557=CARTESIAN_POINT('',(3.40668024473,0.25,1.930661807849));
#558=ORIENTED_EDGE('',*,*,#559,.F.);
#559=EDGE_CURVE('',#432,#550,#484,.T.);
#560=SURFACE_OF_REVOLUTION('',#434,#195);
#561=ADVANCED_FACE('',(#562),#625,.T.);
#562=FACE_BOUND('',#563,.T.);
#563=EDGE_LOOP('',(#564,#577,#614,#439));
#564=ORIENTED_EDGE('',*,*,#565,.T.);
#565=EDGE_CURVE('',#423,#566,#568,.T.);
#566=VERTEX_POINT('',#567);
#567=CARTESIAN_POINT('',(3.309698831278,-0.956708580913,2.135020857149));
#568=B_SPLINE_CURVE_WITH_KNOTS('',5,(#424,#569,#570,#571,#572,#573,#574,#575,#576,#567),.UNSPECIFIED.,.F.,.F.,(6,4,6),(0.,0.5,1.),.UNSPECIFIED.);
#569=CARTESIAN_POINT('',(3.249271815997,-0.93167889165,1.946744172007));
#570=CARTESIAN_POINT('',(3.261973435419,-0.936940074678,1.964470589246));
#571=CARTESIAN_POINT('',(3.273234543788,-0.941604578492,1.9836790636));
#572=CARTESIAN_POINT('',(3.282778034968,-0.945557621971,2.004056935692));
#573=CARTESIAN_POINT('',(3.298159251937,-0.951928730645,2.046389556494));
#574=CARTESIAN_POINT('',(3.303997166347,-0.95434687397,2.068344824333));
#575=CARTESIAN_POINT('',(3.307841659805,-0.955939315301,2.090710414983));
#576=CARTESIAN_POINT('',(3.30969883117,-0.956708580868,2.113053113924));
#577=ORIENTED_EDGE('',*,*,#578,.T.);
#578=EDGE_CURVE('',#566,#579,#581,.T.);
#579=VERTEX_POINT('',#580);
#580=CARTESIAN_POINT('',(3.309698831278,0.956708580913,2.135020857149));
#581=B_SPLINE_CURVE_WITH_KNOTS('',11,(#582,#583,#584,#585,#586,#587,#588,#589,#590,#591,#592,#593,#594,#595,#596,#597,#598,#599,#600,#601,#602,#603,#604,#605,#606,#607,#608,#609,#610,#611,#612,#613),.UNSPECIFIED.,.F.,.F.,(12,10,10,12),(-0.585615641583,2.901255980386E-15,13.744467859455,14.330083501039),.UNSPECIFIED.);
#582=CARTESIAN_POINT('',(3.533804235046,-0.415670275735,2.135020857149));
#583=CARTESIAN_POINT('',(3.513289829604,-0.465196431576,2.135020857149));
#584=CARTESIAN_POINT('',(3.492803661547,-0.514654416342,2.135020857149));
#585=CARTESIAN_POINT('',(3.472345730872,-0.564044230035,2.135020857149));
#586=CARTESIAN_POINT('',(3.451916037581,-0.613365872653,2.135020857149));
#587=CARTESIAN_POINT('',(3.431514581673,-0.662619344198,2.135020857149));
#588=CARTESIAN_POINT('',(3.411141363149,-0.711804644669,2.135020857149));
#589=CARTESIAN_POINT('',(3.390796382008,-0.760921774065,2.135020857149));
#590=CARTESIAN_POINT('',(3.370479638251,-0.809970732388,2.135020857149));
#591=CARTESIAN_POINT('',(3.350191131876,-0.858951519637,2.135020857149));
#592=CARTESIAN_POINT('',(3.329930862886,-0.907864135812,2.135020857149));
#593=CARTESIAN_POINT('',(2.834850674205,-2.103093441788,2.135020857149));
#594=CARTESIAN_POINT('',(1.727586252495,-3.009448724487,2.135020937091));
#595=CARTESIAN_POINT('',(0.10585501195,-3.257464103805,2.135020692567));
#596=CARTESIAN_POINT('',(-1.475741298782,-2.5067600004,2.135021036405));
#597=CARTESIAN_POINT('',(-2.588653308495,-1.059860959899,2.135020781556));
#598=CARTESIAN_POINT('',(-2.588653308509,1.059860959899,2.135020781567));
#599=CARTESIAN_POINT('',(-1.475741298771,2.5067600004,2.135021036396));
#600=CARTESIAN_POINT('',(0.105855011945,3.257464103806,2.135020692572));
#601=CARTESIAN_POINT('',(1.727586252497,3.009448724487,2.135020937089));
#602=CARTESIAN_POINT('',(2.834850674204,2.103093441788,2.135020857149));
#603=CARTESIAN_POINT('',(3.329930862886,0.907864135812,2.135020857149));
#604=CARTESIAN_POINT('',(3.350191131876,0.858951519637,2.135020857149));
#605=CARTESIAN_POINT('',(3.370479638251,0.809970732388,2.135020857149));
#606=CARTESIAN_POINT('',(3.390796382008,0.760921774065,2.135020857149));
#607=CARTESIAN_POINT('',(3.411141363149,0.711804644669,2.135020857149));
#608=CARTESIAN_POINT('',(3.431514581673,0.662619344198,2.135020857149));
#609=CARTESIAN_POINT('',(3.451916037581,0.613365872653,2.135020857149));
#610=CARTESIAN_POINT('',(3.472345730872,0.564044230035,2.135020857149));
#611=CARTESIAN_POINT('',(3.492803661547,0.514654416342,2.135020857149));
#612=CARTESIAN_POINT('',(3.513289829605,0.465196431576,2.135020857149));
#613=CARTESIAN_POINT('',(3.533804235046,0.415670275736,2.135020857149));
#614=ORIENTED_EDGE('',*,*,#615,.F.);
#615=EDGE_CURVE('',#432,#579,#616,.T.);
#616=B_SPLINE_CURVE_WITH_KNOTS('',5,(#433,#617,#618,#619,#620,#621,#622,#623,#624,#580),.UNSPECIFIED.,.F.,.F.,(6,4,6),(0.,0.5,1.),.UNSPECIFIED.);
#617=CARTESIAN_POINT('',(3.249271815997,0.93167889165,1.946744172007));
#618=CARTESIAN_POINT('',(3.261973435419,0.936940074678,1.964470589246));
#619=CARTESIAN_POINT('',(3.273234543788,0.941604578492,1.9836790636));
#620=CARTESIAN_POINT('',(3.282778034968,0.945557621971,2.004056935692));
#621=CARTESIAN_POINT('',(3.298159251937,0.951928730645,2.046389556494));
#622=CARTESIAN_POINT('',(3.303997166347,0.95434687397,2.068344824333));
#623=CARTESIAN_POINT('',(3.307841659805,0.955939315301,2.090710414983));
#624=CARTESIAN_POINT('',(3.30969883117,0.956708580868,2.113053113924));
#625=( BOUNDED_SURFACE() B_SPLINE_SURFACE(2,11,((#442,#443,#444,#445,#446,#447,#448,#449,#450,#451,#452,#453,#454,#455,#456,#457,#458,#459,#460,#461,#462,#463,#464,#465,#466,#467,#468,#469,#470,#471,#472,#473),(#626,#627,#628,#629,#630,#631,#632,#633,#634,#635,#636,#637,#638,#639,#640,#641,#642,#643,#644,#645,#646,#647,#648,#649,#650,#651,#652,#653,#654,#655,#656,#657),(#582,#583,#584,#585,#586,#587,#588,#589,#590,#591,#592,#593,#594,#595,#596,#597,#598,#599,#600,#601,#602,#603,#604,#605,#606,#607,#608,#609,#610,#611,#612,#613)),.UNSPECIFIED.,.F.,.F.,.F.) B_SPLINE_SURFACE_WITH_KNOTS((3,3),(12,10,10,12),(0.,13.744467859455),(-0.585615641583,2.901255980386E-15,13.744467859455,14.330083501039),.UNSPECIFIED.) GEOMETRIC_REPRESENTATION_ITEM() RATIONAL_B_SPLINE_SURFACE(((1.,1.,1.,1.,1.,1.,1.,1.,1.,1.,1.,1.,1.,1.,1.,1.,1.,1.,1.,1.,1.,1.,1.,1.,1.,1.,1.,1.,1.,1.,1.,1.),(0.93061798229,0.93061798229,0.93061798229,0.93061798229,0.93061798229,0.93061798229,0.93061798229,0.93061798229,0.93061798229,0.93061798229,0.93061798229,0.93061798229,0.930617902914,0.930618145705,0.930617804307,0.93061805734,0.930618057345,0.930617804303,0.930618145707,0.930617902913,0.93061798229,0.93061798229,0.93061798229,0.93061798229,0.93061798229,0.93061798229,0.93061798229,0.93061798229,0.93061798229,0.93061798229,0.93061798229,0.93061798229),(1.,1.,1.,1.,1.,1.,1.,1.,1.,1.,1.,1.,1.,1.,1.,1.,1.,1.,1.,1.,1.,1.,1.,1.,1.,1.,1.,1.,1.,1.,1.,1.))) REPRESENTATION_ITEM('') SURFACE() );
#626=CARTESIAN_POINT('',(3.533804235046,-0.415670275735,2.017037309501));
#627=CARTESIAN_POINT('',(3.513289829604,-0.465196431576,2.017037309501));
#628=CARTESIAN_POINT('',(3.492803661547,-0.514654416342,2.017037309501));
#629=CARTESIAN_POINT('',(3.472345730872,-0.564044230035,2.017037309501));
#630=CARTESIAN_POINT('',(3.451916037581,-0.613365872653,2.017037309501));
#631=CARTESIAN_POINT('',(3.431514581673,-0.662619344198,2.017037309501));
#632=CARTESIAN_POINT('',(3.411141363149,-0.711804644669,2.017037309501));
#633=CARTESIAN_POINT('',(3.390796382008,-0.760921774065,2.017037309501));
#634=CARTESIAN_POINT('',(3.37047963825,-0.809970732388,2.017037309501));
#635=CARTESIAN_POINT('',(3.350191131876,-0.858951519637,2.017037309501));
#636=CARTESIAN_POINT('',(3.329930862886,-0.907864135812,2.017037309501));
#637=CARTESIAN_POINT('',(2.834850674205,-2.103093441788,2.017037309501));
#638=CARTESIAN_POINT('',(1.727586214542,-3.009448936944,2.017037314315));
#639=CARTESIAN_POINT('',(0.105855341319,-3.257463206685,2.01703729959));
#640=CARTESIAN_POINT('',(-1.475741895236,-2.506761759151,2.017037320295));
#641=CARTESIAN_POINT('',(-2.588652975413,-1.05985863781,2.017037304949));
#642=CARTESIAN_POINT('',(-2.58865297541,1.059858637805,2.017037304949));
#643=CARTESIAN_POINT('',(-1.475741895234,2.506761759161,2.017037320295));
#644=CARTESIAN_POINT('',(0.105855341315,3.257463206678,2.01703729959));
#645=CARTESIAN_POINT('',(1.727586214545,3.009448936946,2.017037314315));
#646=CARTESIAN_POINT('',(2.834850674204,2.103093441787,2.017037309501));
#647=CARTESIAN_POINT('',(3.329930862886,0.907864135812,2.017037309501));
#648=CARTESIAN_POINT('',(3.350191131876,0.858951519637,2.017037309501));
#649=CARTESIAN_POINT('',(3.370479638251,0.809970732388,2.017037309501));
#650=CARTESIAN_POINT('',(3.390796382008,0.760921774065,2.017037309501));
#651=CARTESIAN_POINT('',(3.411141363149,0.711804644669,2.017037309501));
#652=CARTESIAN_POINT('',(3.431514581674,0.662619344198,2.017037309501));
#653=CARTESIAN_POINT('',(3.451916037581,0.613365872653,2.017037309501));
#654=CARTESIAN_POINT('',(3.472345730872,0.564044230035,2.017037309501));
#655=CARTESIAN_POINT('',(3.492803661547,0.514654416342,2.017037309501));
#656=CARTESIAN_POINT('',(3.513289829605,0.465196431576,2.017037309501));
#657=CARTESIAN_POINT('',(3.533804235046,0.415670275736,2.017037309501));
#658=ADVANCED_FACE('',(#659),#692,.T.);
#659=FACE_BOUND('',#660,.T.);
#660=EDGE_LOOP('',(#558,#661,#662,#681));
#661=ORIENTED_EDGE('',*,*,#615,.T.);
#662=ORIENTED_EDGE('',*,*,#663,.T.);
#663=EDGE_CURVE('',#579,#664,#666,.T.);
#664=VERTEX_POINT('',#665);
#665=CARTESIAN_POINT('',(3.487468271461,0.25,2.135020857149));
#666=B_SPLINE_CURVE_WITH_KNOTS('',5,(#667,#668,#669,#670,#671,#672,#673,#674,#675,#676,#677,#678,#679,#680),.UNSPECIFIED.,.F.,.F.,(6,4,4,6),(-0.119413470026,-1.353371911203E-07,1.96349554383,2.08290869425),.UNSPECIFIED.);
#667=CARTESIAN_POINT('',(3.264001325546,1.067032118743,2.135020857149));
#668=CARTESIAN_POINT('',(3.273140829292,1.0449674049,2.135020857149));
#669=CARTESIAN_POINT('',(3.282280331654,1.0229026944,2.135020857149));
#670=CARTESIAN_POINT('',(3.291419832631,1.000837987243,2.135020857149));
#671=CARTESIAN_POINT('',(3.300559332224,0.978773283428,2.135020857149));
#672=CARTESIAN_POINT('',(3.45997823841,0.593901998977,2.135020857149));
#673=CARTESIAN_POINT('',(3.539038746156,0.201591257513,2.135020857149));
#674=CARTESIAN_POINT('',(3.539039291386,-0.201589955698,2.135020857149));
#675=CARTESIAN_POINT('',(3.45997851584,-0.593901329202,2.135020857149));
#676=CARTESIAN_POINT('',(3.300559329455,-0.978773290113,2.135020857149));
#677=CARTESIAN_POINT('',(3.291419828478,-1.00083799727,2.135020857149));
#678=CARTESIAN_POINT('',(3.2822803275,-1.022902704428,2.135020857149));
#679=CARTESIAN_POINT('',(3.273140826523,-1.044967411585,2.135020857149));
#680=CARTESIAN_POINT('',(3.264001325546,-1.067032118743,2.135020857149));
#681=ORIENTED_EDGE('',*,*,#682,.T.);
#682=EDGE_CURVE('',#664,#550,#683,.T.);
#683=B_SPLINE_CURVE_WITH_KNOTS('',5,(#665,#684,#685,#686,#687,#688,#689,#690,#691,#551),.UNSPECIFIED.,.F.,.F.,(6,4,6),(0.,0.48758179705,1.),.UNSPECIFIED.);
#684=CARTESIAN_POINT('',(3.487468270657,0.25,2.113553317448));
#685=CARTESIAN_POINT('',(3.485538793119,0.25,2.091758528998));
#686=CARTESIAN_POINT('',(3.481559474663,0.25,2.069958867169));
#687=CARTESIAN_POINT('',(3.475526468276,0.25,2.048540658581));
#688=CARTESIAN_POINT('',(3.459209148069,0.25,2.006097182303));
#689=CARTESIAN_POINT('',(3.448723867052,0.25,1.985147071589));
#690=CARTESIAN_POINT('',(3.436260723432,0.25,1.965395047985));
#691=CARTESIAN_POINT('',(3.422126648559,0.25,1.947173883242));
#692=( BOUNDED_SURFACE() B_SPLINE_SURFACE(2,5,((#485,#486,#487,#488,#489,#490,#491,#492,#493,#494,#495,#496,#497,#498),(#693,#694,#695,#696,#697,#698,#699,#700,#701,#702,#703,#704,#705,#706),(#667,#668,#669,#670,#671,#672,#673,#674,#675,#676,#677,#678,#679,#680)),.UNSPECIFIED.,.F.,.F.,.F.) B_SPLINE_SURFACE_WITH_KNOTS((3,3),(6,4,4,6),(0.,1.963495679168),(-0.119413470026,-1.353371911203E-07,1.96349554383,2.08290869425),.UNSPECIFIED.) GEOMETRIC_REPRESENTATION_ITEM() RATIONAL_B_SPLINE_SURFACE(((1.,1.,1.,1.,1.,1.,1.,1.,1.,1.,1.,1.,1.,1.),(0.93061798229,0.93061798229,0.93061798229,0.93061798229,0.93061798229,0.93061798229,0.93061798229,0.93061798229,0.93061798229,0.93061798229,0.93061798229,0.93061798229,0.93061798229,0.93061798229),(1.,1.,1.,1.,1.,1.,1.,1.,1.,1.,1.,1.,1.,1.))) REPRESENTATION_ITEM('') SURFACE() );
#693=CARTESIAN_POINT('',(3.264001325546,1.067032118743,2.017037309501));
#694=CARTESIAN_POINT('',(3.273140829292,1.0449674049,2.017037309501));
#695=CARTESIAN_POINT('',(3.282280331654,1.0229026944,2.017037309501));
#696=CARTESIAN_POINT('',(3.291419832631,1.000837987243,2.017037309501));
#697=CARTESIAN_POINT('',(3.300559332224,0.978773283428,2.017037309501));
#698=CARTESIAN_POINT('',(3.45997823841,0.593901998977,2.017037309501));
#699=CARTESIAN_POINT('',(3.539038746156,0.201591257513,2.017037309501));
#700=CARTESIAN_POINT('',(3.539039291386,-0.201589955698,2.017037309501));
#701=CARTESIAN_POINT('',(3.45997851584,-0.593901329202,2.017037309501));
#702=CARTESIAN_POINT('',(3.300559329455,-0.978773290113,2.017037309501));
#703=CARTESIAN_POINT('',(3.291419828478,-1.00083799727,2.017037309501));
#704=CARTESIAN_POINT('',(3.2822803275,-1.022902704428,2.017037309501));
#705=CARTESIAN_POINT('',(3.273140826523,-1.044967411585,2.017037309501));
#706=CARTESIAN_POINT('',(3.264001325546,-1.067032118743,2.017037309501));
#707=ADVANCED_FACE('',(#708),#560,.F.);
#708=FACE_BOUND('',#709,.F.);
#709=EDGE_LOOP('',(#710,#712,#713,#714,#715,#716));
#710=ORIENTED_EDGE('',*,*,#711,.F.);
#711=EDGE_CURVE('',#550,#482,#484,.T.);
#712=ORIENTED_EDGE('',*,*,#549,.F.);
#713=ORIENTED_EDGE('',*,*,#532,.F.);
#714=ORIENTED_EDGE('',*,*,#527,.F.);
#715=ORIENTED_EDGE('',*,*,#510,.F.);
#716=ORIENTED_EDGE('',*,*,#500,.T.);
#717=ADVANCED_FACE('',(#718),#692,.T.);
#718=FACE_BOUND('',#719,.T.);
#719=EDGE_LOOP('',(#480,#720,#733,#735));
#720=ORIENTED_EDGE('',*,*,#721,.F.);
#721=EDGE_CURVE('',#722,#482,#724,.T.);
#722=VERTEX_POINT('',#723);
#723=CARTESIAN_POINT('',(3.487468315832,-0.25,2.135020857149));
#724=B_SPLINE_CURVE_WITH_KNOTS('',5,(#723,#725,#726,#727,#728,#729,#730,#731,#732,#483),.UNSPECIFIED.,.F.,.F.,(6,4,6),(0.,0.487581797268,1.),.UNSPECIFIED.);
#725=CARTESIAN_POINT('',(3.487468315028,-0.25,2.113553317453));
#726=CARTESIAN_POINT('',(3.485538837558,-0.25,2.091758529008));
#727=CARTESIAN_POINT('',(3.48155951924,-0.25,2.069958867183));
#728=CARTESIAN_POINT('',(3.475526513064,-0.25,2.048540658594));
#729=CARTESIAN_POINT('',(3.45920919343,-0.25,2.006097182322));
#730=CARTESIAN_POINT('',(3.448723912786,-0.25,1.985147071614));
#731=CARTESIAN_POINT('',(3.436260769607,-0.25,1.965395048007));
#732=CARTESIAN_POINT('',(3.422126695234,-0.25,1.947173883255));
#733=ORIENTED_EDGE('',*,*,#734,.T.);
#734=EDGE_CURVE('',#722,#566,#666,.T.);
#735=ORIENTED_EDGE('',*,*,#565,.F.);
#736=ADVANCED_FACE('',(#737),#756,.T.);
#737=FACE_BOUND('',#738,.F.);
#738=EDGE_LOOP('',(#739,#577,#745,#751));
#739=ORIENTED_EDGE('',*,*,#740,.F.);
#740=EDGE_CURVE('',#566,#741,#743,.T.);
#741=VERTEX_POINT('',#742);
#742=CARTESIAN_POINT('',(3.309698831278,-0.956708580913,4.8));
#743=LINE('',#744,#215);
#744=CARTESIAN_POINT('',(3.309698831278,-0.956708580913,2.));
#745=ORIENTED_EDGE('',*,*,#746,.T.);
#746=EDGE_CURVE('',#579,#747,#749,.T.);
#747=VERTEX_POINT('',#748);
#748=CARTESIAN_POINT('',(3.309698831278,0.956708580913,4.8));
#749=LINE('',#750,#215);
#750=CARTESIAN_POINT('',(3.309698831278,0.956708580913,2.));
#751=ORIENTED_EDGE('',*,*,#752,.F.);
#752=EDGE_CURVE('',#741,#747,#753,.T.);
#753=CIRCLE('',#754,2.5);
#754=AXIS2_PLACEMENT_3D('',#755,#44,#101);
#755=CARTESIAN_POINT('',(1.,0.,4.8));
#756=CYLINDRICAL_SURFACE('',#757,2.5);
#757=AXIS2_PLACEMENT_3D('',#758,#13,#101);
#758=CARTESIAN_POINT('',(1.,0.,2.));
#759=ADVANCED_FACE('',(#760),#692,.T.);
#760=FACE_BOUND('',#761,.T.);
#761=EDGE_LOOP('',(#710,#762,#763,#765));
#762=ORIENTED_EDGE('',*,*,#682,.F.);
#763=ORIENTED_EDGE('',*,*,#764,.T.);
#764=EDGE_CURVE('',#664,#722,#666,.T.);
#765=ORIENTED_EDGE('',*,*,#721,.T.);
#766=ADVANCED_FACE('',(#767),#822,.T.);
#767=FACE_BOUND('',#768,.F.);
#768=EDGE_LOOP('',(#769,#662,#770,#776,#781,#794,#801,#813,#733,#817,#818));
#769=ORIENTED_EDGE('',*,*,#746,.F.);
#770=ORIENTED_EDGE('',*,*,#771,.T.);
#771=EDGE_CURVE('',#664,#772,#774,.T.);
#772=VERTEX_POINT('',#773);
#773=CARTESIAN_POINT('',(3.487468592767,0.25,3.251));
#774=LINE('',#775,#215);
#775=CARTESIAN_POINT('',(3.487468592767,0.25,2.));
#776=ORIENTED_EDGE('',*,*,#777,.T.);
#777=EDGE_CURVE('',#772,#778,#780,.T.);
#778=VERTEX_POINT('',#779);
#779=CARTESIAN_POINT('',(3.487468622767,0.249999701504,3.251385552896));
#780=B_SPLINE_CURVE_WITH_KNOTS('',1,(#773,#779),.UNSPECIFIED.,.F.,.F.,(2,2),(0.,1.),.PIECEWISE_BEZIER_KNOTS.);
#781=ORIENTED_EDGE('',*,*,#782,.T.);
#782=EDGE_CURVE('',#778,#783,#785,.T.);
#783=VERTEX_POINT('',#784);
#784=CARTESIAN_POINT('',(3.4999998,9.999999999997E-04,3.5));
#785=B_SPLINE_CURVE_WITH_KNOTS('',8,(#779,#786,#787,#788,#789,#790,#791,#792,#793),.UNSPECIFIED.,.F.,.F.,(9,9),(0.,1.),.PIECEWISE_BEZIER_KNOTS.);
#786=CARTESIAN_POINT('',(3.487475806375,0.249928225413,3.297546599758));
#787=CARTESIAN_POINT('',(3.488466071569,0.240076163387,3.344468713965));
#788=CARTESIAN_POINT('',(3.490495528585,0.21986657353,3.389460295011));
#789=CARTESIAN_POINT('',(3.493300225575,0.189774954381,3.429823601109));
#790=CARTESIAN_POINT('',(3.496267732898,0.150859143254,3.463130702916));
#791=CARTESIAN_POINT('',(3.49867859983,0.104848949188,3.487152152151));
#792=CARTESIAN_POINT('',(3.499978637521,5.390619388061E-02,3.5));
#793=CARTESIAN_POINT('',(3.4999998,1.E-03,3.5));
#794=ORIENTED_EDGE('',*,*,#795,.F.);
#795=EDGE_CURVE('',#796,#783,#798,.T.);
#796=VERTEX_POINT('',#797);
#797=CARTESIAN_POINT('',(3.4999998,-1.E-03,3.5));
#798=CIRCLE('',#799,2.5);
#799=AXIS2_PLACEMENT_3D('',#800,#13,#115);
#800=CARTESIAN_POINT('',(1.,0.,3.5));
#801=ORIENTED_EDGE('',*,*,#802,.T.);
#802=EDGE_CURVE('',#796,#803,#805,.T.);
#803=VERTEX_POINT('',#804);
#804=CARTESIAN_POINT('',(3.487468592767,-0.25,3.251));
#805=B_SPLINE_CURVE_WITH_KNOTS('',8,(#797,#806,#807,#808,#809,#810,#811,#812,#804),.UNSPECIFIED.,.F.,.F.,(9,9),(0.,1.),.PIECEWISE_BEZIER_KNOTS.);
#806=CARTESIAN_POINT('',(3.499978617055,-5.395735907235E-02,3.5));
#807=CARTESIAN_POINT('',(3.498676082177,-0.104950526163,3.487127296357));
#808=CARTESIAN_POINT('',(3.496260480392,-0.151000424553,3.46305838894));
#809=CARTESIAN_POINT('',(3.493287896111,-0.189937008149,3.429686411631));
#810=CARTESIAN_POINT('',(3.49048081622,-0.220024282271,3.389249497325));
#811=CARTESIAN_POINT('',(3.488453332589,-0.240202972637,3.344185621158));
#812=CARTESIAN_POINT('',(3.487468592767,-0.25,3.297202715395));
#813=ORIENTED_EDGE('',*,*,#814,.F.);
#814=EDGE_CURVE('',#722,#803,#815,.T.);
#815=LINE('',#816,#215);
#816=CARTESIAN_POINT('',(3.487468592767,-0.25,2.));
#817=ORIENTED_EDGE('',*,*,#740,.T.);
#818=ORIENTED_EDGE('',*,*,#819,.F.);
#819=EDGE_CURVE('',#747,#741,#820,.T.);
#820=CIRCLE('',#821,2.5);
#821=AXIS2_PLACEMENT_3D('',#755,#44,#115);
#822=CYLINDRICAL_SURFACE('',#823,2.5);
#823=AXIS2_PLACEMENT_3D('',#758,#13,#115);
#824=ADVANCED_FACE('',(#825),#847,.T.);
#825=FACE_BOUND('',#826,.F.);
#826=EDGE_LOOP('',(#827,#828,#835,#842));
#827=ORIENTED_EDGE('',*,*,#752,.T.);
#828=ORIENTED_EDGE('',*,*,#829,.T.);
#829=EDGE_CURVE('',#747,#830,#832,.T.);
#830=VERTEX_POINT('',#831);
#831=CARTESIAN_POINT('',(3.124922924776,0.88017189444,5.));
#832=CIRCLE('',#833,0.2);
#833=AXIS2_PLACEMENT_3D('',#834,#181,#115);
#834=CARTESIAN_POINT('',(3.124922924776,0.88017189444,4.8));
#835=ORIENTED_EDGE('',*,*,#836,.F.);
#836=EDGE_CURVE('',#837,#830,#839,.T.);
#837=VERTEX_POINT('',#838);
#838=CARTESIAN_POINT('',(3.124922924776,-0.88017189444,5.));
#839=CIRCLE('',#840,2.3);
#840=AXIS2_PLACEMENT_3D('',#841,#44,#101);
#841=CARTESIAN_POINT('',(1.,0.,5.));
#842=ORIENTED_EDGE('',*,*,#843,.F.);
#843=EDGE_CURVE('',#741,#837,#844,.T.);
#844=CIRCLE('',#845,0.2);
#845=AXIS2_PLACEMENT_3D('',#846,#193,#101);
#846=CARTESIAN_POINT('',(3.124922924776,-0.88017189444,4.8));
#847=TOROIDAL_SURFACE('',#848,2.3,0.2);
#848=AXIS2_PLACEMENT_3D('',#755,#13,#101);
#849=ADVANCED_FACE('',(#850),#822,.T.);
#850=FACE_BOUND('',#851,.F.);
#851=EDGE_LOOP('',(#852,#763,#853,#854,#855,#856,#857));
#852=ORIENTED_EDGE('',*,*,#771,.F.);
#853=ORIENTED_EDGE('',*,*,#814,.T.);
#854=ORIENTED_EDGE('',*,*,#802,.F.);
#855=ORIENTED_EDGE('',*,*,#795,.T.);
#856=ORIENTED_EDGE('',*,*,#782,.F.);
#857=ORIENTED_EDGE('',*,*,#777,.F.);
#858=ADVANCED_FACE('',(#859),#868,.T.);
#859=FACE_BOUND('',#860,.F.);
#860=EDGE_LOOP('',(#861,#862,#863,#867));
#861=ORIENTED_EDGE('',*,*,#819,.T.);
#862=ORIENTED_EDGE('',*,*,#843,.T.);
#863=ORIENTED_EDGE('',*,*,#864,.F.);
#864=EDGE_CURVE('',#830,#837,#865,.T.);
#865=CIRCLE('',#866,2.3);
#866=AXIS2_PLACEMENT_3D('',#841,#44,#115);
#867=ORIENTED_EDGE('',*,*,#829,.F.);
#868=TOROIDAL_SURFACE('',#869,2.3,0.2);
#869=AXIS2_PLACEMENT_3D('',#755,#13,#115);
#870=ADVANCED_FACE('',(#871),#891,.F.);
#871=FACE_BOUND('',#872,.F.);
#872=EDGE_LOOP('',(#873,#874,#881,#886));
#873=ORIENTED_EDGE('',*,*,#836,.T.);
#874=ORIENTED_EDGE('',*,*,#875,.T.);
#875=EDGE_CURVE('',#830,#876,#878,.T.);
#876=VERTEX_POINT('',#877);
#877=CARTESIAN_POINT('',(2.616789181895,0.669696006639,5.));
#878=LINE('',#831,#879);
#879=VECTOR('',#880,1.);
#880=DIRECTION('',(-0.923879532511,-0.382683432365,0.));
#881=ORIENTED_EDGE('',*,*,#882,.F.);
#882=EDGE_CURVE('',#883,#876,#885,.T.);
#883=VERTEX_POINT('',#884);
#884=CARTESIAN_POINT('',(2.616789181895,-0.669696006639,5.));
#885=CIRCLE('',#840,1.75);
#886=ORIENTED_EDGE('',*,*,#887,.F.);
#887=EDGE_CURVE('',#837,#883,#888,.T.);
#888=LINE('',#838,#889);
#889=VECTOR('',#890,1.);
#890=DIRECTION('',(-0.923879532511,0.382683432365,0.));
#891=PLANE('',#840);
#892=ADVANCED_FACE('',(#893),#901,.F.);
#893=FACE_BOUND('',#894,.F.);
#894=EDGE_LOOP('',(#895,#896,#897,#900));
#895=ORIENTED_EDGE('',*,*,#864,.T.);
#896=ORIENTED_EDGE('',*,*,#887,.T.);
#897=ORIENTED_EDGE('',*,*,#898,.F.);
#898=EDGE_CURVE('',#876,#883,#899,.T.);
#899=CIRCLE('',#866,1.75);
#900=ORIENTED_EDGE('',*,*,#875,.F.);
#901=PLANE('',#866);
#902=ADVANCED_FACE('',(#903),#987,.F.);
#903=FACE_BOUND('',#904,.F.);
#904=EDGE_LOOP('',(#905,#910,#911,#916,#923,#929,#935,#941,#945,#951,#955,#959,#965,#969,#975,#979,#985));
#905=ORIENTED_EDGE('',*,*,#906,.F.);
#906=EDGE_CURVE('',#883,#907,#909,.T.);
#907=VERTEX_POINT('',#908);
#908=CARTESIAN_POINT('',(2.616789181895,-0.669696006639,4.9));
#909=LINE('',#884,#43);
#910=ORIENTED_EDGE('',*,*,#882,.T.);
#911=ORIENTED_EDGE('',*,*,#912,.T.);
#912=EDGE_CURVE('',#876,#913,#915,.T.);
#913=VERTEX_POINT('',#914);
#914=CARTESIAN_POINT('',(2.616789181895,0.669696006639,4.9));
#915=LINE('',#877,#43);
#916=ORIENTED_EDGE('',*,*,#917,.T.);
#917=EDGE_CURVE('',#913,#918,#920,.T.);
#918=VERTEX_POINT('',#919);
#919=CARTESIAN_POINT('',(1.05,1.749285568454,4.9));
#920=CIRCLE('',#921,1.75);
#921=AXIS2_PLACEMENT_3D('',#922,#13,#27);
#922=CARTESIAN_POINT('',(1.,0.,4.9));
#923=ORIENTED_EDGE('',*,*,#924,.T.);
#924=EDGE_CURVE('',#918,#925,#927,.T.);
#925=VERTEX_POINT('',#926);
#926=CARTESIAN_POINT('',(1.05,1.749285568454,4.8));
#927=LINE('',#928,#43);
#928=CARTESIAN_POINT('',(1.05,1.749285568454,4.7));
#929=ORIENTED_EDGE('',*,*,#930,.F.);
#930=EDGE_CURVE('',#931,#925,#933,.T.);
#931=VERTEX_POINT('',#932);
#932=CARTESIAN_POINT('',(0.95,1.749285568454,4.8));
#933=CIRCLE('',#934,1.75);
#934=AXIS2_PLACEMENT_3D('',#755,#44,#27);
#935=ORIENTED_EDGE('',*,*,#936,.F.);
#936=EDGE_CURVE('',#937,#931,#939,.T.);
#937=VERTEX_POINT('',#938);
#938=CARTESIAN_POINT('',(0.95,1.749285568454,4.9));
#939=LINE('',#940,#43);
#940=CARTESIAN_POINT('',(0.95,1.749285568454,4.7));
#941=ORIENTED_EDGE('',*,*,#942,.T.);
#942=EDGE_CURVE('',#937,#943,#920,.T.);
#943=VERTEX_POINT('',#944);
#944=CARTESIAN_POINT('',(-0.749285568454,5.000000000002E-02,4.9));
#945=ORIENTED_EDGE('',*,*,#946,.T.);
#946=EDGE_CURVE('',#943,#947,#949,.T.);
#947=VERTEX_POINT('',#948);
#948=CARTESIAN_POINT('',(-0.749285568454,5.E-02,4.8));
#949=LINE('',#950,#43);
#950=CARTESIAN_POINT('',(-0.749285568454,5.E-02,4.7));
#951=ORIENTED_EDGE('',*,*,#952,.F.);
#952=EDGE_CURVE('',#953,#947,#933,.T.);
#953=VERTEX_POINT('',#954);
#954=CARTESIAN_POINT('',(-0.75,2.143131898508E-16,4.8));
#955=ORIENTED_EDGE('',*,*,#956,.F.);
#956=EDGE_CURVE('',#957,#953,#933,.T.);
#957=VERTEX_POINT('',#958);
#958=CARTESIAN_POINT('',(-0.749285568454,-5.E-02,4.8));
#959=ORIENTED_EDGE('',*,*,#960,.F.);
#960=EDGE_CURVE('',#961,#957,#963,.T.);
#961=VERTEX_POINT('',#962);
#962=CARTESIAN_POINT('',(-0.749285568454,-5.000000000002E-02,4.9));
#963=LINE('',#964,#43);
#964=CARTESIAN_POINT('',(-0.749285568454,-5.E-02,4.7));
#965=ORIENTED_EDGE('',*,*,#966,.T.);
#966=EDGE_CURVE('',#961,#967,#920,.T.);
#967=VERTEX_POINT('',#968);
#968=CARTESIAN_POINT('',(0.95,-1.749285568454,4.9));
#969=ORIENTED_EDGE('',*,*,#970,.T.);
#970=EDGE_CURVE('',#967,#971,#973,.T.);
#971=VERTEX_POINT('',#972);
#972=CARTESIAN_POINT('',(0.95,-1.749285568454,4.8));
#973=LINE('',#974,#43);
#974=CARTESIAN_POINT('',(0.95,-1.749285568454,4.7));
#975=ORIENTED_EDGE('',*,*,#976,.F.);
#976=EDGE_CURVE('',#977,#971,#933,.T.);
#977=VERTEX_POINT('',#978);
#978=CARTESIAN_POINT('',(1.05,-1.749285568454,4.8));
#979=ORIENTED_EDGE('',*,*,#980,.F.);
#980=EDGE_CURVE('',#981,#977,#983,.T.);
#981=VERTEX_POINT('',#982);
#982=CARTESIAN_POINT('',(1.05,-1.749285568454,4.9));
#983=LINE('',#984,#43);
#984=CARTESIAN_POINT('',(1.05,-1.749285568454,4.7));
#985=ORIENTED_EDGE('',*,*,#986,.T.);
#986=EDGE_CURVE('',#981,#907,#920,.T.);
#987=CYLINDRICAL_SURFACE('',#840,1.75);
#988=ADVANCED_FACE('',(#989),#1016,.F.);
#989=FACE_BOUND('',#990,.F.);
#990=EDGE_LOOP('',(#991,#992,#993,#994,#998,#1004,#1008,#1014));
#991=ORIENTED_EDGE('',*,*,#912,.F.);
#992=ORIENTED_EDGE('',*,*,#898,.T.);
#993=ORIENTED_EDGE('',*,*,#906,.T.);
#994=ORIENTED_EDGE('',*,*,#995,.T.);
#995=EDGE_CURVE('',#907,#996,#920,.T.);
#996=VERTEX_POINT('',#997);
#997=CARTESIAN_POINT('',(2.749285568454,-4.999999999996E-02,4.9));
#998=ORIENTED_EDGE('',*,*,#999,.T.);
#999=EDGE_CURVE('',#996,#1000,#1002,.T.);
#1000=VERTEX_POINT('',#1001);
#1001=CARTESIAN_POINT('',(2.749285568454,-5.E-02,4.8));
#1002=LINE('',#1003,#43);
#1003=CARTESIAN_POINT('',(2.749285568454,-5.E-02,4.7));
#1004=ORIENTED_EDGE('',*,*,#1005,.F.);
#1005=EDGE_CURVE('',#1006,#1000,#933,.T.);
#1006=VERTEX_POINT('',#1007);
#1007=CARTESIAN_POINT('',(2.749285568454,5.E-02,4.8));
#1008=ORIENTED_EDGE('',*,*,#1009,.F.);
#1009=EDGE_CURVE('',#1010,#1006,#1012,.T.);
#1010=VERTEX_POINT('',#1011);
#1011=CARTESIAN_POINT('',(2.749285568454,4.999999999996E-02,4.9));
#1012=LINE('',#1013,#43);
#1013=CARTESIAN_POINT('',(2.749285568454,5.E-02,4.7));
#1014=ORIENTED_EDGE('',*,*,#1015,.T.);
#1015=EDGE_CURVE('',#1010,#913,#920,.T.);
#1016=CYLINDRICAL_SURFACE('',#866,1.75);
#1017=ADVANCED_FACE('',(#1018),#1032,.T.);
#1018=FACE_BOUND('',#1019,.T.);
#1019=EDGE_LOOP('',(#1020,#985,#994,#1028));
#1020=ORIENTED_EDGE('',*,*,#1021,.F.);
#1021=EDGE_CURVE('',#981,#1022,#1024,.T.);
#1022=VERTEX_POINT('',#1023);
#1023=CARTESIAN_POINT('',(1.05,-5.E-02,4.9));
#1024=LINE('',#1025,#1026);
#1025=CARTESIAN_POINT('',(1.05,-5.05,4.9));
#1026=VECTOR('',#1027,1.);
#1027=DIRECTION('',(1.224646799147E-16,1.,0.));
#1028=ORIENTED_EDGE('',*,*,#1029,.F.);
#1029=EDGE_CURVE('',#1022,#996,#1030,.T.);
#1030=LINE('',#1023,#1031);
#1031=VECTOR('',#14,1.);
#1032=PLANE('',#921);
#1033=ADVANCED_FACE('',(#1034),#1046,.F.);
#1034=FACE_BOUND('',#1035,.F.);
#1035=EDGE_LOOP('',(#1020,#1036,#1037,#1043));
#1036=ORIENTED_EDGE('',*,*,#980,.T.);
#1037=ORIENTED_EDGE('',*,*,#1038,.T.);
#1038=EDGE_CURVE('',#977,#1039,#1041,.T.);
#1039=VERTEX_POINT('',#1040);
#1040=CARTESIAN_POINT('',(1.05,-5.E-02,4.8));
#1041=LINE('',#1042,#1026);
#1042=CARTESIAN_POINT('',(1.05,-5.05,4.8));
#1043=ORIENTED_EDGE('',*,*,#1044,.F.);
#1044=EDGE_CURVE('',#1022,#1039,#1045,.T.);
#1045=LINE('',#1023,#43);
#1046=PLANE('',#1047);
#1047=AXIS2_PLACEMENT_3D('',#1025,#14,#1027);
#1048=ADVANCED_FACE('',(#1049),#1032,.T.);
#1049=FACE_BOUND('',#1050,.T.);
#1050=EDGE_LOOP('',(#1014,#916,#1051,#1056));
#1051=ORIENTED_EDGE('',*,*,#1052,.F.);
#1052=EDGE_CURVE('',#1053,#918,#1055,.T.);
#1053=VERTEX_POINT('',#1054);
#1054=CARTESIAN_POINT('',(1.05,5.E-02,4.9));
#1055=LINE('',#1054,#1026);
#1056=ORIENTED_EDGE('',*,*,#1057,.F.);
#1057=EDGE_CURVE('',#1010,#1053,#1058,.T.);
#1058=LINE('',#1059,#1060);
#1059=CARTESIAN_POINT('',(6.05,5.E-02,4.9));
#1060=VECTOR('',#27,1.);
#1061=ADVANCED_FACE('',(#1062),#1096,.T.);
#1062=FACE_BOUND('',#1063,.T.);
#1063=EDGE_LOOP('',(#1064,#1070,#975,#1037,#1075,#1004,#1078,#1084,#929,#1087,#1093,#951,#955));
#1064=ORIENTED_EDGE('',*,*,#1065,.T.);
#1065=EDGE_CURVE('',#957,#1066,#1068,.T.);
#1066=VERTEX_POINT('',#1067);
#1067=CARTESIAN_POINT('',(0.95,-5.E-02,4.8));
#1068=LINE('',#1069,#1031);
#1069=CARTESIAN_POINT('',(-4.05,-5.E-02,4.8));
#1070=ORIENTED_EDGE('',*,*,#1071,.T.);
#1071=EDGE_CURVE('',#1066,#971,#1072,.T.);
#1072=LINE('',#1067,#1073);
#1073=VECTOR('',#1074,1.);
#1074=DIRECTION('',(-1.224646799147E-16,-1.,0.));
#1075=ORIENTED_EDGE('',*,*,#1076,.T.);
#1076=EDGE_CURVE('',#1039,#1000,#1077,.T.);
#1077=LINE('',#1040,#1031);
#1078=ORIENTED_EDGE('',*,*,#1079,.T.);
#1079=EDGE_CURVE('',#1006,#1080,#1082,.T.);
#1080=VERTEX_POINT('',#1081);
#1081=CARTESIAN_POINT('',(1.05,5.E-02,4.8));
#1082=LINE('',#1083,#1060);
#1083=CARTESIAN_POINT('',(6.05,5.E-02,4.8));
#1084=ORIENTED_EDGE('',*,*,#1085,.T.);
#1085=EDGE_CURVE('',#1080,#925,#1086,.T.);
#1086=LINE('',#1081,#1026);
#1087=ORIENTED_EDGE('',*,*,#1088,.T.);
#1088=EDGE_CURVE('',#931,#1089,#1091,.T.);
#1089=VERTEX_POINT('',#1090);
#1090=CARTESIAN_POINT('',(0.95,5.E-02,4.8));
#1091=LINE('',#1092,#1073);
#1092=CARTESIAN_POINT('',(0.95,5.05,4.8));
#1093=ORIENTED_EDGE('',*,*,#1094,.T.);
#1094=EDGE_CURVE('',#1089,#947,#1095,.T.);
#1095=LINE('',#1090,#1060);
#1096=PLANE('',#1097);
#1097=AXIS2_PLACEMENT_3D('',#755,#13,#1074);
#1098=ADVANCED_FACE('',(#1099),#1105,.F.);
#1099=FACE_BOUND('',#1100,.F.);
#1100=EDGE_LOOP('',(#1051,#1101,#1084,#1104));
#1101=ORIENTED_EDGE('',*,*,#1102,.T.);
#1102=EDGE_CURVE('',#1053,#1080,#1103,.T.);
#1103=LINE('',#1054,#43);
#1104=ORIENTED_EDGE('',*,*,#924,.F.);
#1105=PLANE('',#1106);
#1106=AXIS2_PLACEMENT_3D('',#1054,#14,#1027);
#1107=ADVANCED_FACE('',(#1108),#1119,.F.);
#1108=FACE_BOUND('',#1109,.F.);
#1109=EDGE_LOOP('',(#1110,#1115,#1070,#1118));
#1110=ORIENTED_EDGE('',*,*,#1111,.F.);
#1111=EDGE_CURVE('',#1112,#967,#1114,.T.);
#1112=VERTEX_POINT('',#1113);
#1113=CARTESIAN_POINT('',(0.95,-5.E-02,4.9));
#1114=LINE('',#1113,#1073);
#1115=ORIENTED_EDGE('',*,*,#1116,.T.);
#1116=EDGE_CURVE('',#1112,#1066,#1117,.T.);
#1117=LINE('',#1113,#43);
#1118=ORIENTED_EDGE('',*,*,#970,.F.);
#1119=PLANE('',#1120);
#1120=AXIS2_PLACEMENT_3D('',#1113,#27,#1074);
#1121=ADVANCED_FACE('',(#1122),#1032,.T.);
#1122=FACE_BOUND('',#1123,.T.);
#1123=EDGE_LOOP('',(#1124,#965,#1110));
#1124=ORIENTED_EDGE('',*,*,#1125,.F.);
#1125=EDGE_CURVE('',#961,#1112,#1126,.T.);
#1126=LINE('',#1127,#1031);
#1127=CARTESIAN_POINT('',(-4.05,-5.E-02,4.9));
#1128=ADVANCED_FACE('',(#1129),#1141,.F.);
#1129=FACE_BOUND('',#1130,.F.);
#1130=EDGE_LOOP('',(#1131,#1137,#1087,#1138));
#1131=ORIENTED_EDGE('',*,*,#1132,.F.);
#1132=EDGE_CURVE('',#937,#1133,#1135,.T.);
#1133=VERTEX_POINT('',#1134);
#1134=CARTESIAN_POINT('',(0.95,5.E-02,4.9));
#1135=LINE('',#1136,#1073);
#1136=CARTESIAN_POINT('',(0.95,5.05,4.9));
#1137=ORIENTED_EDGE('',*,*,#936,.T.);
#1138=ORIENTED_EDGE('',*,*,#1139,.F.);
#1139=EDGE_CURVE('',#1133,#1089,#1140,.T.);
#1140=LINE('',#1134,#43);
#1141=PLANE('',#1142);
#1142=AXIS2_PLACEMENT_3D('',#1136,#27,#1074);
#1143=ADVANCED_FACE('',(#1144),#1148,.F.);
#1144=FACE_BOUND('',#1145,.F.);
#1145=EDGE_LOOP('',(#1124,#1146,#1064,#1147));
#1146=ORIENTED_EDGE('',*,*,#960,.T.);
#1147=ORIENTED_EDGE('',*,*,#1116,.F.);
#1148=PLANE('',#1149);
#1149=AXIS2_PLACEMENT_3D('',#1127,#1074,#14);
#1150=ADVANCED_FACE('',(#1151),#1032,.T.);
#1151=FACE_BOUND('',#1152,.T.);
#1152=EDGE_LOOP('',(#941,#1153,#1131));
#1153=ORIENTED_EDGE('',*,*,#1154,.F.);
#1154=EDGE_CURVE('',#1133,#943,#1155,.T.);
#1155=LINE('',#1134,#1060);
#1156=ADVANCED_FACE('',(#1157),#1161,.F.);
#1157=FACE_BOUND('',#1158,.F.);
#1158=EDGE_LOOP('',(#1153,#1159,#1093,#1160));
#1159=ORIENTED_EDGE('',*,*,#1139,.T.);
#1160=ORIENTED_EDGE('',*,*,#946,.F.);
#1161=PLANE('',#1162);
#1162=AXIS2_PLACEMENT_3D('',#1134,#1027,#27);
#1163=ADVANCED_FACE('',(#1164),#1168,.F.);
#1164=FACE_BOUND('',#1165,.F.);
#1165=EDGE_LOOP('',(#1056,#1166,#1078,#1167));
#1166=ORIENTED_EDGE('',*,*,#1009,.T.);
#1167=ORIENTED_EDGE('',*,*,#1102,.F.);
#1168=PLANE('',#1169);
#1169=AXIS2_PLACEMENT_3D('',#1059,#1027,#27);
#1170=ADVANCED_FACE('',(#1171),#1175,.F.);
#1171=FACE_BOUND('',#1172,.F.);
#1172=EDGE_LOOP('',(#1028,#1173,#1075,#1174));
#1173=ORIENTED_EDGE('',*,*,#1044,.T.);
#1174=ORIENTED_EDGE('',*,*,#999,.F.);
#1175=PLANE('',#1176);
#1176=AXIS2_PLACEMENT_3D('',#1023,#1074,#14);
#1177=ORIENTED_CLOSED_SHELL('',*,#1178,.F.);
#1178=CLOSED_SHELL('',(#1179,#1199,#1216,#1226,#1238));
#1179=ADVANCED_FACE('',(#1180),#1198,.T.);
#1180=FACE_BOUND('',#1181,.T.);
#1181=EDGE_LOOP('',(#1182,#1191,#1195));
#1182=ORIENTED_EDGE('',*,*,#1183,.T.);
#1183=EDGE_CURVE('',#1184,#1186,#1188,.T.);
#1184=VERTEX_POINT('',#1185);
#1185=CARTESIAN_POINT('',(2.616789181895,0.669696006639,4.6));
#1186=VERTEX_POINT('',#1187);
#1187=CARTESIAN_POINT('',(2.616789181895,-0.669696006639,4.6));
#1188=CIRCLE('',#1189,1.75);
#1189=AXIS2_PLACEMENT_3D('',#1190,#44,#115);
#1190=CARTESIAN_POINT('',(1.,0.,4.6));
#1191=ORIENTED_EDGE('',*,*,#1192,.T.);
#1192=EDGE_CURVE('',#1186,#1193,#1194,.T.);
#1193=VERTEX_POINT('',#1190);
#1194=LINE('',#1187,#889);
#1195=ORIENTED_EDGE('',*,*,#1196,.F.);
#1196=EDGE_CURVE('',#1184,#1193,#1197,.T.);
#1197=LINE('',#1185,#879);
#1198=PLANE('',#1189);
#1199=ADVANCED_FACE('',(#1200),#1016,.T.);
#1200=FACE_BOUND('',#1201,.T.);
#1201=EDGE_LOOP('',(#1202,#1206,#1213,#1215));
#1202=ORIENTED_EDGE('',*,*,#1203,.F.);
#1203=EDGE_CURVE('',#1204,#1184,#915,.T.);
#1204=VERTEX_POINT('',#1205);
#1205=CARTESIAN_POINT('',(2.616789181895,0.669696006639,4.7));
#1206=ORIENTED_EDGE('',*,*,#1207,.F.);
#1207=EDGE_CURVE('',#1208,#1204,#1210,.T.);
#1208=VERTEX_POINT('',#1209);
#1209=CARTESIAN_POINT('',(2.616789181895,-0.669696006639,4.7));
#1210=CIRCLE('',#1211,1.75);
#1211=AXIS2_PLACEMENT_3D('',#1212,#13,#27);
#1212=CARTESIAN_POINT('',(1.,0.,4.7));
#1213=ORIENTED_EDGE('',*,*,#1214,.T.);
#1214=EDGE_CURVE('',#1208,#1186,#909,.T.);
#1215=ORIENTED_EDGE('',*,*,#1183,.F.);
#1216=ADVANCED_FACE('',(#1217),#1225,.T.);
#1217=FACE_BOUND('',#1218,.T.);
#1218=EDGE_LOOP('',(#1219,#1223,#1224));
#1219=ORIENTED_EDGE('',*,*,#1220,.T.);
#1220=EDGE_CURVE('',#1186,#1184,#1221,.T.);
#1221=CIRCLE('',#1222,1.75);
#1222=AXIS2_PLACEMENT_3D('',#1190,#44,#101);
#1223=ORIENTED_EDGE('',*,*,#1196,.T.);
#1224=ORIENTED_EDGE('',*,*,#1192,.F.);
#1225=PLANE('',#1222);
#1226=ADVANCED_FACE('',(#1227),#987,.T.);
#1227=FACE_BOUND('',#1228,.T.);
#1228=EDGE_LOOP('',(#1229,#1230,#1234,#1236,#1237));
#1229=ORIENTED_EDGE('',*,*,#1214,.F.);
#1230=ORIENTED_EDGE('',*,*,#1231,.F.);
#1231=EDGE_CURVE('',#1232,#1208,#1210,.T.);
#1232=VERTEX_POINT('',#1233);
#1233=CARTESIAN_POINT('',(-0.75,2.143131898508E-16,4.7));
#1234=ORIENTED_EDGE('',*,*,#1235,.F.);
#1235=EDGE_CURVE('',#1204,#1232,#1210,.T.);
#1236=ORIENTED_EDGE('',*,*,#1203,.T.);
#1237=ORIENTED_EDGE('',*,*,#1220,.F.);
#1238=ADVANCED_FACE('',(#1239),#1244,.T.);
#1239=FACE_BOUND('',#1240,.T.);
#1240=EDGE_LOOP('',(#1241,#1242,#1243));
#1241=ORIENTED_EDGE('',*,*,#1231,.T.);
#1242=ORIENTED_EDGE('',*,*,#1207,.T.);
#1243=ORIENTED_EDGE('',*,*,#1235,.T.);
#1244=PLANE('',#1211);
#1245=( GEOMETRIC_REPRESENTATION_CONTEXT(3) GLOBAL_UNCERTAINTY_ASSIGNED_CONTEXT((#1249)) GLOBAL_UNIT_ASSIGNED_CONTEXT((#1246,#1247,#1248)) REPRESENTATION_CONTEXT('Context #1','3D Context with UNIT and UNCERTAINTY') );
#1246=( LENGTH_UNIT() NAMED_UNIT(*) SI_UNIT(.MILLI.,.METRE.) );
#1247=( NAMED_UNIT(*) PLANE_ANGLE_UNIT() SI_UNIT($,.RADIAN.) );
#1248=( NAMED_UNIT(*) SI_UNIT($,.STERADIAN.) SOLID_ANGLE_UNIT() );
#1249=UNCERTAINTY_MEASURE_WITH_UNIT(LENGTH_MEASURE(1.E-05),#1246,'distance_accuracy_value','confusion accuracy');
#1250=MECHANICAL_DESIGN_GEOMETRIC_PRESENTATION_REPRESENTATION('',(#1251,#1259,#1260,#1268,#1269,#1277,#1278,#1279,#1280,#1281,#1282,#1283,#1284,#1285,#1286,#1287,#1288,#1289,#1290,#1291,#1299,#1300,#1301,#1302,#1303,#1304,#1305,#1306,#1307,#1308,#1309,#1310,#1311,#1312,#1313,#1314,#1315,#1316,#1317,#1318,#1319,#1320,#1321,#1322,#1323,#1324,#1325,#1326,#1327),#1245);
#1251=STYLED_ITEM('color',(#1252),#17);
#1252=PRESENTATION_STYLE_ASSIGNMENT((#1253));
#1253=SURFACE_STYLE_USAGE(.BOTH.,#1254);
#1254=SURFACE_SIDE_STYLE('',(#1255));
#1255=SURFACE_STYLE_FILL_AREA(#1256);
#1256=FILL_AREA_STYLE('',(#1257));
#1257=FILL_AREA_STYLE_COLOUR('',#1258);
#1258=COLOUR_RGB('',0.824000000954,0.819999992847,0.78100001812);
#1259=STYLED_ITEM('color',(#1252),#29);
#1260=STYLED_ITEM('color',(#1261),#49);
#1261=PRESENTATION_STYLE_ASSIGNMENT((#1262));
#1262=SURFACE_STYLE_USAGE(.BOTH.,#1263);
#1263=SURFACE_SIDE_STYLE('',(#1264));
#1264=SURFACE_STYLE_FILL_AREA(#1265);
#1265=FILL_AREA_STYLE('',(#1266));
#1266=FILL_AREA_STYLE_COLOUR('',#1267);
#1267=COLOUR_RGB('',0.136999994516,0.402000010014,0.726999998093);
#1268=STYLED_ITEM('color',(#1261),#79);
#1269=STYLED_ITEM('color',(#1270),#105);
#1270=PRESENTATION_STYLE_ASSIGNMENT((#1271));
#1271=SURFACE_STYLE_USAGE(.BOTH.,#1272);
#1272=SURFACE_SIDE_STYLE('',(#1273));
#1273=SURFACE_STYLE_FILL_AREA(#1274);
#1274=FILL_AREA_STYLE('',(#1275));
#1275=FILL_AREA_STYLE_COLOUR('',#1276);
#1276=COLOUR_RGB('',0.690999984741,0.663999974728,0.597999989986);
#1277=STYLED_ITEM('color',(#1252),#118);
#1278=STYLED_ITEM('color',(#1261),#136);
#1279=STYLED_ITEM('color',(#1270),#156);
#1280=STYLED_ITEM('color',(#1252),#166);
#1281=STYLED_ITEM('color',(#1261),#170);
#1282=STYLED_ITEM('color',(#1270),#196);
#1283=STYLED_ITEM('color',(#1261),#207);
#1284=STYLED_ITEM('color',(#1270),#259);
#1285=STYLED_ITEM('color',(#1261),#284);
#1286=STYLED_ITEM('color',(#1270),#381);
#1287=STYLED_ITEM('color',(#1261),#418);
#1288=STYLED_ITEM('color',(#1270),#475);
#1289=STYLED_ITEM('color',(#1261),#561);
#1290=STYLED_ITEM('color',(#1270),#658);
#1291=STYLED_ITEM('color',(#1292),#707);
#1292=PRESENTATION_STYLE_ASSIGNMENT((#1293));
#1293=SURFACE_STYLE_USAGE(.BOTH.,#1294);
#1294=SURFACE_SIDE_STYLE('',(#1295));
#1295=SURFACE_STYLE_FILL_AREA(#1296);
#1296=FILL_AREA_STYLE('',(#1297));
#1297=FILL_AREA_STYLE_COLOUR('',#1298);
#1298=COLOUR_RGB('',0.148000001907,0.144999995828,0.144999995828);
#1299=STYLED_ITEM('color',(#1270),#717);
#1300=STYLED_ITEM('color',(#1261),#736);
#1301=STYLED_ITEM('color',(#1292),#759);
#1302=STYLED_ITEM('color',(#1270),#766);
#1303=STYLED_ITEM('color',(#1261),#824);
#1304=STYLED_ITEM('color',(#1292),#849);
#1305=STYLED_ITEM('color',(#1270),#858);
#1306=STYLED_ITEM('color',(#1261),#870);
#1307=STYLED_ITEM('color',(#1270),#892);
#1308=STYLED_ITEM('color',(#1261),#902);
#1309=STYLED_ITEM('color',(#1270),#988);
#1310=STYLED_ITEM('color',(#1252),#1017);
#1311=STYLED_ITEM('color',(#1252),#1033);
#1312=STYLED_ITEM('color',(#1252),#1048);
#1313=STYLED_ITEM('color',(#1252),#1061);
#1314=STYLED_ITEM('color',(#1252),#1098);
#1315=STYLED_ITEM('color',(#1252),#1107);
#1316=STYLED_ITEM('color',(#1252),#1121);
#1317=STYLED_ITEM('color',(#1252),#1128);
#1318=STYLED_ITEM('color',(#1252),#1143);
#1319=STYLED_ITEM('color',(#1252),#1150);
#1320=STYLED_ITEM('color',(#1252),#1156);
#1321=STYLED_ITEM('color',(#1252),#1163);
#1322=STYLED_ITEM('color',(#1252),#1170);
#1323=STYLED_ITEM('color',(#1270),#1179);
#1324=STYLED_ITEM('color',(#1270),#1199);
#1325=STYLED_ITEM('color',(#1261),#1216);
#1326=STYLED_ITEM('color',(#1261),#1226);
#1327=STYLED_ITEM('color',(#1252),#1238);
ENDSEC;
END-ISO-10303-21;
