ISO-10303-21;
HEADER;
/* DIP-8_W7.62mm_Socket.step 3D STEP model for use in ECAD systems
 * Copyright (C) 2017, Terje Io
 *
 * This program is free software: you can redistribute it and/or modify
 * it under the terms of the GNU General Public License as published by
 * the Free Software Foundation, either version 3 of the License, or
 * any later version.
 *
 * This program is distributed in the hope that it will be useful,
 * but WITHOUT ANY WARRANTY; without even the implied warranty of
 * MERCHANTABILITY or FITNESS FOR A PARTICULAR PURPOSE.  See the
 * GNU General Public License for more details.
 *
 * You should have received a copy of the GNU General Public License
 * along with this program.  If not, see http://www.gnu.org/licenses/.
 *
 * As a special exception, if you create a design which uses this symbol,
 * and embed this symbol or unaltered portions of this symbol into the design,
 * this symbol does not by itself cause the resulting design to be covered by
 * the GNU General Public License.
 * This exception does not however invalidate any other reasons why the design
 * itself might be covered by the GNU General Public License.
 * If you modify this symbol, you may extend this exception to your version of the symbol,
 * but you are not obligated to do so.
 * If you do not wish to do so, delete this exception statement from your version
 * Risk disclaimer
 * *USE 3D CAD DATA AT YOUR OWN RISK*
 * *DO NOT RELY UPON ANY INFORMATION FOUND HERE WITHOUT INDEPENDENT VERIFICATION.*
 *
 *
 * Generated by script, source at:
 * https://github.com/easyw/kicad-3d-models-in-freecad/tree/master/cadquery/FCAD_script_generator/DIP_parts
 *
 */

FILE_DESCRIPTION(
/* description */ ('model of DIP-8_W7.62mm_Socket'),
/* implementation_level */ '2;1');

FILE_NAME(
/* name */ 'DIP-8_W7.62mm_Socket.step',
/* time_stamp */ '2017-11-03T14:52:55',
/* author */ ('Terje Io','https://github.com/terjeio'),
/* organization */ ('FreeCAD'),
/* preprocessor_version */ 'OCC',
/* originating_system */ 'kicad StepUp',
/* authorisation */ '');

FILE_SCHEMA(('AUTOMOTIVE_DESIGN_CC2 { 1 2 10303 214 -1 1 5 4 }'));
ENDSEC;

DATA;
#1=APPLICATION_PROTOCOL_DEFINITION('committee draft','automotive_design',1997,#2);
#2=APPLICATION_CONTEXT('core data for automotive mechanical design processes');
#3=SHAPE_DEFINITION_REPRESENTATION(#4,#10);
#4=PRODUCT_DEFINITION_SHAPE('','',#5);
#5=PRODUCT_DEFINITION('design','',#6,#9);
#6=PRODUCT_DEFINITION_FORMATION('','',#7);
#7=PRODUCT('DIP_8_W762mm_Socket','DIP_8_W762mm_Socket','',(#8));
#8=MECHANICAL_CONTEXT('',#2,'mechanical');
#9=PRODUCT_DEFINITION_CONTEXT('part definition',#2,'design');
#10=ADVANCED_BREP_SHAPE_REPRESENTATION('',(#11,#15),#2111);
#11=AXIS2_PLACEMENT_3D('',#12,#13,#14);
#12=CARTESIAN_POINT('',(0.E+000,0.E+000,0.E+000));
#13=DIRECTION('',(0.E+000,0.E+000,1.));
#14=DIRECTION('',(1.,0.E+000,-0.E+000));
#15=MANIFOLD_SOLID_BREP('',#16);
#16=CLOSED_SHELL('',(#17,#45,#70,#110,#273,#369,#379,#392,#508,#521,#534,#575,#588,#596,#614,#624,#631,#642,#652,#673,#682,#693,#706,#715,#723,#736,#749,#762,#775,#788,#801,#814,#827,#837,#847,#852,#869,#886,#903,#920,#930,#938,#947,#955,#972,#989,#1006,#1023,#1032,#1048,#1064,#1080,#1096,#1112,#1128,#1144,#1160,#1174,#1188,#1202,#1216,#1230,#1244,#1258,#1272,#1289,#1304,#1319,#1336,#1351,#1366,#1380,#1395,#1414,#1431,#1448,#1465,#1484,#1501,#1518,#1535,#1548,#1561,#1574,#1587,#1600,#1613,#1626,#1639,#1656,#1673,#1690,#1707,#1724,#1741,#1758,#1775,#1791,#1807,#1823,#1839,#1855,#1871,#1887,#1903,#1908,#1913,#1918,#1923,#1928,#1933,#1938,#1943,#1958,#1973,#1988,#2003,#2018,#2033,#2048,#2063,#2069,#2075,#2081,#2087,#2093,#2099,#2105));
#17=ADVANCED_FACE('',(#18),#43,.F.);
#18=FACE_BOUND('',#19,.F.);
#19=EDGE_LOOP('',(#20,#28,#35,#40));
#20=ORIENTED_EDGE('',*,*,#21,.T.);
#21=EDGE_CURVE('',#22,#24,#26,.T.);
#22=VERTEX_POINT('',#23);
#23=CARTESIAN_POINT('',(-1.27,1.27,1.3));
#24=VERTEX_POINT('',#25);
#25=CARTESIAN_POINT('',(-1.27,1.27,3.967));
#26=LINE('',#23,#27);
#27=VECTOR('',#13,1.);
#28=ORIENTED_EDGE('',*,*,#29,.T.);
#29=EDGE_CURVE('',#24,#30,#32,.T.);
#30=VERTEX_POINT('',#31);
#31=CARTESIAN_POINT('',(-1.27,-8.89,3.967));
#32=LINE('',#25,#33);
#33=VECTOR('',#34,1.);
#34=DIRECTION('',(-2.22044604925E-016,-1.,0.E+000));
#35=ORIENTED_EDGE('',*,*,#36,.F.);
#36=EDGE_CURVE('',#37,#30,#39,.T.);
#37=VERTEX_POINT('',#38);
#38=CARTESIAN_POINT('',(-1.27,-8.89,1.3));
#39=LINE('',#38,#27);
#40=ORIENTED_EDGE('',*,*,#41,.F.);
#41=EDGE_CURVE('',#22,#37,#42,.T.);
#42=LINE('',#23,#33);
#43=PLANE('',#44);
#44=AXIS2_PLACEMENT_3D('',#23,#14,#34);
#45=ADVANCED_FACE('',(#46),#68,.F.);
#46=FACE_BOUND('',#47,.F.);
#47=EDGE_LOOP('',(#48,#56,#63,#67));
#48=ORIENTED_EDGE('',*,*,#49,.F.);
#49=EDGE_CURVE('',#50,#22,#52,.T.);
#50=VERTEX_POINT('',#51);
#51=CARTESIAN_POINT('',(1.73,1.27,1.3));
#52=LINE('',#53,#54);
#53=CARTESIAN_POINT('',(8.89,1.27,1.3));
#54=VECTOR('',#55,1.);
#55=DIRECTION('',(-1.,2.22044604925E-016,0.E+000));
#56=ORIENTED_EDGE('',*,*,#57,.F.);
#57=EDGE_CURVE('',#58,#50,#60,.T.);
#58=VERTEX_POINT('',#59);
#59=CARTESIAN_POINT('',(1.73,1.27,3.967));
#60=LINE('',#59,#61);
#61=VECTOR('',#62,1.);
#62=DIRECTION('',(0.E+000,-0.E+000,-1.));
#63=ORIENTED_EDGE('',*,*,#64,.T.);
#64=EDGE_CURVE('',#58,#24,#65,.T.);
#65=LINE('',#66,#54);
#66=CARTESIAN_POINT('',(8.89,1.27,3.967));
#67=ORIENTED_EDGE('',*,*,#21,.F.);
#68=PLANE('',#69);
#69=AXIS2_PLACEMENT_3D('',#53,#34,#55);
#70=ADVANCED_FACE('',(#71),#107,.F.);
#71=FACE_BOUND('',#72,.F.);
#72=EDGE_LOOP('',(#73,#79,#80,#85,#90,#95,#100,#104));
#73=ORIENTED_EDGE('',*,*,#74,.F.);
#74=EDGE_CURVE('',#37,#75,#77,.T.);
#75=VERTEX_POINT('',#76);
#76=CARTESIAN_POINT('',(8.89,-8.89,1.3));
#77=LINE('',#38,#78);
#78=VECTOR('',#14,1.);
#79=ORIENTED_EDGE('',*,*,#36,.T.);
#80=ORIENTED_EDGE('',*,*,#81,.T.);
#81=EDGE_CURVE('',#30,#82,#84,.T.);
#82=VERTEX_POINT('',#83);
#83=CARTESIAN_POINT('',(1.73,-8.89,3.967));
#84=LINE('',#31,#78);
#85=ORIENTED_EDGE('',*,*,#86,.T.);
#86=EDGE_CURVE('',#82,#87,#89,.T.);
#87=VERTEX_POINT('',#88);
#88=CARTESIAN_POINT('',(1.73,-8.89,2.6335));
#89=LINE('',#83,#61);
#90=ORIENTED_EDGE('',*,*,#91,.F.);
#91=EDGE_CURVE('',#92,#87,#94,.T.);
#92=VERTEX_POINT('',#93);
#93=CARTESIAN_POINT('',(5.89,-8.89,2.6335));
#94=LINE('',#93,#54);
#95=ORIENTED_EDGE('',*,*,#96,.F.);
#96=EDGE_CURVE('',#97,#92,#99,.T.);
#97=VERTEX_POINT('',#98);
#98=CARTESIAN_POINT('',(5.89,-8.89,3.967));
#99=LINE('',#98,#61);
#100=ORIENTED_EDGE('',*,*,#101,.T.);
#101=EDGE_CURVE('',#97,#102,#84,.T.);
#102=VERTEX_POINT('',#103);
#103=CARTESIAN_POINT('',(8.89,-8.89,3.967));
#104=ORIENTED_EDGE('',*,*,#105,.F.);
#105=EDGE_CURVE('',#75,#102,#106,.T.);
#106=LINE('',#76,#27);
#107=PLANE('',#108);
#108=AXIS2_PLACEMENT_3D('',#38,#109,#14);
#109=DIRECTION('',(2.22044604925E-016,1.,0.E+000));
#110=ADVANCED_FACE('',(#111,#149,#199,#208,#217,#226,#235,#244,#253,#262),#271,.T.);
#111=FACE_BOUND('',#112,.T.);
#112=EDGE_LOOP('',(#40,#48,#113,#118,#125,#130,#137,#143,#146,#73));
#113=ORIENTED_EDGE('',*,*,#114,.T.);
#114=EDGE_CURVE('',#50,#115,#117,.T.);
#115=VERTEX_POINT('',#116);
#116=CARTESIAN_POINT('',(1.73,0.67,1.3));
#117=LINE('',#51,#33);
#118=ORIENTED_EDGE('',*,*,#119,.T.);
#119=EDGE_CURVE('',#115,#120,#122,.T.);
#120=VERTEX_POINT('',#121);
#121=CARTESIAN_POINT('',(2.23,0.17,1.3));
#122=CIRCLE('',#123,0.5);
#123=AXIS2_PLACEMENT_3D('',#124,#13,#55);
#124=CARTESIAN_POINT('',(2.23,0.67,1.3));
#125=ORIENTED_EDGE('',*,*,#126,.T.);
#126=EDGE_CURVE('',#120,#127,#129,.T.);
#127=VERTEX_POINT('',#128);
#128=CARTESIAN_POINT('',(5.39,0.17,1.3));
#129=LINE('',#121,#78);
#130=ORIENTED_EDGE('',*,*,#131,.T.);
#131=EDGE_CURVE('',#127,#132,#134,.T.);
#132=VERTEX_POINT('',#133);
#133=CARTESIAN_POINT('',(5.89,0.67,1.3));
#134=CIRCLE('',#135,0.5);
#135=AXIS2_PLACEMENT_3D('',#136,#13,#34);
#136=CARTESIAN_POINT('',(5.39,0.67,1.3));
#137=ORIENTED_EDGE('',*,*,#138,.T.);
#138=EDGE_CURVE('',#132,#139,#141,.T.);
#139=VERTEX_POINT('',#140);
#140=CARTESIAN_POINT('',(5.89,1.27,1.3));
#141=LINE('',#133,#142);
#142=VECTOR('',#109,1.);
#143=ORIENTED_EDGE('',*,*,#144,.F.);
#144=EDGE_CURVE('',#145,#139,#52,.T.);
#145=VERTEX_POINT('',#53);
#146=ORIENTED_EDGE('',*,*,#147,.F.);
#147=EDGE_CURVE('',#75,#145,#148,.T.);
#148=LINE('',#76,#142);
#149=FACE_BOUND('',#150,.T.);
#150=EDGE_LOOP('',(#151,#160,#165,#172,#177,#184,#189,#196));
#151=ORIENTED_EDGE('',*,*,#152,.T.);
#152=EDGE_CURVE('',#153,#155,#157,.T.);
#153=VERTEX_POINT('',#154);
#154=CARTESIAN_POINT('',(5.89,-2.23,1.3));
#155=VERTEX_POINT('',#156);
#156=CARTESIAN_POINT('',(5.39,-1.73,1.3));
#157=CIRCLE('',#158,0.5);
#158=AXIS2_PLACEMENT_3D('',#159,#13,#14);
#159=CARTESIAN_POINT('',(5.39,-2.23,1.3));
#160=ORIENTED_EDGE('',*,*,#161,.T.);
#161=EDGE_CURVE('',#155,#162,#164,.T.);
#162=VERTEX_POINT('',#163);
#163=CARTESIAN_POINT('',(2.23,-1.73,1.3));
#164=LINE('',#156,#54);
#165=ORIENTED_EDGE('',*,*,#166,.T.);
#166=EDGE_CURVE('',#162,#167,#169,.T.);
#167=VERTEX_POINT('',#168);
#168=CARTESIAN_POINT('',(1.73,-2.23,1.3));
#169=CIRCLE('',#170,0.5);
#170=AXIS2_PLACEMENT_3D('',#171,#13,#109);
#171=CARTESIAN_POINT('',(2.23,-2.23,1.3));
#172=ORIENTED_EDGE('',*,*,#173,.T.);
#173=EDGE_CURVE('',#167,#174,#176,.T.);
#174=VERTEX_POINT('',#175);
#175=CARTESIAN_POINT('',(1.73,-6.49,1.3));
#176=LINE('',#168,#33);
#177=ORIENTED_EDGE('',*,*,#178,.T.);
#178=EDGE_CURVE('',#174,#179,#181,.T.);
#179=VERTEX_POINT('',#180);
#180=CARTESIAN_POINT('',(2.23,-6.99,1.3));
#181=CIRCLE('',#182,0.5);
#182=AXIS2_PLACEMENT_3D('',#183,#13,#55);
#183=CARTESIAN_POINT('',(2.23,-6.49,1.3));
#184=ORIENTED_EDGE('',*,*,#185,.T.);
#185=EDGE_CURVE('',#179,#186,#188,.T.);
#186=VERTEX_POINT('',#187);
#187=CARTESIAN_POINT('',(5.39,-6.99,1.3));
#188=LINE('',#180,#78);
#189=ORIENTED_EDGE('',*,*,#190,.T.);
#190=EDGE_CURVE('',#186,#191,#193,.T.);
#191=VERTEX_POINT('',#192);
#192=CARTESIAN_POINT('',(5.89,-6.49,1.3));
#193=CIRCLE('',#194,0.5);
#194=AXIS2_PLACEMENT_3D('',#195,#13,#34);
#195=CARTESIAN_POINT('',(5.39,-6.49,1.3));
#196=ORIENTED_EDGE('',*,*,#197,.T.);
#197=EDGE_CURVE('',#191,#153,#198,.T.);
#198=LINE('',#192,#142);
#199=FACE_BOUND('',#200,.T.);
#200=EDGE_LOOP('',(#201));
#201=ORIENTED_EDGE('',*,*,#202,.T.);
#202=EDGE_CURVE('',#203,#203,#205,.T.);
#203=VERTEX_POINT('',#204);
#204=CARTESIAN_POINT('',(7.62,-8.482,1.3));
#205=CIRCLE('',#206,0.862);
#206=AXIS2_PLACEMENT_3D('',#207,#13,#34);
#207=CARTESIAN_POINT('',(7.62,-7.62,1.3));
#208=FACE_BOUND('',#209,.T.);
#209=EDGE_LOOP('',(#210));
#210=ORIENTED_EDGE('',*,*,#211,.T.);
#211=EDGE_CURVE('',#212,#212,#214,.T.);
#212=VERTEX_POINT('',#213);
#213=CARTESIAN_POINT('',(7.62,-3.402,1.3));
#214=CIRCLE('',#215,0.862);
#215=AXIS2_PLACEMENT_3D('',#216,#13,#34);
#216=CARTESIAN_POINT('',(7.62,-2.54,1.3));
#217=FACE_BOUND('',#218,.T.);
#218=EDGE_LOOP('',(#219));
#219=ORIENTED_EDGE('',*,*,#220,.T.);
#220=EDGE_CURVE('',#221,#221,#223,.T.);
#221=VERTEX_POINT('',#222);
#222=CARTESIAN_POINT('',(7.62,-5.942,1.3));
#223=CIRCLE('',#224,0.862);
#224=AXIS2_PLACEMENT_3D('',#225,#13,#34);
#225=CARTESIAN_POINT('',(7.62,-5.08,1.3));
#226=FACE_BOUND('',#227,.T.);
#227=EDGE_LOOP('',(#228));
#228=ORIENTED_EDGE('',*,*,#229,.T.);
#229=EDGE_CURVE('',#230,#230,#232,.T.);
#230=VERTEX_POINT('',#231);
#231=CARTESIAN_POINT('',(-8.881784197001E-016,-6.758,1.3));
#232=CIRCLE('',#233,0.862);
#233=AXIS2_PLACEMENT_3D('',#234,#13,#109);
#234=CARTESIAN_POINT('',(-1.248615241293E-015,-7.62,1.3));
#235=FACE_BOUND('',#236,.T.);
#236=EDGE_LOOP('',(#237));
#237=ORIENTED_EDGE('',*,*,#238,.T.);
#238=EDGE_CURVE('',#239,#239,#241,.T.);
#239=VERTEX_POINT('',#240);
#240=CARTESIAN_POINT('',(0.E+000,-4.218,1.3));
#241=CIRCLE('',#242,0.862);
#242=AXIS2_PLACEMENT_3D('',#243,#13,#109);
#243=CARTESIAN_POINT('',(-3.604368215926E-016,-5.08,1.3));
#244=FACE_BOUND('',#245,.T.);
#245=EDGE_LOOP('',(#246));
#246=ORIENTED_EDGE('',*,*,#247,.T.);
#247=EDGE_CURVE('',#248,#248,#250,.T.);
#248=VERTEX_POINT('',#249);
#249=CARTESIAN_POINT('',(8.881784197001E-016,-1.678,1.3));
#250=CIRCLE('',#251,0.862);
#251=AXIS2_PLACEMENT_3D('',#252,#13,#109);
#252=CARTESIAN_POINT('',(5.277415981075E-016,-2.54,1.3));
#253=FACE_BOUND('',#254,.T.);
#254=EDGE_LOOP('',(#255));
#255=ORIENTED_EDGE('',*,*,#256,.T.);
#256=EDGE_CURVE('',#257,#257,#259,.T.);
#257=VERTEX_POINT('',#258);
#258=CARTESIAN_POINT('',(1.7763568394E-015,0.862,1.3));
#259=CIRCLE('',#260,0.862);
#260=AXIS2_PLACEMENT_3D('',#261,#13,#109);
#261=CARTESIAN_POINT('',(1.415920017808E-015,1.443289932013E-015,1.3));
#262=FACE_BOUND('',#263,.T.);
#263=EDGE_LOOP('',(#264));
#264=ORIENTED_EDGE('',*,*,#265,.T.);
#265=EDGE_CURVE('',#266,#266,#268,.T.);
#266=VERTEX_POINT('',#267);
#267=CARTESIAN_POINT('',(7.62,-0.862,1.3));
#268=CIRCLE('',#269,0.862);
#269=AXIS2_PLACEMENT_3D('',#270,#13,#34);
#270=CARTESIAN_POINT('',(7.62,-9.992007221626E-016,1.3));
#271=PLANE('',#272);
#272=AXIS2_PLACEMENT_3D('',#23,#62,#109);
#273=ADVANCED_FACE('',(#274,#331,#340,#349,#358),#367,.F.);
#274=FACE_BOUND('',#275,.F.);
#275=EDGE_LOOP('',(#276,#277,#278,#283,#290,#296,#303,#309,#316,#320,#327,#330));
#276=ORIENTED_EDGE('',*,*,#29,.F.);
#277=ORIENTED_EDGE('',*,*,#64,.F.);
#278=ORIENTED_EDGE('',*,*,#279,.T.);
#279=EDGE_CURVE('',#58,#280,#282,.T.);
#280=VERTEX_POINT('',#281);
#281=CARTESIAN_POINT('',(1.73,0.67,3.967));
#282=LINE('',#59,#33);
#283=ORIENTED_EDGE('',*,*,#284,.T.);
#284=EDGE_CURVE('',#280,#285,#287,.T.);
#285=VERTEX_POINT('',#286);
#286=CARTESIAN_POINT('',(2.23,0.17,3.967));
#287=CIRCLE('',#288,0.5);
#288=AXIS2_PLACEMENT_3D('',#289,#13,#55);
#289=CARTESIAN_POINT('',(2.23,0.67,3.967));
#290=ORIENTED_EDGE('',*,*,#291,.T.);
#291=EDGE_CURVE('',#285,#292,#294,.T.);
#292=VERTEX_POINT('',#293);
#293=CARTESIAN_POINT('',(2.23,-1.73,3.967));
#294=LINE('',#295,#33);
#295=CARTESIAN_POINT('',(2.23,1.27,3.967));
#296=ORIENTED_EDGE('',*,*,#297,.T.);
#297=EDGE_CURVE('',#292,#298,#300,.T.);
#298=VERTEX_POINT('',#299);
#299=CARTESIAN_POINT('',(1.73,-2.23,3.967));
#300=CIRCLE('',#301,0.5);
#301=AXIS2_PLACEMENT_3D('',#302,#13,#109);
#302=CARTESIAN_POINT('',(2.23,-2.23,3.967));
#303=ORIENTED_EDGE('',*,*,#304,.T.);
#304=EDGE_CURVE('',#298,#305,#307,.T.);
#305=VERTEX_POINT('',#306);
#306=CARTESIAN_POINT('',(1.73,-6.49,3.967));
#307=LINE('',#308,#33);
#308=CARTESIAN_POINT('',(1.73,-4.36,3.967));
#309=ORIENTED_EDGE('',*,*,#310,.T.);
#310=EDGE_CURVE('',#305,#311,#313,.T.);
#311=VERTEX_POINT('',#312);
#312=CARTESIAN_POINT('',(2.23,-6.99,3.967));
#313=CIRCLE('',#314,0.5);
#314=AXIS2_PLACEMENT_3D('',#315,#13,#55);
#315=CARTESIAN_POINT('',(2.23,-6.49,3.967));
#316=ORIENTED_EDGE('',*,*,#317,.T.);
#317=EDGE_CURVE('',#311,#318,#294,.T.);
#318=VERTEX_POINT('',#319);
#319=CARTESIAN_POINT('',(2.23,-7.79,3.967));
#320=ORIENTED_EDGE('',*,*,#321,.F.);
#321=EDGE_CURVE('',#322,#318,#324,.T.);
#322=VERTEX_POINT('',#323);
#323=CARTESIAN_POINT('',(1.73,-8.29,3.967));
#324=CIRCLE('',#325,0.5);
#325=AXIS2_PLACEMENT_3D('',#326,#62,#55);
#326=CARTESIAN_POINT('',(2.23,-8.29,3.967));
#327=ORIENTED_EDGE('',*,*,#328,.F.);
#328=EDGE_CURVE('',#82,#322,#329,.T.);
#329=LINE('',#83,#142);
#330=ORIENTED_EDGE('',*,*,#81,.F.);
#331=FACE_BOUND('',#332,.F.);
#332=EDGE_LOOP('',(#333));
#333=ORIENTED_EDGE('',*,*,#334,.F.);
#334=EDGE_CURVE('',#335,#335,#337,.T.);
#335=VERTEX_POINT('',#336);
#336=CARTESIAN_POINT('',(0.E+000,-4.218,3.967));
#337=CIRCLE('',#338,0.862);
#338=AXIS2_PLACEMENT_3D('',#339,#62,#109);
#339=CARTESIAN_POINT('',(-4.440892098501E-016,-5.08,3.967));
#340=FACE_BOUND('',#341,.F.);
#341=EDGE_LOOP('',(#342));
#342=ORIENTED_EDGE('',*,*,#343,.F.);
#343=EDGE_CURVE('',#344,#344,#346,.T.);
#344=VERTEX_POINT('',#345);
#345=CARTESIAN_POINT('',(4.440892098501E-016,-1.678,3.967));
#346=CIRCLE('',#347,0.862);
#347=AXIS2_PLACEMENT_3D('',#348,#62,#109);
#348=CARTESIAN_POINT('',(4.440892098501E-016,-2.54,3.967));
#349=FACE_BOUND('',#350,.F.);
#350=EDGE_LOOP('',(#351));
#351=ORIENTED_EDGE('',*,*,#352,.F.);
#352=EDGE_CURVE('',#353,#353,#355,.T.);
#353=VERTEX_POINT('',#354);
#354=CARTESIAN_POINT('',(1.33226762955E-015,0.862,3.967));
#355=CIRCLE('',#356,0.862);
#356=AXIS2_PLACEMENT_3D('',#357,#62,#109);
#357=CARTESIAN_POINT('',(1.33226762955E-015,1.33226762955E-015,3.967));
#358=FACE_BOUND('',#359,.F.);
#359=EDGE_LOOP('',(#360));
#360=ORIENTED_EDGE('',*,*,#361,.F.);
#361=EDGE_CURVE('',#362,#362,#364,.T.);
#362=VERTEX_POINT('',#363);
#363=CARTESIAN_POINT('',(-8.881784197001E-016,-6.758,3.967));
#364=CIRCLE('',#365,0.862);
#365=AXIS2_PLACEMENT_3D('',#366,#62,#109);
#366=CARTESIAN_POINT('',(-1.33226762955E-015,-7.62,3.967));
#367=PLANE('',#368);
#368=AXIS2_PLACEMENT_3D('',#25,#62,#109);
#369=ADVANCED_FACE('',(#370),#377,.F.);
#370=FACE_BOUND('',#371,.F.);
#371=EDGE_LOOP('',(#372,#113,#373,#376));
#372=ORIENTED_EDGE('',*,*,#57,.T.);
#373=ORIENTED_EDGE('',*,*,#374,.F.);
#374=EDGE_CURVE('',#280,#115,#375,.T.);
#375=LINE('',#281,#61);
#376=ORIENTED_EDGE('',*,*,#279,.F.);
#377=PLANE('',#378);
#378=AXIS2_PLACEMENT_3D('',#59,#55,#34);
#379=ADVANCED_FACE('',(#380),#390,.F.);
#380=FACE_BOUND('',#381,.F.);
#381=EDGE_LOOP('',(#382,#383,#387,#146));
#382=ORIENTED_EDGE('',*,*,#105,.T.);
#383=ORIENTED_EDGE('',*,*,#384,.T.);
#384=EDGE_CURVE('',#102,#385,#386,.T.);
#385=VERTEX_POINT('',#66);
#386=LINE('',#103,#142);
#387=ORIENTED_EDGE('',*,*,#388,.F.);
#388=EDGE_CURVE('',#145,#385,#389,.T.);
#389=LINE('',#53,#27);
#390=PLANE('',#391);
#391=AXIS2_PLACEMENT_3D('',#76,#55,#109);
#392=ADVANCED_FACE('',(#393,#472,#481,#490,#499),#367,.F.);
#393=FACE_BOUND('',#394,.F.);
#394=EDGE_LOOP('',(#395,#403,#408,#415,#420,#422,#423,#424,#429,#436,#441,#445,#450,#457,#462,#469));
#395=ORIENTED_EDGE('',*,*,#396,.T.);
#396=EDGE_CURVE('',#397,#399,#401,.T.);
#397=VERTEX_POINT('',#398);
#398=CARTESIAN_POINT('',(4.43,-1.73,3.967));
#399=VERTEX_POINT('',#400);
#400=CARTESIAN_POINT('',(4.43,0.17,3.967));
#401=LINE('',#402,#142);
#402=CARTESIAN_POINT('',(4.43,-8.89,3.967));
#403=ORIENTED_EDGE('',*,*,#404,.T.);
#404=EDGE_CURVE('',#399,#405,#407,.T.);
#405=VERTEX_POINT('',#406);
#406=CARTESIAN_POINT('',(5.39,0.17,3.967));
#407=LINE('',#286,#78);
#408=ORIENTED_EDGE('',*,*,#409,.T.);
#409=EDGE_CURVE('',#405,#410,#412,.T.);
#410=VERTEX_POINT('',#411);
#411=CARTESIAN_POINT('',(5.89,0.67,3.967));
#412=CIRCLE('',#413,0.5);
#413=AXIS2_PLACEMENT_3D('',#414,#13,#34);
#414=CARTESIAN_POINT('',(5.39,0.67,3.967));
#415=ORIENTED_EDGE('',*,*,#416,.T.);
#416=EDGE_CURVE('',#410,#417,#419,.T.);
#417=VERTEX_POINT('',#418);
#418=CARTESIAN_POINT('',(5.89,1.27,3.967));
#419=LINE('',#411,#142);
#420=ORIENTED_EDGE('',*,*,#421,.F.);
#421=EDGE_CURVE('',#385,#417,#65,.T.);
#422=ORIENTED_EDGE('',*,*,#384,.F.);
#423=ORIENTED_EDGE('',*,*,#101,.F.);
#424=ORIENTED_EDGE('',*,*,#425,.F.);
#425=EDGE_CURVE('',#426,#97,#428,.T.);
#426=VERTEX_POINT('',#427);
#427=CARTESIAN_POINT('',(5.89,-8.29,3.967));
#428=LINE('',#427,#33);
#429=ORIENTED_EDGE('',*,*,#430,.F.);
#430=EDGE_CURVE('',#431,#426,#433,.T.);
#431=VERTEX_POINT('',#432);
#432=CARTESIAN_POINT('',(5.39,-7.79,3.967));
#433=CIRCLE('',#434,0.5);
#434=AXIS2_PLACEMENT_3D('',#435,#62,#109);
#435=CARTESIAN_POINT('',(5.39,-8.29,3.967));
#436=ORIENTED_EDGE('',*,*,#437,.F.);
#437=EDGE_CURVE('',#438,#431,#440,.T.);
#438=VERTEX_POINT('',#439);
#439=CARTESIAN_POINT('',(4.43,-7.79,3.967));
#440=LINE('',#319,#78);
#441=ORIENTED_EDGE('',*,*,#442,.T.);
#442=EDGE_CURVE('',#438,#443,#401,.T.);
#443=VERTEX_POINT('',#444);
#444=CARTESIAN_POINT('',(4.43,-6.99,3.967));
#445=ORIENTED_EDGE('',*,*,#446,.T.);
#446=EDGE_CURVE('',#443,#447,#449,.T.);
#447=VERTEX_POINT('',#448);
#448=CARTESIAN_POINT('',(5.39,-6.99,3.967));
#449=LINE('',#312,#78);
#450=ORIENTED_EDGE('',*,*,#451,.T.);
#451=EDGE_CURVE('',#447,#452,#454,.T.);
#452=VERTEX_POINT('',#453);
#453=CARTESIAN_POINT('',(5.89,-6.49,3.967));
#454=CIRCLE('',#455,0.5);
#455=AXIS2_PLACEMENT_3D('',#456,#13,#34);
#456=CARTESIAN_POINT('',(5.39,-6.49,3.967));
#457=ORIENTED_EDGE('',*,*,#458,.T.);
#458=EDGE_CURVE('',#452,#459,#461,.T.);
#459=VERTEX_POINT('',#460);
#460=CARTESIAN_POINT('',(5.89,-2.23,3.967));
#461=LINE('',#453,#142);
#462=ORIENTED_EDGE('',*,*,#463,.T.);
#463=EDGE_CURVE('',#459,#464,#466,.T.);
#464=VERTEX_POINT('',#465);
#465=CARTESIAN_POINT('',(5.39,-1.73,3.967));
#466=CIRCLE('',#467,0.5);
#467=AXIS2_PLACEMENT_3D('',#468,#13,#14);
#468=CARTESIAN_POINT('',(5.39,-2.23,3.967));
#469=ORIENTED_EDGE('',*,*,#470,.T.);
#470=EDGE_CURVE('',#464,#397,#471,.T.);
#471=LINE('',#465,#54);
#472=FACE_BOUND('',#473,.F.);
#473=EDGE_LOOP('',(#474));
#474=ORIENTED_EDGE('',*,*,#475,.F.);
#475=EDGE_CURVE('',#476,#476,#478,.T.);
#476=VERTEX_POINT('',#477);
#477=CARTESIAN_POINT('',(7.62,-5.942,3.967));
#478=CIRCLE('',#479,0.862);
#479=AXIS2_PLACEMENT_3D('',#480,#62,#34);
#480=CARTESIAN_POINT('',(7.62,-5.08,3.967));
#481=FACE_BOUND('',#482,.F.);
#482=EDGE_LOOP('',(#483));
#483=ORIENTED_EDGE('',*,*,#484,.F.);
#484=EDGE_CURVE('',#485,#485,#487,.T.);
#485=VERTEX_POINT('',#486);
#486=CARTESIAN_POINT('',(7.62,-3.402,3.967));
#487=CIRCLE('',#488,0.862);
#488=AXIS2_PLACEMENT_3D('',#489,#62,#34);
#489=CARTESIAN_POINT('',(7.62,-2.54,3.967));
#490=FACE_BOUND('',#491,.F.);
#491=EDGE_LOOP('',(#492));
#492=ORIENTED_EDGE('',*,*,#493,.F.);
#493=EDGE_CURVE('',#494,#494,#496,.T.);
#494=VERTEX_POINT('',#495);
#495=CARTESIAN_POINT('',(7.62,-0.862,3.967));
#496=CIRCLE('',#497,0.862);
#497=AXIS2_PLACEMENT_3D('',#498,#62,#34);
#498=CARTESIAN_POINT('',(7.62,-8.881784197001E-016,3.967));
#499=FACE_BOUND('',#500,.F.);
#500=EDGE_LOOP('',(#501));
#501=ORIENTED_EDGE('',*,*,#502,.F.);
#502=EDGE_CURVE('',#503,#503,#505,.T.);
#503=VERTEX_POINT('',#504);
#504=CARTESIAN_POINT('',(7.62,-8.482,3.967));
#505=CIRCLE('',#506,0.862);
#506=AXIS2_PLACEMENT_3D('',#507,#62,#34);
#507=CARTESIAN_POINT('',(7.62,-7.62,3.967));
#508=ADVANCED_FACE('',(#509),#519,.T.);
#509=FACE_BOUND('',#510,.T.);
#510=EDGE_LOOP('',(#85,#511,#516,#327));
#511=ORIENTED_EDGE('',*,*,#512,.T.);
#512=EDGE_CURVE('',#87,#513,#515,.T.);
#513=VERTEX_POINT('',#514);
#514=CARTESIAN_POINT('',(1.73,-8.29,2.6335));
#515=LINE('',#88,#142);
#516=ORIENTED_EDGE('',*,*,#517,.F.);
#517=EDGE_CURVE('',#322,#513,#518,.T.);
#518=LINE('',#323,#61);
#519=PLANE('',#520);
#520=AXIS2_PLACEMENT_3D('',#83,#14,#109);
#521=ADVANCED_FACE('',(#522),#532,.T.);
#522=FACE_BOUND('',#523,.T.);
#523=EDGE_LOOP('',(#524,#529,#95,#424));
#524=ORIENTED_EDGE('',*,*,#525,.T.);
#525=EDGE_CURVE('',#426,#526,#528,.T.);
#526=VERTEX_POINT('',#527);
#527=CARTESIAN_POINT('',(5.89,-8.29,2.6335));
#528=LINE('',#427,#61);
#529=ORIENTED_EDGE('',*,*,#530,.T.);
#530=EDGE_CURVE('',#526,#92,#531,.T.);
#531=LINE('',#527,#33);
#532=PLANE('',#533);
#533=AXIS2_PLACEMENT_3D('',#427,#55,#34);
#534=ADVANCED_FACE('',(#535),#573,.T.);
#535=FACE_BOUND('',#536,.T.);
#536=EDGE_LOOP('',(#537,#90,#538,#539,#546,#552,#558,#563,#568));
#537=ORIENTED_EDGE('',*,*,#512,.F.);
#538=ORIENTED_EDGE('',*,*,#530,.F.);
#539=ORIENTED_EDGE('',*,*,#540,.F.);
#540=EDGE_CURVE('',#541,#526,#543,.T.);
#541=VERTEX_POINT('',#542);
#542=CARTESIAN_POINT('',(5.39,-7.79,2.6335));
#543=CIRCLE('',#544,0.5);
#544=AXIS2_PLACEMENT_3D('',#545,#62,#109);
#545=CARTESIAN_POINT('',(5.39,-8.29,2.6335));
#546=ORIENTED_EDGE('',*,*,#547,.F.);
#547=EDGE_CURVE('',#548,#541,#550,.T.);
#548=VERTEX_POINT('',#549);
#549=CARTESIAN_POINT('',(4.43,-7.79,2.6335));
#550=LINE('',#551,#78);
#551=CARTESIAN_POINT('',(2.23,-7.79,2.6335));
#552=ORIENTED_EDGE('',*,*,#553,.T.);
#553=EDGE_CURVE('',#548,#554,#556,.T.);
#554=VERTEX_POINT('',#555);
#555=CARTESIAN_POINT('',(4.43,-6.99,2.6335));
#556=LINE('',#557,#142);
#557=CARTESIAN_POINT('',(4.43,-8.89,2.6335));
#558=ORIENTED_EDGE('',*,*,#559,.F.);
#559=EDGE_CURVE('',#560,#554,#562,.T.);
#560=VERTEX_POINT('',#561);
#561=CARTESIAN_POINT('',(2.23,-6.99,2.6335));
#562=LINE('',#561,#78);
#563=ORIENTED_EDGE('',*,*,#564,.T.);
#564=EDGE_CURVE('',#560,#565,#566,.T.);
#565=VERTEX_POINT('',#551);
#566=LINE('',#567,#33);
#567=CARTESIAN_POINT('',(2.23,1.27,2.6335));
#568=ORIENTED_EDGE('',*,*,#569,.F.);
#569=EDGE_CURVE('',#513,#565,#570,.T.);
#570=CIRCLE('',#571,0.5);
#571=AXIS2_PLACEMENT_3D('',#572,#62,#55);
#572=CARTESIAN_POINT('',(2.23,-8.29,2.6335));
#573=PLANE('',#574);
#574=AXIS2_PLACEMENT_3D('',#88,#13,#34);
#575=ADVANCED_FACE('',(#576),#587,.F.);
#576=FACE_BOUND('',#577,.F.);
#577=EDGE_LOOP('',(#578,#118,#579,#584,#586));
#578=ORIENTED_EDGE('',*,*,#374,.T.);
#579=ORIENTED_EDGE('',*,*,#580,.F.);
#580=EDGE_CURVE('',#581,#120,#583,.T.);
#581=VERTEX_POINT('',#582);
#582=CARTESIAN_POINT('',(2.23,0.17,2.6335));
#583=LINE('',#286,#61);
#584=ORIENTED_EDGE('',*,*,#585,.F.);
#585=EDGE_CURVE('',#285,#581,#583,.T.);
#586=ORIENTED_EDGE('',*,*,#284,.F.);
#587=CYLINDRICAL_SURFACE('',#288,0.5);
#588=ADVANCED_FACE('',(#589),#68,.F.);
#589=FACE_BOUND('',#590,.F.);
#590=EDGE_LOOP('',(#143,#591,#592,#593));
#591=ORIENTED_EDGE('',*,*,#388,.T.);
#592=ORIENTED_EDGE('',*,*,#421,.T.);
#593=ORIENTED_EDGE('',*,*,#594,.T.);
#594=EDGE_CURVE('',#417,#139,#595,.T.);
#595=LINE('',#418,#61);
#596=ADVANCED_FACE('',(#597),#612,.F.);
#597=FACE_BOUND('',#598,.F.);
#598=EDGE_LOOP('',(#599,#604,#125,#605,#608,#609));
#599=ORIENTED_EDGE('',*,*,#600,.F.);
#600=EDGE_CURVE('',#581,#601,#603,.T.);
#601=VERTEX_POINT('',#602);
#602=CARTESIAN_POINT('',(4.43,0.17,2.6335));
#603=LINE('',#582,#78);
#604=ORIENTED_EDGE('',*,*,#580,.T.);
#605=ORIENTED_EDGE('',*,*,#606,.F.);
#606=EDGE_CURVE('',#405,#127,#607,.T.);
#607=LINE('',#406,#61);
#608=ORIENTED_EDGE('',*,*,#404,.F.);
#609=ORIENTED_EDGE('',*,*,#610,.F.);
#610=EDGE_CURVE('',#601,#399,#611,.T.);
#611=LINE('',#400,#27);
#612=PLANE('',#613);
#613=AXIS2_PLACEMENT_3D('',#286,#34,#14);
#614=ADVANCED_FACE('',(#615),#622,.F.);
#615=FACE_BOUND('',#616,.F.);
#616=EDGE_LOOP('',(#617,#137,#620,#621));
#617=ORIENTED_EDGE('',*,*,#618,.T.);
#618=EDGE_CURVE('',#410,#132,#619,.T.);
#619=LINE('',#411,#61);
#620=ORIENTED_EDGE('',*,*,#594,.F.);
#621=ORIENTED_EDGE('',*,*,#416,.F.);
#622=PLANE('',#623);
#623=AXIS2_PLACEMENT_3D('',#411,#14,#109);
#624=ADVANCED_FACE('',(#625),#630,.F.);
#625=FACE_BOUND('',#626,.F.);
#626=EDGE_LOOP('',(#627,#130,#628,#629));
#627=ORIENTED_EDGE('',*,*,#606,.T.);
#628=ORIENTED_EDGE('',*,*,#618,.F.);
#629=ORIENTED_EDGE('',*,*,#409,.F.);
#630=CYLINDRICAL_SURFACE('',#413,0.5);
#631=ADVANCED_FACE('',(#632),#641,.F.);
#632=FACE_BOUND('',#633,.F.);
#633=EDGE_LOOP('',(#634,#151,#637,#640));
#634=ORIENTED_EDGE('',*,*,#635,.T.);
#635=EDGE_CURVE('',#459,#153,#636,.T.);
#636=LINE('',#460,#61);
#637=ORIENTED_EDGE('',*,*,#638,.F.);
#638=EDGE_CURVE('',#464,#155,#639,.T.);
#639=LINE('',#465,#61);
#640=ORIENTED_EDGE('',*,*,#463,.F.);
#641=CYLINDRICAL_SURFACE('',#467,0.5);
#642=ADVANCED_FACE('',(#643),#650,.F.);
#643=FACE_BOUND('',#644,.F.);
#644=EDGE_LOOP('',(#645,#196,#648,#649));
#645=ORIENTED_EDGE('',*,*,#646,.T.);
#646=EDGE_CURVE('',#452,#191,#647,.T.);
#647=LINE('',#453,#61);
#648=ORIENTED_EDGE('',*,*,#635,.F.);
#649=ORIENTED_EDGE('',*,*,#458,.F.);
#650=PLANE('',#651);
#651=AXIS2_PLACEMENT_3D('',#453,#14,#109);
#652=ADVANCED_FACE('',(#653),#671,.F.);
#653=FACE_BOUND('',#654,.F.);
#654=EDGE_LOOP('',(#655,#656,#160,#657,#662,#668));
#655=ORIENTED_EDGE('',*,*,#470,.F.);
#656=ORIENTED_EDGE('',*,*,#638,.T.);
#657=ORIENTED_EDGE('',*,*,#658,.F.);
#658=EDGE_CURVE('',#659,#162,#661,.T.);
#659=VERTEX_POINT('',#660);
#660=CARTESIAN_POINT('',(2.23,-1.73,2.6335));
#661=LINE('',#293,#61);
#662=ORIENTED_EDGE('',*,*,#663,.F.);
#663=EDGE_CURVE('',#664,#659,#666,.T.);
#664=VERTEX_POINT('',#665);
#665=CARTESIAN_POINT('',(4.43,-1.73,2.6335));
#666=LINE('',#667,#54);
#667=CARTESIAN_POINT('',(3.81,-1.73,2.6335));
#668=ORIENTED_EDGE('',*,*,#669,.F.);
#669=EDGE_CURVE('',#397,#664,#670,.T.);
#670=LINE('',#398,#61);
#671=PLANE('',#672);
#672=AXIS2_PLACEMENT_3D('',#465,#109,#55);
#673=ADVANCED_FACE('',(#674),#681,.F.);
#674=FACE_BOUND('',#675,.F.);
#675=EDGE_LOOP('',(#676,#189,#679,#680));
#676=ORIENTED_EDGE('',*,*,#677,.T.);
#677=EDGE_CURVE('',#447,#186,#678,.T.);
#678=LINE('',#448,#61);
#679=ORIENTED_EDGE('',*,*,#646,.F.);
#680=ORIENTED_EDGE('',*,*,#451,.F.);
#681=CYLINDRICAL_SURFACE('',#455,0.5);
#682=ADVANCED_FACE('',(#683),#692,.F.);
#683=FACE_BOUND('',#684,.F.);
#684=EDGE_LOOP('',(#685,#687,#165,#688,#691));
#685=ORIENTED_EDGE('',*,*,#686,.T.);
#686=EDGE_CURVE('',#292,#659,#661,.T.);
#687=ORIENTED_EDGE('',*,*,#658,.T.);
#688=ORIENTED_EDGE('',*,*,#689,.F.);
#689=EDGE_CURVE('',#298,#167,#690,.T.);
#690=LINE('',#299,#61);
#691=ORIENTED_EDGE('',*,*,#297,.F.);
#692=CYLINDRICAL_SURFACE('',#301,0.5);
#693=ADVANCED_FACE('',(#694),#704,.F.);
#694=FACE_BOUND('',#695,.F.);
#695=EDGE_LOOP('',(#558,#696,#184,#699,#700,#701));
#696=ORIENTED_EDGE('',*,*,#697,.T.);
#697=EDGE_CURVE('',#560,#179,#698,.T.);
#698=LINE('',#312,#61);
#699=ORIENTED_EDGE('',*,*,#677,.F.);
#700=ORIENTED_EDGE('',*,*,#446,.F.);
#701=ORIENTED_EDGE('',*,*,#702,.F.);
#702=EDGE_CURVE('',#554,#443,#703,.T.);
#703=LINE('',#444,#27);
#704=PLANE('',#705);
#705=AXIS2_PLACEMENT_3D('',#312,#34,#14);
#706=ADVANCED_FACE('',(#707),#713,.F.);
#707=FACE_BOUND('',#708,.T.);
#708=EDGE_LOOP('',(#303,#709,#712,#688));
#709=ORIENTED_EDGE('',*,*,#710,.T.);
#710=EDGE_CURVE('',#305,#174,#711,.T.);
#711=LINE('',#306,#61);
#712=ORIENTED_EDGE('',*,*,#173,.F.);
#713=PLANE('',#714);
#714=AXIS2_PLACEMENT_3D('',#308,#55,#62);
#715=ADVANCED_FACE('',(#716),#722,.F.);
#716=FACE_BOUND('',#717,.F.);
#717=EDGE_LOOP('',(#709,#177,#718,#719,#721));
#718=ORIENTED_EDGE('',*,*,#697,.F.);
#719=ORIENTED_EDGE('',*,*,#720,.F.);
#720=EDGE_CURVE('',#311,#560,#698,.T.);
#721=ORIENTED_EDGE('',*,*,#310,.F.);
#722=CYLINDRICAL_SURFACE('',#314,0.5);
#723=ADVANCED_FACE('',(#724,#727),#734,.T.);
#724=FACE_BOUND('',#725,.T.);
#725=EDGE_LOOP('',(#726));
#726=ORIENTED_EDGE('',*,*,#202,.F.);
#727=FACE_BOUND('',#728,.T.);
#728=EDGE_LOOP('',(#729));
#729=ORIENTED_EDGE('',*,*,#730,.T.);
#730=EDGE_CURVE('',#731,#731,#733,.T.);
#731=VERTEX_POINT('',#732);
#732=CARTESIAN_POINT('',(7.62,-8.382,1.3));
#733=CIRCLE('',#206,0.762);
#734=PLANE('',#735);
#735=AXIS2_PLACEMENT_3D('',#204,#62,#109);
#736=ADVANCED_FACE('',(#737,#740),#747,.T.);
#737=FACE_BOUND('',#738,.T.);
#738=EDGE_LOOP('',(#739));
#739=ORIENTED_EDGE('',*,*,#211,.F.);
#740=FACE_BOUND('',#741,.T.);
#741=EDGE_LOOP('',(#742));
#742=ORIENTED_EDGE('',*,*,#743,.T.);
#743=EDGE_CURVE('',#744,#744,#746,.T.);
#744=VERTEX_POINT('',#745);
#745=CARTESIAN_POINT('',(7.62,-3.302,1.3));
#746=CIRCLE('',#215,0.762);
#747=PLANE('',#748);
#748=AXIS2_PLACEMENT_3D('',#213,#62,#109);
#749=ADVANCED_FACE('',(#750,#753),#760,.T.);
#750=FACE_BOUND('',#751,.T.);
#751=EDGE_LOOP('',(#752));
#752=ORIENTED_EDGE('',*,*,#220,.F.);
#753=FACE_BOUND('',#754,.T.);
#754=EDGE_LOOP('',(#755));
#755=ORIENTED_EDGE('',*,*,#756,.T.);
#756=EDGE_CURVE('',#757,#757,#759,.T.);
#757=VERTEX_POINT('',#758);
#758=CARTESIAN_POINT('',(7.62,-5.842,1.3));
#759=CIRCLE('',#224,0.762);
#760=PLANE('',#761);
#761=AXIS2_PLACEMENT_3D('',#222,#62,#109);
#762=ADVANCED_FACE('',(#763,#766),#773,.T.);
#763=FACE_BOUND('',#764,.T.);
#764=EDGE_LOOP('',(#765));
#765=ORIENTED_EDGE('',*,*,#229,.F.);
#766=FACE_BOUND('',#767,.T.);
#767=EDGE_LOOP('',(#768));
#768=ORIENTED_EDGE('',*,*,#769,.T.);
#769=EDGE_CURVE('',#770,#770,#772,.T.);
#770=VERTEX_POINT('',#771);
#771=CARTESIAN_POINT('',(-1.33226762955E-015,-6.858,1.3));
#772=CIRCLE('',#233,0.762);
#773=PLANE('',#774);
#774=AXIS2_PLACEMENT_3D('',#231,#62,#34);
#775=ADVANCED_FACE('',(#776,#779),#786,.T.);
#776=FACE_BOUND('',#777,.T.);
#777=EDGE_LOOP('',(#778));
#778=ORIENTED_EDGE('',*,*,#238,.F.);
#779=FACE_BOUND('',#780,.T.);
#780=EDGE_LOOP('',(#781));
#781=ORIENTED_EDGE('',*,*,#782,.T.);
#782=EDGE_CURVE('',#783,#783,#785,.T.);
#783=VERTEX_POINT('',#784);
#784=CARTESIAN_POINT('',(0.E+000,-4.318,1.3));
#785=CIRCLE('',#242,0.762);
#786=PLANE('',#787);
#787=AXIS2_PLACEMENT_3D('',#240,#62,#34);
#788=ADVANCED_FACE('',(#789,#792),#799,.T.);
#789=FACE_BOUND('',#790,.T.);
#790=EDGE_LOOP('',(#791));
#791=ORIENTED_EDGE('',*,*,#247,.F.);
#792=FACE_BOUND('',#793,.T.);
#793=EDGE_LOOP('',(#794));
#794=ORIENTED_EDGE('',*,*,#795,.T.);
#795=EDGE_CURVE('',#796,#796,#798,.T.);
#796=VERTEX_POINT('',#797);
#797=CARTESIAN_POINT('',(8.881784197001E-016,-1.778,1.3));
#798=CIRCLE('',#251,0.762);
#799=PLANE('',#800);
#800=AXIS2_PLACEMENT_3D('',#249,#62,#34);
#801=ADVANCED_FACE('',(#802,#805),#812,.T.);
#802=FACE_BOUND('',#803,.T.);
#803=EDGE_LOOP('',(#804));
#804=ORIENTED_EDGE('',*,*,#256,.F.);
#805=FACE_BOUND('',#806,.T.);
#806=EDGE_LOOP('',(#807));
#807=ORIENTED_EDGE('',*,*,#808,.T.);
#808=EDGE_CURVE('',#809,#809,#811,.T.);
#809=VERTEX_POINT('',#810);
#810=CARTESIAN_POINT('',(1.33226762955E-015,0.762,1.3));
#811=CIRCLE('',#260,0.762);
#812=PLANE('',#813);
#813=AXIS2_PLACEMENT_3D('',#258,#62,#34);
#814=ADVANCED_FACE('',(#815,#818),#825,.T.);
#815=FACE_BOUND('',#816,.T.);
#816=EDGE_LOOP('',(#817));
#817=ORIENTED_EDGE('',*,*,#265,.F.);
#818=FACE_BOUND('',#819,.T.);
#819=EDGE_LOOP('',(#820));
#820=ORIENTED_EDGE('',*,*,#821,.T.);
#821=EDGE_CURVE('',#822,#822,#824,.T.);
#822=VERTEX_POINT('',#823);
#823=CARTESIAN_POINT('',(7.62,-0.762,1.3));
#824=CIRCLE('',#269,0.762);
#825=PLANE('',#826);
#826=AXIS2_PLACEMENT_3D('',#267,#62,#109);
#827=ADVANCED_FACE('',(#828),#835,.F.);
#828=FACE_BOUND('',#829,.T.);
#829=EDGE_LOOP('',(#830,#831,#832,#320));
#830=ORIENTED_EDGE('',*,*,#517,.T.);
#831=ORIENTED_EDGE('',*,*,#569,.T.);
#832=ORIENTED_EDGE('',*,*,#833,.F.);
#833=EDGE_CURVE('',#318,#565,#834,.T.);
#834=LINE('',#319,#61);
#835=CYLINDRICAL_SURFACE('',#836,0.5);
#836=AXIS2_PLACEMENT_3D('',#326,#13,#55);
#837=ADVANCED_FACE('',(#838),#845,.F.);
#838=FACE_BOUND('',#839,.F.);
#839=EDGE_LOOP('',(#840,#841,#842,#844));
#840=ORIENTED_EDGE('',*,*,#291,.F.);
#841=ORIENTED_EDGE('',*,*,#585,.T.);
#842=ORIENTED_EDGE('',*,*,#843,.T.);
#843=EDGE_CURVE('',#581,#659,#566,.T.);
#844=ORIENTED_EDGE('',*,*,#686,.F.);
#845=PLANE('',#846);
#846=AXIS2_PLACEMENT_3D('',#295,#55,#34);
#847=ADVANCED_FACE('',(#848),#845,.F.);
#848=FACE_BOUND('',#849,.F.);
#849=EDGE_LOOP('',(#850,#851,#563,#832));
#850=ORIENTED_EDGE('',*,*,#317,.F.);
#851=ORIENTED_EDGE('',*,*,#720,.T.);
#852=ADVANCED_FACE('',(#853),#867,.T.);
#853=FACE_BOUND('',#854,.F.);
#854=EDGE_LOOP('',(#855,#856,#861,#866));
#855=ORIENTED_EDGE('',*,*,#334,.T.);
#856=ORIENTED_EDGE('',*,*,#857,.T.);
#857=EDGE_CURVE('',#335,#858,#860,.T.);
#858=VERTEX_POINT('',#859);
#859=CARTESIAN_POINT('',(0.E+000,-4.218,4.007));
#860=LINE('',#240,#27);
#861=ORIENTED_EDGE('',*,*,#862,.T.);
#862=EDGE_CURVE('',#858,#858,#863,.T.);
#863=CIRCLE('',#864,0.862);
#864=AXIS2_PLACEMENT_3D('',#865,#13,#109);
#865=CARTESIAN_POINT('',(-3.604368215926E-016,-5.08,4.007));
#866=ORIENTED_EDGE('',*,*,#857,.F.);
#867=CYLINDRICAL_SURFACE('',#868,0.862);
#868=AXIS2_PLACEMENT_3D('',#243,#62,#109);
#869=ADVANCED_FACE('',(#870),#884,.T.);
#870=FACE_BOUND('',#871,.F.);
#871=EDGE_LOOP('',(#872,#873,#878,#883));
#872=ORIENTED_EDGE('',*,*,#343,.T.);
#873=ORIENTED_EDGE('',*,*,#874,.T.);
#874=EDGE_CURVE('',#344,#875,#877,.T.);
#875=VERTEX_POINT('',#876);
#876=CARTESIAN_POINT('',(8.881784197001E-016,-1.678,4.007));
#877=LINE('',#249,#27);
#878=ORIENTED_EDGE('',*,*,#879,.T.);
#879=EDGE_CURVE('',#875,#875,#880,.T.);
#880=CIRCLE('',#881,0.862);
#881=AXIS2_PLACEMENT_3D('',#882,#13,#109);
#882=CARTESIAN_POINT('',(5.277415981075E-016,-2.54,4.007));
#883=ORIENTED_EDGE('',*,*,#874,.F.);
#884=CYLINDRICAL_SURFACE('',#885,0.862);
#885=AXIS2_PLACEMENT_3D('',#252,#62,#109);
#886=ADVANCED_FACE('',(#887),#901,.T.);
#887=FACE_BOUND('',#888,.F.);
#888=EDGE_LOOP('',(#889,#890,#895,#900));
#889=ORIENTED_EDGE('',*,*,#352,.T.);
#890=ORIENTED_EDGE('',*,*,#891,.T.);
#891=EDGE_CURVE('',#353,#892,#894,.T.);
#892=VERTEX_POINT('',#893);
#893=CARTESIAN_POINT('',(1.7763568394E-015,0.862,4.007));
#894=LINE('',#258,#27);
#895=ORIENTED_EDGE('',*,*,#896,.T.);
#896=EDGE_CURVE('',#892,#892,#897,.T.);
#897=CIRCLE('',#898,0.862);
#898=AXIS2_PLACEMENT_3D('',#899,#13,#109);
#899=CARTESIAN_POINT('',(1.415920017808E-015,1.443289932013E-015,4.007));
#900=ORIENTED_EDGE('',*,*,#891,.F.);
#901=CYLINDRICAL_SURFACE('',#902,0.862);
#902=AXIS2_PLACEMENT_3D('',#261,#62,#109);
#903=ADVANCED_FACE('',(#904),#918,.T.);
#904=FACE_BOUND('',#905,.F.);
#905=EDGE_LOOP('',(#906,#907,#912,#917));
#906=ORIENTED_EDGE('',*,*,#361,.T.);
#907=ORIENTED_EDGE('',*,*,#908,.T.);
#908=EDGE_CURVE('',#362,#909,#911,.T.);
#909=VERTEX_POINT('',#910);
#910=CARTESIAN_POINT('',(-8.881784197001E-016,-6.758,4.007));
#911=LINE('',#231,#27);
#912=ORIENTED_EDGE('',*,*,#913,.T.);
#913=EDGE_CURVE('',#909,#909,#914,.T.);
#914=CIRCLE('',#915,0.862);
#915=AXIS2_PLACEMENT_3D('',#916,#13,#109);
#916=CARTESIAN_POINT('',(-1.248615241293E-015,-7.62,4.007));
#917=ORIENTED_EDGE('',*,*,#908,.F.);
#918=CYLINDRICAL_SURFACE('',#919,0.862);
#919=AXIS2_PLACEMENT_3D('',#234,#62,#109);
#920=ADVANCED_FACE('',(#921),#928,.F.);
#921=FACE_BOUND('',#922,.F.);
#922=EDGE_LOOP('',(#923,#924,#925,#927));
#923=ORIENTED_EDGE('',*,*,#396,.F.);
#924=ORIENTED_EDGE('',*,*,#669,.T.);
#925=ORIENTED_EDGE('',*,*,#926,.T.);
#926=EDGE_CURVE('',#664,#601,#556,.T.);
#927=ORIENTED_EDGE('',*,*,#610,.T.);
#928=PLANE('',#929);
#929=AXIS2_PLACEMENT_3D('',#402,#14,#109);
#930=ADVANCED_FACE('',(#931),#928,.F.);
#931=FACE_BOUND('',#932,.F.);
#932=EDGE_LOOP('',(#933,#934,#552,#937));
#933=ORIENTED_EDGE('',*,*,#442,.F.);
#934=ORIENTED_EDGE('',*,*,#935,.F.);
#935=EDGE_CURVE('',#548,#438,#936,.T.);
#936=LINE('',#439,#27);
#937=ORIENTED_EDGE('',*,*,#702,.T.);
#938=ADVANCED_FACE('',(#939),#945,.T.);
#939=FACE_BOUND('',#940,.T.);
#940=EDGE_LOOP('',(#436,#934,#941,#942));
#941=ORIENTED_EDGE('',*,*,#547,.T.);
#942=ORIENTED_EDGE('',*,*,#943,.F.);
#943=EDGE_CURVE('',#431,#541,#944,.T.);
#944=LINE('',#432,#61);
#945=PLANE('',#946);
#946=AXIS2_PLACEMENT_3D('',#319,#34,#14);
#947=ADVANCED_FACE('',(#948),#953,.F.);
#948=FACE_BOUND('',#949,.T.);
#949=EDGE_LOOP('',(#950,#951,#952,#429));
#950=ORIENTED_EDGE('',*,*,#943,.T.);
#951=ORIENTED_EDGE('',*,*,#540,.T.);
#952=ORIENTED_EDGE('',*,*,#525,.F.);
#953=CYLINDRICAL_SURFACE('',#954,0.5);
#954=AXIS2_PLACEMENT_3D('',#435,#13,#109);
#955=ADVANCED_FACE('',(#956),#970,.T.);
#956=FACE_BOUND('',#957,.F.);
#957=EDGE_LOOP('',(#958,#959,#964,#969));
#958=ORIENTED_EDGE('',*,*,#475,.T.);
#959=ORIENTED_EDGE('',*,*,#960,.T.);
#960=EDGE_CURVE('',#476,#961,#963,.T.);
#961=VERTEX_POINT('',#962);
#962=CARTESIAN_POINT('',(7.62,-5.942,4.007));
#963=LINE('',#222,#27);
#964=ORIENTED_EDGE('',*,*,#965,.T.);
#965=EDGE_CURVE('',#961,#961,#966,.T.);
#966=CIRCLE('',#967,0.862);
#967=AXIS2_PLACEMENT_3D('',#968,#13,#34);
#968=CARTESIAN_POINT('',(7.62,-5.08,4.007));
#969=ORIENTED_EDGE('',*,*,#960,.F.);
#970=CYLINDRICAL_SURFACE('',#971,0.862);
#971=AXIS2_PLACEMENT_3D('',#225,#62,#34);
#972=ADVANCED_FACE('',(#973),#987,.T.);
#973=FACE_BOUND('',#974,.F.);
#974=EDGE_LOOP('',(#975,#976,#981,#986));
#975=ORIENTED_EDGE('',*,*,#484,.T.);
#976=ORIENTED_EDGE('',*,*,#977,.T.);
#977=EDGE_CURVE('',#485,#978,#980,.T.);
#978=VERTEX_POINT('',#979);
#979=CARTESIAN_POINT('',(7.62,-3.402,4.007));
#980=LINE('',#213,#27);
#981=ORIENTED_EDGE('',*,*,#982,.T.);
#982=EDGE_CURVE('',#978,#978,#983,.T.);
#983=CIRCLE('',#984,0.862);
#984=AXIS2_PLACEMENT_3D('',#985,#13,#34);
#985=CARTESIAN_POINT('',(7.62,-2.54,4.007));
#986=ORIENTED_EDGE('',*,*,#977,.F.);
#987=CYLINDRICAL_SURFACE('',#988,0.862);
#988=AXIS2_PLACEMENT_3D('',#216,#62,#34);
#989=ADVANCED_FACE('',(#990),#1004,.T.);
#990=FACE_BOUND('',#991,.F.);
#991=EDGE_LOOP('',(#992,#993,#998,#1003));
#992=ORIENTED_EDGE('',*,*,#493,.T.);
#993=ORIENTED_EDGE('',*,*,#994,.T.);
#994=EDGE_CURVE('',#494,#995,#997,.T.);
#995=VERTEX_POINT('',#996);
#996=CARTESIAN_POINT('',(7.62,-0.862,4.007));
#997=LINE('',#267,#27);
#998=ORIENTED_EDGE('',*,*,#999,.T.);
#999=EDGE_CURVE('',#995,#995,#1000,.T.);
#1000=CIRCLE('',#1001,0.862);
#1001=AXIS2_PLACEMENT_3D('',#1002,#13,#34);
#1002=CARTESIAN_POINT('',(7.62,-9.992007221626E-016,4.007));
#1003=ORIENTED_EDGE('',*,*,#994,.F.);
#1004=CYLINDRICAL_SURFACE('',#1005,0.862);
#1005=AXIS2_PLACEMENT_3D('',#270,#62,#34);
#1006=ADVANCED_FACE('',(#1007),#1021,.T.);
#1007=FACE_BOUND('',#1008,.F.);
#1008=EDGE_LOOP('',(#1009,#1010,#1015,#1020));
#1009=ORIENTED_EDGE('',*,*,#502,.T.);
#1010=ORIENTED_EDGE('',*,*,#1011,.T.);
#1011=EDGE_CURVE('',#503,#1012,#1014,.T.);
#1012=VERTEX_POINT('',#1013);
#1013=CARTESIAN_POINT('',(7.62,-8.482,4.007));
#1014=LINE('',#204,#27);
#1015=ORIENTED_EDGE('',*,*,#1016,.T.);
#1016=EDGE_CURVE('',#1012,#1012,#1017,.T.);
#1017=CIRCLE('',#1018,0.862);
#1018=AXIS2_PLACEMENT_3D('',#1019,#13,#34);
#1019=CARTESIAN_POINT('',(7.62,-7.62,4.007));
#1020=ORIENTED_EDGE('',*,*,#1011,.F.);
#1021=CYLINDRICAL_SURFACE('',#1022,0.862);
#1022=AXIS2_PLACEMENT_3D('',#207,#62,#34);
#1023=ADVANCED_FACE('',(#1024),#1030,.F.);
#1024=FACE_BOUND('',#1025,.F.);
#1025=EDGE_LOOP('',(#1026,#1027,#1028,#1029));
#1026=ORIENTED_EDGE('',*,*,#663,.T.);
#1027=ORIENTED_EDGE('',*,*,#843,.F.);
#1028=ORIENTED_EDGE('',*,*,#600,.T.);
#1029=ORIENTED_EDGE('',*,*,#926,.F.);
#1030=PLANE('',#1031);
#1031=AXIS2_PLACEMENT_3D('',#567,#62,#109);
#1032=ADVANCED_FACE('',(#1033),#1047,.T.);
#1033=FACE_BOUND('',#1034,.T.);
#1034=EDGE_LOOP('',(#1035,#1040,#1045,#1046));
#1035=ORIENTED_EDGE('',*,*,#1036,.T.);
#1036=EDGE_CURVE('',#731,#1037,#1039,.T.);
#1037=VERTEX_POINT('',#1038);
#1038=CARTESIAN_POINT('',(7.62,-8.382,0.3));
#1039=LINE('',#732,#61);
#1040=ORIENTED_EDGE('',*,*,#1041,.T.);
#1041=EDGE_CURVE('',#1037,#1037,#1042,.T.);
#1042=CIRCLE('',#1043,0.762);
#1043=AXIS2_PLACEMENT_3D('',#1044,#13,#34);
#1044=CARTESIAN_POINT('',(7.62,-7.62,0.3));
#1045=ORIENTED_EDGE('',*,*,#1036,.F.);
#1046=ORIENTED_EDGE('',*,*,#730,.F.);
#1047=CYLINDRICAL_SURFACE('',#206,0.762);
#1048=ADVANCED_FACE('',(#1049),#1063,.T.);
#1049=FACE_BOUND('',#1050,.T.);
#1050=EDGE_LOOP('',(#1051,#1056,#1061,#1062));
#1051=ORIENTED_EDGE('',*,*,#1052,.T.);
#1052=EDGE_CURVE('',#744,#1053,#1055,.T.);
#1053=VERTEX_POINT('',#1054);
#1054=CARTESIAN_POINT('',(7.62,-3.302,0.3));
#1055=LINE('',#745,#61);
#1056=ORIENTED_EDGE('',*,*,#1057,.T.);
#1057=EDGE_CURVE('',#1053,#1053,#1058,.T.);
#1058=CIRCLE('',#1059,0.762);
#1059=AXIS2_PLACEMENT_3D('',#1060,#13,#34);
#1060=CARTESIAN_POINT('',(7.62,-2.54,0.3));
#1061=ORIENTED_EDGE('',*,*,#1052,.F.);
#1062=ORIENTED_EDGE('',*,*,#743,.F.);
#1063=CYLINDRICAL_SURFACE('',#215,0.762);
#1064=ADVANCED_FACE('',(#1065),#1079,.T.);
#1065=FACE_BOUND('',#1066,.T.);
#1066=EDGE_LOOP('',(#1067,#1072,#1077,#1078));
#1067=ORIENTED_EDGE('',*,*,#1068,.T.);
#1068=EDGE_CURVE('',#757,#1069,#1071,.T.);
#1069=VERTEX_POINT('',#1070);
#1070=CARTESIAN_POINT('',(7.62,-5.842,0.3));
#1071=LINE('',#758,#61);
#1072=ORIENTED_EDGE('',*,*,#1073,.T.);
#1073=EDGE_CURVE('',#1069,#1069,#1074,.T.);
#1074=CIRCLE('',#1075,0.762);
#1075=AXIS2_PLACEMENT_3D('',#1076,#13,#34);
#1076=CARTESIAN_POINT('',(7.62,-5.08,0.3));
#1077=ORIENTED_EDGE('',*,*,#1068,.F.);
#1078=ORIENTED_EDGE('',*,*,#756,.F.);
#1079=CYLINDRICAL_SURFACE('',#224,0.762);
#1080=ADVANCED_FACE('',(#1081),#1095,.T.);
#1081=FACE_BOUND('',#1082,.T.);
#1082=EDGE_LOOP('',(#1083,#1088,#1093,#1094));
#1083=ORIENTED_EDGE('',*,*,#1084,.T.);
#1084=EDGE_CURVE('',#770,#1085,#1087,.T.);
#1085=VERTEX_POINT('',#1086);
#1086=CARTESIAN_POINT('',(-8.881784197001E-016,-6.858,0.3));
#1087=LINE('',#771,#61);
#1088=ORIENTED_EDGE('',*,*,#1089,.T.);
#1089=EDGE_CURVE('',#1085,#1085,#1090,.T.);
#1090=CIRCLE('',#1091,0.762);
#1091=AXIS2_PLACEMENT_3D('',#1092,#13,#109);
#1092=CARTESIAN_POINT('',(-1.33226762955E-015,-7.62,0.3));
#1093=ORIENTED_EDGE('',*,*,#1084,.F.);
#1094=ORIENTED_EDGE('',*,*,#769,.F.);
#1095=CYLINDRICAL_SURFACE('',#233,0.762);
#1096=ADVANCED_FACE('',(#1097),#1111,.T.);
#1097=FACE_BOUND('',#1098,.T.);
#1098=EDGE_LOOP('',(#1099,#1104,#1109,#1110));
#1099=ORIENTED_EDGE('',*,*,#1100,.T.);
#1100=EDGE_CURVE('',#783,#1101,#1103,.T.);
#1101=VERTEX_POINT('',#1102);
#1102=CARTESIAN_POINT('',(0.E+000,-4.318,0.3));
#1103=LINE('',#784,#61);
#1104=ORIENTED_EDGE('',*,*,#1105,.T.);
#1105=EDGE_CURVE('',#1101,#1101,#1106,.T.);
#1106=CIRCLE('',#1107,0.762);
#1107=AXIS2_PLACEMENT_3D('',#1108,#13,#109);
#1108=CARTESIAN_POINT('',(-4.440892098501E-016,-5.08,0.3));
#1109=ORIENTED_EDGE('',*,*,#1100,.F.);
#1110=ORIENTED_EDGE('',*,*,#782,.F.);
#1111=CYLINDRICAL_SURFACE('',#242,0.762);
#1112=ADVANCED_FACE('',(#1113),#1127,.T.);
#1113=FACE_BOUND('',#1114,.T.);
#1114=EDGE_LOOP('',(#1115,#1120,#1125,#1126));
#1115=ORIENTED_EDGE('',*,*,#1116,.T.);
#1116=EDGE_CURVE('',#796,#1117,#1119,.T.);
#1117=VERTEX_POINT('',#1118);
#1118=CARTESIAN_POINT('',(8.881784197001E-016,-1.778,0.3));
#1119=LINE('',#797,#61);
#1120=ORIENTED_EDGE('',*,*,#1121,.T.);
#1121=EDGE_CURVE('',#1117,#1117,#1122,.T.);
#1122=CIRCLE('',#1123,0.762);
#1123=AXIS2_PLACEMENT_3D('',#1124,#13,#109);
#1124=CARTESIAN_POINT('',(4.440892098501E-016,-2.54,0.3));
#1125=ORIENTED_EDGE('',*,*,#1116,.F.);
#1126=ORIENTED_EDGE('',*,*,#795,.F.);
#1127=CYLINDRICAL_SURFACE('',#251,0.762);
#1128=ADVANCED_FACE('',(#1129),#1143,.T.);
#1129=FACE_BOUND('',#1130,.T.);
#1130=EDGE_LOOP('',(#1131,#1136,#1141,#1142));
#1131=ORIENTED_EDGE('',*,*,#1132,.T.);
#1132=EDGE_CURVE('',#809,#1133,#1135,.T.);
#1133=VERTEX_POINT('',#1134);
#1134=CARTESIAN_POINT('',(1.7763568394E-015,0.762,0.3));
#1135=LINE('',#810,#61);
#1136=ORIENTED_EDGE('',*,*,#1137,.T.);
#1137=EDGE_CURVE('',#1133,#1133,#1138,.T.);
#1138=CIRCLE('',#1139,0.762);
#1139=AXIS2_PLACEMENT_3D('',#1140,#13,#109);
#1140=CARTESIAN_POINT('',(1.33226762955E-015,1.33226762955E-015,0.3));
#1141=ORIENTED_EDGE('',*,*,#1132,.F.);
#1142=ORIENTED_EDGE('',*,*,#808,.F.);
#1143=CYLINDRICAL_SURFACE('',#260,0.762);
#1144=ADVANCED_FACE('',(#1145),#1159,.T.);
#1145=FACE_BOUND('',#1146,.T.);
#1146=EDGE_LOOP('',(#1147,#1152,#1157,#1158));
#1147=ORIENTED_EDGE('',*,*,#1148,.T.);
#1148=EDGE_CURVE('',#822,#1149,#1151,.T.);
#1149=VERTEX_POINT('',#1150);
#1150=CARTESIAN_POINT('',(7.62,-0.762,0.3));
#1151=LINE('',#823,#61);
#1152=ORIENTED_EDGE('',*,*,#1153,.T.);
#1153=EDGE_CURVE('',#1149,#1149,#1154,.T.);
#1154=CIRCLE('',#1155,0.762);
#1155=AXIS2_PLACEMENT_3D('',#1156,#13,#34);
#1156=CARTESIAN_POINT('',(7.62,-8.881784197001E-016,0.3));
#1157=ORIENTED_EDGE('',*,*,#1148,.F.);
#1158=ORIENTED_EDGE('',*,*,#821,.F.);
#1159=CYLINDRICAL_SURFACE('',#269,0.762);
#1160=ADVANCED_FACE('',(#1161,#1164),#1172,.F.);
#1161=FACE_BOUND('',#1162,.F.);
#1162=EDGE_LOOP('',(#1163));
#1163=ORIENTED_EDGE('',*,*,#862,.F.);
#1164=FACE_BOUND('',#1165,.F.);
#1165=EDGE_LOOP('',(#1166));
#1166=ORIENTED_EDGE('',*,*,#1167,.F.);
#1167=EDGE_CURVE('',#1168,#1168,#1170,.T.);
#1168=VERTEX_POINT('',#1169);
#1169=CARTESIAN_POINT('',(-4.440892098501E-016,-5.842,4.007));
#1170=CIRCLE('',#1171,0.762);
#1171=AXIS2_PLACEMENT_3D('',#865,#62,#34);
#1172=PLANE('',#1173);
#1173=AXIS2_PLACEMENT_3D('',#859,#62,#34);
#1174=ADVANCED_FACE('',(#1175,#1178),#1186,.F.);
#1175=FACE_BOUND('',#1176,.F.);
#1176=EDGE_LOOP('',(#1177));
#1177=ORIENTED_EDGE('',*,*,#879,.F.);
#1178=FACE_BOUND('',#1179,.F.);
#1179=EDGE_LOOP('',(#1180));
#1180=ORIENTED_EDGE('',*,*,#1181,.F.);
#1181=EDGE_CURVE('',#1182,#1182,#1184,.T.);
#1182=VERTEX_POINT('',#1183);
#1183=CARTESIAN_POINT('',(4.440892098501E-016,-3.302,4.007));
#1184=CIRCLE('',#1185,0.762);
#1185=AXIS2_PLACEMENT_3D('',#882,#62,#34);
#1186=PLANE('',#1187);
#1187=AXIS2_PLACEMENT_3D('',#876,#62,#34);
#1188=ADVANCED_FACE('',(#1189,#1192),#1200,.F.);
#1189=FACE_BOUND('',#1190,.F.);
#1190=EDGE_LOOP('',(#1191));
#1191=ORIENTED_EDGE('',*,*,#896,.F.);
#1192=FACE_BOUND('',#1193,.F.);
#1193=EDGE_LOOP('',(#1194));
#1194=ORIENTED_EDGE('',*,*,#1195,.F.);
#1195=EDGE_CURVE('',#1196,#1196,#1198,.T.);
#1196=VERTEX_POINT('',#1197);
#1197=CARTESIAN_POINT('',(1.33226762955E-015,-0.762,4.007));
#1198=CIRCLE('',#1199,0.762);
#1199=AXIS2_PLACEMENT_3D('',#899,#62,#34);
#1200=PLANE('',#1201);
#1201=AXIS2_PLACEMENT_3D('',#893,#62,#34);
#1202=ADVANCED_FACE('',(#1203,#1206),#1214,.F.);
#1203=FACE_BOUND('',#1204,.F.);
#1204=EDGE_LOOP('',(#1205));
#1205=ORIENTED_EDGE('',*,*,#913,.F.);
#1206=FACE_BOUND('',#1207,.F.);
#1207=EDGE_LOOP('',(#1208));
#1208=ORIENTED_EDGE('',*,*,#1209,.F.);
#1209=EDGE_CURVE('',#1210,#1210,#1212,.T.);
#1210=VERTEX_POINT('',#1211);
#1211=CARTESIAN_POINT('',(-1.33226762955E-015,-8.382,4.007));
#1212=CIRCLE('',#1213,0.762);
#1213=AXIS2_PLACEMENT_3D('',#916,#62,#34);
#1214=PLANE('',#1215);
#1215=AXIS2_PLACEMENT_3D('',#910,#62,#34);
#1216=ADVANCED_FACE('',(#1217,#1220),#1228,.F.);
#1217=FACE_BOUND('',#1218,.F.);
#1218=EDGE_LOOP('',(#1219));
#1219=ORIENTED_EDGE('',*,*,#965,.F.);
#1220=FACE_BOUND('',#1221,.F.);
#1221=EDGE_LOOP('',(#1222));
#1222=ORIENTED_EDGE('',*,*,#1223,.F.);
#1223=EDGE_CURVE('',#1224,#1224,#1226,.T.);
#1224=VERTEX_POINT('',#1225);
#1225=CARTESIAN_POINT('',(7.62,-4.318,4.007));
#1226=CIRCLE('',#1227,0.762);
#1227=AXIS2_PLACEMENT_3D('',#968,#62,#109);
#1228=PLANE('',#1229);
#1229=AXIS2_PLACEMENT_3D('',#962,#62,#109);
#1230=ADVANCED_FACE('',(#1231,#1234),#1242,.F.);
#1231=FACE_BOUND('',#1232,.F.);
#1232=EDGE_LOOP('',(#1233));
#1233=ORIENTED_EDGE('',*,*,#982,.F.);
#1234=FACE_BOUND('',#1235,.F.);
#1235=EDGE_LOOP('',(#1236));
#1236=ORIENTED_EDGE('',*,*,#1237,.F.);
#1237=EDGE_CURVE('',#1238,#1238,#1240,.T.);
#1238=VERTEX_POINT('',#1239);
#1239=CARTESIAN_POINT('',(7.62,-1.778,4.007));
#1240=CIRCLE('',#1241,0.762);
#1241=AXIS2_PLACEMENT_3D('',#985,#62,#109);
#1242=PLANE('',#1243);
#1243=AXIS2_PLACEMENT_3D('',#979,#62,#109);
#1244=ADVANCED_FACE('',(#1245,#1248),#1256,.F.);
#1245=FACE_BOUND('',#1246,.F.);
#1246=EDGE_LOOP('',(#1247));
#1247=ORIENTED_EDGE('',*,*,#999,.F.);
#1248=FACE_BOUND('',#1249,.F.);
#1249=EDGE_LOOP('',(#1250));
#1250=ORIENTED_EDGE('',*,*,#1251,.F.);
#1251=EDGE_CURVE('',#1252,#1252,#1254,.T.);
#1252=VERTEX_POINT('',#1253);
#1253=CARTESIAN_POINT('',(7.62,0.762,4.007));
#1254=CIRCLE('',#1255,0.762);
#1255=AXIS2_PLACEMENT_3D('',#1002,#62,#109);
#1256=PLANE('',#1257);
#1257=AXIS2_PLACEMENT_3D('',#996,#62,#109);
#1258=ADVANCED_FACE('',(#1259,#1262),#1270,.F.);
#1259=FACE_BOUND('',#1260,.F.);
#1260=EDGE_LOOP('',(#1261));
#1261=ORIENTED_EDGE('',*,*,#1016,.F.);
#1262=FACE_BOUND('',#1263,.F.);
#1263=EDGE_LOOP('',(#1264));
#1264=ORIENTED_EDGE('',*,*,#1265,.F.);
#1265=EDGE_CURVE('',#1266,#1266,#1268,.T.);
#1266=VERTEX_POINT('',#1267);
#1267=CARTESIAN_POINT('',(7.62,-6.858,4.007));
#1268=CIRCLE('',#1269,0.762);
#1269=AXIS2_PLACEMENT_3D('',#1019,#62,#109);
#1270=PLANE('',#1271);
#1271=AXIS2_PLACEMENT_3D('',#1013,#62,#109);
#1272=ADVANCED_FACE('',(#1273),#1288,.T.);
#1273=FACE_BOUND('',#1274,.F.);
#1274=EDGE_LOOP('',(#1275,#1040,#1282,#1283));
#1275=ORIENTED_EDGE('',*,*,#1276,.F.);
#1276=EDGE_CURVE('',#1037,#1277,#1279,.T.);
#1277=VERTEX_POINT('',#1278);
#1278=CARTESIAN_POINT('',(7.62,-8.082,0.E+000));
#1279=LINE('',#1038,#1280);
#1280=VECTOR('',#1281,1.);
#1281=DIRECTION('',(1.570092458684E-016,0.707106781187,-0.707106781187));
#1282=ORIENTED_EDGE('',*,*,#1276,.T.);
#1283=ORIENTED_EDGE('',*,*,#1284,.F.);
#1284=EDGE_CURVE('',#1277,#1277,#1285,.T.);
#1285=CIRCLE('',#1286,0.462);
#1286=AXIS2_PLACEMENT_3D('',#1287,#13,#34);
#1287=CARTESIAN_POINT('',(7.62,-7.62,0.E+000));
#1288=CONICAL_SURFACE('',#1043,0.762,0.785398163397);
#1289=ADVANCED_FACE('',(#1290),#1303,.T.);
#1290=FACE_BOUND('',#1291,.F.);
#1291=EDGE_LOOP('',(#1292,#1056,#1297,#1298));
#1292=ORIENTED_EDGE('',*,*,#1293,.F.);
#1293=EDGE_CURVE('',#1053,#1294,#1296,.T.);
#1294=VERTEX_POINT('',#1295);
#1295=CARTESIAN_POINT('',(7.62,-3.002,0.E+000));
#1296=LINE('',#1054,#1280);
#1297=ORIENTED_EDGE('',*,*,#1293,.T.);
#1298=ORIENTED_EDGE('',*,*,#1299,.F.);
#1299=EDGE_CURVE('',#1294,#1294,#1300,.T.);
#1300=CIRCLE('',#1301,0.462);
#1301=AXIS2_PLACEMENT_3D('',#1302,#13,#34);
#1302=CARTESIAN_POINT('',(7.62,-2.54,0.E+000));
#1303=CONICAL_SURFACE('',#1059,0.762,0.785398163397);
#1304=ADVANCED_FACE('',(#1305),#1318,.T.);
#1305=FACE_BOUND('',#1306,.F.);
#1306=EDGE_LOOP('',(#1307,#1072,#1312,#1313));
#1307=ORIENTED_EDGE('',*,*,#1308,.F.);
#1308=EDGE_CURVE('',#1069,#1309,#1311,.T.);
#1309=VERTEX_POINT('',#1310);
#1310=CARTESIAN_POINT('',(7.62,-5.542,0.E+000));
#1311=LINE('',#1070,#1280);
#1312=ORIENTED_EDGE('',*,*,#1308,.T.);
#1313=ORIENTED_EDGE('',*,*,#1314,.F.);
#1314=EDGE_CURVE('',#1309,#1309,#1315,.T.);
#1315=CIRCLE('',#1316,0.462);
#1316=AXIS2_PLACEMENT_3D('',#1317,#13,#34);
#1317=CARTESIAN_POINT('',(7.62,-5.08,0.E+000));
#1318=CONICAL_SURFACE('',#1075,0.762,0.785398163397);
#1319=ADVANCED_FACE('',(#1320),#1335,.T.);
#1320=FACE_BOUND('',#1321,.F.);
#1321=EDGE_LOOP('',(#1322,#1088,#1329,#1330));
#1322=ORIENTED_EDGE('',*,*,#1323,.F.);
#1323=EDGE_CURVE('',#1085,#1324,#1326,.T.);
#1324=VERTEX_POINT('',#1325);
#1325=CARTESIAN_POINT('',(-1.33226762955E-015,-7.158,0.E+000));
#1326=LINE('',#1086,#1327);
#1327=VECTOR('',#1328,1.);
#1328=DIRECTION('',(-2.436048514919E-016,-0.707106781187,-0.707106781187));
#1329=ORIENTED_EDGE('',*,*,#1323,.T.);
#1330=ORIENTED_EDGE('',*,*,#1331,.F.);
#1331=EDGE_CURVE('',#1324,#1324,#1332,.T.);
#1332=CIRCLE('',#1333,0.462);
#1333=AXIS2_PLACEMENT_3D('',#1334,#13,#109);
#1334=CARTESIAN_POINT('',(-1.33226762955E-015,-7.62,0.E+000));
#1335=CONICAL_SURFACE('',#1091,0.762,0.785398163397);
#1336=ADVANCED_FACE('',(#1337),#1350,.T.);
#1337=FACE_BOUND('',#1338,.F.);
#1338=EDGE_LOOP('',(#1339,#1104,#1344,#1345));
#1339=ORIENTED_EDGE('',*,*,#1340,.F.);
#1340=EDGE_CURVE('',#1101,#1341,#1343,.T.);
#1341=VERTEX_POINT('',#1342);
#1342=CARTESIAN_POINT('',(-4.440892098501E-016,-4.618,0.E+000));
#1343=LINE('',#1102,#1327);
#1344=ORIENTED_EDGE('',*,*,#1340,.T.);
#1345=ORIENTED_EDGE('',*,*,#1346,.F.);
#1346=EDGE_CURVE('',#1341,#1341,#1347,.T.);
#1347=CIRCLE('',#1348,0.462);
#1348=AXIS2_PLACEMENT_3D('',#1349,#13,#109);
#1349=CARTESIAN_POINT('',(-4.440892098501E-016,-5.08,0.E+000));
#1350=CONICAL_SURFACE('',#1107,0.762,0.785398163397);
#1351=ADVANCED_FACE('',(#1352),#1365,.T.);
#1352=FACE_BOUND('',#1353,.F.);
#1353=EDGE_LOOP('',(#1354,#1120,#1359,#1360));
#1354=ORIENTED_EDGE('',*,*,#1355,.F.);
#1355=EDGE_CURVE('',#1117,#1356,#1358,.T.);
#1356=VERTEX_POINT('',#1357);
#1357=CARTESIAN_POINT('',(4.440892098501E-016,-2.078,0.E+000));
#1358=LINE('',#1118,#1327);
#1359=ORIENTED_EDGE('',*,*,#1355,.T.);
#1360=ORIENTED_EDGE('',*,*,#1361,.F.);
#1361=EDGE_CURVE('',#1356,#1356,#1362,.T.);
#1362=CIRCLE('',#1363,0.462);
#1363=AXIS2_PLACEMENT_3D('',#1364,#13,#109);
#1364=CARTESIAN_POINT('',(4.440892098501E-016,-2.54,0.E+000));
#1365=CONICAL_SURFACE('',#1123,0.762,0.785398163397);
#1366=ADVANCED_FACE('',(#1367),#1379,.T.);
#1367=FACE_BOUND('',#1368,.F.);
#1368=EDGE_LOOP('',(#1369,#1136,#1374,#1375));
#1369=ORIENTED_EDGE('',*,*,#1370,.F.);
#1370=EDGE_CURVE('',#1133,#1371,#1373,.T.);
#1371=VERTEX_POINT('',#1372);
#1372=CARTESIAN_POINT('',(1.33226762955E-015,0.462,0.E+000));
#1373=LINE('',#1134,#1327);
#1374=ORIENTED_EDGE('',*,*,#1370,.T.);
#1375=ORIENTED_EDGE('',*,*,#1376,.F.);
#1376=EDGE_CURVE('',#1371,#1371,#1377,.T.);
#1377=CIRCLE('',#1378,0.462);
#1378=AXIS2_PLACEMENT_3D('',#12,#13,#109);
#1379=CONICAL_SURFACE('',#1139,0.762,0.785398163397);
#1380=ADVANCED_FACE('',(#1381),#1394,.T.);
#1381=FACE_BOUND('',#1382,.F.);
#1382=EDGE_LOOP('',(#1383,#1152,#1388,#1389));
#1383=ORIENTED_EDGE('',*,*,#1384,.F.);
#1384=EDGE_CURVE('',#1149,#1385,#1387,.T.);
#1385=VERTEX_POINT('',#1386);
#1386=CARTESIAN_POINT('',(7.62,-0.462,0.E+000));
#1387=LINE('',#1150,#1280);
#1388=ORIENTED_EDGE('',*,*,#1384,.T.);
#1389=ORIENTED_EDGE('',*,*,#1390,.F.);
#1390=EDGE_CURVE('',#1385,#1385,#1391,.T.);
#1391=CIRCLE('',#1392,0.462);
#1392=AXIS2_PLACEMENT_3D('',#1393,#13,#34);
#1393=CARTESIAN_POINT('',(7.62,-8.881784197001E-016,0.E+000));
#1394=CONICAL_SURFACE('',#1155,0.762,0.785398163397);
#1395=ADVANCED_FACE('',(#1396),#1412,.F.);
#1396=FACE_BOUND('',#1397,.F.);
#1397=EDGE_LOOP('',(#1398,#1405,#1410,#1411));
#1398=ORIENTED_EDGE('',*,*,#1399,.T.);
#1399=EDGE_CURVE('',#1168,#1400,#1402,.T.);
#1400=VERTEX_POINT('',#1401);
#1401=CARTESIAN_POINT('',(0.E+000,-5.334,3.422612849132));
#1402=LINE('',#1169,#1403);
#1403=VECTOR('',#1404,1.);
#1404=DIRECTION('',(6.53303089092E-017,0.656059028991,-0.754709580223));
#1405=ORIENTED_EDGE('',*,*,#1406,.F.);
#1406=EDGE_CURVE('',#1400,#1400,#1407,.T.);
#1407=CIRCLE('',#1408,0.254);
#1408=AXIS2_PLACEMENT_3D('',#1409,#62,#55);
#1409=CARTESIAN_POINT('',(-2.763905940002E-016,-5.08,3.422612849132));
#1410=ORIENTED_EDGE('',*,*,#1399,.F.);
#1411=ORIENTED_EDGE('',*,*,#1167,.T.);
#1412=CONICAL_SURFACE('',#1413,0.762,0.715584993318);
#1413=AXIS2_PLACEMENT_3D('',#865,#13,#34);
#1414=ADVANCED_FACE('',(#1415),#1429,.F.);
#1415=FACE_BOUND('',#1416,.F.);
#1416=EDGE_LOOP('',(#1417,#1422,#1427,#1428));
#1417=ORIENTED_EDGE('',*,*,#1418,.T.);
#1418=EDGE_CURVE('',#1182,#1419,#1421,.T.);
#1419=VERTEX_POINT('',#1420);
#1420=CARTESIAN_POINT('',(8.881784197001E-016,-2.794,3.422612849132));
#1421=LINE('',#1183,#1403);
#1422=ORIENTED_EDGE('',*,*,#1423,.F.);
#1423=EDGE_CURVE('',#1419,#1419,#1424,.T.);
#1424=CIRCLE('',#1425,0.254);
#1425=AXIS2_PLACEMENT_3D('',#1426,#62,#55);
#1426=CARTESIAN_POINT('',(6.117878256999E-016,-2.54,3.422612849132));
#1427=ORIENTED_EDGE('',*,*,#1418,.F.);
#1428=ORIENTED_EDGE('',*,*,#1181,.T.);
#1429=CONICAL_SURFACE('',#1430,0.762,0.715584993318);
#1430=AXIS2_PLACEMENT_3D('',#882,#13,#34);
#1431=ADVANCED_FACE('',(#1432),#1446,.F.);
#1432=FACE_BOUND('',#1433,.F.);
#1433=EDGE_LOOP('',(#1434,#1439,#1444,#1445));
#1434=ORIENTED_EDGE('',*,*,#1435,.T.);
#1435=EDGE_CURVE('',#1196,#1436,#1438,.T.);
#1436=VERTEX_POINT('',#1437);
#1437=CARTESIAN_POINT('',(1.7763568394E-015,-0.254,3.422612849132));
#1438=LINE('',#1197,#1403);
#1439=ORIENTED_EDGE('',*,*,#1440,.F.);
#1440=EDGE_CURVE('',#1436,#1436,#1441,.T.);
#1441=CIRCLE('',#1442,0.254);
#1442=AXIS2_PLACEMENT_3D('',#1443,#62,#55);
#1443=CARTESIAN_POINT('',(1.4999662454E-015,1.33226762955E-015,3.422612849132));
#1444=ORIENTED_EDGE('',*,*,#1435,.F.);
#1445=ORIENTED_EDGE('',*,*,#1195,.T.);
#1446=CONICAL_SURFACE('',#1447,0.762,0.715584993318);
#1447=AXIS2_PLACEMENT_3D('',#899,#13,#34);
#1448=ADVANCED_FACE('',(#1449),#1463,.F.);
#1449=FACE_BOUND('',#1450,.F.);
#1450=EDGE_LOOP('',(#1451,#1456,#1461,#1462));
#1451=ORIENTED_EDGE('',*,*,#1452,.T.);
#1452=EDGE_CURVE('',#1210,#1453,#1455,.T.);
#1453=VERTEX_POINT('',#1454);
#1454=CARTESIAN_POINT('',(-8.881784197001E-016,-7.874,3.422612849132));
#1455=LINE('',#1211,#1403);
#1456=ORIENTED_EDGE('',*,*,#1457,.F.);
#1457=EDGE_CURVE('',#1453,#1453,#1458,.T.);
#1458=CIRCLE('',#1459,0.254);
#1459=AXIS2_PLACEMENT_3D('',#1460,#62,#55);
#1460=CARTESIAN_POINT('',(-1.1645690137E-015,-7.62,3.422612849132));
#1461=ORIENTED_EDGE('',*,*,#1452,.F.);
#1462=ORIENTED_EDGE('',*,*,#1209,.T.);
#1463=CONICAL_SURFACE('',#1464,0.762,0.715584993318);
#1464=AXIS2_PLACEMENT_3D('',#916,#13,#34);
#1465=ADVANCED_FACE('',(#1466),#1482,.F.);
#1466=FACE_BOUND('',#1467,.F.);
#1467=EDGE_LOOP('',(#1468,#1475,#1480,#1481));
#1468=ORIENTED_EDGE('',*,*,#1469,.T.);
#1469=EDGE_CURVE('',#1224,#1470,#1472,.T.);
#1470=VERTEX_POINT('',#1471);
#1471=CARTESIAN_POINT('',(7.62,-4.826,3.422612849132));
#1472=LINE('',#1225,#1473);
#1473=VECTOR('',#1474,1.);
#1474=DIRECTION('',(1.501375008129E-017,-0.656059028991,-0.754709580223));
#1475=ORIENTED_EDGE('',*,*,#1476,.F.);
#1476=EDGE_CURVE('',#1470,#1470,#1477,.T.);
#1477=CIRCLE('',#1478,0.254);
#1478=AXIS2_PLACEMENT_3D('',#1479,#62,#14);
#1479=CARTESIAN_POINT('',(7.62,-5.08,3.422612849132));
#1480=ORIENTED_EDGE('',*,*,#1469,.F.);
#1481=ORIENTED_EDGE('',*,*,#1223,.T.);
#1482=CONICAL_SURFACE('',#1483,0.762,0.715584993318);
#1483=AXIS2_PLACEMENT_3D('',#968,#13,#109);
#1484=ADVANCED_FACE('',(#1485),#1499,.F.);
#1485=FACE_BOUND('',#1486,.F.);
#1486=EDGE_LOOP('',(#1487,#1492,#1497,#1498));
#1487=ORIENTED_EDGE('',*,*,#1488,.T.);
#1488=EDGE_CURVE('',#1238,#1489,#1491,.T.);
#1489=VERTEX_POINT('',#1490);
#1490=CARTESIAN_POINT('',(7.62,-2.286,3.422612849132));
#1491=LINE('',#1239,#1473);
#1492=ORIENTED_EDGE('',*,*,#1493,.F.);
#1493=EDGE_CURVE('',#1489,#1489,#1494,.T.);
#1494=CIRCLE('',#1495,0.254);
#1495=AXIS2_PLACEMENT_3D('',#1496,#62,#14);
#1496=CARTESIAN_POINT('',(7.62,-2.54,3.422612849132));
#1497=ORIENTED_EDGE('',*,*,#1488,.F.);
#1498=ORIENTED_EDGE('',*,*,#1237,.T.);
#1499=CONICAL_SURFACE('',#1500,0.762,0.715584993318);
#1500=AXIS2_PLACEMENT_3D('',#985,#13,#109);
#1501=ADVANCED_FACE('',(#1502),#1516,.F.);
#1502=FACE_BOUND('',#1503,.F.);
#1503=EDGE_LOOP('',(#1504,#1509,#1514,#1515));
#1504=ORIENTED_EDGE('',*,*,#1505,.T.);
#1505=EDGE_CURVE('',#1252,#1506,#1508,.T.);
#1506=VERTEX_POINT('',#1507);
#1507=CARTESIAN_POINT('',(7.62,0.254,3.422612849132));
#1508=LINE('',#1253,#1473);
#1509=ORIENTED_EDGE('',*,*,#1510,.F.);
#1510=EDGE_CURVE('',#1506,#1506,#1511,.T.);
#1511=CIRCLE('',#1512,0.254);
#1512=AXIS2_PLACEMENT_3D('',#1513,#62,#14);
#1513=CARTESIAN_POINT('',(7.62,-8.881784197001E-016,3.422612849132));
#1514=ORIENTED_EDGE('',*,*,#1505,.F.);
#1515=ORIENTED_EDGE('',*,*,#1251,.T.);
#1516=CONICAL_SURFACE('',#1517,0.762,0.715584993318);
#1517=AXIS2_PLACEMENT_3D('',#1002,#13,#109);
#1518=ADVANCED_FACE('',(#1519),#1533,.F.);
#1519=FACE_BOUND('',#1520,.F.);
#1520=EDGE_LOOP('',(#1521,#1526,#1531,#1532));
#1521=ORIENTED_EDGE('',*,*,#1522,.T.);
#1522=EDGE_CURVE('',#1266,#1523,#1525,.T.);
#1523=VERTEX_POINT('',#1524);
#1524=CARTESIAN_POINT('',(7.62,-7.366,3.422612849132));
#1525=LINE('',#1267,#1473);
#1526=ORIENTED_EDGE('',*,*,#1527,.F.);
#1527=EDGE_CURVE('',#1523,#1523,#1528,.T.);
#1528=CIRCLE('',#1529,0.254);
#1529=AXIS2_PLACEMENT_3D('',#1530,#62,#14);
#1530=CARTESIAN_POINT('',(7.62,-7.62,3.422612849132));
#1531=ORIENTED_EDGE('',*,*,#1522,.F.);
#1532=ORIENTED_EDGE('',*,*,#1265,.T.);
#1533=CONICAL_SURFACE('',#1534,0.762,0.715584993318);
#1534=AXIS2_PLACEMENT_3D('',#1019,#13,#109);
#1535=ADVANCED_FACE('',(#1536,#1538),#1545,.T.);
#1536=FACE_BOUND('',#1537,.T.);
#1537=EDGE_LOOP('',(#1283));
#1538=FACE_BOUND('',#1539,.T.);
#1539=EDGE_LOOP('',(#1540));
#1540=ORIENTED_EDGE('',*,*,#1541,.T.);
#1541=EDGE_CURVE('',#1542,#1542,#1544,.T.);
#1542=VERTEX_POINT('',#1543);
#1543=CARTESIAN_POINT('',(7.62,-7.874,0.E+000));
#1544=CIRCLE('',#1286,0.254);
#1545=PLANE('',#1546);
#1546=AXIS2_PLACEMENT_3D('',#1547,#62,#109);
#1547=CARTESIAN_POINT('',(7.62,-8.382,0.E+000));
#1548=ADVANCED_FACE('',(#1549,#1551),#1558,.T.);
#1549=FACE_BOUND('',#1550,.T.);
#1550=EDGE_LOOP('',(#1298));
#1551=FACE_BOUND('',#1552,.T.);
#1552=EDGE_LOOP('',(#1553));
#1553=ORIENTED_EDGE('',*,*,#1554,.T.);
#1554=EDGE_CURVE('',#1555,#1555,#1557,.T.);
#1555=VERTEX_POINT('',#1556);
#1556=CARTESIAN_POINT('',(7.62,-2.794,0.E+000));
#1557=CIRCLE('',#1301,0.254);
#1558=PLANE('',#1559);
#1559=AXIS2_PLACEMENT_3D('',#1560,#62,#109);
#1560=CARTESIAN_POINT('',(7.62,-3.302,0.E+000));
#1561=ADVANCED_FACE('',(#1562,#1564),#1571,.T.);
#1562=FACE_BOUND('',#1563,.T.);
#1563=EDGE_LOOP('',(#1313));
#1564=FACE_BOUND('',#1565,.T.);
#1565=EDGE_LOOP('',(#1566));
#1566=ORIENTED_EDGE('',*,*,#1567,.T.);
#1567=EDGE_CURVE('',#1568,#1568,#1570,.T.);
#1568=VERTEX_POINT('',#1569);
#1569=CARTESIAN_POINT('',(7.62,-5.334,0.E+000));
#1570=CIRCLE('',#1316,0.254);
#1571=PLANE('',#1572);
#1572=AXIS2_PLACEMENT_3D('',#1573,#62,#109);
#1573=CARTESIAN_POINT('',(7.62,-5.842,0.E+000));
#1574=ADVANCED_FACE('',(#1575,#1577),#1584,.T.);
#1575=FACE_BOUND('',#1576,.T.);
#1576=EDGE_LOOP('',(#1330));
#1577=FACE_BOUND('',#1578,.T.);
#1578=EDGE_LOOP('',(#1579));
#1579=ORIENTED_EDGE('',*,*,#1580,.T.);
#1580=EDGE_CURVE('',#1581,#1581,#1583,.T.);
#1581=VERTEX_POINT('',#1582);
#1582=CARTESIAN_POINT('',(-1.33226762955E-015,-7.366,0.E+000));
#1583=CIRCLE('',#1333,0.254);
#1584=PLANE('',#1585);
#1585=AXIS2_PLACEMENT_3D('',#1586,#62,#34);
#1586=CARTESIAN_POINT('',(-1.069751554502E-015,-6.858,0.E+000));
#1587=ADVANCED_FACE('',(#1588,#1590),#1597,.T.);
#1588=FACE_BOUND('',#1589,.T.);
#1589=EDGE_LOOP('',(#1345));
#1590=FACE_BOUND('',#1591,.T.);
#1591=EDGE_LOOP('',(#1592));
#1592=ORIENTED_EDGE('',*,*,#1593,.T.);
#1593=EDGE_CURVE('',#1594,#1594,#1596,.T.);
#1594=VERTEX_POINT('',#1595);
#1595=CARTESIAN_POINT('',(-4.440892098501E-016,-4.826,0.E+000));
#1596=CIRCLE('',#1348,0.254);
#1597=PLANE('',#1598);
#1598=AXIS2_PLACEMENT_3D('',#1599,#62,#34);
#1599=CARTESIAN_POINT('',(-1.815731348022E-016,-4.318,0.E+000));
#1600=ADVANCED_FACE('',(#1601,#1603),#1610,.T.);
#1601=FACE_BOUND('',#1602,.T.);
#1602=EDGE_LOOP('',(#1360));
#1603=FACE_BOUND('',#1604,.T.);
#1604=EDGE_LOOP('',(#1605));
#1605=ORIENTED_EDGE('',*,*,#1606,.T.);
#1606=EDGE_CURVE('',#1607,#1607,#1609,.T.);
#1607=VERTEX_POINT('',#1608);
#1608=CARTESIAN_POINT('',(4.440892098501E-016,-2.286,0.E+000));
#1609=CIRCLE('',#1363,0.254);
#1610=PLANE('',#1611);
#1611=AXIS2_PLACEMENT_3D('',#1612,#62,#34);
#1612=CARTESIAN_POINT('',(7.06605284898E-016,-1.778,0.E+000));
#1613=ADVANCED_FACE('',(#1614,#1616),#1623,.T.);
#1614=FACE_BOUND('',#1615,.T.);
#1615=EDGE_LOOP('',(#1375));
#1616=FACE_BOUND('',#1617,.T.);
#1617=EDGE_LOOP('',(#1618));
#1618=ORIENTED_EDGE('',*,*,#1619,.T.);
#1619=EDGE_CURVE('',#1620,#1620,#1622,.T.);
#1620=VERTEX_POINT('',#1621);
#1621=CARTESIAN_POINT('',(1.33226762955E-015,0.254,0.E+000));
#1622=CIRCLE('',#1378,0.254);
#1623=PLANE('',#1624);
#1624=AXIS2_PLACEMENT_3D('',#1625,#62,#34);
#1625=CARTESIAN_POINT('',(1.594783704598E-015,0.762,0.E+000));
#1626=ADVANCED_FACE('',(#1627,#1629),#1636,.T.);
#1627=FACE_BOUND('',#1628,.T.);
#1628=EDGE_LOOP('',(#1389));
#1629=FACE_BOUND('',#1630,.T.);
#1630=EDGE_LOOP('',(#1631));
#1631=ORIENTED_EDGE('',*,*,#1632,.T.);
#1632=EDGE_CURVE('',#1633,#1633,#1635,.T.);
#1633=VERTEX_POINT('',#1634);
#1634=CARTESIAN_POINT('',(7.62,-0.254,0.E+000));
#1635=CIRCLE('',#1392,0.254);
#1636=PLANE('',#1637);
#1637=AXIS2_PLACEMENT_3D('',#1638,#62,#109);
#1638=CARTESIAN_POINT('',(7.62,-0.762,0.E+000));
#1639=ADVANCED_FACE('',(#1640),#1655,.F.);
#1640=FACE_BOUND('',#1641,.F.);
#1641=EDGE_LOOP('',(#1642,#1648,#1653,#1654));
#1642=ORIENTED_EDGE('',*,*,#1643,.T.);
#1643=EDGE_CURVE('',#1400,#1644,#1646,.T.);
#1644=VERTEX_POINT('',#1645);
#1645=CARTESIAN_POINT('',(0.E+000,-5.334,1.34));
#1646=LINE('',#1647,#61);
#1647=CARTESIAN_POINT('',(-3.016838949528E-016,-5.334,4.007));
#1648=ORIENTED_EDGE('',*,*,#1649,.F.);
#1649=EDGE_CURVE('',#1644,#1644,#1650,.T.);
#1650=CIRCLE('',#1651,0.254);
#1651=AXIS2_PLACEMENT_3D('',#1652,#62,#34);
#1652=CARTESIAN_POINT('',(-2.763905940002E-016,-5.08,1.34));
#1653=ORIENTED_EDGE('',*,*,#1643,.F.);
#1654=ORIENTED_EDGE('',*,*,#1406,.T.);
#1655=CYLINDRICAL_SURFACE('',#1171,0.254);
#1656=ADVANCED_FACE('',(#1657),#1672,.F.);
#1657=FACE_BOUND('',#1658,.F.);
#1658=EDGE_LOOP('',(#1659,#1665,#1670,#1671));
#1659=ORIENTED_EDGE('',*,*,#1660,.T.);
#1660=EDGE_CURVE('',#1419,#1661,#1663,.T.);
#1661=VERTEX_POINT('',#1662);
#1662=CARTESIAN_POINT('',(8.881784197001E-016,-2.794,1.34));
#1663=LINE('',#1664,#61);
#1664=CARTESIAN_POINT('',(5.864945247473E-016,-2.794,4.007));
#1665=ORIENTED_EDGE('',*,*,#1666,.F.);
#1666=EDGE_CURVE('',#1661,#1661,#1667,.T.);
#1667=CIRCLE('',#1668,0.254);
#1668=AXIS2_PLACEMENT_3D('',#1669,#62,#34);
#1669=CARTESIAN_POINT('',(6.117878256999E-016,-2.54,1.34));
#1670=ORIENTED_EDGE('',*,*,#1660,.F.);
#1671=ORIENTED_EDGE('',*,*,#1423,.T.);
#1672=CYLINDRICAL_SURFACE('',#1185,0.254);
#1673=ADVANCED_FACE('',(#1674),#1689,.F.);
#1674=FACE_BOUND('',#1675,.F.);
#1675=EDGE_LOOP('',(#1676,#1682,#1687,#1688));
#1676=ORIENTED_EDGE('',*,*,#1677,.T.);
#1677=EDGE_CURVE('',#1436,#1678,#1680,.T.);
#1678=VERTEX_POINT('',#1679);
#1679=CARTESIAN_POINT('',(1.7763568394E-015,-0.254,1.34));
#1680=LINE('',#1681,#61);
#1681=CARTESIAN_POINT('',(1.474672944447E-015,-0.254,4.007));
#1682=ORIENTED_EDGE('',*,*,#1683,.F.);
#1683=EDGE_CURVE('',#1678,#1678,#1684,.T.);
#1684=CIRCLE('',#1685,0.254);
#1685=AXIS2_PLACEMENT_3D('',#1686,#62,#34);
#1686=CARTESIAN_POINT('',(1.4999662454E-015,1.33226762955E-015,1.34));
#1687=ORIENTED_EDGE('',*,*,#1677,.F.);
#1688=ORIENTED_EDGE('',*,*,#1440,.T.);
#1689=CYLINDRICAL_SURFACE('',#1199,0.254);
#1690=ADVANCED_FACE('',(#1691),#1706,.F.);
#1691=FACE_BOUND('',#1692,.F.);
#1692=EDGE_LOOP('',(#1693,#1699,#1704,#1705));
#1693=ORIENTED_EDGE('',*,*,#1694,.T.);
#1694=EDGE_CURVE('',#1453,#1695,#1697,.T.);
#1695=VERTEX_POINT('',#1696);
#1696=CARTESIAN_POINT('',(-8.881784197001E-016,-7.874,1.34));
#1697=LINE('',#1698,#61);
#1698=CARTESIAN_POINT('',(-1.189862314653E-015,-7.874,4.007));
#1699=ORIENTED_EDGE('',*,*,#1700,.F.);
#1700=EDGE_CURVE('',#1695,#1695,#1701,.T.);
#1701=CIRCLE('',#1702,0.254);
#1702=AXIS2_PLACEMENT_3D('',#1703,#62,#34);
#1703=CARTESIAN_POINT('',(-1.1645690137E-015,-7.62,1.34));
#1704=ORIENTED_EDGE('',*,*,#1694,.F.);
#1705=ORIENTED_EDGE('',*,*,#1457,.T.);
#1706=CYLINDRICAL_SURFACE('',#1213,0.254);
#1707=ADVANCED_FACE('',(#1708),#1723,.F.);
#1708=FACE_BOUND('',#1709,.F.);
#1709=EDGE_LOOP('',(#1710,#1716,#1721,#1722));
#1710=ORIENTED_EDGE('',*,*,#1711,.T.);
#1711=EDGE_CURVE('',#1470,#1712,#1714,.T.);
#1712=VERTEX_POINT('',#1713);
#1713=CARTESIAN_POINT('',(7.62,-4.826,1.34));
#1714=LINE('',#1715,#61);
#1715=CARTESIAN_POINT('',(7.62,-4.826,4.007));
#1716=ORIENTED_EDGE('',*,*,#1717,.F.);
#1717=EDGE_CURVE('',#1712,#1712,#1718,.T.);
#1718=CIRCLE('',#1719,0.254);
#1719=AXIS2_PLACEMENT_3D('',#1720,#62,#109);
#1720=CARTESIAN_POINT('',(7.62,-5.08,1.34));
#1721=ORIENTED_EDGE('',*,*,#1711,.F.);
#1722=ORIENTED_EDGE('',*,*,#1476,.T.);
#1723=CYLINDRICAL_SURFACE('',#1227,0.254);
#1724=ADVANCED_FACE('',(#1725),#1740,.F.);
#1725=FACE_BOUND('',#1726,.F.);
#1726=EDGE_LOOP('',(#1727,#1733,#1738,#1739));
#1727=ORIENTED_EDGE('',*,*,#1728,.T.);
#1728=EDGE_CURVE('',#1489,#1729,#1731,.T.);
#1729=VERTEX_POINT('',#1730);
#1730=CARTESIAN_POINT('',(7.62,-2.286,1.34));
#1731=LINE('',#1732,#61);
#1732=CARTESIAN_POINT('',(7.62,-2.286,4.007));
#1733=ORIENTED_EDGE('',*,*,#1734,.F.);
#1734=EDGE_CURVE('',#1729,#1729,#1735,.T.);
#1735=CIRCLE('',#1736,0.254);
#1736=AXIS2_PLACEMENT_3D('',#1737,#62,#109);
#1737=CARTESIAN_POINT('',(7.62,-2.54,1.34));
#1738=ORIENTED_EDGE('',*,*,#1728,.F.);
#1739=ORIENTED_EDGE('',*,*,#1493,.T.);
#1740=CYLINDRICAL_SURFACE('',#1241,0.254);
#1741=ADVANCED_FACE('',(#1742),#1757,.F.);
#1742=FACE_BOUND('',#1743,.F.);
#1743=EDGE_LOOP('',(#1744,#1750,#1755,#1756));
#1744=ORIENTED_EDGE('',*,*,#1745,.T.);
#1745=EDGE_CURVE('',#1506,#1746,#1748,.T.);
#1746=VERTEX_POINT('',#1747);
#1747=CARTESIAN_POINT('',(7.62,0.254,1.34));
#1748=LINE('',#1749,#61);
#1749=CARTESIAN_POINT('',(7.62,0.254,4.007));
#1750=ORIENTED_EDGE('',*,*,#1751,.F.);
#1751=EDGE_CURVE('',#1746,#1746,#1752,.T.);
#1752=CIRCLE('',#1753,0.254);
#1753=AXIS2_PLACEMENT_3D('',#1754,#62,#109);
#1754=CARTESIAN_POINT('',(7.62,-8.881784197001E-016,1.34));
#1755=ORIENTED_EDGE('',*,*,#1745,.F.);
#1756=ORIENTED_EDGE('',*,*,#1510,.T.);
#1757=CYLINDRICAL_SURFACE('',#1255,0.254);
#1758=ADVANCED_FACE('',(#1759),#1774,.F.);
#1759=FACE_BOUND('',#1760,.F.);
#1760=EDGE_LOOP('',(#1761,#1767,#1772,#1773));
#1761=ORIENTED_EDGE('',*,*,#1762,.T.);
#1762=EDGE_CURVE('',#1523,#1763,#1765,.T.);
#1763=VERTEX_POINT('',#1764);
#1764=CARTESIAN_POINT('',(7.62,-7.366,1.34));
#1765=LINE('',#1766,#61);
#1766=CARTESIAN_POINT('',(7.62,-7.366,4.007));
#1767=ORIENTED_EDGE('',*,*,#1768,.F.);
#1768=EDGE_CURVE('',#1763,#1763,#1769,.T.);
#1769=CIRCLE('',#1770,0.254);
#1770=AXIS2_PLACEMENT_3D('',#1771,#62,#109);
#1771=CARTESIAN_POINT('',(7.62,-7.62,1.34));
#1772=ORIENTED_EDGE('',*,*,#1762,.F.);
#1773=ORIENTED_EDGE('',*,*,#1527,.T.);
#1774=CYLINDRICAL_SURFACE('',#1269,0.254);
#1775=ADVANCED_FACE('',(#1776),#1790,.T.);
#1776=FACE_BOUND('',#1777,.T.);
#1777=EDGE_LOOP('',(#1778,#1783,#1784,#1785));
#1778=ORIENTED_EDGE('',*,*,#1779,.F.);
#1779=EDGE_CURVE('',#1542,#1780,#1782,.T.);
#1780=VERTEX_POINT('',#1781);
#1781=CARTESIAN_POINT('',(7.62,-7.874,-3.68));
#1782=LINE('',#1543,#61);
#1783=ORIENTED_EDGE('',*,*,#1541,.F.);
#1784=ORIENTED_EDGE('',*,*,#1779,.T.);
#1785=ORIENTED_EDGE('',*,*,#1786,.T.);
#1786=EDGE_CURVE('',#1780,#1780,#1787,.T.);
#1787=CIRCLE('',#1788,0.254);
#1788=AXIS2_PLACEMENT_3D('',#1789,#13,#34);
#1789=CARTESIAN_POINT('',(7.62,-7.62,-3.68));
#1790=CYLINDRICAL_SURFACE('',#1286,0.254);
#1791=ADVANCED_FACE('',(#1792),#1806,.T.);
#1792=FACE_BOUND('',#1793,.T.);
#1793=EDGE_LOOP('',(#1794,#1799,#1800,#1801));
#1794=ORIENTED_EDGE('',*,*,#1795,.F.);
#1795=EDGE_CURVE('',#1555,#1796,#1798,.T.);
#1796=VERTEX_POINT('',#1797);
#1797=CARTESIAN_POINT('',(7.62,-2.794,-3.68));
#1798=LINE('',#1556,#61);
#1799=ORIENTED_EDGE('',*,*,#1554,.F.);
#1800=ORIENTED_EDGE('',*,*,#1795,.T.);
#1801=ORIENTED_EDGE('',*,*,#1802,.T.);
#1802=EDGE_CURVE('',#1796,#1796,#1803,.T.);
#1803=CIRCLE('',#1804,0.254);
#1804=AXIS2_PLACEMENT_3D('',#1805,#13,#34);
#1805=CARTESIAN_POINT('',(7.62,-2.54,-3.68));
#1806=CYLINDRICAL_SURFACE('',#1301,0.254);
#1807=ADVANCED_FACE('',(#1808),#1822,.T.);
#1808=FACE_BOUND('',#1809,.T.);
#1809=EDGE_LOOP('',(#1810,#1815,#1816,#1817));
#1810=ORIENTED_EDGE('',*,*,#1811,.F.);
#1811=EDGE_CURVE('',#1568,#1812,#1814,.T.);
#1812=VERTEX_POINT('',#1813);
#1813=CARTESIAN_POINT('',(7.62,-5.334,-3.68));
#1814=LINE('',#1569,#61);
#1815=ORIENTED_EDGE('',*,*,#1567,.F.);
#1816=ORIENTED_EDGE('',*,*,#1811,.T.);
#1817=ORIENTED_EDGE('',*,*,#1818,.T.);
#1818=EDGE_CURVE('',#1812,#1812,#1819,.T.);
#1819=CIRCLE('',#1820,0.254);
#1820=AXIS2_PLACEMENT_3D('',#1821,#13,#34);
#1821=CARTESIAN_POINT('',(7.62,-5.08,-3.68));
#1822=CYLINDRICAL_SURFACE('',#1316,0.254);
#1823=ADVANCED_FACE('',(#1824),#1838,.T.);
#1824=FACE_BOUND('',#1825,.T.);
#1825=EDGE_LOOP('',(#1826,#1831,#1832,#1833));
#1826=ORIENTED_EDGE('',*,*,#1827,.F.);
#1827=EDGE_CURVE('',#1581,#1828,#1830,.T.);
#1828=VERTEX_POINT('',#1829);
#1829=CARTESIAN_POINT('',(-1.33226762955E-015,-7.366,-3.68));
#1830=LINE('',#1582,#61);
#1831=ORIENTED_EDGE('',*,*,#1580,.F.);
#1832=ORIENTED_EDGE('',*,*,#1827,.T.);
#1833=ORIENTED_EDGE('',*,*,#1834,.T.);
#1834=EDGE_CURVE('',#1828,#1828,#1835,.T.);
#1835=CIRCLE('',#1836,0.254);
#1836=AXIS2_PLACEMENT_3D('',#1837,#13,#109);
#1837=CARTESIAN_POINT('',(-1.299758428524E-015,-7.62,-3.68));
#1838=CYLINDRICAL_SURFACE('',#1333,0.254);
#1839=ADVANCED_FACE('',(#1840),#1854,.T.);
#1840=FACE_BOUND('',#1841,.T.);
#1841=EDGE_LOOP('',(#1842,#1847,#1848,#1849));
#1842=ORIENTED_EDGE('',*,*,#1843,.F.);
#1843=EDGE_CURVE('',#1594,#1844,#1846,.T.);
#1844=VERTEX_POINT('',#1845);
#1845=CARTESIAN_POINT('',(-4.440892098501E-016,-4.826,-3.68));
#1846=LINE('',#1595,#61);
#1847=ORIENTED_EDGE('',*,*,#1593,.F.);
#1848=ORIENTED_EDGE('',*,*,#1843,.T.);
#1849=ORIENTED_EDGE('',*,*,#1850,.T.);
#1850=EDGE_CURVE('',#1844,#1844,#1851,.T.);
#1851=CIRCLE('',#1852,0.254);
#1852=AXIS2_PLACEMENT_3D('',#1853,#13,#109);
#1853=CARTESIAN_POINT('',(-4.115800088235E-016,-5.08,-3.68));
#1854=CYLINDRICAL_SURFACE('',#1348,0.254);
#1855=ADVANCED_FACE('',(#1856),#1870,.T.);
#1856=FACE_BOUND('',#1857,.T.);
#1857=EDGE_LOOP('',(#1858,#1863,#1864,#1865));
#1858=ORIENTED_EDGE('',*,*,#1859,.F.);
#1859=EDGE_CURVE('',#1607,#1860,#1862,.T.);
#1860=VERTEX_POINT('',#1861);
#1861=CARTESIAN_POINT('',(4.440892098501E-016,-2.286,-3.68));
#1862=LINE('',#1608,#61);
#1863=ORIENTED_EDGE('',*,*,#1606,.F.);
#1864=ORIENTED_EDGE('',*,*,#1859,.T.);
#1865=ORIENTED_EDGE('',*,*,#1866,.T.);
#1866=EDGE_CURVE('',#1860,#1860,#1867,.T.);
#1867=CIRCLE('',#1868,0.254);
#1868=AXIS2_PLACEMENT_3D('',#1869,#13,#109);
#1869=CARTESIAN_POINT('',(4.765984108766E-016,-2.54,-3.68));
#1870=CYLINDRICAL_SURFACE('',#1363,0.254);
#1871=ADVANCED_FACE('',(#1872),#1886,.T.);
#1872=FACE_BOUND('',#1873,.T.);
#1873=EDGE_LOOP('',(#1874,#1879,#1880,#1881));
#1874=ORIENTED_EDGE('',*,*,#1875,.F.);
#1875=EDGE_CURVE('',#1620,#1876,#1878,.T.);
#1876=VERTEX_POINT('',#1877);
#1877=CARTESIAN_POINT('',(1.33226762955E-015,0.254,-3.68));
#1878=LINE('',#1621,#61);
#1879=ORIENTED_EDGE('',*,*,#1619,.F.);
#1880=ORIENTED_EDGE('',*,*,#1875,.T.);
#1881=ORIENTED_EDGE('',*,*,#1882,.T.);
#1882=EDGE_CURVE('',#1876,#1876,#1883,.T.);
#1883=CIRCLE('',#1884,0.254);
#1884=AXIS2_PLACEMENT_3D('',#1885,#13,#109);
#1885=CARTESIAN_POINT('',(1.364776830577E-015,1.276756478319E-015,-3.68));
#1886=CYLINDRICAL_SURFACE('',#1378,0.254);
#1887=ADVANCED_FACE('',(#1888),#1902,.T.);
#1888=FACE_BOUND('',#1889,.T.);
#1889=EDGE_LOOP('',(#1890,#1895,#1896,#1897));
#1890=ORIENTED_EDGE('',*,*,#1891,.F.);
#1891=EDGE_CURVE('',#1633,#1892,#1894,.T.);
#1892=VERTEX_POINT('',#1893);
#1893=CARTESIAN_POINT('',(7.62,-0.254,-3.68));
#1894=LINE('',#1634,#61);
#1895=ORIENTED_EDGE('',*,*,#1632,.F.);
#1896=ORIENTED_EDGE('',*,*,#1891,.T.);
#1897=ORIENTED_EDGE('',*,*,#1898,.T.);
#1898=EDGE_CURVE('',#1892,#1892,#1899,.T.);
#1899=CIRCLE('',#1900,0.254);
#1900=AXIS2_PLACEMENT_3D('',#1901,#13,#34);
#1901=CARTESIAN_POINT('',(7.62,-8.326672684689E-016,-3.68));
#1902=CYLINDRICAL_SURFACE('',#1392,0.254);
#1903=ADVANCED_FACE('',(#1904),#1907,.F.);
#1904=FACE_BOUND('',#1905,.F.);
#1905=EDGE_LOOP('',(#1906));
#1906=ORIENTED_EDGE('',*,*,#1649,.T.);
#1907=PLANE('',#1651);
#1908=ADVANCED_FACE('',(#1909),#1912,.F.);
#1909=FACE_BOUND('',#1910,.F.);
#1910=EDGE_LOOP('',(#1911));
#1911=ORIENTED_EDGE('',*,*,#1666,.T.);
#1912=PLANE('',#1668);
#1913=ADVANCED_FACE('',(#1914),#1917,.F.);
#1914=FACE_BOUND('',#1915,.F.);
#1915=EDGE_LOOP('',(#1916));
#1916=ORIENTED_EDGE('',*,*,#1683,.T.);
#1917=PLANE('',#1685);
#1918=ADVANCED_FACE('',(#1919),#1922,.F.);
#1919=FACE_BOUND('',#1920,.F.);
#1920=EDGE_LOOP('',(#1921));
#1921=ORIENTED_EDGE('',*,*,#1700,.T.);
#1922=PLANE('',#1702);
#1923=ADVANCED_FACE('',(#1924),#1927,.F.);
#1924=FACE_BOUND('',#1925,.F.);
#1925=EDGE_LOOP('',(#1926));
#1926=ORIENTED_EDGE('',*,*,#1717,.T.);
#1927=PLANE('',#1719);
#1928=ADVANCED_FACE('',(#1929),#1932,.F.);
#1929=FACE_BOUND('',#1930,.F.);
#1930=EDGE_LOOP('',(#1931));
#1931=ORIENTED_EDGE('',*,*,#1734,.T.);
#1932=PLANE('',#1736);
#1933=ADVANCED_FACE('',(#1934),#1937,.F.);
#1934=FACE_BOUND('',#1935,.F.);
#1935=EDGE_LOOP('',(#1936));
#1936=ORIENTED_EDGE('',*,*,#1751,.T.);
#1937=PLANE('',#1753);
#1938=ADVANCED_FACE('',(#1939),#1942,.F.);
#1939=FACE_BOUND('',#1940,.F.);
#1940=EDGE_LOOP('',(#1941));
#1941=ORIENTED_EDGE('',*,*,#1768,.T.);
#1942=PLANE('',#1770);
#1943=ADVANCED_FACE('',(#1944),#1957,.T.);
#1944=FACE_BOUND('',#1945,.F.);
#1945=EDGE_LOOP('',(#1946,#1785,#1951,#1952));
#1946=ORIENTED_EDGE('',*,*,#1947,.F.);
#1947=EDGE_CURVE('',#1780,#1948,#1950,.T.);
#1948=VERTEX_POINT('',#1949);
#1949=CARTESIAN_POINT('',(7.62,-7.774,-3.78));
#1950=LINE('',#1781,#1280);
#1951=ORIENTED_EDGE('',*,*,#1947,.T.);
#1952=ORIENTED_EDGE('',*,*,#1953,.F.);
#1953=EDGE_CURVE('',#1948,#1948,#1954,.T.);
#1954=CIRCLE('',#1955,0.154);
#1955=AXIS2_PLACEMENT_3D('',#1956,#13,#34);
#1956=CARTESIAN_POINT('',(7.62,-7.62,-3.78));
#1957=CONICAL_SURFACE('',#1788,0.254,0.785398163397);
#1958=ADVANCED_FACE('',(#1959),#1972,.T.);
#1959=FACE_BOUND('',#1960,.F.);
#1960=EDGE_LOOP('',(#1961,#1801,#1966,#1967));
#1961=ORIENTED_EDGE('',*,*,#1962,.F.);
#1962=EDGE_CURVE('',#1796,#1963,#1965,.T.);
#1963=VERTEX_POINT('',#1964);
#1964=CARTESIAN_POINT('',(7.62,-2.694,-3.78));
#1965=LINE('',#1797,#1280);
#1966=ORIENTED_EDGE('',*,*,#1962,.T.);
#1967=ORIENTED_EDGE('',*,*,#1968,.F.);
#1968=EDGE_CURVE('',#1963,#1963,#1969,.T.);
#1969=CIRCLE('',#1970,0.154);
#1970=AXIS2_PLACEMENT_3D('',#1971,#13,#34);
#1971=CARTESIAN_POINT('',(7.62,-2.54,-3.78));
#1972=CONICAL_SURFACE('',#1804,0.254,0.785398163397);
#1973=ADVANCED_FACE('',(#1974),#1987,.T.);
#1974=FACE_BOUND('',#1975,.F.);
#1975=EDGE_LOOP('',(#1976,#1817,#1981,#1982));
#1976=ORIENTED_EDGE('',*,*,#1977,.F.);
#1977=EDGE_CURVE('',#1812,#1978,#1980,.T.);
#1978=VERTEX_POINT('',#1979);
#1979=CARTESIAN_POINT('',(7.62,-5.234,-3.78));
#1980=LINE('',#1813,#1280);
#1981=ORIENTED_EDGE('',*,*,#1977,.T.);
#1982=ORIENTED_EDGE('',*,*,#1983,.F.);
#1983=EDGE_CURVE('',#1978,#1978,#1984,.T.);
#1984=CIRCLE('',#1985,0.154);
#1985=AXIS2_PLACEMENT_3D('',#1986,#13,#34);
#1986=CARTESIAN_POINT('',(7.62,-5.08,-3.78));
#1987=CONICAL_SURFACE('',#1820,0.254,0.785398163397);
#1988=ADVANCED_FACE('',(#1989),#2002,.T.);
#1989=FACE_BOUND('',#1990,.F.);
#1990=EDGE_LOOP('',(#1991,#1833,#1996,#1997));
#1991=ORIENTED_EDGE('',*,*,#1992,.F.);
#1992=EDGE_CURVE('',#1828,#1993,#1995,.T.);
#1993=VERTEX_POINT('',#1994);
#1994=CARTESIAN_POINT('',(-1.33226762955E-015,-7.466,-3.78));
#1995=LINE('',#1829,#1327);
#1996=ORIENTED_EDGE('',*,*,#1992,.T.);
#1997=ORIENTED_EDGE('',*,*,#1998,.F.);
#1998=EDGE_CURVE('',#1993,#1993,#1999,.T.);
#1999=CIRCLE('',#2000,0.154);
#2000=AXIS2_PLACEMENT_3D('',#2001,#13,#109);
#2001=CARTESIAN_POINT('',(-1.299758428524E-015,-7.62,-3.78));
#2002=CONICAL_SURFACE('',#1836,0.254,0.785398163397);
#2003=ADVANCED_FACE('',(#2004),#2017,.T.);
#2004=FACE_BOUND('',#2005,.F.);
#2005=EDGE_LOOP('',(#2006,#1849,#2011,#2012));
#2006=ORIENTED_EDGE('',*,*,#2007,.F.);
#2007=EDGE_CURVE('',#1844,#2008,#2010,.T.);
#2008=VERTEX_POINT('',#2009);
#2009=CARTESIAN_POINT('',(-4.440892098501E-016,-4.926,-3.78));
#2010=LINE('',#1845,#1327);
#2011=ORIENTED_EDGE('',*,*,#2007,.T.);
#2012=ORIENTED_EDGE('',*,*,#2013,.F.);
#2013=EDGE_CURVE('',#2008,#2008,#2014,.T.);
#2014=CIRCLE('',#2015,0.154);
#2015=AXIS2_PLACEMENT_3D('',#2016,#13,#109);
#2016=CARTESIAN_POINT('',(-4.115800088235E-016,-5.08,-3.78));
#2017=CONICAL_SURFACE('',#1852,0.254,0.785398163397);
#2018=ADVANCED_FACE('',(#2019),#2032,.T.);
#2019=FACE_BOUND('',#2020,.F.);
#2020=EDGE_LOOP('',(#2021,#1865,#2026,#2027));
#2021=ORIENTED_EDGE('',*,*,#2022,.F.);
#2022=EDGE_CURVE('',#1860,#2023,#2025,.T.);
#2023=VERTEX_POINT('',#2024);
#2024=CARTESIAN_POINT('',(4.440892098501E-016,-2.386,-3.78));
#2025=LINE('',#1861,#1327);
#2026=ORIENTED_EDGE('',*,*,#2022,.T.);
#2027=ORIENTED_EDGE('',*,*,#2028,.F.);
#2028=EDGE_CURVE('',#2023,#2023,#2029,.T.);
#2029=CIRCLE('',#2030,0.154);
#2030=AXIS2_PLACEMENT_3D('',#2031,#13,#109);
#2031=CARTESIAN_POINT('',(4.765984108766E-016,-2.54,-3.78));
#2032=CONICAL_SURFACE('',#1868,0.254,0.785398163397);
#2033=ADVANCED_FACE('',(#2034),#2047,.T.);
#2034=FACE_BOUND('',#2035,.F.);
#2035=EDGE_LOOP('',(#2036,#1881,#2041,#2042));
#2036=ORIENTED_EDGE('',*,*,#2037,.F.);
#2037=EDGE_CURVE('',#1876,#2038,#2040,.T.);
#2038=VERTEX_POINT('',#2039);
#2039=CARTESIAN_POINT('',(1.33226762955E-015,0.154,-3.78));
#2040=LINE('',#1877,#1327);
#2041=ORIENTED_EDGE('',*,*,#2037,.T.);
#2042=ORIENTED_EDGE('',*,*,#2043,.F.);
#2043=EDGE_CURVE('',#2038,#2038,#2044,.T.);
#2044=CIRCLE('',#2045,0.154);
#2045=AXIS2_PLACEMENT_3D('',#2046,#13,#109);
#2046=CARTESIAN_POINT('',(1.364776830577E-015,1.276756478319E-015,-3.78));
#2047=CONICAL_SURFACE('',#1884,0.254,0.785398163397);
#2048=ADVANCED_FACE('',(#2049),#2062,.T.);
#2049=FACE_BOUND('',#2050,.F.);
#2050=EDGE_LOOP('',(#2051,#1897,#2056,#2057));
#2051=ORIENTED_EDGE('',*,*,#2052,.F.);
#2052=EDGE_CURVE('',#1892,#2053,#2055,.T.);
#2053=VERTEX_POINT('',#2054);
#2054=CARTESIAN_POINT('',(7.62,-0.154,-3.78));
#2055=LINE('',#1893,#1280);
#2056=ORIENTED_EDGE('',*,*,#2052,.T.);
#2057=ORIENTED_EDGE('',*,*,#2058,.F.);
#2058=EDGE_CURVE('',#2053,#2053,#2059,.T.);
#2059=CIRCLE('',#2060,0.154);
#2060=AXIS2_PLACEMENT_3D('',#2061,#13,#34);
#2061=CARTESIAN_POINT('',(7.62,-8.326672684689E-016,-3.78));
#2062=CONICAL_SURFACE('',#1900,0.254,0.785398163397);
#2063=ADVANCED_FACE('',(#2064),#2066,.T.);
#2064=FACE_BOUND('',#2065,.T.);
#2065=EDGE_LOOP('',(#1952));
#2066=PLANE('',#2067);
#2067=AXIS2_PLACEMENT_3D('',#2068,#62,#109);
#2068=CARTESIAN_POINT('',(7.62,-7.874,-3.78));
#2069=ADVANCED_FACE('',(#2070),#2072,.T.);
#2070=FACE_BOUND('',#2071,.T.);
#2071=EDGE_LOOP('',(#1967));
#2072=PLANE('',#2073);
#2073=AXIS2_PLACEMENT_3D('',#2074,#62,#109);
#2074=CARTESIAN_POINT('',(7.62,-2.794,-3.78));
#2075=ADVANCED_FACE('',(#2076),#2078,.T.);
#2076=FACE_BOUND('',#2077,.T.);
#2077=EDGE_LOOP('',(#1982));
#2078=PLANE('',#2079);
#2079=AXIS2_PLACEMENT_3D('',#2080,#62,#109);
#2080=CARTESIAN_POINT('',(7.62,-5.334,-3.78));
#2081=ADVANCED_FACE('',(#2082),#2084,.T.);
#2082=FACE_BOUND('',#2083,.T.);
#2083=EDGE_LOOP('',(#1997));
#2084=PLANE('',#2085);
#2085=AXIS2_PLACEMENT_3D('',#2086,#62,#34);
#2086=CARTESIAN_POINT('',(-1.212253070174E-015,-7.366,-3.78));
#2087=ADVANCED_FACE('',(#2088),#2090,.T.);
#2088=FACE_BOUND('',#2089,.T.);
#2089=EDGE_LOOP('',(#2012));
#2090=PLANE('',#2091);
#2091=AXIS2_PLACEMENT_3D('',#2092,#62,#34);
#2092=CARTESIAN_POINT('',(-3.240746504742E-016,-4.826,-3.78));
#2093=ADVANCED_FACE('',(#2094),#2096,.T.);
#2094=FACE_BOUND('',#2095,.T.);
#2095=EDGE_LOOP('',(#2027));
#2096=PLANE('',#2097);
#2097=AXIS2_PLACEMENT_3D('',#2098,#62,#34);
#2098=CARTESIAN_POINT('',(5.641037692259E-016,-2.286,-3.78));
#2099=ADVANCED_FACE('',(#2100),#2102,.T.);
#2100=FACE_BOUND('',#2101,.T.);
#2101=EDGE_LOOP('',(#2042));
#2102=PLANE('',#2103);
#2103=AXIS2_PLACEMENT_3D('',#2104,#62,#34);
#2104=CARTESIAN_POINT('',(1.452282188926E-015,0.254,-3.78));
#2105=ADVANCED_FACE('',(#2106),#2108,.T.);
#2106=FACE_BOUND('',#2107,.T.);
#2107=EDGE_LOOP('',(#2057));
#2108=PLANE('',#2109);
#2109=AXIS2_PLACEMENT_3D('',#2110,#62,#109);
#2110=CARTESIAN_POINT('',(7.62,-0.254,-3.78));
#2111=( GEOMETRIC_REPRESENTATION_CONTEXT(3) GLOBAL_UNCERTAINTY_ASSIGNED_CONTEXT((#2115)) GLOBAL_UNIT_ASSIGNED_CONTEXT((#2112,#2113,#2114)) REPRESENTATION_CONTEXT('Context #1','3D Context with UNIT and UNCERTAINTY') );
#2112=( LENGTH_UNIT() NAMED_UNIT(*) SI_UNIT(.MILLI.,.METRE.) );
#2113=( NAMED_UNIT(*) PLANE_ANGLE_UNIT() SI_UNIT($,.RADIAN.) );
#2114=( NAMED_UNIT(*) SI_UNIT($,.STERADIAN.) SOLID_ANGLE_UNIT() );
#2115=UNCERTAINTY_MEASURE_WITH_UNIT(LENGTH_MEASURE(1.E-007),#2112,'distance_accuracy_value','confusion accuracy');
#2116=MECHANICAL_DESIGN_GEOMETRIC_PRESENTATION_REPRESENTATION('',(#2117,#2125,#2126,#2127,#2128,#2129,#2130,#2131,#2132,#2133,#2134,#2135,#2136,#2137,#2138,#2139,#2140,#2141,#2142,#2143,#2144,#2145,#2146,#2147,#2148,#2156,#2157,#2158,#2159,#2160,#2161,#2162,#2163,#2164,#2165,#2166,#2167,#2168,#2169,#2170,#2171,#2172,#2173,#2174,#2175,#2176,#2177,#2178,#2179,#2180,#2181,#2182,#2183,#2184,#2185,#2186,#2187,#2188,#2189,#2190,#2191,#2192,#2193,#2194,#2195,#2196,#2197,#2198,#2199,#2200,#2201,#2202,#2203,#2204,#2205,#2206,#2207,#2208,#2209,#2210,#2211,#2212,#2213,#2214,#2215,#2216,#2217,#2218,#2219,#2220,#2221,#2222,#2223,#2224,#2225,#2226,#2227,#2228,#2229,#2230,#2231,#2232,#2233,#2234,#2235,#2236,#2237,#2238,#2239,#2240,#2241,#2242,#2243,#2244,#2245,#2246,#2247,#2248,#2249,#2250,#2251,#2252,#2253,#2254,#2255,#2256,#2257,#2258),#2111);
#2117=STYLED_ITEM('color',(#2118),#17);
#2118=PRESENTATION_STYLE_ASSIGNMENT((#2119));
#2119=SURFACE_STYLE_USAGE(.BOTH.,#2120);
#2120=SURFACE_SIDE_STYLE('',(#2121));
#2121=SURFACE_STYLE_FILL_AREA(#2122);
#2122=FILL_AREA_STYLE('',(#2123));
#2123=FILL_AREA_STYLE_COLOUR('',#2124);
#2124=COLOUR_RGB('',0.148000001907,0.144999995828,0.144999995828);
#2125=STYLED_ITEM('color',(#2118),#45);
#2126=STYLED_ITEM('color',(#2118),#70);
#2127=STYLED_ITEM('color',(#2118),#110);
#2128=STYLED_ITEM('color',(#2118),#273);
#2129=STYLED_ITEM('color',(#2118),#369);
#2130=STYLED_ITEM('color',(#2118),#379);
#2131=STYLED_ITEM('color',(#2118),#392);
#2132=STYLED_ITEM('color',(#2118),#508);
#2133=STYLED_ITEM('color',(#2118),#521);
#2134=STYLED_ITEM('color',(#2118),#534);
#2135=STYLED_ITEM('color',(#2118),#575);
#2136=STYLED_ITEM('color',(#2118),#588);
#2137=STYLED_ITEM('color',(#2118),#596);
#2138=STYLED_ITEM('color',(#2118),#614);
#2139=STYLED_ITEM('color',(#2118),#624);
#2140=STYLED_ITEM('color',(#2118),#631);
#2141=STYLED_ITEM('color',(#2118),#642);
#2142=STYLED_ITEM('color',(#2118),#652);
#2143=STYLED_ITEM('color',(#2118),#673);
#2144=STYLED_ITEM('color',(#2118),#682);
#2145=STYLED_ITEM('color',(#2118),#693);
#2146=STYLED_ITEM('color',(#2118),#706);
#2147=STYLED_ITEM('color',(#2118),#715);
#2148=STYLED_ITEM('color',(#2149),#723);
#2149=PRESENTATION_STYLE_ASSIGNMENT((#2150));
#2150=SURFACE_STYLE_USAGE(.BOTH.,#2151);
#2151=SURFACE_SIDE_STYLE('',(#2152));
#2152=SURFACE_STYLE_FILL_AREA(#2153);
#2153=FILL_AREA_STYLE('',(#2154));
#2154=FILL_AREA_STYLE_COLOUR('',#2155);
#2155=COLOUR_RGB('',0.824000000954,0.819999992847,0.78100001812);
#2156=STYLED_ITEM('color',(#2149),#736);
#2157=STYLED_ITEM('color',(#2149),#749);
#2158=STYLED_ITEM('color',(#2149),#762);
#2159=STYLED_ITEM('color',(#2149),#775);
#2160=STYLED_ITEM('color',(#2149),#788);
#2161=STYLED_ITEM('color',(#2149),#801);
#2162=STYLED_ITEM('color',(#2149),#814);
#2163=STYLED_ITEM('color',(#2118),#827);
#2164=STYLED_ITEM('color',(#2118),#837);
#2165=STYLED_ITEM('color',(#2118),#847);
#2166=STYLED_ITEM('color',(#2149),#852);
#2167=STYLED_ITEM('color',(#2149),#869);
#2168=STYLED_ITEM('color',(#2149),#886);
#2169=STYLED_ITEM('color',(#2149),#903);
#2170=STYLED_ITEM('color',(#2118),#920);
#2171=STYLED_ITEM('color',(#2118),#930);
#2172=STYLED_ITEM('color',(#2118),#938);
#2173=STYLED_ITEM('color',(#2118),#947);
#2174=STYLED_ITEM('color',(#2149),#955);
#2175=STYLED_ITEM('color',(#2149),#972);
#2176=STYLED_ITEM('color',(#2149),#989);
#2177=STYLED_ITEM('color',(#2149),#1006);
#2178=STYLED_ITEM('color',(#2118),#1023);
#2179=STYLED_ITEM('color',(#2149),#1032);
#2180=STYLED_ITEM('color',(#2149),#1048);
#2181=STYLED_ITEM('color',(#2149),#1064);
#2182=STYLED_ITEM('color',(#2149),#1080);
#2183=STYLED_ITEM('color',(#2149),#1096);
#2184=STYLED_ITEM('color',(#2149),#1112);
#2185=STYLED_ITEM('color',(#2149),#1128);
#2186=STYLED_ITEM('color',(#2149),#1144);
#2187=STYLED_ITEM('color',(#2149),#1160);
#2188=STYLED_ITEM('color',(#2149),#1174);
#2189=STYLED_ITEM('color',(#2149),#1188);
#2190=STYLED_ITEM('color',(#2149),#1202);
#2191=STYLED_ITEM('color',(#2149),#1216);
#2192=STYLED_ITEM('color',(#2149),#1230);
#2193=STYLED_ITEM('color',(#2149),#1244);
#2194=STYLED_ITEM('color',(#2149),#1258);
#2195=STYLED_ITEM('color',(#2149),#1272);
#2196=STYLED_ITEM('color',(#2149),#1289);
#2197=STYLED_ITEM('color',(#2149),#1304);
#2198=STYLED_ITEM('color',(#2149),#1319);
#2199=STYLED_ITEM('color',(#2149),#1336);
#2200=STYLED_ITEM('color',(#2149),#1351);
#2201=STYLED_ITEM('color',(#2149),#1366);
#2202=STYLED_ITEM('color',(#2149),#1380);
#2203=STYLED_ITEM('color',(#2149),#1395);
#2204=STYLED_ITEM('color',(#2149),#1414);
#2205=STYLED_ITEM('color',(#2149),#1431);
#2206=STYLED_ITEM('color',(#2149),#1448);
#2207=STYLED_ITEM('color',(#2149),#1465);
#2208=STYLED_ITEM('color',(#2149),#1484);
#2209=STYLED_ITEM('color',(#2149),#1501);
#2210=STYLED_ITEM('color',(#2149),#1518);
#2211=STYLED_ITEM('color',(#2149),#1535);
#2212=STYLED_ITEM('color',(#2149),#1548);
#2213=STYLED_ITEM('color',(#2149),#1561);
#2214=STYLED_ITEM('color',(#2149),#1574);
#2215=STYLED_ITEM('color',(#2149),#1587);
#2216=STYLED_ITEM('color',(#2149),#1600);
#2217=STYLED_ITEM('color',(#2149),#1613);
#2218=STYLED_ITEM('color',(#2149),#1626);
#2219=STYLED_ITEM('color',(#2149),#1639);
#2220=STYLED_ITEM('color',(#2149),#1656);
#2221=STYLED_ITEM('color',(#2149),#1673);
#2222=STYLED_ITEM('color',(#2149),#1690);
#2223=STYLED_ITEM('color',(#2149),#1707);
#2224=STYLED_ITEM('color',(#2149),#1724);
#2225=STYLED_ITEM('color',(#2149),#1741);
#2226=STYLED_ITEM('color',(#2149),#1758);
#2227=STYLED_ITEM('color',(#2149),#1775);
#2228=STYLED_ITEM('color',(#2149),#1791);
#2229=STYLED_ITEM('color',(#2149),#1807);
#2230=STYLED_ITEM('color',(#2149),#1823);
#2231=STYLED_ITEM('color',(#2149),#1839);
#2232=STYLED_ITEM('color',(#2149),#1855);
#2233=STYLED_ITEM('color',(#2149),#1871);
#2234=STYLED_ITEM('color',(#2149),#1887);
#2235=STYLED_ITEM('color',(#2149),#1903);
#2236=STYLED_ITEM('color',(#2149),#1908);
#2237=STYLED_ITEM('color',(#2149),#1913);
#2238=STYLED_ITEM('color',(#2149),#1918);
#2239=STYLED_ITEM('color',(#2149),#1923);
#2240=STYLED_ITEM('color',(#2149),#1928);
#2241=STYLED_ITEM('color',(#2149),#1933);
#2242=STYLED_ITEM('color',(#2149),#1938);
#2243=STYLED_ITEM('color',(#2149),#1943);
#2244=STYLED_ITEM('color',(#2149),#1958);
#2245=STYLED_ITEM('color',(#2149),#1973);
#2246=STYLED_ITEM('color',(#2149),#1988);
#2247=STYLED_ITEM('color',(#2149),#2003);
#2248=STYLED_ITEM('color',(#2149),#2018);
#2249=STYLED_ITEM('color',(#2149),#2033);
#2250=STYLED_ITEM('color',(#2149),#2048);
#2251=STYLED_ITEM('color',(#2149),#2063);
#2252=STYLED_ITEM('color',(#2149),#2069);
#2253=STYLED_ITEM('color',(#2149),#2075);
#2254=STYLED_ITEM('color',(#2149),#2081);
#2255=STYLED_ITEM('color',(#2149),#2087);
#2256=STYLED_ITEM('color',(#2149),#2093);
#2257=STYLED_ITEM('color',(#2149),#2099);
#2258=STYLED_ITEM('color',(#2149),#2105);
ENDSEC;
END-ISO-10303-21;
