ISO-10303-21;
HEADER;
/* PinHeader_1x04_P2.54mm_Vertical.step 3D STEP model for use in ECAD systems
 * Copyright (C) 2017, kicad StepUp
 *
 * This work is licensed under the [Creative Commons CC-BY-SA 4.0 License](https://creativecommons.org/licenses/by-sa/4.0/legalcode),
 * with the following exception:
 * To the extent that the creation of electronic designs that use 'Licensed Material' can be considered to be 'Adapted Material',
 * then the copyright holder waives article 3 of the license with respect to these designs and any generated files which use data provided
 * as part of the 'Licensed Material'.
 * You are free to use the library data in your own projects without the obligation to share your project files under this or any other license agreement.
 * However, if you wish to redistribute these libraries, or parts thereof (including in modified form) as a collection then the exception above does not apply.
 * Please refer to https://github.com/KiCad/kicad-packages3D/blob/master/LICENSE.md for further clarification of the exception.
 * Disclaimer of Warranties and Limitation of Liability.
 * These libraries are provided in the hope that they will be useful, but are provided without warranty of any kind, express or implied.
 * *USE 3D CAD DATA AT YOUR OWN RISK*
 * *DO NOT RELY UPON ANY INFORMATION FOUND HERE WITHOUT INDEPENDENT VERIFICATION.*
 *
 */

FILE_DESCRIPTION(
/* description */ ('model of PinHeader_1x04_P2.54mm_Vertical'),
/* implementation_level */ '2;1');

FILE_NAME(
/* name */ 'PinHeader_1x04_P2.54mm_Vertical.step',
/* time_stamp */ '2017-12-09T23:53:42',
/* author */ ('kicad StepUp','ksu'),
/* organization */ ('FreeCAD'),
/* preprocessor_version */ 'OCC',
/* originating_system */ 'kicad StepUp',
/* authorisation */ '');

FILE_SCHEMA(('AUTOMOTIVE_DESIGN { 1 0 10303 214 1 1 1 1 }'));
ENDSEC;

DATA;
#1=APPLICATION_PROTOCOL_DEFINITION('international standard','automotive_design',2000,#2);
#2=APPLICATION_CONTEXT('core data for automotive mechanical design processes');
#3=SHAPE_DEFINITION_REPRESENTATION(#4,#10);
#4=PRODUCT_DEFINITION_SHAPE('','',#5);
#5=PRODUCT_DEFINITION('design','',#6,#9);
#6=PRODUCT_DEFINITION_FORMATION('','',#7);
#7=PRODUCT('PinHeader_1x04_P254mm_Vertical','PinHeader_1x04_P254mm_Vertical','',(#8));
#8=PRODUCT_CONTEXT('',#2,'mechanical');
#9=PRODUCT_DEFINITION_CONTEXT('part definition',#2,'design');
#10=ADVANCED_BREP_SHAPE_REPRESENTATION('',(#11,#15),#1801);
#11=AXIS2_PLACEMENT_3D('',#12,#13,#14);
#12=CARTESIAN_POINT('',(0.,0.,0.));
#13=DIRECTION('',(0.,0.,1.));
#14=DIRECTION('',(1.,0.,-0.));
#15=MANIFOLD_SOLID_BREP('',#16);
#16=CLOSED_SHELL('',(#17,#46,#68,#88,#322,#545,#555,#565,#575,#585,#595,#605,#615,#625,#635,#645,#655,#665,#675,#685,#695,#705,#715,#725,#735,#745,#755,#765,#773,#793,#808,#824,#833,#853,#868,#883,#893,#913,#928,#943,#953,#973,#988,#1004,#1013,#1028,#1038,#1049,#1057,#1072,#1084,#1094,#1101,#1116,#1128,#1138,#1145,#1160,#1170,#1181,#1189,#1216,#1236,#1255,#1267,#1288,#1304,#1321,#1333,#1354,#1370,#1387,#1399,#1421,#1438,#1454,#1465,#1491,#1512,#1530,#1543,#1565,#1580,#1598,#1609,#1631,#1646,#1664,#1675,#1696,#1714,#1729,#1741,#1748,#1755,#1762,#1769,#1777,#1785,#1793));
#17=ADVANCED_FACE('',(#18),#43,.F.);
#18=FACE_BOUND('',#19,.F.);
#19=EDGE_LOOP('',(#20,#28,#35,#40));
#20=ORIENTED_EDGE('',*,*,#21,.T.);
#21=EDGE_CURVE('',#22,#24,#26,.T.);
#22=VERTEX_POINT('',#23);
#23=CARTESIAN_POINT('',(-1.016,1.27,0.));
#24=VERTEX_POINT('',#25);
#25=CARTESIAN_POINT('',(-1.016,1.27,2.54));
#26=LINE('',#23,#27);
#27=VECTOR('',#13,1.);
#28=ORIENTED_EDGE('',*,*,#29,.T.);
#29=EDGE_CURVE('',#24,#30,#32,.T.);
#30=VERTEX_POINT('',#31);
#31=CARTESIAN_POINT('',(-1.27,1.016,2.54));
#32=LINE('',#25,#33);
#33=VECTOR('',#34,1.);
#34=DIRECTION('',(-0.707106781187,-0.707106781187,0.));
#35=ORIENTED_EDGE('',*,*,#36,.F.);
#36=EDGE_CURVE('',#37,#30,#39,.T.);
#37=VERTEX_POINT('',#38);
#38=CARTESIAN_POINT('',(-1.27,1.016,0.));
#39=LINE('',#38,#27);
#40=ORIENTED_EDGE('',*,*,#41,.F.);
#41=EDGE_CURVE('',#22,#37,#42,.T.);
#42=LINE('',#23,#33);
#43=PLANE('',#44);
#44=AXIS2_PLACEMENT_3D('',#23,#45,#34);
#45=DIRECTION('',(0.707106781187,-0.707106781187,0.));
#46=ADVANCED_FACE('',(#47),#65,.F.);
#47=FACE_BOUND('',#48,.F.);
#48=EDGE_LOOP('',(#49,#56,#61,#62));
#49=ORIENTED_EDGE('',*,*,#50,.T.);
#50=EDGE_CURVE('',#51,#53,#55,.T.);
#51=VERTEX_POINT('',#52);
#52=CARTESIAN_POINT('',(1.016,1.27,0.));
#53=VERTEX_POINT('',#54);
#54=CARTESIAN_POINT('',(1.016,1.27,2.54));
#55=LINE('',#52,#27);
#56=ORIENTED_EDGE('',*,*,#57,.T.);
#57=EDGE_CURVE('',#53,#24,#58,.T.);
#58=LINE('',#54,#59);
#59=VECTOR('',#60,1.);
#60=DIRECTION('',(-1.,0.,0.));
#61=ORIENTED_EDGE('',*,*,#21,.F.);
#62=ORIENTED_EDGE('',*,*,#63,.F.);
#63=EDGE_CURVE('',#51,#22,#64,.T.);
#64=LINE('',#52,#59);
#65=PLANE('',#66);
#66=AXIS2_PLACEMENT_3D('',#52,#67,#60);
#67=DIRECTION('',(0.,-1.,0.));
#68=ADVANCED_FACE('',(#69),#86,.F.);
#69=FACE_BOUND('',#70,.F.);
#70=EDGE_LOOP('',(#71,#72,#78,#83));
#71=ORIENTED_EDGE('',*,*,#36,.T.);
#72=ORIENTED_EDGE('',*,*,#73,.T.);
#73=EDGE_CURVE('',#30,#74,#76,.T.);
#74=VERTEX_POINT('',#75);
#75=CARTESIAN_POINT('',(-1.27,-1.016,2.54));
#76=LINE('',#31,#77);
#77=VECTOR('',#67,1.);
#78=ORIENTED_EDGE('',*,*,#79,.F.);
#79=EDGE_CURVE('',#80,#74,#82,.T.);
#80=VERTEX_POINT('',#81);
#81=CARTESIAN_POINT('',(-1.27,-1.016,0.));
#82=LINE('',#81,#27);
#83=ORIENTED_EDGE('',*,*,#84,.F.);
#84=EDGE_CURVE('',#37,#80,#85,.T.);
#85=LINE('',#38,#77);
#86=PLANE('',#87);
#87=AXIS2_PLACEMENT_3D('',#38,#14,#67);
#88=ADVANCED_FACE('',(#89,#215,#241,#267,#293),#319,.F.);
#89=FACE_BOUND('',#90,.F.);
#90=EDGE_LOOP('',(#91,#92,#93,#99,#104,#109,#114,#119,#124,#129,#134,#139,#144,#150,#157,#164,#171,#176,#181,#186,#191,#196,#201,#206,#211,#214));
#91=ORIENTED_EDGE('',*,*,#41,.T.);
#92=ORIENTED_EDGE('',*,*,#84,.T.);
#93=ORIENTED_EDGE('',*,*,#94,.T.);
#94=EDGE_CURVE('',#80,#95,#97,.T.);
#95=VERTEX_POINT('',#96);
#96=CARTESIAN_POINT('',(-1.016,-1.27,0.));
#97=LINE('',#81,#98);
#98=VECTOR('',#45,1.);
#99=ORIENTED_EDGE('',*,*,#100,.T.);
#100=EDGE_CURVE('',#95,#101,#103,.T.);
#101=VERTEX_POINT('',#102);
#102=CARTESIAN_POINT('',(-1.27,-1.524,0.));
#103=LINE('',#96,#33);
#104=ORIENTED_EDGE('',*,*,#105,.T.);
#105=EDGE_CURVE('',#101,#106,#108,.T.);
#106=VERTEX_POINT('',#107);
#107=CARTESIAN_POINT('',(-1.27,-3.556,0.));
#108=LINE('',#102,#77);
#109=ORIENTED_EDGE('',*,*,#110,.T.);
#110=EDGE_CURVE('',#106,#111,#113,.T.);
#111=VERTEX_POINT('',#112);
#112=CARTESIAN_POINT('',(-1.016,-3.81,0.));
#113=LINE('',#107,#98);
#114=ORIENTED_EDGE('',*,*,#115,.T.);
#115=EDGE_CURVE('',#111,#116,#118,.T.);
#116=VERTEX_POINT('',#117);
#117=CARTESIAN_POINT('',(-1.27,-4.064,0.));
#118=LINE('',#112,#33);
#119=ORIENTED_EDGE('',*,*,#120,.T.);
#120=EDGE_CURVE('',#116,#121,#123,.T.);
#121=VERTEX_POINT('',#122);
#122=CARTESIAN_POINT('',(-1.27,-6.096,0.));
#123=LINE('',#117,#77);
#124=ORIENTED_EDGE('',*,*,#125,.T.);
#125=EDGE_CURVE('',#121,#126,#128,.T.);
#126=VERTEX_POINT('',#127);
#127=CARTESIAN_POINT('',(-1.016,-6.35,0.));
#128=LINE('',#122,#98);
#129=ORIENTED_EDGE('',*,*,#130,.T.);
#130=EDGE_CURVE('',#126,#131,#133,.T.);
#131=VERTEX_POINT('',#132);
#132=CARTESIAN_POINT('',(-1.27,-6.604,0.));
#133=LINE('',#127,#33);
#134=ORIENTED_EDGE('',*,*,#135,.T.);
#135=EDGE_CURVE('',#131,#136,#138,.T.);
#136=VERTEX_POINT('',#137);
#137=CARTESIAN_POINT('',(-1.27,-8.636,0.));
#138=LINE('',#132,#77);
#139=ORIENTED_EDGE('',*,*,#140,.T.);
#140=EDGE_CURVE('',#136,#141,#143,.T.);
#141=VERTEX_POINT('',#142);
#142=CARTESIAN_POINT('',(-1.016,-8.89,0.));
#143=LINE('',#137,#98);
#144=ORIENTED_EDGE('',*,*,#145,.T.);
#145=EDGE_CURVE('',#141,#146,#148,.T.);
#146=VERTEX_POINT('',#147);
#147=CARTESIAN_POINT('',(1.016,-8.89,0.));
#148=LINE('',#142,#149);
#149=VECTOR('',#14,1.);
#150=ORIENTED_EDGE('',*,*,#151,.T.);
#151=EDGE_CURVE('',#146,#152,#154,.T.);
#152=VERTEX_POINT('',#153);
#153=CARTESIAN_POINT('',(1.27,-8.636,0.));
#154=LINE('',#147,#155);
#155=VECTOR('',#156,1.);
#156=DIRECTION('',(0.707106781187,0.707106781187,0.));
#157=ORIENTED_EDGE('',*,*,#158,.T.);
#158=EDGE_CURVE('',#152,#159,#161,.T.);
#159=VERTEX_POINT('',#160);
#160=CARTESIAN_POINT('',(1.27,-6.604,0.));
#161=LINE('',#153,#162);
#162=VECTOR('',#163,1.);
#163=DIRECTION('',(0.,1.,0.));
#164=ORIENTED_EDGE('',*,*,#165,.T.);
#165=EDGE_CURVE('',#159,#166,#168,.T.);
#166=VERTEX_POINT('',#167);
#167=CARTESIAN_POINT('',(1.016,-6.35,0.));
#168=LINE('',#160,#169);
#169=VECTOR('',#170,1.);
#170=DIRECTION('',(-0.707106781187,0.707106781187,0.));
#171=ORIENTED_EDGE('',*,*,#172,.T.);
#172=EDGE_CURVE('',#166,#173,#175,.T.);
#173=VERTEX_POINT('',#174);
#174=CARTESIAN_POINT('',(1.27,-6.096,0.));
#175=LINE('',#167,#155);
#176=ORIENTED_EDGE('',*,*,#177,.T.);
#177=EDGE_CURVE('',#173,#178,#180,.T.);
#178=VERTEX_POINT('',#179);
#179=CARTESIAN_POINT('',(1.27,-4.064,0.));
#180=LINE('',#174,#162);
#181=ORIENTED_EDGE('',*,*,#182,.T.);
#182=EDGE_CURVE('',#178,#183,#185,.T.);
#183=VERTEX_POINT('',#184);
#184=CARTESIAN_POINT('',(1.016,-3.81,0.));
#185=LINE('',#179,#169);
#186=ORIENTED_EDGE('',*,*,#187,.T.);
#187=EDGE_CURVE('',#183,#188,#190,.T.);
#188=VERTEX_POINT('',#189);
#189=CARTESIAN_POINT('',(1.27,-3.556,0.));
#190=LINE('',#184,#155);
#191=ORIENTED_EDGE('',*,*,#192,.T.);
#192=EDGE_CURVE('',#188,#193,#195,.T.);
#193=VERTEX_POINT('',#194);
#194=CARTESIAN_POINT('',(1.27,-1.524,0.));
#195=LINE('',#189,#162);
#196=ORIENTED_EDGE('',*,*,#197,.T.);
#197=EDGE_CURVE('',#193,#198,#200,.T.);
#198=VERTEX_POINT('',#199);
#199=CARTESIAN_POINT('',(1.016,-1.27,0.));
#200=LINE('',#194,#169);
#201=ORIENTED_EDGE('',*,*,#202,.T.);
#202=EDGE_CURVE('',#198,#203,#205,.T.);
#203=VERTEX_POINT('',#204);
#204=CARTESIAN_POINT('',(1.27,-1.016,0.));
#205=LINE('',#199,#155);
#206=ORIENTED_EDGE('',*,*,#207,.T.);
#207=EDGE_CURVE('',#203,#208,#210,.T.);
#208=VERTEX_POINT('',#209);
#209=CARTESIAN_POINT('',(1.27,1.016,0.));
#210=LINE('',#204,#162);
#211=ORIENTED_EDGE('',*,*,#212,.T.);
#212=EDGE_CURVE('',#208,#51,#213,.T.);
#213=LINE('',#209,#169);
#214=ORIENTED_EDGE('',*,*,#63,.T.);
#215=FACE_BOUND('',#216,.F.);
#216=EDGE_LOOP('',(#217,#225,#231,#237));
#217=ORIENTED_EDGE('',*,*,#218,.F.);
#218=EDGE_CURVE('',#219,#221,#223,.T.);
#219=VERTEX_POINT('',#220);
#220=CARTESIAN_POINT('',(0.32,-4.76,0.));
#221=VERTEX_POINT('',#222);
#222=CARTESIAN_POINT('',(-0.32,-4.76,0.));
#223=LINE('',#224,#59);
#224=CARTESIAN_POINT('',(-0.16,-4.76,0.));
#225=ORIENTED_EDGE('',*,*,#226,.F.);
#226=EDGE_CURVE('',#227,#219,#229,.T.);
#227=VERTEX_POINT('',#228);
#228=CARTESIAN_POINT('',(0.32,-5.4,0.));
#229=LINE('',#230,#162);
#230=CARTESIAN_POINT('',(0.32,-4.605,0.));
#231=ORIENTED_EDGE('',*,*,#232,.T.);
#232=EDGE_CURVE('',#227,#233,#235,.T.);
#233=VERTEX_POINT('',#234);
#234=CARTESIAN_POINT('',(-0.32,-5.4,0.));
#235=LINE('',#236,#59);
#236=CARTESIAN_POINT('',(-0.16,-5.4,0.));
#237=ORIENTED_EDGE('',*,*,#238,.T.);
#238=EDGE_CURVE('',#233,#221,#239,.T.);
#239=LINE('',#240,#162);
#240=CARTESIAN_POINT('',(-0.32,-4.605,0.));
#241=FACE_BOUND('',#242,.F.);
#242=EDGE_LOOP('',(#243,#251,#257,#263));
#243=ORIENTED_EDGE('',*,*,#244,.F.);
#244=EDGE_CURVE('',#245,#247,#249,.T.);
#245=VERTEX_POINT('',#246);
#246=CARTESIAN_POINT('',(0.32,-7.94,0.));
#247=VERTEX_POINT('',#248);
#248=CARTESIAN_POINT('',(0.32,-7.3,0.));
#249=LINE('',#250,#162);
#250=CARTESIAN_POINT('',(0.32,-5.875,0.));
#251=ORIENTED_EDGE('',*,*,#252,.T.);
#252=EDGE_CURVE('',#245,#253,#255,.T.);
#253=VERTEX_POINT('',#254);
#254=CARTESIAN_POINT('',(-0.32,-7.94,0.));
#255=LINE('',#256,#59);
#256=CARTESIAN_POINT('',(-0.16,-7.94,0.));
#257=ORIENTED_EDGE('',*,*,#258,.T.);
#258=EDGE_CURVE('',#253,#259,#261,.T.);
#259=VERTEX_POINT('',#260);
#260=CARTESIAN_POINT('',(-0.32,-7.3,0.));
#261=LINE('',#262,#162);
#262=CARTESIAN_POINT('',(-0.32,-5.875,0.));
#263=ORIENTED_EDGE('',*,*,#264,.F.);
#264=EDGE_CURVE('',#247,#259,#265,.T.);
#265=LINE('',#266,#59);
#266=CARTESIAN_POINT('',(-0.16,-7.3,0.));
#267=FACE_BOUND('',#268,.F.);
#268=EDGE_LOOP('',(#269,#277,#283,#289));
#269=ORIENTED_EDGE('',*,*,#270,.F.);
#270=EDGE_CURVE('',#271,#273,#275,.T.);
#271=VERTEX_POINT('',#272);
#272=CARTESIAN_POINT('',(0.32,-0.32,0.));
#273=VERTEX_POINT('',#274);
#274=CARTESIAN_POINT('',(0.32,0.32,0.));
#275=LINE('',#276,#162);
#276=CARTESIAN_POINT('',(0.32,-2.065,0.));
#277=ORIENTED_EDGE('',*,*,#278,.T.);
#278=EDGE_CURVE('',#271,#279,#281,.T.);
#279=VERTEX_POINT('',#280);
#280=CARTESIAN_POINT('',(-0.32,-0.32,0.));
#281=LINE('',#282,#59);
#282=CARTESIAN_POINT('',(-0.16,-0.32,0.));
#283=ORIENTED_EDGE('',*,*,#284,.T.);
#284=EDGE_CURVE('',#279,#285,#287,.T.);
#285=VERTEX_POINT('',#286);
#286=CARTESIAN_POINT('',(-0.32,0.32,0.));
#287=LINE('',#288,#162);
#288=CARTESIAN_POINT('',(-0.32,-2.065,0.));
#289=ORIENTED_EDGE('',*,*,#290,.F.);
#290=EDGE_CURVE('',#273,#285,#291,.T.);
#291=LINE('',#292,#59);
#292=CARTESIAN_POINT('',(-0.16,0.32,0.));
#293=FACE_BOUND('',#294,.F.);
#294=EDGE_LOOP('',(#295,#303,#309,#315));
#295=ORIENTED_EDGE('',*,*,#296,.F.);
#296=EDGE_CURVE('',#297,#299,#301,.T.);
#297=VERTEX_POINT('',#298);
#298=CARTESIAN_POINT('',(0.32,-2.22,0.));
#299=VERTEX_POINT('',#300);
#300=CARTESIAN_POINT('',(-0.32,-2.22,0.));
#301=LINE('',#302,#59);
#302=CARTESIAN_POINT('',(-0.16,-2.22,0.));
#303=ORIENTED_EDGE('',*,*,#304,.F.);
#304=EDGE_CURVE('',#305,#297,#307,.T.);
#305=VERTEX_POINT('',#306);
#306=CARTESIAN_POINT('',(0.32,-2.86,0.));
#307=LINE('',#308,#162);
#308=CARTESIAN_POINT('',(0.32,-3.335,0.));
#309=ORIENTED_EDGE('',*,*,#310,.T.);
#310=EDGE_CURVE('',#305,#311,#313,.T.);
#311=VERTEX_POINT('',#312);
#312=CARTESIAN_POINT('',(-0.32,-2.86,0.));
#313=LINE('',#314,#59);
#314=CARTESIAN_POINT('',(-0.16,-2.86,0.));
#315=ORIENTED_EDGE('',*,*,#316,.T.);
#316=EDGE_CURVE('',#311,#299,#317,.T.);
#317=LINE('',#318,#162);
#318=CARTESIAN_POINT('',(-0.32,-3.335,0.));
#319=PLANE('',#320);
#320=AXIS2_PLACEMENT_3D('',#321,#13,#14);
#321=CARTESIAN_POINT('',(4.259053689278E-17,-3.81,0.));
#322=ADVANCED_FACE('',(#323,#438,#464,#490,#516),#542,.T.);
#323=FACE_BOUND('',#324,.T.);
#324=EDGE_LOOP('',(#28,#72,#325,#330,#335,#340,#345,#350,#355,#360,#365,#370,#375,#380,#385,#390,#395,#400,#405,#410,#415,#420,#425,#430,#435,#56));
#325=ORIENTED_EDGE('',*,*,#326,.T.);
#326=EDGE_CURVE('',#74,#327,#329,.T.);
#327=VERTEX_POINT('',#328);
#328=CARTESIAN_POINT('',(-1.016,-1.27,2.54));
#329=LINE('',#75,#98);
#330=ORIENTED_EDGE('',*,*,#331,.T.);
#331=EDGE_CURVE('',#327,#332,#334,.T.);
#332=VERTEX_POINT('',#333);
#333=CARTESIAN_POINT('',(-1.27,-1.524,2.54));
#334=LINE('',#328,#33);
#335=ORIENTED_EDGE('',*,*,#336,.T.);
#336=EDGE_CURVE('',#332,#337,#339,.T.);
#337=VERTEX_POINT('',#338);
#338=CARTESIAN_POINT('',(-1.27,-3.556,2.54));
#339=LINE('',#333,#77);
#340=ORIENTED_EDGE('',*,*,#341,.T.);
#341=EDGE_CURVE('',#337,#342,#344,.T.);
#342=VERTEX_POINT('',#343);
#343=CARTESIAN_POINT('',(-1.016,-3.81,2.54));
#344=LINE('',#338,#98);
#345=ORIENTED_EDGE('',*,*,#346,.T.);
#346=EDGE_CURVE('',#342,#347,#349,.T.);
#347=VERTEX_POINT('',#348);
#348=CARTESIAN_POINT('',(-1.27,-4.064,2.54));
#349=LINE('',#343,#33);
#350=ORIENTED_EDGE('',*,*,#351,.T.);
#351=EDGE_CURVE('',#347,#352,#354,.T.);
#352=VERTEX_POINT('',#353);
#353=CARTESIAN_POINT('',(-1.27,-6.096,2.54));
#354=LINE('',#348,#77);
#355=ORIENTED_EDGE('',*,*,#356,.T.);
#356=EDGE_CURVE('',#352,#357,#359,.T.);
#357=VERTEX_POINT('',#358);
#358=CARTESIAN_POINT('',(-1.016,-6.35,2.54));
#359=LINE('',#353,#98);
#360=ORIENTED_EDGE('',*,*,#361,.T.);
#361=EDGE_CURVE('',#357,#362,#364,.T.);
#362=VERTEX_POINT('',#363);
#363=CARTESIAN_POINT('',(-1.27,-6.604,2.54));
#364=LINE('',#358,#33);
#365=ORIENTED_EDGE('',*,*,#366,.T.);
#366=EDGE_CURVE('',#362,#367,#369,.T.);
#367=VERTEX_POINT('',#368);
#368=CARTESIAN_POINT('',(-1.27,-8.636,2.54));
#369=LINE('',#363,#77);
#370=ORIENTED_EDGE('',*,*,#371,.T.);
#371=EDGE_CURVE('',#367,#372,#374,.T.);
#372=VERTEX_POINT('',#373);
#373=CARTESIAN_POINT('',(-1.016,-8.89,2.54));
#374=LINE('',#368,#98);
#375=ORIENTED_EDGE('',*,*,#376,.T.);
#376=EDGE_CURVE('',#372,#377,#379,.T.);
#377=VERTEX_POINT('',#378);
#378=CARTESIAN_POINT('',(1.016,-8.89,2.54));
#379=LINE('',#373,#149);
#380=ORIENTED_EDGE('',*,*,#381,.T.);
#381=EDGE_CURVE('',#377,#382,#384,.T.);
#382=VERTEX_POINT('',#383);
#383=CARTESIAN_POINT('',(1.27,-8.636,2.54));
#384=LINE('',#378,#155);
#385=ORIENTED_EDGE('',*,*,#386,.T.);
#386=EDGE_CURVE('',#382,#387,#389,.T.);
#387=VERTEX_POINT('',#388);
#388=CARTESIAN_POINT('',(1.27,-6.604,2.54));
#389=LINE('',#383,#162);
#390=ORIENTED_EDGE('',*,*,#391,.T.);
#391=EDGE_CURVE('',#387,#392,#394,.T.);
#392=VERTEX_POINT('',#393);
#393=CARTESIAN_POINT('',(1.016,-6.35,2.54));
#394=LINE('',#388,#169);
#395=ORIENTED_EDGE('',*,*,#396,.T.);
#396=EDGE_CURVE('',#392,#397,#399,.T.);
#397=VERTEX_POINT('',#398);
#398=CARTESIAN_POINT('',(1.27,-6.096,2.54));
#399=LINE('',#393,#155);
#400=ORIENTED_EDGE('',*,*,#401,.T.);
#401=EDGE_CURVE('',#397,#402,#404,.T.);
#402=VERTEX_POINT('',#403);
#403=CARTESIAN_POINT('',(1.27,-4.064,2.54));
#404=LINE('',#398,#162);
#405=ORIENTED_EDGE('',*,*,#406,.T.);
#406=EDGE_CURVE('',#402,#407,#409,.T.);
#407=VERTEX_POINT('',#408);
#408=CARTESIAN_POINT('',(1.016,-3.81,2.54));
#409=LINE('',#403,#169);
#410=ORIENTED_EDGE('',*,*,#411,.T.);
#411=EDGE_CURVE('',#407,#412,#414,.T.);
#412=VERTEX_POINT('',#413);
#413=CARTESIAN_POINT('',(1.27,-3.556,2.54));
#414=LINE('',#408,#155);
#415=ORIENTED_EDGE('',*,*,#416,.T.);
#416=EDGE_CURVE('',#412,#417,#419,.T.);
#417=VERTEX_POINT('',#418);
#418=CARTESIAN_POINT('',(1.27,-1.524,2.54));
#419=LINE('',#413,#162);
#420=ORIENTED_EDGE('',*,*,#421,.T.);
#421=EDGE_CURVE('',#417,#422,#424,.T.);
#422=VERTEX_POINT('',#423);
#423=CARTESIAN_POINT('',(1.016,-1.27,2.54));
#424=LINE('',#418,#169);
#425=ORIENTED_EDGE('',*,*,#426,.T.);
#426=EDGE_CURVE('',#422,#427,#429,.T.);
#427=VERTEX_POINT('',#428);
#428=CARTESIAN_POINT('',(1.27,-1.016,2.54));
#429=LINE('',#423,#155);
#430=ORIENTED_EDGE('',*,*,#431,.T.);
#431=EDGE_CURVE('',#427,#432,#434,.T.);
#432=VERTEX_POINT('',#433);
#433=CARTESIAN_POINT('',(1.27,1.016,2.54));
#434=LINE('',#428,#162);
#435=ORIENTED_EDGE('',*,*,#436,.T.);
#436=EDGE_CURVE('',#432,#53,#437,.T.);
#437=LINE('',#433,#169);
#438=FACE_BOUND('',#439,.T.);
#439=EDGE_LOOP('',(#440,#448,#454,#460));
#440=ORIENTED_EDGE('',*,*,#441,.F.);
#441=EDGE_CURVE('',#442,#444,#446,.T.);
#442=VERTEX_POINT('',#443);
#443=CARTESIAN_POINT('',(0.32,-4.76,2.54));
#444=VERTEX_POINT('',#445);
#445=CARTESIAN_POINT('',(-0.32,-4.76,2.54));
#446=LINE('',#447,#59);
#447=CARTESIAN_POINT('',(-0.16,-4.76,2.54));
#448=ORIENTED_EDGE('',*,*,#449,.F.);
#449=EDGE_CURVE('',#450,#442,#452,.T.);
#450=VERTEX_POINT('',#451);
#451=CARTESIAN_POINT('',(0.32,-5.4,2.54));
#452=LINE('',#453,#162);
#453=CARTESIAN_POINT('',(0.32,-4.605,2.54));
#454=ORIENTED_EDGE('',*,*,#455,.T.);
#455=EDGE_CURVE('',#450,#456,#458,.T.);
#456=VERTEX_POINT('',#457);
#457=CARTESIAN_POINT('',(-0.32,-5.4,2.54));
#458=LINE('',#459,#59);
#459=CARTESIAN_POINT('',(-0.16,-5.4,2.54));
#460=ORIENTED_EDGE('',*,*,#461,.T.);
#461=EDGE_CURVE('',#456,#444,#462,.T.);
#462=LINE('',#463,#162);
#463=CARTESIAN_POINT('',(-0.32,-4.605,2.54));
#464=FACE_BOUND('',#465,.T.);
#465=EDGE_LOOP('',(#466,#474,#480,#486));
#466=ORIENTED_EDGE('',*,*,#467,.F.);
#467=EDGE_CURVE('',#468,#470,#472,.T.);
#468=VERTEX_POINT('',#469);
#469=CARTESIAN_POINT('',(0.32,-7.94,2.54));
#470=VERTEX_POINT('',#471);
#471=CARTESIAN_POINT('',(0.32,-7.3,2.54));
#472=LINE('',#473,#162);
#473=CARTESIAN_POINT('',(0.32,-5.875,2.54));
#474=ORIENTED_EDGE('',*,*,#475,.T.);
#475=EDGE_CURVE('',#468,#476,#478,.T.);
#476=VERTEX_POINT('',#477);
#477=CARTESIAN_POINT('',(-0.32,-7.94,2.54));
#478=LINE('',#479,#59);
#479=CARTESIAN_POINT('',(-0.16,-7.94,2.54));
#480=ORIENTED_EDGE('',*,*,#481,.T.);
#481=EDGE_CURVE('',#476,#482,#484,.T.);
#482=VERTEX_POINT('',#483);
#483=CARTESIAN_POINT('',(-0.32,-7.3,2.54));
#484=LINE('',#485,#162);
#485=CARTESIAN_POINT('',(-0.32,-5.875,2.54));
#486=ORIENTED_EDGE('',*,*,#487,.F.);
#487=EDGE_CURVE('',#470,#482,#488,.T.);
#488=LINE('',#489,#59);
#489=CARTESIAN_POINT('',(-0.16,-7.3,2.54));
#490=FACE_BOUND('',#491,.T.);
#491=EDGE_LOOP('',(#492,#500,#506,#512));
#492=ORIENTED_EDGE('',*,*,#493,.F.);
#493=EDGE_CURVE('',#494,#496,#498,.T.);
#494=VERTEX_POINT('',#495);
#495=CARTESIAN_POINT('',(0.32,-0.32,2.54));
#496=VERTEX_POINT('',#497);
#497=CARTESIAN_POINT('',(0.32,0.32,2.54));
#498=LINE('',#499,#162);
#499=CARTESIAN_POINT('',(0.32,-2.065,2.54));
#500=ORIENTED_EDGE('',*,*,#501,.T.);
#501=EDGE_CURVE('',#494,#502,#504,.T.);
#502=VERTEX_POINT('',#503);
#503=CARTESIAN_POINT('',(-0.32,-0.32,2.54));
#504=LINE('',#505,#59);
#505=CARTESIAN_POINT('',(-0.16,-0.32,2.54));
#506=ORIENTED_EDGE('',*,*,#507,.T.);
#507=EDGE_CURVE('',#502,#508,#510,.T.);
#508=VERTEX_POINT('',#509);
#509=CARTESIAN_POINT('',(-0.32,0.32,2.54));
#510=LINE('',#511,#162);
#511=CARTESIAN_POINT('',(-0.32,-2.065,2.54));
#512=ORIENTED_EDGE('',*,*,#513,.F.);
#513=EDGE_CURVE('',#496,#508,#514,.T.);
#514=LINE('',#515,#59);
#515=CARTESIAN_POINT('',(-0.16,0.32,2.54));
#516=FACE_BOUND('',#517,.T.);
#517=EDGE_LOOP('',(#518,#526,#532,#538));
#518=ORIENTED_EDGE('',*,*,#519,.F.);
#519=EDGE_CURVE('',#520,#522,#524,.T.);
#520=VERTEX_POINT('',#521);
#521=CARTESIAN_POINT('',(0.32,-2.22,2.54));
#522=VERTEX_POINT('',#523);
#523=CARTESIAN_POINT('',(-0.32,-2.22,2.54));
#524=LINE('',#525,#59);
#525=CARTESIAN_POINT('',(-0.16,-2.22,2.54));
#526=ORIENTED_EDGE('',*,*,#527,.F.);
#527=EDGE_CURVE('',#528,#520,#530,.T.);
#528=VERTEX_POINT('',#529);
#529=CARTESIAN_POINT('',(0.32,-2.86,2.54));
#530=LINE('',#531,#162);
#531=CARTESIAN_POINT('',(0.32,-3.335,2.54));
#532=ORIENTED_EDGE('',*,*,#533,.T.);
#533=EDGE_CURVE('',#528,#534,#536,.T.);
#534=VERTEX_POINT('',#535);
#535=CARTESIAN_POINT('',(-0.32,-2.86,2.54));
#536=LINE('',#537,#59);
#537=CARTESIAN_POINT('',(-0.16,-2.86,2.54));
#538=ORIENTED_EDGE('',*,*,#539,.T.);
#539=EDGE_CURVE('',#534,#522,#540,.T.);
#540=LINE('',#541,#162);
#541=CARTESIAN_POINT('',(-0.32,-3.335,2.54));
#542=PLANE('',#543);
#543=AXIS2_PLACEMENT_3D('',#544,#13,#14);
#544=CARTESIAN_POINT('',(4.259053689278E-17,-3.81,2.54));
#545=ADVANCED_FACE('',(#546),#553,.F.);
#546=FACE_BOUND('',#547,.F.);
#547=EDGE_LOOP('',(#548,#435,#551,#552));
#548=ORIENTED_EDGE('',*,*,#549,.T.);
#549=EDGE_CURVE('',#208,#432,#550,.T.);
#550=LINE('',#209,#27);
#551=ORIENTED_EDGE('',*,*,#50,.F.);
#552=ORIENTED_EDGE('',*,*,#212,.F.);
#553=PLANE('',#554);
#554=AXIS2_PLACEMENT_3D('',#209,#34,#170);
#555=ADVANCED_FACE('',(#556),#563,.F.);
#556=FACE_BOUND('',#557,.F.);
#557=EDGE_LOOP('',(#558,#325,#559,#562));
#558=ORIENTED_EDGE('',*,*,#79,.T.);
#559=ORIENTED_EDGE('',*,*,#560,.F.);
#560=EDGE_CURVE('',#95,#327,#561,.T.);
#561=LINE('',#96,#27);
#562=ORIENTED_EDGE('',*,*,#94,.F.);
#563=PLANE('',#564);
#564=AXIS2_PLACEMENT_3D('',#81,#156,#45);
#565=ADVANCED_FACE('',(#566),#573,.F.);
#566=FACE_BOUND('',#567,.F.);
#567=EDGE_LOOP('',(#568,#430,#571,#572));
#568=ORIENTED_EDGE('',*,*,#569,.T.);
#569=EDGE_CURVE('',#203,#427,#570,.T.);
#570=LINE('',#204,#27);
#571=ORIENTED_EDGE('',*,*,#549,.F.);
#572=ORIENTED_EDGE('',*,*,#207,.F.);
#573=PLANE('',#574);
#574=AXIS2_PLACEMENT_3D('',#204,#60,#163);
#575=ADVANCED_FACE('',(#576),#583,.F.);
#576=FACE_BOUND('',#577,.F.);
#577=EDGE_LOOP('',(#578,#330,#579,#582));
#578=ORIENTED_EDGE('',*,*,#560,.T.);
#579=ORIENTED_EDGE('',*,*,#580,.F.);
#580=EDGE_CURVE('',#101,#332,#581,.T.);
#581=LINE('',#102,#27);
#582=ORIENTED_EDGE('',*,*,#100,.F.);
#583=PLANE('',#584);
#584=AXIS2_PLACEMENT_3D('',#96,#45,#34);
#585=ADVANCED_FACE('',(#586),#593,.F.);
#586=FACE_BOUND('',#587,.F.);
#587=EDGE_LOOP('',(#588,#425,#591,#592));
#588=ORIENTED_EDGE('',*,*,#589,.T.);
#589=EDGE_CURVE('',#198,#422,#590,.T.);
#590=LINE('',#199,#27);
#591=ORIENTED_EDGE('',*,*,#569,.F.);
#592=ORIENTED_EDGE('',*,*,#202,.F.);
#593=PLANE('',#594);
#594=AXIS2_PLACEMENT_3D('',#199,#170,#156);
#595=ADVANCED_FACE('',(#596),#603,.F.);
#596=FACE_BOUND('',#597,.F.);
#597=EDGE_LOOP('',(#598,#335,#599,#602));
#598=ORIENTED_EDGE('',*,*,#580,.T.);
#599=ORIENTED_EDGE('',*,*,#600,.F.);
#600=EDGE_CURVE('',#106,#337,#601,.T.);
#601=LINE('',#107,#27);
#602=ORIENTED_EDGE('',*,*,#105,.F.);
#603=PLANE('',#604);
#604=AXIS2_PLACEMENT_3D('',#102,#14,#67);
#605=ADVANCED_FACE('',(#606),#613,.F.);
#606=FACE_BOUND('',#607,.F.);
#607=EDGE_LOOP('',(#608,#420,#611,#612));
#608=ORIENTED_EDGE('',*,*,#609,.T.);
#609=EDGE_CURVE('',#193,#417,#610,.T.);
#610=LINE('',#194,#27);
#611=ORIENTED_EDGE('',*,*,#589,.F.);
#612=ORIENTED_EDGE('',*,*,#197,.F.);
#613=PLANE('',#614);
#614=AXIS2_PLACEMENT_3D('',#194,#34,#170);
#615=ADVANCED_FACE('',(#616),#623,.F.);
#616=FACE_BOUND('',#617,.F.);
#617=EDGE_LOOP('',(#618,#340,#619,#622));
#618=ORIENTED_EDGE('',*,*,#600,.T.);
#619=ORIENTED_EDGE('',*,*,#620,.F.);
#620=EDGE_CURVE('',#111,#342,#621,.T.);
#621=LINE('',#112,#27);
#622=ORIENTED_EDGE('',*,*,#110,.F.);
#623=PLANE('',#624);
#624=AXIS2_PLACEMENT_3D('',#107,#156,#45);
#625=ADVANCED_FACE('',(#626),#633,.F.);
#626=FACE_BOUND('',#627,.F.);
#627=EDGE_LOOP('',(#628,#415,#631,#632));
#628=ORIENTED_EDGE('',*,*,#629,.T.);
#629=EDGE_CURVE('',#188,#412,#630,.T.);
#630=LINE('',#189,#27);
#631=ORIENTED_EDGE('',*,*,#609,.F.);
#632=ORIENTED_EDGE('',*,*,#192,.F.);
#633=PLANE('',#634);
#634=AXIS2_PLACEMENT_3D('',#189,#60,#163);
#635=ADVANCED_FACE('',(#636),#643,.F.);
#636=FACE_BOUND('',#637,.F.);
#637=EDGE_LOOP('',(#638,#345,#639,#642));
#638=ORIENTED_EDGE('',*,*,#620,.T.);
#639=ORIENTED_EDGE('',*,*,#640,.F.);
#640=EDGE_CURVE('',#116,#347,#641,.T.);
#641=LINE('',#117,#27);
#642=ORIENTED_EDGE('',*,*,#115,.F.);
#643=PLANE('',#644);
#644=AXIS2_PLACEMENT_3D('',#112,#45,#34);
#645=ADVANCED_FACE('',(#646),#653,.F.);
#646=FACE_BOUND('',#647,.F.);
#647=EDGE_LOOP('',(#648,#410,#651,#652));
#648=ORIENTED_EDGE('',*,*,#649,.T.);
#649=EDGE_CURVE('',#183,#407,#650,.T.);
#650=LINE('',#184,#27);
#651=ORIENTED_EDGE('',*,*,#629,.F.);
#652=ORIENTED_EDGE('',*,*,#187,.F.);
#653=PLANE('',#654);
#654=AXIS2_PLACEMENT_3D('',#184,#170,#156);
#655=ADVANCED_FACE('',(#656),#663,.F.);
#656=FACE_BOUND('',#657,.F.);
#657=EDGE_LOOP('',(#658,#350,#659,#662));
#658=ORIENTED_EDGE('',*,*,#640,.T.);
#659=ORIENTED_EDGE('',*,*,#660,.F.);
#660=EDGE_CURVE('',#121,#352,#661,.T.);
#661=LINE('',#122,#27);
#662=ORIENTED_EDGE('',*,*,#120,.F.);
#663=PLANE('',#664);
#664=AXIS2_PLACEMENT_3D('',#117,#14,#67);
#665=ADVANCED_FACE('',(#666),#673,.F.);
#666=FACE_BOUND('',#667,.F.);
#667=EDGE_LOOP('',(#668,#405,#671,#672));
#668=ORIENTED_EDGE('',*,*,#669,.T.);
#669=EDGE_CURVE('',#178,#402,#670,.T.);
#670=LINE('',#179,#27);
#671=ORIENTED_EDGE('',*,*,#649,.F.);
#672=ORIENTED_EDGE('',*,*,#182,.F.);
#673=PLANE('',#674);
#674=AXIS2_PLACEMENT_3D('',#179,#34,#170);
#675=ADVANCED_FACE('',(#676),#683,.F.);
#676=FACE_BOUND('',#677,.F.);
#677=EDGE_LOOP('',(#678,#355,#679,#682));
#678=ORIENTED_EDGE('',*,*,#660,.T.);
#679=ORIENTED_EDGE('',*,*,#680,.F.);
#680=EDGE_CURVE('',#126,#357,#681,.T.);
#681=LINE('',#127,#27);
#682=ORIENTED_EDGE('',*,*,#125,.F.);
#683=PLANE('',#684);
#684=AXIS2_PLACEMENT_3D('',#122,#156,#45);
#685=ADVANCED_FACE('',(#686),#693,.F.);
#686=FACE_BOUND('',#687,.F.);
#687=EDGE_LOOP('',(#688,#400,#691,#692));
#688=ORIENTED_EDGE('',*,*,#689,.T.);
#689=EDGE_CURVE('',#173,#397,#690,.T.);
#690=LINE('',#174,#27);
#691=ORIENTED_EDGE('',*,*,#669,.F.);
#692=ORIENTED_EDGE('',*,*,#177,.F.);
#693=PLANE('',#694);
#694=AXIS2_PLACEMENT_3D('',#174,#60,#163);
#695=ADVANCED_FACE('',(#696),#703,.F.);
#696=FACE_BOUND('',#697,.F.);
#697=EDGE_LOOP('',(#698,#360,#699,#702));
#698=ORIENTED_EDGE('',*,*,#680,.T.);
#699=ORIENTED_EDGE('',*,*,#700,.F.);
#700=EDGE_CURVE('',#131,#362,#701,.T.);
#701=LINE('',#132,#27);
#702=ORIENTED_EDGE('',*,*,#130,.F.);
#703=PLANE('',#704);
#704=AXIS2_PLACEMENT_3D('',#127,#45,#34);
#705=ADVANCED_FACE('',(#706),#713,.F.);
#706=FACE_BOUND('',#707,.F.);
#707=EDGE_LOOP('',(#708,#395,#711,#712));
#708=ORIENTED_EDGE('',*,*,#709,.T.);
#709=EDGE_CURVE('',#166,#392,#710,.T.);
#710=LINE('',#167,#27);
#711=ORIENTED_EDGE('',*,*,#689,.F.);
#712=ORIENTED_EDGE('',*,*,#172,.F.);
#713=PLANE('',#714);
#714=AXIS2_PLACEMENT_3D('',#167,#170,#156);
#715=ADVANCED_FACE('',(#716),#723,.F.);
#716=FACE_BOUND('',#717,.F.);
#717=EDGE_LOOP('',(#718,#365,#719,#722));
#718=ORIENTED_EDGE('',*,*,#700,.T.);
#719=ORIENTED_EDGE('',*,*,#720,.F.);
#720=EDGE_CURVE('',#136,#367,#721,.T.);
#721=LINE('',#137,#27);
#722=ORIENTED_EDGE('',*,*,#135,.F.);
#723=PLANE('',#724);
#724=AXIS2_PLACEMENT_3D('',#132,#14,#67);
#725=ADVANCED_FACE('',(#726),#733,.F.);
#726=FACE_BOUND('',#727,.F.);
#727=EDGE_LOOP('',(#728,#390,#731,#732));
#728=ORIENTED_EDGE('',*,*,#729,.T.);
#729=EDGE_CURVE('',#159,#387,#730,.T.);
#730=LINE('',#160,#27);
#731=ORIENTED_EDGE('',*,*,#709,.F.);
#732=ORIENTED_EDGE('',*,*,#165,.F.);
#733=PLANE('',#734);
#734=AXIS2_PLACEMENT_3D('',#160,#34,#170);
#735=ADVANCED_FACE('',(#736),#743,.F.);
#736=FACE_BOUND('',#737,.F.);
#737=EDGE_LOOP('',(#738,#370,#739,#742));
#738=ORIENTED_EDGE('',*,*,#720,.T.);
#739=ORIENTED_EDGE('',*,*,#740,.F.);
#740=EDGE_CURVE('',#141,#372,#741,.T.);
#741=LINE('',#142,#27);
#742=ORIENTED_EDGE('',*,*,#140,.F.);
#743=PLANE('',#744);
#744=AXIS2_PLACEMENT_3D('',#137,#156,#45);
#745=ADVANCED_FACE('',(#746),#753,.F.);
#746=FACE_BOUND('',#747,.F.);
#747=EDGE_LOOP('',(#748,#385,#751,#752));
#748=ORIENTED_EDGE('',*,*,#749,.T.);
#749=EDGE_CURVE('',#152,#382,#750,.T.);
#750=LINE('',#153,#27);
#751=ORIENTED_EDGE('',*,*,#729,.F.);
#752=ORIENTED_EDGE('',*,*,#158,.F.);
#753=PLANE('',#754);
#754=AXIS2_PLACEMENT_3D('',#153,#60,#163);
#755=ADVANCED_FACE('',(#756),#763,.F.);
#756=FACE_BOUND('',#757,.F.);
#757=EDGE_LOOP('',(#758,#375,#759,#762));
#758=ORIENTED_EDGE('',*,*,#740,.T.);
#759=ORIENTED_EDGE('',*,*,#760,.F.);
#760=EDGE_CURVE('',#146,#377,#761,.T.);
#761=LINE('',#147,#27);
#762=ORIENTED_EDGE('',*,*,#145,.F.);
#763=PLANE('',#764);
#764=AXIS2_PLACEMENT_3D('',#142,#163,#14);
#765=ADVANCED_FACE('',(#766),#771,.F.);
#766=FACE_BOUND('',#767,.F.);
#767=EDGE_LOOP('',(#768,#380,#769,#770));
#768=ORIENTED_EDGE('',*,*,#760,.T.);
#769=ORIENTED_EDGE('',*,*,#749,.F.);
#770=ORIENTED_EDGE('',*,*,#151,.F.);
#771=PLANE('',#772);
#772=AXIS2_PLACEMENT_3D('',#147,#170,#156);
#773=ADVANCED_FACE('',(#774),#791,.T.);
#774=FACE_BOUND('',#775,.T.);
#775=EDGE_LOOP('',(#776,#782,#787,#217));
#776=ORIENTED_EDGE('',*,*,#777,.F.);
#777=EDGE_CURVE('',#778,#219,#780,.T.);
#778=VERTEX_POINT('',#779);
#779=CARTESIAN_POINT('',(0.32,-4.76,-2.84));
#780=LINE('',#781,#27);
#781=CARTESIAN_POINT('',(0.32,-4.76,-3.));
#782=ORIENTED_EDGE('',*,*,#783,.F.);
#783=EDGE_CURVE('',#784,#778,#786,.T.);
#784=VERTEX_POINT('',#785);
#785=CARTESIAN_POINT('',(-0.32,-4.76,-2.84));
#786=LINE('',#785,#149);
#787=ORIENTED_EDGE('',*,*,#788,.T.);
#788=EDGE_CURVE('',#784,#221,#789,.T.);
#789=LINE('',#790,#27);
#790=CARTESIAN_POINT('',(-0.32,-4.76,-3.));
#791=PLANE('',#792);
#792=AXIS2_PLACEMENT_3D('',#790,#163,#13);
#793=ADVANCED_FACE('',(#794),#806,.F.);
#794=FACE_BOUND('',#795,.F.);
#795=EDGE_LOOP('',(#796,#802,#787,#805));
#796=ORIENTED_EDGE('',*,*,#797,.F.);
#797=EDGE_CURVE('',#798,#233,#800,.T.);
#798=VERTEX_POINT('',#799);
#799=CARTESIAN_POINT('',(-0.32,-5.4,-2.84));
#800=LINE('',#801,#27);
#801=CARTESIAN_POINT('',(-0.32,-5.4,-3.));
#802=ORIENTED_EDGE('',*,*,#803,.T.);
#803=EDGE_CURVE('',#798,#784,#804,.T.);
#804=LINE('',#799,#162);
#805=ORIENTED_EDGE('',*,*,#238,.F.);
#806=PLANE('',#807);
#807=AXIS2_PLACEMENT_3D('',#801,#14,#13);
#808=ADVANCED_FACE('',(#809),#822,.F.);
#809=FACE_BOUND('',#810,.F.);
#810=EDGE_LOOP('',(#811,#817,#820,#821));
#811=ORIENTED_EDGE('',*,*,#812,.F.);
#812=EDGE_CURVE('',#813,#227,#815,.T.);
#813=VERTEX_POINT('',#814);
#814=CARTESIAN_POINT('',(0.32,-5.4,-2.84));
#815=LINE('',#816,#27);
#816=CARTESIAN_POINT('',(0.32,-5.4,-3.));
#817=ORIENTED_EDGE('',*,*,#818,.F.);
#818=EDGE_CURVE('',#798,#813,#819,.T.);
#819=LINE('',#799,#149);
#820=ORIENTED_EDGE('',*,*,#797,.T.);
#821=ORIENTED_EDGE('',*,*,#232,.F.);
#822=PLANE('',#823);
#823=AXIS2_PLACEMENT_3D('',#801,#163,#13);
#824=ADVANCED_FACE('',(#825),#831,.T.);
#825=FACE_BOUND('',#826,.T.);
#826=EDGE_LOOP('',(#811,#827,#830,#225));
#827=ORIENTED_EDGE('',*,*,#828,.T.);
#828=EDGE_CURVE('',#813,#778,#829,.T.);
#829=LINE('',#814,#162);
#830=ORIENTED_EDGE('',*,*,#777,.T.);
#831=PLANE('',#832);
#832=AXIS2_PLACEMENT_3D('',#816,#14,#13);
#833=ADVANCED_FACE('',(#834),#851,.T.);
#834=FACE_BOUND('',#835,.T.);
#835=EDGE_LOOP('',(#836,#842,#847,#243));
#836=ORIENTED_EDGE('',*,*,#837,.F.);
#837=EDGE_CURVE('',#838,#245,#840,.T.);
#838=VERTEX_POINT('',#839);
#839=CARTESIAN_POINT('',(0.32,-7.94,-2.84));
#840=LINE('',#841,#27);
#841=CARTESIAN_POINT('',(0.32,-7.94,-3.));
#842=ORIENTED_EDGE('',*,*,#843,.T.);
#843=EDGE_CURVE('',#838,#844,#846,.T.);
#844=VERTEX_POINT('',#845);
#845=CARTESIAN_POINT('',(0.32,-7.3,-2.84));
#846=LINE('',#839,#162);
#847=ORIENTED_EDGE('',*,*,#848,.T.);
#848=EDGE_CURVE('',#844,#247,#849,.T.);
#849=LINE('',#850,#27);
#850=CARTESIAN_POINT('',(0.32,-7.3,-3.));
#851=PLANE('',#852);
#852=AXIS2_PLACEMENT_3D('',#841,#14,#13);
#853=ADVANCED_FACE('',(#854),#866,.T.);
#854=FACE_BOUND('',#855,.T.);
#855=EDGE_LOOP('',(#856,#857,#862,#263));
#856=ORIENTED_EDGE('',*,*,#848,.F.);
#857=ORIENTED_EDGE('',*,*,#858,.F.);
#858=EDGE_CURVE('',#859,#844,#861,.T.);
#859=VERTEX_POINT('',#860);
#860=CARTESIAN_POINT('',(-0.32,-7.3,-2.84));
#861=LINE('',#860,#149);
#862=ORIENTED_EDGE('',*,*,#863,.T.);
#863=EDGE_CURVE('',#859,#259,#864,.T.);
#864=LINE('',#865,#27);
#865=CARTESIAN_POINT('',(-0.32,-7.3,-3.));
#866=PLANE('',#867);
#867=AXIS2_PLACEMENT_3D('',#865,#163,#13);
#868=ADVANCED_FACE('',(#869),#881,.F.);
#869=FACE_BOUND('',#870,.F.);
#870=EDGE_LOOP('',(#871,#877,#862,#880));
#871=ORIENTED_EDGE('',*,*,#872,.F.);
#872=EDGE_CURVE('',#873,#253,#875,.T.);
#873=VERTEX_POINT('',#874);
#874=CARTESIAN_POINT('',(-0.32,-7.94,-2.84));
#875=LINE('',#876,#27);
#876=CARTESIAN_POINT('',(-0.32,-7.94,-3.));
#877=ORIENTED_EDGE('',*,*,#878,.T.);
#878=EDGE_CURVE('',#873,#859,#879,.T.);
#879=LINE('',#874,#162);
#880=ORIENTED_EDGE('',*,*,#258,.F.);
#881=PLANE('',#882);
#882=AXIS2_PLACEMENT_3D('',#876,#14,#13);
#883=ADVANCED_FACE('',(#884),#891,.F.);
#884=FACE_BOUND('',#885,.F.);
#885=EDGE_LOOP('',(#836,#886,#889,#890));
#886=ORIENTED_EDGE('',*,*,#887,.F.);
#887=EDGE_CURVE('',#873,#838,#888,.T.);
#888=LINE('',#874,#149);
#889=ORIENTED_EDGE('',*,*,#872,.T.);
#890=ORIENTED_EDGE('',*,*,#252,.F.);
#891=PLANE('',#892);
#892=AXIS2_PLACEMENT_3D('',#876,#163,#13);
#893=ADVANCED_FACE('',(#894),#911,.T.);
#894=FACE_BOUND('',#895,.T.);
#895=EDGE_LOOP('',(#896,#902,#907,#269));
#896=ORIENTED_EDGE('',*,*,#897,.F.);
#897=EDGE_CURVE('',#898,#271,#900,.T.);
#898=VERTEX_POINT('',#899);
#899=CARTESIAN_POINT('',(0.32,-0.32,-2.84));
#900=LINE('',#901,#27);
#901=CARTESIAN_POINT('',(0.32,-0.32,-3.));
#902=ORIENTED_EDGE('',*,*,#903,.T.);
#903=EDGE_CURVE('',#898,#904,#906,.T.);
#904=VERTEX_POINT('',#905);
#905=CARTESIAN_POINT('',(0.32,0.32,-2.84));
#906=LINE('',#899,#162);
#907=ORIENTED_EDGE('',*,*,#908,.T.);
#908=EDGE_CURVE('',#904,#273,#909,.T.);
#909=LINE('',#910,#27);
#910=CARTESIAN_POINT('',(0.32,0.32,-3.));
#911=PLANE('',#912);
#912=AXIS2_PLACEMENT_3D('',#901,#14,#13);
#913=ADVANCED_FACE('',(#914),#926,.T.);
#914=FACE_BOUND('',#915,.T.);
#915=EDGE_LOOP('',(#916,#917,#922,#289));
#916=ORIENTED_EDGE('',*,*,#908,.F.);
#917=ORIENTED_EDGE('',*,*,#918,.F.);
#918=EDGE_CURVE('',#919,#904,#921,.T.);
#919=VERTEX_POINT('',#920);
#920=CARTESIAN_POINT('',(-0.32,0.32,-2.84));
#921=LINE('',#920,#149);
#922=ORIENTED_EDGE('',*,*,#923,.T.);
#923=EDGE_CURVE('',#919,#285,#924,.T.);
#924=LINE('',#925,#27);
#925=CARTESIAN_POINT('',(-0.32,0.32,-3.));
#926=PLANE('',#927);
#927=AXIS2_PLACEMENT_3D('',#925,#163,#13);
#928=ADVANCED_FACE('',(#929),#941,.F.);
#929=FACE_BOUND('',#930,.F.);
#930=EDGE_LOOP('',(#931,#937,#922,#940));
#931=ORIENTED_EDGE('',*,*,#932,.F.);
#932=EDGE_CURVE('',#933,#279,#935,.T.);
#933=VERTEX_POINT('',#934);
#934=CARTESIAN_POINT('',(-0.32,-0.32,-2.84));
#935=LINE('',#936,#27);
#936=CARTESIAN_POINT('',(-0.32,-0.32,-3.));
#937=ORIENTED_EDGE('',*,*,#938,.T.);
#938=EDGE_CURVE('',#933,#919,#939,.T.);
#939=LINE('',#934,#162);
#940=ORIENTED_EDGE('',*,*,#284,.F.);
#941=PLANE('',#942);
#942=AXIS2_PLACEMENT_3D('',#936,#14,#13);
#943=ADVANCED_FACE('',(#944),#951,.F.);
#944=FACE_BOUND('',#945,.F.);
#945=EDGE_LOOP('',(#896,#946,#949,#950));
#946=ORIENTED_EDGE('',*,*,#947,.F.);
#947=EDGE_CURVE('',#933,#898,#948,.T.);
#948=LINE('',#934,#149);
#949=ORIENTED_EDGE('',*,*,#932,.T.);
#950=ORIENTED_EDGE('',*,*,#278,.F.);
#951=PLANE('',#952);
#952=AXIS2_PLACEMENT_3D('',#936,#163,#13);
#953=ADVANCED_FACE('',(#954),#971,.T.);
#954=FACE_BOUND('',#955,.T.);
#955=EDGE_LOOP('',(#956,#962,#967,#295));
#956=ORIENTED_EDGE('',*,*,#957,.F.);
#957=EDGE_CURVE('',#958,#297,#960,.T.);
#958=VERTEX_POINT('',#959);
#959=CARTESIAN_POINT('',(0.32,-2.22,-2.84));
#960=LINE('',#961,#27);
#961=CARTESIAN_POINT('',(0.32,-2.22,-3.));
#962=ORIENTED_EDGE('',*,*,#963,.F.);
#963=EDGE_CURVE('',#964,#958,#966,.T.);
#964=VERTEX_POINT('',#965);
#965=CARTESIAN_POINT('',(-0.32,-2.22,-2.84));
#966=LINE('',#965,#149);
#967=ORIENTED_EDGE('',*,*,#968,.T.);
#968=EDGE_CURVE('',#964,#299,#969,.T.);
#969=LINE('',#970,#27);
#970=CARTESIAN_POINT('',(-0.32,-2.22,-3.));
#971=PLANE('',#972);
#972=AXIS2_PLACEMENT_3D('',#970,#163,#13);
#973=ADVANCED_FACE('',(#974),#986,.F.);
#974=FACE_BOUND('',#975,.F.);
#975=EDGE_LOOP('',(#976,#982,#967,#985));
#976=ORIENTED_EDGE('',*,*,#977,.F.);
#977=EDGE_CURVE('',#978,#311,#980,.T.);
#978=VERTEX_POINT('',#979);
#979=CARTESIAN_POINT('',(-0.32,-2.86,-2.84));
#980=LINE('',#981,#27);
#981=CARTESIAN_POINT('',(-0.32,-2.86,-3.));
#982=ORIENTED_EDGE('',*,*,#983,.T.);
#983=EDGE_CURVE('',#978,#964,#984,.T.);
#984=LINE('',#979,#162);
#985=ORIENTED_EDGE('',*,*,#316,.F.);
#986=PLANE('',#987);
#987=AXIS2_PLACEMENT_3D('',#981,#14,#13);
#988=ADVANCED_FACE('',(#989),#1002,.F.);
#989=FACE_BOUND('',#990,.F.);
#990=EDGE_LOOP('',(#991,#997,#1000,#1001));
#991=ORIENTED_EDGE('',*,*,#992,.F.);
#992=EDGE_CURVE('',#993,#305,#995,.T.);
#993=VERTEX_POINT('',#994);
#994=CARTESIAN_POINT('',(0.32,-2.86,-2.84));
#995=LINE('',#996,#27);
#996=CARTESIAN_POINT('',(0.32,-2.86,-3.));
#997=ORIENTED_EDGE('',*,*,#998,.F.);
#998=EDGE_CURVE('',#978,#993,#999,.T.);
#999=LINE('',#979,#149);
#1000=ORIENTED_EDGE('',*,*,#977,.T.);
#1001=ORIENTED_EDGE('',*,*,#310,.F.);
#1002=PLANE('',#1003);
#1003=AXIS2_PLACEMENT_3D('',#981,#163,#13);
#1004=ADVANCED_FACE('',(#1005),#1011,.T.);
#1005=FACE_BOUND('',#1006,.T.);
#1006=EDGE_LOOP('',(#991,#1007,#1010,#303));
#1007=ORIENTED_EDGE('',*,*,#1008,.T.);
#1008=EDGE_CURVE('',#993,#958,#1009,.T.);
#1009=LINE('',#994,#162);
#1010=ORIENTED_EDGE('',*,*,#957,.T.);
#1011=PLANE('',#1012);
#1012=AXIS2_PLACEMENT_3D('',#996,#14,#13);
#1013=ADVANCED_FACE('',(#1014),#791,.T.);
#1014=FACE_BOUND('',#1015,.T.);
#1015=EDGE_LOOP('',(#1016,#1020,#1021,#1025));
#1016=ORIENTED_EDGE('',*,*,#1017,.F.);
#1017=EDGE_CURVE('',#442,#1018,#780,.T.);
#1018=VERTEX_POINT('',#1019);
#1019=CARTESIAN_POINT('',(0.32,-4.76,8.38));
#1020=ORIENTED_EDGE('',*,*,#441,.T.);
#1021=ORIENTED_EDGE('',*,*,#1022,.T.);
#1022=EDGE_CURVE('',#444,#1023,#789,.T.);
#1023=VERTEX_POINT('',#1024);
#1024=CARTESIAN_POINT('',(-0.32,-4.76,8.38));
#1025=ORIENTED_EDGE('',*,*,#1026,.T.);
#1026=EDGE_CURVE('',#1023,#1018,#1027,.T.);
#1027=LINE('',#1024,#149);
#1028=ADVANCED_FACE('',(#1029),#806,.F.);
#1029=FACE_BOUND('',#1030,.F.);
#1030=EDGE_LOOP('',(#1031,#460,#1021,#1035));
#1031=ORIENTED_EDGE('',*,*,#1032,.F.);
#1032=EDGE_CURVE('',#456,#1033,#800,.T.);
#1033=VERTEX_POINT('',#1034);
#1034=CARTESIAN_POINT('',(-0.32,-5.4,8.38));
#1035=ORIENTED_EDGE('',*,*,#1036,.F.);
#1036=EDGE_CURVE('',#1033,#1023,#1037,.T.);
#1037=LINE('',#1034,#162);
#1038=ADVANCED_FACE('',(#1039),#822,.F.);
#1039=FACE_BOUND('',#1040,.F.);
#1040=EDGE_LOOP('',(#1041,#454,#1045,#1046));
#1041=ORIENTED_EDGE('',*,*,#1042,.F.);
#1042=EDGE_CURVE('',#450,#1043,#815,.T.);
#1043=VERTEX_POINT('',#1044);
#1044=CARTESIAN_POINT('',(0.32,-5.4,8.38));
#1045=ORIENTED_EDGE('',*,*,#1032,.T.);
#1046=ORIENTED_EDGE('',*,*,#1047,.T.);
#1047=EDGE_CURVE('',#1033,#1043,#1048,.T.);
#1048=LINE('',#1034,#149);
#1049=ADVANCED_FACE('',(#1050),#831,.T.);
#1050=FACE_BOUND('',#1051,.T.);
#1051=EDGE_LOOP('',(#1041,#1052,#1053,#1054));
#1052=ORIENTED_EDGE('',*,*,#449,.T.);
#1053=ORIENTED_EDGE('',*,*,#1017,.T.);
#1054=ORIENTED_EDGE('',*,*,#1055,.F.);
#1055=EDGE_CURVE('',#1043,#1018,#1056,.T.);
#1056=LINE('',#1044,#162);
#1057=ADVANCED_FACE('',(#1058),#851,.T.);
#1058=FACE_BOUND('',#1059,.T.);
#1059=EDGE_LOOP('',(#1060,#1064,#1065,#1069));
#1060=ORIENTED_EDGE('',*,*,#1061,.F.);
#1061=EDGE_CURVE('',#468,#1062,#840,.T.);
#1062=VERTEX_POINT('',#1063);
#1063=CARTESIAN_POINT('',(0.32,-7.94,8.38));
#1064=ORIENTED_EDGE('',*,*,#467,.T.);
#1065=ORIENTED_EDGE('',*,*,#1066,.T.);
#1066=EDGE_CURVE('',#470,#1067,#849,.T.);
#1067=VERTEX_POINT('',#1068);
#1068=CARTESIAN_POINT('',(0.32,-7.3,8.38));
#1069=ORIENTED_EDGE('',*,*,#1070,.F.);
#1070=EDGE_CURVE('',#1062,#1067,#1071,.T.);
#1071=LINE('',#1063,#162);
#1072=ADVANCED_FACE('',(#1073),#866,.T.);
#1073=FACE_BOUND('',#1074,.T.);
#1074=EDGE_LOOP('',(#1075,#1076,#1077,#1081));
#1075=ORIENTED_EDGE('',*,*,#1066,.F.);
#1076=ORIENTED_EDGE('',*,*,#487,.T.);
#1077=ORIENTED_EDGE('',*,*,#1078,.T.);
#1078=EDGE_CURVE('',#482,#1079,#864,.T.);
#1079=VERTEX_POINT('',#1080);
#1080=CARTESIAN_POINT('',(-0.32,-7.3,8.38));
#1081=ORIENTED_EDGE('',*,*,#1082,.T.);
#1082=EDGE_CURVE('',#1079,#1067,#1083,.T.);
#1083=LINE('',#1080,#149);
#1084=ADVANCED_FACE('',(#1085),#881,.F.);
#1085=FACE_BOUND('',#1086,.F.);
#1086=EDGE_LOOP('',(#1087,#480,#1077,#1091));
#1087=ORIENTED_EDGE('',*,*,#1088,.F.);
#1088=EDGE_CURVE('',#476,#1089,#875,.T.);
#1089=VERTEX_POINT('',#1090);
#1090=CARTESIAN_POINT('',(-0.32,-7.94,8.38));
#1091=ORIENTED_EDGE('',*,*,#1092,.F.);
#1092=EDGE_CURVE('',#1089,#1079,#1093,.T.);
#1093=LINE('',#1090,#162);
#1094=ADVANCED_FACE('',(#1095),#891,.F.);
#1095=FACE_BOUND('',#1096,.F.);
#1096=EDGE_LOOP('',(#1060,#474,#1097,#1098));
#1097=ORIENTED_EDGE('',*,*,#1088,.T.);
#1098=ORIENTED_EDGE('',*,*,#1099,.T.);
#1099=EDGE_CURVE('',#1089,#1062,#1100,.T.);
#1100=LINE('',#1090,#149);
#1101=ADVANCED_FACE('',(#1102),#911,.T.);
#1102=FACE_BOUND('',#1103,.T.);
#1103=EDGE_LOOP('',(#1104,#1108,#1109,#1113));
#1104=ORIENTED_EDGE('',*,*,#1105,.F.);
#1105=EDGE_CURVE('',#494,#1106,#900,.T.);
#1106=VERTEX_POINT('',#1107);
#1107=CARTESIAN_POINT('',(0.32,-0.32,8.38));
#1108=ORIENTED_EDGE('',*,*,#493,.T.);
#1109=ORIENTED_EDGE('',*,*,#1110,.T.);
#1110=EDGE_CURVE('',#496,#1111,#909,.T.);
#1111=VERTEX_POINT('',#1112);
#1112=CARTESIAN_POINT('',(0.32,0.32,8.38));
#1113=ORIENTED_EDGE('',*,*,#1114,.F.);
#1114=EDGE_CURVE('',#1106,#1111,#1115,.T.);
#1115=LINE('',#1107,#162);
#1116=ADVANCED_FACE('',(#1117),#926,.T.);
#1117=FACE_BOUND('',#1118,.T.);
#1118=EDGE_LOOP('',(#1119,#1120,#1121,#1125));
#1119=ORIENTED_EDGE('',*,*,#1110,.F.);
#1120=ORIENTED_EDGE('',*,*,#513,.T.);
#1121=ORIENTED_EDGE('',*,*,#1122,.T.);
#1122=EDGE_CURVE('',#508,#1123,#924,.T.);
#1123=VERTEX_POINT('',#1124);
#1124=CARTESIAN_POINT('',(-0.32,0.32,8.38));
#1125=ORIENTED_EDGE('',*,*,#1126,.T.);
#1126=EDGE_CURVE('',#1123,#1111,#1127,.T.);
#1127=LINE('',#1124,#149);
#1128=ADVANCED_FACE('',(#1129),#941,.F.);
#1129=FACE_BOUND('',#1130,.F.);
#1130=EDGE_LOOP('',(#1131,#506,#1121,#1135));
#1131=ORIENTED_EDGE('',*,*,#1132,.F.);
#1132=EDGE_CURVE('',#502,#1133,#935,.T.);
#1133=VERTEX_POINT('',#1134);
#1134=CARTESIAN_POINT('',(-0.32,-0.32,8.38));
#1135=ORIENTED_EDGE('',*,*,#1136,.F.);
#1136=EDGE_CURVE('',#1133,#1123,#1137,.T.);
#1137=LINE('',#1134,#162);
#1138=ADVANCED_FACE('',(#1139),#951,.F.);
#1139=FACE_BOUND('',#1140,.F.);
#1140=EDGE_LOOP('',(#1104,#500,#1141,#1142));
#1141=ORIENTED_EDGE('',*,*,#1132,.T.);
#1142=ORIENTED_EDGE('',*,*,#1143,.T.);
#1143=EDGE_CURVE('',#1133,#1106,#1144,.T.);
#1144=LINE('',#1134,#149);
#1145=ADVANCED_FACE('',(#1146),#971,.T.);
#1146=FACE_BOUND('',#1147,.T.);
#1147=EDGE_LOOP('',(#1148,#1152,#1153,#1157));
#1148=ORIENTED_EDGE('',*,*,#1149,.F.);
#1149=EDGE_CURVE('',#520,#1150,#960,.T.);
#1150=VERTEX_POINT('',#1151);
#1151=CARTESIAN_POINT('',(0.32,-2.22,8.38));
#1152=ORIENTED_EDGE('',*,*,#519,.T.);
#1153=ORIENTED_EDGE('',*,*,#1154,.T.);
#1154=EDGE_CURVE('',#522,#1155,#969,.T.);
#1155=VERTEX_POINT('',#1156);
#1156=CARTESIAN_POINT('',(-0.32,-2.22,8.38));
#1157=ORIENTED_EDGE('',*,*,#1158,.T.);
#1158=EDGE_CURVE('',#1155,#1150,#1159,.T.);
#1159=LINE('',#1156,#149);
#1160=ADVANCED_FACE('',(#1161),#986,.F.);
#1161=FACE_BOUND('',#1162,.F.);
#1162=EDGE_LOOP('',(#1163,#538,#1153,#1167));
#1163=ORIENTED_EDGE('',*,*,#1164,.F.);
#1164=EDGE_CURVE('',#534,#1165,#980,.T.);
#1165=VERTEX_POINT('',#1166);
#1166=CARTESIAN_POINT('',(-0.32,-2.86,8.38));
#1167=ORIENTED_EDGE('',*,*,#1168,.F.);
#1168=EDGE_CURVE('',#1165,#1155,#1169,.T.);
#1169=LINE('',#1166,#162);
#1170=ADVANCED_FACE('',(#1171),#1002,.F.);
#1171=FACE_BOUND('',#1172,.F.);
#1172=EDGE_LOOP('',(#1173,#532,#1177,#1178));
#1173=ORIENTED_EDGE('',*,*,#1174,.F.);
#1174=EDGE_CURVE('',#528,#1175,#995,.T.);
#1175=VERTEX_POINT('',#1176);
#1176=CARTESIAN_POINT('',(0.32,-2.86,8.38));
#1177=ORIENTED_EDGE('',*,*,#1164,.T.);
#1178=ORIENTED_EDGE('',*,*,#1179,.T.);
#1179=EDGE_CURVE('',#1165,#1175,#1180,.T.);
#1180=LINE('',#1166,#149);
#1181=ADVANCED_FACE('',(#1182),#1011,.T.);
#1182=FACE_BOUND('',#1183,.T.);
#1183=EDGE_LOOP('',(#1173,#1184,#1185,#1186));
#1184=ORIENTED_EDGE('',*,*,#527,.T.);
#1185=ORIENTED_EDGE('',*,*,#1149,.T.);
#1186=ORIENTED_EDGE('',*,*,#1187,.F.);
#1187=EDGE_CURVE('',#1175,#1150,#1188,.T.);
#1188=LINE('',#1176,#162);
#1189=ADVANCED_FACE('',(#1190),#1212,.F.);
#1190=FACE_BOUND('',#1191,.T.);
#1191=EDGE_LOOP('',(#1192,#1199,#1200,#1208));
#1192=ORIENTED_EDGE('',*,*,#1193,.F.);
#1193=EDGE_CURVE('',#784,#1194,#1196,.T.);
#1194=VERTEX_POINT('',#1195);
#1195=CARTESIAN_POINT('',(-0.16,-4.92,-3.));
#1196=LINE('',#1195,#1197);
#1197=VECTOR('',#1198,1.);
#1198=DIRECTION('',(0.57735026919,-0.57735026919,-0.57735026919));
#1199=ORIENTED_EDGE('',*,*,#783,.T.);
#1200=ORIENTED_EDGE('',*,*,#1201,.T.);
#1201=EDGE_CURVE('',#778,#1202,#1204,.T.);
#1202=VERTEX_POINT('',#1203);
#1203=CARTESIAN_POINT('',(0.16,-4.92,-3.));
#1204=LINE('',#1205,#1206);
#1205=CARTESIAN_POINT('',(5.333333333333E-02,-5.026666666667,-3.106666666667));
#1206=VECTOR('',#1207,1.);
#1207=DIRECTION('',(-0.57735026919,-0.57735026919,-0.57735026919));
#1208=ORIENTED_EDGE('',*,*,#1209,.F.);
#1209=EDGE_CURVE('',#1194,#1202,#1210,.T.);
#1210=LINE('',#1211,#149);
#1211=CARTESIAN_POINT('',(-0.32,-4.92,-3.));
#1212=PLANE('',#1213);
#1213=AXIS2_PLACEMENT_3D('',#1214,#1215,#60);
#1214=CARTESIAN_POINT('',(-0.32,-4.84,-2.92));
#1215=DIRECTION('',(-1.735167508358E-18,-0.707106781187,0.707106781187));
#1216=ADVANCED_FACE('',(#1217),#1232,.T.);
#1217=FACE_BOUND('',#1218,.T.);
#1218=EDGE_LOOP('',(#1219,#802,#1227,#1228));
#1219=ORIENTED_EDGE('',*,*,#1220,.F.);
#1220=EDGE_CURVE('',#798,#1221,#1223,.T.);
#1221=VERTEX_POINT('',#1222);
#1222=CARTESIAN_POINT('',(-0.16,-5.24,-3.));
#1223=LINE('',#1224,#1225);
#1224=CARTESIAN_POINT('',(-0.266666666667,-5.346666666667,-2.893333333333));
#1225=VECTOR('',#1226,1.);
#1226=DIRECTION('',(0.57735026919,0.57735026919,-0.57735026919));
#1227=ORIENTED_EDGE('',*,*,#1193,.T.);
#1228=ORIENTED_EDGE('',*,*,#1229,.F.);
#1229=EDGE_CURVE('',#1221,#1194,#1230,.T.);
#1230=LINE('',#1231,#162);
#1231=CARTESIAN_POINT('',(-0.16,-5.4,-3.));
#1232=PLANE('',#1233);
#1233=AXIS2_PLACEMENT_3D('',#1234,#1235,#163);
#1234=CARTESIAN_POINT('',(-0.24,-5.4,-2.92));
#1235=DIRECTION('',(-0.707106781187,-1.735167508358E-18,-0.707106781187));
#1236=ADVANCED_FACE('',(#1237),#1251,.T.);
#1237=FACE_BOUND('',#1238,.F.);
#1238=EDGE_LOOP('',(#1219,#1239,#1240,#1247));
#1239=ORIENTED_EDGE('',*,*,#818,.T.);
#1240=ORIENTED_EDGE('',*,*,#1241,.T.);
#1241=EDGE_CURVE('',#813,#1242,#1244,.T.);
#1242=VERTEX_POINT('',#1243);
#1243=CARTESIAN_POINT('',(0.16,-5.24,-3.));
#1244=LINE('',#1243,#1245);
#1245=VECTOR('',#1246,1.);
#1246=DIRECTION('',(-0.57735026919,0.57735026919,-0.57735026919));
#1247=ORIENTED_EDGE('',*,*,#1248,.F.);
#1248=EDGE_CURVE('',#1221,#1242,#1249,.T.);
#1249=LINE('',#1250,#149);
#1250=CARTESIAN_POINT('',(-0.32,-5.24,-3.));
#1251=PLANE('',#1252);
#1252=AXIS2_PLACEMENT_3D('',#1253,#1254,#60);
#1253=CARTESIAN_POINT('',(-0.32,-5.32,-2.92));
#1254=DIRECTION('',(1.735167508358E-18,-0.707106781187,-0.707106781187));
#1255=ADVANCED_FACE('',(#1256),#1263,.F.);
#1256=FACE_BOUND('',#1257,.F.);
#1257=EDGE_LOOP('',(#1258,#827,#1200,#1259));
#1258=ORIENTED_EDGE('',*,*,#1241,.F.);
#1259=ORIENTED_EDGE('',*,*,#1260,.F.);
#1260=EDGE_CURVE('',#1242,#1202,#1261,.T.);
#1261=LINE('',#1262,#162);
#1262=CARTESIAN_POINT('',(0.16,-5.4,-3.));
#1263=PLANE('',#1264);
#1264=AXIS2_PLACEMENT_3D('',#1265,#1266,#163);
#1265=CARTESIAN_POINT('',(0.24,-5.4,-2.92));
#1266=DIRECTION('',(-0.707106781187,1.735167508358E-18,0.707106781187));
#1267=ADVANCED_FACE('',(#1268),#1285,.F.);
#1268=FACE_BOUND('',#1269,.F.);
#1269=EDGE_LOOP('',(#1270,#842,#1275,#1281));
#1270=ORIENTED_EDGE('',*,*,#1271,.F.);
#1271=EDGE_CURVE('',#838,#1272,#1274,.T.);
#1272=VERTEX_POINT('',#1273);
#1273=CARTESIAN_POINT('',(0.16,-7.78,-3.));
#1274=LINE('',#1273,#1245);
#1275=ORIENTED_EDGE('',*,*,#1276,.T.);
#1276=EDGE_CURVE('',#844,#1277,#1279,.T.);
#1277=VERTEX_POINT('',#1278);
#1278=CARTESIAN_POINT('',(0.16,-7.46,-3.));
#1279=LINE('',#1280,#1206);
#1280=CARTESIAN_POINT('',(5.333333333333E-02,-7.566666666667,-3.106666666667));
#1281=ORIENTED_EDGE('',*,*,#1282,.F.);
#1282=EDGE_CURVE('',#1272,#1277,#1283,.T.);
#1283=LINE('',#1284,#162);
#1284=CARTESIAN_POINT('',(0.16,-7.94,-3.));
#1285=PLANE('',#1286);
#1286=AXIS2_PLACEMENT_3D('',#1287,#1266,#163);
#1287=CARTESIAN_POINT('',(0.24,-7.94,-2.92));
#1288=ADVANCED_FACE('',(#1289),#1301,.F.);
#1289=FACE_BOUND('',#1290,.T.);
#1290=EDGE_LOOP('',(#1291,#1296,#1275,#1297));
#1291=ORIENTED_EDGE('',*,*,#1292,.F.);
#1292=EDGE_CURVE('',#859,#1293,#1295,.T.);
#1293=VERTEX_POINT('',#1294);
#1294=CARTESIAN_POINT('',(-0.16,-7.46,-3.));
#1295=LINE('',#1294,#1197);
#1296=ORIENTED_EDGE('',*,*,#858,.T.);
#1297=ORIENTED_EDGE('',*,*,#1298,.F.);
#1298=EDGE_CURVE('',#1293,#1277,#1299,.T.);
#1299=LINE('',#1300,#149);
#1300=CARTESIAN_POINT('',(-0.32,-7.46,-3.));
#1301=PLANE('',#1302);
#1302=AXIS2_PLACEMENT_3D('',#1303,#1215,#60);
#1303=CARTESIAN_POINT('',(-0.32,-7.38,-2.92));
#1304=ADVANCED_FACE('',(#1305),#1318,.T.);
#1305=FACE_BOUND('',#1306,.T.);
#1306=EDGE_LOOP('',(#1307,#877,#1313,#1314));
#1307=ORIENTED_EDGE('',*,*,#1308,.F.);
#1308=EDGE_CURVE('',#873,#1309,#1311,.T.);
#1309=VERTEX_POINT('',#1310);
#1310=CARTESIAN_POINT('',(-0.16,-7.78,-3.));
#1311=LINE('',#1312,#1225);
#1312=CARTESIAN_POINT('',(-0.266666666667,-7.886666666667,-2.893333333333));
#1313=ORIENTED_EDGE('',*,*,#1292,.T.);
#1314=ORIENTED_EDGE('',*,*,#1315,.F.);
#1315=EDGE_CURVE('',#1309,#1293,#1316,.T.);
#1316=LINE('',#1317,#162);
#1317=CARTESIAN_POINT('',(-0.16,-7.94,-3.));
#1318=PLANE('',#1319);
#1319=AXIS2_PLACEMENT_3D('',#1320,#1235,#163);
#1320=CARTESIAN_POINT('',(-0.24,-7.94,-2.92));
#1321=ADVANCED_FACE('',(#1322),#1330,.T.);
#1322=FACE_BOUND('',#1323,.F.);
#1323=EDGE_LOOP('',(#1307,#1324,#1325,#1326));
#1324=ORIENTED_EDGE('',*,*,#887,.T.);
#1325=ORIENTED_EDGE('',*,*,#1271,.T.);
#1326=ORIENTED_EDGE('',*,*,#1327,.F.);
#1327=EDGE_CURVE('',#1309,#1272,#1328,.T.);
#1328=LINE('',#1329,#149);
#1329=CARTESIAN_POINT('',(-0.32,-7.78,-3.));
#1330=PLANE('',#1331);
#1331=AXIS2_PLACEMENT_3D('',#1332,#1254,#60);
#1332=CARTESIAN_POINT('',(-0.32,-7.86,-2.92));
#1333=ADVANCED_FACE('',(#1334),#1351,.F.);
#1334=FACE_BOUND('',#1335,.F.);
#1335=EDGE_LOOP('',(#1336,#902,#1341,#1347));
#1336=ORIENTED_EDGE('',*,*,#1337,.F.);
#1337=EDGE_CURVE('',#898,#1338,#1340,.T.);
#1338=VERTEX_POINT('',#1339);
#1339=CARTESIAN_POINT('',(0.16,-0.16,-3.));
#1340=LINE('',#1339,#1245);
#1341=ORIENTED_EDGE('',*,*,#1342,.T.);
#1342=EDGE_CURVE('',#904,#1343,#1345,.T.);
#1343=VERTEX_POINT('',#1344);
#1344=CARTESIAN_POINT('',(0.16,0.16,-3.));
#1345=LINE('',#1346,#1206);
#1346=CARTESIAN_POINT('',(5.333333333333E-02,5.333333333333E-02,-3.106666666667));
#1347=ORIENTED_EDGE('',*,*,#1348,.F.);
#1348=EDGE_CURVE('',#1338,#1343,#1349,.T.);
#1349=LINE('',#1350,#162);
#1350=CARTESIAN_POINT('',(0.16,-0.32,-3.));
#1351=PLANE('',#1352);
#1352=AXIS2_PLACEMENT_3D('',#1353,#1266,#163);
#1353=CARTESIAN_POINT('',(0.24,-0.32,-2.92));
#1354=ADVANCED_FACE('',(#1355),#1367,.F.);
#1355=FACE_BOUND('',#1356,.T.);
#1356=EDGE_LOOP('',(#1357,#1362,#1341,#1363));
#1357=ORIENTED_EDGE('',*,*,#1358,.F.);
#1358=EDGE_CURVE('',#919,#1359,#1361,.T.);
#1359=VERTEX_POINT('',#1360);
#1360=CARTESIAN_POINT('',(-0.16,0.16,-3.));
#1361=LINE('',#1360,#1197);
#1362=ORIENTED_EDGE('',*,*,#918,.T.);
#1363=ORIENTED_EDGE('',*,*,#1364,.F.);
#1364=EDGE_CURVE('',#1359,#1343,#1365,.T.);
#1365=LINE('',#1366,#149);
#1366=CARTESIAN_POINT('',(-0.32,0.16,-3.));
#1367=PLANE('',#1368);
#1368=AXIS2_PLACEMENT_3D('',#1369,#1215,#60);
#1369=CARTESIAN_POINT('',(-0.32,0.24,-2.92));
#1370=ADVANCED_FACE('',(#1371),#1384,.T.);
#1371=FACE_BOUND('',#1372,.T.);
#1372=EDGE_LOOP('',(#1373,#937,#1379,#1380));
#1373=ORIENTED_EDGE('',*,*,#1374,.F.);
#1374=EDGE_CURVE('',#933,#1375,#1377,.T.);
#1375=VERTEX_POINT('',#1376);
#1376=CARTESIAN_POINT('',(-0.16,-0.16,-3.));
#1377=LINE('',#1378,#1225);
#1378=CARTESIAN_POINT('',(-0.266666666667,-0.266666666667,-2.893333333333));
#1379=ORIENTED_EDGE('',*,*,#1358,.T.);
#1380=ORIENTED_EDGE('',*,*,#1381,.F.);
#1381=EDGE_CURVE('',#1375,#1359,#1382,.T.);
#1382=LINE('',#1383,#162);
#1383=CARTESIAN_POINT('',(-0.16,-0.32,-3.));
#1384=PLANE('',#1385);
#1385=AXIS2_PLACEMENT_3D('',#1386,#1235,#163);
#1386=CARTESIAN_POINT('',(-0.24,-0.32,-2.92));
#1387=ADVANCED_FACE('',(#1388),#1396,.T.);
#1388=FACE_BOUND('',#1389,.F.);
#1389=EDGE_LOOP('',(#1373,#1390,#1391,#1392));
#1390=ORIENTED_EDGE('',*,*,#947,.T.);
#1391=ORIENTED_EDGE('',*,*,#1337,.T.);
#1392=ORIENTED_EDGE('',*,*,#1393,.F.);
#1393=EDGE_CURVE('',#1375,#1338,#1394,.T.);
#1394=LINE('',#1395,#149);
#1395=CARTESIAN_POINT('',(-0.32,-0.16,-3.));
#1396=PLANE('',#1397);
#1397=AXIS2_PLACEMENT_3D('',#1398,#1254,#60);
#1398=CARTESIAN_POINT('',(-0.32,-0.24,-2.92));
#1399=ADVANCED_FACE('',(#1400),#1418,.F.);
#1400=FACE_BOUND('',#1401,.T.);
#1401=EDGE_LOOP('',(#1402,#1407,#1408,#1414));
#1402=ORIENTED_EDGE('',*,*,#1403,.F.);
#1403=EDGE_CURVE('',#964,#1404,#1406,.T.);
#1404=VERTEX_POINT('',#1405);
#1405=CARTESIAN_POINT('',(-0.16,-2.38,-3.));
#1406=LINE('',#1405,#1197);
#1407=ORIENTED_EDGE('',*,*,#963,.T.);
#1408=ORIENTED_EDGE('',*,*,#1409,.T.);
#1409=EDGE_CURVE('',#958,#1410,#1412,.T.);
#1410=VERTEX_POINT('',#1411);
#1411=CARTESIAN_POINT('',(0.16,-2.38,-3.));
#1412=LINE('',#1413,#1206);
#1413=CARTESIAN_POINT('',(5.333333333333E-02,-2.486666666667,-3.106666666667));
#1414=ORIENTED_EDGE('',*,*,#1415,.F.);
#1415=EDGE_CURVE('',#1404,#1410,#1416,.T.);
#1416=LINE('',#1417,#149);
#1417=CARTESIAN_POINT('',(-0.32,-2.38,-3.));
#1418=PLANE('',#1419);
#1419=AXIS2_PLACEMENT_3D('',#1420,#1215,#60);
#1420=CARTESIAN_POINT('',(-0.32,-2.3,-2.92));
#1421=ADVANCED_FACE('',(#1422),#1435,.T.);
#1422=FACE_BOUND('',#1423,.T.);
#1423=EDGE_LOOP('',(#1424,#982,#1430,#1431));
#1424=ORIENTED_EDGE('',*,*,#1425,.F.);
#1425=EDGE_CURVE('',#978,#1426,#1428,.T.);
#1426=VERTEX_POINT('',#1427);
#1427=CARTESIAN_POINT('',(-0.16,-2.7,-3.));
#1428=LINE('',#1429,#1225);
#1429=CARTESIAN_POINT('',(-0.266666666667,-2.806666666667,-2.893333333333));
#1430=ORIENTED_EDGE('',*,*,#1403,.T.);
#1431=ORIENTED_EDGE('',*,*,#1432,.F.);
#1432=EDGE_CURVE('',#1426,#1404,#1433,.T.);
#1433=LINE('',#1434,#162);
#1434=CARTESIAN_POINT('',(-0.16,-2.86,-3.));
#1435=PLANE('',#1436);
#1436=AXIS2_PLACEMENT_3D('',#1437,#1235,#163);
#1437=CARTESIAN_POINT('',(-0.24,-2.86,-2.92));
#1438=ADVANCED_FACE('',(#1439),#1451,.T.);
#1439=FACE_BOUND('',#1440,.F.);
#1440=EDGE_LOOP('',(#1424,#1441,#1442,#1447));
#1441=ORIENTED_EDGE('',*,*,#998,.T.);
#1442=ORIENTED_EDGE('',*,*,#1443,.T.);
#1443=EDGE_CURVE('',#993,#1444,#1446,.T.);
#1444=VERTEX_POINT('',#1445);
#1445=CARTESIAN_POINT('',(0.16,-2.7,-3.));
#1446=LINE('',#1445,#1245);
#1447=ORIENTED_EDGE('',*,*,#1448,.F.);
#1448=EDGE_CURVE('',#1426,#1444,#1449,.T.);
#1449=LINE('',#1450,#149);
#1450=CARTESIAN_POINT('',(-0.32,-2.7,-3.));
#1451=PLANE('',#1452);
#1452=AXIS2_PLACEMENT_3D('',#1453,#1254,#60);
#1453=CARTESIAN_POINT('',(-0.32,-2.78,-2.92));
#1454=ADVANCED_FACE('',(#1455),#1462,.F.);
#1455=FACE_BOUND('',#1456,.F.);
#1456=EDGE_LOOP('',(#1457,#1007,#1408,#1458));
#1457=ORIENTED_EDGE('',*,*,#1443,.F.);
#1458=ORIENTED_EDGE('',*,*,#1459,.F.);
#1459=EDGE_CURVE('',#1444,#1410,#1460,.T.);
#1460=LINE('',#1461,#162);
#1461=CARTESIAN_POINT('',(0.16,-2.86,-3.));
#1462=PLANE('',#1463);
#1463=AXIS2_PLACEMENT_3D('',#1464,#1266,#163);
#1464=CARTESIAN_POINT('',(0.24,-2.86,-2.92));
#1465=ADVANCED_FACE('',(#1466),#1487,.T.);
#1466=FACE_BOUND('',#1467,.F.);
#1467=EDGE_LOOP('',(#1468,#1025,#1475,#1483));
#1468=ORIENTED_EDGE('',*,*,#1469,.F.);
#1469=EDGE_CURVE('',#1023,#1470,#1472,.T.);
#1470=VERTEX_POINT('',#1471);
#1471=CARTESIAN_POINT('',(-0.16,-4.92,8.54));
#1472=LINE('',#1471,#1473);
#1473=VECTOR('',#1474,1.);
#1474=DIRECTION('',(0.57735026919,-0.57735026919,0.57735026919));
#1475=ORIENTED_EDGE('',*,*,#1476,.T.);
#1476=EDGE_CURVE('',#1018,#1477,#1479,.T.);
#1477=VERTEX_POINT('',#1478);
#1478=CARTESIAN_POINT('',(0.16,-4.92,8.54));
#1479=LINE('',#1480,#1481);
#1480=CARTESIAN_POINT('',(5.333333333333E-02,-5.026666666667,8.646666666667));
#1481=VECTOR('',#1482,1.);
#1482=DIRECTION('',(-0.57735026919,-0.57735026919,0.57735026919));
#1483=ORIENTED_EDGE('',*,*,#1484,.F.);
#1484=EDGE_CURVE('',#1470,#1477,#1485,.T.);
#1485=LINE('',#1486,#149);
#1486=CARTESIAN_POINT('',(-0.32,-4.92,8.54));
#1487=PLANE('',#1488);
#1488=AXIS2_PLACEMENT_3D('',#1489,#1490,#60);
#1489=CARTESIAN_POINT('',(-0.32,-4.84,8.46));
#1490=DIRECTION('',(1.735167508358E-18,0.707106781187,0.707106781187));
#1491=ADVANCED_FACE('',(#1492),#1508,.F.);
#1492=FACE_BOUND('',#1493,.F.);
#1493=EDGE_LOOP('',(#1494,#1502,#1503,#1504));
#1494=ORIENTED_EDGE('',*,*,#1495,.F.);
#1495=EDGE_CURVE('',#1033,#1496,#1498,.T.);
#1496=VERTEX_POINT('',#1497);
#1497=CARTESIAN_POINT('',(-0.16,-5.24,8.54));
#1498=LINE('',#1499,#1500);
#1499=CARTESIAN_POINT('',(-0.266666666667,-5.346666666667,8.433333333333));
#1500=VECTOR('',#1501,1.);
#1501=DIRECTION('',(0.57735026919,0.57735026919,0.57735026919));
#1502=ORIENTED_EDGE('',*,*,#1036,.T.);
#1503=ORIENTED_EDGE('',*,*,#1469,.T.);
#1504=ORIENTED_EDGE('',*,*,#1505,.F.);
#1505=EDGE_CURVE('',#1496,#1470,#1506,.T.);
#1506=LINE('',#1507,#162);
#1507=CARTESIAN_POINT('',(-0.16,-5.4,8.54));
#1508=PLANE('',#1509);
#1509=AXIS2_PLACEMENT_3D('',#1510,#1511,#163);
#1510=CARTESIAN_POINT('',(-0.24,-5.4,8.46));
#1511=DIRECTION('',(0.707106781187,1.735167508358E-18,-0.707106781187));
#1512=ADVANCED_FACE('',(#1513),#1526,.F.);
#1513=FACE_BOUND('',#1514,.T.);
#1514=EDGE_LOOP('',(#1494,#1046,#1515,#1522));
#1515=ORIENTED_EDGE('',*,*,#1516,.T.);
#1516=EDGE_CURVE('',#1043,#1517,#1519,.T.);
#1517=VERTEX_POINT('',#1518);
#1518=CARTESIAN_POINT('',(0.16,-5.24,8.54));
#1519=LINE('',#1518,#1520);
#1520=VECTOR('',#1521,1.);
#1521=DIRECTION('',(-0.57735026919,0.57735026919,0.57735026919));
#1522=ORIENTED_EDGE('',*,*,#1523,.F.);
#1523=EDGE_CURVE('',#1496,#1517,#1524,.T.);
#1524=LINE('',#1525,#149);
#1525=CARTESIAN_POINT('',(-0.32,-5.24,8.54));
#1526=PLANE('',#1527);
#1527=AXIS2_PLACEMENT_3D('',#1528,#1529,#60);
#1528=CARTESIAN_POINT('',(-0.32,-5.32,8.46));
#1529=DIRECTION('',(-1.735167508358E-18,0.707106781187,-0.707106781187));
#1530=ADVANCED_FACE('',(#1531),#1539,.T.);
#1531=FACE_BOUND('',#1532,.T.);
#1532=EDGE_LOOP('',(#1533,#1534,#1475,#1535));
#1533=ORIENTED_EDGE('',*,*,#1516,.F.);
#1534=ORIENTED_EDGE('',*,*,#1055,.T.);
#1535=ORIENTED_EDGE('',*,*,#1536,.F.);
#1536=EDGE_CURVE('',#1517,#1477,#1537,.T.);
#1537=LINE('',#1538,#162);
#1538=CARTESIAN_POINT('',(0.16,-5.4,8.54));
#1539=PLANE('',#1540);
#1540=AXIS2_PLACEMENT_3D('',#1541,#1542,#163);
#1541=CARTESIAN_POINT('',(0.24,-5.4,8.46));
#1542=DIRECTION('',(0.707106781187,-1.735167508358E-18,0.707106781187));
#1543=ADVANCED_FACE('',(#1544),#1562,.T.);
#1544=FACE_BOUND('',#1545,.T.);
#1545=EDGE_LOOP('',(#1546,#1551,#1552,#1558));
#1546=ORIENTED_EDGE('',*,*,#1547,.F.);
#1547=EDGE_CURVE('',#1062,#1548,#1550,.T.);
#1548=VERTEX_POINT('',#1549);
#1549=CARTESIAN_POINT('',(0.16,-7.78,8.54));
#1550=LINE('',#1549,#1520);
#1551=ORIENTED_EDGE('',*,*,#1070,.T.);
#1552=ORIENTED_EDGE('',*,*,#1553,.T.);
#1553=EDGE_CURVE('',#1067,#1554,#1556,.T.);
#1554=VERTEX_POINT('',#1555);
#1555=CARTESIAN_POINT('',(0.16,-7.46,8.54));
#1556=LINE('',#1557,#1481);
#1557=CARTESIAN_POINT('',(5.333333333333E-02,-7.566666666667,8.646666666667));
#1558=ORIENTED_EDGE('',*,*,#1559,.F.);
#1559=EDGE_CURVE('',#1548,#1554,#1560,.T.);
#1560=LINE('',#1561,#162);
#1561=CARTESIAN_POINT('',(0.16,-7.94,8.54));
#1562=PLANE('',#1563);
#1563=AXIS2_PLACEMENT_3D('',#1564,#1542,#163);
#1564=CARTESIAN_POINT('',(0.24,-7.94,8.46));
#1565=ADVANCED_FACE('',(#1566),#1577,.T.);
#1566=FACE_BOUND('',#1567,.F.);
#1567=EDGE_LOOP('',(#1568,#1081,#1552,#1573));
#1568=ORIENTED_EDGE('',*,*,#1569,.F.);
#1569=EDGE_CURVE('',#1079,#1570,#1572,.T.);
#1570=VERTEX_POINT('',#1571);
#1571=CARTESIAN_POINT('',(-0.16,-7.46,8.54));
#1572=LINE('',#1571,#1473);
#1573=ORIENTED_EDGE('',*,*,#1574,.F.);
#1574=EDGE_CURVE('',#1570,#1554,#1575,.T.);
#1575=LINE('',#1576,#149);
#1576=CARTESIAN_POINT('',(-0.32,-7.46,8.54));
#1577=PLANE('',#1578);
#1578=AXIS2_PLACEMENT_3D('',#1579,#1490,#60);
#1579=CARTESIAN_POINT('',(-0.32,-7.38,8.46));
#1580=ADVANCED_FACE('',(#1581),#1595,.F.);
#1581=FACE_BOUND('',#1582,.F.);
#1582=EDGE_LOOP('',(#1583,#1589,#1590,#1591));
#1583=ORIENTED_EDGE('',*,*,#1584,.F.);
#1584=EDGE_CURVE('',#1089,#1585,#1587,.T.);
#1585=VERTEX_POINT('',#1586);
#1586=CARTESIAN_POINT('',(-0.16,-7.78,8.54));
#1587=LINE('',#1588,#1500);
#1588=CARTESIAN_POINT('',(-0.266666666667,-7.886666666667,8.433333333333));
#1589=ORIENTED_EDGE('',*,*,#1092,.T.);
#1590=ORIENTED_EDGE('',*,*,#1569,.T.);
#1591=ORIENTED_EDGE('',*,*,#1592,.F.);
#1592=EDGE_CURVE('',#1585,#1570,#1593,.T.);
#1593=LINE('',#1594,#162);
#1594=CARTESIAN_POINT('',(-0.16,-7.94,8.54));
#1595=PLANE('',#1596);
#1596=AXIS2_PLACEMENT_3D('',#1597,#1511,#163);
#1597=CARTESIAN_POINT('',(-0.24,-7.94,8.46));
#1598=ADVANCED_FACE('',(#1599),#1606,.F.);
#1599=FACE_BOUND('',#1600,.T.);
#1600=EDGE_LOOP('',(#1583,#1098,#1601,#1602));
#1601=ORIENTED_EDGE('',*,*,#1547,.T.);
#1602=ORIENTED_EDGE('',*,*,#1603,.F.);
#1603=EDGE_CURVE('',#1585,#1548,#1604,.T.);
#1604=LINE('',#1605,#149);
#1605=CARTESIAN_POINT('',(-0.32,-7.78,8.54));
#1606=PLANE('',#1607);
#1607=AXIS2_PLACEMENT_3D('',#1608,#1529,#60);
#1608=CARTESIAN_POINT('',(-0.32,-7.86,8.46));
#1609=ADVANCED_FACE('',(#1610),#1628,.T.);
#1610=FACE_BOUND('',#1611,.T.);
#1611=EDGE_LOOP('',(#1612,#1617,#1618,#1624));
#1612=ORIENTED_EDGE('',*,*,#1613,.F.);
#1613=EDGE_CURVE('',#1106,#1614,#1616,.T.);
#1614=VERTEX_POINT('',#1615);
#1615=CARTESIAN_POINT('',(0.16,-0.16,8.54));
#1616=LINE('',#1615,#1520);
#1617=ORIENTED_EDGE('',*,*,#1114,.T.);
#1618=ORIENTED_EDGE('',*,*,#1619,.T.);
#1619=EDGE_CURVE('',#1111,#1620,#1622,.T.);
#1620=VERTEX_POINT('',#1621);
#1621=CARTESIAN_POINT('',(0.16,0.16,8.54));
#1622=LINE('',#1623,#1481);
#1623=CARTESIAN_POINT('',(5.333333333333E-02,5.333333333333E-02,8.646666666667));
#1624=ORIENTED_EDGE('',*,*,#1625,.F.);
#1625=EDGE_CURVE('',#1614,#1620,#1626,.T.);
#1626=LINE('',#1627,#162);
#1627=CARTESIAN_POINT('',(0.16,-0.32,8.54));
#1628=PLANE('',#1629);
#1629=AXIS2_PLACEMENT_3D('',#1630,#1542,#163);
#1630=CARTESIAN_POINT('',(0.24,-0.32,8.46));
#1631=ADVANCED_FACE('',(#1632),#1643,.T.);
#1632=FACE_BOUND('',#1633,.F.);
#1633=EDGE_LOOP('',(#1634,#1125,#1618,#1639));
#1634=ORIENTED_EDGE('',*,*,#1635,.F.);
#1635=EDGE_CURVE('',#1123,#1636,#1638,.T.);
#1636=VERTEX_POINT('',#1637);
#1637=CARTESIAN_POINT('',(-0.16,0.16,8.54));
#1638=LINE('',#1637,#1473);
#1639=ORIENTED_EDGE('',*,*,#1640,.F.);
#1640=EDGE_CURVE('',#1636,#1620,#1641,.T.);
#1641=LINE('',#1642,#149);
#1642=CARTESIAN_POINT('',(-0.32,0.16,8.54));
#1643=PLANE('',#1644);
#1644=AXIS2_PLACEMENT_3D('',#1645,#1490,#60);
#1645=CARTESIAN_POINT('',(-0.32,0.24,8.46));
#1646=ADVANCED_FACE('',(#1647),#1661,.F.);
#1647=FACE_BOUND('',#1648,.F.);
#1648=EDGE_LOOP('',(#1649,#1655,#1656,#1657));
#1649=ORIENTED_EDGE('',*,*,#1650,.F.);
#1650=EDGE_CURVE('',#1133,#1651,#1653,.T.);
#1651=VERTEX_POINT('',#1652);
#1652=CARTESIAN_POINT('',(-0.16,-0.16,8.54));
#1653=LINE('',#1654,#1500);
#1654=CARTESIAN_POINT('',(-0.266666666667,-0.266666666667,8.433333333333));
#1655=ORIENTED_EDGE('',*,*,#1136,.T.);
#1656=ORIENTED_EDGE('',*,*,#1635,.T.);
#1657=ORIENTED_EDGE('',*,*,#1658,.F.);
#1658=EDGE_CURVE('',#1651,#1636,#1659,.T.);
#1659=LINE('',#1660,#162);
#1660=CARTESIAN_POINT('',(-0.16,-0.32,8.54));
#1661=PLANE('',#1662);
#1662=AXIS2_PLACEMENT_3D('',#1663,#1511,#163);
#1663=CARTESIAN_POINT('',(-0.24,-0.32,8.46));
#1664=ADVANCED_FACE('',(#1665),#1672,.F.);
#1665=FACE_BOUND('',#1666,.T.);
#1666=EDGE_LOOP('',(#1649,#1142,#1667,#1668));
#1667=ORIENTED_EDGE('',*,*,#1613,.T.);
#1668=ORIENTED_EDGE('',*,*,#1669,.F.);
#1669=EDGE_CURVE('',#1651,#1614,#1670,.T.);
#1670=LINE('',#1671,#149);
#1671=CARTESIAN_POINT('',(-0.32,-0.16,8.54));
#1672=PLANE('',#1673);
#1673=AXIS2_PLACEMENT_3D('',#1674,#1529,#60);
#1674=CARTESIAN_POINT('',(-0.32,-0.24,8.46));
#1675=ADVANCED_FACE('',(#1676),#1693,.T.);
#1676=FACE_BOUND('',#1677,.F.);
#1677=EDGE_LOOP('',(#1678,#1157,#1683,#1689));
#1678=ORIENTED_EDGE('',*,*,#1679,.F.);
#1679=EDGE_CURVE('',#1155,#1680,#1682,.T.);
#1680=VERTEX_POINT('',#1681);
#1681=CARTESIAN_POINT('',(-0.16,-2.38,8.54));
#1682=LINE('',#1681,#1473);
#1683=ORIENTED_EDGE('',*,*,#1684,.T.);
#1684=EDGE_CURVE('',#1150,#1685,#1687,.T.);
#1685=VERTEX_POINT('',#1686);
#1686=CARTESIAN_POINT('',(0.16,-2.38,8.54));
#1687=LINE('',#1688,#1481);
#1688=CARTESIAN_POINT('',(5.333333333333E-02,-2.486666666667,8.646666666667));
#1689=ORIENTED_EDGE('',*,*,#1690,.F.);
#1690=EDGE_CURVE('',#1680,#1685,#1691,.T.);
#1691=LINE('',#1692,#149);
#1692=CARTESIAN_POINT('',(-0.32,-2.38,8.54));
#1693=PLANE('',#1694);
#1694=AXIS2_PLACEMENT_3D('',#1695,#1490,#60);
#1695=CARTESIAN_POINT('',(-0.32,-2.3,8.46));
#1696=ADVANCED_FACE('',(#1697),#1711,.F.);
#1697=FACE_BOUND('',#1698,.F.);
#1698=EDGE_LOOP('',(#1699,#1705,#1706,#1707));
#1699=ORIENTED_EDGE('',*,*,#1700,.F.);
#1700=EDGE_CURVE('',#1165,#1701,#1703,.T.);
#1701=VERTEX_POINT('',#1702);
#1702=CARTESIAN_POINT('',(-0.16,-2.7,8.54));
#1703=LINE('',#1704,#1500);
#1704=CARTESIAN_POINT('',(-0.266666666667,-2.806666666667,8.433333333333));
#1705=ORIENTED_EDGE('',*,*,#1168,.T.);
#1706=ORIENTED_EDGE('',*,*,#1679,.T.);
#1707=ORIENTED_EDGE('',*,*,#1708,.F.);
#1708=EDGE_CURVE('',#1701,#1680,#1709,.T.);
#1709=LINE('',#1710,#162);
#1710=CARTESIAN_POINT('',(-0.16,-2.86,8.54));
#1711=PLANE('',#1712);
#1712=AXIS2_PLACEMENT_3D('',#1713,#1511,#163);
#1713=CARTESIAN_POINT('',(-0.24,-2.86,8.46));
#1714=ADVANCED_FACE('',(#1715),#1726,.F.);
#1715=FACE_BOUND('',#1716,.T.);
#1716=EDGE_LOOP('',(#1699,#1178,#1717,#1722));
#1717=ORIENTED_EDGE('',*,*,#1718,.T.);
#1718=EDGE_CURVE('',#1175,#1719,#1721,.T.);
#1719=VERTEX_POINT('',#1720);
#1720=CARTESIAN_POINT('',(0.16,-2.7,8.54));
#1721=LINE('',#1720,#1520);
#1722=ORIENTED_EDGE('',*,*,#1723,.F.);
#1723=EDGE_CURVE('',#1701,#1719,#1724,.T.);
#1724=LINE('',#1725,#149);
#1725=CARTESIAN_POINT('',(-0.32,-2.7,8.54));
#1726=PLANE('',#1727);
#1727=AXIS2_PLACEMENT_3D('',#1728,#1529,#60);
#1728=CARTESIAN_POINT('',(-0.32,-2.78,8.46));
#1729=ADVANCED_FACE('',(#1730),#1738,.T.);
#1730=FACE_BOUND('',#1731,.T.);
#1731=EDGE_LOOP('',(#1732,#1733,#1683,#1734));
#1732=ORIENTED_EDGE('',*,*,#1718,.F.);
#1733=ORIENTED_EDGE('',*,*,#1187,.T.);
#1734=ORIENTED_EDGE('',*,*,#1735,.F.);
#1735=EDGE_CURVE('',#1719,#1685,#1736,.T.);
#1736=LINE('',#1737,#162);
#1737=CARTESIAN_POINT('',(0.16,-2.86,8.54));
#1738=PLANE('',#1739);
#1739=AXIS2_PLACEMENT_3D('',#1740,#1542,#163);
#1740=CARTESIAN_POINT('',(0.24,-2.86,8.46));
#1741=ADVANCED_FACE('',(#1742),#1746,.F.);
#1742=FACE_BOUND('',#1743,.F.);
#1743=EDGE_LOOP('',(#1744,#1208,#1228,#1745));
#1744=ORIENTED_EDGE('',*,*,#1260,.T.);
#1745=ORIENTED_EDGE('',*,*,#1248,.T.);
#1746=PLANE('',#1747);
#1747=AXIS2_PLACEMENT_3D('',#801,#13,#14);
#1748=ADVANCED_FACE('',(#1749),#1753,.F.);
#1749=FACE_BOUND('',#1750,.F.);
#1750=EDGE_LOOP('',(#1751,#1297,#1314,#1752));
#1751=ORIENTED_EDGE('',*,*,#1282,.T.);
#1752=ORIENTED_EDGE('',*,*,#1327,.T.);
#1753=PLANE('',#1754);
#1754=AXIS2_PLACEMENT_3D('',#876,#13,#14);
#1755=ADVANCED_FACE('',(#1756),#1760,.F.);
#1756=FACE_BOUND('',#1757,.F.);
#1757=EDGE_LOOP('',(#1758,#1363,#1380,#1759));
#1758=ORIENTED_EDGE('',*,*,#1348,.T.);
#1759=ORIENTED_EDGE('',*,*,#1393,.T.);
#1760=PLANE('',#1761);
#1761=AXIS2_PLACEMENT_3D('',#936,#13,#14);
#1762=ADVANCED_FACE('',(#1763),#1767,.F.);
#1763=FACE_BOUND('',#1764,.F.);
#1764=EDGE_LOOP('',(#1765,#1414,#1431,#1766));
#1765=ORIENTED_EDGE('',*,*,#1459,.T.);
#1766=ORIENTED_EDGE('',*,*,#1448,.T.);
#1767=PLANE('',#1768);
#1768=AXIS2_PLACEMENT_3D('',#981,#13,#14);
#1769=ADVANCED_FACE('',(#1770),#1774,.T.);
#1770=FACE_BOUND('',#1771,.T.);
#1771=EDGE_LOOP('',(#1772,#1483,#1504,#1773));
#1772=ORIENTED_EDGE('',*,*,#1536,.T.);
#1773=ORIENTED_EDGE('',*,*,#1523,.T.);
#1774=PLANE('',#1775);
#1775=AXIS2_PLACEMENT_3D('',#1776,#13,#14);
#1776=CARTESIAN_POINT('',(-0.32,-5.4,8.54));
#1777=ADVANCED_FACE('',(#1778),#1782,.T.);
#1778=FACE_BOUND('',#1779,.T.);
#1779=EDGE_LOOP('',(#1780,#1573,#1591,#1781));
#1780=ORIENTED_EDGE('',*,*,#1559,.T.);
#1781=ORIENTED_EDGE('',*,*,#1603,.T.);
#1782=PLANE('',#1783);
#1783=AXIS2_PLACEMENT_3D('',#1784,#13,#14);
#1784=CARTESIAN_POINT('',(-0.32,-7.94,8.54));
#1785=ADVANCED_FACE('',(#1786),#1790,.T.);
#1786=FACE_BOUND('',#1787,.T.);
#1787=EDGE_LOOP('',(#1788,#1639,#1657,#1789));
#1788=ORIENTED_EDGE('',*,*,#1625,.T.);
#1789=ORIENTED_EDGE('',*,*,#1669,.T.);
#1790=PLANE('',#1791);
#1791=AXIS2_PLACEMENT_3D('',#1792,#13,#14);
#1792=CARTESIAN_POINT('',(-0.32,-0.32,8.54));
#1793=ADVANCED_FACE('',(#1794),#1798,.T.);
#1794=FACE_BOUND('',#1795,.T.);
#1795=EDGE_LOOP('',(#1796,#1689,#1707,#1797));
#1796=ORIENTED_EDGE('',*,*,#1735,.T.);
#1797=ORIENTED_EDGE('',*,*,#1723,.T.);
#1798=PLANE('',#1799);
#1799=AXIS2_PLACEMENT_3D('',#1800,#13,#14);
#1800=CARTESIAN_POINT('',(-0.32,-2.86,8.54));
#1801=( GEOMETRIC_REPRESENTATION_CONTEXT(3) GLOBAL_UNCERTAINTY_ASSIGNED_CONTEXT((#1805)) GLOBAL_UNIT_ASSIGNED_CONTEXT((#1802,#1803,#1804)) REPRESENTATION_CONTEXT('Context #1','3D Context with UNIT and UNCERTAINTY') );
#1802=( LENGTH_UNIT() NAMED_UNIT(*) SI_UNIT(.MILLI.,.METRE.) );
#1803=( NAMED_UNIT(*) PLANE_ANGLE_UNIT() SI_UNIT($,.RADIAN.) );
#1804=( NAMED_UNIT(*) SI_UNIT($,.STERADIAN.) SOLID_ANGLE_UNIT() );
#1805=UNCERTAINTY_MEASURE_WITH_UNIT(LENGTH_MEASURE(2.E-05),#1802,'distance_accuracy_value','confusion accuracy');
#1806=MECHANICAL_DESIGN_GEOMETRIC_PRESENTATION_REPRESENTATION('',(#1807,#1815,#1816,#1817,#1818,#1819,#1820,#1821,#1822,#1823,#1824,#1825,#1826,#1827,#1828,#1829,#1830,#1831,#1832,#1833,#1834,#1835,#1836,#1837,#1838,#1839,#1840,#1841,#1842,#1850,#1851,#1852,#1853,#1854,#1855,#1856,#1857,#1858,#1859,#1860,#1861,#1862,#1863,#1864,#1865,#1866,#1867,#1868,#1869,#1870,#1871,#1872,#1873,#1874,#1875,#1876,#1877,#1878,#1879,#1880,#1881,#1882,#1883,#1884,#1885,#1886,#1887,#1888,#1889,#1890,#1891,#1892,#1893,#1894,#1895,#1896,#1897,#1898,#1899,#1900,#1901,#1902,#1903,#1904,#1905,#1906,#1907,#1908,#1909,#1910,#1911,#1912,#1913,#1914,#1915,#1916,#1917,#1918,#1919,#1920),#1801);
#1807=STYLED_ITEM('color',(#1808),#17);
#1808=PRESENTATION_STYLE_ASSIGNMENT((#1809));
#1809=SURFACE_STYLE_USAGE(.BOTH.,#1810);
#1810=SURFACE_SIDE_STYLE('',(#1811));
#1811=SURFACE_STYLE_FILL_AREA(#1812);
#1812=FILL_AREA_STYLE('',(#1813));
#1813=FILL_AREA_STYLE_COLOUR('',#1814);
#1814=COLOUR_RGB('',0.148000001907,0.144999995828,0.144999995828);
#1815=STYLED_ITEM('color',(#1808),#46);
#1816=STYLED_ITEM('color',(#1808),#68);
#1817=STYLED_ITEM('color',(#1808),#88);
#1818=STYLED_ITEM('color',(#1808),#322);
#1819=STYLED_ITEM('color',(#1808),#545);
#1820=STYLED_ITEM('color',(#1808),#555);
#1821=STYLED_ITEM('color',(#1808),#565);
#1822=STYLED_ITEM('color',(#1808),#575);
#1823=STYLED_ITEM('color',(#1808),#585);
#1824=STYLED_ITEM('color',(#1808),#595);
#1825=STYLED_ITEM('color',(#1808),#605);
#1826=STYLED_ITEM('color',(#1808),#615);
#1827=STYLED_ITEM('color',(#1808),#625);
#1828=STYLED_ITEM('color',(#1808),#635);
#1829=STYLED_ITEM('color',(#1808),#645);
#1830=STYLED_ITEM('color',(#1808),#655);
#1831=STYLED_ITEM('color',(#1808),#665);
#1832=STYLED_ITEM('color',(#1808),#675);
#1833=STYLED_ITEM('color',(#1808),#685);
#1834=STYLED_ITEM('color',(#1808),#695);
#1835=STYLED_ITEM('color',(#1808),#705);
#1836=STYLED_ITEM('color',(#1808),#715);
#1837=STYLED_ITEM('color',(#1808),#725);
#1838=STYLED_ITEM('color',(#1808),#735);
#1839=STYLED_ITEM('color',(#1808),#745);
#1840=STYLED_ITEM('color',(#1808),#755);
#1841=STYLED_ITEM('color',(#1808),#765);
#1842=STYLED_ITEM('color',(#1843),#773);
#1843=PRESENTATION_STYLE_ASSIGNMENT((#1844));
#1844=SURFACE_STYLE_USAGE(.BOTH.,#1845);
#1845=SURFACE_SIDE_STYLE('',(#1846));
#1846=SURFACE_STYLE_FILL_AREA(#1847);
#1847=FILL_AREA_STYLE('',(#1848));
#1848=FILL_AREA_STYLE_COLOUR('',#1849);
#1849=COLOUR_RGB('',0.85900002718,0.737999975681,0.495999991894);
#1850=STYLED_ITEM('color',(#1843),#793);
#1851=STYLED_ITEM('color',(#1843),#808);
#1852=STYLED_ITEM('color',(#1843),#824);
#1853=STYLED_ITEM('color',(#1843),#833);
#1854=STYLED_ITEM('color',(#1843),#853);
#1855=STYLED_ITEM('color',(#1843),#868);
#1856=STYLED_ITEM('color',(#1843),#883);
#1857=STYLED_ITEM('color',(#1843),#893);
#1858=STYLED_ITEM('color',(#1843),#913);
#1859=STYLED_ITEM('color',(#1843),#928);
#1860=STYLED_ITEM('color',(#1843),#943);
#1861=STYLED_ITEM('color',(#1843),#953);
#1862=STYLED_ITEM('color',(#1843),#973);
#1863=STYLED_ITEM('color',(#1843),#988);
#1864=STYLED_ITEM('color',(#1843),#1004);
#1865=STYLED_ITEM('color',(#1843),#1013);
#1866=STYLED_ITEM('color',(#1843),#1028);
#1867=STYLED_ITEM('color',(#1843),#1038);
#1868=STYLED_ITEM('color',(#1843),#1049);
#1869=STYLED_ITEM('color',(#1843),#1057);
#1870=STYLED_ITEM('color',(#1843),#1072);
#1871=STYLED_ITEM('color',(#1843),#1084);
#1872=STYLED_ITEM('color',(#1843),#1094);
#1873=STYLED_ITEM('color',(#1843),#1101);
#1874=STYLED_ITEM('color',(#1843),#1116);
#1875=STYLED_ITEM('color',(#1843),#1128);
#1876=STYLED_ITEM('color',(#1843),#1138);
#1877=STYLED_ITEM('color',(#1843),#1145);
#1878=STYLED_ITEM('color',(#1843),#1160);
#1879=STYLED_ITEM('color',(#1843),#1170);
#1880=STYLED_ITEM('color',(#1843),#1181);
#1881=STYLED_ITEM('color',(#1843),#1189);
#1882=STYLED_ITEM('color',(#1843),#1216);
#1883=STYLED_ITEM('color',(#1843),#1236);
#1884=STYLED_ITEM('color',(#1843),#1255);
#1885=STYLED_ITEM('color',(#1843),#1267);
#1886=STYLED_ITEM('color',(#1843),#1288);
#1887=STYLED_ITEM('color',(#1843),#1304);
#1888=STYLED_ITEM('color',(#1843),#1321);
#1889=STYLED_ITEM('color',(#1843),#1333);
#1890=STYLED_ITEM('color',(#1843),#1354);
#1891=STYLED_ITEM('color',(#1843),#1370);
#1892=STYLED_ITEM('color',(#1843),#1387);
#1893=STYLED_ITEM('color',(#1843),#1399);
#1894=STYLED_ITEM('color',(#1843),#1421);
#1895=STYLED_ITEM('color',(#1843),#1438);
#1896=STYLED_ITEM('color',(#1843),#1454);
#1897=STYLED_ITEM('color',(#1843),#1465);
#1898=STYLED_ITEM('color',(#1843),#1491);
#1899=STYLED_ITEM('color',(#1843),#1512);
#1900=STYLED_ITEM('color',(#1843),#1530);
#1901=STYLED_ITEM('color',(#1843),#1543);
#1902=STYLED_ITEM('color',(#1843),#1565);
#1903=STYLED_ITEM('color',(#1843),#1580);
#1904=STYLED_ITEM('color',(#1843),#1598);
#1905=STYLED_ITEM('color',(#1843),#1609);
#1906=STYLED_ITEM('color',(#1843),#1631);
#1907=STYLED_ITEM('color',(#1843),#1646);
#1908=STYLED_ITEM('color',(#1843),#1664);
#1909=STYLED_ITEM('color',(#1843),#1675);
#1910=STYLED_ITEM('color',(#1843),#1696);
#1911=STYLED_ITEM('color',(#1843),#1714);
#1912=STYLED_ITEM('color',(#1843),#1729);
#1913=STYLED_ITEM('color',(#1843),#1741);
#1914=STYLED_ITEM('color',(#1843),#1748);
#1915=STYLED_ITEM('color',(#1843),#1755);
#1916=STYLED_ITEM('color',(#1843),#1762);
#1917=STYLED_ITEM('color',(#1843),#1769);
#1918=STYLED_ITEM('color',(#1843),#1777);
#1919=STYLED_ITEM('color',(#1843),#1785);
#1920=STYLED_ITEM('color',(#1843),#1793);
ENDSEC;
END-ISO-10303-21;
