ISO-10303-21;
HEADER;
FILE_DESCRIPTION(('FreeCAD Model'),'2;1');
FILE_NAME(
'D:/KiCAD/packages3D-source/Package_TO_SOT_THT.3dshapes\\
TO-92_Inline_Wide.step','2017-11-28T22:16:59',('kicad StepUp'),(
    'ksu MCAD'),'Open CASCADE STEP processor 6.8','FreeCAD','Unknown');
FILE_SCHEMA(('AUTOMOTIVE_DESIGN_CC2 { 1 2 10303 214 -1 1 5 4 }'));
ENDSEC;
DATA;
#1=APPLICATION_PROTOCOL_DEFINITION('committee draft','automotive_design',1997,#2);
#2=APPLICATION_CONTEXT('core data for automotive mechanical design processes');
#3=SHAPE_DEFINITION_REPRESENTATION(#4,#10);
#4=PRODUCT_DEFINITION_SHAPE('','',#5);
#5=PRODUCT_DEFINITION('design','',#6,#9);
#6=PRODUCT_DEFINITION_FORMATION('','',#7);
#7=PRODUCT('TO-92_Inline_Wide','TO-92_Inline_Wide','',(#8));
#8=MECHANICAL_CONTEXT('',#2,'mechanical');
#9=PRODUCT_DEFINITION_CONTEXT('part definition',#2,'design');
#10=ADVANCED_BREP_SHAPE_REPRESENTATION('',(#11,#15),#523);
#11=AXIS2_PLACEMENT_3D('',#12,#13,#14);
#12=CARTESIAN_POINT('',(0.E+000,0.E+000,0.E+000));
#13=DIRECTION('',(0.E+000,0.E+000,1.));
#14=DIRECTION('',(1.,0.E+000,-0.E+000));
#15=MANIFOLD_SOLID_BREP('',#16);
#16=CLOSED_SHELL('',(#17,#45,#63,#151,#156,#178,#194,#209,#218,#239,#278,#293,#321,#342,#379,#394,#422,#430,#440,#449,#459,#469,#476,#486,#495,#505,#515));
#17=ADVANCED_FACE('',(#18),#42,.F.);
#18=FACE_BOUND('',#19,.F.);
#19=EDGE_LOOP('',(#20,#28,#34,#39));
#20=ORIENTED_EDGE('',*,*,#21,.T.);
#21=EDGE_CURVE('',#22,#24,#26,.T.);
#22=VERTEX_POINT('',#23);
#23=CARTESIAN_POINT('',(0.524230916003,-1.33,2.5));
#24=VERTEX_POINT('',#25);
#25=CARTESIAN_POINT('',(0.524230916003,-1.33,7.3));
#26=LINE('',#23,#27);
#27=VECTOR('',#13,1.);
#28=ORIENTED_EDGE('',*,*,#29,.T.);
#29=EDGE_CURVE('',#24,#30,#32,.T.);
#30=VERTEX_POINT('',#31);
#31=CARTESIAN_POINT('',(4.555769083998,-1.33,7.3));
#32=LINE('',#25,#33);
#33=VECTOR('',#14,1.);
#34=ORIENTED_EDGE('',*,*,#35,.F.);
#35=EDGE_CURVE('',#36,#30,#38,.T.);
#36=VERTEX_POINT('',#37);
#37=CARTESIAN_POINT('',(4.555769083998,-1.33,2.5));
#38=LINE('',#37,#27);
#39=ORIENTED_EDGE('',*,*,#40,.F.);
#40=EDGE_CURVE('',#22,#36,#41,.T.);
#41=LINE('',#23,#33);
#42=PLANE('',#43);
#43=AXIS2_PLACEMENT_3D('',#23,#44,#14);
#44=DIRECTION('',(0.E+000,1.,0.E+000));
#45=ADVANCED_FACE('',(#46),#60,.T.);
#46=FACE_BOUND('',#47,.F.);
#47=EDGE_LOOP('',(#48,#49,#54,#55));
#48=ORIENTED_EDGE('',*,*,#35,.T.);
#49=ORIENTED_EDGE('',*,*,#50,.T.);
#50=EDGE_CURVE('',#30,#24,#51,.T.);
#51=CIRCLE('',#52,2.415);
#52=AXIS2_PLACEMENT_3D('',#53,#13,#14);
#53=CARTESIAN_POINT('',(2.54,0.E+000,7.3));
#54=ORIENTED_EDGE('',*,*,#21,.F.);
#55=ORIENTED_EDGE('',*,*,#56,.F.);
#56=EDGE_CURVE('',#36,#22,#57,.T.);
#57=CIRCLE('',#58,2.415);
#58=AXIS2_PLACEMENT_3D('',#59,#13,#14);
#59=CARTESIAN_POINT('',(2.54,0.E+000,2.5));
#60=CYLINDRICAL_SURFACE('',#61,2.415);
#61=AXIS2_PLACEMENT_3D('',#59,#62,#14);
#62=DIRECTION('',(-0.E+000,-0.E+000,-1.));
#63=ADVANCED_FACE('',(#64,#66,#97,#123),#149,.T.);
#64=FACE_BOUND('',#65,.T.);
#65=EDGE_LOOP('',(#39,#55));
#66=FACE_BOUND('',#67,.T.);
#67=EDGE_LOOP('',(#68,#78,#86,#93));
#68=ORIENTED_EDGE('',*,*,#69,.F.);
#69=EDGE_CURVE('',#70,#72,#74,.T.);
#70=VERTEX_POINT('',#71);
#71=CARTESIAN_POINT('',(2.79,0.19,2.5));
#72=VERTEX_POINT('',#73);
#73=CARTESIAN_POINT('',(2.79,-0.19,2.5));
#74=LINE('',#75,#76);
#75=CARTESIAN_POINT('',(2.79,-0.57,2.5));
#76=VECTOR('',#77,1.);
#77=DIRECTION('',(0.E+000,-1.,0.E+000));
#78=ORIENTED_EDGE('',*,*,#79,.T.);
#79=EDGE_CURVE('',#70,#80,#82,.T.);
#80=VERTEX_POINT('',#81);
#81=CARTESIAN_POINT('',(2.29,0.19,2.5));
#82=LINE('',#83,#84);
#83=CARTESIAN_POINT('',(1.407115458001,0.19,2.5));
#84=VECTOR('',#85,1.);
#85=DIRECTION('',(-1.,-0.E+000,-0.E+000));
#86=ORIENTED_EDGE('',*,*,#87,.F.);
#87=EDGE_CURVE('',#88,#80,#90,.T.);
#88=VERTEX_POINT('',#89);
#89=CARTESIAN_POINT('',(2.29,-0.19,2.5));
#90=LINE('',#91,#92);
#91=CARTESIAN_POINT('',(2.29,-0.57,2.5));
#92=VECTOR('',#44,1.);
#93=ORIENTED_EDGE('',*,*,#94,.F.);
#94=EDGE_CURVE('',#72,#88,#95,.T.);
#95=LINE('',#96,#84);
#96=CARTESIAN_POINT('',(1.407115458001,-0.19,2.5));
#97=FACE_BOUND('',#98,.T.);
#98=EDGE_LOOP('',(#99,#107,#113,#119));
#99=ORIENTED_EDGE('',*,*,#100,.F.);
#100=EDGE_CURVE('',#101,#103,#105,.T.);
#101=VERTEX_POINT('',#102);
#102=CARTESIAN_POINT('',(4.06,0.19,2.5));
#103=VERTEX_POINT('',#104);
#104=CARTESIAN_POINT('',(4.06,-0.19,2.5));
#105=LINE('',#106,#76);
#106=CARTESIAN_POINT('',(4.06,-0.57,2.5));
#107=ORIENTED_EDGE('',*,*,#108,.T.);
#108=EDGE_CURVE('',#101,#109,#111,.T.);
#109=VERTEX_POINT('',#110);
#110=CARTESIAN_POINT('',(3.56,0.19,2.5));
#111=LINE('',#112,#84);
#112=CARTESIAN_POINT('',(2.927115458001,0.19,2.5));
#113=ORIENTED_EDGE('',*,*,#114,.F.);
#114=EDGE_CURVE('',#115,#109,#117,.T.);
#115=VERTEX_POINT('',#116);
#116=CARTESIAN_POINT('',(3.56,-0.19,2.5));
#117=LINE('',#118,#92);
#118=CARTESIAN_POINT('',(3.56,-0.57,2.5));
#119=ORIENTED_EDGE('',*,*,#120,.F.);
#120=EDGE_CURVE('',#103,#115,#121,.T.);
#121=LINE('',#122,#84);
#122=CARTESIAN_POINT('',(2.927115458001,-0.19,2.5));
#123=FACE_BOUND('',#124,.T.);
#124=EDGE_LOOP('',(#125,#133,#139,#145));
#125=ORIENTED_EDGE('',*,*,#126,.F.);
#126=EDGE_CURVE('',#127,#129,#131,.T.);
#127=VERTEX_POINT('',#128);
#128=CARTESIAN_POINT('',(1.52,0.19,2.5));
#129=VERTEX_POINT('',#130);
#130=CARTESIAN_POINT('',(1.52,-0.19,2.5));
#131=LINE('',#132,#76);
#132=CARTESIAN_POINT('',(1.52,-0.57,2.5));
#133=ORIENTED_EDGE('',*,*,#134,.T.);
#134=EDGE_CURVE('',#127,#135,#137,.T.);
#135=VERTEX_POINT('',#136);
#136=CARTESIAN_POINT('',(1.02,0.19,2.5));
#137=LINE('',#138,#84);
#138=CARTESIAN_POINT('',(0.387115458001,0.19,2.5));
#139=ORIENTED_EDGE('',*,*,#140,.F.);
#140=EDGE_CURVE('',#141,#135,#143,.T.);
#141=VERTEX_POINT('',#142);
#142=CARTESIAN_POINT('',(1.02,-0.19,2.5));
#143=LINE('',#144,#92);
#144=CARTESIAN_POINT('',(1.02,-0.57,2.5));
#145=ORIENTED_EDGE('',*,*,#146,.F.);
#146=EDGE_CURVE('',#129,#141,#147,.T.);
#147=LINE('',#148,#84);
#148=CARTESIAN_POINT('',(0.387115458001,-0.19,2.5));
#149=PLANE('',#150);
#150=AXIS2_PLACEMENT_3D('',#23,#62,#85);
#151=ADVANCED_FACE('',(#152),#154,.F.);
#152=FACE_BOUND('',#153,.T.);
#153=EDGE_LOOP('',(#28,#49));
#154=PLANE('',#155);
#155=AXIS2_PLACEMENT_3D('',#25,#62,#85);
#156=ADVANCED_FACE('',(#157),#176,.T.);
#157=FACE_BOUND('',#158,.T.);
#158=EDGE_LOOP('',(#159,#166,#167,#173));
#159=ORIENTED_EDGE('',*,*,#160,.F.);
#160=EDGE_CURVE('',#70,#161,#163,.T.);
#161=VERTEX_POINT('',#162);
#162=CARTESIAN_POINT('',(2.79,0.19,-2.7));
#163=LINE('',#164,#165);
#164=CARTESIAN_POINT('',(2.79,0.19,2.8));
#165=VECTOR('',#62,1.);
#166=ORIENTED_EDGE('',*,*,#69,.T.);
#167=ORIENTED_EDGE('',*,*,#168,.T.);
#168=EDGE_CURVE('',#72,#169,#171,.T.);
#169=VERTEX_POINT('',#170);
#170=CARTESIAN_POINT('',(2.79,-0.19,-2.7));
#171=LINE('',#172,#165);
#172=CARTESIAN_POINT('',(2.79,-0.19,2.8));
#173=ORIENTED_EDGE('',*,*,#174,.F.);
#174=EDGE_CURVE('',#161,#169,#175,.T.);
#175=LINE('',#162,#76);
#176=PLANE('',#177);
#177=AXIS2_PLACEMENT_3D('',#164,#14,#62);
#178=ADVANCED_FACE('',(#179),#191,.T.);
#179=FACE_BOUND('',#180,.T.);
#180=EDGE_LOOP('',(#181,#182,#187,#190));
#181=ORIENTED_EDGE('',*,*,#94,.T.);
#182=ORIENTED_EDGE('',*,*,#183,.F.);
#183=EDGE_CURVE('',#184,#88,#186,.T.);
#184=VERTEX_POINT('',#185);
#185=CARTESIAN_POINT('',(2.29,-0.19,-2.7));
#186=LINE('',#185,#27);
#187=ORIENTED_EDGE('',*,*,#188,.F.);
#188=EDGE_CURVE('',#169,#184,#189,.T.);
#189=LINE('',#170,#84);
#190=ORIENTED_EDGE('',*,*,#168,.F.);
#191=PLANE('',#192);
#192=AXIS2_PLACEMENT_3D('',#193,#77,#62);
#193=CARTESIAN_POINT('',(2.29,-0.19,2.8));
#194=ADVANCED_FACE('',(#195),#207,.T.);
#195=FACE_BOUND('',#196,.T.);
#196=EDGE_LOOP('',(#197,#202,#205,#206));
#197=ORIENTED_EDGE('',*,*,#198,.F.);
#198=EDGE_CURVE('',#199,#80,#201,.T.);
#199=VERTEX_POINT('',#200);
#200=CARTESIAN_POINT('',(2.29,0.19,-2.7));
#201=LINE('',#200,#27);
#202=ORIENTED_EDGE('',*,*,#203,.T.);
#203=EDGE_CURVE('',#199,#184,#204,.T.);
#204=LINE('',#200,#76);
#205=ORIENTED_EDGE('',*,*,#183,.T.);
#206=ORIENTED_EDGE('',*,*,#87,.T.);
#207=PLANE('',#208);
#208=AXIS2_PLACEMENT_3D('',#200,#85,#13);
#209=ADVANCED_FACE('',(#210),#215,.F.);
#210=FACE_BOUND('',#211,.F.);
#211=EDGE_LOOP('',(#78,#197,#212,#159));
#212=ORIENTED_EDGE('',*,*,#213,.F.);
#213=EDGE_CURVE('',#161,#199,#214,.T.);
#214=LINE('',#162,#84);
#215=PLANE('',#216);
#216=AXIS2_PLACEMENT_3D('',#217,#77,#62);
#217=CARTESIAN_POINT('',(2.29,0.19,2.8));
#218=ADVANCED_FACE('',(#219),#237,.T.);
#219=FACE_BOUND('',#220,.T.);
#220=EDGE_LOOP('',(#221,#227,#228,#234));
#221=ORIENTED_EDGE('',*,*,#222,.F.);
#222=EDGE_CURVE('',#101,#223,#225,.T.);
#223=VERTEX_POINT('',#224);
#224=CARTESIAN_POINT('',(4.06,0.19,2.16));
#225=LINE('',#226,#165);
#226=CARTESIAN_POINT('',(4.06,0.19,2.8));
#227=ORIENTED_EDGE('',*,*,#100,.T.);
#228=ORIENTED_EDGE('',*,*,#229,.T.);
#229=EDGE_CURVE('',#103,#230,#232,.T.);
#230=VERTEX_POINT('',#231);
#231=CARTESIAN_POINT('',(4.06,-0.19,2.16));
#232=LINE('',#233,#165);
#233=CARTESIAN_POINT('',(4.06,-0.19,2.8));
#234=ORIENTED_EDGE('',*,*,#235,.F.);
#235=EDGE_CURVE('',#223,#230,#236,.T.);
#236=LINE('',#224,#76);
#237=PLANE('',#238);
#238=AXIS2_PLACEMENT_3D('',#226,#14,#62);
#239=ADVANCED_FACE('',(#240),#276,.T.);
#240=FACE_BOUND('',#241,.T.);
#241=EDGE_LOOP('',(#242,#249,#254,#255,#256,#261,#268,#273));
#242=ORIENTED_EDGE('',*,*,#243,.F.);
#243=EDGE_CURVE('',#244,#246,#248,.T.);
#244=VERTEX_POINT('',#245);
#245=CARTESIAN_POINT('',(5.33,-0.19,0.26));
#246=VERTEX_POINT('',#247);
#247=CARTESIAN_POINT('',(5.33,-0.19,-2.7));
#248=LINE('',#245,#165);
#249=ORIENTED_EDGE('',*,*,#250,.T.);
#250=EDGE_CURVE('',#244,#230,#251,.T.);
#251=LINE('',#245,#252);
#252=VECTOR('',#253,1.);
#253=DIRECTION('',(-0.555709556774,5.538080009649E-016,0.83137650226));
#254=ORIENTED_EDGE('',*,*,#229,.F.);
#255=ORIENTED_EDGE('',*,*,#120,.T.);
#256=ORIENTED_EDGE('',*,*,#257,.F.);
#257=EDGE_CURVE('',#258,#115,#260,.T.);
#258=VERTEX_POINT('',#259);
#259=CARTESIAN_POINT('',(3.56,-0.19,2.16));
#260=LINE('',#259,#27);
#261=ORIENTED_EDGE('',*,*,#262,.T.);
#262=EDGE_CURVE('',#258,#263,#265,.T.);
#263=VERTEX_POINT('',#264);
#264=CARTESIAN_POINT('',(4.83,-0.19,0.26));
#265=LINE('',#259,#266);
#266=VECTOR('',#267,1.);
#267=DIRECTION('',(0.555709556774,-5.538080009649E-016,-0.83137650226));
#268=ORIENTED_EDGE('',*,*,#269,.F.);
#269=EDGE_CURVE('',#270,#263,#272,.T.);
#270=VERTEX_POINT('',#271);
#271=CARTESIAN_POINT('',(4.83,-0.19,-2.7));
#272=LINE('',#271,#27);
#273=ORIENTED_EDGE('',*,*,#274,.F.);
#274=EDGE_CURVE('',#246,#270,#275,.T.);
#275=LINE('',#247,#84);
#276=PLANE('',#277);
#277=AXIS2_PLACEMENT_3D('',#245,#77,#62);
#278=ADVANCED_FACE('',(#279),#291,.T.);
#279=FACE_BOUND('',#280,.T.);
#280=EDGE_LOOP('',(#281,#286,#289,#290));
#281=ORIENTED_EDGE('',*,*,#282,.F.);
#282=EDGE_CURVE('',#283,#109,#285,.T.);
#283=VERTEX_POINT('',#284);
#284=CARTESIAN_POINT('',(3.56,0.19,2.16));
#285=LINE('',#284,#27);
#286=ORIENTED_EDGE('',*,*,#287,.T.);
#287=EDGE_CURVE('',#283,#258,#288,.T.);
#288=LINE('',#284,#76);
#289=ORIENTED_EDGE('',*,*,#257,.T.);
#290=ORIENTED_EDGE('',*,*,#114,.T.);
#291=PLANE('',#292);
#292=AXIS2_PLACEMENT_3D('',#284,#85,#13);
#293=ADVANCED_FACE('',(#294),#319,.F.);
#294=FACE_BOUND('',#295,.F.);
#295=EDGE_LOOP('',(#296,#303,#221,#107,#281,#306,#311,#316));
#296=ORIENTED_EDGE('',*,*,#297,.F.);
#297=EDGE_CURVE('',#298,#300,#302,.T.);
#298=VERTEX_POINT('',#299);
#299=CARTESIAN_POINT('',(5.33,0.19,0.26));
#300=VERTEX_POINT('',#301);
#301=CARTESIAN_POINT('',(5.33,0.19,-2.7));
#302=LINE('',#299,#165);
#303=ORIENTED_EDGE('',*,*,#304,.T.);
#304=EDGE_CURVE('',#298,#223,#305,.T.);
#305=LINE('',#299,#252);
#306=ORIENTED_EDGE('',*,*,#307,.T.);
#307=EDGE_CURVE('',#283,#308,#310,.T.);
#308=VERTEX_POINT('',#309);
#309=CARTESIAN_POINT('',(4.83,0.19,0.26));
#310=LINE('',#284,#266);
#311=ORIENTED_EDGE('',*,*,#312,.F.);
#312=EDGE_CURVE('',#313,#308,#315,.T.);
#313=VERTEX_POINT('',#314);
#314=CARTESIAN_POINT('',(4.83,0.19,-2.7));
#315=LINE('',#314,#27);
#316=ORIENTED_EDGE('',*,*,#317,.F.);
#317=EDGE_CURVE('',#300,#313,#318,.T.);
#318=LINE('',#301,#84);
#319=PLANE('',#320);
#320=AXIS2_PLACEMENT_3D('',#299,#77,#62);
#321=ADVANCED_FACE('',(#322),#340,.T.);
#322=FACE_BOUND('',#323,.T.);
#323=EDGE_LOOP('',(#324,#330,#331,#337));
#324=ORIENTED_EDGE('',*,*,#325,.F.);
#325=EDGE_CURVE('',#127,#326,#328,.T.);
#326=VERTEX_POINT('',#327);
#327=CARTESIAN_POINT('',(1.52,0.19,2.16));
#328=LINE('',#329,#165);
#329=CARTESIAN_POINT('',(1.52,0.19,2.8));
#330=ORIENTED_EDGE('',*,*,#126,.T.);
#331=ORIENTED_EDGE('',*,*,#332,.T.);
#332=EDGE_CURVE('',#129,#333,#335,.T.);
#333=VERTEX_POINT('',#334);
#334=CARTESIAN_POINT('',(1.52,-0.19,2.16));
#335=LINE('',#336,#165);
#336=CARTESIAN_POINT('',(1.52,-0.19,2.8));
#337=ORIENTED_EDGE('',*,*,#338,.F.);
#338=EDGE_CURVE('',#326,#333,#339,.T.);
#339=LINE('',#327,#76);
#340=PLANE('',#341);
#341=AXIS2_PLACEMENT_3D('',#329,#14,#62);
#342=ADVANCED_FACE('',(#343),#377,.T.);
#343=FACE_BOUND('',#344,.T.);
#344=EDGE_LOOP('',(#345,#352,#357,#358,#359,#364,#369,#374));
#345=ORIENTED_EDGE('',*,*,#346,.F.);
#346=EDGE_CURVE('',#347,#349,#351,.T.);
#347=VERTEX_POINT('',#348);
#348=CARTESIAN_POINT('',(0.25,-0.19,0.26));
#349=VERTEX_POINT('',#350);
#350=CARTESIAN_POINT('',(0.25,-0.19,-2.7));
#351=LINE('',#348,#165);
#352=ORIENTED_EDGE('',*,*,#353,.T.);
#353=EDGE_CURVE('',#347,#333,#354,.T.);
#354=LINE('',#348,#355);
#355=VECTOR('',#356,1.);
#356=DIRECTION('',(0.555709556774,5.538080009649E-016,0.83137650226));
#357=ORIENTED_EDGE('',*,*,#332,.F.);
#358=ORIENTED_EDGE('',*,*,#146,.T.);
#359=ORIENTED_EDGE('',*,*,#360,.F.);
#360=EDGE_CURVE('',#361,#141,#363,.T.);
#361=VERTEX_POINT('',#362);
#362=CARTESIAN_POINT('',(1.02,-0.19,2.16));
#363=LINE('',#362,#27);
#364=ORIENTED_EDGE('',*,*,#365,.F.);
#365=EDGE_CURVE('',#366,#361,#368,.T.);
#366=VERTEX_POINT('',#367);
#367=CARTESIAN_POINT('',(-0.25,-0.19,0.26));
#368=LINE('',#367,#355);
#369=ORIENTED_EDGE('',*,*,#370,.F.);
#370=EDGE_CURVE('',#371,#366,#373,.T.);
#371=VERTEX_POINT('',#372);
#372=CARTESIAN_POINT('',(-0.25,-0.19,-2.7));
#373=LINE('',#372,#27);
#374=ORIENTED_EDGE('',*,*,#375,.F.);
#375=EDGE_CURVE('',#349,#371,#376,.T.);
#376=LINE('',#350,#84);
#377=PLANE('',#378);
#378=AXIS2_PLACEMENT_3D('',#348,#77,#62);
#379=ADVANCED_FACE('',(#380),#392,.T.);
#380=FACE_BOUND('',#381,.T.);
#381=EDGE_LOOP('',(#382,#387,#390,#391));
#382=ORIENTED_EDGE('',*,*,#383,.F.);
#383=EDGE_CURVE('',#384,#135,#386,.T.);
#384=VERTEX_POINT('',#385);
#385=CARTESIAN_POINT('',(1.02,0.19,2.16));
#386=LINE('',#385,#27);
#387=ORIENTED_EDGE('',*,*,#388,.T.);
#388=EDGE_CURVE('',#384,#361,#389,.T.);
#389=LINE('',#385,#76);
#390=ORIENTED_EDGE('',*,*,#360,.T.);
#391=ORIENTED_EDGE('',*,*,#140,.T.);
#392=PLANE('',#393);
#393=AXIS2_PLACEMENT_3D('',#385,#85,#13);
#394=ADVANCED_FACE('',(#395),#420,.F.);
#395=FACE_BOUND('',#396,.F.);
#396=EDGE_LOOP('',(#397,#404,#324,#133,#382,#407,#412,#417));
#397=ORIENTED_EDGE('',*,*,#398,.F.);
#398=EDGE_CURVE('',#399,#401,#403,.T.);
#399=VERTEX_POINT('',#400);
#400=CARTESIAN_POINT('',(0.25,0.19,0.26));
#401=VERTEX_POINT('',#402);
#402=CARTESIAN_POINT('',(0.25,0.19,-2.7));
#403=LINE('',#400,#165);
#404=ORIENTED_EDGE('',*,*,#405,.T.);
#405=EDGE_CURVE('',#399,#326,#406,.T.);
#406=LINE('',#400,#355);
#407=ORIENTED_EDGE('',*,*,#408,.F.);
#408=EDGE_CURVE('',#409,#384,#411,.T.);
#409=VERTEX_POINT('',#410);
#410=CARTESIAN_POINT('',(-0.25,0.19,0.26));
#411=LINE('',#410,#355);
#412=ORIENTED_EDGE('',*,*,#413,.F.);
#413=EDGE_CURVE('',#414,#409,#416,.T.);
#414=VERTEX_POINT('',#415);
#415=CARTESIAN_POINT('',(-0.25,0.19,-2.7));
#416=LINE('',#415,#27);
#417=ORIENTED_EDGE('',*,*,#418,.F.);
#418=EDGE_CURVE('',#401,#414,#419,.T.);
#419=LINE('',#402,#84);
#420=PLANE('',#421);
#421=AXIS2_PLACEMENT_3D('',#400,#77,#62);
#422=ADVANCED_FACE('',(#423),#428,.T.);
#423=FACE_BOUND('',#424,.T.);
#424=EDGE_LOOP('',(#425,#426,#427,#212));
#425=ORIENTED_EDGE('',*,*,#174,.T.);
#426=ORIENTED_EDGE('',*,*,#188,.T.);
#427=ORIENTED_EDGE('',*,*,#203,.F.);
#428=PLANE('',#429);
#429=AXIS2_PLACEMENT_3D('',#162,#62,#85);
#430=ADVANCED_FACE('',(#431),#437,.F.);
#431=FACE_BOUND('',#432,.F.);
#432=EDGE_LOOP('',(#433,#249,#234,#436));
#433=ORIENTED_EDGE('',*,*,#434,.T.);
#434=EDGE_CURVE('',#298,#244,#435,.T.);
#435=LINE('',#299,#76);
#436=ORIENTED_EDGE('',*,*,#304,.F.);
#437=PLANE('',#438);
#438=AXIS2_PLACEMENT_3D('',#299,#439,#253);
#439=DIRECTION('',(-0.83137650226,-2.467846179738E-016,-0.555709556774));
#440=ADVANCED_FACE('',(#441),#447,.T.);
#441=FACE_BOUND('',#442,.T.);
#442=EDGE_LOOP('',(#433,#443,#444,#296));
#443=ORIENTED_EDGE('',*,*,#243,.T.);
#444=ORIENTED_EDGE('',*,*,#445,.F.);
#445=EDGE_CURVE('',#300,#246,#446,.T.);
#446=LINE('',#301,#76);
#447=PLANE('',#448);
#448=AXIS2_PLACEMENT_3D('',#299,#14,#62);
#449=ADVANCED_FACE('',(#450),#457,.T.);
#450=FACE_BOUND('',#451,.T.);
#451=EDGE_LOOP('',(#452,#453,#454,#316));
#452=ORIENTED_EDGE('',*,*,#445,.T.);
#453=ORIENTED_EDGE('',*,*,#274,.T.);
#454=ORIENTED_EDGE('',*,*,#455,.F.);
#455=EDGE_CURVE('',#313,#270,#456,.T.);
#456=LINE('',#314,#76);
#457=PLANE('',#458);
#458=AXIS2_PLACEMENT_3D('',#301,#62,#85);
#459=ADVANCED_FACE('',(#460),#467,.T.);
#460=FACE_BOUND('',#461,.T.);
#461=EDGE_LOOP('',(#462,#463,#464,#311));
#462=ORIENTED_EDGE('',*,*,#455,.T.);
#463=ORIENTED_EDGE('',*,*,#269,.T.);
#464=ORIENTED_EDGE('',*,*,#465,.F.);
#465=EDGE_CURVE('',#308,#263,#466,.T.);
#466=LINE('',#309,#76);
#467=PLANE('',#468);
#468=AXIS2_PLACEMENT_3D('',#314,#85,#13);
#469=ADVANCED_FACE('',(#470),#473,.F.);
#470=FACE_BOUND('',#471,.F.);
#471=EDGE_LOOP('',(#286,#261,#464,#472));
#472=ORIENTED_EDGE('',*,*,#307,.F.);
#473=PLANE('',#474);
#474=AXIS2_PLACEMENT_3D('',#284,#475,#267);
#475=DIRECTION('',(0.83137650226,2.467846179738E-016,0.555709556774));
#476=ADVANCED_FACE('',(#477),#483,.F.);
#477=FACE_BOUND('',#478,.F.);
#478=EDGE_LOOP('',(#479,#352,#337,#482));
#479=ORIENTED_EDGE('',*,*,#480,.T.);
#480=EDGE_CURVE('',#399,#347,#481,.T.);
#481=LINE('',#400,#76);
#482=ORIENTED_EDGE('',*,*,#405,.F.);
#483=PLANE('',#484);
#484=AXIS2_PLACEMENT_3D('',#400,#485,#356);
#485=DIRECTION('',(-0.83137650226,2.467846179738E-016,0.555709556774));
#486=ADVANCED_FACE('',(#487),#493,.T.);
#487=FACE_BOUND('',#488,.T.);
#488=EDGE_LOOP('',(#479,#489,#490,#397));
#489=ORIENTED_EDGE('',*,*,#346,.T.);
#490=ORIENTED_EDGE('',*,*,#491,.F.);
#491=EDGE_CURVE('',#401,#349,#492,.T.);
#492=LINE('',#402,#76);
#493=PLANE('',#494);
#494=AXIS2_PLACEMENT_3D('',#400,#14,#62);
#495=ADVANCED_FACE('',(#496),#503,.T.);
#496=FACE_BOUND('',#497,.T.);
#497=EDGE_LOOP('',(#498,#499,#500,#417));
#498=ORIENTED_EDGE('',*,*,#491,.T.);
#499=ORIENTED_EDGE('',*,*,#375,.T.);
#500=ORIENTED_EDGE('',*,*,#501,.F.);
#501=EDGE_CURVE('',#414,#371,#502,.T.);
#502=LINE('',#415,#76);
#503=PLANE('',#504);
#504=AXIS2_PLACEMENT_3D('',#402,#62,#85);
#505=ADVANCED_FACE('',(#506),#513,.T.);
#506=FACE_BOUND('',#507,.T.);
#507=EDGE_LOOP('',(#508,#509,#510,#412));
#508=ORIENTED_EDGE('',*,*,#501,.T.);
#509=ORIENTED_EDGE('',*,*,#370,.T.);
#510=ORIENTED_EDGE('',*,*,#511,.F.);
#511=EDGE_CURVE('',#409,#366,#512,.T.);
#512=LINE('',#410,#76);
#513=PLANE('',#514);
#514=AXIS2_PLACEMENT_3D('',#415,#85,#13);
#515=ADVANCED_FACE('',(#516),#521,.T.);
#516=FACE_BOUND('',#517,.T.);
#517=EDGE_LOOP('',(#518,#519,#520,#407));
#518=ORIENTED_EDGE('',*,*,#511,.T.);
#519=ORIENTED_EDGE('',*,*,#365,.T.);
#520=ORIENTED_EDGE('',*,*,#388,.F.);
#521=PLANE('',#522);
#522=AXIS2_PLACEMENT_3D('',#410,#485,#356);
#523=( GEOMETRIC_REPRESENTATION_CONTEXT(3) GLOBAL_UNCERTAINTY_ASSIGNED_CONTEXT((#527)) GLOBAL_UNIT_ASSIGNED_CONTEXT((#524,#525,#526)) REPRESENTATION_CONTEXT('Context #1','3D Context with UNIT and UNCERTAINTY') );
#524=( LENGTH_UNIT() NAMED_UNIT(*) SI_UNIT(.MILLI.,.METRE.) );
#525=( NAMED_UNIT(*) PLANE_ANGLE_UNIT() SI_UNIT($,.RADIAN.) );
#526=( NAMED_UNIT(*) SI_UNIT($,.STERADIAN.) SOLID_ANGLE_UNIT() );
#527=UNCERTAINTY_MEASURE_WITH_UNIT(LENGTH_MEASURE(1.E-007),#524,'distance_accuracy_value','confusion accuracy');
#528=MECHANICAL_DESIGN_GEOMETRIC_PRESENTATION_REPRESENTATION('',(#529,#537,#538,#539,#540,#548,#549,#550,#551,#552,#553,#554,#555,#556,#557,#558,#559,#560,#561,#562,#563,#564,#565,#566,#567,#568,#569),#523);
#529=STYLED_ITEM('color',(#530),#17);
#530=PRESENTATION_STYLE_ASSIGNMENT((#531));
#531=SURFACE_STYLE_USAGE(.BOTH.,#532);
#532=SURFACE_SIDE_STYLE('',(#533));
#533=SURFACE_STYLE_FILL_AREA(#534);
#534=FILL_AREA_STYLE('',(#535));
#535=FILL_AREA_STYLE_COLOUR('',#536);
#536=COLOUR_RGB('',0.148000001907,0.144999995828,0.144999995828);
#537=STYLED_ITEM('color',(#530),#45);
#538=STYLED_ITEM('color',(#530),#63);
#539=STYLED_ITEM('color',(#530),#151);
#540=STYLED_ITEM('color',(#541),#156);
#541=PRESENTATION_STYLE_ASSIGNMENT((#542));
#542=SURFACE_STYLE_USAGE(.BOTH.,#543);
#543=SURFACE_SIDE_STYLE('',(#544));
#544=SURFACE_STYLE_FILL_AREA(#545);
#545=FILL_AREA_STYLE('',(#546));
#546=FILL_AREA_STYLE_COLOUR('',#547);
#547=COLOUR_RGB('',0.824000000954,0.819999992847,0.78100001812);
#548=STYLED_ITEM('color',(#541),#178);
#549=STYLED_ITEM('color',(#541),#194);
#550=STYLED_ITEM('color',(#541),#209);
#551=STYLED_ITEM('color',(#541),#218);
#552=STYLED_ITEM('color',(#541),#239);
#553=STYLED_ITEM('color',(#541),#278);
#554=STYLED_ITEM('color',(#541),#293);
#555=STYLED_ITEM('color',(#541),#321);
#556=STYLED_ITEM('color',(#541),#342);
#557=STYLED_ITEM('color',(#541),#379);
#558=STYLED_ITEM('color',(#541),#394);
#559=STYLED_ITEM('color',(#541),#422);
#560=STYLED_ITEM('color',(#541),#430);
#561=STYLED_ITEM('color',(#541),#440);
#562=STYLED_ITEM('color',(#541),#449);
#563=STYLED_ITEM('color',(#541),#459);
#564=STYLED_ITEM('color',(#541),#469);
#565=STYLED_ITEM('color',(#541),#476);
#566=STYLED_ITEM('color',(#541),#486);
#567=STYLED_ITEM('color',(#541),#495);
#568=STYLED_ITEM('color',(#541),#505);
#569=STYLED_ITEM('color',(#541),#515);
ENDSEC;
END-ISO-10303-21;
