ISO-10303-21;
HEADER;
/* C_Disc_D5.0mm_W2.5mm_P2.50mm.step 3D STEP model for use in ECAD systems
 * Copyright (C) 2017, kicad StepUp
 *
 * This program is free software: you can redistribute it and/or modify
 * it under the terms of the GNU General Public License as published by
 * the Free Software Foundation, either version 3 of the License, or
 * any later version.
 *
 * This program is distributed in the hope that it will be useful,
 * but WITHOUT ANY WARRANTY; without even the implied warranty of
 * MERCHANTABILITY or FITNESS FOR A PARTICULAR PURPOSE.  See the
 * GNU General Public License for more details.
 *
 * You should have received a copy of the GNU General Public License
 * along with this program.  If not, see http://www.gnu.org/licenses/.
 *
 * As a special exception, if you create a design which uses this symbol,
 * and embed this symbol or unaltered portions of this symbol into the design,
 * this symbol does not by itself cause the resulting design to be covered by
 * the GNU General Public License.
 * This exception does not however invalidate any other reasons why the design
 * itself might be covered by the GNU General Public License.
 * If you modify this symbol, you may extend this exception to your version of the symbol,
 * but you are not obligated to do so.
 * If you do not wish to do so, delete this exception statement from your version
 * Risk disclaimer
 * *USE 3D CAD DATA AT YOUR OWN RISK*
 * *DO NOT RELY UPON ANY INFORMATION FOUND HERE WITHOUT INDEPENDENT VERIFICATION.*
 *
 */

FILE_DESCRIPTION(
/* description */ ('model of C_Disc_D5.0mm_W2.5mm_P2.50mm'),
/* implementation_level */ '2;1');

FILE_NAME(
/* name */ 'C_Disc_D5.0mm_W2.5mm_P2.50mm.step',
/* time_stamp */ '2017-07-29T15:42:36',
/* author */ ('kicad StepUp','ksu'),
/* organization */ ('FreeCAD'),
/* preprocessor_version */ 'OCC',
/* originating_system */ 'kicad StepUp',
/* authorisation */ '');

FILE_SCHEMA(('AUTOMOTIVE_DESIGN_CC2 { 1 2 10303 214 -1 1 5 4 }'));
ENDSEC;

DATA;
#1=APPLICATION_PROTOCOL_DEFINITION('committee draft','automotive_design',1997,#2);
#2=APPLICATION_CONTEXT('core data for automotive mechanical design processes');
#3=SHAPE_DEFINITION_REPRESENTATION(#4,#10);
#4=PRODUCT_DEFINITION_SHAPE('','',#5);
#5=PRODUCT_DEFINITION('design','',#6,#9);
#6=PRODUCT_DEFINITION_FORMATION('','',#7);
#7=PRODUCT('C_Disc_D50mm_W25mm_P250mm','C_Disc_D50mm_W25mm_P250mm','',(#8));
#8=MECHANICAL_CONTEXT('',#2,'mechanical');
#9=PRODUCT_DEFINITION_CONTEXT('part definition',#2,'design');
#10=ADVANCED_BREP_SHAPE_REPRESENTATION('',(#11,#15),#331);
#11=AXIS2_PLACEMENT_3D('',#12,#13,#14);
#12=CARTESIAN_POINT('',(0.,0.,0.));
#13=DIRECTION('',(0.,0.,1.));
#14=DIRECTION('',(1.,0.,-0.));
#15=MANIFOLD_SOLID_BREP('',#16);
#16=CLOSED_SHELL('',(#17,#32,#155,#237,#309,#325));
#17=ADVANCED_FACE('',(#18),#28,.T.);
#18=FACE_BOUND('',#19,.F.);
#19=EDGE_LOOP('',(#20));
#20=ORIENTED_EDGE('',*,*,#21,.T.);
#21=EDGE_CURVE('',#22,#22,#24,.T.);
#22=VERTEX_POINT('',#23);
#23=CARTESIAN_POINT('',(1.110223024625E-16,-0.25,-2.));
#24=CIRCLE('',#25,0.25);
#25=AXIS2_PLACEMENT_3D('',#26,#13,#27);
#26=CARTESIAN_POINT('',(8.326672684689E-17,0.,-2.));
#27=DIRECTION('',(1.110223024625E-16,-1.,0.));
#28=PLANE('',#29);
#29=AXIS2_PLACEMENT_3D('',#23,#30,#31);
#30=DIRECTION('',(0.,0.,-1.));
#31=DIRECTION('',(-1.110223024625E-16,1.,0.));
#32=ADVANCED_FACE('',(#33),#153,.T.);
#33=FACE_BOUND('',#34,.F.);
#34=EDGE_LOOP('',(#35,#36,#42,#65,#119,#152));
#35=ORIENTED_EDGE('',*,*,#21,.F.);
#36=ORIENTED_EDGE('',*,*,#37,.T.);
#37=EDGE_CURVE('',#22,#38,#40,.T.);
#38=VERTEX_POINT('',#39);
#39=CARTESIAN_POINT('',(0.,-0.25,0.679713563033));
#40=LINE('',#23,#41);
#41=VECTOR('',#13,1.);
#42=ORIENTED_EDGE('',*,*,#43,.T.);
#43=EDGE_CURVE('',#38,#44,#46,.T.);
#44=VERTEX_POINT('',#45);
#45=CARTESIAN_POINT('',(0.25,2.22044604925E-16,0.308712152522));
#46=B_SPLINE_CURVE_WITH_KNOTS('',7,(#39,#47,#48,#49,#50,#51,#52,#53,#54,#55,#56,#57,#58,#59,#60,#61,#62,#63,#64,#45),.UNSPECIFIED.,.F.,.F.,(8,6,6,8),(0.,0.247494418505,0.625913593958,1.),.UNSPECIFIED.);
#47=CARTESIAN_POINT('',(1.668230531916E-02,-0.249999998375,0.668854305725));
#48=CARTESIAN_POINT('',(3.268935444351E-02,-0.248701328528,0.657238205434));
#49=CARTESIAN_POINT('',(4.803522159591E-02,-0.246292795207,0.645058427307));
#50=CARTESIAN_POINT('',(6.272035044142E-02,-0.242904781035,0.632454202666));
#51=CARTESIAN_POINT('',(7.675482928969E-02,-0.238646669925,0.619533115348));
#52=CARTESIAN_POINT('',(9.015600539763E-02,-0.233600046125,0.606367996904));
#53=CARTESIAN_POINT('',(0.122509977475,-0.218979596467,0.572558438838));
#54=CARTESIAN_POINT('',(0.140609828749,-0.208441049645,0.551682950477));
#55=CARTESIAN_POINT('',(0.157316109399,-0.196421562524,0.530553330357));
#56=CARTESIAN_POINT('',(0.1726182291,-0.183060607604,0.509312840633));
#57=CARTESIAN_POINT('',(0.186496343419,-0.16847701509,0.488081826714));
#58=CARTESIAN_POINT('',(0.198912256603,-0.152757672748,0.466955654528));
#59=CARTESIAN_POINT('',(0.220566974034,-0.119340154572,0.425299865374));
#60=CARTESIAN_POINT('',(0.22982513794,-0.101690391402,0.404795744165));
#61=CARTESIAN_POINT('',(0.237519488802,-8.305904459744E-02,0.384568703648));
#62=CARTESIAN_POINT('',(0.243546001286,-6.35032798917E-02,0.364715891401));
#63=CARTESIAN_POINT('',(0.247762525952,-4.308939167411E-02,0.345357068252));
#64=CARTESIAN_POINT('',(0.25,-2.189707437231E-02,0.326630902667));
#65=ORIENTED_EDGE('',*,*,#66,.T.);
#66=EDGE_CURVE('',#44,#67,#69,.T.);
#67=VERTEX_POINT('',#68);
#68=CARTESIAN_POINT('',(-0.25,2.22044604925E-16,0.6));
#69=B_SPLINE_CURVE_WITH_KNOTS('',8,(#45,#70,#71,#72,#73,#74,#75,#76,#77,#78,#79,#80,#81,#82,#83,#84,#85,#86,#87,#88,#89,#90,#91,#92,#93,#94,#95,#96,#97,#98,#99,#100,#101,#102,#103,#104,#105,#106,#107,#108,#109,#110,#111,#112,#113,#114,#115,#116,#117,#118,#68),.UNSPECIFIED.,.F.,.F.,(9,7,7,7,7,7,7,9),(0.,0.199458904293,0.388869806011,0.551335379852,0.68813869272,0.752308818663,0.873281746153,1.),.UNSPECIFIED.);
#70=CARTESIAN_POINT('',(0.25,1.498658225286E-02,0.320975928876));
#71=CARTESIAN_POINT('',(0.248973335591,2.970547488316E-02,0.333655764178));
#72=CARTESIAN_POINT('',(0.24698385099,4.415203712698E-02,0.346721914111));
#73=CARTESIAN_POINT('',(0.24407301906,5.831686687487E-02,0.360152410527));
#74=CARTESIAN_POINT('',(0.240267431482,7.218729021563E-02,0.37393034107));
#75=CARTESIAN_POINT('',(0.235582496024,8.574804863202E-02,0.388042581303));
#76=CARTESIAN_POINT('',(0.230022340923,9.898118384854E-02,0.402479979305));
#77=CARTESIAN_POINT('',(0.217454258367,0.124100011701,0.43125450167));
#78=CARTESIAN_POINT('',(0.210536986697,0.136012964554,0.445551929575));
#79=CARTESIAN_POINT('',(0.202814200622,0.147589731695,0.460131967275));
#80=CARTESIAN_POINT('',(0.194266970857,0.15880635391,0.47499231283));
#81=CARTESIAN_POINT('',(0.184865535006,0.169628344583,0.490127953843));
#82=CARTESIAN_POINT('',(0.17457067718,0.180011499425,0.505530700778));
#83=CARTESIAN_POINT('',(0.163327399037,0.189899786787,0.521190841153));
#84=CARTESIAN_POINT('',(0.140500550844,0.207206481998,0.550752974867));
#85=CARTESIAN_POINT('',(0.129228829023,0.214748695337,0.564541460993));
#86=CARTESIAN_POINT('',(0.117141331693,0.22182391066,0.578506701658));
#87=CARTESIAN_POINT('',(0.104149138269,0.228367849353,0.592649461129));
#88=CARTESIAN_POINT('',(9.017343856703E-02,0.234285137733,0.606935464109));
#89=CARTESIAN_POINT('',(7.511462712787E-02,0.239426189606,0.621290562358));
#90=CARTESIAN_POINT('',(5.889216710565E-02,0.243619055255,0.635602327222));
#91=CARTESIAN_POINT('',(2.646785088722E-02,0.249048799009,0.66160429439));
#92=CARTESIAN_POINT('',(1.053825152492E-02,0.250669585469,0.673455104837));
#93=CARTESIAN_POINT('',(-6.495211866636E-03,0.251196244911,0.685043508447));
#94=CARTESIAN_POINT('',(-2.452795939285E-02,0.25035344694,0.696027839295));
#95=CARTESIAN_POINT('',(-4.334347825754E-02,0.247854159514,0.705968391387));
#96=CARTESIAN_POINT('',(-6.261131274603E-02,0.2434788272,0.714396983691));
#97=CARTESIAN_POINT('',(-8.185997201987E-02,0.237084220732,0.720824079794));
#98=CARTESIAN_POINT('',(-0.10910140322,0.225137936334,0.727038930339));
#99=CARTESIAN_POINT('',(-0.117738358649,0.220900749238,0.728562265654));
#100=CARTESIAN_POINT('',(-0.126259813586,0.21624449077,0.729589797475));
#101=CARTESIAN_POINT('',(-0.134614573334,0.211181583925,0.730098382962));
#102=CARTESIAN_POINT('',(-0.142754609382,0.205733166382,0.730076494893));
#103=CARTESIAN_POINT('',(-0.150635059404,0.199929090504,0.729524221666));
#104=CARTESIAN_POINT('',(-0.158214227257,0.193807923337,0.728453267298));
#105=CARTESIAN_POINT('',(-0.1791011494,0.175368736441,0.723934147238));
#106=CARTESIAN_POINT('',(-0.190480624416,0.163302373898,0.71945490095));
#107=CARTESIAN_POINT('',(-0.200238105405,0.151299134574,0.713971427554));
#108=CARTESIAN_POINT('',(-0.208612064754,0.139401939546,0.707696815747));
#109=CARTESIAN_POINT('',(-0.215848390386,0.127637946731,0.700829677282));
#110=CARTESIAN_POINT('',(-0.222086469131,0.116002948179,0.693465245757));
#111=CARTESIAN_POINT('',(-0.227458179431,0.104476464663,0.68567637468));
#112=CARTESIAN_POINT('',(-0.236866967882,8.100264917104E-02,0.668900233663));
#113=CARTESIAN_POINT('',(-0.240809574106,6.91100893017E-02,0.659908845036));
#114=CARTESIAN_POINT('',(-0.24397912937,5.732790968674E-02,0.650573551892));
#115=CARTESIAN_POINT('',(-0.246441454366,4.565321186972E-02,0.640940284062));
#116=CARTESIAN_POINT('',(-0.248243288901,3.408451178674E-02,0.631043013263));
#117=CARTESIAN_POINT('',(-0.249420279743,2.262052324664E-02,0.620908081359));
#118=CARTESIAN_POINT('',(-0.25,1.12596233719E-02,0.610555896911));
#119=ORIENTED_EDGE('',*,*,#120,.T.);
#120=EDGE_CURVE('',#67,#38,#121,.T.);
#121=B_SPLINE_CURVE_WITH_KNOTS('',7,(#68,#122,#123,#124,#125,#126,#127,#128,#129,#130,#131,#132,#133,#134,#135,#136,#137,#138,#139,#140,#141,#142,#143,#144,#145,#146,#147,#148,#149,#150,#151,#39),.UNSPECIFIED.,.F.,.F.,(8,6,6,6,6,8),(0.,0.241317762374,0.445644466933,0.571243661289,0.762892742629,1.),.UNSPECIFIED.);
#122=CARTESIAN_POINT('',(-0.25,-9.684935723134E-03,0.60907962724));
#123=CARTESIAN_POINT('',(-0.249562312585,-1.958663774209E-02,0.618137008422));
#124=CARTESIAN_POINT('',(-0.248651405776,-2.972573255191E-02,0.627168846356));
#125=CARTESIAN_POINT('',(-0.247221322709,-4.012175883314E-02,0.636164218682));
#126=CARTESIAN_POINT('',(-0.245209073056,-5.079675639546E-02,0.645103357498));
#127=CARTESIAN_POINT('',(-0.242537061214,-6.177469969022E-02,0.653958268044));
#128=CARTESIAN_POINT('',(-0.236139904846,-8.26955731734E-02,0.670078636971));
#129=CARTESIAN_POINT('',(-0.232704674347,-9.232384084319E-02,0.677213594013));
#130=CARTESIAN_POINT('',(-0.228740570249,-0.101972617487,0.684056031744));
#131=CARTESIAN_POINT('',(-0.224217714526,-0.111618403002,0.690558940349));
#132=CARTESIAN_POINT('',(-0.219106129615,-0.12122865342,0.696665536014));
#133=CARTESIAN_POINT('',(-0.213378796045,-0.130760638688,0.702310163112));
#134=CARTESIAN_POINT('',(-0.203102719819,-0.145938252703,0.710559708371));
#135=CARTESIAN_POINT('',(-0.198861795942,-0.151797430041,0.71356950591));
#136=CARTESIAN_POINT('',(-0.194252637482,-0.157741594401,0.716425500374));
#137=CARTESIAN_POINT('',(-0.189235443471,-0.163763565557,0.719093103767));
#138=CARTESIAN_POINT('',(-0.183769912908,-0.169845221121,0.721526228727));
#139=CARTESIAN_POINT('',(-0.177815244764,-0.175957496539,0.723667288527));
#140=CARTESIAN_POINT('',(-0.161434654467,-0.191372650112,0.728163120848));
#141=CARTESIAN_POINT('',(-0.150771379041,-0.200224266886,0.729910895034));
#142=CARTESIAN_POINT('',(-0.13943338396,-0.208451319365,0.730582732085));
#143=CARTESIAN_POINT('',(-0.127539684786,-0.215931925818,0.730132246229));
#144=CARTESIAN_POINT('',(-0.115231033896,-0.222580375236,0.728568826534));
#145=CARTESIAN_POINT('',(-0.102669342034,-0.228346795877,0.725956595388));
#146=CARTESIAN_POINT('',(-7.441667148544E-02,-0.239254373802,0.718039961547));
#147=CARTESIAN_POINT('',(-6.012989103581E-02,-0.243368610129,0.71264902643));
#148=CARTESIAN_POINT('',(-4.674363205343E-02,-0.246305062974,0.706703296775));
#149=CARTESIAN_POINT('',(-3.418334135388E-02,-0.248245212574,0.700340083922));
#150=CARTESIAN_POINT('',(-2.227742646536E-02,-0.249444115193,0.69370291271));
#151=CARTESIAN_POINT('',(-1.092751472784E-02,-0.249999998935,0.686826768263));
#152=ORIENTED_EDGE('',*,*,#37,.F.);
#153=CYLINDRICAL_SURFACE('',#154,0.25);
#154=AXIS2_PLACEMENT_3D('',#26,#30,#27);
#155=ADVANCED_FACE('',(#156),#235,.T.);
#156=FACE_BOUND('',#157,.T.);
#157=EDGE_LOOP('',(#158,#168,#119,#42,#174,#178,#232,#234));
#158=ORIENTED_EDGE('',*,*,#159,.F.);
#159=EDGE_CURVE('',#160,#162,#164,.T.);
#160=VERTEX_POINT('',#161);
#161=CARTESIAN_POINT('',(-1.25,2.22044604925E-16,2.6));
#162=VERTEX_POINT('',#163);
#163=CARTESIAN_POINT('',(1.25,-1.25,2.6));
#164=CIRCLE('',#165,3.125);
#165=AXIS2_PLACEMENT_3D('',#166,#13,#167);
#166=CARTESIAN_POINT('',(1.25,1.875,2.6));
#167=DIRECTION('',(-0.8,-0.6,0.));
#168=ORIENTED_EDGE('',*,*,#169,.T.);
#169=EDGE_CURVE('',#160,#67,#170,.T.);
#170=CIRCLE('',#171,2.5);
#171=AXIS2_PLACEMENT_3D('',#172,#27,#173);
#172=CARTESIAN_POINT('',(1.25,2.22044604925E-16,2.6));
#173=DIRECTION('',(-1.,0.,0.));
#174=ORIENTED_EDGE('',*,*,#175,.T.);
#175=EDGE_CURVE('',#44,#176,#170,.T.);
#176=VERTEX_POINT('',#177);
#177=CARTESIAN_POINT('',(2.25,2.22044604925E-16,0.308712152522));
#178=ORIENTED_EDGE('',*,*,#179,.T.);
#179=EDGE_CURVE('',#176,#180,#182,.T.);
#180=VERTEX_POINT('',#181);
#181=CARTESIAN_POINT('',(2.75,2.22044604925E-16,0.6));
#182=B_SPLINE_CURVE_WITH_KNOTS('',8,(#177,#183,#184,#185,#186,#187,#188,#189,#190,#191,#192,#193,#194,#195,#196,#197,#198,#199,#200,#201,#202,#203,#204,#205,#206,#207,#208,#209,#210,#211,#212,#213,#214,#215,#216,#217,#218,#219,#220,#221,#222,#223,#224,#225,#226,#227,#228,#229,#230,#231,#181),.UNSPECIFIED.,.F.,.F.,(9,7,7,7,7,7,7,9),(0.,0.199458904289,0.388869805961,0.551335379777,0.68813869263,0.75230881859,0.873281746118,1.),.UNSPECIFIED.);
#183=CARTESIAN_POINT('',(2.25,-1.498658225447E-02,0.320975928877));
#184=CARTESIAN_POINT('',(2.251026664409,-2.97054748863E-02,0.33365576418));
#185=CARTESIAN_POINT('',(2.253016149011,-4.41520371316E-02,0.346721914115));
#186=CARTESIAN_POINT('',(2.255926980942,-5.831686688093E-02,0.360152410532));
#187=CARTESIAN_POINT('',(2.25973256852,-7.218729022304E-02,0.373930341078));
#188=CARTESIAN_POINT('',(2.264417503979,-8.574804864071E-02,0.388042581312));
#189=CARTESIAN_POINT('',(2.269977659081,-9.898118385844E-02,0.402479979316));
#190=CARTESIAN_POINT('',(2.282545741639,-0.124100011711,0.431254501681));
#191=CARTESIAN_POINT('',(2.289463013308,-0.136012964562,0.445551929584));
#192=CARTESIAN_POINT('',(2.297185799383,-0.147589731702,0.460131967284));
#193=CARTESIAN_POINT('',(2.305733029147,-0.158806353915,0.474992312837));
#194=CARTESIAN_POINT('',(2.315134464997,-0.169628344586,0.490127953848));
#195=CARTESIAN_POINT('',(2.325429322822,-0.180011499427,0.505530700782));
#196=CARTESIAN_POINT('',(2.336672600964,-0.189899786788,0.521190841154));
#197=CARTESIAN_POINT('',(2.359499449155,-0.207206481998,0.550752974867));
#198=CARTESIAN_POINT('',(2.370771170976,-0.214748695336,0.564541460992));
#199=CARTESIAN_POINT('',(2.382858668306,-0.22182391066,0.578506701656));
#200=CARTESIAN_POINT('',(2.395850861729,-0.228367849352,0.592649461127));
#201=CARTESIAN_POINT('',(2.409826561431,-0.234285137732,0.606935464107));
#202=CARTESIAN_POINT('',(2.424885372869,-0.239426189605,0.621290562355));
#203=CARTESIAN_POINT('',(2.44110783289,-0.243619055254,0.635602327218));
#204=CARTESIAN_POINT('',(2.473532149108,-0.249048799008,0.661604294387));
#205=CARTESIAN_POINT('',(2.48946174847,-0.250669585469,0.673455104834));
#206=CARTESIAN_POINT('',(2.506495211862,-0.251196244911,0.685043508444));
#207=CARTESIAN_POINT('',(2.524527959388,-0.25035344694,0.696027839293));
#208=CARTESIAN_POINT('',(2.543343478254,-0.247854159514,0.705968391385));
#209=CARTESIAN_POINT('',(2.562611312742,-0.243478827201,0.71439698369));
#210=CARTESIAN_POINT('',(2.581859972017,-0.237084220733,0.720824079793));
#211=CARTESIAN_POINT('',(2.60910140322,-0.225137936334,0.72703893034));
#212=CARTESIAN_POINT('',(2.617738358649,-0.220900749239,0.728562265654));
#213=CARTESIAN_POINT('',(2.626259813584,-0.216244490771,0.729589797475));
#214=CARTESIAN_POINT('',(2.634614573331,-0.211181583927,0.730098382962));
#215=CARTESIAN_POINT('',(2.64275460938,-0.205733166384,0.730076494893));
#216=CARTESIAN_POINT('',(2.650635059402,-0.199929090505,0.729524221666));
#217=CARTESIAN_POINT('',(2.658214227257,-0.193807923338,0.728453267298));
#218=CARTESIAN_POINT('',(2.6791011494,-0.175368736441,0.723934147238));
#219=CARTESIAN_POINT('',(2.690480624416,-0.163302373898,0.71945490095));
#220=CARTESIAN_POINT('',(2.700238105406,-0.151299134573,0.713971427554));
#221=CARTESIAN_POINT('',(2.708612064754,-0.139401939545,0.707696815746));
#222=CARTESIAN_POINT('',(2.715848390387,-0.12763794673,0.700829677281));
#223=CARTESIAN_POINT('',(2.722086469132,-0.116002948178,0.693465245756));
#224=CARTESIAN_POINT('',(2.727458179432,-0.104476464661,0.685676374679));
#225=CARTESIAN_POINT('',(2.736866967883,-8.100264916926E-02,0.668900233661));
#226=CARTESIAN_POINT('',(2.740809574107,-6.91100893002E-02,0.659908845035));
#227=CARTESIAN_POINT('',(2.74397912937,-5.732790968549E-02,0.650573551891));
#228=CARTESIAN_POINT('',(2.746441454367,-4.565321186873E-02,0.640940284061));
#229=CARTESIAN_POINT('',(2.748243288901,-3.4084511786E-02,0.631043013262));
#230=CARTESIAN_POINT('',(2.749420279743,-2.262052324615E-02,0.620908081359));
#231=CARTESIAN_POINT('',(2.75,-1.125962337166E-02,0.610555896911));
#232=ORIENTED_EDGE('',*,*,#233,.T.);
#233=EDGE_CURVE('',#180,#160,#170,.T.);
#234=ORIENTED_EDGE('',*,*,#159,.T.);
#235=SPHERICAL_SURFACE('',#236,3.125);
#236=AXIS2_PLACEMENT_3D('',#166,#27,#173);
#237=ADVANCED_FACE('',(#238),#307,.T.);
#238=FACE_BOUND('',#239,.T.);
#239=EDGE_LOOP('',(#240,#247,#248,#249,#284,#305,#65,#306));
#240=ORIENTED_EDGE('',*,*,#241,.F.);
#241=EDGE_CURVE('',#242,#160,#244,.T.);
#242=VERTEX_POINT('',#243);
#243=CARTESIAN_POINT('',(1.25,1.25,2.6));
#244=CIRCLE('',#245,3.125);
#245=AXIS2_PLACEMENT_3D('',#246,#13,#31);
#246=CARTESIAN_POINT('',(1.25,-1.875,2.6));
#247=ORIENTED_EDGE('',*,*,#241,.T.);
#248=ORIENTED_EDGE('',*,*,#233,.F.);
#249=ORIENTED_EDGE('',*,*,#250,.T.);
#250=EDGE_CURVE('',#180,#251,#253,.T.);
#251=VERTEX_POINT('',#252);
#252=CARTESIAN_POINT('',(2.5,0.25,0.679713563033));
#253=B_SPLINE_CURVE_WITH_KNOTS('',7,(#181,#254,#255,#256,#257,#258,#259,#260,#261,#262,#263,#264,#265,#266,#267,#268,#269,#270,#271,#272,#273,#274,#275,#276,#277,#278,#279,#280,#281,#282,#283,#252),.UNSPECIFIED.,.F.,.F.,(8,6,6,6,6,8),(0.,0.241317762403,0.44564446692,0.571243661275,0.762892742603,1.),.UNSPECIFIED.);
#254=CARTESIAN_POINT('',(2.75,9.684935722549E-03,0.60907962724));
#255=CARTESIAN_POINT('',(2.749562312585,1.958663774088E-02,0.618137008421));
#256=CARTESIAN_POINT('',(2.748651405776,2.972573255005E-02,0.627168846355));
#257=CARTESIAN_POINT('',(2.74722132271,4.012175883062E-02,0.63616421868));
#258=CARTESIAN_POINT('',(2.745209073056,5.079675639222E-02,0.645103357495));
#259=CARTESIAN_POINT('',(2.742537061215,6.177469968621E-02,0.65395826804));
#260=CARTESIAN_POINT('',(2.736139904849,8.269557316476E-02,0.670078636965));
#261=CARTESIAN_POINT('',(2.732704674351,9.232384083339E-02,0.677213594006));
#262=CARTESIAN_POINT('',(2.728740570253,0.101972617478,0.684056031738));
#263=CARTESIAN_POINT('',(2.72421771453,0.111618402993,0.690558940343));
#264=CARTESIAN_POINT('',(2.71910612962,0.121228653412,0.696665536009));
#265=CARTESIAN_POINT('',(2.71337879605,0.130760638679,0.702310163106));
#266=CARTESIAN_POINT('',(2.703102719827,0.145938252692,0.710559708365));
#267=CARTESIAN_POINT('',(2.698861795951,0.15179743003,0.713569505904));
#268=CARTESIAN_POINT('',(2.694252637492,0.157741594389,0.716425500368));
#269=CARTESIAN_POINT('',(2.689235443481,0.163763565545,0.719093103762));
#270=CARTESIAN_POINT('',(2.683769912919,0.169845221109,0.721526228722));
#271=CARTESIAN_POINT('',(2.677815244776,0.175957496526,0.723667288523));
#272=CARTESIAN_POINT('',(2.661434654483,0.191372650099,0.728163120845));
#273=CARTESIAN_POINT('',(2.650771379058,0.200224266874,0.729910895033));
#274=CARTESIAN_POINT('',(2.639433383976,0.208451319354,0.730582732085));
#275=CARTESIAN_POINT('',(2.627539684801,0.215931925809,0.730132246231));
#276=CARTESIAN_POINT('',(2.615231033911,0.222580375228,0.728568826536));
#277=CARTESIAN_POINT('',(2.602669342049,0.22834679587,0.725956595391));
#278=CARTESIAN_POINT('',(2.574416671496,0.239254373799,0.718039961551));
#279=CARTESIAN_POINT('',(2.560129891044,0.243368610128,0.712649026434));
#280=CARTESIAN_POINT('',(2.54674363206,0.246305062973,0.706703296778));
#281=CARTESIAN_POINT('',(2.534183341358,0.248245212574,0.700340083924));
#282=CARTESIAN_POINT('',(2.522277426468,0.249444115193,0.693702912712));
#283=CARTESIAN_POINT('',(2.510927514729,0.249999998935,0.686826768264));
#284=ORIENTED_EDGE('',*,*,#285,.T.);
#285=EDGE_CURVE('',#251,#176,#286,.T.);
#286=B_SPLINE_CURVE_WITH_KNOTS('',7,(#252,#287,#288,#289,#290,#291,#292,#293,#294,#295,#296,#297,#298,#299,#300,#301,#302,#303,#304,#177),.UNSPECIFIED.,.F.,.F.,(8,6,6,8),(0.,0.247494418513,0.625913593946,1.),.UNSPECIFIED.);
#287=CARTESIAN_POINT('',(2.48331769468,0.249999998375,0.668854305725));
#288=CARTESIAN_POINT('',(2.467310645556,0.248701328528,0.657238205433));
#289=CARTESIAN_POINT('',(2.451964778403,0.246292795207,0.645058427306));
#290=CARTESIAN_POINT('',(2.437279649557,0.242904781034,0.632454202665));
#291=CARTESIAN_POINT('',(2.423245170708,0.238646669924,0.619533115346));
#292=CARTESIAN_POINT('',(2.4098439946,0.233600046124,0.606367996902));
#293=CARTESIAN_POINT('',(2.377490022523,0.218979596466,0.572558438836));
#294=CARTESIAN_POINT('',(2.359390171251,0.208441049644,0.551682950476));
#295=CARTESIAN_POINT('',(2.342683890601,0.196421562524,0.530553330357));
#296=CARTESIAN_POINT('',(2.327381770901,0.183060607605,0.509312840635));
#297=CARTESIAN_POINT('',(2.313503656583,0.168477015091,0.488081826717));
#298=CARTESIAN_POINT('',(2.301087743399,0.152757672751,0.466955654532));
#299=CARTESIAN_POINT('',(2.279433025968,0.119340154575,0.425299865378));
#300=CARTESIAN_POINT('',(2.270174862061,0.101690391405,0.404795744168));
#301=CARTESIAN_POINT('',(2.262480511199,8.305904459994E-02,0.384568703651));
#302=CARTESIAN_POINT('',(2.256453998714,6.35032798938E-02,0.364715891403));
#303=CARTESIAN_POINT('',(2.252237474048,4.308939167547E-02,0.345357068254));
#304=CARTESIAN_POINT('',(2.25,2.189707437304E-02,0.326630902667));
#305=ORIENTED_EDGE('',*,*,#175,.F.);
#306=ORIENTED_EDGE('',*,*,#169,.F.);
#307=SPHERICAL_SURFACE('',#308,3.125);
#308=AXIS2_PLACEMENT_3D('',#246,#27,#173);
#309=ADVANCED_FACE('',(#310),#323,.T.);
#310=FACE_BOUND('',#311,.F.);
#311=EDGE_LOOP('',(#312,#319,#284,#178,#249,#322));
#312=ORIENTED_EDGE('',*,*,#313,.F.);
#313=EDGE_CURVE('',#314,#314,#316,.T.);
#314=VERTEX_POINT('',#315);
#315=CARTESIAN_POINT('',(2.5,0.25,-2.));
#316=CIRCLE('',#317,0.25);
#317=AXIS2_PLACEMENT_3D('',#318,#13,#31);
#318=CARTESIAN_POINT('',(2.5,0.,-2.));
#319=ORIENTED_EDGE('',*,*,#320,.T.);
#320=EDGE_CURVE('',#314,#251,#321,.T.);
#321=LINE('',#315,#41);
#322=ORIENTED_EDGE('',*,*,#320,.F.);
#323=CYLINDRICAL_SURFACE('',#324,0.25);
#324=AXIS2_PLACEMENT_3D('',#318,#30,#31);
#325=ADVANCED_FACE('',(#326),#329,.T.);
#326=FACE_BOUND('',#327,.F.);
#327=EDGE_LOOP('',(#328));
#328=ORIENTED_EDGE('',*,*,#313,.T.);
#329=PLANE('',#330);
#330=AXIS2_PLACEMENT_3D('',#315,#30,#27);
#331=( GEOMETRIC_REPRESENTATION_CONTEXT(3) GLOBAL_UNCERTAINTY_ASSIGNED_CONTEXT((#335)) GLOBAL_UNIT_ASSIGNED_CONTEXT((#332,#333,#334)) REPRESENTATION_CONTEXT('Context #1','3D Context with UNIT and UNCERTAINTY') );
#332=( LENGTH_UNIT() NAMED_UNIT(*) SI_UNIT(.MILLI.,.METRE.) );
#333=( NAMED_UNIT(*) PLANE_ANGLE_UNIT() SI_UNIT($,.RADIAN.) );
#334=( NAMED_UNIT(*) SI_UNIT($,.STERADIAN.) SOLID_ANGLE_UNIT() );
#335=UNCERTAINTY_MEASURE_WITH_UNIT(LENGTH_MEASURE(5.E-07),#332,'distance_accuracy_value','confusion accuracy');
#336=MECHANICAL_DESIGN_GEOMETRIC_PRESENTATION_REPRESENTATION('',(#337,#345,#346,#354,#355,#356),#331);
#337=STYLED_ITEM('color',(#338),#17);
#338=PRESENTATION_STYLE_ASSIGNMENT((#339));
#339=SURFACE_STYLE_USAGE(.BOTH.,#340);
#340=SURFACE_SIDE_STYLE('',(#341));
#341=SURFACE_STYLE_FILL_AREA(#342);
#342=FILL_AREA_STYLE('',(#343));
#343=FILL_AREA_STYLE_COLOUR('',#344);
#344=COLOUR_RGB('',0.824000000954,0.819999992847,0.78100001812);
#345=STYLED_ITEM('color',(#338),#32);
#346=STYLED_ITEM('color',(#347),#155);
#347=PRESENTATION_STYLE_ASSIGNMENT((#348));
#348=SURFACE_STYLE_USAGE(.BOTH.,#349);
#349=SURFACE_SIDE_STYLE('',(#350));
#350=SURFACE_STYLE_FILL_AREA(#351);
#351=FILL_AREA_STYLE('',(#352));
#352=FILL_AREA_STYLE_COLOUR('',#353);
#353=COLOUR_RGB('',0.809000015259,0.425999999046,0.148000001907);
#354=STYLED_ITEM('color',(#347),#237);
#355=STYLED_ITEM('color',(#338),#309);
#356=STYLED_ITEM('color',(#338),#325);
ENDSEC;
END-ISO-10303-21;
