%TF.GenerationSoftware,KiCad,Pcbnew,10.0.6*%
%TF.CreationDate,2026-09-24T22:38:56+07:00*%
%TF.ProjectId,bpw34_receiver,62707733-345f-4726-9563-65697665722e,rev?*%
%TF.SameCoordinates,Original*%
%TF.FileFunction,Copper,L1,Top*%
%TF.FilePolarity,Positive*%
%FSLAX46Y46*%
G04 Gerber Fmt 4.6, Leading zero omitted, Abs format (unit mm)*
G04 Created by KiCad (PCBNEW 10.0.6) date 2026-09-24 22:38:56*
%MOMM*%
%LPD*%
G01*
G04 APERTURE LIST*
%TA.AperFunction,ComponentPad*%
%ADD10R,1.350000X1.350000*%
%TD*%
%TA.AperFunction,ComponentPad*%
%ADD11C,1.350000*%
%TD*%
%TA.AperFunction,ComponentPad*%
%ADD12R,2.000000X2.000000*%
%TD*%
%TA.AperFunction,ComponentPad*%
%ADD13C,2.000000*%
%TD*%
%TA.AperFunction,ComponentPad*%
%ADD14R,1.700000X1.700000*%
%TD*%
%TA.AperFunction,ComponentPad*%
%ADD15C,1.700000*%
%TD*%
%TA.AperFunction,ViaPad*%
%ADD16C,0.800000*%
%TD*%
%TA.AperFunction,Conductor*%
%ADD17C,0.350000*%
%TD*%
%TA.AperFunction,Conductor*%
%ADD18C,0.400000*%
%TD*%
%TA.AperFunction,Conductor*%
%ADD19C,0.300000*%
%TD*%
%TA.AperFunction,Conductor*%
%ADD20C,0.220000*%
%TD*%
G04 APERTURE END LIST*
D10*
%TO.P,J2,1*%
%TO.N,/OUT_IR*%
X153500000Y-127000000D03*
D11*
%TO.P,J2,2*%
%TO.N,unconnected-(J2-UNUSED-Pad2)*%
X155500000Y-127000000D03*
%TO.P,J2,3*%
%TO.N,/3V3_IR*%
X157500000Y-127000000D03*
%TO.P,J2,4*%
%TO.N,/GND_IR*%
X159500000Y-127000000D03*
%TD*%
D12*
%TO.P,D1,1*%
%TO.N,/SUM_RED*%
X113200000Y-116000000D03*
D13*
%TO.P,D1,2*%
%TO.N,/GND_RED*%
X118300000Y-116000000D03*
%TD*%
D10*
%TO.P,J1,1*%
%TO.N,/OUT_RED*%
X110500000Y-127000000D03*
D11*
%TO.P,J1,2*%
%TO.N,unconnected-(J1-UNUSED-Pad2)*%
X112500000Y-127000000D03*
%TO.P,J1,3*%
%TO.N,/3V3_RED*%
X114500000Y-127000000D03*
%TO.P,J1,4*%
%TO.N,/GND_RED*%
X116500000Y-127000000D03*
%TD*%
D12*
%TO.P,D2,1*%
%TO.N,/SUM_IR*%
X151700000Y-116000000D03*
D13*
%TO.P,D2,2*%
%TO.N,/GND_IR*%
X156800000Y-116000000D03*
%TD*%
D14*
%TO.P,J3,1*%
%TO.N,/OUT_RED*%
X122000000Y-127000000D03*
D15*
%TO.P,J3,2*%
%TO.N,/GND_RED*%
X124540000Y-127000000D03*
%TO.P,J3,3*%
%TO.N,/OUT_IR*%
X127080000Y-127000000D03*
%TO.P,J3,4*%
%TO.N,/GND_IR*%
X129620000Y-127000000D03*
%TD*%
D16*
%TO.N,/3V3_IR*%
X157500000Y-102500000D03*
X148500000Y-108500000D03*
X167800000Y-125500000D03*
%TO.N,/3V3_RED*%
X116500000Y-108500000D03*
X102200000Y-125500000D03*
X112500000Y-102500000D03*
%TO.N,/OUT_IR*%
X157500000Y-107500000D03*
%TO.N,/VREF_IR*%
X159500000Y-106500000D03*
X153500000Y-113000000D03*
%TO.N,/VREF_RED*%
X112500000Y-109000000D03*
X121500000Y-112800000D03*
%TD*%
%TO.N,/3V3_IR*%
D17*
X157500000Y-102500000D02*
X157500000Y-101500000D01*
D18*
X157500000Y-127000000D02*
X157500000Y-130000000D01*
X157500000Y-130000000D02*
X163200000Y-130000000D01*
X163200000Y-125500000D02*
X167800000Y-125500000D01*
D17*
X146500000Y-108500000D02*
X148500000Y-108500000D01*
X146500000Y-101500000D02*
X146500000Y-108500000D01*
X157500000Y-101500000D02*
X146500000Y-101500000D01*
D18*
X163200000Y-130000000D02*
X163200000Y-125500000D01*
%TO.N,/3V3_RED*%
D17*
X112500000Y-102500000D02*
X116500000Y-102500000D01*
D18*
X114500000Y-130000000D02*
X106800000Y-130000000D01*
D17*
X116500000Y-102500000D02*
X116500000Y-108500000D01*
D18*
X106800000Y-130000000D02*
X106800000Y-125500000D01*
X114500000Y-127000000D02*
X114500000Y-130000000D01*
X106800000Y-125500000D02*
X102200000Y-125500000D01*
%TO.N,/OUT_IR*%
D19*
X160000000Y-120000000D02*
X153500000Y-120000000D01*
X153500000Y-120000000D02*
X153500000Y-127000000D01*
X127080000Y-122500000D02*
X127080000Y-127000000D01*
X153500000Y-122500000D02*
X127080000Y-122500000D01*
X160000000Y-107500000D02*
X160000000Y-120000000D01*
X153500000Y-127000000D02*
X153500000Y-122500000D01*
X157500000Y-107500000D02*
X160000000Y-107500000D01*
%TO.N,/OUT_RED*%
X110500000Y-127000000D02*
X110500000Y-124000000D01*
X122000000Y-124000000D02*
X122000000Y-127000000D01*
X110500000Y-124000000D02*
X122000000Y-124000000D01*
%TO.N,/VREF_IR*%
D20*
X153500000Y-104000000D02*
X153500000Y-113000000D01*
X159500000Y-104000000D02*
X153500000Y-104000000D01*
X159500000Y-106500000D02*
X159500000Y-104000000D01*
%TO.N,/VREF_RED*%
X112500000Y-109000000D02*
X112500000Y-111700000D01*
X121500000Y-111700000D02*
X121500000Y-112800000D01*
X112500000Y-111700000D02*
X121500000Y-111700000D01*
%TD*%
M02*
