%TF.GenerationSoftware,KiCad,Pcbnew,10.0.6*%
%TF.CreationDate,2026-09-24T22:38:57+07:00*%
%TF.ProjectId,bpw34_receiver,62707733-345f-4726-9563-65697665722e,rev?*%
%TF.SameCoordinates,Original*%
%TF.FileFunction,Soldermask,Bot*%
%TF.FilePolarity,Negative*%
%FSLAX46Y46*%
G04 Gerber Fmt 4.6, Leading zero omitted, Abs format (unit mm)*
G04 Created by KiCad (PCBNEW 10.0.6) date 2026-09-24 22:38:57*
%MOMM*%
%LPD*%
G01*
G04 APERTURE LIST*
G04 Aperture macros list*
%AMRoundRect*
0 Rectangle with rounded corners*
0 $1 Rounding radius*
0 $2 $3 $4 $5 $6 $7 $8 $9 X,Y pos of 4 corners*
0 Add a 4 corners polygon primitive as box body*
4,1,4,$2,$3,$4,$5,$6,$7,$8,$9,$2,$3,0*
0 Add four circle primitives for the rounded corners*
1,1,$1+$1,$2,$3*
1,1,$1+$1,$4,$5*
1,1,$1+$1,$6,$7*
1,1,$1+$1,$8,$9*
0 Add four rect primitives between the rounded corners*
20,1,$1+$1,$2,$3,$4,$5,0*
20,1,$1+$1,$4,$5,$6,$7,0*
20,1,$1+$1,$6,$7,$8,$9,0*
20,1,$1+$1,$8,$9,$2,$3,0*%
G04 Aperture macros list end*
%ADD10C,3.200000*%
%ADD11R,1.350000X1.350000*%
%ADD12C,1.350000*%
%ADD13R,2.000000X2.000000*%
%ADD14C,2.000000*%
%ADD15R,1.700000X1.700000*%
%ADD16C,1.700000*%
%ADD17RoundRect,0.250000X0.450000X-0.350000X0.450000X0.350000X-0.450000X0.350000X-0.450000X-0.350000X0*%
%ADD18RoundRect,0.250000X0.337500X0.475000X-0.337500X0.475000X-0.337500X-0.475000X0.337500X-0.475000X0*%
%ADD19RoundRect,0.250000X-0.350000X-0.450000X0.350000X-0.450000X0.350000X0.450000X-0.350000X0.450000X0*%
%ADD20RoundRect,0.250000X-0.337500X-0.475000X0.337500X-0.475000X0.337500X0.475000X-0.337500X0.475000X0*%
%ADD21RoundRect,0.250000X-0.475000X0.337500X-0.475000X-0.337500X0.475000X-0.337500X0.475000X0.337500X0*%
%ADD22RoundRect,0.162500X0.617500X0.162500X-0.617500X0.162500X-0.617500X-0.162500X0.617500X-0.162500X0*%
G04 APERTURE END LIST*
D10*
%TO.C,H1*%
X104500000Y-103500000D03*
%TD*%
D11*
%TO.C,J2*%
X153500000Y-127000000D03*
D12*
X155500000Y-127000000D03*
X157500000Y-127000000D03*
X159500000Y-127000000D03*
%TD*%
D10*
%TO.C,H2*%
X165500000Y-103500000D03*
%TD*%
D13*
%TO.C,D1*%
X113200000Y-116000000D03*
D14*
X118300000Y-116000000D03*
%TD*%
D11*
%TO.C,J1*%
X110500000Y-127000000D03*
D12*
X112500000Y-127000000D03*
X114500000Y-127000000D03*
X116500000Y-127000000D03*
%TD*%
D10*
%TO.C,H4*%
X165500000Y-128500000D03*
%TD*%
D13*
%TO.C,D2*%
X151700000Y-116000000D03*
D14*
X156800000Y-116000000D03*
%TD*%
D10*
%TO.C,H3*%
X104500000Y-128500000D03*
%TD*%
D15*
%TO.C,J3*%
X122000000Y-127000000D03*
D16*
X124540000Y-127000000D03*
X127080000Y-127000000D03*
X129620000Y-127000000D03*
%TD*%
D17*
%TO.C,R7*%
X108500000Y-112000000D03*
X108500000Y-110000000D03*
%TD*%
D18*
%TO.C,C5*%
X111537500Y-102500000D03*
X109462500Y-102500000D03*
%TD*%
D19*
%TO.C,R2*%
X150000000Y-105000000D03*
X152000000Y-105000000D03*
%TD*%
D17*
%TO.C,R6*%
X161500000Y-107000000D03*
X161500000Y-105000000D03*
%TD*%
D20*
%TO.C,C1*%
X117962500Y-107500000D03*
X120037500Y-107500000D03*
%TD*%
D19*
%TO.C,R4*%
X154500000Y-107500000D03*
X156500000Y-107500000D03*
%TD*%
D20*
%TO.C,C2*%
X149962500Y-107500000D03*
X152037500Y-107500000D03*
%TD*%
%TO.C,C6*%
X158462500Y-102500000D03*
X160537500Y-102500000D03*
%TD*%
D17*
%TO.C,R8*%
X161500000Y-112000000D03*
X161500000Y-110000000D03*
%TD*%
D21*
%TO.C,C4*%
X158500000Y-109962500D03*
X158500000Y-112037500D03*
%TD*%
D22*
%TO.C,U1*%
X120350000Y-109550000D03*
X120350000Y-110500000D03*
X120350000Y-111450000D03*
X117650000Y-111450000D03*
X117650000Y-109550000D03*
%TD*%
D21*
%TO.C,C3*%
X111500000Y-109962500D03*
X111500000Y-112037500D03*
%TD*%
D19*
%TO.C,R3*%
X123500000Y-109550000D03*
X125500000Y-109550000D03*
%TD*%
%TO.C,R1*%
X118000000Y-105000000D03*
X120000000Y-105000000D03*
%TD*%
D22*
%TO.C,U2*%
X152350000Y-109550000D03*
X152350000Y-110500000D03*
X152350000Y-111450000D03*
X149650000Y-111450000D03*
X149650000Y-109550000D03*
%TD*%
D17*
%TO.C,R5*%
X108500000Y-107000000D03*
X108500000Y-105000000D03*
%TD*%
M02*
