%TF.GenerationSoftware,KiCad,Pcbnew,10.0.6*%
%TF.CreationDate,2026-10-02T09:46:16+07:00*%
%TF.ProjectId,bpw34_receiver,62707733-345f-4726-9563-65697665722e,rev?*%
%TF.SameCoordinates,Original*%
%TF.FileFunction,Paste,Bot*%
%TF.FilePolarity,Positive*%
%FSLAX46Y46*%
G04 Gerber Fmt 4.6, Leading zero omitted, Abs format (unit mm)*
G04 Created by KiCad (PCBNEW 10.0.6) date 2026-10-02 09:46:16*
%MOMM*%
%LPD*%
G01*
G04 APERTURE LIST*
G04 Aperture macros list*
%AMRoundRect*
0 Rectangle with rounded corners*
0 $1 Rounding radius*
0 $2 $3 $4 $5 $6 $7 $8 $9 X,Y pos of 4 corners*
0 Add a 4 corners polygon primitive as box body*
4,1,4,$2,$3,$4,$5,$6,$7,$8,$9,$2,$3,0*
0 Add four circle primitives for the rounded corners*
1,1,$1+$1,$2,$3*
1,1,$1+$1,$4,$5*
1,1,$1+$1,$6,$7*
1,1,$1+$1,$8,$9*
0 Add four rect primitives between the rounded corners*
20,1,$1+$1,$2,$3,$4,$5,0*
20,1,$1+$1,$4,$5,$6,$7,0*
20,1,$1+$1,$6,$7,$8,$9,0*
20,1,$1+$1,$8,$9,$2,$3,0*%
G04 Aperture macros list end*
%ADD10RoundRect,0.250000X-0.350000X-0.450000X0.350000X-0.450000X0.350000X0.450000X-0.350000X0.450000X0*%
%ADD11RoundRect,0.250000X-0.337500X-0.475000X0.337500X-0.475000X0.337500X0.475000X-0.337500X0.475000X0*%
%ADD12RoundRect,0.250000X0.450000X-0.350000X0.450000X0.350000X-0.450000X0.350000X-0.450000X-0.350000X0*%
%ADD13RoundRect,0.250000X-0.475000X0.337500X-0.475000X-0.337500X0.475000X-0.337500X0.475000X0.337500X0*%
%ADD14RoundRect,0.162500X0.617500X0.162500X-0.617500X0.162500X-0.617500X-0.162500X0.617500X-0.162500X0*%
%ADD15RoundRect,0.250000X0.337500X0.475000X-0.337500X0.475000X-0.337500X-0.475000X0.337500X-0.475000X0*%
G04 APERTURE END LIST*
D10*
%TO.C,R3*%
X123500000Y-109550000D03*
X125500000Y-109550000D03*
%TD*%
D11*
%TO.C,C2*%
X149962500Y-107500000D03*
X152037500Y-107500000D03*
%TD*%
D12*
%TO.C,R6*%
X161500000Y-107000000D03*
X161500000Y-105000000D03*
%TD*%
D13*
%TO.C,C3*%
X111500000Y-109962500D03*
X111500000Y-112037500D03*
%TD*%
D10*
%TO.C,R1*%
X118000000Y-105000000D03*
X120000000Y-105000000D03*
%TD*%
D12*
%TO.C,R7*%
X108500000Y-112000000D03*
X108500000Y-110000000D03*
%TD*%
D14*
%TO.C,U1*%
X120350000Y-109550000D03*
X120350000Y-110500000D03*
X120350000Y-111450000D03*
X117650000Y-111450000D03*
X117650000Y-109550000D03*
%TD*%
D11*
%TO.C,C8*%
X155962500Y-122000000D03*
X158037500Y-122000000D03*
%TD*%
D13*
%TO.C,C4*%
X158500000Y-109962500D03*
X158500000Y-112037500D03*
%TD*%
D15*
%TO.C,C5*%
X111537500Y-102500000D03*
X109462500Y-102500000D03*
%TD*%
D11*
%TO.C,C6*%
X158462500Y-102500000D03*
X160537500Y-102500000D03*
%TD*%
D12*
%TO.C,R8*%
X161500000Y-112000000D03*
X161500000Y-110000000D03*
%TD*%
D11*
%TO.C,C1*%
X117962500Y-107500000D03*
X120037500Y-107500000D03*
%TD*%
%TO.C,C7*%
X112962500Y-122000000D03*
X115037500Y-122000000D03*
%TD*%
D12*
%TO.C,R5*%
X108500000Y-107000000D03*
X108500000Y-105000000D03*
%TD*%
D10*
%TO.C,R4*%
X154500000Y-107500000D03*
X156500000Y-107500000D03*
%TD*%
D14*
%TO.C,U2*%
X152350000Y-109550000D03*
X152350000Y-110500000D03*
X152350000Y-111450000D03*
X149650000Y-111450000D03*
X149650000Y-109550000D03*
%TD*%
D10*
%TO.C,R2*%
X150000000Y-105000000D03*
X152000000Y-105000000D03*
%TD*%
M02*
