%TF.GenerationSoftware,KiCad,Pcbnew,10.0.6*%
%TF.CreationDate,2026-10-02T11:06:24+07:00*%
%TF.ProjectId,bpw34_receiver,62707733-345f-4726-9563-65697665722e,rev?*%
%TF.SameCoordinates,Original*%
%TF.FileFunction,Copper,L2,Bot*%
%TF.FilePolarity,Positive*%
%FSLAX46Y46*%
G04 Gerber Fmt 4.6, Leading zero omitted, Abs format (unit mm)*
G04 Created by KiCad (PCBNEW 10.0.6) date 2026-10-02 11:06:24*
%MOMM*%
%LPD*%
G01*
G04 APERTURE LIST*
G04 Aperture macros list*
%AMRoundRect*
0 Rectangle with rounded corners*
0 $1 Rounding radius*
0 $2 $3 $4 $5 $6 $7 $8 $9 X,Y pos of 4 corners*
0 Add a 4 corners polygon primitive as box body*
4,1,4,$2,$3,$4,$5,$6,$7,$8,$9,$2,$3,0*
0 Add four circle primitives for the rounded corners*
1,1,$1+$1,$2,$3*
1,1,$1+$1,$4,$5*
1,1,$1+$1,$6,$7*
1,1,$1+$1,$8,$9*
0 Add four rect primitives between the rounded corners*
20,1,$1+$1,$2,$3,$4,$5,0*
20,1,$1+$1,$4,$5,$6,$7,0*
20,1,$1+$1,$6,$7,$8,$9,0*
20,1,$1+$1,$8,$9,$2,$3,0*%
G04 Aperture macros list end*
%TA.AperFunction,ComponentPad*%
%ADD10R,2.000000X2.000000*%
%TD*%
%TA.AperFunction,ComponentPad*%
%ADD11C,2.000000*%
%TD*%
%TA.AperFunction,ComponentPad*%
%ADD12R,1.350000X1.350000*%
%TD*%
%TA.AperFunction,ComponentPad*%
%ADD13C,1.350000*%
%TD*%
%TA.AperFunction,ComponentPad*%
%ADD14R,1.700000X1.700000*%
%TD*%
%TA.AperFunction,ComponentPad*%
%ADD15C,1.700000*%
%TD*%
%TA.AperFunction,SMDPad,CuDef*%
%ADD16RoundRect,0.250000X0.450000X-0.350000X0.450000X0.350000X-0.450000X0.350000X-0.450000X-0.350000X0*%
%TD*%
%TA.AperFunction,SMDPad,CuDef*%
%ADD17RoundRect,0.250000X-0.350000X-0.450000X0.350000X-0.450000X0.350000X0.450000X-0.350000X0.450000X0*%
%TD*%
%TA.AperFunction,SMDPad,CuDef*%
%ADD18RoundRect,0.162500X0.617500X0.162500X-0.617500X0.162500X-0.617500X-0.162500X0.617500X-0.162500X0*%
%TD*%
%TA.AperFunction,SMDPad,CuDef*%
%ADD19RoundRect,0.250000X-0.337500X-0.475000X0.337500X-0.475000X0.337500X0.475000X-0.337500X0.475000X0*%
%TD*%
%TA.AperFunction,SMDPad,CuDef*%
%ADD20RoundRect,0.250000X-0.475000X0.337500X-0.475000X-0.337500X0.475000X-0.337500X0.475000X0.337500X0*%
%TD*%
%TA.AperFunction,SMDPad,CuDef*%
%ADD21RoundRect,0.250000X0.337500X0.475000X-0.337500X0.475000X-0.337500X-0.475000X0.337500X-0.475000X0*%
%TD*%
%TA.AperFunction,ViaPad*%
%ADD22C,0.800000*%
%TD*%
%TA.AperFunction,ViaPad*%
%ADD23C,0.650000*%
%TD*%
%TA.AperFunction,Conductor*%
%ADD24C,0.300000*%
%TD*%
%TA.AperFunction,Conductor*%
%ADD25C,0.350000*%
%TD*%
%TA.AperFunction,Conductor*%
%ADD26C,0.400000*%
%TD*%
%TA.AperFunction,Conductor*%
%ADD27C,0.220000*%
%TD*%
%TA.AperFunction,Conductor*%
%ADD28C,0.200000*%
%TD*%
G04 APERTURE END LIST*
D10*
%TO.P,D1,1*%
%TO.N,/SUM_RED*%
X113200000Y-110000000D03*
D11*
%TO.P,D1,2*%
%TO.N,/GND_RED*%
X118300000Y-110000000D03*
%TD*%
D12*
%TO.P,J1,1*%
%TO.N,/OUT_RED*%
X110500000Y-116666666D03*
D13*
%TO.P,J1,2*%
%TO.N,unconnected-(J1-UNUSED-Pad2)*%
X112500000Y-116666666D03*
%TO.P,J1,3*%
%TO.N,/3V3_RED*%
X114500000Y-116666666D03*
%TO.P,J1,4*%
%TO.N,/GND_RED*%
X116500000Y-116666666D03*
%TD*%
D14*
%TO.P,J3,1*%
%TO.N,/OUT_RED*%
X122000000Y-116666666D03*
D15*
%TO.P,J3,2*%
%TO.N,/GND_RED*%
X124540000Y-116666666D03*
%TO.P,J3,3*%
%TO.N,/OUT_IR*%
X127080000Y-116666666D03*
%TO.P,J3,4*%
%TO.N,/GND_IR*%
X129620000Y-116666666D03*
%TD*%
D12*
%TO.P,J2,1*%
%TO.N,/OUT_IR*%
X153500000Y-116666666D03*
D13*
%TO.P,J2,2*%
%TO.N,unconnected-(J2-UNUSED-Pad2)*%
X155500000Y-116666666D03*
%TO.P,J2,3*%
%TO.N,/3V3_IR*%
X157500000Y-116666666D03*
%TO.P,J2,4*%
%TO.N,/GND_IR*%
X159500000Y-116666666D03*
%TD*%
D10*
%TO.P,D2,1*%
%TO.N,/SUM_IR*%
X151700000Y-110000000D03*
D11*
%TO.P,D2,2*%
%TO.N,/GND_IR*%
X156800000Y-110000000D03*
%TD*%
D16*
%TO.P,R7,1*%
%TO.N,/GND_RED*%
X108500000Y-109200000D03*
%TO.P,R7,2*%
%TO.N,/VREF_RED*%
X108500000Y-107200000D03*
%TD*%
D17*
%TO.P,R3,1*%
%TO.N,/FB_RED*%
X123500000Y-106366666D03*
%TO.P,R3,2*%
%TO.N,/OUT_RED*%
X125500000Y-106366666D03*
%TD*%
D16*
%TO.P,R6,1*%
%TO.N,/VREF_IR*%
X161500000Y-105000000D03*
%TO.P,R6,2*%
%TO.N,/3V3_IR*%
X161500000Y-103000000D03*
%TD*%
D18*
%TO.P,U1,1*%
%TO.N,/FB_RED*%
X120350000Y-106050000D03*
%TO.P,U1,2*%
%TO.N,/GND_RED*%
X120350000Y-107000000D03*
%TO.P,U1,3*%
%TO.N,/VREF_RED*%
X120350000Y-107950000D03*
%TO.P,U1,4*%
%TO.N,/SUM_RED*%
X117650000Y-107950000D03*
%TO.P,U1,5*%
%TO.N,/3V3_RED*%
X117650000Y-106050000D03*
%TD*%
D19*
%TO.P,C2,1*%
%TO.N,/SUM_IR*%
X149962500Y-103950000D03*
%TO.P,C2,2*%
%TO.N,/FB_IR*%
X152037500Y-103950000D03*
%TD*%
D17*
%TO.P,R4,1*%
%TO.N,/FB_IR*%
X154500000Y-105000000D03*
%TO.P,R4,2*%
%TO.N,/OUT_IR*%
X156500000Y-105000000D03*
%TD*%
%TO.P,R2,1*%
%TO.N,/SUM_IR*%
X150000000Y-101650000D03*
%TO.P,R2,2*%
%TO.N,/FB_IR*%
X152000000Y-101650000D03*
%TD*%
D16*
%TO.P,R5,1*%
%TO.N,/VREF_RED*%
X108500000Y-105000000D03*
%TO.P,R5,2*%
%TO.N,/3V3_RED*%
X108500000Y-103000000D03*
%TD*%
D20*
%TO.P,C3,1*%
%TO.N,/VREF_RED*%
X105500000Y-107162500D03*
%TO.P,C3,2*%
%TO.N,/GND_RED*%
X105500000Y-109237500D03*
%TD*%
D19*
%TO.P,C6,1*%
%TO.N,/3V3_IR*%
X163462500Y-101400000D03*
%TO.P,C6,2*%
%TO.N,/GND_IR*%
X165537500Y-101400000D03*
%TD*%
D21*
%TO.P,C5,1*%
%TO.N,/3V3_RED*%
X106537500Y-101400000D03*
%TO.P,C5,2*%
%TO.N,/GND_RED*%
X104462500Y-101400000D03*
%TD*%
D17*
%TO.P,R1,1*%
%TO.N,/SUM_RED*%
X118000000Y-101650000D03*
%TO.P,R1,2*%
%TO.N,/FB_RED*%
X120000000Y-101650000D03*
%TD*%
D20*
%TO.P,C4,1*%
%TO.N,/VREF_IR*%
X164500000Y-107162500D03*
%TO.P,C4,2*%
%TO.N,/GND_IR*%
X164500000Y-109237500D03*
%TD*%
D16*
%TO.P,R8,1*%
%TO.N,/GND_IR*%
X161500000Y-109200000D03*
%TO.P,R8,2*%
%TO.N,/VREF_IR*%
X161500000Y-107200000D03*
%TD*%
D19*
%TO.P,C7,1*%
%TO.N,/OUT_RED*%
X112962500Y-114666666D03*
%TO.P,C7,2*%
%TO.N,/GND_RED*%
X115037500Y-114666666D03*
%TD*%
D18*
%TO.P,U2,1*%
%TO.N,/FB_IR*%
X152350000Y-106050000D03*
%TO.P,U2,2*%
%TO.N,/GND_IR*%
X152350000Y-107000000D03*
%TO.P,U2,3*%
%TO.N,/VREF_IR*%
X152350000Y-107950000D03*
%TO.P,U2,4*%
%TO.N,/SUM_IR*%
X149650000Y-107950000D03*
%TO.P,U2,5*%
%TO.N,/3V3_IR*%
X149650000Y-106050000D03*
%TD*%
D19*
%TO.P,C1,1*%
%TO.N,/SUM_RED*%
X117962500Y-103950000D03*
%TO.P,C1,2*%
%TO.N,/FB_RED*%
X120037500Y-103950000D03*
%TD*%
%TO.P,C8,1*%
%TO.N,/OUT_IR*%
X155962500Y-114666666D03*
%TO.P,C8,2*%
%TO.N,/GND_IR*%
X158037500Y-114666666D03*
%TD*%
D22*
%TO.N,/3V3_RED*%
X112500000Y-101666666D03*
X116500000Y-105666666D03*
X108000000Y-115333333D03*
D23*
%TO.N,/GND_RED*%
X103500000Y-110000000D03*
X103500000Y-102000000D03*
%TO.N,/GND_IR*%
X166500000Y-102000000D03*
X166500000Y-110000000D03*
D22*
%TO.N,/OUT_IR*%
X157500000Y-105000000D03*
X153500000Y-114666666D03*
%TO.N,/3V3_IR*%
X157500000Y-101666666D03*
X148500000Y-105666666D03*
X162000000Y-115333333D03*
%TO.N,/VREF_RED*%
X112500000Y-106000000D03*
X121500000Y-108533333D03*
%TO.N,/VREF_IR*%
X155000000Y-103500000D03*
X153500000Y-108666666D03*
%TD*%
%TO.N,/OUT_RED*%
D24*
X126000000Y-113333333D02*
X110500000Y-113333333D01*
X125500000Y-106366666D02*
X126000000Y-106366666D01*
X112962500Y-114666666D02*
X110500000Y-114666666D01*
X126000000Y-106366666D02*
X126000000Y-113333333D01*
X110500000Y-113333333D02*
X110500000Y-116666666D01*
%TO.N,/3V3_RED*%
D25*
X116500000Y-106366666D02*
X117650000Y-106366666D01*
X112500000Y-101400000D02*
X112500000Y-101666666D01*
X117650000Y-106366666D02*
X117650000Y-106050000D01*
D26*
X101000000Y-115333333D02*
X101000000Y-104000000D01*
D25*
X111550000Y-103000000D02*
X111550000Y-103333333D01*
X108500000Y-103000000D02*
X111550000Y-103000000D01*
D26*
X101000000Y-104000000D02*
X107500000Y-104000000D01*
X107500000Y-104000000D02*
X107500000Y-103333333D01*
D25*
X111550000Y-101666666D02*
X106537500Y-101666666D01*
D26*
X108000000Y-115333333D02*
X101000000Y-115333333D01*
D25*
X111550000Y-103333333D02*
X111550000Y-101666666D01*
X106537500Y-101400000D02*
X112500000Y-101400000D01*
X116500000Y-105666666D02*
X116500000Y-106366666D01*
D26*
X108500000Y-103333333D02*
X108500000Y-103000000D01*
X107500000Y-103333333D02*
X108500000Y-103333333D01*
D25*
X106537500Y-101666666D02*
X106537500Y-101400000D01*
%TO.N,/SUM_RED*%
D27*
X113200000Y-110266666D02*
X113800000Y-110266666D01*
X113800000Y-108533333D02*
X113800000Y-103333333D01*
X113800000Y-108533333D02*
X117650000Y-108533333D01*
X113200000Y-110000000D02*
X113200000Y-110266666D01*
X117650000Y-108533333D02*
X117650000Y-107950000D01*
X113800000Y-103333333D02*
X118000000Y-103333333D01*
X118000000Y-103333333D02*
X118000000Y-101650000D01*
X113800000Y-110266666D02*
X113800000Y-108533333D01*
X113800000Y-103950000D02*
X117962500Y-103950000D01*
%TO.N,/SUM_IR*%
X147500000Y-103333333D02*
X150000000Y-103333333D01*
X151700000Y-110000000D02*
X151700000Y-109000000D01*
X147500000Y-109000000D02*
X147500000Y-103333333D01*
X149650000Y-109000000D02*
X149650000Y-107950000D01*
X150000000Y-103333333D02*
X150000000Y-101650000D01*
X151700000Y-109000000D02*
X149650000Y-109000000D01*
X149650000Y-109000000D02*
X147500000Y-109000000D01*
X147500000Y-103950000D02*
X149962500Y-103950000D01*
%TO.N,/GND_IR*%
D25*
X152350000Y-107000000D02*
X155500000Y-107000000D01*
D26*
X129620000Y-116666666D02*
X129620000Y-118666666D01*
X129620000Y-118666666D02*
X137200000Y-118666666D01*
D25*
X155500000Y-107000000D02*
X155500000Y-109000000D01*
%TO.N,/OUT_IR*%
D24*
X156500000Y-105000000D02*
X157500000Y-105000000D01*
X155962500Y-114666666D02*
X153500000Y-114666666D01*
%TO.N,/3V3_IR*%
D25*
X157500000Y-101400000D02*
X157500000Y-101666666D01*
X158450000Y-103000000D02*
X158450000Y-103333333D01*
X163462500Y-101666666D02*
X163462500Y-101400000D01*
D26*
X169000000Y-115333333D02*
X169000000Y-104000000D01*
X162500000Y-103333333D02*
X161500000Y-103333333D01*
X162500000Y-104000000D02*
X162500000Y-103333333D01*
D25*
X158450000Y-101666666D02*
X163462500Y-101666666D01*
X148500000Y-105666666D02*
X148500000Y-106366666D01*
X163462500Y-101400000D02*
X157500000Y-101400000D01*
X148500000Y-106366666D02*
X149650000Y-106366666D01*
D26*
X162000000Y-115333333D02*
X169000000Y-115333333D01*
X169000000Y-104000000D02*
X162500000Y-104000000D01*
D25*
X158450000Y-103333333D02*
X158450000Y-101666666D01*
X161500000Y-103000000D02*
X158450000Y-103000000D01*
D26*
X161500000Y-103333333D02*
X161500000Y-103000000D01*
D25*
X149650000Y-106366666D02*
X149650000Y-106050000D01*
%TO.N,/VREF_RED*%
D27*
X110000000Y-106666666D02*
X108500000Y-106666666D01*
X105500000Y-106641666D02*
X105500000Y-107162500D01*
X121500000Y-108533333D02*
X120350000Y-108533333D01*
X110000000Y-105000000D02*
X110000000Y-104666666D01*
X108500000Y-106666666D02*
X108500000Y-107200000D01*
X105500000Y-107162500D02*
X112500000Y-107162500D01*
X108500000Y-105000000D02*
X110000000Y-105000000D01*
X110000000Y-106641666D02*
X105500000Y-106641666D01*
X110000000Y-104666666D02*
X110000000Y-106666666D01*
X112500000Y-107162500D02*
X112500000Y-106641666D01*
X120350000Y-108533333D02*
X120350000Y-107950000D01*
X112500000Y-106641666D02*
X112500000Y-106000000D01*
%TO.N,/FB_RED*%
X120000000Y-103333333D02*
X120000000Y-101650000D01*
X120350000Y-106050000D02*
X121200000Y-106050000D01*
X120350000Y-106050000D02*
X123500000Y-106050000D01*
X121200000Y-106366666D02*
X121200000Y-103333333D01*
X120037500Y-105000000D02*
X120037500Y-103950000D01*
X121200000Y-105000000D02*
X120037500Y-105000000D01*
X121200000Y-103333333D02*
X120000000Y-103333333D01*
X123500000Y-106050000D02*
X123500000Y-106366666D01*
X121200000Y-106050000D02*
X121200000Y-106366666D01*
%TO.N,/FB_IR*%
D28*
X154500000Y-106366666D02*
X154500000Y-105000000D01*
X152000000Y-103333333D02*
X152000000Y-101650000D01*
X153000000Y-105000000D02*
X152037500Y-105000000D01*
X152350000Y-106050000D02*
X153000000Y-106050000D01*
X154500000Y-106050000D02*
X154500000Y-106366666D01*
X153000000Y-106366666D02*
X153000000Y-103333333D01*
X152037500Y-105000000D02*
X152037500Y-103950000D01*
X152350000Y-106050000D02*
X154500000Y-106050000D01*
X153000000Y-106050000D02*
X153000000Y-106366666D01*
X153000000Y-103333333D02*
X152000000Y-103333333D01*
%TO.N,/VREF_IR*%
D27*
X160000000Y-106666666D02*
X161500000Y-106666666D01*
X164500000Y-106641666D02*
X164500000Y-107162500D01*
X159500000Y-103850000D02*
X159500000Y-106641667D01*
X164500000Y-107162500D02*
X159500000Y-107162500D01*
X155000000Y-103850000D02*
X159500000Y-103850000D01*
X159500000Y-107162500D02*
X159500000Y-106641666D01*
X161500000Y-105000000D02*
X160000000Y-105000000D01*
X155000000Y-103500000D02*
X155000000Y-103850000D01*
X161500000Y-106666666D02*
X161500000Y-107200000D01*
X160000000Y-105000000D02*
X160000000Y-104666666D01*
X160000000Y-106641666D02*
X164500000Y-106641666D01*
X160000000Y-104666666D02*
X160000000Y-106666666D01*
X152350000Y-108666666D02*
X152350000Y-107950000D01*
X153500000Y-108666666D02*
X152350000Y-108666666D01*
%TD*%
%TA.AperFunction,Conductor*%
%TO.N,/GND_RED*%
G36*
X132943039Y-100619685D02*
G01*
X132988794Y-100672489D01*
X133000000Y-100724000D01*
X133000000Y-118042166D01*
X132980315Y-118109205D01*
X132927511Y-118154960D01*
X132876000Y-118166166D01*
X130244500Y-118166166D01*
X130177461Y-118146481D01*
X130131706Y-118093677D01*
X130120500Y-118042166D01*
X130120500Y-117778872D01*
X130140185Y-117711833D01*
X130188205Y-117668387D01*
X130222994Y-117650662D01*
X130369501Y-117544219D01*
X130497553Y-117416167D01*
X130603996Y-117269660D01*
X130686211Y-117108305D01*
X130742171Y-116936075D01*
X130760388Y-116821060D01*
X130770500Y-116757217D01*
X130770500Y-116576114D01*
X130742189Y-116397372D01*
X130742171Y-116397257D01*
X130696226Y-116255851D01*
X130686212Y-116225029D01*
X130686211Y-116225026D01*
X130651914Y-116157716D01*
X130603996Y-116063672D01*
X130562950Y-116007177D01*
X130497558Y-115917171D01*
X130497554Y-115917166D01*
X130369499Y-115789111D01*
X130369494Y-115789107D01*
X130222997Y-115682672D01*
X130222996Y-115682671D01*
X130222994Y-115682670D01*
X130146906Y-115643901D01*
X130061639Y-115600454D01*
X130061636Y-115600453D01*
X129889410Y-115544495D01*
X129710551Y-115516166D01*
X129710546Y-115516166D01*
X129529454Y-115516166D01*
X129529449Y-115516166D01*
X129350589Y-115544495D01*
X129178363Y-115600453D01*
X129178360Y-115600454D01*
X129017002Y-115682672D01*
X128870505Y-115789107D01*
X128870500Y-115789111D01*
X128742445Y-115917166D01*
X128742441Y-115917171D01*
X128636006Y-116063668D01*
X128553788Y-116225026D01*
X128553787Y-116225029D01*
X128497829Y-116397255D01*
X128472473Y-116557344D01*
X128442544Y-116620479D01*
X128383232Y-116657410D01*
X128313369Y-116656412D01*
X128255137Y-116617802D01*
X128227527Y-116557344D01*
X128202189Y-116397372D01*
X128202171Y-116397257D01*
X128156226Y-116255851D01*
X128146212Y-116225029D01*
X128146211Y-116225026D01*
X128111914Y-116157716D01*
X128063996Y-116063672D01*
X128022950Y-116007177D01*
X127957558Y-115917171D01*
X127957554Y-115917166D01*
X127829499Y-115789111D01*
X127829494Y-115789107D01*
X127682997Y-115682672D01*
X127682996Y-115682671D01*
X127682994Y-115682670D01*
X127606906Y-115643901D01*
X127521639Y-115600454D01*
X127521636Y-115600453D01*
X127349410Y-115544495D01*
X127170551Y-115516166D01*
X127170546Y-115516166D01*
X126989454Y-115516166D01*
X126989449Y-115516166D01*
X126810589Y-115544495D01*
X126638363Y-115600453D01*
X126638360Y-115600454D01*
X126477002Y-115682672D01*
X126330505Y-115789107D01*
X126330500Y-115789111D01*
X126202445Y-115917166D01*
X126202441Y-115917171D01*
X126096006Y-116063668D01*
X126013788Y-116225026D01*
X126013787Y-116225029D01*
X125957829Y-116397255D01*
X125932219Y-116558946D01*
X125902289Y-116622080D01*
X125842978Y-116659011D01*
X125773115Y-116658013D01*
X125714883Y-116619403D01*
X125687273Y-116558945D01*
X125661682Y-116397372D01*
X125605748Y-116225221D01*
X125605747Y-116225218D01*
X125523565Y-116063931D01*
X125482331Y-116007177D01*
X125482330Y-116007176D01*
X125008018Y-116481487D01*
X125005925Y-116473673D01*
X124940099Y-116359659D01*
X124847007Y-116266567D01*
X124732993Y-116200741D01*
X124725176Y-116198646D01*
X125199487Y-115724334D01*
X125199487Y-115724333D01*
X125142734Y-115683100D01*
X124981447Y-115600918D01*
X124981444Y-115600917D01*
X124809293Y-115544983D01*
X124630506Y-115516666D01*
X124449494Y-115516666D01*
X124270706Y-115544983D01*
X124098555Y-115600917D01*
X124098552Y-115600918D01*
X123937270Y-115683097D01*
X123937268Y-115683098D01*
X123880511Y-115724333D01*
X123880511Y-115724334D01*
X124354823Y-116198646D01*
X124347007Y-116200741D01*
X124232993Y-116266567D01*
X124139901Y-116359659D01*
X124074075Y-116473673D01*
X124071980Y-116481489D01*
X123597668Y-116007177D01*
X123597667Y-116007177D01*
X123556432Y-116063934D01*
X123556431Y-116063936D01*
X123474252Y-116225218D01*
X123474251Y-116225221D01*
X123418317Y-116397372D01*
X123396972Y-116532137D01*
X123367043Y-116595272D01*
X123307731Y-116632203D01*
X123237868Y-116631205D01*
X123179636Y-116592595D01*
X123151522Y-116528631D01*
X123150499Y-116512739D01*
X123150499Y-115771809D01*
X123150499Y-115771802D01*
X123147870Y-115749130D01*
X123147586Y-115746678D01*
X123147585Y-115746676D01*
X123147585Y-115746675D01*
X123102206Y-115643901D01*
X123022765Y-115564460D01*
X122978654Y-115544983D01*
X122919992Y-115519081D01*
X122894865Y-115516166D01*
X121105143Y-115516166D01*
X121105117Y-115516168D01*
X121080012Y-115519079D01*
X121080008Y-115519081D01*
X120977235Y-115564459D01*
X120897794Y-115643900D01*
X120852415Y-115746672D01*
X120852415Y-115746674D01*
X120849500Y-115771797D01*
X120849500Y-117561522D01*
X120849502Y-117561548D01*
X120852413Y-117586653D01*
X120852415Y-117586657D01*
X120897793Y-117689430D01*
X120897794Y-117689431D01*
X120977235Y-117768872D01*
X121080009Y-117814251D01*
X121105135Y-117817166D01*
X122894864Y-117817165D01*
X122894879Y-117817163D01*
X122894882Y-117817163D01*
X122919987Y-117814252D01*
X122919988Y-117814251D01*
X122919991Y-117814251D01*
X123022765Y-117768872D01*
X123102206Y-117689431D01*
X123147585Y-117586657D01*
X123150500Y-117561531D01*
X123150499Y-116820591D01*
X123170183Y-116753554D01*
X123222987Y-116707799D01*
X123292146Y-116697855D01*
X123355702Y-116726880D01*
X123393476Y-116785658D01*
X123396972Y-116801195D01*
X123418317Y-116935959D01*
X123474251Y-117108110D01*
X123474252Y-117108113D01*
X123556434Y-117269400D01*
X123597667Y-117326153D01*
X123597668Y-117326153D01*
X124071980Y-116851842D01*
X124074075Y-116859659D01*
X124139901Y-116973673D01*
X124232993Y-117066765D01*
X124347007Y-117132591D01*
X124354822Y-117134685D01*
X123880510Y-117608996D01*
X123880511Y-117608997D01*
X123937265Y-117650231D01*
X124098552Y-117732413D01*
X124098555Y-117732414D01*
X124270706Y-117788348D01*
X124449494Y-117816666D01*
X124630506Y-117816666D01*
X124809293Y-117788348D01*
X124981444Y-117732414D01*
X124981447Y-117732413D01*
X125142730Y-117650234D01*
X125199487Y-117608996D01*
X125199488Y-117608995D01*
X124725178Y-117134685D01*
X124732993Y-117132591D01*
X124847007Y-117066765D01*
X124940099Y-116973673D01*
X125005925Y-116859659D01*
X125008019Y-116851843D01*
X125482329Y-117326154D01*
X125482330Y-117326153D01*
X125523568Y-117269396D01*
X125605747Y-117108113D01*
X125605748Y-117108110D01*
X125661683Y-116935958D01*
X125687273Y-116774387D01*
X125717202Y-116711252D01*
X125776513Y-116674320D01*
X125846376Y-116675318D01*
X125904609Y-116713927D01*
X125932219Y-116774386D01*
X125957828Y-116936076D01*
X126013787Y-117108302D01*
X126013788Y-117108305D01*
X126052982Y-117185226D01*
X126095869Y-117269396D01*
X126096006Y-117269663D01*
X126202441Y-117416160D01*
X126202445Y-117416165D01*
X126330500Y-117544220D01*
X126330505Y-117544224D01*
X126458287Y-117637062D01*
X126477006Y-117650662D01*
X126553094Y-117689431D01*
X126638360Y-117732877D01*
X126638363Y-117732878D01*
X126724476Y-117760857D01*
X126810591Y-117788837D01*
X126893429Y-117801957D01*
X126989449Y-117817166D01*
X126989454Y-117817166D01*
X127170551Y-117817166D01*
X127257259Y-117803431D01*
X127349409Y-117788837D01*
X127521639Y-117732877D01*
X127682994Y-117650662D01*
X127829501Y-117544219D01*
X127957553Y-117416167D01*
X128063996Y-117269660D01*
X128146211Y-117108305D01*
X128202171Y-116936075D01*
X128220388Y-116821060D01*
X128227527Y-116775987D01*
X128257456Y-116712852D01*
X128316768Y-116675921D01*
X128386630Y-116676919D01*
X128444863Y-116715529D01*
X128472473Y-116775987D01*
X128497829Y-116936076D01*
X128553787Y-117108302D01*
X128553788Y-117108305D01*
X128592982Y-117185226D01*
X128635869Y-117269396D01*
X128636006Y-117269663D01*
X128742441Y-117416160D01*
X128742445Y-117416165D01*
X128870500Y-117544220D01*
X128870505Y-117544224D01*
X129017001Y-117650659D01*
X129017003Y-117650660D01*
X129017006Y-117650662D01*
X129051794Y-117668387D01*
X129102590Y-117716360D01*
X129119500Y-117778872D01*
X129119500Y-118732557D01*
X129153608Y-118859853D01*
X129186554Y-118916916D01*
X129219500Y-118973980D01*
X129312686Y-119067166D01*
X129426814Y-119133058D01*
X129513278Y-119156225D01*
X129572938Y-119192590D01*
X129603467Y-119255437D01*
X129595172Y-119324812D01*
X129550687Y-119378690D01*
X129484135Y-119399965D01*
X129481184Y-119400000D01*
X100724000Y-119400000D01*
X100656961Y-119380315D01*
X100611206Y-119327511D01*
X100600000Y-119276000D01*
X100600000Y-115895095D01*
X100619685Y-115828056D01*
X100672489Y-115782301D01*
X100741647Y-115772357D01*
X100786002Y-115787709D01*
X100806811Y-115799724D01*
X100806813Y-115799724D01*
X100806814Y-115799725D01*
X100934108Y-115833833D01*
X101065892Y-115833833D01*
X107458481Y-115833833D01*
X107525520Y-115853518D01*
X107546162Y-115870152D01*
X107553454Y-115877444D01*
X107553458Y-115877447D01*
X107668182Y-115954104D01*
X107668195Y-115954111D01*
X107741523Y-115984484D01*
X107795672Y-116006913D01*
X107795676Y-116006913D01*
X107795677Y-116006914D01*
X107931004Y-116033833D01*
X107931007Y-116033833D01*
X108068995Y-116033833D01*
X108160041Y-116015722D01*
X108204328Y-116006913D01*
X108331811Y-115954108D01*
X108446542Y-115877447D01*
X108544114Y-115779875D01*
X108620775Y-115665144D01*
X108673580Y-115537661D01*
X108698176Y-115414009D01*
X108700500Y-115402328D01*
X108700500Y-115264337D01*
X108673581Y-115129010D01*
X108673580Y-115129009D01*
X108673580Y-115129005D01*
X108668676Y-115117166D01*
X108620778Y-115001528D01*
X108620771Y-115001515D01*
X108544114Y-114886791D01*
X108544111Y-114886787D01*
X108446545Y-114789221D01*
X108446541Y-114789218D01*
X108331817Y-114712561D01*
X108331804Y-114712554D01*
X108204332Y-114659754D01*
X108204322Y-114659751D01*
X108068995Y-114632833D01*
X108068993Y-114632833D01*
X107931007Y-114632833D01*
X107931005Y-114632833D01*
X107795677Y-114659751D01*
X107795667Y-114659754D01*
X107668195Y-114712554D01*
X107668182Y-114712561D01*
X107553458Y-114789218D01*
X107553454Y-114789221D01*
X107546162Y-114796514D01*
X107484839Y-114829999D01*
X107458481Y-114832833D01*
X101624500Y-114832833D01*
X101557461Y-114813148D01*
X101511706Y-114760344D01*
X101500500Y-114708833D01*
X101500500Y-109618053D01*
X104475000Y-109618053D01*
X104485613Y-109706443D01*
X104541079Y-109847095D01*
X104632435Y-109967564D01*
X104752904Y-110058920D01*
X104893556Y-110114386D01*
X104981946Y-110125000D01*
X105300000Y-110125000D01*
X105700000Y-110125000D01*
X106018054Y-110125000D01*
X106106443Y-110114386D01*
X106247095Y-110058920D01*
X106367564Y-109967564D01*
X106458920Y-109847095D01*
X106514386Y-109706443D01*
X106525000Y-109618053D01*
X106525000Y-109593053D01*
X107500000Y-109593053D01*
X107510613Y-109681443D01*
X107566079Y-109822095D01*
X107657435Y-109942564D01*
X107777904Y-110033920D01*
X107918556Y-110089386D01*
X108006946Y-110100000D01*
X108300000Y-110100000D01*
X108700000Y-110100000D01*
X108993054Y-110100000D01*
X109081443Y-110089386D01*
X109222095Y-110033920D01*
X109342564Y-109942564D01*
X109433920Y-109822095D01*
X109489386Y-109681443D01*
X109500000Y-109593053D01*
X109500000Y-109400000D01*
X108700000Y-109400000D01*
X108700000Y-110100000D01*
X108300000Y-110100000D01*
X108300000Y-109400000D01*
X107500000Y-109400000D01*
X107500000Y-109593053D01*
X106525000Y-109593053D01*
X106525000Y-109437500D01*
X105700000Y-109437500D01*
X105700000Y-110125000D01*
X105300000Y-110125000D01*
X105300000Y-109437500D01*
X104475000Y-109437500D01*
X104475000Y-109618053D01*
X101500500Y-109618053D01*
X101500500Y-108856946D01*
X104475000Y-108856946D01*
X104475000Y-109037500D01*
X105300000Y-109037500D01*
X105700000Y-109037500D01*
X106525000Y-109037500D01*
X106525000Y-108856946D01*
X106514386Y-108768556D01*
X106458920Y-108627904D01*
X106367564Y-108507435D01*
X106247095Y-108416079D01*
X106106443Y-108360613D01*
X106018054Y-108350000D01*
X105700000Y-108350000D01*
X105700000Y-109037500D01*
X105300000Y-109037500D01*
X105300000Y-108350000D01*
X104981946Y-108350000D01*
X104893556Y-108360613D01*
X104752904Y-108416079D01*
X104632435Y-108507435D01*
X104541079Y-108627904D01*
X104485613Y-108768556D01*
X104475000Y-108856946D01*
X101500500Y-108856946D01*
X101500500Y-104624500D01*
X101520185Y-104557461D01*
X101572989Y-104511706D01*
X101624500Y-104500500D01*
X107375500Y-104500500D01*
X107442539Y-104520185D01*
X107488294Y-104572989D01*
X107499500Y-104624500D01*
X107499500Y-105393102D01*
X107503566Y-105426958D01*
X107510122Y-105481561D01*
X107565639Y-105622343D01*
X107657077Y-105742922D01*
X107777656Y-105834360D01*
X107777657Y-105834360D01*
X107777658Y-105834361D01*
X107918436Y-105889877D01*
X108006898Y-105900500D01*
X108006903Y-105900500D01*
X108993097Y-105900500D01*
X108993102Y-105900500D01*
X109081564Y-105889877D01*
X109222342Y-105834361D01*
X109342922Y-105742922D01*
X109366696Y-105711571D01*
X109422887Y-105670048D01*
X109492608Y-105665495D01*
X109553723Y-105699360D01*
X109586827Y-105760889D01*
X109589500Y-105786496D01*
X109589500Y-106107166D01*
X109569815Y-106174205D01*
X109517011Y-106219960D01*
X109465500Y-106231166D01*
X105554043Y-106231166D01*
X105445957Y-106231166D01*
X105341553Y-106259141D01*
X105341551Y-106259141D01*
X105341551Y-106259142D01*
X105334043Y-106262252D01*
X105333382Y-106260658D01*
X105281725Y-106274500D01*
X104981898Y-106274500D01*
X104942853Y-106279188D01*
X104893438Y-106285122D01*
X104752656Y-106340639D01*
X104632077Y-106432077D01*
X104540639Y-106552656D01*
X104485122Y-106693438D01*
X104484917Y-106695148D01*
X104474500Y-106781898D01*
X104474500Y-107543102D01*
X104478111Y-107573173D01*
X104485122Y-107631561D01*
X104540639Y-107772343D01*
X104632077Y-107892922D01*
X104752656Y-107984360D01*
X104752657Y-107984360D01*
X104752658Y-107984361D01*
X104893436Y-108039877D01*
X104981898Y-108050500D01*
X104981903Y-108050500D01*
X106018097Y-108050500D01*
X106018102Y-108050500D01*
X106106564Y-108039877D01*
X106247342Y-107984361D01*
X106367922Y-107892922D01*
X106459361Y-107772342D01*
X106475379Y-107731723D01*
X106507012Y-107651510D01*
X106549917Y-107596366D01*
X106615825Y-107573173D01*
X106622366Y-107573000D01*
X107387085Y-107573000D01*
X107454124Y-107592685D01*
X107499879Y-107645489D01*
X107507872Y-107673928D01*
X107508173Y-107673852D01*
X107510120Y-107681556D01*
X107565639Y-107822343D01*
X107657077Y-107942922D01*
X107777657Y-108034361D01*
X107811766Y-108047811D01*
X107905853Y-108084915D01*
X107960995Y-108127819D01*
X107984189Y-108193726D01*
X107968069Y-108261711D01*
X107917752Y-108310188D01*
X107905853Y-108315622D01*
X107777906Y-108366078D01*
X107657435Y-108457435D01*
X107566079Y-108577904D01*
X107510613Y-108718556D01*
X107500000Y-108806946D01*
X107500000Y-109000000D01*
X109500000Y-109000000D01*
X109500000Y-108806946D01*
X109489386Y-108718556D01*
X109433920Y-108577904D01*
X109342564Y-108457435D01*
X109222093Y-108366078D01*
X109222091Y-108366077D01*
X109094147Y-108315622D01*
X109039003Y-108272716D01*
X109015810Y-108206809D01*
X109031931Y-108138824D01*
X109082248Y-108090348D01*
X109094124Y-108084923D01*
X109222342Y-108034361D01*
X109342922Y-107942922D01*
X109434361Y-107822342D01*
X109489877Y-107681564D01*
X109489877Y-107681559D01*
X109489879Y-107681556D01*
X109491827Y-107673852D01*
X109493232Y-107674207D01*
X109517340Y-107617997D01*
X109575225Y-107578867D01*
X109612915Y-107573000D01*
X112554040Y-107573000D01*
X112554043Y-107573000D01*
X112658447Y-107545025D01*
X112752053Y-107490982D01*
X112828482Y-107414553D01*
X112882525Y-107320947D01*
X112910500Y-107216543D01*
X112910500Y-106631519D01*
X112930185Y-106564480D01*
X112946819Y-106543838D01*
X113044111Y-106446545D01*
X113044114Y-106446542D01*
X113120775Y-106331811D01*
X113131284Y-106306441D01*
X113150939Y-106258989D01*
X113194779Y-106204585D01*
X113261074Y-106182520D01*
X113328773Y-106199799D01*
X113376384Y-106250936D01*
X113389500Y-106306441D01*
X113389500Y-108575500D01*
X113369815Y-108642539D01*
X113317011Y-108688294D01*
X113265500Y-108699500D01*
X112155143Y-108699500D01*
X112155117Y-108699502D01*
X112130012Y-108702413D01*
X112130008Y-108702415D01*
X112027235Y-108747793D01*
X111947794Y-108827234D01*
X111902415Y-108930006D01*
X111902415Y-108930008D01*
X111899500Y-108955131D01*
X111899500Y-111044856D01*
X111899502Y-111044882D01*
X111902413Y-111069987D01*
X111902415Y-111069991D01*
X111947793Y-111172764D01*
X111947794Y-111172765D01*
X112027235Y-111252206D01*
X112130009Y-111297585D01*
X112155135Y-111300500D01*
X114244864Y-111300499D01*
X114244879Y-111300497D01*
X114244882Y-111300497D01*
X114269987Y-111297586D01*
X114269988Y-111297585D01*
X114269991Y-111297585D01*
X114372765Y-111252206D01*
X114452206Y-111172765D01*
X114497585Y-111069991D01*
X114500500Y-111044865D01*
X114500499Y-109067832D01*
X114520184Y-109000794D01*
X114572988Y-108955039D01*
X114624499Y-108943833D01*
X117475314Y-108943833D01*
X117542353Y-108963518D01*
X117562995Y-108980152D01*
X118114823Y-109531980D01*
X118107007Y-109534075D01*
X117992993Y-109599901D01*
X117899901Y-109692993D01*
X117834075Y-109807007D01*
X117831980Y-109814823D01*
X117250279Y-109233122D01*
X117250278Y-109233122D01*
X117188141Y-109318648D01*
X117095244Y-109500968D01*
X117032009Y-109695582D01*
X117000000Y-109897682D01*
X117000000Y-110102317D01*
X117032009Y-110304417D01*
X117095244Y-110499031D01*
X117188139Y-110681347D01*
X117250279Y-110766876D01*
X117831980Y-110185176D01*
X117834075Y-110192993D01*
X117899901Y-110307007D01*
X117992993Y-110400099D01*
X118107007Y-110465925D01*
X118114822Y-110468019D01*
X117533121Y-111049719D01*
X117533122Y-111049720D01*
X117618640Y-111111852D01*
X117618649Y-111111858D01*
X117800968Y-111204755D01*
X117995582Y-111267990D01*
X118197683Y-111300000D01*
X118402317Y-111300000D01*
X118604417Y-111267990D01*
X118799031Y-111204755D01*
X118981349Y-111111859D01*
X119066876Y-111049719D01*
X119066877Y-111049718D01*
X118485178Y-110468019D01*
X118492993Y-110465925D01*
X118607007Y-110400099D01*
X118700099Y-110307007D01*
X118765925Y-110192993D01*
X118768019Y-110185177D01*
X119349718Y-110766877D01*
X119349719Y-110766876D01*
X119411859Y-110681349D01*
X119504755Y-110499031D01*
X119567990Y-110304417D01*
X119600000Y-110102317D01*
X119600000Y-109897682D01*
X119567990Y-109695582D01*
X119504755Y-109500968D01*
X119411858Y-109318649D01*
X119411852Y-109318640D01*
X119349720Y-109233122D01*
X119349719Y-109233121D01*
X118768019Y-109814821D01*
X118765925Y-109807007D01*
X118700099Y-109692993D01*
X118607007Y-109599901D01*
X118492993Y-109534075D01*
X118485176Y-109531980D01*
X119066876Y-108950279D01*
X118981347Y-108888139D01*
X118799031Y-108795244D01*
X118604418Y-108732010D01*
X118570445Y-108726629D01*
X118507311Y-108696699D01*
X118470380Y-108637387D01*
X118471378Y-108567525D01*
X118509989Y-108509292D01*
X118516193Y-108504398D01*
X118598589Y-108443589D01*
X118681469Y-108331289D01*
X118701965Y-108272716D01*
X118727567Y-108199551D01*
X118727567Y-108199549D01*
X118730500Y-108168276D01*
X118730500Y-107731723D01*
X119269500Y-107731723D01*
X119269500Y-108168276D01*
X119272432Y-108199549D01*
X119272432Y-108199551D01*
X119318529Y-108331285D01*
X119318534Y-108331294D01*
X119401410Y-108443588D01*
X119401411Y-108443589D01*
X119513705Y-108526465D01*
X119513707Y-108526466D01*
X119513711Y-108526469D01*
X119513714Y-108526470D01*
X119645449Y-108572567D01*
X119676724Y-108575500D01*
X119676728Y-108575500D01*
X119841170Y-108575500D01*
X119908209Y-108595185D01*
X119953964Y-108647989D01*
X119960945Y-108667408D01*
X119967474Y-108691778D01*
X119967478Y-108691786D01*
X120021513Y-108785379D01*
X120021517Y-108785384D01*
X120021518Y-108785386D01*
X120097947Y-108861815D01*
X120097949Y-108861816D01*
X120097953Y-108861819D01*
X120191546Y-108915854D01*
X120191553Y-108915858D01*
X120295957Y-108943833D01*
X120868481Y-108943833D01*
X120935520Y-108963518D01*
X120956162Y-108980152D01*
X121053454Y-109077444D01*
X121053458Y-109077447D01*
X121168182Y-109154104D01*
X121168195Y-109154111D01*
X121295667Y-109206911D01*
X121295672Y-109206913D01*
X121295676Y-109206913D01*
X121295677Y-109206914D01*
X121431004Y-109233833D01*
X121431007Y-109233833D01*
X121568995Y-109233833D01*
X121660041Y-109215722D01*
X121704328Y-109206913D01*
X121831811Y-109154108D01*
X121946542Y-109077447D01*
X122044114Y-108979875D01*
X122120775Y-108865144D01*
X122173580Y-108737661D01*
X122200500Y-108602326D01*
X122200500Y-108464340D01*
X122200500Y-108464337D01*
X122173581Y-108329010D01*
X122173580Y-108329009D01*
X122173580Y-108329005D01*
X122165786Y-108310188D01*
X122120778Y-108201528D01*
X122120771Y-108201515D01*
X122044114Y-108086791D01*
X122044111Y-108086787D01*
X121946545Y-107989221D01*
X121946541Y-107989218D01*
X121831817Y-107912561D01*
X121831804Y-107912554D01*
X121704332Y-107859754D01*
X121704322Y-107859751D01*
X121568995Y-107832833D01*
X121568993Y-107832833D01*
X121552897Y-107832833D01*
X121485858Y-107813148D01*
X121440103Y-107760344D01*
X121436620Y-107751911D01*
X121430500Y-107735391D01*
X121430500Y-107731728D01*
X121427567Y-107700451D01*
X121381469Y-107568711D01*
X121355925Y-107534099D01*
X121349833Y-107517656D01*
X121348580Y-107499590D01*
X121342369Y-107482583D01*
X121346215Y-107465461D01*
X121345002Y-107447954D01*
X121353714Y-107432080D01*
X121357684Y-107414413D01*
X121366342Y-107400941D01*
X121381023Y-107381050D01*
X121427068Y-107249462D01*
X121427070Y-107249450D01*
X121430000Y-107218213D01*
X121430000Y-107200000D01*
X119270001Y-107200000D01*
X119270001Y-107218202D01*
X119272931Y-107249459D01*
X119318977Y-107381051D01*
X119318978Y-107381053D01*
X119333659Y-107400945D01*
X119357629Y-107466575D01*
X119342313Y-107534745D01*
X119333661Y-107548207D01*
X119318531Y-107568708D01*
X119318530Y-107568711D01*
X119272433Y-107700448D01*
X119272432Y-107700450D01*
X119269500Y-107731723D01*
X118730500Y-107731723D01*
X118727567Y-107700450D01*
X118727567Y-107700448D01*
X118681470Y-107568714D01*
X118681469Y-107568711D01*
X118663988Y-107545025D01*
X118598589Y-107456411D01*
X118598588Y-107456410D01*
X118486294Y-107373534D01*
X118486285Y-107373529D01*
X118354550Y-107327432D01*
X118323276Y-107324500D01*
X118323272Y-107324500D01*
X116976728Y-107324500D01*
X116976724Y-107324500D01*
X116945450Y-107327432D01*
X116945448Y-107327432D01*
X116813714Y-107373529D01*
X116813705Y-107373534D01*
X116701411Y-107456410D01*
X116701410Y-107456411D01*
X116618534Y-107568705D01*
X116618529Y-107568714D01*
X116572432Y-107700448D01*
X116572432Y-107700450D01*
X116569500Y-107731723D01*
X116569500Y-107998833D01*
X116549815Y-108065872D01*
X116497011Y-108111627D01*
X116445500Y-108122833D01*
X114334500Y-108122833D01*
X114267461Y-108103148D01*
X114221706Y-108050344D01*
X114210500Y-107998833D01*
X114210500Y-105735661D01*
X115799499Y-105735661D01*
X115826418Y-105870988D01*
X115826421Y-105870998D01*
X115879221Y-105998470D01*
X115879228Y-105998483D01*
X115955885Y-106113207D01*
X115955888Y-106113211D01*
X115988180Y-106145502D01*
X116021666Y-106206824D01*
X116024500Y-106233184D01*
X116024500Y-106429267D01*
X116056905Y-106550202D01*
X116119505Y-106658630D01*
X116208036Y-106747161D01*
X116316464Y-106809761D01*
X116437399Y-106842166D01*
X116437401Y-106842166D01*
X117712599Y-106842166D01*
X117712601Y-106842166D01*
X117833536Y-106809761D01*
X117941964Y-106747161D01*
X117977306Y-106711819D01*
X118038629Y-106678334D01*
X118064987Y-106675500D01*
X118323276Y-106675500D01*
X118354549Y-106672567D01*
X118354551Y-106672567D01*
X118438399Y-106643226D01*
X118486289Y-106626469D01*
X118598589Y-106543589D01*
X118681469Y-106431289D01*
X118716278Y-106331811D01*
X118727567Y-106299551D01*
X118727567Y-106299549D01*
X118730500Y-106268276D01*
X118730500Y-105831723D01*
X118727567Y-105800450D01*
X118727567Y-105800448D01*
X118681470Y-105668714D01*
X118681469Y-105668711D01*
X118681088Y-105668195D01*
X118598589Y-105556411D01*
X118598588Y-105556410D01*
X118486294Y-105473534D01*
X118486285Y-105473529D01*
X118354550Y-105427432D01*
X118323276Y-105424500D01*
X118323272Y-105424500D01*
X117240761Y-105424500D01*
X117173722Y-105404815D01*
X117127967Y-105352011D01*
X117126199Y-105347950D01*
X117120776Y-105334858D01*
X117120775Y-105334855D01*
X117120773Y-105334852D01*
X117120771Y-105334848D01*
X117044114Y-105220124D01*
X117044111Y-105220120D01*
X116946545Y-105122554D01*
X116946541Y-105122551D01*
X116831817Y-105045894D01*
X116831804Y-105045887D01*
X116704332Y-104993087D01*
X116704322Y-104993084D01*
X116568995Y-104966166D01*
X116568993Y-104966166D01*
X116431007Y-104966166D01*
X116431005Y-104966166D01*
X116295677Y-104993084D01*
X116295667Y-104993087D01*
X116168195Y-105045887D01*
X116168182Y-105045894D01*
X116053458Y-105122551D01*
X116053454Y-105122554D01*
X115955888Y-105220120D01*
X115955885Y-105220124D01*
X115879228Y-105334848D01*
X115879221Y-105334861D01*
X115826421Y-105462333D01*
X115826418Y-105462343D01*
X115799500Y-105597670D01*
X115799500Y-105597673D01*
X115799500Y-105735659D01*
X115799500Y-105735661D01*
X115799499Y-105735661D01*
X114210500Y-105735661D01*
X114210500Y-104484500D01*
X114230185Y-104417461D01*
X114282989Y-104371706D01*
X114334500Y-104360500D01*
X116951579Y-104360500D01*
X117018618Y-104380185D01*
X117064373Y-104432989D01*
X117074693Y-104469710D01*
X117079736Y-104511706D01*
X117085122Y-104556561D01*
X117140639Y-104697343D01*
X117232077Y-104817922D01*
X117352656Y-104909360D01*
X117352657Y-104909360D01*
X117352658Y-104909361D01*
X117493436Y-104964877D01*
X117581898Y-104975500D01*
X117581903Y-104975500D01*
X118343097Y-104975500D01*
X118343102Y-104975500D01*
X118431564Y-104964877D01*
X118572342Y-104909361D01*
X118692922Y-104817922D01*
X118784361Y-104697342D01*
X118839877Y-104556564D01*
X118850500Y-104468102D01*
X118850500Y-103431898D01*
X118839877Y-103343436D01*
X118784361Y-103202658D01*
X118784360Y-103202657D01*
X118784360Y-103202656D01*
X118692922Y-103082077D01*
X118572341Y-102990638D01*
X118572339Y-102990637D01*
X118489010Y-102957776D01*
X118433866Y-102914870D01*
X118410673Y-102848963D01*
X118410500Y-102842422D01*
X118410500Y-102752295D01*
X118430185Y-102685256D01*
X118482989Y-102639501D01*
X118488988Y-102636949D01*
X118622342Y-102584361D01*
X118742922Y-102492922D01*
X118834361Y-102372342D01*
X118884646Y-102244826D01*
X118927551Y-102189685D01*
X118993459Y-102166492D01*
X119061443Y-102182612D01*
X119109920Y-102232929D01*
X119115348Y-102244814D01*
X119150652Y-102334339D01*
X119165639Y-102372343D01*
X119257077Y-102492922D01*
X119377656Y-102584360D01*
X119377657Y-102584360D01*
X119377658Y-102584361D01*
X119510991Y-102636941D01*
X119566134Y-102679846D01*
X119589327Y-102745754D01*
X119589500Y-102752295D01*
X119589500Y-102842422D01*
X119569815Y-102909461D01*
X119517011Y-102955216D01*
X119510990Y-102957776D01*
X119427660Y-102990637D01*
X119427658Y-102990638D01*
X119307077Y-103082077D01*
X119215639Y-103202656D01*
X119160122Y-103343438D01*
X119154188Y-103392853D01*
X119149500Y-103431898D01*
X119149500Y-104468102D01*
X119154736Y-104511706D01*
X119160122Y-104556561D01*
X119215639Y-104697343D01*
X119307077Y-104817922D01*
X119427658Y-104909361D01*
X119427660Y-104909362D01*
X119549905Y-104957570D01*
X119605049Y-105000475D01*
X119623343Y-105046608D01*
X119624897Y-105046192D01*
X119627000Y-105054040D01*
X119627000Y-105054043D01*
X119654975Y-105158447D01*
X119707741Y-105249841D01*
X119724213Y-105317741D01*
X119701360Y-105383768D01*
X119646438Y-105426958D01*
X119641309Y-105428881D01*
X119513712Y-105473530D01*
X119513705Y-105473534D01*
X119401411Y-105556410D01*
X119401410Y-105556411D01*
X119318534Y-105668705D01*
X119318529Y-105668714D01*
X119272432Y-105800448D01*
X119272432Y-105800450D01*
X119269500Y-105831723D01*
X119269500Y-106268276D01*
X119272432Y-106299548D01*
X119318531Y-106431289D01*
X119333659Y-106451787D01*
X119357629Y-106517417D01*
X119342313Y-106585587D01*
X119333661Y-106599050D01*
X119318978Y-106618945D01*
X119272930Y-106750544D01*
X119272929Y-106750549D01*
X119270000Y-106781786D01*
X119270000Y-106800000D01*
X121429999Y-106800000D01*
X121429999Y-106781795D01*
X121429903Y-106780771D01*
X121429942Y-106780570D01*
X121429864Y-106778903D01*
X121429999Y-106778896D01*
X121429999Y-106778894D01*
X121430056Y-106778894D01*
X121430270Y-106778883D01*
X121443246Y-106712187D01*
X121465675Y-106681525D01*
X121528482Y-106618719D01*
X121582525Y-106525113D01*
X121584034Y-106522500D01*
X121634601Y-106474285D01*
X121691421Y-106460500D01*
X122475500Y-106460500D01*
X122542539Y-106480185D01*
X122588294Y-106532989D01*
X122599500Y-106584500D01*
X122599500Y-106859768D01*
X122602309Y-106883158D01*
X122610122Y-106948227D01*
X122665639Y-107089009D01*
X122757077Y-107209588D01*
X122877656Y-107301026D01*
X122877657Y-107301026D01*
X122877658Y-107301027D01*
X123018436Y-107356543D01*
X123106898Y-107367166D01*
X123106903Y-107367166D01*
X123893097Y-107367166D01*
X123893102Y-107367166D01*
X123981564Y-107356543D01*
X124122342Y-107301027D01*
X124242922Y-107209588D01*
X124334361Y-107089008D01*
X124384646Y-106961492D01*
X124427551Y-106906351D01*
X124493459Y-106883158D01*
X124561443Y-106899278D01*
X124609920Y-106949595D01*
X124615348Y-106961480D01*
X124650652Y-107051005D01*
X124665639Y-107089009D01*
X124757077Y-107209588D01*
X124877656Y-107301026D01*
X124877657Y-107301026D01*
X124877658Y-107301027D01*
X125018436Y-107356543D01*
X125106898Y-107367166D01*
X125425500Y-107367166D01*
X125492539Y-107386851D01*
X125538294Y-107439655D01*
X125549500Y-107491166D01*
X125549500Y-112758833D01*
X125529815Y-112825872D01*
X125477011Y-112871627D01*
X125425500Y-112882833D01*
X110559309Y-112882833D01*
X110440691Y-112882833D01*
X110326114Y-112913534D01*
X110326112Y-112913534D01*
X110326112Y-112913535D01*
X110223387Y-112972844D01*
X110223384Y-112972846D01*
X110139513Y-113056717D01*
X110139511Y-113056720D01*
X110080201Y-113159447D01*
X110049500Y-113274024D01*
X110049500Y-113274026D01*
X110049500Y-115567166D01*
X110029815Y-115634205D01*
X109977011Y-115679960D01*
X109925501Y-115691166D01*
X109780144Y-115691166D01*
X109780117Y-115691168D01*
X109755012Y-115694079D01*
X109755008Y-115694081D01*
X109652235Y-115739459D01*
X109572794Y-115818900D01*
X109527415Y-115921672D01*
X109527415Y-115921674D01*
X109524500Y-115946797D01*
X109524500Y-117386522D01*
X109524502Y-117386548D01*
X109527413Y-117411653D01*
X109527415Y-117411657D01*
X109572793Y-117514430D01*
X109572794Y-117514431D01*
X109652235Y-117593872D01*
X109755009Y-117639251D01*
X109780135Y-117642166D01*
X111219864Y-117642165D01*
X111219879Y-117642163D01*
X111219882Y-117642163D01*
X111244987Y-117639252D01*
X111244988Y-117639251D01*
X111244991Y-117639251D01*
X111347765Y-117593872D01*
X111427206Y-117514431D01*
X111472585Y-117411657D01*
X111475500Y-117386531D01*
X111475499Y-117298017D01*
X111495183Y-117230982D01*
X111547986Y-117185226D01*
X111617145Y-117175282D01*
X111680701Y-117204306D01*
X111702601Y-117229128D01*
X111742282Y-117288514D01*
X111878151Y-117424383D01*
X111878155Y-117424386D01*
X112037927Y-117531143D01*
X112037928Y-117531143D01*
X112037929Y-117531144D01*
X112037931Y-117531145D01*
X112215452Y-117604676D01*
X112215457Y-117604678D01*
X112401403Y-117641665D01*
X112403917Y-117642165D01*
X112403920Y-117642166D01*
X112403922Y-117642166D01*
X112596080Y-117642166D01*
X112596081Y-117642165D01*
X112784543Y-117604678D01*
X112962073Y-117531143D01*
X113121845Y-117424386D01*
X113257720Y-117288511D01*
X113364477Y-117128739D01*
X113385439Y-117078133D01*
X113429280Y-117023729D01*
X113495574Y-117001664D01*
X113563273Y-117018943D01*
X113610884Y-117070080D01*
X113614561Y-117078133D01*
X113635520Y-117128734D01*
X113635521Y-117128736D01*
X113742279Y-117288510D01*
X113742282Y-117288514D01*
X113878151Y-117424383D01*
X113878155Y-117424386D01*
X114037927Y-117531143D01*
X114037928Y-117531143D01*
X114037929Y-117531144D01*
X114037931Y-117531145D01*
X114215452Y-117604676D01*
X114215457Y-117604678D01*
X114401403Y-117641665D01*
X114403917Y-117642165D01*
X114403920Y-117642166D01*
X114403922Y-117642166D01*
X114596080Y-117642166D01*
X114596081Y-117642165D01*
X114784543Y-117604678D01*
X114962073Y-117531143D01*
X115121845Y-117424386D01*
X115134578Y-117411653D01*
X115197232Y-117349000D01*
X115257717Y-117288514D01*
X115257720Y-117288511D01*
X115364477Y-117128739D01*
X115385709Y-117077479D01*
X115429549Y-117023077D01*
X115495843Y-117001011D01*
X115563542Y-117018289D01*
X115611153Y-117069426D01*
X115614831Y-117077479D01*
X115635964Y-117128498D01*
X115635966Y-117128502D01*
X115683773Y-117200049D01*
X116113629Y-116770193D01*
X116127259Y-116821060D01*
X116179920Y-116912272D01*
X116254394Y-116986746D01*
X116345606Y-117039407D01*
X116396471Y-117053036D01*
X115966614Y-117482892D01*
X116038166Y-117530701D01*
X116215602Y-117604197D01*
X116215610Y-117604199D01*
X116403966Y-117641665D01*
X116403970Y-117641666D01*
X116596030Y-117641666D01*
X116596033Y-117641665D01*
X116784389Y-117604199D01*
X116784397Y-117604197D01*
X116961834Y-117530700D01*
X116961840Y-117530697D01*
X117033384Y-117482892D01*
X117033384Y-117482891D01*
X116603529Y-117053036D01*
X116654394Y-117039407D01*
X116745606Y-116986746D01*
X116820080Y-116912272D01*
X116872741Y-116821060D01*
X116886370Y-116770194D01*
X117316226Y-117200050D01*
X117364031Y-117128506D01*
X117364034Y-117128500D01*
X117437531Y-116951063D01*
X117437533Y-116951055D01*
X117474999Y-116762699D01*
X117475000Y-116762696D01*
X117475000Y-116570636D01*
X117474999Y-116570632D01*
X117437533Y-116382276D01*
X117437531Y-116382268D01*
X117364035Y-116204832D01*
X117316226Y-116133280D01*
X116886370Y-116563136D01*
X116872741Y-116512272D01*
X116820080Y-116421060D01*
X116745606Y-116346586D01*
X116654394Y-116293925D01*
X116603528Y-116280295D01*
X117033383Y-115850439D01*
X116961836Y-115802632D01*
X116961833Y-115802630D01*
X116784397Y-115729134D01*
X116784389Y-115729132D01*
X116596033Y-115691666D01*
X116403966Y-115691666D01*
X116215610Y-115729132D01*
X116215602Y-115729134D01*
X116038165Y-115802631D01*
X115966615Y-115850439D01*
X115966614Y-115850439D01*
X116396471Y-116280295D01*
X116345606Y-116293925D01*
X116254394Y-116346586D01*
X116179920Y-116421060D01*
X116127259Y-116512272D01*
X116113629Y-116563136D01*
X115683773Y-116133280D01*
X115683773Y-116133281D01*
X115635963Y-116204834D01*
X115614830Y-116255853D01*
X115570989Y-116310256D01*
X115504694Y-116332320D01*
X115436995Y-116315040D01*
X115389385Y-116263902D01*
X115385709Y-116255851D01*
X115364479Y-116204597D01*
X115364478Y-116204595D01*
X115333154Y-116157716D01*
X115257720Y-116044821D01*
X115257717Y-116044817D01*
X115197383Y-115984483D01*
X115197383Y-115984484D01*
X115121845Y-115908946D01*
X115121046Y-115908412D01*
X115116117Y-115903500D01*
X115102077Y-115877893D01*
X115085646Y-115853770D01*
X115085481Y-115847625D01*
X115082526Y-115842235D01*
X115084557Y-115813110D01*
X115083777Y-115783926D01*
X115086961Y-115778667D01*
X115087389Y-115772534D01*
X115104845Y-115749130D01*
X115119966Y-115724158D01*
X115125487Y-115721455D01*
X115129163Y-115716528D01*
X115156502Y-115706276D01*
X115182723Y-115693444D01*
X115193071Y-115692564D01*
X115194585Y-115691997D01*
X115196044Y-115692311D01*
X115203646Y-115691666D01*
X115418054Y-115691666D01*
X115506443Y-115681052D01*
X115647095Y-115625586D01*
X115767564Y-115534230D01*
X115858920Y-115413761D01*
X115914386Y-115273109D01*
X115925000Y-115184719D01*
X115925000Y-114866666D01*
X114150000Y-114866666D01*
X114150000Y-115184719D01*
X114160613Y-115273109D01*
X114216080Y-115413763D01*
X114303761Y-115529387D01*
X114328584Y-115594698D01*
X114314156Y-115663062D01*
X114265059Y-115712773D01*
X114229155Y-115725928D01*
X114215463Y-115728652D01*
X114215452Y-115728655D01*
X114037931Y-115802186D01*
X114037929Y-115802187D01*
X113878155Y-115908945D01*
X113878151Y-115908948D01*
X113742282Y-116044817D01*
X113742279Y-116044821D01*
X113635521Y-116204595D01*
X113614561Y-116255199D01*
X113570720Y-116309602D01*
X113504426Y-116331667D01*
X113436726Y-116314388D01*
X113389116Y-116263250D01*
X113385439Y-116255199D01*
X113364478Y-116204595D01*
X113333154Y-116157716D01*
X113257720Y-116044821D01*
X113257717Y-116044817D01*
X113117538Y-115904638D01*
X113119338Y-115902837D01*
X113086259Y-115854283D01*
X113084383Y-115784439D01*
X113120565Y-115724668D01*
X113183318Y-115693946D01*
X113204255Y-115692166D01*
X113343097Y-115692166D01*
X113343102Y-115692166D01*
X113431564Y-115681543D01*
X113572342Y-115626027D01*
X113692922Y-115534588D01*
X113784361Y-115414008D01*
X113839877Y-115273230D01*
X113850500Y-115184768D01*
X113850500Y-114148564D01*
X113839877Y-114060102D01*
X113797769Y-113953323D01*
X113791487Y-113883736D01*
X113823824Y-113821800D01*
X113884513Y-113787179D01*
X113913123Y-113783833D01*
X114087415Y-113783833D01*
X114154454Y-113803518D01*
X114200209Y-113856322D01*
X114210153Y-113925480D01*
X114202769Y-113953323D01*
X114160614Y-114060219D01*
X114150000Y-114148612D01*
X114150000Y-114466666D01*
X115925000Y-114466666D01*
X115925000Y-114148612D01*
X115914385Y-114060219D01*
X115872231Y-113953323D01*
X115865949Y-113883736D01*
X115898286Y-113821800D01*
X115958974Y-113787179D01*
X115987585Y-113783833D01*
X126059306Y-113783833D01*
X126059309Y-113783833D01*
X126173886Y-113753132D01*
X126276613Y-113693822D01*
X126360489Y-113609946D01*
X126419799Y-113507219D01*
X126450500Y-113392642D01*
X126450500Y-106307357D01*
X126419799Y-106192780D01*
X126417111Y-106188124D01*
X126400500Y-106126127D01*
X126400500Y-105873569D01*
X126400500Y-105873564D01*
X126389877Y-105785102D01*
X126334361Y-105644324D01*
X126334360Y-105644323D01*
X126334360Y-105644322D01*
X126242922Y-105523743D01*
X126122343Y-105432305D01*
X125996109Y-105382525D01*
X125981564Y-105376789D01*
X125981563Y-105376788D01*
X125981561Y-105376788D01*
X125935926Y-105371308D01*
X125893102Y-105366166D01*
X125106898Y-105366166D01*
X125067853Y-105370854D01*
X125018438Y-105376788D01*
X124877656Y-105432305D01*
X124757077Y-105523743D01*
X124665639Y-105644322D01*
X124643935Y-105699360D01*
X124615353Y-105771837D01*
X124572449Y-105826980D01*
X124506541Y-105850173D01*
X124438556Y-105834052D01*
X124390080Y-105783736D01*
X124384648Y-105771844D01*
X124334361Y-105644324D01*
X124334360Y-105644323D01*
X124334360Y-105644322D01*
X124242922Y-105523743D01*
X124122343Y-105432305D01*
X123996109Y-105382525D01*
X123981564Y-105376789D01*
X123981563Y-105376788D01*
X123981561Y-105376788D01*
X123935926Y-105371308D01*
X123893102Y-105366166D01*
X123106898Y-105366166D01*
X123067853Y-105370854D01*
X123018438Y-105376788D01*
X122877656Y-105432305D01*
X122757076Y-105523744D01*
X122706510Y-105590426D01*
X122650318Y-105631949D01*
X122607707Y-105639500D01*
X121734500Y-105639500D01*
X121667461Y-105619815D01*
X121621706Y-105567011D01*
X121610500Y-105515500D01*
X121610500Y-103279292D01*
X121610500Y-103279290D01*
X121582525Y-103174886D01*
X121562469Y-103140147D01*
X121528486Y-103081286D01*
X121528480Y-103081278D01*
X121452054Y-103004852D01*
X121452046Y-103004846D01*
X121358453Y-102950811D01*
X121358450Y-102950809D01*
X121358447Y-102950808D01*
X121254043Y-102922833D01*
X121254041Y-102922833D01*
X120534500Y-102922833D01*
X120467461Y-102903148D01*
X120421706Y-102850344D01*
X120410500Y-102798833D01*
X120410500Y-102752295D01*
X120430185Y-102685256D01*
X120482989Y-102639501D01*
X120488988Y-102636949D01*
X120622342Y-102584361D01*
X120742922Y-102492922D01*
X120834361Y-102372342D01*
X120889877Y-102231564D01*
X120900500Y-102143102D01*
X120900500Y-101156898D01*
X120889877Y-101068436D01*
X120834361Y-100927658D01*
X120834360Y-100927657D01*
X120834360Y-100927656D01*
X120737797Y-100800319D01*
X120740289Y-100798428D01*
X120714041Y-100750358D01*
X120719025Y-100680666D01*
X120760897Y-100624733D01*
X120826361Y-100600316D01*
X120835207Y-100600000D01*
X132876000Y-100600000D01*
X132943039Y-100619685D01*
G37*
%TD.AperFunction*%
%TA.AperFunction,Conductor*%
G36*
X103546789Y-100619685D02*
G01*
X103592544Y-100672489D01*
X103602488Y-100741647D01*
X103595104Y-100769491D01*
X103585614Y-100793555D01*
X103575000Y-100881946D01*
X103575000Y-101200000D01*
X105350000Y-101200000D01*
X105350000Y-100881946D01*
X105339385Y-100793555D01*
X105329896Y-100769491D01*
X105323614Y-100699905D01*
X105355950Y-100637968D01*
X105416638Y-100603346D01*
X105445250Y-100600000D01*
X105554212Y-100600000D01*
X105621251Y-100619685D01*
X105667006Y-100672489D01*
X105676950Y-100741647D01*
X105669566Y-100769491D01*
X105660122Y-100793436D01*
X105653485Y-100848713D01*
X105649500Y-100881898D01*
X105649500Y-101918102D01*
X105655126Y-101964954D01*
X105660122Y-102006561D01*
X105715639Y-102147343D01*
X105807077Y-102267922D01*
X105927656Y-102359360D01*
X105927657Y-102359360D01*
X105927658Y-102359361D01*
X106068436Y-102414877D01*
X106156898Y-102425500D01*
X106156903Y-102425500D01*
X106918097Y-102425500D01*
X106918102Y-102425500D01*
X107006564Y-102414877D01*
X107147342Y-102359361D01*
X107267922Y-102267922D01*
X107326071Y-102191240D01*
X107382263Y-102149718D01*
X107424875Y-102142166D01*
X107494564Y-102142166D01*
X107561603Y-102161851D01*
X107607358Y-102214655D01*
X107617302Y-102283813D01*
X107593368Y-102341091D01*
X107565639Y-102377656D01*
X107510122Y-102518438D01*
X107504188Y-102567853D01*
X107499500Y-102606898D01*
X107499500Y-102606903D01*
X107499500Y-102720162D01*
X107479815Y-102787201D01*
X107427011Y-102832956D01*
X107407594Y-102839937D01*
X107373909Y-102848963D01*
X107306814Y-102866941D01*
X107306812Y-102866941D01*
X107306812Y-102866942D01*
X107192686Y-102932833D01*
X107192683Y-102932835D01*
X107099502Y-103026016D01*
X107099500Y-103026019D01*
X107033608Y-103140145D01*
X106999500Y-103267441D01*
X106999500Y-103375500D01*
X106979815Y-103442539D01*
X106927011Y-103488294D01*
X106875500Y-103499500D01*
X100934108Y-103499500D01*
X100806811Y-103533608D01*
X100785999Y-103545625D01*
X100718099Y-103562096D01*
X100652072Y-103539244D01*
X100608882Y-103484322D01*
X100600000Y-103438237D01*
X100600000Y-101918053D01*
X103575000Y-101918053D01*
X103585613Y-102006443D01*
X103641079Y-102147095D01*
X103732435Y-102267564D01*
X103852904Y-102358920D01*
X103993556Y-102414386D01*
X104081946Y-102425000D01*
X104262500Y-102425000D01*
X104662500Y-102425000D01*
X104843054Y-102425000D01*
X104931443Y-102414386D01*
X105072095Y-102358920D01*
X105192564Y-102267564D01*
X105283920Y-102147095D01*
X105339386Y-102006443D01*
X105350000Y-101918053D01*
X105350000Y-101600000D01*
X104662500Y-101600000D01*
X104662500Y-102425000D01*
X104262500Y-102425000D01*
X104262500Y-101600000D01*
X103575000Y-101600000D01*
X103575000Y-101918053D01*
X100600000Y-101918053D01*
X100600000Y-100724000D01*
X100619685Y-100656961D01*
X100672489Y-100611206D01*
X100724000Y-100600000D01*
X103479750Y-100600000D01*
X103546789Y-100619685D01*
G37*
%TD.AperFunction*%
%TD*%
%TA.AperFunction,Conductor*%
%TO.N,/GND_IR*%
G36*
X149231832Y-100619685D02*
G01*
X149277587Y-100672489D01*
X149287531Y-100741647D01*
X149261113Y-100799492D01*
X149262203Y-100800319D01*
X149258516Y-100805180D01*
X149258506Y-100805203D01*
X149258470Y-100805241D01*
X149165639Y-100927656D01*
X149110122Y-101068438D01*
X149105094Y-101110314D01*
X149099500Y-101156898D01*
X149099500Y-102143102D01*
X149102309Y-102166492D01*
X149110122Y-102231561D01*
X149110122Y-102231563D01*
X149110123Y-102231564D01*
X149123768Y-102266166D01*
X149165639Y-102372343D01*
X149257077Y-102492922D01*
X149377656Y-102584360D01*
X149377657Y-102584360D01*
X149377658Y-102584361D01*
X149510991Y-102636941D01*
X149566134Y-102679846D01*
X149589327Y-102745754D01*
X149589500Y-102752295D01*
X149589500Y-102798833D01*
X149569815Y-102865872D01*
X149517011Y-102911627D01*
X149465500Y-102922833D01*
X147554043Y-102922833D01*
X147445957Y-102922833D01*
X147341553Y-102950808D01*
X147341551Y-102950808D01*
X147341551Y-102950809D01*
X147341546Y-102950811D01*
X147247953Y-103004846D01*
X147247945Y-103004852D01*
X147171519Y-103081278D01*
X147171513Y-103081286D01*
X147117478Y-103174879D01*
X147117475Y-103174884D01*
X147117475Y-103174886D01*
X147089500Y-103279290D01*
X147089500Y-109054043D01*
X147117475Y-109158447D01*
X147117476Y-109158448D01*
X147117478Y-109158453D01*
X147171513Y-109252046D01*
X147171517Y-109252051D01*
X147171518Y-109252053D01*
X147247947Y-109328482D01*
X147247949Y-109328483D01*
X147247953Y-109328486D01*
X147314950Y-109367166D01*
X147341553Y-109382525D01*
X147445957Y-109410500D01*
X147554043Y-109410500D01*
X149595957Y-109410500D01*
X150275500Y-109410500D01*
X150342539Y-109430185D01*
X150388294Y-109482989D01*
X150399500Y-109534500D01*
X150399500Y-111044856D01*
X150399502Y-111044882D01*
X150402413Y-111069987D01*
X150402415Y-111069991D01*
X150447793Y-111172764D01*
X150447794Y-111172765D01*
X150527235Y-111252206D01*
X150630009Y-111297585D01*
X150655135Y-111300500D01*
X152744864Y-111300499D01*
X152744879Y-111300497D01*
X152744882Y-111300497D01*
X152769987Y-111297586D01*
X152769988Y-111297585D01*
X152769991Y-111297585D01*
X152872765Y-111252206D01*
X152952206Y-111172765D01*
X152997585Y-111069991D01*
X153000500Y-111044865D01*
X153000499Y-109897682D01*
X155500000Y-109897682D01*
X155500000Y-110102317D01*
X155532009Y-110304417D01*
X155595244Y-110499031D01*
X155688139Y-110681347D01*
X155750279Y-110766876D01*
X156331980Y-110185176D01*
X156334075Y-110192993D01*
X156399901Y-110307007D01*
X156492993Y-110400099D01*
X156607007Y-110465925D01*
X156614822Y-110468019D01*
X156033121Y-111049719D01*
X156033122Y-111049720D01*
X156118640Y-111111852D01*
X156118649Y-111111858D01*
X156300968Y-111204755D01*
X156495582Y-111267990D01*
X156697683Y-111300000D01*
X156902317Y-111300000D01*
X157104417Y-111267990D01*
X157299031Y-111204755D01*
X157481349Y-111111859D01*
X157566876Y-111049719D01*
X157566877Y-111049718D01*
X156985178Y-110468019D01*
X156992993Y-110465925D01*
X157107007Y-110400099D01*
X157200099Y-110307007D01*
X157265925Y-110192993D01*
X157268019Y-110185177D01*
X157849718Y-110766877D01*
X157849719Y-110766876D01*
X157911859Y-110681349D01*
X158004755Y-110499031D01*
X158067990Y-110304417D01*
X158100000Y-110102317D01*
X158100000Y-109897682D01*
X158067990Y-109695582D01*
X158034676Y-109593053D01*
X160500000Y-109593053D01*
X160510613Y-109681443D01*
X160566079Y-109822095D01*
X160657435Y-109942564D01*
X160777904Y-110033920D01*
X160918556Y-110089386D01*
X161006946Y-110100000D01*
X161300000Y-110100000D01*
X161700000Y-110100000D01*
X161993054Y-110100000D01*
X162081443Y-110089386D01*
X162222095Y-110033920D01*
X162342564Y-109942564D01*
X162433920Y-109822095D01*
X162489386Y-109681443D01*
X162496998Y-109618053D01*
X163475000Y-109618053D01*
X163485613Y-109706443D01*
X163541079Y-109847095D01*
X163632435Y-109967564D01*
X163752904Y-110058920D01*
X163893556Y-110114386D01*
X163981946Y-110125000D01*
X164300000Y-110125000D01*
X164700000Y-110125000D01*
X165018054Y-110125000D01*
X165106443Y-110114386D01*
X165247095Y-110058920D01*
X165367564Y-109967564D01*
X165458920Y-109847095D01*
X165514386Y-109706443D01*
X165525000Y-109618053D01*
X165525000Y-109437500D01*
X164700000Y-109437500D01*
X164700000Y-110125000D01*
X164300000Y-110125000D01*
X164300000Y-109437500D01*
X163475000Y-109437500D01*
X163475000Y-109618053D01*
X162496998Y-109618053D01*
X162500000Y-109593053D01*
X162500000Y-109400000D01*
X161700000Y-109400000D01*
X161700000Y-110100000D01*
X161300000Y-110100000D01*
X161300000Y-109400000D01*
X160500000Y-109400000D01*
X160500000Y-109593053D01*
X158034676Y-109593053D01*
X158004755Y-109500968D01*
X157955822Y-109404933D01*
X157911858Y-109318649D01*
X157911852Y-109318640D01*
X157849720Y-109233122D01*
X157849719Y-109233121D01*
X157268019Y-109814821D01*
X157265925Y-109807007D01*
X157200099Y-109692993D01*
X157107007Y-109599901D01*
X156992993Y-109534075D01*
X156985176Y-109531980D01*
X157566876Y-108950279D01*
X157481347Y-108888139D01*
X157299031Y-108795244D01*
X157104417Y-108732009D01*
X156902317Y-108700000D01*
X156697683Y-108700000D01*
X156495582Y-108732009D01*
X156300968Y-108795244D01*
X156118648Y-108888141D01*
X156033122Y-108950278D01*
X156033122Y-108950279D01*
X156614823Y-109531980D01*
X156607007Y-109534075D01*
X156492993Y-109599901D01*
X156399901Y-109692993D01*
X156334075Y-109807007D01*
X156331980Y-109814823D01*
X155750279Y-109233122D01*
X155750278Y-109233122D01*
X155688141Y-109318648D01*
X155595244Y-109500968D01*
X155532009Y-109695582D01*
X155500000Y-109897682D01*
X153000499Y-109897682D01*
X153000499Y-109403559D01*
X153020184Y-109336521D01*
X153072988Y-109290766D01*
X153142146Y-109280822D01*
X153171947Y-109288997D01*
X153295672Y-109340246D01*
X153295676Y-109340246D01*
X153295677Y-109340247D01*
X153431004Y-109367166D01*
X153431007Y-109367166D01*
X153568995Y-109367166D01*
X153660041Y-109349055D01*
X153704328Y-109340246D01*
X153831811Y-109287441D01*
X153946542Y-109210780D01*
X154044114Y-109113208D01*
X154120775Y-108998477D01*
X154132687Y-108969718D01*
X154140820Y-108950085D01*
X154140820Y-108950083D01*
X154166478Y-108888141D01*
X154173580Y-108870994D01*
X154188648Y-108795244D01*
X154200500Y-108735661D01*
X154200500Y-108597670D01*
X154173581Y-108462343D01*
X154173580Y-108462342D01*
X154173580Y-108462338D01*
X154133708Y-108366077D01*
X154120778Y-108334861D01*
X154120771Y-108334848D01*
X154044114Y-108220124D01*
X154044111Y-108220120D01*
X153946545Y-108122554D01*
X153946541Y-108122551D01*
X153831817Y-108045894D01*
X153831804Y-108045887D01*
X153704332Y-107993087D01*
X153704322Y-107993084D01*
X153568995Y-107966166D01*
X153568993Y-107966166D01*
X153554500Y-107966166D01*
X153487461Y-107946481D01*
X153441706Y-107893677D01*
X153430500Y-107842166D01*
X153430500Y-107731723D01*
X153427567Y-107700451D01*
X153389858Y-107592685D01*
X153381469Y-107568711D01*
X153366339Y-107548211D01*
X153342369Y-107482583D01*
X153357684Y-107414413D01*
X153366342Y-107400941D01*
X153381023Y-107381050D01*
X153427068Y-107249462D01*
X153427070Y-107249450D01*
X153430000Y-107218213D01*
X153430000Y-107200000D01*
X151270001Y-107200000D01*
X151270001Y-107218202D01*
X151272931Y-107249459D01*
X151318977Y-107381051D01*
X151318978Y-107381053D01*
X151333659Y-107400945D01*
X151357629Y-107466575D01*
X151342313Y-107534745D01*
X151333661Y-107548207D01*
X151318531Y-107568708D01*
X151318530Y-107568711D01*
X151272433Y-107700448D01*
X151272432Y-107700450D01*
X151269500Y-107731723D01*
X151269500Y-108168276D01*
X151272432Y-108199549D01*
X151272432Y-108199551D01*
X151318529Y-108331285D01*
X151318532Y-108331290D01*
X151363239Y-108391867D01*
X151387209Y-108457496D01*
X151371893Y-108525666D01*
X151322153Y-108574734D01*
X151263468Y-108589500D01*
X150736532Y-108589500D01*
X150669493Y-108569815D01*
X150623738Y-108517011D01*
X150613794Y-108447853D01*
X150636761Y-108391867D01*
X150681469Y-108331289D01*
X150701965Y-108272716D01*
X150727567Y-108199551D01*
X150727567Y-108199549D01*
X150730500Y-108168276D01*
X150730500Y-107731723D01*
X150727567Y-107700450D01*
X150727567Y-107700448D01*
X150681470Y-107568714D01*
X150681469Y-107568711D01*
X150666340Y-107548212D01*
X150598589Y-107456411D01*
X150598588Y-107456410D01*
X150486294Y-107373534D01*
X150486285Y-107373529D01*
X150354550Y-107327432D01*
X150323276Y-107324500D01*
X150323272Y-107324500D01*
X148976728Y-107324500D01*
X148976724Y-107324500D01*
X148945450Y-107327432D01*
X148945448Y-107327432D01*
X148813714Y-107373529D01*
X148813705Y-107373534D01*
X148701411Y-107456410D01*
X148701410Y-107456411D01*
X148618534Y-107568705D01*
X148618529Y-107568714D01*
X148572432Y-107700448D01*
X148572432Y-107700450D01*
X148569500Y-107731723D01*
X148569500Y-108168276D01*
X148572432Y-108199549D01*
X148572432Y-108199551D01*
X148618529Y-108331285D01*
X148618532Y-108331290D01*
X148663239Y-108391867D01*
X148687209Y-108457496D01*
X148671893Y-108525666D01*
X148622153Y-108574734D01*
X148563468Y-108589500D01*
X148034500Y-108589500D01*
X147967461Y-108569815D01*
X147921706Y-108517011D01*
X147910500Y-108465500D01*
X147910500Y-106748987D01*
X147930185Y-106681948D01*
X147982989Y-106636193D01*
X148052147Y-106626249D01*
X148115703Y-106655274D01*
X148122181Y-106661306D01*
X148208036Y-106747161D01*
X148316464Y-106809761D01*
X148437399Y-106842166D01*
X148437401Y-106842166D01*
X149712599Y-106842166D01*
X149712601Y-106842166D01*
X149833536Y-106809761D01*
X149941964Y-106747161D01*
X149977306Y-106711819D01*
X150038629Y-106678334D01*
X150064987Y-106675500D01*
X150323276Y-106675500D01*
X150354549Y-106672567D01*
X150354551Y-106672567D01*
X150438399Y-106643226D01*
X150486289Y-106626469D01*
X150598589Y-106543589D01*
X150681469Y-106431289D01*
X150713189Y-106340639D01*
X150727567Y-106299551D01*
X150727567Y-106299549D01*
X150730500Y-106268276D01*
X150730500Y-105831723D01*
X150727567Y-105800450D01*
X150727567Y-105800448D01*
X150681470Y-105668714D01*
X150681469Y-105668711D01*
X150647248Y-105622343D01*
X150598589Y-105556411D01*
X150598588Y-105556410D01*
X150486294Y-105473534D01*
X150486285Y-105473529D01*
X150354550Y-105427432D01*
X150323276Y-105424500D01*
X150323272Y-105424500D01*
X149240761Y-105424500D01*
X149173722Y-105404815D01*
X149127967Y-105352011D01*
X149126199Y-105347950D01*
X149120776Y-105334858D01*
X149120775Y-105334855D01*
X149120773Y-105334852D01*
X149120771Y-105334848D01*
X149044114Y-105220124D01*
X149044111Y-105220120D01*
X148946545Y-105122554D01*
X148946541Y-105122551D01*
X148831817Y-105045894D01*
X148831804Y-105045887D01*
X148704332Y-104993087D01*
X148704322Y-104993084D01*
X148568995Y-104966166D01*
X148568993Y-104966166D01*
X148431007Y-104966166D01*
X148431005Y-104966166D01*
X148295677Y-104993084D01*
X148295667Y-104993087D01*
X148168195Y-105045887D01*
X148168182Y-105045894D01*
X148103391Y-105089187D01*
X148036713Y-105110065D01*
X147969333Y-105091580D01*
X147922643Y-105039602D01*
X147910500Y-104986085D01*
X147910500Y-104484500D01*
X147930185Y-104417461D01*
X147982989Y-104371706D01*
X148034500Y-104360500D01*
X148951579Y-104360500D01*
X149018618Y-104380185D01*
X149064373Y-104432989D01*
X149074693Y-104469710D01*
X149079736Y-104511706D01*
X149085122Y-104556561D01*
X149140639Y-104697343D01*
X149232077Y-104817922D01*
X149352656Y-104909360D01*
X149352657Y-104909360D01*
X149352658Y-104909361D01*
X149493436Y-104964877D01*
X149581898Y-104975500D01*
X149581903Y-104975500D01*
X150343097Y-104975500D01*
X150343102Y-104975500D01*
X150431564Y-104964877D01*
X150572342Y-104909361D01*
X150692922Y-104817922D01*
X150784361Y-104697342D01*
X150839877Y-104556564D01*
X150850500Y-104468102D01*
X150850500Y-103431898D01*
X150839877Y-103343436D01*
X150784361Y-103202658D01*
X150784360Y-103202657D01*
X150784360Y-103202656D01*
X150692922Y-103082077D01*
X150572341Y-102990638D01*
X150572339Y-102990637D01*
X150489010Y-102957776D01*
X150433866Y-102914870D01*
X150410673Y-102848963D01*
X150410500Y-102842422D01*
X150410500Y-102752295D01*
X150430185Y-102685256D01*
X150482989Y-102639501D01*
X150488988Y-102636949D01*
X150622342Y-102584361D01*
X150742922Y-102492922D01*
X150834361Y-102372342D01*
X150884646Y-102244826D01*
X150927551Y-102189685D01*
X150993459Y-102166492D01*
X151061443Y-102182612D01*
X151109920Y-102232929D01*
X151115348Y-102244814D01*
X151150652Y-102334339D01*
X151165639Y-102372343D01*
X151257077Y-102492922D01*
X151377656Y-102584360D01*
X151377657Y-102584360D01*
X151377658Y-102584361D01*
X151518436Y-102639877D01*
X151518440Y-102639877D01*
X151520990Y-102640883D01*
X151576134Y-102683789D01*
X151599327Y-102749697D01*
X151599500Y-102756238D01*
X151599500Y-102838478D01*
X151579815Y-102905517D01*
X151527011Y-102951272D01*
X151520991Y-102953832D01*
X151427658Y-102990638D01*
X151307077Y-103082077D01*
X151215639Y-103202656D01*
X151160122Y-103343438D01*
X151155427Y-103382539D01*
X151149500Y-103431898D01*
X151149500Y-104468102D01*
X151154736Y-104511706D01*
X151160122Y-104556561D01*
X151215639Y-104697343D01*
X151307077Y-104817922D01*
X151427656Y-104909360D01*
X151427657Y-104909360D01*
X151427658Y-104909361D01*
X151560666Y-104961813D01*
X151585871Y-104981424D01*
X151612020Y-104999727D01*
X151613722Y-105003094D01*
X151615808Y-105004717D01*
X151629914Y-105030148D01*
X151637000Y-105047440D01*
X151637000Y-105052727D01*
X151664293Y-105154587D01*
X151717020Y-105245913D01*
X151719237Y-105248130D01*
X151724700Y-105261461D01*
X151727474Y-105288223D01*
X151733820Y-105314379D01*
X151731023Y-105322458D01*
X151731905Y-105330959D01*
X151719770Y-105354973D01*
X151710968Y-105380406D01*
X151704249Y-105385689D01*
X151700394Y-105393319D01*
X151677197Y-105406963D01*
X151656046Y-105423597D01*
X151650915Y-105425520D01*
X151513714Y-105473529D01*
X151513705Y-105473534D01*
X151401411Y-105556410D01*
X151401410Y-105556411D01*
X151318534Y-105668705D01*
X151318529Y-105668714D01*
X151272432Y-105800448D01*
X151272432Y-105800450D01*
X151269500Y-105831723D01*
X151269500Y-106268276D01*
X151272432Y-106299548D01*
X151318531Y-106431289D01*
X151333659Y-106451787D01*
X151357629Y-106517417D01*
X151342313Y-106585587D01*
X151333661Y-106599050D01*
X151318978Y-106618945D01*
X151272930Y-106750544D01*
X151272929Y-106750549D01*
X151270000Y-106781786D01*
X151270000Y-106800000D01*
X153429999Y-106800000D01*
X153429999Y-106781797D01*
X153427068Y-106750540D01*
X153379800Y-106615455D01*
X153376238Y-106545676D01*
X153410966Y-106485049D01*
X153472960Y-106452821D01*
X153496841Y-106450500D01*
X154014632Y-106450500D01*
X154081671Y-106470185D01*
X154120791Y-106515332D01*
X154122729Y-106514214D01*
X154126793Y-106521253D01*
X154179520Y-106612579D01*
X154254087Y-106687146D01*
X154345413Y-106739873D01*
X154447273Y-106767166D01*
X154447275Y-106767166D01*
X154552725Y-106767166D01*
X154552727Y-106767166D01*
X154654587Y-106739873D01*
X154745913Y-106687146D01*
X154820480Y-106612579D01*
X154873207Y-106521253D01*
X154900500Y-106419393D01*
X154900500Y-106106238D01*
X154920185Y-106039199D01*
X154972989Y-105993444D01*
X154979010Y-105990883D01*
X154981559Y-105989877D01*
X154981564Y-105989877D01*
X155122342Y-105934361D01*
X155242922Y-105842922D01*
X155334361Y-105722342D01*
X155384646Y-105594826D01*
X155427551Y-105539685D01*
X155493459Y-105516492D01*
X155561443Y-105532612D01*
X155609920Y-105582929D01*
X155615348Y-105594814D01*
X155644487Y-105668705D01*
X155665639Y-105722343D01*
X155757077Y-105842922D01*
X155877656Y-105934360D01*
X155877657Y-105934360D01*
X155877658Y-105934361D01*
X156018436Y-105989877D01*
X156106898Y-106000500D01*
X156106903Y-106000500D01*
X156893097Y-106000500D01*
X156893102Y-106000500D01*
X156981564Y-105989877D01*
X157122342Y-105934361D01*
X157242922Y-105842922D01*
X157314572Y-105748436D01*
X157370763Y-105706915D01*
X157425533Y-105699961D01*
X157431004Y-105700500D01*
X157431007Y-105700500D01*
X157568995Y-105700500D01*
X157660041Y-105682389D01*
X157704328Y-105673580D01*
X157802924Y-105632740D01*
X157831804Y-105620778D01*
X157831804Y-105620777D01*
X157831811Y-105620775D01*
X157946542Y-105544114D01*
X158044114Y-105446542D01*
X158120775Y-105331811D01*
X158173580Y-105204328D01*
X158189846Y-105122554D01*
X158200500Y-105068995D01*
X158200500Y-104931004D01*
X158173581Y-104795677D01*
X158173580Y-104795676D01*
X158173580Y-104795672D01*
X158132851Y-104697342D01*
X158120778Y-104668195D01*
X158120771Y-104668182D01*
X158044114Y-104553458D01*
X158044111Y-104553454D01*
X157962838Y-104472181D01*
X157929353Y-104410858D01*
X157934337Y-104341166D01*
X157976209Y-104285233D01*
X158041673Y-104260816D01*
X158050519Y-104260500D01*
X158965500Y-104260500D01*
X159032539Y-104280185D01*
X159078294Y-104332989D01*
X159089500Y-104384500D01*
X159089500Y-106587623D01*
X159089500Y-107108457D01*
X159089500Y-107216543D01*
X159117475Y-107320947D01*
X159117476Y-107320948D01*
X159117478Y-107320953D01*
X159171513Y-107414546D01*
X159171517Y-107414551D01*
X159171518Y-107414553D01*
X159247947Y-107490982D01*
X159247949Y-107490983D01*
X159247953Y-107490986D01*
X159323747Y-107534745D01*
X159341553Y-107545025D01*
X159445957Y-107573000D01*
X160387085Y-107573000D01*
X160454124Y-107592685D01*
X160499879Y-107645489D01*
X160507872Y-107673928D01*
X160508173Y-107673852D01*
X160510120Y-107681556D01*
X160565639Y-107822343D01*
X160657077Y-107942922D01*
X160777657Y-108034361D01*
X160806886Y-108045887D01*
X160905853Y-108084915D01*
X160960995Y-108127819D01*
X160984189Y-108193726D01*
X160968069Y-108261711D01*
X160917752Y-108310188D01*
X160905853Y-108315622D01*
X160777906Y-108366078D01*
X160657435Y-108457435D01*
X160566079Y-108577904D01*
X160510613Y-108718556D01*
X160500000Y-108806946D01*
X160500000Y-109000000D01*
X162500000Y-109000000D01*
X162500000Y-108856946D01*
X163475000Y-108856946D01*
X163475000Y-109037500D01*
X164300000Y-109037500D01*
X164700000Y-109037500D01*
X165525000Y-109037500D01*
X165525000Y-108856946D01*
X165514386Y-108768556D01*
X165458920Y-108627904D01*
X165367564Y-108507435D01*
X165247095Y-108416079D01*
X165106443Y-108360613D01*
X165018054Y-108350000D01*
X164700000Y-108350000D01*
X164700000Y-109037500D01*
X164300000Y-109037500D01*
X164300000Y-108350000D01*
X163981946Y-108350000D01*
X163893556Y-108360613D01*
X163752904Y-108416079D01*
X163632435Y-108507435D01*
X163541079Y-108627904D01*
X163485613Y-108768556D01*
X163475000Y-108856946D01*
X162500000Y-108856946D01*
X162500000Y-108806946D01*
X162489386Y-108718556D01*
X162433920Y-108577904D01*
X162342564Y-108457435D01*
X162222093Y-108366078D01*
X162222091Y-108366077D01*
X162094147Y-108315622D01*
X162039003Y-108272716D01*
X162015810Y-108206809D01*
X162031931Y-108138824D01*
X162082248Y-108090348D01*
X162094124Y-108084923D01*
X162222342Y-108034361D01*
X162342922Y-107942922D01*
X162434361Y-107822342D01*
X162489877Y-107681564D01*
X162489877Y-107681559D01*
X162489879Y-107681556D01*
X162491827Y-107673852D01*
X162493232Y-107674207D01*
X162517340Y-107617997D01*
X162575225Y-107578867D01*
X162612915Y-107573000D01*
X163377634Y-107573000D01*
X163444673Y-107592685D01*
X163490428Y-107645489D01*
X163492988Y-107651510D01*
X163540637Y-107772339D01*
X163540638Y-107772341D01*
X163632077Y-107892922D01*
X163752656Y-107984360D01*
X163752657Y-107984360D01*
X163752658Y-107984361D01*
X163893436Y-108039877D01*
X163981898Y-108050500D01*
X163981903Y-108050500D01*
X165018097Y-108050500D01*
X165018102Y-108050500D01*
X165106564Y-108039877D01*
X165247342Y-107984361D01*
X165367922Y-107892922D01*
X165459361Y-107772342D01*
X165514877Y-107631564D01*
X165525500Y-107543102D01*
X165525500Y-106781898D01*
X165514877Y-106693436D01*
X165459361Y-106552658D01*
X165459360Y-106552657D01*
X165459360Y-106552656D01*
X165367922Y-106432077D01*
X165247343Y-106340639D01*
X165106561Y-106285122D01*
X165060926Y-106279642D01*
X165018102Y-106274500D01*
X165018097Y-106274500D01*
X164718275Y-106274500D01*
X164666617Y-106260658D01*
X164665957Y-106262252D01*
X164658450Y-106259143D01*
X164658447Y-106259141D01*
X164554043Y-106231166D01*
X164554041Y-106231166D01*
X160534500Y-106231166D01*
X160467461Y-106211481D01*
X160421706Y-106158677D01*
X160410500Y-106107166D01*
X160410500Y-105786496D01*
X160430185Y-105719457D01*
X160482989Y-105673702D01*
X160552147Y-105663758D01*
X160615703Y-105692783D01*
X160633302Y-105711569D01*
X160657078Y-105742922D01*
X160777656Y-105834360D01*
X160777657Y-105834360D01*
X160777658Y-105834361D01*
X160918436Y-105889877D01*
X161006898Y-105900500D01*
X161006903Y-105900500D01*
X161993097Y-105900500D01*
X161993102Y-105900500D01*
X162081564Y-105889877D01*
X162222342Y-105834361D01*
X162342922Y-105742922D01*
X162434361Y-105622342D01*
X162489877Y-105481564D01*
X162500500Y-105393102D01*
X162500500Y-104624500D01*
X162520185Y-104557461D01*
X162572989Y-104511706D01*
X162624500Y-104500500D01*
X168375500Y-104500500D01*
X168442539Y-104520185D01*
X168488294Y-104572989D01*
X168499500Y-104624500D01*
X168499500Y-114708833D01*
X168479815Y-114775872D01*
X168427011Y-114821627D01*
X168375500Y-114832833D01*
X162541519Y-114832833D01*
X162474480Y-114813148D01*
X162453838Y-114796514D01*
X162446545Y-114789221D01*
X162446541Y-114789218D01*
X162331817Y-114712561D01*
X162331804Y-114712554D01*
X162204332Y-114659754D01*
X162204322Y-114659751D01*
X162068995Y-114632833D01*
X162068993Y-114632833D01*
X161931007Y-114632833D01*
X161931005Y-114632833D01*
X161795677Y-114659751D01*
X161795667Y-114659754D01*
X161668195Y-114712554D01*
X161668182Y-114712561D01*
X161553458Y-114789218D01*
X161553454Y-114789221D01*
X161455888Y-114886787D01*
X161455885Y-114886791D01*
X161379228Y-115001515D01*
X161379221Y-115001528D01*
X161326421Y-115129000D01*
X161326418Y-115129010D01*
X161299500Y-115264337D01*
X161299500Y-115264340D01*
X161299500Y-115402326D01*
X161299500Y-115402328D01*
X161299499Y-115402328D01*
X161326418Y-115537655D01*
X161326421Y-115537665D01*
X161379221Y-115665137D01*
X161379228Y-115665150D01*
X161455885Y-115779874D01*
X161455888Y-115779878D01*
X161553454Y-115877444D01*
X161553458Y-115877447D01*
X161668182Y-115954104D01*
X161668195Y-115954111D01*
X161741523Y-115984484D01*
X161795672Y-116006913D01*
X161795676Y-116006913D01*
X161795677Y-116006914D01*
X161931004Y-116033833D01*
X161931007Y-116033833D01*
X162068995Y-116033833D01*
X162160041Y-116015722D01*
X162204328Y-116006913D01*
X162331811Y-115954108D01*
X162446542Y-115877447D01*
X162446545Y-115877444D01*
X162453838Y-115870152D01*
X162515161Y-115836667D01*
X162541519Y-115833833D01*
X169065890Y-115833833D01*
X169065892Y-115833833D01*
X169193186Y-115799725D01*
X169213998Y-115787708D01*
X169281898Y-115771235D01*
X169347925Y-115794086D01*
X169391117Y-115849007D01*
X169400000Y-115895095D01*
X169400000Y-119276000D01*
X169380315Y-119343039D01*
X169327511Y-119388794D01*
X169276000Y-119400000D01*
X137124000Y-119400000D01*
X137056961Y-119380315D01*
X137011206Y-119327511D01*
X137000000Y-119276000D01*
X137000000Y-115946797D01*
X152524500Y-115946797D01*
X152524500Y-117386522D01*
X152524502Y-117386548D01*
X152527413Y-117411653D01*
X152527415Y-117411657D01*
X152572793Y-117514430D01*
X152572794Y-117514431D01*
X152652235Y-117593872D01*
X152755009Y-117639251D01*
X152780135Y-117642166D01*
X154219864Y-117642165D01*
X154219879Y-117642163D01*
X154219882Y-117642163D01*
X154244987Y-117639252D01*
X154244988Y-117639251D01*
X154244991Y-117639251D01*
X154347765Y-117593872D01*
X154427206Y-117514431D01*
X154472585Y-117411657D01*
X154475500Y-117386531D01*
X154475499Y-117298017D01*
X154495183Y-117230982D01*
X154547986Y-117185226D01*
X154617145Y-117175282D01*
X154680701Y-117204306D01*
X154702601Y-117229128D01*
X154742282Y-117288514D01*
X154878151Y-117424383D01*
X154878155Y-117424386D01*
X155037927Y-117531143D01*
X155037928Y-117531143D01*
X155037929Y-117531144D01*
X155037931Y-117531145D01*
X155215452Y-117604676D01*
X155215457Y-117604678D01*
X155401403Y-117641665D01*
X155403917Y-117642165D01*
X155403920Y-117642166D01*
X155403922Y-117642166D01*
X155596080Y-117642166D01*
X155596081Y-117642165D01*
X155784543Y-117604678D01*
X155962073Y-117531143D01*
X156121845Y-117424386D01*
X156257720Y-117288511D01*
X156364477Y-117128739D01*
X156385439Y-117078133D01*
X156429280Y-117023729D01*
X156495574Y-117001664D01*
X156563273Y-117018943D01*
X156610884Y-117070080D01*
X156614561Y-117078133D01*
X156635520Y-117128734D01*
X156635521Y-117128736D01*
X156742279Y-117288510D01*
X156742282Y-117288514D01*
X156878151Y-117424383D01*
X156878155Y-117424386D01*
X157037927Y-117531143D01*
X157037928Y-117531143D01*
X157037929Y-117531144D01*
X157037931Y-117531145D01*
X157215452Y-117604676D01*
X157215457Y-117604678D01*
X157401403Y-117641665D01*
X157403917Y-117642165D01*
X157403920Y-117642166D01*
X157403922Y-117642166D01*
X157596080Y-117642166D01*
X157596081Y-117642165D01*
X157784543Y-117604678D01*
X157962073Y-117531143D01*
X158121845Y-117424386D01*
X158134578Y-117411653D01*
X158197232Y-117349000D01*
X158257717Y-117288514D01*
X158257720Y-117288511D01*
X158364477Y-117128739D01*
X158385709Y-117077479D01*
X158429549Y-117023077D01*
X158495843Y-117001011D01*
X158563542Y-117018289D01*
X158611153Y-117069426D01*
X158614831Y-117077479D01*
X158635964Y-117128498D01*
X158635966Y-117128502D01*
X158683773Y-117200049D01*
X159113629Y-116770193D01*
X159127259Y-116821060D01*
X159179920Y-116912272D01*
X159254394Y-116986746D01*
X159345606Y-117039407D01*
X159396471Y-117053036D01*
X158966614Y-117482892D01*
X159038166Y-117530701D01*
X159215602Y-117604197D01*
X159215610Y-117604199D01*
X159403966Y-117641665D01*
X159403970Y-117641666D01*
X159596030Y-117641666D01*
X159596033Y-117641665D01*
X159784389Y-117604199D01*
X159784397Y-117604197D01*
X159961834Y-117530700D01*
X159961840Y-117530697D01*
X160033384Y-117482892D01*
X160033384Y-117482891D01*
X159603529Y-117053036D01*
X159654394Y-117039407D01*
X159745606Y-116986746D01*
X159820080Y-116912272D01*
X159872741Y-116821060D01*
X159886370Y-116770194D01*
X160316226Y-117200050D01*
X160364031Y-117128506D01*
X160364034Y-117128500D01*
X160437531Y-116951063D01*
X160437533Y-116951055D01*
X160474999Y-116762699D01*
X160475000Y-116762696D01*
X160475000Y-116570636D01*
X160474999Y-116570632D01*
X160437533Y-116382276D01*
X160437531Y-116382268D01*
X160364035Y-116204832D01*
X160316226Y-116133280D01*
X159886370Y-116563136D01*
X159872741Y-116512272D01*
X159820080Y-116421060D01*
X159745606Y-116346586D01*
X159654394Y-116293925D01*
X159603528Y-116280295D01*
X160033383Y-115850439D01*
X159961836Y-115802632D01*
X159961833Y-115802630D01*
X159784397Y-115729134D01*
X159784389Y-115729132D01*
X159596033Y-115691666D01*
X159403966Y-115691666D01*
X159215610Y-115729132D01*
X159215602Y-115729134D01*
X159038165Y-115802631D01*
X158966615Y-115850439D01*
X158966614Y-115850439D01*
X159396471Y-116280295D01*
X159345606Y-116293925D01*
X159254394Y-116346586D01*
X159179920Y-116421060D01*
X159127259Y-116512272D01*
X159113629Y-116563136D01*
X158683773Y-116133280D01*
X158683773Y-116133281D01*
X158635963Y-116204834D01*
X158614830Y-116255853D01*
X158570989Y-116310256D01*
X158504694Y-116332320D01*
X158436995Y-116315040D01*
X158389385Y-116263902D01*
X158385709Y-116255851D01*
X158364479Y-116204597D01*
X158364478Y-116204595D01*
X158333154Y-116157716D01*
X158257720Y-116044821D01*
X158257717Y-116044817D01*
X158197383Y-115984483D01*
X158197383Y-115984484D01*
X158121845Y-115908946D01*
X158121046Y-115908412D01*
X158116117Y-115903500D01*
X158102077Y-115877893D01*
X158085646Y-115853770D01*
X158085481Y-115847625D01*
X158082526Y-115842235D01*
X158084557Y-115813110D01*
X158083777Y-115783926D01*
X158086961Y-115778667D01*
X158087389Y-115772534D01*
X158104845Y-115749130D01*
X158119966Y-115724158D01*
X158125487Y-115721455D01*
X158129163Y-115716528D01*
X158156502Y-115706276D01*
X158182723Y-115693444D01*
X158193071Y-115692564D01*
X158194585Y-115691997D01*
X158196044Y-115692311D01*
X158203646Y-115691666D01*
X158418054Y-115691666D01*
X158506443Y-115681052D01*
X158647095Y-115625586D01*
X158767564Y-115534230D01*
X158858920Y-115413761D01*
X158914386Y-115273109D01*
X158925000Y-115184719D01*
X158925000Y-114866666D01*
X157150000Y-114866666D01*
X157150000Y-115184719D01*
X157160613Y-115273109D01*
X157216080Y-115413763D01*
X157303761Y-115529387D01*
X157328584Y-115594698D01*
X157314156Y-115663062D01*
X157265059Y-115712773D01*
X157229155Y-115725928D01*
X157215463Y-115728652D01*
X157215452Y-115728655D01*
X157037931Y-115802186D01*
X157037929Y-115802187D01*
X156878155Y-115908945D01*
X156878151Y-115908948D01*
X156742282Y-116044817D01*
X156742279Y-116044821D01*
X156635521Y-116204595D01*
X156614561Y-116255199D01*
X156570720Y-116309602D01*
X156504426Y-116331667D01*
X156436726Y-116314388D01*
X156389116Y-116263250D01*
X156385439Y-116255199D01*
X156364478Y-116204595D01*
X156333154Y-116157716D01*
X156257720Y-116044821D01*
X156257717Y-116044817D01*
X156117538Y-115904638D01*
X156119338Y-115902837D01*
X156086259Y-115854283D01*
X156084383Y-115784439D01*
X156120565Y-115724668D01*
X156183318Y-115693946D01*
X156204255Y-115692166D01*
X156343097Y-115692166D01*
X156343102Y-115692166D01*
X156431564Y-115681543D01*
X156572342Y-115626027D01*
X156692922Y-115534588D01*
X156784361Y-115414008D01*
X156839877Y-115273230D01*
X156850500Y-115184768D01*
X156850500Y-114148612D01*
X157150000Y-114148612D01*
X157150000Y-114466666D01*
X157837500Y-114466666D01*
X158237500Y-114466666D01*
X158925000Y-114466666D01*
X158925000Y-114148612D01*
X158914386Y-114060222D01*
X158858920Y-113919570D01*
X158767564Y-113799101D01*
X158647095Y-113707745D01*
X158506443Y-113652279D01*
X158418054Y-113641666D01*
X158237500Y-113641666D01*
X158237500Y-114466666D01*
X157837500Y-114466666D01*
X157837500Y-113641666D01*
X157656946Y-113641666D01*
X157568556Y-113652279D01*
X157427904Y-113707745D01*
X157307435Y-113799101D01*
X157216079Y-113919570D01*
X157160613Y-114060222D01*
X157150000Y-114148612D01*
X156850500Y-114148612D01*
X156850500Y-114148564D01*
X156839877Y-114060102D01*
X156784361Y-113919324D01*
X156784360Y-113919323D01*
X156784360Y-113919322D01*
X156692922Y-113798743D01*
X156572343Y-113707305D01*
X156476192Y-113669388D01*
X156431564Y-113651789D01*
X156431563Y-113651788D01*
X156431561Y-113651788D01*
X156385926Y-113646308D01*
X156343102Y-113641166D01*
X155581898Y-113641166D01*
X155542853Y-113645854D01*
X155493438Y-113651788D01*
X155352656Y-113707305D01*
X155232077Y-113798743D01*
X155140639Y-113919322D01*
X155085122Y-114060104D01*
X155082077Y-114085466D01*
X155079497Y-114106951D01*
X155051961Y-114171163D01*
X154994079Y-114210297D01*
X154956382Y-114216166D01*
X154091518Y-114216166D01*
X154024479Y-114196481D01*
X154003841Y-114179851D01*
X153946542Y-114122552D01*
X153946541Y-114122551D01*
X153946540Y-114122550D01*
X153831817Y-114045894D01*
X153831804Y-114045887D01*
X153704332Y-113993087D01*
X153704322Y-113993084D01*
X153568995Y-113966166D01*
X153568993Y-113966166D01*
X153431007Y-113966166D01*
X153431005Y-113966166D01*
X153295677Y-113993084D01*
X153295667Y-113993087D01*
X153168195Y-114045887D01*
X153168182Y-114045894D01*
X153053458Y-114122551D01*
X153053454Y-114122554D01*
X152955888Y-114220120D01*
X152955885Y-114220124D01*
X152879228Y-114334848D01*
X152879221Y-114334861D01*
X152826421Y-114462333D01*
X152826418Y-114462343D01*
X152799500Y-114597670D01*
X152799500Y-114597673D01*
X152799500Y-114735659D01*
X152799500Y-114735661D01*
X152799499Y-114735661D01*
X152826418Y-114870988D01*
X152826421Y-114870998D01*
X152879221Y-114998470D01*
X152879228Y-114998483D01*
X152955885Y-115113207D01*
X152955888Y-115113211D01*
X153053454Y-115210777D01*
X153053458Y-115210780D01*
X153168182Y-115287437D01*
X153168195Y-115287444D01*
X153295667Y-115340244D01*
X153295672Y-115340246D01*
X153295676Y-115340246D01*
X153295677Y-115340247D01*
X153431004Y-115367166D01*
X153431007Y-115367166D01*
X153568995Y-115367166D01*
X153660041Y-115349055D01*
X153704328Y-115340246D01*
X153831811Y-115287441D01*
X153946542Y-115210780D01*
X154003838Y-115153483D01*
X154065159Y-115120000D01*
X154091518Y-115117166D01*
X154956382Y-115117166D01*
X155023421Y-115136851D01*
X155069176Y-115189655D01*
X155079496Y-115226379D01*
X155082318Y-115249874D01*
X155085122Y-115273227D01*
X155140639Y-115414009D01*
X155232079Y-115534590D01*
X155233210Y-115535721D01*
X155233913Y-115537008D01*
X155237203Y-115541347D01*
X155236551Y-115541840D01*
X155266695Y-115597044D01*
X155261711Y-115666736D01*
X155219839Y-115722669D01*
X155192982Y-115737963D01*
X155037929Y-115802187D01*
X154878155Y-115908945D01*
X154878151Y-115908948D01*
X154742282Y-116044817D01*
X154742279Y-116044821D01*
X154702601Y-116104204D01*
X154648989Y-116149009D01*
X154579664Y-116157716D01*
X154516636Y-116127561D01*
X154479917Y-116068118D01*
X154475499Y-116035313D01*
X154475499Y-115946809D01*
X154475499Y-115946802D01*
X154475497Y-115946783D01*
X154472586Y-115921678D01*
X154472585Y-115921676D01*
X154472585Y-115921675D01*
X154427206Y-115818901D01*
X154347765Y-115739460D01*
X154317118Y-115725928D01*
X154244992Y-115694081D01*
X154219865Y-115691166D01*
X152780143Y-115691166D01*
X152780117Y-115691168D01*
X152755012Y-115694079D01*
X152755008Y-115694081D01*
X152652235Y-115739459D01*
X152572794Y-115818900D01*
X152527415Y-115921672D01*
X152527415Y-115921674D01*
X152524500Y-115946797D01*
X137000000Y-115946797D01*
X137000000Y-100724000D01*
X137019685Y-100656961D01*
X137072489Y-100611206D01*
X137124000Y-100600000D01*
X149164793Y-100600000D01*
X149231832Y-100619685D01*
G37*
%TD.AperFunction*%
%TA.AperFunction,Conductor*%
G36*
X164621789Y-100619685D02*
G01*
X164667544Y-100672489D01*
X164677488Y-100741647D01*
X164670104Y-100769491D01*
X164660614Y-100793555D01*
X164650000Y-100881946D01*
X164650000Y-101200000D01*
X166425000Y-101200000D01*
X166425000Y-100881946D01*
X166414385Y-100793555D01*
X166404896Y-100769491D01*
X166398614Y-100699905D01*
X166430950Y-100637968D01*
X166491638Y-100603346D01*
X166520250Y-100600000D01*
X169276000Y-100600000D01*
X169343039Y-100619685D01*
X169388794Y-100672489D01*
X169400000Y-100724000D01*
X169400000Y-103438237D01*
X169380315Y-103505276D01*
X169327511Y-103551031D01*
X169258353Y-103560975D01*
X169214001Y-103545625D01*
X169193188Y-103533608D01*
X169108323Y-103510869D01*
X169065892Y-103499500D01*
X169065891Y-103499500D01*
X163124500Y-103499500D01*
X163057461Y-103479815D01*
X163011706Y-103427011D01*
X163000500Y-103375500D01*
X163000500Y-103267443D01*
X163000500Y-103267441D01*
X162966392Y-103140147D01*
X162900500Y-103026019D01*
X162807314Y-102932833D01*
X162693186Y-102866941D01*
X162624194Y-102848454D01*
X162592406Y-102839937D01*
X162532746Y-102803571D01*
X162502217Y-102740724D01*
X162500500Y-102720162D01*
X162500500Y-102606903D01*
X162500500Y-102606898D01*
X162489877Y-102518436D01*
X162434361Y-102377658D01*
X162434360Y-102377657D01*
X162434360Y-102377656D01*
X162406632Y-102341091D01*
X162381809Y-102275779D01*
X162396237Y-102207415D01*
X162445335Y-102157705D01*
X162505436Y-102142166D01*
X162575125Y-102142166D01*
X162642164Y-102161851D01*
X162673929Y-102191241D01*
X162732077Y-102267922D01*
X162852656Y-102359360D01*
X162852657Y-102359360D01*
X162852658Y-102359361D01*
X162993436Y-102414877D01*
X163081898Y-102425500D01*
X163081903Y-102425500D01*
X163843097Y-102425500D01*
X163843102Y-102425500D01*
X163931564Y-102414877D01*
X164072342Y-102359361D01*
X164192922Y-102267922D01*
X164284361Y-102147342D01*
X164339877Y-102006564D01*
X164350500Y-101918102D01*
X164350500Y-101918053D01*
X164650000Y-101918053D01*
X164660613Y-102006443D01*
X164716079Y-102147095D01*
X164807435Y-102267564D01*
X164927904Y-102358920D01*
X165068556Y-102414386D01*
X165156946Y-102425000D01*
X165337500Y-102425000D01*
X165737500Y-102425000D01*
X165918054Y-102425000D01*
X166006443Y-102414386D01*
X166147095Y-102358920D01*
X166267564Y-102267564D01*
X166358920Y-102147095D01*
X166414386Y-102006443D01*
X166425000Y-101918053D01*
X166425000Y-101600000D01*
X165737500Y-101600000D01*
X165737500Y-102425000D01*
X165337500Y-102425000D01*
X165337500Y-101600000D01*
X164650000Y-101600000D01*
X164650000Y-101918053D01*
X164350500Y-101918053D01*
X164350500Y-100881898D01*
X164339877Y-100793436D01*
X164330433Y-100769490D01*
X164324152Y-100699904D01*
X164356488Y-100637968D01*
X164417177Y-100603346D01*
X164445788Y-100600000D01*
X164554750Y-100600000D01*
X164621789Y-100619685D01*
G37*
%TD.AperFunction*%
%TD*%
M02*
