%TF.GenerationSoftware,KiCad,Pcbnew,10.0.6*%
%TF.CreationDate,2026-10-02T20:38:32+07:00*%
%TF.ProjectId,bpw34_receiver,62707733-345f-4726-9563-65697665722e,rev?*%
%TF.SameCoordinates,Original*%
%TF.FileFunction,Legend,Top*%
%TF.FilePolarity,Positive*%
%FSLAX46Y46*%
G04 Gerber Fmt 4.6, Leading zero omitted, Abs format (unit mm)*
G04 Created by KiCad (PCBNEW 10.0.6) date 2026-10-02 20:38:32*
%MOMM*%
%LPD*%
G01*
G04 APERTURE LIST*
%ADD10C,0.100000*%
%ADD11C,0.120000*%
%ADD12C,0.150000*%
%ADD13C,0.350000*%
%ADD14R,1.350000X1.350000*%
%ADD15C,1.350000*%
%ADD16R,2.000000X2.000000*%
%ADD17C,2.000000*%
%ADD18R,1.700000X1.700000*%
%ADD19C,1.700000*%
G04 APERTURE END LIST*
D10*
X113483333Y-102564895D02*
X113216666Y-102183942D01*
X113026190Y-102564895D02*
X113026190Y-101764895D01*
X113026190Y-101764895D02*
X113330952Y-101764895D01*
X113330952Y-101764895D02*
X113407142Y-101802990D01*
X113407142Y-101802990D02*
X113445237Y-101841085D01*
X113445237Y-101841085D02*
X113483333Y-101917276D01*
X113483333Y-101917276D02*
X113483333Y-102031561D01*
X113483333Y-102031561D02*
X113445237Y-102107752D01*
X113445237Y-102107752D02*
X113407142Y-102145847D01*
X113407142Y-102145847D02*
X113330952Y-102183942D01*
X113330952Y-102183942D02*
X113026190Y-102183942D01*
X113826190Y-102145847D02*
X114092856Y-102145847D01*
X114207142Y-102564895D02*
X113826190Y-102564895D01*
X113826190Y-102564895D02*
X113826190Y-101764895D01*
X113826190Y-101764895D02*
X114207142Y-101764895D01*
X114550000Y-102564895D02*
X114550000Y-101764895D01*
X114550000Y-101764895D02*
X114740476Y-101764895D01*
X114740476Y-101764895D02*
X114854762Y-101802990D01*
X114854762Y-101802990D02*
X114930952Y-101879180D01*
X114930952Y-101879180D02*
X114969047Y-101955371D01*
X114969047Y-101955371D02*
X115007143Y-102107752D01*
X115007143Y-102107752D02*
X115007143Y-102222038D01*
X115007143Y-102222038D02*
X114969047Y-102374419D01*
X114969047Y-102374419D02*
X114930952Y-102450609D01*
X114930952Y-102450609D02*
X114854762Y-102526800D01*
X114854762Y-102526800D02*
X114740476Y-102564895D01*
X114740476Y-102564895D02*
X114550000Y-102564895D01*
X116530952Y-101726800D02*
X115845238Y-102755371D01*
X117369047Y-102336323D02*
X117750000Y-102336323D01*
X117292857Y-102564895D02*
X117559524Y-101764895D01*
X117559524Y-101764895D02*
X117826190Y-102564895D01*
X118054761Y-101841085D02*
X118092857Y-101802990D01*
X118092857Y-101802990D02*
X118169047Y-101764895D01*
X118169047Y-101764895D02*
X118359523Y-101764895D01*
X118359523Y-101764895D02*
X118435714Y-101802990D01*
X118435714Y-101802990D02*
X118473809Y-101841085D01*
X118473809Y-101841085D02*
X118511904Y-101917276D01*
X118511904Y-101917276D02*
X118511904Y-101993466D01*
X118511904Y-101993466D02*
X118473809Y-102107752D01*
X118473809Y-102107752D02*
X118016666Y-102564895D01*
X118016666Y-102564895D02*
X118511904Y-102564895D01*
X128428570Y-103564895D02*
X128428570Y-102764895D01*
X128428570Y-102764895D02*
X128733332Y-102764895D01*
X128733332Y-102764895D02*
X128809522Y-102802990D01*
X128809522Y-102802990D02*
X128847617Y-102841085D01*
X128847617Y-102841085D02*
X128885713Y-102917276D01*
X128885713Y-102917276D02*
X128885713Y-103031561D01*
X128885713Y-103031561D02*
X128847617Y-103107752D01*
X128847617Y-103107752D02*
X128809522Y-103145847D01*
X128809522Y-103145847D02*
X128733332Y-103183942D01*
X128733332Y-103183942D02*
X128428570Y-103183942D01*
X129228570Y-103564895D02*
X129228570Y-102764895D01*
X129228570Y-102764895D02*
X129533332Y-102764895D01*
X129533332Y-102764895D02*
X129609522Y-102802990D01*
X129609522Y-102802990D02*
X129647617Y-102841085D01*
X129647617Y-102841085D02*
X129685713Y-102917276D01*
X129685713Y-102917276D02*
X129685713Y-103031561D01*
X129685713Y-103031561D02*
X129647617Y-103107752D01*
X129647617Y-103107752D02*
X129609522Y-103145847D01*
X129609522Y-103145847D02*
X129533332Y-103183942D01*
X129533332Y-103183942D02*
X129228570Y-103183942D01*
X130447617Y-102802990D02*
X130371427Y-102764895D01*
X130371427Y-102764895D02*
X130257141Y-102764895D01*
X130257141Y-102764895D02*
X130142855Y-102802990D01*
X130142855Y-102802990D02*
X130066665Y-102879180D01*
X130066665Y-102879180D02*
X130028570Y-102955371D01*
X130028570Y-102955371D02*
X129990474Y-103107752D01*
X129990474Y-103107752D02*
X129990474Y-103222038D01*
X129990474Y-103222038D02*
X130028570Y-103374419D01*
X130028570Y-103374419D02*
X130066665Y-103450609D01*
X130066665Y-103450609D02*
X130142855Y-103526800D01*
X130142855Y-103526800D02*
X130257141Y-103564895D01*
X130257141Y-103564895D02*
X130333332Y-103564895D01*
X130333332Y-103564895D02*
X130447617Y-103526800D01*
X130447617Y-103526800D02*
X130485713Y-103488704D01*
X130485713Y-103488704D02*
X130485713Y-103222038D01*
X130485713Y-103222038D02*
X130333332Y-103222038D01*
X131704760Y-103145847D02*
X131819046Y-103183942D01*
X131819046Y-103183942D02*
X131857141Y-103222038D01*
X131857141Y-103222038D02*
X131895237Y-103298228D01*
X131895237Y-103298228D02*
X131895237Y-103412514D01*
X131895237Y-103412514D02*
X131857141Y-103488704D01*
X131857141Y-103488704D02*
X131819046Y-103526800D01*
X131819046Y-103526800D02*
X131742856Y-103564895D01*
X131742856Y-103564895D02*
X131438094Y-103564895D01*
X131438094Y-103564895D02*
X131438094Y-102764895D01*
X131438094Y-102764895D02*
X131704760Y-102764895D01*
X131704760Y-102764895D02*
X131780951Y-102802990D01*
X131780951Y-102802990D02*
X131819046Y-102841085D01*
X131819046Y-102841085D02*
X131857141Y-102917276D01*
X131857141Y-102917276D02*
X131857141Y-102993466D01*
X131857141Y-102993466D02*
X131819046Y-103069657D01*
X131819046Y-103069657D02*
X131780951Y-103107752D01*
X131780951Y-103107752D02*
X131704760Y-103145847D01*
X131704760Y-103145847D02*
X131438094Y-103145847D01*
X132238094Y-103564895D02*
X132238094Y-102764895D01*
X132238094Y-102764895D02*
X132542856Y-102764895D01*
X132542856Y-102764895D02*
X132619046Y-102802990D01*
X132619046Y-102802990D02*
X132657141Y-102841085D01*
X132657141Y-102841085D02*
X132695237Y-102917276D01*
X132695237Y-102917276D02*
X132695237Y-103031561D01*
X132695237Y-103031561D02*
X132657141Y-103107752D01*
X132657141Y-103107752D02*
X132619046Y-103145847D01*
X132619046Y-103145847D02*
X132542856Y-103183942D01*
X132542856Y-103183942D02*
X132238094Y-103183942D01*
X132961903Y-102764895D02*
X133152379Y-103564895D01*
X133152379Y-103564895D02*
X133304760Y-102993466D01*
X133304760Y-102993466D02*
X133457141Y-103564895D01*
X133457141Y-103564895D02*
X133647618Y-102764895D01*
X133876189Y-102764895D02*
X134371427Y-102764895D01*
X134371427Y-102764895D02*
X134104761Y-103069657D01*
X134104761Y-103069657D02*
X134219046Y-103069657D01*
X134219046Y-103069657D02*
X134295237Y-103107752D01*
X134295237Y-103107752D02*
X134333332Y-103145847D01*
X134333332Y-103145847D02*
X134371427Y-103222038D01*
X134371427Y-103222038D02*
X134371427Y-103412514D01*
X134371427Y-103412514D02*
X134333332Y-103488704D01*
X134333332Y-103488704D02*
X134295237Y-103526800D01*
X134295237Y-103526800D02*
X134219046Y-103564895D01*
X134219046Y-103564895D02*
X133990475Y-103564895D01*
X133990475Y-103564895D02*
X133914284Y-103526800D01*
X133914284Y-103526800D02*
X133876189Y-103488704D01*
X135057142Y-103031561D02*
X135057142Y-103564895D01*
X134866666Y-102726800D02*
X134676189Y-103298228D01*
X134676189Y-103298228D02*
X135171428Y-103298228D01*
X136542857Y-103564895D02*
X136276190Y-103183942D01*
X136085714Y-103564895D02*
X136085714Y-102764895D01*
X136085714Y-102764895D02*
X136390476Y-102764895D01*
X136390476Y-102764895D02*
X136466666Y-102802990D01*
X136466666Y-102802990D02*
X136504761Y-102841085D01*
X136504761Y-102841085D02*
X136542857Y-102917276D01*
X136542857Y-102917276D02*
X136542857Y-103031561D01*
X136542857Y-103031561D02*
X136504761Y-103107752D01*
X136504761Y-103107752D02*
X136466666Y-103145847D01*
X136466666Y-103145847D02*
X136390476Y-103183942D01*
X136390476Y-103183942D02*
X136085714Y-103183942D01*
X136809523Y-102764895D02*
X137342857Y-103564895D01*
X137342857Y-102764895D02*
X136809523Y-103564895D01*
X138180952Y-102764895D02*
X138714286Y-102764895D01*
X138714286Y-102764895D02*
X138371428Y-103564895D01*
X139171429Y-102764895D02*
X139247619Y-102764895D01*
X139247619Y-102764895D02*
X139323810Y-102802990D01*
X139323810Y-102802990D02*
X139361905Y-102841085D01*
X139361905Y-102841085D02*
X139400000Y-102917276D01*
X139400000Y-102917276D02*
X139438095Y-103069657D01*
X139438095Y-103069657D02*
X139438095Y-103260133D01*
X139438095Y-103260133D02*
X139400000Y-103412514D01*
X139400000Y-103412514D02*
X139361905Y-103488704D01*
X139361905Y-103488704D02*
X139323810Y-103526800D01*
X139323810Y-103526800D02*
X139247619Y-103564895D01*
X139247619Y-103564895D02*
X139171429Y-103564895D01*
X139171429Y-103564895D02*
X139095238Y-103526800D01*
X139095238Y-103526800D02*
X139057143Y-103488704D01*
X139057143Y-103488704D02*
X139019048Y-103412514D01*
X139019048Y-103412514D02*
X138980952Y-103260133D01*
X138980952Y-103260133D02*
X138980952Y-103069657D01*
X138980952Y-103069657D02*
X139019048Y-102917276D01*
X139019048Y-102917276D02*
X139057143Y-102841085D01*
X139057143Y-102841085D02*
X139095238Y-102802990D01*
X139095238Y-102802990D02*
X139171429Y-102764895D01*
X139704762Y-103564895D02*
X140123810Y-103031561D01*
X139704762Y-103031561D02*
X140123810Y-103564895D01*
X140390476Y-102841085D02*
X140428572Y-102802990D01*
X140428572Y-102802990D02*
X140504762Y-102764895D01*
X140504762Y-102764895D02*
X140695238Y-102764895D01*
X140695238Y-102764895D02*
X140771429Y-102802990D01*
X140771429Y-102802990D02*
X140809524Y-102841085D01*
X140809524Y-102841085D02*
X140847619Y-102917276D01*
X140847619Y-102917276D02*
X140847619Y-102993466D01*
X140847619Y-102993466D02*
X140809524Y-103107752D01*
X140809524Y-103107752D02*
X140352381Y-103564895D01*
X140352381Y-103564895D02*
X140847619Y-103564895D01*
X141342858Y-102764895D02*
X141419048Y-102764895D01*
X141419048Y-102764895D02*
X141495239Y-102802990D01*
X141495239Y-102802990D02*
X141533334Y-102841085D01*
X141533334Y-102841085D02*
X141571429Y-102917276D01*
X141571429Y-102917276D02*
X141609524Y-103069657D01*
X141609524Y-103069657D02*
X141609524Y-103260133D01*
X141609524Y-103260133D02*
X141571429Y-103412514D01*
X141571429Y-103412514D02*
X141533334Y-103488704D01*
X141533334Y-103488704D02*
X141495239Y-103526800D01*
X141495239Y-103526800D02*
X141419048Y-103564895D01*
X141419048Y-103564895D02*
X141342858Y-103564895D01*
X141342858Y-103564895D02*
X141266667Y-103526800D01*
X141266667Y-103526800D02*
X141228572Y-103488704D01*
X141228572Y-103488704D02*
X141190477Y-103412514D01*
X141190477Y-103412514D02*
X141152381Y-103260133D01*
X141152381Y-103260133D02*
X141152381Y-103069657D01*
X141152381Y-103069657D02*
X141190477Y-102917276D01*
X141190477Y-102917276D02*
X141228572Y-102841085D01*
X141228572Y-102841085D02*
X141266667Y-102802990D01*
X141266667Y-102802990D02*
X141342858Y-102764895D01*
X132200000Y-104564895D02*
X132695238Y-104564895D01*
X132695238Y-104564895D02*
X132428572Y-104869657D01*
X132428572Y-104869657D02*
X132542857Y-104869657D01*
X132542857Y-104869657D02*
X132619048Y-104907752D01*
X132619048Y-104907752D02*
X132657143Y-104945847D01*
X132657143Y-104945847D02*
X132695238Y-105022038D01*
X132695238Y-105022038D02*
X132695238Y-105212514D01*
X132695238Y-105212514D02*
X132657143Y-105288704D01*
X132657143Y-105288704D02*
X132619048Y-105326800D01*
X132619048Y-105326800D02*
X132542857Y-105364895D01*
X132542857Y-105364895D02*
X132314286Y-105364895D01*
X132314286Y-105364895D02*
X132238095Y-105326800D01*
X132238095Y-105326800D02*
X132200000Y-105288704D01*
X132923810Y-104564895D02*
X133190477Y-105364895D01*
X133190477Y-105364895D02*
X133457143Y-104564895D01*
X133647619Y-104564895D02*
X134142857Y-104564895D01*
X134142857Y-104564895D02*
X133876191Y-104869657D01*
X133876191Y-104869657D02*
X133990476Y-104869657D01*
X133990476Y-104869657D02*
X134066667Y-104907752D01*
X134066667Y-104907752D02*
X134104762Y-104945847D01*
X134104762Y-104945847D02*
X134142857Y-105022038D01*
X134142857Y-105022038D02*
X134142857Y-105212514D01*
X134142857Y-105212514D02*
X134104762Y-105288704D01*
X134104762Y-105288704D02*
X134066667Y-105326800D01*
X134066667Y-105326800D02*
X133990476Y-105364895D01*
X133990476Y-105364895D02*
X133761905Y-105364895D01*
X133761905Y-105364895D02*
X133685714Y-105326800D01*
X133685714Y-105326800D02*
X133647619Y-105288704D01*
X135247620Y-104564895D02*
X135400001Y-104564895D01*
X135400001Y-104564895D02*
X135476191Y-104602990D01*
X135476191Y-104602990D02*
X135552382Y-104679180D01*
X135552382Y-104679180D02*
X135590477Y-104831561D01*
X135590477Y-104831561D02*
X135590477Y-105098228D01*
X135590477Y-105098228D02*
X135552382Y-105250609D01*
X135552382Y-105250609D02*
X135476191Y-105326800D01*
X135476191Y-105326800D02*
X135400001Y-105364895D01*
X135400001Y-105364895D02*
X135247620Y-105364895D01*
X135247620Y-105364895D02*
X135171429Y-105326800D01*
X135171429Y-105326800D02*
X135095239Y-105250609D01*
X135095239Y-105250609D02*
X135057143Y-105098228D01*
X135057143Y-105098228D02*
X135057143Y-104831561D01*
X135057143Y-104831561D02*
X135095239Y-104679180D01*
X135095239Y-104679180D02*
X135171429Y-104602990D01*
X135171429Y-104602990D02*
X135247620Y-104564895D01*
X135933334Y-105364895D02*
X135933334Y-104564895D01*
X135933334Y-104564895D02*
X136390477Y-105364895D01*
X136390477Y-105364895D02*
X136390477Y-104564895D01*
X137152381Y-105364895D02*
X136771429Y-105364895D01*
X136771429Y-105364895D02*
X136771429Y-104564895D01*
X137571429Y-104983942D02*
X137571429Y-105364895D01*
X137304762Y-104564895D02*
X137571429Y-104983942D01*
X137571429Y-104983942D02*
X137838095Y-104564895D01*
X130028570Y-110445847D02*
X130142856Y-110483942D01*
X130142856Y-110483942D02*
X130180951Y-110522038D01*
X130180951Y-110522038D02*
X130219047Y-110598228D01*
X130219047Y-110598228D02*
X130219047Y-110712514D01*
X130219047Y-110712514D02*
X130180951Y-110788704D01*
X130180951Y-110788704D02*
X130142856Y-110826800D01*
X130142856Y-110826800D02*
X130066666Y-110864895D01*
X130066666Y-110864895D02*
X129761904Y-110864895D01*
X129761904Y-110864895D02*
X129761904Y-110064895D01*
X129761904Y-110064895D02*
X130028570Y-110064895D01*
X130028570Y-110064895D02*
X130104761Y-110102990D01*
X130104761Y-110102990D02*
X130142856Y-110141085D01*
X130142856Y-110141085D02*
X130180951Y-110217276D01*
X130180951Y-110217276D02*
X130180951Y-110293466D01*
X130180951Y-110293466D02*
X130142856Y-110369657D01*
X130142856Y-110369657D02*
X130104761Y-110407752D01*
X130104761Y-110407752D02*
X130028570Y-110445847D01*
X130028570Y-110445847D02*
X129761904Y-110445847D01*
X130561904Y-110864895D02*
X130561904Y-110064895D01*
X130561904Y-110064895D02*
X130866666Y-110064895D01*
X130866666Y-110064895D02*
X130942856Y-110102990D01*
X130942856Y-110102990D02*
X130980951Y-110141085D01*
X130980951Y-110141085D02*
X131019047Y-110217276D01*
X131019047Y-110217276D02*
X131019047Y-110331561D01*
X131019047Y-110331561D02*
X130980951Y-110407752D01*
X130980951Y-110407752D02*
X130942856Y-110445847D01*
X130942856Y-110445847D02*
X130866666Y-110483942D01*
X130866666Y-110483942D02*
X130561904Y-110483942D01*
X131285713Y-110064895D02*
X131476189Y-110864895D01*
X131476189Y-110864895D02*
X131628570Y-110293466D01*
X131628570Y-110293466D02*
X131780951Y-110864895D01*
X131780951Y-110864895D02*
X131971428Y-110064895D01*
X132199999Y-110064895D02*
X132695237Y-110064895D01*
X132695237Y-110064895D02*
X132428571Y-110369657D01*
X132428571Y-110369657D02*
X132542856Y-110369657D01*
X132542856Y-110369657D02*
X132619047Y-110407752D01*
X132619047Y-110407752D02*
X132657142Y-110445847D01*
X132657142Y-110445847D02*
X132695237Y-110522038D01*
X132695237Y-110522038D02*
X132695237Y-110712514D01*
X132695237Y-110712514D02*
X132657142Y-110788704D01*
X132657142Y-110788704D02*
X132619047Y-110826800D01*
X132619047Y-110826800D02*
X132542856Y-110864895D01*
X132542856Y-110864895D02*
X132314285Y-110864895D01*
X132314285Y-110864895D02*
X132238094Y-110826800D01*
X132238094Y-110826800D02*
X132199999Y-110788704D01*
X133380952Y-110331561D02*
X133380952Y-110864895D01*
X133190476Y-110026800D02*
X132999999Y-110598228D01*
X132999999Y-110598228D02*
X133495238Y-110598228D01*
X134409524Y-110864895D02*
X134409524Y-110064895D01*
X134409524Y-110064895D02*
X134676190Y-110636323D01*
X134676190Y-110636323D02*
X134942857Y-110064895D01*
X134942857Y-110064895D02*
X134942857Y-110864895D01*
X135285714Y-110636323D02*
X135666667Y-110636323D01*
X135209524Y-110864895D02*
X135476191Y-110064895D01*
X135476191Y-110064895D02*
X135742857Y-110864895D01*
X136466667Y-110864895D02*
X136200000Y-110483942D01*
X136009524Y-110864895D02*
X136009524Y-110064895D01*
X136009524Y-110064895D02*
X136314286Y-110064895D01*
X136314286Y-110064895D02*
X136390476Y-110102990D01*
X136390476Y-110102990D02*
X136428571Y-110141085D01*
X136428571Y-110141085D02*
X136466667Y-110217276D01*
X136466667Y-110217276D02*
X136466667Y-110331561D01*
X136466667Y-110331561D02*
X136428571Y-110407752D01*
X136428571Y-110407752D02*
X136390476Y-110445847D01*
X136390476Y-110445847D02*
X136314286Y-110483942D01*
X136314286Y-110483942D02*
X136009524Y-110483942D01*
X136809524Y-110864895D02*
X136809524Y-110064895D01*
X137266667Y-110864895D02*
X136923809Y-110407752D01*
X137266667Y-110064895D02*
X136809524Y-110522038D01*
X138219048Y-110445847D02*
X138828572Y-110445847D01*
X138828572Y-110674419D02*
X138219048Y-110674419D01*
X139819048Y-110864895D02*
X139819048Y-110064895D01*
X140276191Y-110864895D02*
X139933333Y-110407752D01*
X140276191Y-110064895D02*
X139819048Y-110522038D01*
X152097619Y-102564895D02*
X152097619Y-101764895D01*
X152935714Y-102564895D02*
X152669047Y-102183942D01*
X152478571Y-102564895D02*
X152478571Y-101764895D01*
X152478571Y-101764895D02*
X152783333Y-101764895D01*
X152783333Y-101764895D02*
X152859523Y-101802990D01*
X152859523Y-101802990D02*
X152897618Y-101841085D01*
X152897618Y-101841085D02*
X152935714Y-101917276D01*
X152935714Y-101917276D02*
X152935714Y-102031561D01*
X152935714Y-102031561D02*
X152897618Y-102107752D01*
X152897618Y-102107752D02*
X152859523Y-102145847D01*
X152859523Y-102145847D02*
X152783333Y-102183942D01*
X152783333Y-102183942D02*
X152478571Y-102183942D01*
X154459523Y-101726800D02*
X153773809Y-102755371D01*
X155297618Y-102336323D02*
X155678571Y-102336323D01*
X155221428Y-102564895D02*
X155488095Y-101764895D01*
X155488095Y-101764895D02*
X155754761Y-102564895D01*
X156173809Y-101764895D02*
X156249999Y-101764895D01*
X156249999Y-101764895D02*
X156326190Y-101802990D01*
X156326190Y-101802990D02*
X156364285Y-101841085D01*
X156364285Y-101841085D02*
X156402380Y-101917276D01*
X156402380Y-101917276D02*
X156440475Y-102069657D01*
X156440475Y-102069657D02*
X156440475Y-102260133D01*
X156440475Y-102260133D02*
X156402380Y-102412514D01*
X156402380Y-102412514D02*
X156364285Y-102488704D01*
X156364285Y-102488704D02*
X156326190Y-102526800D01*
X156326190Y-102526800D02*
X156249999Y-102564895D01*
X156249999Y-102564895D02*
X156173809Y-102564895D01*
X156173809Y-102564895D02*
X156097618Y-102526800D01*
X156097618Y-102526800D02*
X156059523Y-102488704D01*
X156059523Y-102488704D02*
X156021428Y-102412514D01*
X156021428Y-102412514D02*
X155983332Y-102260133D01*
X155983332Y-102260133D02*
X155983332Y-102069657D01*
X155983332Y-102069657D02*
X156021428Y-101917276D01*
X156021428Y-101917276D02*
X156059523Y-101841085D01*
X156059523Y-101841085D02*
X156097618Y-101802990D01*
X156097618Y-101802990D02*
X156173809Y-101764895D01*
%TO.C,J2*%
D11*
X152390000Y-117776666D02*
X152390000Y-116666666D01*
X153500000Y-117776666D02*
X152390000Y-117776666D01*
X154500000Y-115556666D02*
X160610000Y-115556666D01*
X154500000Y-117776666D02*
X154500000Y-115556666D01*
X154500000Y-117776666D02*
X160610000Y-117776666D01*
X160610000Y-117776666D02*
X160610000Y-115556666D01*
%TO.C,D2*%
D12*
X151550000Y-109550000D02*
X151550000Y-110450000D01*
D13*
X151550000Y-109550000D02*
X152100000Y-110100000D01*
D12*
X151550000Y-109550000D02*
X156950000Y-109550000D01*
X151550000Y-112950000D02*
X151550000Y-113850000D01*
X151550000Y-113850000D02*
X156950000Y-113850000D01*
X156950000Y-109550000D02*
X156950000Y-110450000D01*
X156950000Y-112950000D02*
X156950000Y-113850000D01*
%TO.C,J1*%
D11*
X109390000Y-117776666D02*
X109390000Y-116666666D01*
X110500000Y-117776666D02*
X109390000Y-117776666D01*
X111500000Y-115556666D02*
X117610000Y-115556666D01*
X111500000Y-117776666D02*
X111500000Y-115556666D01*
X111500000Y-117776666D02*
X117610000Y-117776666D01*
X117610000Y-117776666D02*
X117610000Y-115556666D01*
%TO.C,J3*%
X120620000Y-118046666D02*
X120620000Y-116666666D01*
X122000000Y-118046666D02*
X120620000Y-118046666D01*
X123270000Y-115286666D02*
X131000000Y-115286666D01*
X123270000Y-118046666D02*
X123270000Y-115286666D01*
X123270000Y-118046666D02*
X131000000Y-118046666D01*
X131000000Y-118046666D02*
X131000000Y-115286666D01*
%TO.C,D1*%
D12*
X113050000Y-109550000D02*
X113050000Y-110450000D01*
D13*
X113050000Y-109550000D02*
X113600000Y-110100000D01*
D12*
X113050000Y-109550000D02*
X118450000Y-109550000D01*
X113050000Y-112950000D02*
X113050000Y-113850000D01*
X113050000Y-113850000D02*
X118450000Y-113850000D01*
X118450000Y-109550000D02*
X118450000Y-110450000D01*
X118450000Y-112950000D02*
X118450000Y-113850000D01*
%TD*%
%LPC*%
D14*
%TO.C,J2*%
X153500000Y-116666666D03*
D15*
X155500000Y-116666666D03*
X157500000Y-116666666D03*
X159500000Y-116666666D03*
%TD*%
D16*
%TO.C,D2*%
X151700000Y-111700000D03*
D17*
X156800000Y-111700000D03*
%TD*%
D14*
%TO.C,J1*%
X110500000Y-116666666D03*
D15*
X112500000Y-116666666D03*
X114500000Y-116666666D03*
X116500000Y-116666666D03*
%TD*%
D18*
%TO.C,J3*%
X122000000Y-116666666D03*
D19*
X124540000Y-116666666D03*
X127080000Y-116666666D03*
X129620000Y-116666666D03*
%TD*%
D16*
%TO.C,D1*%
X113200000Y-111700000D03*
D17*
X118300000Y-111700000D03*
%TD*%
%LPD*%
M02*
