%TF.GenerationSoftware,KiCad,Pcbnew,10.0.6*%
%TF.CreationDate,2026-10-02T21:02:27+07:00*%
%TF.ProjectId,bpw34_receiver,62707733-345f-4726-9563-65697665722e,rev?*%
%TF.SameCoordinates,Original*%
%TF.FileFunction,Copper,L2,Bot*%
%TF.FilePolarity,Positive*%
%FSLAX46Y46*%
G04 Gerber Fmt 4.6, Leading zero omitted, Abs format (unit mm)*
G04 Created by KiCad (PCBNEW 10.0.6) date 2026-10-02 21:02:27*
%MOMM*%
%LPD*%
G01*
G04 APERTURE LIST*
G04 Aperture macros list*
%AMRoundRect*
0 Rectangle with rounded corners*
0 $1 Rounding radius*
0 $2 $3 $4 $5 $6 $7 $8 $9 X,Y pos of 4 corners*
0 Add a 4 corners polygon primitive as box body*
4,1,4,$2,$3,$4,$5,$6,$7,$8,$9,$2,$3,0*
0 Add four circle primitives for the rounded corners*
1,1,$1+$1,$2,$3*
1,1,$1+$1,$4,$5*
1,1,$1+$1,$6,$7*
1,1,$1+$1,$8,$9*
0 Add four rect primitives between the rounded corners*
20,1,$1+$1,$2,$3,$4,$5,0*
20,1,$1+$1,$4,$5,$6,$7,0*
20,1,$1+$1,$6,$7,$8,$9,0*
20,1,$1+$1,$8,$9,$2,$3,0*%
G04 Aperture macros list end*
%TA.AperFunction,ComponentPad*%
%ADD10R,1.350000X1.350000*%
%TD*%
%TA.AperFunction,ComponentPad*%
%ADD11C,1.350000*%
%TD*%
%TA.AperFunction,ComponentPad*%
%ADD12R,2.000000X2.000000*%
%TD*%
%TA.AperFunction,ComponentPad*%
%ADD13C,2.000000*%
%TD*%
%TA.AperFunction,ComponentPad*%
%ADD14R,1.700000X1.700000*%
%TD*%
%TA.AperFunction,ComponentPad*%
%ADD15C,1.700000*%
%TD*%
%TA.AperFunction,SMDPad,CuDef*%
%ADD16RoundRect,0.250000X-0.337500X-0.475000X0.337500X-0.475000X0.337500X0.475000X-0.337500X0.475000X0*%
%TD*%
%TA.AperFunction,SMDPad,CuDef*%
%ADD17RoundRect,0.250000X-0.350000X-0.450000X0.350000X-0.450000X0.350000X0.450000X-0.350000X0.450000X0*%
%TD*%
%TA.AperFunction,SMDPad,CuDef*%
%ADD18RoundRect,0.250000X0.450000X-0.350000X0.450000X0.350000X-0.450000X0.350000X-0.450000X-0.350000X0*%
%TD*%
%TA.AperFunction,SMDPad,CuDef*%
%ADD19RoundRect,0.162500X0.617500X0.162500X-0.617500X0.162500X-0.617500X-0.162500X0.617500X-0.162500X0*%
%TD*%
%TA.AperFunction,SMDPad,CuDef*%
%ADD20RoundRect,0.250000X-0.475000X0.337500X-0.475000X-0.337500X0.475000X-0.337500X0.475000X0.337500X0*%
%TD*%
%TA.AperFunction,SMDPad,CuDef*%
%ADD21RoundRect,0.250000X0.337500X0.475000X-0.337500X0.475000X-0.337500X-0.475000X0.337500X-0.475000X0*%
%TD*%
%TA.AperFunction,ViaPad*%
%ADD22C,0.800000*%
%TD*%
%TA.AperFunction,ViaPad*%
%ADD23C,0.650000*%
%TD*%
%TA.AperFunction,Conductor*%
%ADD24C,0.300000*%
%TD*%
%TA.AperFunction,Conductor*%
%ADD25C,0.400000*%
%TD*%
%TA.AperFunction,Conductor*%
%ADD26C,0.350000*%
%TD*%
%TA.AperFunction,Conductor*%
%ADD27C,0.220000*%
%TD*%
%TA.AperFunction,Conductor*%
%ADD28C,0.200000*%
%TD*%
G04 APERTURE END LIST*
D10*
%TO.P,J2,1*%
%TO.N,/OUT_IR*%
X153500000Y-116666666D03*
D11*
%TO.P,J2,2*%
%TO.N,unconnected-(J2-UNUSED-Pad2)*%
X155500000Y-116666666D03*
%TO.P,J2,3*%
%TO.N,/3V3_IR*%
X157500000Y-116666666D03*
%TO.P,J2,4*%
%TO.N,/GND_IR*%
X159500000Y-116666666D03*
%TD*%
D12*
%TO.P,D2,1*%
%TO.N,/SUM_IR*%
X151700000Y-111700000D03*
D13*
%TO.P,D2,2*%
%TO.N,/GND_IR*%
X156800000Y-111700000D03*
%TD*%
D10*
%TO.P,J1,1*%
%TO.N,/OUT_RED*%
X110500000Y-116666666D03*
D11*
%TO.P,J1,2*%
%TO.N,unconnected-(J1-UNUSED-Pad2)*%
X112500000Y-116666666D03*
%TO.P,J1,3*%
%TO.N,/3V3_RED*%
X114500000Y-116666666D03*
%TO.P,J1,4*%
%TO.N,/GND_RED*%
X116500000Y-116666666D03*
%TD*%
D14*
%TO.P,J3,1*%
%TO.N,/OUT_RED*%
X122000000Y-116666666D03*
D15*
%TO.P,J3,2*%
%TO.N,/GND_RED*%
X124540000Y-116666666D03*
%TO.P,J3,3*%
%TO.N,/OUT_IR*%
X127080000Y-116666666D03*
%TO.P,J3,4*%
%TO.N,/GND_IR*%
X129620000Y-116666666D03*
%TD*%
D12*
%TO.P,D1,1*%
%TO.N,/SUM_RED*%
X113200000Y-111700000D03*
D13*
%TO.P,D1,2*%
%TO.N,/GND_RED*%
X118300000Y-111700000D03*
%TD*%
D16*
%TO.P,C2,1*%
%TO.N,/SUM_IR*%
X149962500Y-105650000D03*
%TO.P,C2,2*%
%TO.N,/FB_IR*%
X152037500Y-105650000D03*
%TD*%
%TO.P,C8,1*%
%TO.N,/OUT_IR*%
X155962500Y-114666666D03*
%TO.P,C8,2*%
%TO.N,/GND_IR*%
X158037500Y-114666666D03*
%TD*%
D17*
%TO.P,R2,1*%
%TO.N,/SUM_IR*%
X150000000Y-103350000D03*
%TO.P,R2,2*%
%TO.N,/FB_IR*%
X152000000Y-103350000D03*
%TD*%
D16*
%TO.P,C7,1*%
%TO.N,/OUT_RED*%
X112962500Y-114666666D03*
%TO.P,C7,2*%
%TO.N,/GND_RED*%
X115037500Y-114666666D03*
%TD*%
D18*
%TO.P,R6,1*%
%TO.N,/VREF_IR*%
X161500000Y-106700000D03*
%TO.P,R6,2*%
%TO.N,/3V3_IR*%
X161500000Y-104700000D03*
%TD*%
D17*
%TO.P,R3,1*%
%TO.N,/FB_RED*%
X123500000Y-108066666D03*
%TO.P,R3,2*%
%TO.N,/OUT_RED*%
X125500000Y-108066666D03*
%TD*%
D19*
%TO.P,U1,1*%
%TO.N,/FB_RED*%
X120350000Y-107750000D03*
%TO.P,U1,2*%
%TO.N,/GND_RED*%
X120350000Y-108700000D03*
%TO.P,U1,3*%
%TO.N,/VREF_RED*%
X120350000Y-109650000D03*
%TO.P,U1,4*%
%TO.N,/SUM_RED*%
X117650000Y-109650000D03*
%TO.P,U1,5*%
%TO.N,/3V3_RED*%
X117650000Y-107750000D03*
%TD*%
D17*
%TO.P,R4,1*%
%TO.N,/FB_IR*%
X154500000Y-106700000D03*
%TO.P,R4,2*%
%TO.N,/OUT_IR*%
X156500000Y-106700000D03*
%TD*%
D20*
%TO.P,C3,1*%
%TO.N,/VREF_RED*%
X105500000Y-108862500D03*
%TO.P,C3,2*%
%TO.N,/GND_RED*%
X105500000Y-110937500D03*
%TD*%
%TO.P,C4,1*%
%TO.N,/VREF_IR*%
X164500000Y-108862500D03*
%TO.P,C4,2*%
%TO.N,/GND_IR*%
X164500000Y-110937500D03*
%TD*%
D18*
%TO.P,R7,1*%
%TO.N,/GND_RED*%
X108500000Y-110900000D03*
%TO.P,R7,2*%
%TO.N,/VREF_RED*%
X108500000Y-108900000D03*
%TD*%
D17*
%TO.P,R1,1*%
%TO.N,/SUM_RED*%
X118000000Y-103350000D03*
%TO.P,R1,2*%
%TO.N,/FB_RED*%
X120000000Y-103350000D03*
%TD*%
D21*
%TO.P,C5,1*%
%TO.N,/3V3_RED*%
X106537500Y-103100000D03*
%TO.P,C5,2*%
%TO.N,/GND_RED*%
X104462500Y-103100000D03*
%TD*%
D19*
%TO.P,U2,1*%
%TO.N,/FB_IR*%
X152350000Y-107750000D03*
%TO.P,U2,2*%
%TO.N,/GND_IR*%
X152350000Y-108700000D03*
%TO.P,U2,3*%
%TO.N,/VREF_IR*%
X152350000Y-109650000D03*
%TO.P,U2,4*%
%TO.N,/SUM_IR*%
X149650000Y-109650000D03*
%TO.P,U2,5*%
%TO.N,/3V3_IR*%
X149650000Y-107750000D03*
%TD*%
D18*
%TO.P,R5,1*%
%TO.N,/VREF_RED*%
X108500000Y-106700000D03*
%TO.P,R5,2*%
%TO.N,/3V3_RED*%
X108500000Y-104700000D03*
%TD*%
%TO.P,R8,1*%
%TO.N,/GND_IR*%
X161500000Y-110900000D03*
%TO.P,R8,2*%
%TO.N,/VREF_IR*%
X161500000Y-108900000D03*
%TD*%
D16*
%TO.P,C6,1*%
%TO.N,/3V3_IR*%
X163462500Y-103100000D03*
%TO.P,C6,2*%
%TO.N,/GND_IR*%
X165537500Y-103100000D03*
%TD*%
%TO.P,C1,1*%
%TO.N,/SUM_RED*%
X117962500Y-105650000D03*
%TO.P,C1,2*%
%TO.N,/FB_RED*%
X120037500Y-105650000D03*
%TD*%
D22*
%TO.N,/OUT_IR*%
X153500000Y-114666666D03*
X157500000Y-106700000D03*
%TO.N,/3V3_IR*%
X162000000Y-115333333D03*
X148500000Y-107366666D03*
X157500000Y-103366666D03*
D23*
%TO.N,/GND_IR*%
X166500000Y-111700000D03*
X166500000Y-103700000D03*
D22*
%TO.N,/3V3_RED*%
X112500000Y-103366666D03*
X116500000Y-107366666D03*
X108000000Y-115333333D03*
D23*
%TO.N,/GND_RED*%
X103500000Y-103700000D03*
X103500000Y-111700000D03*
D22*
%TO.N,/VREF_IR*%
X155000000Y-105200000D03*
X153500000Y-110366666D03*
%TO.N,/VREF_RED*%
X112500000Y-107700000D03*
X121500000Y-110233333D03*
%TD*%
%TO.N,/OUT_IR*%
D24*
X155962500Y-114666666D02*
X153500000Y-114666666D01*
X156500000Y-106700000D02*
X157500000Y-106700000D01*
%TO.N,/3V3_IR*%
D25*
X162500000Y-105433334D02*
X162766666Y-105700000D01*
X162500000Y-105433334D02*
X162500000Y-105193333D01*
D26*
X159116666Y-103366666D02*
X163355834Y-103366666D01*
D25*
X169000000Y-114133333D02*
X169000000Y-106900000D01*
D26*
X148780000Y-108066666D02*
X149523334Y-108066666D01*
X163355834Y-103366666D02*
X163462500Y-103260000D01*
X157500000Y-103206666D02*
X157500000Y-103366666D01*
X163462500Y-103100000D02*
X157606666Y-103100000D01*
D25*
X162000000Y-115333333D02*
X167800000Y-115333333D01*
X162340000Y-105033333D02*
X161633333Y-105033333D01*
D26*
X163462500Y-103260000D02*
X163462500Y-103100000D01*
X158450000Y-105033333D02*
X158450000Y-104033332D01*
X148500000Y-107366666D02*
X148500000Y-107786666D01*
X159116666Y-103366666D02*
X158450000Y-104033332D01*
X157500000Y-103206666D02*
X157606666Y-103100000D01*
D25*
X169000000Y-106900000D02*
X167800000Y-105700000D01*
X169000000Y-114133333D02*
X167800000Y-115333333D01*
D26*
X148780000Y-108066666D02*
X148500000Y-107786666D01*
X149650000Y-107940000D02*
X149650000Y-107750000D01*
X158450000Y-104700000D02*
X158450000Y-105033333D01*
X161500000Y-104700000D02*
X158450000Y-104700000D01*
D25*
X167800000Y-105700000D02*
X162766666Y-105700000D01*
D26*
X149523334Y-108066666D02*
X149650000Y-107940000D01*
D25*
X161633333Y-105033333D02*
X161500000Y-104900000D01*
X162500000Y-105193333D02*
X162340000Y-105033333D01*
X161500000Y-104900000D02*
X161500000Y-104700000D01*
%TO.N,/GND_IR*%
D26*
X152350000Y-108700000D02*
X154700000Y-108700000D01*
X155500000Y-109500000D02*
X155500000Y-110700000D01*
D25*
X129620000Y-116666666D02*
X129620000Y-117406667D01*
X130113333Y-117900000D02*
X137200000Y-117900000D01*
D26*
X154700000Y-108700000D02*
X155500000Y-109500000D01*
D25*
X129620000Y-117406667D02*
X130113333Y-117900000D01*
%TO.N,/SUM_IR*%
D27*
X151300000Y-110700000D02*
X149650000Y-110700000D01*
X147500000Y-105650000D02*
X149962500Y-105650000D01*
X151700000Y-111700000D02*
X151700000Y-111100000D01*
X151300000Y-110700000D02*
X151700000Y-111100000D01*
X147500000Y-105650000D02*
X148116667Y-105033333D01*
X147500000Y-109840000D02*
X147500000Y-105650000D01*
X149650000Y-110700000D02*
X149650000Y-109650000D01*
X150000000Y-104360000D02*
X150000000Y-103350000D01*
X149650000Y-110700000D02*
X148360000Y-110700000D01*
X147500000Y-109840000D02*
X148360000Y-110700000D01*
X148116667Y-105033333D02*
X149326667Y-105033333D01*
X150000000Y-104360000D02*
X149326667Y-105033333D01*
%TO.N,/OUT_RED*%
D24*
X124800000Y-113333333D02*
X111700000Y-113333333D01*
X125800000Y-108066666D02*
X126000000Y-108266666D01*
X125500000Y-108066666D02*
X125800000Y-108066666D01*
X110500000Y-114533333D02*
X110500000Y-116666666D01*
X112962500Y-114666666D02*
X110500000Y-114666666D01*
X111700000Y-113333333D02*
X110500000Y-114533333D01*
X126000000Y-108266666D02*
X126000000Y-112133333D01*
X124800000Y-113333333D02*
X126000000Y-112133333D01*
%TO.N,/3V3_RED*%
D26*
X112500000Y-103206666D02*
X112500000Y-103366666D01*
X116500000Y-107786666D02*
X116780000Y-108066666D01*
D25*
X102200000Y-115333333D02*
X101000000Y-114133333D01*
X102200000Y-105700000D02*
X101000000Y-106900000D01*
X108366667Y-105033333D02*
X108500000Y-104900000D01*
D26*
X112500000Y-103206666D02*
X112393334Y-103100000D01*
X117650000Y-107940000D02*
X117523334Y-108066666D01*
D25*
X107233334Y-105700000D02*
X107500000Y-105433334D01*
D26*
X111550000Y-105033333D02*
X111550000Y-104033332D01*
X106537500Y-103100000D02*
X112393334Y-103100000D01*
D25*
X102200000Y-105700000D02*
X107233334Y-105700000D01*
D26*
X106537500Y-103260000D02*
X106644166Y-103366666D01*
X108500000Y-104700000D02*
X111550000Y-104700000D01*
X117650000Y-107940000D02*
X117650000Y-107750000D01*
X106537500Y-103260000D02*
X106537500Y-103100000D01*
X110883334Y-103366666D02*
X106644166Y-103366666D01*
D25*
X107660000Y-105033333D02*
X108366667Y-105033333D01*
D26*
X111550000Y-104033332D02*
X110883334Y-103366666D01*
X116500000Y-107366666D02*
X116500000Y-107786666D01*
X111550000Y-104700000D02*
X111550000Y-105033333D01*
X116780000Y-108066666D02*
X117523334Y-108066666D01*
D25*
X107500000Y-105433334D02*
X107500000Y-105193333D01*
X108500000Y-104900000D02*
X108500000Y-104700000D01*
X107660000Y-105033333D02*
X107500000Y-105193333D01*
X108000000Y-115333333D02*
X102200000Y-115333333D01*
X101000000Y-114133333D02*
X101000000Y-106900000D01*
%TO.N,/SUM_RED*%
D27*
X113602667Y-111966666D02*
X113800000Y-111769333D01*
X117650000Y-110000000D02*
X117650000Y-109650000D01*
X118000000Y-104360000D02*
X118000000Y-103350000D01*
X113306666Y-111966666D02*
X113200000Y-111860000D01*
X113800000Y-110233333D02*
X117416667Y-110233333D01*
X113306666Y-111966666D02*
X113602667Y-111966666D01*
X117650000Y-110000000D02*
X117416667Y-110233333D01*
X113200000Y-111700000D02*
X113200000Y-111860000D01*
X118000000Y-104360000D02*
X117326667Y-105033333D01*
X113800000Y-105650000D02*
X117962500Y-105650000D01*
X113800000Y-111769333D02*
X113800000Y-110233333D01*
X114416667Y-105033333D02*
X113800000Y-105650000D01*
X114416667Y-105033333D02*
X117326667Y-105033333D01*
X113800000Y-110233333D02*
X113800000Y-105650000D01*
%TO.N,/FB_IR*%
D28*
X152000000Y-104633333D02*
X152000000Y-103350000D01*
X152760000Y-105033333D02*
X152400000Y-105033333D01*
X152760000Y-105033333D02*
X153000000Y-105273333D01*
X153000000Y-108066666D02*
X153000000Y-105273333D01*
X154500000Y-108066666D02*
X154500000Y-106700000D01*
X153000000Y-107750000D02*
X153000000Y-108066666D01*
X152350000Y-107750000D02*
X153000000Y-107750000D01*
X152037500Y-106315000D02*
X152037500Y-105650000D01*
X153000000Y-106700000D02*
X152422500Y-106700000D01*
X152350000Y-107750000D02*
X154500000Y-107750000D01*
X152037500Y-106315000D02*
X152422500Y-106700000D01*
X154500000Y-107750000D02*
X154500000Y-108066666D01*
X152000000Y-104633333D02*
X152400000Y-105033333D01*
%TO.N,/VREF_IR*%
D27*
X152350000Y-110080000D02*
X152350000Y-109650000D01*
X160000000Y-108366666D02*
X161500000Y-108366666D01*
X152350000Y-110080000D02*
X152636666Y-110366666D01*
X160000000Y-106366666D02*
X160000000Y-108366666D01*
X160000000Y-106700000D02*
X160000000Y-106366666D01*
X164500000Y-108549999D02*
X164291667Y-108341666D01*
X159500000Y-108654167D02*
X159708333Y-108862500D01*
X164500000Y-108549999D02*
X164500000Y-108862500D01*
X159500000Y-108654167D02*
X159500000Y-108341666D01*
X164500000Y-108862500D02*
X159708333Y-108862500D01*
X155140000Y-105550000D02*
X155000000Y-105410000D01*
X155140000Y-105550000D02*
X158383334Y-105550000D01*
X153500000Y-110366666D02*
X152636666Y-110366666D01*
X161500000Y-108366666D02*
X161500000Y-108900000D01*
X161500000Y-106700000D02*
X160000000Y-106700000D01*
X155000000Y-105200000D02*
X155000000Y-105410000D01*
X160000000Y-108341666D02*
X164291667Y-108341666D01*
X159500000Y-106666666D02*
X159500000Y-108341667D01*
X158383334Y-105550000D02*
X159500000Y-106666666D01*
%TO.N,/FB_RED*%
X121200000Y-107750000D02*
X121200000Y-108066666D01*
X120457500Y-106700000D02*
X120037500Y-106280000D01*
X123373334Y-107750000D02*
X123500000Y-107876666D01*
X120000000Y-104553333D02*
X120000000Y-103350000D01*
X121200000Y-106700000D02*
X120457500Y-106700000D01*
X120912000Y-105033333D02*
X121200000Y-105321333D01*
X120350000Y-107750000D02*
X123373334Y-107750000D01*
X120350000Y-107750000D02*
X121200000Y-107750000D01*
X120912000Y-105033333D02*
X120480000Y-105033333D01*
X123500000Y-107876666D02*
X123500000Y-108066666D01*
X120000000Y-104553333D02*
X120480000Y-105033333D01*
X121200000Y-108066666D02*
X121200000Y-105321333D01*
X120037500Y-106280000D02*
X120037500Y-105650000D01*
%TO.N,/VREF_RED*%
X110000000Y-106700000D02*
X110000000Y-106366666D01*
X112500000Y-108654167D02*
X112500000Y-108341666D01*
X112500000Y-108654167D02*
X112291667Y-108862500D01*
X108500000Y-106700000D02*
X110000000Y-106700000D01*
X120350000Y-110000000D02*
X120583333Y-110233333D01*
X108500000Y-108366666D02*
X108500000Y-108900000D01*
X120350000Y-110000000D02*
X120350000Y-109650000D01*
X110000000Y-106366666D02*
X110000000Y-108366666D01*
X121500000Y-110233333D02*
X120583333Y-110233333D01*
X112500000Y-108341666D02*
X112500000Y-107700000D01*
X105500000Y-108549999D02*
X105500000Y-108862500D01*
X105500000Y-108549999D02*
X105708333Y-108341666D01*
X110000000Y-108366666D02*
X108500000Y-108366666D01*
X110000000Y-108341666D02*
X105708333Y-108341666D01*
X105500000Y-108862500D02*
X112291667Y-108862500D01*
%TD*%
%TA.AperFunction,Conductor*%
%TO.N,/GND_IR*%
G36*
X169343039Y-101519685D02*
G01*
X169388794Y-101572489D01*
X169400000Y-101624000D01*
X169400000Y-106292824D01*
X169380315Y-106359863D01*
X169327511Y-106405618D01*
X169258353Y-106415562D01*
X169194797Y-106386537D01*
X169188319Y-106380505D01*
X168107316Y-105299502D01*
X168107315Y-105299501D01*
X168107314Y-105299500D01*
X168018095Y-105247989D01*
X167993187Y-105233608D01*
X167929539Y-105216554D01*
X167865892Y-105199500D01*
X167865891Y-105199500D01*
X163114957Y-105199500D01*
X163047918Y-105179815D01*
X163002163Y-105127011D01*
X162995182Y-105107594D01*
X162984308Y-105067011D01*
X162966392Y-105000147D01*
X162900500Y-104886019D01*
X162647314Y-104632833D01*
X162562498Y-104583864D01*
X162514284Y-104533298D01*
X162500500Y-104476478D01*
X162500500Y-104306903D01*
X162500500Y-104306898D01*
X162489877Y-104218436D01*
X162434361Y-104077658D01*
X162434360Y-104077657D01*
X162434360Y-104077656D01*
X162406632Y-104041091D01*
X162381809Y-103975779D01*
X162396237Y-103907415D01*
X162445335Y-103857705D01*
X162505436Y-103842166D01*
X162575125Y-103842166D01*
X162642164Y-103861851D01*
X162673929Y-103891241D01*
X162732077Y-103967922D01*
X162852656Y-104059360D01*
X162852657Y-104059360D01*
X162852658Y-104059361D01*
X162993436Y-104114877D01*
X163081898Y-104125500D01*
X163081903Y-104125500D01*
X163843097Y-104125500D01*
X163843102Y-104125500D01*
X163931564Y-104114877D01*
X164072342Y-104059361D01*
X164192922Y-103967922D01*
X164284361Y-103847342D01*
X164339877Y-103706564D01*
X164350500Y-103618102D01*
X164350500Y-103618053D01*
X164650000Y-103618053D01*
X164660613Y-103706443D01*
X164716079Y-103847095D01*
X164807435Y-103967564D01*
X164927904Y-104058920D01*
X165068556Y-104114386D01*
X165156946Y-104125000D01*
X165337500Y-104125000D01*
X165737500Y-104125000D01*
X165918054Y-104125000D01*
X166006443Y-104114386D01*
X166147095Y-104058920D01*
X166267564Y-103967564D01*
X166358920Y-103847095D01*
X166414386Y-103706443D01*
X166425000Y-103618053D01*
X166425000Y-103300000D01*
X165737500Y-103300000D01*
X165737500Y-104125000D01*
X165337500Y-104125000D01*
X165337500Y-103300000D01*
X164650000Y-103300000D01*
X164650000Y-103618053D01*
X164350500Y-103618053D01*
X164350500Y-102581946D01*
X164650000Y-102581946D01*
X164650000Y-102900000D01*
X165337500Y-102900000D01*
X165737500Y-102900000D01*
X166425000Y-102900000D01*
X166425000Y-102581946D01*
X166414386Y-102493556D01*
X166358920Y-102352904D01*
X166267564Y-102232435D01*
X166147095Y-102141079D01*
X166006443Y-102085613D01*
X165918054Y-102075000D01*
X165737500Y-102075000D01*
X165737500Y-102900000D01*
X165337500Y-102900000D01*
X165337500Y-102075000D01*
X165156946Y-102075000D01*
X165068556Y-102085613D01*
X164927904Y-102141079D01*
X164807435Y-102232435D01*
X164716079Y-102352904D01*
X164660613Y-102493556D01*
X164650000Y-102581946D01*
X164350500Y-102581946D01*
X164350500Y-102581898D01*
X164339877Y-102493436D01*
X164284361Y-102352658D01*
X164284360Y-102352657D01*
X164284360Y-102352656D01*
X164192922Y-102232077D01*
X164072343Y-102140639D01*
X163976192Y-102102722D01*
X163931564Y-102085123D01*
X163931563Y-102085122D01*
X163931561Y-102085122D01*
X163885926Y-102079642D01*
X163843102Y-102074500D01*
X163081898Y-102074500D01*
X163042853Y-102079188D01*
X162993438Y-102085122D01*
X162852656Y-102140639D01*
X162732077Y-102232077D01*
X162640639Y-102352656D01*
X162585122Y-102493438D01*
X162582500Y-102515282D01*
X162554964Y-102579497D01*
X162497082Y-102618631D01*
X162459384Y-102624500D01*
X157676879Y-102624500D01*
X157676863Y-102624499D01*
X157669267Y-102624499D01*
X157544065Y-102624499D01*
X157544062Y-102624499D01*
X157423132Y-102656903D01*
X157423128Y-102656905D01*
X157412242Y-102663190D01*
X157374440Y-102677417D01*
X157295677Y-102693084D01*
X157295667Y-102693087D01*
X157168195Y-102745887D01*
X157168182Y-102745894D01*
X157053458Y-102822551D01*
X157053454Y-102822554D01*
X156955888Y-102920120D01*
X156955885Y-102920124D01*
X156879228Y-103034848D01*
X156879221Y-103034861D01*
X156826421Y-103162333D01*
X156826418Y-103162343D01*
X156799500Y-103297670D01*
X156799500Y-103297673D01*
X156799500Y-103435659D01*
X156799500Y-103435661D01*
X156799499Y-103435661D01*
X156826418Y-103570988D01*
X156826421Y-103570998D01*
X156879221Y-103698470D01*
X156879228Y-103698483D01*
X156955885Y-103813207D01*
X156955888Y-103813211D01*
X157053454Y-103910777D01*
X157053458Y-103910780D01*
X157168182Y-103987437D01*
X157168195Y-103987444D01*
X157295667Y-104040244D01*
X157295672Y-104040246D01*
X157295676Y-104040246D01*
X157295677Y-104040247D01*
X157431004Y-104067166D01*
X157431007Y-104067166D01*
X157568995Y-104067166D01*
X157660041Y-104049055D01*
X157704328Y-104040246D01*
X157803048Y-103999354D01*
X157872517Y-103991886D01*
X157934996Y-104023161D01*
X157970648Y-104083250D01*
X157974500Y-104113916D01*
X157974500Y-105015500D01*
X157954815Y-105082539D01*
X157902011Y-105128294D01*
X157850500Y-105139500D01*
X155803954Y-105139500D01*
X155736915Y-105119815D01*
X155691160Y-105067011D01*
X155682337Y-105039693D01*
X155677524Y-105015500D01*
X155673580Y-104995672D01*
X155673578Y-104995667D01*
X155620778Y-104868195D01*
X155620771Y-104868182D01*
X155544114Y-104753458D01*
X155544111Y-104753454D01*
X155446545Y-104655888D01*
X155446541Y-104655885D01*
X155331817Y-104579228D01*
X155331804Y-104579221D01*
X155204332Y-104526421D01*
X155204322Y-104526418D01*
X155068995Y-104499500D01*
X155068993Y-104499500D01*
X154931007Y-104499500D01*
X154931005Y-104499500D01*
X154795677Y-104526418D01*
X154795667Y-104526421D01*
X154668195Y-104579221D01*
X154668182Y-104579228D01*
X154553458Y-104655885D01*
X154553454Y-104655888D01*
X154455888Y-104753454D01*
X154455885Y-104753458D01*
X154379228Y-104868182D01*
X154379221Y-104868195D01*
X154326421Y-104995667D01*
X154326418Y-104995677D01*
X154299500Y-105131004D01*
X154299500Y-105131007D01*
X154299500Y-105268993D01*
X154299500Y-105268995D01*
X154299499Y-105268995D01*
X154326418Y-105404322D01*
X154326420Y-105404328D01*
X154345535Y-105450477D01*
X154377666Y-105528047D01*
X154385135Y-105597517D01*
X154353860Y-105659996D01*
X154293771Y-105695648D01*
X154263105Y-105699500D01*
X154106898Y-105699500D01*
X154067853Y-105704188D01*
X154018438Y-105710122D01*
X153877656Y-105765639D01*
X153757077Y-105857077D01*
X153665638Y-105977658D01*
X153665637Y-105977660D01*
X153639854Y-106043042D01*
X153596949Y-106098186D01*
X153531041Y-106121379D01*
X153463056Y-106105258D01*
X153414580Y-106054941D01*
X153400500Y-105997552D01*
X153400500Y-105220608D01*
X153400500Y-105220606D01*
X153376731Y-105131898D01*
X153376731Y-105131896D01*
X153374381Y-105123129D01*
X153373207Y-105118746D01*
X153373208Y-105118746D01*
X153329728Y-105043438D01*
X153320480Y-105027420D01*
X153005913Y-104712853D01*
X152960250Y-104686489D01*
X152914589Y-104660126D01*
X152863657Y-104646479D01*
X152812727Y-104632833D01*
X152812726Y-104632833D01*
X152617255Y-104632833D01*
X152550216Y-104613148D01*
X152529574Y-104596514D01*
X152465621Y-104532561D01*
X152432136Y-104471238D01*
X152437120Y-104401546D01*
X152478992Y-104345613D01*
X152507808Y-104329527D01*
X152622342Y-104284361D01*
X152742922Y-104192922D01*
X152834361Y-104072342D01*
X152889877Y-103931564D01*
X152900500Y-103843102D01*
X152900500Y-102856898D01*
X152889877Y-102768436D01*
X152834361Y-102627658D01*
X152834360Y-102627657D01*
X152834360Y-102627656D01*
X152742922Y-102507077D01*
X152622343Y-102415639D01*
X152481561Y-102360122D01*
X152435926Y-102354642D01*
X152393102Y-102349500D01*
X151606898Y-102349500D01*
X151567853Y-102354188D01*
X151518438Y-102360122D01*
X151377656Y-102415639D01*
X151257077Y-102507077D01*
X151165639Y-102627656D01*
X151147591Y-102673424D01*
X151115353Y-102755171D01*
X151072449Y-102810314D01*
X151006541Y-102833507D01*
X150938556Y-102817386D01*
X150890080Y-102767070D01*
X150884648Y-102755178D01*
X150834361Y-102627658D01*
X150834360Y-102627657D01*
X150834360Y-102627656D01*
X150742922Y-102507077D01*
X150622343Y-102415639D01*
X150481561Y-102360122D01*
X150435926Y-102354642D01*
X150393102Y-102349500D01*
X149606898Y-102349500D01*
X149567853Y-102354188D01*
X149518438Y-102360122D01*
X149377656Y-102415639D01*
X149257077Y-102507077D01*
X149165639Y-102627656D01*
X149110122Y-102768438D01*
X149105094Y-102810314D01*
X149099500Y-102856898D01*
X149099500Y-103843102D01*
X149102309Y-103866492D01*
X149110122Y-103931561D01*
X149110122Y-103931563D01*
X149110123Y-103931564D01*
X149124320Y-103967564D01*
X149165639Y-104072343D01*
X149257077Y-104192922D01*
X149331138Y-104249084D01*
X149372662Y-104305277D01*
X149377213Y-104374998D01*
X149343895Y-104435569D01*
X149305140Y-104474323D01*
X149192949Y-104586515D01*
X149131629Y-104619999D01*
X149105270Y-104622833D01*
X148170711Y-104622833D01*
X148062624Y-104622833D01*
X147958220Y-104650808D01*
X147958218Y-104650808D01*
X147958218Y-104650809D01*
X147958213Y-104650811D01*
X147864620Y-104704846D01*
X147864612Y-104704852D01*
X147171519Y-105397945D01*
X147171513Y-105397953D01*
X147117478Y-105491546D01*
X147117475Y-105491551D01*
X147117475Y-105491553D01*
X147089500Y-105595957D01*
X147089500Y-109785957D01*
X147089500Y-109894043D01*
X147117475Y-109998447D01*
X147117476Y-109998448D01*
X147117478Y-109998453D01*
X147171513Y-110092046D01*
X147171517Y-110092051D01*
X147171518Y-110092053D01*
X148107947Y-111028482D01*
X148107949Y-111028483D01*
X148107953Y-111028486D01*
X148174950Y-111067166D01*
X148201553Y-111082525D01*
X148305957Y-111110500D01*
X148414044Y-111110500D01*
X149595957Y-111110500D01*
X149704043Y-111110500D01*
X150275500Y-111110500D01*
X150342539Y-111130185D01*
X150388294Y-111182989D01*
X150399500Y-111234500D01*
X150399500Y-112744856D01*
X150399502Y-112744882D01*
X150402413Y-112769987D01*
X150402415Y-112769991D01*
X150447793Y-112872764D01*
X150447794Y-112872765D01*
X150527235Y-112952206D01*
X150630009Y-112997585D01*
X150655135Y-113000500D01*
X152744864Y-113000499D01*
X152744879Y-113000497D01*
X152744882Y-113000497D01*
X152769987Y-112997586D01*
X152769988Y-112997585D01*
X152769991Y-112997585D01*
X152872765Y-112952206D01*
X152952206Y-112872765D01*
X152997585Y-112769991D01*
X153000500Y-112744865D01*
X153000499Y-111597682D01*
X155500000Y-111597682D01*
X155500000Y-111802317D01*
X155532009Y-112004417D01*
X155595244Y-112199031D01*
X155688139Y-112381347D01*
X155750279Y-112466876D01*
X156331980Y-111885176D01*
X156334075Y-111892993D01*
X156399901Y-112007007D01*
X156492993Y-112100099D01*
X156607007Y-112165925D01*
X156614822Y-112168019D01*
X156033121Y-112749719D01*
X156033122Y-112749720D01*
X156118640Y-112811852D01*
X156118649Y-112811858D01*
X156300968Y-112904755D01*
X156495582Y-112967990D01*
X156697683Y-113000000D01*
X156902317Y-113000000D01*
X157104417Y-112967990D01*
X157299031Y-112904755D01*
X157481349Y-112811859D01*
X157566876Y-112749719D01*
X157566877Y-112749718D01*
X156985178Y-112168019D01*
X156992993Y-112165925D01*
X157107007Y-112100099D01*
X157200099Y-112007007D01*
X157265925Y-111892993D01*
X157268019Y-111885177D01*
X157849718Y-112466877D01*
X157849719Y-112466876D01*
X157911859Y-112381349D01*
X158004755Y-112199031D01*
X158067990Y-112004417D01*
X158100000Y-111802317D01*
X158100000Y-111597682D01*
X158067990Y-111395582D01*
X158034676Y-111293053D01*
X160500000Y-111293053D01*
X160510613Y-111381443D01*
X160566079Y-111522095D01*
X160657435Y-111642564D01*
X160777904Y-111733920D01*
X160918556Y-111789386D01*
X161006946Y-111800000D01*
X161300000Y-111800000D01*
X161700000Y-111800000D01*
X161993054Y-111800000D01*
X162081443Y-111789386D01*
X162222095Y-111733920D01*
X162342564Y-111642564D01*
X162433920Y-111522095D01*
X162489386Y-111381443D01*
X162496998Y-111318053D01*
X163475000Y-111318053D01*
X163485613Y-111406443D01*
X163541079Y-111547095D01*
X163632435Y-111667564D01*
X163752904Y-111758920D01*
X163893556Y-111814386D01*
X163981946Y-111825000D01*
X164300000Y-111825000D01*
X164700000Y-111825000D01*
X165018054Y-111825000D01*
X165106443Y-111814386D01*
X165247095Y-111758920D01*
X165367564Y-111667564D01*
X165458920Y-111547095D01*
X165514386Y-111406443D01*
X165525000Y-111318053D01*
X165525000Y-111137500D01*
X164700000Y-111137500D01*
X164700000Y-111825000D01*
X164300000Y-111825000D01*
X164300000Y-111137500D01*
X163475000Y-111137500D01*
X163475000Y-111318053D01*
X162496998Y-111318053D01*
X162500000Y-111293053D01*
X162500000Y-111100000D01*
X161700000Y-111100000D01*
X161700000Y-111800000D01*
X161300000Y-111800000D01*
X161300000Y-111100000D01*
X160500000Y-111100000D01*
X160500000Y-111293053D01*
X158034676Y-111293053D01*
X158004755Y-111200968D01*
X157955822Y-111104933D01*
X157911858Y-111018649D01*
X157911852Y-111018640D01*
X157849720Y-110933122D01*
X157849719Y-110933121D01*
X157268019Y-111514821D01*
X157265925Y-111507007D01*
X157200099Y-111392993D01*
X157107007Y-111299901D01*
X156992993Y-111234075D01*
X156985176Y-111231980D01*
X157566876Y-110650279D01*
X157481347Y-110588139D01*
X157299031Y-110495244D01*
X157104417Y-110432009D01*
X156902317Y-110400000D01*
X156697683Y-110400000D01*
X156495582Y-110432009D01*
X156300968Y-110495244D01*
X156118648Y-110588141D01*
X156033122Y-110650278D01*
X156033122Y-110650279D01*
X156614823Y-111231980D01*
X156607007Y-111234075D01*
X156492993Y-111299901D01*
X156399901Y-111392993D01*
X156334075Y-111507007D01*
X156331980Y-111514823D01*
X155750279Y-110933122D01*
X155750278Y-110933122D01*
X155688141Y-111018648D01*
X155595244Y-111200968D01*
X155532009Y-111395582D01*
X155500000Y-111597682D01*
X153000499Y-111597682D01*
X153000499Y-111103559D01*
X153020184Y-111036521D01*
X153072988Y-110990766D01*
X153142146Y-110980822D01*
X153171947Y-110988997D01*
X153295672Y-111040246D01*
X153295676Y-111040246D01*
X153295677Y-111040247D01*
X153431004Y-111067166D01*
X153431007Y-111067166D01*
X153568995Y-111067166D01*
X153660041Y-111049055D01*
X153704328Y-111040246D01*
X153831811Y-110987441D01*
X153946542Y-110910780D01*
X154044114Y-110813208D01*
X154120775Y-110698477D01*
X154132687Y-110669718D01*
X154140820Y-110650085D01*
X154140820Y-110650083D01*
X154166478Y-110588141D01*
X154173580Y-110570994D01*
X154188648Y-110495244D01*
X154200500Y-110435661D01*
X154200500Y-110297670D01*
X154173581Y-110162343D01*
X154173580Y-110162342D01*
X154173580Y-110162338D01*
X154144467Y-110092053D01*
X154120778Y-110034861D01*
X154120771Y-110034848D01*
X154044114Y-109920124D01*
X154044111Y-109920120D01*
X153946545Y-109822554D01*
X153946541Y-109822551D01*
X153831817Y-109745894D01*
X153831804Y-109745887D01*
X153704332Y-109693087D01*
X153704322Y-109693084D01*
X153568995Y-109666166D01*
X153568993Y-109666166D01*
X153554500Y-109666166D01*
X153487461Y-109646481D01*
X153441706Y-109593677D01*
X153430500Y-109542166D01*
X153430500Y-109431723D01*
X153427567Y-109400451D01*
X153389858Y-109292685D01*
X153381469Y-109268711D01*
X153366339Y-109248211D01*
X153342369Y-109182583D01*
X153357684Y-109114413D01*
X153366342Y-109100941D01*
X153381023Y-109081050D01*
X153427068Y-108949462D01*
X153427070Y-108949450D01*
X153430000Y-108918213D01*
X153430000Y-108900000D01*
X151270001Y-108900000D01*
X151270001Y-108918202D01*
X151272931Y-108949459D01*
X151318977Y-109081051D01*
X151318978Y-109081053D01*
X151333659Y-109100945D01*
X151357629Y-109166575D01*
X151342313Y-109234745D01*
X151333661Y-109248207D01*
X151318531Y-109268708D01*
X151318530Y-109268711D01*
X151272433Y-109400448D01*
X151272432Y-109400450D01*
X151269500Y-109431723D01*
X151269500Y-109868276D01*
X151272432Y-109899549D01*
X151272432Y-109899551D01*
X151318529Y-110031285D01*
X151318530Y-110031287D01*
X151318531Y-110031289D01*
X151332340Y-110050000D01*
X151363239Y-110091867D01*
X151387209Y-110157496D01*
X151371893Y-110225666D01*
X151322153Y-110274734D01*
X151263468Y-110289500D01*
X150736532Y-110289500D01*
X150669493Y-110269815D01*
X150623738Y-110217011D01*
X150613794Y-110147853D01*
X150636761Y-110091867D01*
X150681469Y-110031289D01*
X150701965Y-109972716D01*
X150727567Y-109899551D01*
X150727567Y-109899549D01*
X150730500Y-109868276D01*
X150730500Y-109431723D01*
X150727567Y-109400450D01*
X150727567Y-109400448D01*
X150681470Y-109268714D01*
X150681469Y-109268711D01*
X150666340Y-109248212D01*
X150598589Y-109156411D01*
X150598588Y-109156410D01*
X150486294Y-109073534D01*
X150486285Y-109073529D01*
X150354550Y-109027432D01*
X150323276Y-109024500D01*
X150323272Y-109024500D01*
X148976728Y-109024500D01*
X148976724Y-109024500D01*
X148945450Y-109027432D01*
X148945448Y-109027432D01*
X148813714Y-109073529D01*
X148813705Y-109073534D01*
X148701411Y-109156410D01*
X148701410Y-109156411D01*
X148618534Y-109268705D01*
X148618529Y-109268714D01*
X148572432Y-109400448D01*
X148572432Y-109400450D01*
X148569500Y-109431723D01*
X148569500Y-109868276D01*
X148572432Y-109899549D01*
X148572432Y-109899551D01*
X148618531Y-110031290D01*
X148622762Y-110039296D01*
X148636681Y-110107765D01*
X148611373Y-110172890D01*
X148554873Y-110213994D01*
X148485120Y-110218027D01*
X148425448Y-110184913D01*
X147946819Y-109706284D01*
X147913334Y-109644961D01*
X147910500Y-109618603D01*
X147910500Y-108168987D01*
X147930185Y-108101948D01*
X147982989Y-108056193D01*
X148052147Y-108046249D01*
X148115703Y-108075274D01*
X148122181Y-108081306D01*
X148488036Y-108447161D01*
X148596464Y-108509761D01*
X148717399Y-108542166D01*
X148717401Y-108542166D01*
X149585933Y-108542166D01*
X149585935Y-108542166D01*
X149706870Y-108509761D01*
X149815298Y-108447161D01*
X149850640Y-108411819D01*
X149911963Y-108378334D01*
X149938321Y-108375500D01*
X150323276Y-108375500D01*
X150354549Y-108372567D01*
X150354551Y-108372567D01*
X150438399Y-108343226D01*
X150486289Y-108326469D01*
X150598589Y-108243589D01*
X150681469Y-108131289D01*
X150701070Y-108075274D01*
X150727567Y-107999551D01*
X150727567Y-107999549D01*
X150730500Y-107968276D01*
X150730500Y-107531723D01*
X150727567Y-107500450D01*
X150727567Y-107500448D01*
X150681470Y-107368714D01*
X150681469Y-107368711D01*
X150647248Y-107322343D01*
X150598589Y-107256411D01*
X150598588Y-107256410D01*
X150486294Y-107173534D01*
X150486285Y-107173529D01*
X150354550Y-107127432D01*
X150323276Y-107124500D01*
X150323272Y-107124500D01*
X149240761Y-107124500D01*
X149173722Y-107104815D01*
X149127967Y-107052011D01*
X149126199Y-107047950D01*
X149120776Y-107034858D01*
X149120775Y-107034855D01*
X149120773Y-107034852D01*
X149120771Y-107034848D01*
X149044114Y-106920124D01*
X149044111Y-106920120D01*
X148946545Y-106822554D01*
X148946541Y-106822551D01*
X148831817Y-106745894D01*
X148831804Y-106745887D01*
X148704332Y-106693087D01*
X148704322Y-106693084D01*
X148568995Y-106666166D01*
X148568993Y-106666166D01*
X148431007Y-106666166D01*
X148431005Y-106666166D01*
X148295677Y-106693084D01*
X148295667Y-106693087D01*
X148168195Y-106745887D01*
X148168182Y-106745894D01*
X148103391Y-106789187D01*
X148036713Y-106810065D01*
X147969333Y-106791580D01*
X147922643Y-106739602D01*
X147910500Y-106686085D01*
X147910500Y-106184500D01*
X147930185Y-106117461D01*
X147982989Y-106071706D01*
X148034500Y-106060500D01*
X148951579Y-106060500D01*
X149018618Y-106080185D01*
X149064373Y-106132989D01*
X149074693Y-106169710D01*
X149080544Y-106218436D01*
X149085122Y-106256561D01*
X149140639Y-106397343D01*
X149232077Y-106517922D01*
X149352656Y-106609360D01*
X149352657Y-106609360D01*
X149352658Y-106609361D01*
X149493436Y-106664877D01*
X149581898Y-106675500D01*
X149581903Y-106675500D01*
X150343097Y-106675500D01*
X150343102Y-106675500D01*
X150431564Y-106664877D01*
X150572342Y-106609361D01*
X150692922Y-106517922D01*
X150784361Y-106397342D01*
X150839877Y-106256564D01*
X150850500Y-106168102D01*
X150850500Y-105131898D01*
X150839877Y-105043436D01*
X150784361Y-104902658D01*
X150784360Y-104902657D01*
X150784360Y-104902656D01*
X150692922Y-104782077D01*
X150572341Y-104690638D01*
X150572339Y-104690637D01*
X150461854Y-104647067D01*
X150406710Y-104604161D01*
X150383517Y-104538254D01*
X150387568Y-104499624D01*
X150408156Y-104422788D01*
X150444520Y-104363131D01*
X150482435Y-104339533D01*
X150622342Y-104284361D01*
X150742922Y-104192922D01*
X150834361Y-104072342D01*
X150884646Y-103944826D01*
X150927551Y-103889685D01*
X150993459Y-103866492D01*
X151061443Y-103882612D01*
X151109920Y-103932929D01*
X151115348Y-103944814D01*
X151150652Y-104034339D01*
X151165639Y-104072343D01*
X151257077Y-104192922D01*
X151377656Y-104284360D01*
X151377657Y-104284360D01*
X151377658Y-104284361D01*
X151518436Y-104339877D01*
X151518440Y-104339877D01*
X151520990Y-104340883D01*
X151576134Y-104383789D01*
X151599327Y-104449697D01*
X151599500Y-104456238D01*
X151599500Y-104538478D01*
X151579815Y-104605517D01*
X151527011Y-104651272D01*
X151520991Y-104653832D01*
X151427658Y-104690638D01*
X151307077Y-104782077D01*
X151215639Y-104902656D01*
X151160122Y-105043438D01*
X151157292Y-105067011D01*
X151149500Y-105131898D01*
X151149500Y-106168102D01*
X151155126Y-106214954D01*
X151160122Y-106256561D01*
X151215639Y-106397343D01*
X151307077Y-106517922D01*
X151427656Y-106609360D01*
X151427657Y-106609360D01*
X151427658Y-106609361D01*
X151568436Y-106664877D01*
X151656898Y-106675500D01*
X151780245Y-106675500D01*
X151847284Y-106695185D01*
X151867926Y-106711819D01*
X152068926Y-106912819D01*
X152102411Y-106974142D01*
X152097427Y-107043834D01*
X152055555Y-107099767D01*
X151990091Y-107124184D01*
X151981245Y-107124500D01*
X151676724Y-107124500D01*
X151645450Y-107127432D01*
X151645448Y-107127432D01*
X151513714Y-107173529D01*
X151513705Y-107173534D01*
X151401411Y-107256410D01*
X151401410Y-107256411D01*
X151318534Y-107368705D01*
X151318529Y-107368714D01*
X151272432Y-107500448D01*
X151272432Y-107500450D01*
X151269500Y-107531723D01*
X151269500Y-107968276D01*
X151272432Y-107999548D01*
X151318531Y-108131289D01*
X151333659Y-108151787D01*
X151357629Y-108217417D01*
X151342313Y-108285587D01*
X151333661Y-108299050D01*
X151318978Y-108318945D01*
X151272930Y-108450544D01*
X151272929Y-108450549D01*
X151270000Y-108481786D01*
X151270000Y-108500000D01*
X153429999Y-108500000D01*
X153429999Y-108481797D01*
X153427068Y-108450540D01*
X153379800Y-108315455D01*
X153376238Y-108245676D01*
X153410966Y-108185049D01*
X153472960Y-108152821D01*
X153496841Y-108150500D01*
X154014632Y-108150500D01*
X154081671Y-108170185D01*
X154120791Y-108215332D01*
X154122729Y-108214214D01*
X154126793Y-108221253D01*
X154179520Y-108312579D01*
X154254087Y-108387146D01*
X154345413Y-108439873D01*
X154447273Y-108467166D01*
X154447275Y-108467166D01*
X154552725Y-108467166D01*
X154552727Y-108467166D01*
X154654587Y-108439873D01*
X154745913Y-108387146D01*
X154820480Y-108312579D01*
X154873207Y-108221253D01*
X154900500Y-108119393D01*
X154900500Y-107806238D01*
X154920185Y-107739199D01*
X154972989Y-107693444D01*
X154979010Y-107690883D01*
X154981559Y-107689877D01*
X154981564Y-107689877D01*
X155122342Y-107634361D01*
X155242922Y-107542922D01*
X155334361Y-107422342D01*
X155384646Y-107294826D01*
X155427551Y-107239685D01*
X155493459Y-107216492D01*
X155561443Y-107232612D01*
X155609920Y-107282929D01*
X155615348Y-107294814D01*
X155644487Y-107368705D01*
X155665639Y-107422343D01*
X155757077Y-107542922D01*
X155877656Y-107634360D01*
X155877657Y-107634360D01*
X155877658Y-107634361D01*
X156018436Y-107689877D01*
X156106898Y-107700500D01*
X156106903Y-107700500D01*
X156893097Y-107700500D01*
X156893102Y-107700500D01*
X156981564Y-107689877D01*
X157122342Y-107634361D01*
X157242922Y-107542922D01*
X157314572Y-107448436D01*
X157370763Y-107406915D01*
X157425533Y-107399961D01*
X157431004Y-107400500D01*
X157431007Y-107400500D01*
X157568995Y-107400500D01*
X157660041Y-107382389D01*
X157704328Y-107373580D01*
X157802924Y-107332740D01*
X157831804Y-107320778D01*
X157831804Y-107320777D01*
X157831811Y-107320775D01*
X157946542Y-107244114D01*
X158044114Y-107146542D01*
X158120775Y-107031811D01*
X158173580Y-106904328D01*
X158189846Y-106822554D01*
X158200500Y-106768995D01*
X158200500Y-106631004D01*
X158173581Y-106495677D01*
X158173580Y-106495676D01*
X158173580Y-106495672D01*
X158173578Y-106495667D01*
X158120778Y-106368195D01*
X158120771Y-106368182D01*
X158044114Y-106253458D01*
X158044111Y-106253454D01*
X157962838Y-106172181D01*
X157929353Y-106110858D01*
X157934337Y-106041166D01*
X157976209Y-105985233D01*
X158041673Y-105960816D01*
X158050519Y-105960500D01*
X158161937Y-105960500D01*
X158228976Y-105980185D01*
X158249618Y-105996819D01*
X159053181Y-106800381D01*
X159086666Y-106861704D01*
X159089500Y-106888062D01*
X159089500Y-108287623D01*
X159089500Y-108600124D01*
X159089500Y-108708210D01*
X159117475Y-108812614D01*
X159117476Y-108812615D01*
X159117478Y-108812620D01*
X159171513Y-108906213D01*
X159171519Y-108906221D01*
X159372780Y-109107481D01*
X159372783Y-109107485D01*
X159379851Y-109114553D01*
X159456280Y-109190982D01*
X159546555Y-109243102D01*
X159549886Y-109245025D01*
X159654289Y-109273000D01*
X159654290Y-109273000D01*
X160387085Y-109273000D01*
X160454124Y-109292685D01*
X160499879Y-109345489D01*
X160507872Y-109373928D01*
X160508173Y-109373852D01*
X160510120Y-109381556D01*
X160565639Y-109522343D01*
X160657077Y-109642922D01*
X160777657Y-109734361D01*
X160806886Y-109745887D01*
X160905853Y-109784915D01*
X160960995Y-109827819D01*
X160984189Y-109893726D01*
X160968069Y-109961711D01*
X160917752Y-110010188D01*
X160905853Y-110015622D01*
X160777906Y-110066078D01*
X160657435Y-110157435D01*
X160566079Y-110277904D01*
X160510613Y-110418556D01*
X160500000Y-110506946D01*
X160500000Y-110700000D01*
X162500000Y-110700000D01*
X162500000Y-110556946D01*
X163475000Y-110556946D01*
X163475000Y-110737500D01*
X164300000Y-110737500D01*
X164700000Y-110737500D01*
X165525000Y-110737500D01*
X165525000Y-110556946D01*
X165514386Y-110468556D01*
X165458920Y-110327904D01*
X165367564Y-110207435D01*
X165247095Y-110116079D01*
X165106443Y-110060613D01*
X165018054Y-110050000D01*
X164700000Y-110050000D01*
X164700000Y-110737500D01*
X164300000Y-110737500D01*
X164300000Y-110050000D01*
X163981946Y-110050000D01*
X163893556Y-110060613D01*
X163752904Y-110116079D01*
X163632435Y-110207435D01*
X163541079Y-110327904D01*
X163485613Y-110468556D01*
X163475000Y-110556946D01*
X162500000Y-110556946D01*
X162500000Y-110506946D01*
X162489386Y-110418556D01*
X162433920Y-110277904D01*
X162342564Y-110157435D01*
X162222093Y-110066078D01*
X162222091Y-110066077D01*
X162094147Y-110015622D01*
X162039003Y-109972716D01*
X162015810Y-109906809D01*
X162031931Y-109838824D01*
X162082248Y-109790348D01*
X162094124Y-109784923D01*
X162222342Y-109734361D01*
X162342922Y-109642922D01*
X162434361Y-109522342D01*
X162489877Y-109381564D01*
X162489877Y-109381559D01*
X162489879Y-109381556D01*
X162491827Y-109373852D01*
X162493232Y-109374207D01*
X162517340Y-109317997D01*
X162575225Y-109278867D01*
X162612915Y-109273000D01*
X163377634Y-109273000D01*
X163444673Y-109292685D01*
X163490428Y-109345489D01*
X163492988Y-109351510D01*
X163540637Y-109472339D01*
X163540638Y-109472341D01*
X163632077Y-109592922D01*
X163752656Y-109684360D01*
X163752657Y-109684360D01*
X163752658Y-109684361D01*
X163893436Y-109739877D01*
X163981898Y-109750500D01*
X163981903Y-109750500D01*
X165018097Y-109750500D01*
X165018102Y-109750500D01*
X165106564Y-109739877D01*
X165247342Y-109684361D01*
X165367922Y-109592922D01*
X165459361Y-109472342D01*
X165514877Y-109331564D01*
X165525500Y-109243102D01*
X165525500Y-108481898D01*
X165514877Y-108393436D01*
X165459361Y-108252658D01*
X165459360Y-108252657D01*
X165459360Y-108252656D01*
X165367922Y-108132077D01*
X165247343Y-108040639D01*
X165106561Y-107985122D01*
X165060926Y-107979642D01*
X165018102Y-107974500D01*
X165018097Y-107974500D01*
X164509942Y-107974500D01*
X164458284Y-107960658D01*
X164457624Y-107962252D01*
X164450117Y-107959143D01*
X164450114Y-107959141D01*
X164345710Y-107931166D01*
X164345708Y-107931166D01*
X160534500Y-107931166D01*
X160467461Y-107911481D01*
X160421706Y-107858677D01*
X160410500Y-107807166D01*
X160410500Y-107486496D01*
X160430185Y-107419457D01*
X160482989Y-107373702D01*
X160552147Y-107363758D01*
X160615703Y-107392783D01*
X160633302Y-107411569D01*
X160657078Y-107442922D01*
X160777656Y-107534360D01*
X160777657Y-107534360D01*
X160777658Y-107534361D01*
X160918436Y-107589877D01*
X161006898Y-107600500D01*
X161006903Y-107600500D01*
X161993097Y-107600500D01*
X161993102Y-107600500D01*
X162081564Y-107589877D01*
X162222342Y-107534361D01*
X162342922Y-107442922D01*
X162434361Y-107322342D01*
X162489877Y-107181564D01*
X162500500Y-107093102D01*
X162500500Y-106308436D01*
X162520185Y-106241397D01*
X162572989Y-106195642D01*
X162642147Y-106185698D01*
X162656576Y-106188657D01*
X162700774Y-106200500D01*
X167541324Y-106200500D01*
X167608363Y-106220185D01*
X167629005Y-106236819D01*
X168463181Y-107070994D01*
X168496666Y-107132317D01*
X168499500Y-107158675D01*
X168499500Y-113874657D01*
X168479815Y-113941696D01*
X168463181Y-113962338D01*
X167629005Y-114796514D01*
X167567682Y-114829999D01*
X167541324Y-114832833D01*
X162541519Y-114832833D01*
X162474480Y-114813148D01*
X162453838Y-114796514D01*
X162446545Y-114789221D01*
X162446541Y-114789218D01*
X162331817Y-114712561D01*
X162331804Y-114712554D01*
X162204332Y-114659754D01*
X162204322Y-114659751D01*
X162068995Y-114632833D01*
X162068993Y-114632833D01*
X161931007Y-114632833D01*
X161931005Y-114632833D01*
X161795677Y-114659751D01*
X161795667Y-114659754D01*
X161668195Y-114712554D01*
X161668182Y-114712561D01*
X161553458Y-114789218D01*
X161553454Y-114789221D01*
X161455888Y-114886787D01*
X161455885Y-114886791D01*
X161379228Y-115001515D01*
X161379221Y-115001528D01*
X161326421Y-115129000D01*
X161326418Y-115129010D01*
X161299500Y-115264337D01*
X161299500Y-115264340D01*
X161299500Y-115402326D01*
X161299500Y-115402328D01*
X161299499Y-115402328D01*
X161326418Y-115537655D01*
X161326421Y-115537665D01*
X161379221Y-115665137D01*
X161379228Y-115665150D01*
X161455885Y-115779874D01*
X161455888Y-115779878D01*
X161553454Y-115877444D01*
X161553458Y-115877447D01*
X161668182Y-115954104D01*
X161668195Y-115954111D01*
X161741523Y-115984484D01*
X161795672Y-116006913D01*
X161795676Y-116006913D01*
X161795677Y-116006914D01*
X161931004Y-116033833D01*
X161931007Y-116033833D01*
X162068995Y-116033833D01*
X162160041Y-116015722D01*
X162204328Y-116006913D01*
X162331811Y-115954108D01*
X162446542Y-115877447D01*
X162446545Y-115877444D01*
X162453838Y-115870152D01*
X162515161Y-115836667D01*
X162541519Y-115833833D01*
X167865890Y-115833833D01*
X167865892Y-115833833D01*
X167993186Y-115799725D01*
X168107314Y-115733833D01*
X169188319Y-114652825D01*
X169249642Y-114619341D01*
X169319333Y-114624325D01*
X169375267Y-114666196D01*
X169399684Y-114731661D01*
X169400000Y-114740507D01*
X169400000Y-118376000D01*
X169380315Y-118443039D01*
X169327511Y-118488794D01*
X169276000Y-118500000D01*
X137124000Y-118500000D01*
X137056961Y-118480315D01*
X137011206Y-118427511D01*
X137000000Y-118376000D01*
X137000000Y-115946797D01*
X152524500Y-115946797D01*
X152524500Y-117386522D01*
X152524502Y-117386548D01*
X152527413Y-117411653D01*
X152527415Y-117411657D01*
X152572793Y-117514430D01*
X152572794Y-117514431D01*
X152652235Y-117593872D01*
X152755009Y-117639251D01*
X152780135Y-117642166D01*
X154219864Y-117642165D01*
X154219879Y-117642163D01*
X154219882Y-117642163D01*
X154244987Y-117639252D01*
X154244988Y-117639251D01*
X154244991Y-117639251D01*
X154347765Y-117593872D01*
X154427206Y-117514431D01*
X154472585Y-117411657D01*
X154475500Y-117386531D01*
X154475499Y-117298017D01*
X154495183Y-117230982D01*
X154547986Y-117185226D01*
X154617145Y-117175282D01*
X154680701Y-117204306D01*
X154702601Y-117229128D01*
X154742282Y-117288514D01*
X154878151Y-117424383D01*
X154878155Y-117424386D01*
X155037927Y-117531143D01*
X155037928Y-117531143D01*
X155037929Y-117531144D01*
X155037931Y-117531145D01*
X155215452Y-117604676D01*
X155215457Y-117604678D01*
X155401403Y-117641665D01*
X155403917Y-117642165D01*
X155403920Y-117642166D01*
X155403922Y-117642166D01*
X155596080Y-117642166D01*
X155596081Y-117642165D01*
X155784543Y-117604678D01*
X155962073Y-117531143D01*
X156121845Y-117424386D01*
X156257720Y-117288511D01*
X156364477Y-117128739D01*
X156385439Y-117078133D01*
X156429280Y-117023729D01*
X156495574Y-117001664D01*
X156563273Y-117018943D01*
X156610884Y-117070080D01*
X156614561Y-117078133D01*
X156635520Y-117128734D01*
X156635521Y-117128736D01*
X156742279Y-117288510D01*
X156742282Y-117288514D01*
X156878151Y-117424383D01*
X156878155Y-117424386D01*
X157037927Y-117531143D01*
X157037928Y-117531143D01*
X157037929Y-117531144D01*
X157037931Y-117531145D01*
X157215452Y-117604676D01*
X157215457Y-117604678D01*
X157401403Y-117641665D01*
X157403917Y-117642165D01*
X157403920Y-117642166D01*
X157403922Y-117642166D01*
X157596080Y-117642166D01*
X157596081Y-117642165D01*
X157784543Y-117604678D01*
X157962073Y-117531143D01*
X158121845Y-117424386D01*
X158134578Y-117411653D01*
X158197232Y-117349000D01*
X158257717Y-117288514D01*
X158257720Y-117288511D01*
X158364477Y-117128739D01*
X158385709Y-117077479D01*
X158429549Y-117023077D01*
X158495843Y-117001011D01*
X158563542Y-117018289D01*
X158611153Y-117069426D01*
X158614831Y-117077479D01*
X158635964Y-117128498D01*
X158635966Y-117128502D01*
X158683773Y-117200049D01*
X159113629Y-116770193D01*
X159127259Y-116821060D01*
X159179920Y-116912272D01*
X159254394Y-116986746D01*
X159345606Y-117039407D01*
X159396471Y-117053036D01*
X158966614Y-117482892D01*
X159038166Y-117530701D01*
X159215602Y-117604197D01*
X159215610Y-117604199D01*
X159403966Y-117641665D01*
X159403970Y-117641666D01*
X159596030Y-117641666D01*
X159596033Y-117641665D01*
X159784389Y-117604199D01*
X159784397Y-117604197D01*
X159961834Y-117530700D01*
X159961840Y-117530697D01*
X160033384Y-117482892D01*
X160033384Y-117482891D01*
X159603529Y-117053036D01*
X159654394Y-117039407D01*
X159745606Y-116986746D01*
X159820080Y-116912272D01*
X159872741Y-116821060D01*
X159886370Y-116770194D01*
X160316226Y-117200050D01*
X160364031Y-117128506D01*
X160364034Y-117128500D01*
X160437531Y-116951063D01*
X160437533Y-116951055D01*
X160474999Y-116762699D01*
X160475000Y-116762696D01*
X160475000Y-116570636D01*
X160474999Y-116570632D01*
X160437533Y-116382276D01*
X160437531Y-116382268D01*
X160364035Y-116204832D01*
X160316226Y-116133280D01*
X159886370Y-116563136D01*
X159872741Y-116512272D01*
X159820080Y-116421060D01*
X159745606Y-116346586D01*
X159654394Y-116293925D01*
X159603528Y-116280295D01*
X160033383Y-115850439D01*
X159961836Y-115802632D01*
X159961833Y-115802630D01*
X159784397Y-115729134D01*
X159784389Y-115729132D01*
X159596033Y-115691666D01*
X159403966Y-115691666D01*
X159215610Y-115729132D01*
X159215602Y-115729134D01*
X159038165Y-115802631D01*
X158966615Y-115850439D01*
X158966614Y-115850439D01*
X159396471Y-116280295D01*
X159345606Y-116293925D01*
X159254394Y-116346586D01*
X159179920Y-116421060D01*
X159127259Y-116512272D01*
X159113629Y-116563136D01*
X158683773Y-116133280D01*
X158683773Y-116133281D01*
X158635963Y-116204834D01*
X158614830Y-116255853D01*
X158570989Y-116310256D01*
X158504694Y-116332320D01*
X158436995Y-116315040D01*
X158389385Y-116263902D01*
X158385709Y-116255851D01*
X158364479Y-116204597D01*
X158364478Y-116204595D01*
X158333154Y-116157716D01*
X158257720Y-116044821D01*
X158257717Y-116044817D01*
X158197383Y-115984483D01*
X158197383Y-115984484D01*
X158121845Y-115908946D01*
X158121046Y-115908412D01*
X158116117Y-115903500D01*
X158102077Y-115877893D01*
X158085646Y-115853770D01*
X158085481Y-115847625D01*
X158082526Y-115842235D01*
X158084557Y-115813110D01*
X158083777Y-115783926D01*
X158086961Y-115778667D01*
X158087389Y-115772534D01*
X158104845Y-115749130D01*
X158119966Y-115724158D01*
X158125487Y-115721455D01*
X158129163Y-115716528D01*
X158156502Y-115706276D01*
X158182723Y-115693444D01*
X158193071Y-115692564D01*
X158194585Y-115691997D01*
X158196044Y-115692311D01*
X158203646Y-115691666D01*
X158418054Y-115691666D01*
X158506443Y-115681052D01*
X158647095Y-115625586D01*
X158767564Y-115534230D01*
X158858920Y-115413761D01*
X158914386Y-115273109D01*
X158925000Y-115184719D01*
X158925000Y-114866666D01*
X157150000Y-114866666D01*
X157150000Y-115184719D01*
X157160613Y-115273109D01*
X157216080Y-115413763D01*
X157303761Y-115529387D01*
X157328584Y-115594698D01*
X157314156Y-115663062D01*
X157265059Y-115712773D01*
X157229155Y-115725928D01*
X157215463Y-115728652D01*
X157215452Y-115728655D01*
X157037931Y-115802186D01*
X157037929Y-115802187D01*
X156878155Y-115908945D01*
X156878151Y-115908948D01*
X156742282Y-116044817D01*
X156742279Y-116044821D01*
X156635521Y-116204595D01*
X156614561Y-116255199D01*
X156570720Y-116309602D01*
X156504426Y-116331667D01*
X156436726Y-116314388D01*
X156389116Y-116263250D01*
X156385439Y-116255199D01*
X156364478Y-116204595D01*
X156333154Y-116157716D01*
X156257720Y-116044821D01*
X156257717Y-116044817D01*
X156117538Y-115904638D01*
X156119338Y-115902837D01*
X156086259Y-115854283D01*
X156084383Y-115784439D01*
X156120565Y-115724668D01*
X156183318Y-115693946D01*
X156204255Y-115692166D01*
X156343097Y-115692166D01*
X156343102Y-115692166D01*
X156431564Y-115681543D01*
X156572342Y-115626027D01*
X156692922Y-115534588D01*
X156784361Y-115414008D01*
X156839877Y-115273230D01*
X156850500Y-115184768D01*
X156850500Y-114148612D01*
X157150000Y-114148612D01*
X157150000Y-114466666D01*
X157837500Y-114466666D01*
X158237500Y-114466666D01*
X158925000Y-114466666D01*
X158925000Y-114148612D01*
X158914386Y-114060222D01*
X158858920Y-113919570D01*
X158767564Y-113799101D01*
X158647095Y-113707745D01*
X158506443Y-113652279D01*
X158418054Y-113641666D01*
X158237500Y-113641666D01*
X158237500Y-114466666D01*
X157837500Y-114466666D01*
X157837500Y-113641666D01*
X157656946Y-113641666D01*
X157568556Y-113652279D01*
X157427904Y-113707745D01*
X157307435Y-113799101D01*
X157216079Y-113919570D01*
X157160613Y-114060222D01*
X157150000Y-114148612D01*
X156850500Y-114148612D01*
X156850500Y-114148564D01*
X156839877Y-114060102D01*
X156784361Y-113919324D01*
X156784360Y-113919323D01*
X156784360Y-113919322D01*
X156692922Y-113798743D01*
X156572343Y-113707305D01*
X156476192Y-113669388D01*
X156431564Y-113651789D01*
X156431563Y-113651788D01*
X156431561Y-113651788D01*
X156385926Y-113646308D01*
X156343102Y-113641166D01*
X155581898Y-113641166D01*
X155542853Y-113645854D01*
X155493438Y-113651788D01*
X155352656Y-113707305D01*
X155232077Y-113798743D01*
X155140639Y-113919322D01*
X155085122Y-114060104D01*
X155082077Y-114085466D01*
X155079497Y-114106951D01*
X155051961Y-114171163D01*
X154994079Y-114210297D01*
X154956382Y-114216166D01*
X154091518Y-114216166D01*
X154024479Y-114196481D01*
X154003841Y-114179851D01*
X153946542Y-114122552D01*
X153946541Y-114122551D01*
X153946540Y-114122550D01*
X153831817Y-114045894D01*
X153831804Y-114045887D01*
X153704332Y-113993087D01*
X153704322Y-113993084D01*
X153568995Y-113966166D01*
X153568993Y-113966166D01*
X153431007Y-113966166D01*
X153431005Y-113966166D01*
X153295677Y-113993084D01*
X153295667Y-113993087D01*
X153168195Y-114045887D01*
X153168182Y-114045894D01*
X153053458Y-114122551D01*
X153053454Y-114122554D01*
X152955888Y-114220120D01*
X152955885Y-114220124D01*
X152879228Y-114334848D01*
X152879221Y-114334861D01*
X152826421Y-114462333D01*
X152826418Y-114462343D01*
X152799500Y-114597670D01*
X152799500Y-114597673D01*
X152799500Y-114735659D01*
X152799500Y-114735661D01*
X152799499Y-114735661D01*
X152826418Y-114870988D01*
X152826421Y-114870998D01*
X152879221Y-114998470D01*
X152879228Y-114998483D01*
X152955885Y-115113207D01*
X152955888Y-115113211D01*
X153053454Y-115210777D01*
X153053458Y-115210780D01*
X153168182Y-115287437D01*
X153168195Y-115287444D01*
X153295667Y-115340244D01*
X153295672Y-115340246D01*
X153295676Y-115340246D01*
X153295677Y-115340247D01*
X153431004Y-115367166D01*
X153431007Y-115367166D01*
X153568995Y-115367166D01*
X153660041Y-115349055D01*
X153704328Y-115340246D01*
X153831811Y-115287441D01*
X153946542Y-115210780D01*
X154003838Y-115153483D01*
X154065159Y-115120000D01*
X154091518Y-115117166D01*
X154956382Y-115117166D01*
X155023421Y-115136851D01*
X155069176Y-115189655D01*
X155079496Y-115226379D01*
X155082318Y-115249874D01*
X155085122Y-115273227D01*
X155140639Y-115414009D01*
X155232079Y-115534590D01*
X155233210Y-115535721D01*
X155233913Y-115537008D01*
X155237203Y-115541347D01*
X155236551Y-115541840D01*
X155266695Y-115597044D01*
X155261711Y-115666736D01*
X155219839Y-115722669D01*
X155192982Y-115737963D01*
X155037929Y-115802187D01*
X154878155Y-115908945D01*
X154878151Y-115908948D01*
X154742282Y-116044817D01*
X154742279Y-116044821D01*
X154702601Y-116104204D01*
X154648989Y-116149009D01*
X154579664Y-116157716D01*
X154516636Y-116127561D01*
X154479917Y-116068118D01*
X154475499Y-116035313D01*
X154475499Y-115946809D01*
X154475499Y-115946802D01*
X154475497Y-115946783D01*
X154472586Y-115921678D01*
X154472585Y-115921676D01*
X154472585Y-115921675D01*
X154427206Y-115818901D01*
X154347765Y-115739460D01*
X154317118Y-115725928D01*
X154244992Y-115694081D01*
X154219865Y-115691166D01*
X152780143Y-115691166D01*
X152780117Y-115691168D01*
X152755012Y-115694079D01*
X152755008Y-115694081D01*
X152652235Y-115739459D01*
X152572794Y-115818900D01*
X152527415Y-115921672D01*
X152527415Y-115921674D01*
X152524500Y-115946797D01*
X137000000Y-115946797D01*
X137000000Y-101624000D01*
X137019685Y-101556961D01*
X137072489Y-101511206D01*
X137124000Y-101500000D01*
X169276000Y-101500000D01*
X169343039Y-101519685D01*
G37*
%TD.AperFunction*%
%TD*%
%TA.AperFunction,Conductor*%
%TO.N,/GND_RED*%
G36*
X132943039Y-101519685D02*
G01*
X132988794Y-101572489D01*
X133000000Y-101624000D01*
X133000000Y-117275500D01*
X132980315Y-117342539D01*
X132927511Y-117388294D01*
X132876000Y-117399500D01*
X130740189Y-117399500D01*
X130673150Y-117379815D01*
X130627395Y-117327011D01*
X130617451Y-117257853D01*
X130629704Y-117219205D01*
X130686211Y-117108305D01*
X130742171Y-116936075D01*
X130760388Y-116821060D01*
X130770500Y-116757217D01*
X130770500Y-116576114D01*
X130742189Y-116397372D01*
X130742171Y-116397257D01*
X130696226Y-116255851D01*
X130686212Y-116225029D01*
X130686211Y-116225026D01*
X130651914Y-116157716D01*
X130603996Y-116063672D01*
X130562950Y-116007177D01*
X130497558Y-115917171D01*
X130497554Y-115917166D01*
X130369499Y-115789111D01*
X130369494Y-115789107D01*
X130222997Y-115682672D01*
X130222996Y-115682671D01*
X130222994Y-115682670D01*
X130146906Y-115643901D01*
X130061639Y-115600454D01*
X130061636Y-115600453D01*
X129889410Y-115544495D01*
X129710551Y-115516166D01*
X129710546Y-115516166D01*
X129529454Y-115516166D01*
X129529449Y-115516166D01*
X129350589Y-115544495D01*
X129178363Y-115600453D01*
X129178360Y-115600454D01*
X129017002Y-115682672D01*
X128870505Y-115789107D01*
X128870500Y-115789111D01*
X128742445Y-115917166D01*
X128742441Y-115917171D01*
X128636006Y-116063668D01*
X128553788Y-116225026D01*
X128553787Y-116225029D01*
X128497829Y-116397255D01*
X128472473Y-116557344D01*
X128442544Y-116620479D01*
X128383232Y-116657410D01*
X128313369Y-116656412D01*
X128255137Y-116617802D01*
X128227527Y-116557344D01*
X128202189Y-116397372D01*
X128202171Y-116397257D01*
X128156226Y-116255851D01*
X128146212Y-116225029D01*
X128146211Y-116225026D01*
X128111914Y-116157716D01*
X128063996Y-116063672D01*
X128022950Y-116007177D01*
X127957558Y-115917171D01*
X127957554Y-115917166D01*
X127829499Y-115789111D01*
X127829494Y-115789107D01*
X127682997Y-115682672D01*
X127682996Y-115682671D01*
X127682994Y-115682670D01*
X127606906Y-115643901D01*
X127521639Y-115600454D01*
X127521636Y-115600453D01*
X127349410Y-115544495D01*
X127170551Y-115516166D01*
X127170546Y-115516166D01*
X126989454Y-115516166D01*
X126989449Y-115516166D01*
X126810589Y-115544495D01*
X126638363Y-115600453D01*
X126638360Y-115600454D01*
X126477002Y-115682672D01*
X126330505Y-115789107D01*
X126330500Y-115789111D01*
X126202445Y-115917166D01*
X126202441Y-115917171D01*
X126096006Y-116063668D01*
X126013788Y-116225026D01*
X126013787Y-116225029D01*
X125957829Y-116397255D01*
X125932219Y-116558946D01*
X125902289Y-116622080D01*
X125842978Y-116659011D01*
X125773115Y-116658013D01*
X125714883Y-116619403D01*
X125687273Y-116558945D01*
X125661682Y-116397372D01*
X125605748Y-116225221D01*
X125605747Y-116225218D01*
X125523565Y-116063931D01*
X125482331Y-116007177D01*
X125482330Y-116007176D01*
X125008018Y-116481487D01*
X125005925Y-116473673D01*
X124940099Y-116359659D01*
X124847007Y-116266567D01*
X124732993Y-116200741D01*
X124725176Y-116198646D01*
X125199487Y-115724334D01*
X125199487Y-115724333D01*
X125142734Y-115683100D01*
X124981447Y-115600918D01*
X124981444Y-115600917D01*
X124809293Y-115544983D01*
X124630506Y-115516666D01*
X124449494Y-115516666D01*
X124270706Y-115544983D01*
X124098555Y-115600917D01*
X124098552Y-115600918D01*
X123937270Y-115683097D01*
X123937268Y-115683098D01*
X123880511Y-115724333D01*
X123880511Y-115724334D01*
X124354823Y-116198646D01*
X124347007Y-116200741D01*
X124232993Y-116266567D01*
X124139901Y-116359659D01*
X124074075Y-116473673D01*
X124071980Y-116481489D01*
X123597668Y-116007177D01*
X123597667Y-116007177D01*
X123556432Y-116063934D01*
X123556431Y-116063936D01*
X123474252Y-116225218D01*
X123474251Y-116225221D01*
X123418317Y-116397372D01*
X123396972Y-116532137D01*
X123367043Y-116595272D01*
X123307731Y-116632203D01*
X123237868Y-116631205D01*
X123179636Y-116592595D01*
X123151522Y-116528631D01*
X123150499Y-116512739D01*
X123150499Y-115771809D01*
X123150499Y-115771802D01*
X123147870Y-115749130D01*
X123147586Y-115746678D01*
X123147585Y-115746676D01*
X123147585Y-115746675D01*
X123102206Y-115643901D01*
X123022765Y-115564460D01*
X122978654Y-115544983D01*
X122919992Y-115519081D01*
X122894865Y-115516166D01*
X121105143Y-115516166D01*
X121105117Y-115516168D01*
X121080012Y-115519079D01*
X121080008Y-115519081D01*
X120977235Y-115564459D01*
X120897794Y-115643900D01*
X120852415Y-115746672D01*
X120852415Y-115746674D01*
X120849500Y-115771797D01*
X120849500Y-117561522D01*
X120849502Y-117561548D01*
X120852413Y-117586653D01*
X120852415Y-117586657D01*
X120897793Y-117689430D01*
X120897794Y-117689431D01*
X120977235Y-117768872D01*
X121080009Y-117814251D01*
X121105135Y-117817166D01*
X122894864Y-117817165D01*
X122894879Y-117817163D01*
X122894882Y-117817163D01*
X122919987Y-117814252D01*
X122919988Y-117814251D01*
X122919991Y-117814251D01*
X123022765Y-117768872D01*
X123102206Y-117689431D01*
X123147585Y-117586657D01*
X123150500Y-117561531D01*
X123150499Y-116820591D01*
X123170183Y-116753554D01*
X123222987Y-116707799D01*
X123292146Y-116697855D01*
X123355702Y-116726880D01*
X123393476Y-116785658D01*
X123396972Y-116801195D01*
X123418317Y-116935959D01*
X123474251Y-117108110D01*
X123474252Y-117108113D01*
X123556434Y-117269400D01*
X123597667Y-117326153D01*
X123597668Y-117326153D01*
X124071980Y-116851842D01*
X124074075Y-116859659D01*
X124139901Y-116973673D01*
X124232993Y-117066765D01*
X124347007Y-117132591D01*
X124354822Y-117134685D01*
X123880510Y-117608996D01*
X123880511Y-117608997D01*
X123937265Y-117650231D01*
X124098552Y-117732413D01*
X124098555Y-117732414D01*
X124270706Y-117788348D01*
X124449494Y-117816666D01*
X124630506Y-117816666D01*
X124809293Y-117788348D01*
X124981444Y-117732414D01*
X124981447Y-117732413D01*
X125142730Y-117650234D01*
X125199487Y-117608996D01*
X125199488Y-117608995D01*
X124725178Y-117134685D01*
X124732993Y-117132591D01*
X124847007Y-117066765D01*
X124940099Y-116973673D01*
X125005925Y-116859659D01*
X125008019Y-116851843D01*
X125482329Y-117326154D01*
X125482330Y-117326153D01*
X125523568Y-117269396D01*
X125605747Y-117108113D01*
X125605748Y-117108110D01*
X125661683Y-116935958D01*
X125687273Y-116774387D01*
X125717202Y-116711252D01*
X125776513Y-116674320D01*
X125846376Y-116675318D01*
X125904609Y-116713927D01*
X125932219Y-116774386D01*
X125957828Y-116936076D01*
X126013787Y-117108302D01*
X126013788Y-117108305D01*
X126052982Y-117185226D01*
X126095869Y-117269396D01*
X126096006Y-117269663D01*
X126202441Y-117416160D01*
X126202445Y-117416165D01*
X126330500Y-117544220D01*
X126330505Y-117544224D01*
X126458287Y-117637062D01*
X126477006Y-117650662D01*
X126553094Y-117689431D01*
X126638360Y-117732877D01*
X126638363Y-117732878D01*
X126724476Y-117760857D01*
X126810591Y-117788837D01*
X126893429Y-117801957D01*
X126989449Y-117817166D01*
X126989454Y-117817166D01*
X127170551Y-117817166D01*
X127257259Y-117803431D01*
X127349409Y-117788837D01*
X127521639Y-117732877D01*
X127682994Y-117650662D01*
X127829501Y-117544219D01*
X127957553Y-117416167D01*
X128063996Y-117269660D01*
X128146211Y-117108305D01*
X128202171Y-116936075D01*
X128220388Y-116821060D01*
X128227527Y-116775987D01*
X128257456Y-116712852D01*
X128316768Y-116675921D01*
X128386630Y-116676919D01*
X128444863Y-116715529D01*
X128472473Y-116775987D01*
X128497829Y-116936076D01*
X128553787Y-117108302D01*
X128553788Y-117108305D01*
X128592982Y-117185226D01*
X128635869Y-117269396D01*
X128636006Y-117269663D01*
X128742441Y-117416160D01*
X128742445Y-117416165D01*
X128870500Y-117544220D01*
X128870505Y-117544224D01*
X128998287Y-117637062D01*
X129017006Y-117650662D01*
X129178361Y-117732877D01*
X129238976Y-117752571D01*
X129288340Y-117782821D01*
X129793838Y-118288319D01*
X129827323Y-118349642D01*
X129822339Y-118419334D01*
X129780467Y-118475267D01*
X129715003Y-118499684D01*
X129706157Y-118500000D01*
X100724000Y-118500000D01*
X100656961Y-118480315D01*
X100611206Y-118427511D01*
X100600000Y-118376000D01*
X100600000Y-114740508D01*
X100619685Y-114673469D01*
X100672489Y-114627714D01*
X100741647Y-114617770D01*
X100805203Y-114646795D01*
X100811669Y-114652815D01*
X101276020Y-115117166D01*
X101795159Y-115636305D01*
X101795169Y-115636316D01*
X101799499Y-115640646D01*
X101799500Y-115640647D01*
X101892686Y-115733833D01*
X101959718Y-115772534D01*
X101972433Y-115779875D01*
X101972434Y-115779876D01*
X102006808Y-115799722D01*
X102006809Y-115799722D01*
X102006814Y-115799725D01*
X102134107Y-115833833D01*
X102134108Y-115833833D01*
X107458481Y-115833833D01*
X107525520Y-115853518D01*
X107546162Y-115870152D01*
X107553454Y-115877444D01*
X107553458Y-115877447D01*
X107668182Y-115954104D01*
X107668195Y-115954111D01*
X107741523Y-115984484D01*
X107795672Y-116006913D01*
X107795676Y-116006913D01*
X107795677Y-116006914D01*
X107931004Y-116033833D01*
X107931007Y-116033833D01*
X108068995Y-116033833D01*
X108160041Y-116015722D01*
X108204328Y-116006913D01*
X108331811Y-115954108D01*
X108446542Y-115877447D01*
X108544114Y-115779875D01*
X108620775Y-115665144D01*
X108673580Y-115537661D01*
X108698176Y-115414009D01*
X108700500Y-115402328D01*
X108700500Y-115264337D01*
X108673581Y-115129010D01*
X108673580Y-115129009D01*
X108673580Y-115129005D01*
X108668676Y-115117166D01*
X108620778Y-115001528D01*
X108620771Y-115001515D01*
X108544114Y-114886791D01*
X108544111Y-114886787D01*
X108446545Y-114789221D01*
X108446541Y-114789218D01*
X108331817Y-114712561D01*
X108331804Y-114712554D01*
X108204332Y-114659754D01*
X108204322Y-114659751D01*
X108068995Y-114632833D01*
X108068993Y-114632833D01*
X107931007Y-114632833D01*
X107931005Y-114632833D01*
X107795677Y-114659751D01*
X107795667Y-114659754D01*
X107668195Y-114712554D01*
X107668182Y-114712561D01*
X107553458Y-114789218D01*
X107553454Y-114789221D01*
X107546162Y-114796514D01*
X107484839Y-114829999D01*
X107458481Y-114832833D01*
X102458675Y-114832833D01*
X102391636Y-114813148D01*
X102370994Y-114796514D01*
X101536819Y-113962338D01*
X101503334Y-113901015D01*
X101500500Y-113874657D01*
X101500500Y-111318053D01*
X104475000Y-111318053D01*
X104485613Y-111406443D01*
X104541079Y-111547095D01*
X104632435Y-111667564D01*
X104752904Y-111758920D01*
X104893556Y-111814386D01*
X104981946Y-111825000D01*
X105300000Y-111825000D01*
X105700000Y-111825000D01*
X106018054Y-111825000D01*
X106106443Y-111814386D01*
X106247095Y-111758920D01*
X106367564Y-111667564D01*
X106458920Y-111547095D01*
X106514386Y-111406443D01*
X106525000Y-111318053D01*
X106525000Y-111293053D01*
X107500000Y-111293053D01*
X107510613Y-111381443D01*
X107566079Y-111522095D01*
X107657435Y-111642564D01*
X107777904Y-111733920D01*
X107918556Y-111789386D01*
X108006946Y-111800000D01*
X108300000Y-111800000D01*
X108700000Y-111800000D01*
X108993054Y-111800000D01*
X109081443Y-111789386D01*
X109222095Y-111733920D01*
X109342564Y-111642564D01*
X109433920Y-111522095D01*
X109489386Y-111381443D01*
X109500000Y-111293053D01*
X109500000Y-111100000D01*
X108700000Y-111100000D01*
X108700000Y-111800000D01*
X108300000Y-111800000D01*
X108300000Y-111100000D01*
X107500000Y-111100000D01*
X107500000Y-111293053D01*
X106525000Y-111293053D01*
X106525000Y-111137500D01*
X105700000Y-111137500D01*
X105700000Y-111825000D01*
X105300000Y-111825000D01*
X105300000Y-111137500D01*
X104475000Y-111137500D01*
X104475000Y-111318053D01*
X101500500Y-111318053D01*
X101500500Y-110556946D01*
X104475000Y-110556946D01*
X104475000Y-110737500D01*
X105300000Y-110737500D01*
X105700000Y-110737500D01*
X106525000Y-110737500D01*
X106525000Y-110556946D01*
X106514386Y-110468556D01*
X106458920Y-110327904D01*
X106367564Y-110207435D01*
X106247095Y-110116079D01*
X106106443Y-110060613D01*
X106018054Y-110050000D01*
X105700000Y-110050000D01*
X105700000Y-110737500D01*
X105300000Y-110737500D01*
X105300000Y-110050000D01*
X104981946Y-110050000D01*
X104893556Y-110060613D01*
X104752904Y-110116079D01*
X104632435Y-110207435D01*
X104541079Y-110327904D01*
X104485613Y-110468556D01*
X104475000Y-110556946D01*
X101500500Y-110556946D01*
X101500500Y-107158675D01*
X101520185Y-107091636D01*
X101536819Y-107070994D01*
X102370994Y-106236819D01*
X102432317Y-106203334D01*
X102458675Y-106200500D01*
X107299223Y-106200500D01*
X107299226Y-106200500D01*
X107343409Y-106188661D01*
X107413256Y-106190324D01*
X107471118Y-106229486D01*
X107498623Y-106293714D01*
X107499500Y-106308436D01*
X107499500Y-107093102D01*
X107503623Y-107127432D01*
X107510122Y-107181561D01*
X107565639Y-107322343D01*
X107657077Y-107442922D01*
X107777656Y-107534360D01*
X107777657Y-107534360D01*
X107777658Y-107534361D01*
X107918436Y-107589877D01*
X108006898Y-107600500D01*
X108006903Y-107600500D01*
X108993097Y-107600500D01*
X108993102Y-107600500D01*
X109081564Y-107589877D01*
X109222342Y-107534361D01*
X109342922Y-107442922D01*
X109366696Y-107411571D01*
X109422887Y-107370048D01*
X109492608Y-107365495D01*
X109553723Y-107399360D01*
X109586827Y-107460889D01*
X109589500Y-107486496D01*
X109589500Y-107807166D01*
X109569815Y-107874205D01*
X109517011Y-107919960D01*
X109465500Y-107931166D01*
X105654289Y-107931166D01*
X105560991Y-107956164D01*
X105560992Y-107956165D01*
X105549887Y-107959140D01*
X105542376Y-107962252D01*
X105541715Y-107960658D01*
X105490058Y-107974500D01*
X104981898Y-107974500D01*
X104942853Y-107979188D01*
X104893438Y-107985122D01*
X104752656Y-108040639D01*
X104632077Y-108132077D01*
X104540639Y-108252656D01*
X104485122Y-108393438D01*
X104484917Y-108395148D01*
X104474500Y-108481898D01*
X104474500Y-109243102D01*
X104478111Y-109273173D01*
X104485122Y-109331561D01*
X104540639Y-109472343D01*
X104632077Y-109592922D01*
X104752656Y-109684360D01*
X104752657Y-109684360D01*
X104752658Y-109684361D01*
X104893436Y-109739877D01*
X104981898Y-109750500D01*
X104981903Y-109750500D01*
X106018097Y-109750500D01*
X106018102Y-109750500D01*
X106106564Y-109739877D01*
X106247342Y-109684361D01*
X106367922Y-109592922D01*
X106459361Y-109472342D01*
X106475379Y-109431723D01*
X106507012Y-109351510D01*
X106549917Y-109296366D01*
X106615825Y-109273173D01*
X106622366Y-109273000D01*
X107387085Y-109273000D01*
X107454124Y-109292685D01*
X107499879Y-109345489D01*
X107507872Y-109373928D01*
X107508173Y-109373852D01*
X107510120Y-109381556D01*
X107565639Y-109522343D01*
X107657077Y-109642922D01*
X107777657Y-109734361D01*
X107811766Y-109747811D01*
X107905853Y-109784915D01*
X107960995Y-109827819D01*
X107984189Y-109893726D01*
X107968069Y-109961711D01*
X107917752Y-110010188D01*
X107905853Y-110015622D01*
X107777906Y-110066078D01*
X107657435Y-110157435D01*
X107566079Y-110277904D01*
X107510613Y-110418556D01*
X107500000Y-110506946D01*
X107500000Y-110700000D01*
X109500000Y-110700000D01*
X109500000Y-110506946D01*
X109489386Y-110418556D01*
X109433920Y-110277904D01*
X109342564Y-110157435D01*
X109222093Y-110066078D01*
X109222091Y-110066077D01*
X109094147Y-110015622D01*
X109039003Y-109972716D01*
X109015810Y-109906809D01*
X109031931Y-109838824D01*
X109082248Y-109790348D01*
X109094124Y-109784923D01*
X109222342Y-109734361D01*
X109342922Y-109642922D01*
X109434361Y-109522342D01*
X109489877Y-109381564D01*
X109489877Y-109381559D01*
X109489879Y-109381556D01*
X109491827Y-109373852D01*
X109493232Y-109374207D01*
X109517340Y-109317997D01*
X109575225Y-109278867D01*
X109612915Y-109273000D01*
X112345707Y-109273000D01*
X112345710Y-109273000D01*
X112450114Y-109245025D01*
X112543720Y-109190982D01*
X112734612Y-109000087D01*
X112734615Y-109000086D01*
X112752052Y-108982649D01*
X112752053Y-108982649D01*
X112828482Y-108906220D01*
X112882525Y-108812614D01*
X112910500Y-108708210D01*
X112910500Y-108331519D01*
X112930185Y-108264480D01*
X112946819Y-108243838D01*
X113044111Y-108146545D01*
X113044114Y-108146542D01*
X113120775Y-108031811D01*
X113131284Y-108006441D01*
X113150939Y-107958989D01*
X113194779Y-107904585D01*
X113261074Y-107882520D01*
X113328773Y-107899799D01*
X113376384Y-107950936D01*
X113389500Y-108006441D01*
X113389500Y-110275500D01*
X113369815Y-110342539D01*
X113317011Y-110388294D01*
X113265500Y-110399500D01*
X112155143Y-110399500D01*
X112155117Y-110399502D01*
X112130012Y-110402413D01*
X112130008Y-110402415D01*
X112027235Y-110447793D01*
X111947794Y-110527234D01*
X111902415Y-110630006D01*
X111902415Y-110630008D01*
X111899500Y-110655131D01*
X111899500Y-112744856D01*
X111899708Y-112748439D01*
X111898785Y-112748492D01*
X111887636Y-112813404D01*
X111840457Y-112864940D01*
X111776290Y-112882833D01*
X111640691Y-112882833D01*
X111571944Y-112901253D01*
X111526112Y-112913534D01*
X111526107Y-112913537D01*
X111482695Y-112938600D01*
X111482696Y-112938601D01*
X111423389Y-112972841D01*
X111423383Y-112972846D01*
X110139513Y-114256716D01*
X110139509Y-114256722D01*
X110080201Y-114359445D01*
X110080200Y-114359450D01*
X110049500Y-114474024D01*
X110049500Y-115567166D01*
X110029815Y-115634205D01*
X109977011Y-115679960D01*
X109925501Y-115691166D01*
X109780144Y-115691166D01*
X109780117Y-115691168D01*
X109755012Y-115694079D01*
X109755008Y-115694081D01*
X109652235Y-115739459D01*
X109572794Y-115818900D01*
X109527415Y-115921672D01*
X109527415Y-115921674D01*
X109524500Y-115946797D01*
X109524500Y-117386522D01*
X109524502Y-117386548D01*
X109527413Y-117411653D01*
X109527415Y-117411657D01*
X109572793Y-117514430D01*
X109572794Y-117514431D01*
X109652235Y-117593872D01*
X109755009Y-117639251D01*
X109780135Y-117642166D01*
X111219864Y-117642165D01*
X111219879Y-117642163D01*
X111219882Y-117642163D01*
X111244987Y-117639252D01*
X111244988Y-117639251D01*
X111244991Y-117639251D01*
X111347765Y-117593872D01*
X111427206Y-117514431D01*
X111472585Y-117411657D01*
X111475500Y-117386531D01*
X111475499Y-117298017D01*
X111495183Y-117230982D01*
X111547986Y-117185226D01*
X111617145Y-117175282D01*
X111680701Y-117204306D01*
X111702601Y-117229128D01*
X111742282Y-117288514D01*
X111878151Y-117424383D01*
X111878155Y-117424386D01*
X112037927Y-117531143D01*
X112037928Y-117531143D01*
X112037929Y-117531144D01*
X112037931Y-117531145D01*
X112215452Y-117604676D01*
X112215457Y-117604678D01*
X112401403Y-117641665D01*
X112403917Y-117642165D01*
X112403920Y-117642166D01*
X112403922Y-117642166D01*
X112596080Y-117642166D01*
X112596081Y-117642165D01*
X112784543Y-117604678D01*
X112962073Y-117531143D01*
X113121845Y-117424386D01*
X113257720Y-117288511D01*
X113364477Y-117128739D01*
X113372941Y-117108305D01*
X113385439Y-117078133D01*
X113429280Y-117023729D01*
X113495574Y-117001664D01*
X113563273Y-117018943D01*
X113610884Y-117070080D01*
X113614561Y-117078133D01*
X113635520Y-117128734D01*
X113635521Y-117128736D01*
X113742279Y-117288510D01*
X113742282Y-117288514D01*
X113878151Y-117424383D01*
X113878155Y-117424386D01*
X114037927Y-117531143D01*
X114037928Y-117531143D01*
X114037929Y-117531144D01*
X114037931Y-117531145D01*
X114215452Y-117604676D01*
X114215457Y-117604678D01*
X114401403Y-117641665D01*
X114403917Y-117642165D01*
X114403920Y-117642166D01*
X114403922Y-117642166D01*
X114596080Y-117642166D01*
X114596081Y-117642165D01*
X114784543Y-117604678D01*
X114962073Y-117531143D01*
X115121845Y-117424386D01*
X115157937Y-117388294D01*
X115197232Y-117349000D01*
X115257717Y-117288514D01*
X115257720Y-117288511D01*
X115364477Y-117128739D01*
X115385709Y-117077479D01*
X115429549Y-117023077D01*
X115495843Y-117001011D01*
X115563542Y-117018289D01*
X115611153Y-117069426D01*
X115614831Y-117077479D01*
X115635964Y-117128498D01*
X115635966Y-117128502D01*
X115683773Y-117200049D01*
X116113629Y-116770193D01*
X116127259Y-116821060D01*
X116179920Y-116912272D01*
X116254394Y-116986746D01*
X116345606Y-117039407D01*
X116396471Y-117053036D01*
X115966614Y-117482892D01*
X116038166Y-117530701D01*
X116215602Y-117604197D01*
X116215610Y-117604199D01*
X116403966Y-117641665D01*
X116403970Y-117641666D01*
X116596030Y-117641666D01*
X116596033Y-117641665D01*
X116784389Y-117604199D01*
X116784397Y-117604197D01*
X116961834Y-117530700D01*
X116961840Y-117530697D01*
X117033384Y-117482892D01*
X117033384Y-117482891D01*
X116603529Y-117053036D01*
X116654394Y-117039407D01*
X116745606Y-116986746D01*
X116820080Y-116912272D01*
X116872741Y-116821060D01*
X116886370Y-116770194D01*
X117316226Y-117200050D01*
X117364031Y-117128506D01*
X117364034Y-117128500D01*
X117437531Y-116951063D01*
X117437533Y-116951055D01*
X117474999Y-116762699D01*
X117475000Y-116762696D01*
X117475000Y-116570636D01*
X117474999Y-116570632D01*
X117437533Y-116382276D01*
X117437531Y-116382268D01*
X117364035Y-116204832D01*
X117316226Y-116133280D01*
X116886370Y-116563136D01*
X116872741Y-116512272D01*
X116820080Y-116421060D01*
X116745606Y-116346586D01*
X116654394Y-116293925D01*
X116603528Y-116280295D01*
X117033383Y-115850439D01*
X116961836Y-115802632D01*
X116961833Y-115802630D01*
X116784397Y-115729134D01*
X116784389Y-115729132D01*
X116596033Y-115691666D01*
X116403966Y-115691666D01*
X116215610Y-115729132D01*
X116215602Y-115729134D01*
X116038165Y-115802631D01*
X115966615Y-115850439D01*
X115966614Y-115850439D01*
X116396471Y-116280295D01*
X116345606Y-116293925D01*
X116254394Y-116346586D01*
X116179920Y-116421060D01*
X116127259Y-116512272D01*
X116113629Y-116563136D01*
X115683773Y-116133280D01*
X115683773Y-116133281D01*
X115635963Y-116204834D01*
X115614830Y-116255853D01*
X115570989Y-116310256D01*
X115504694Y-116332320D01*
X115436995Y-116315040D01*
X115389385Y-116263902D01*
X115385709Y-116255851D01*
X115364479Y-116204597D01*
X115364478Y-116204595D01*
X115333154Y-116157716D01*
X115257720Y-116044821D01*
X115257717Y-116044817D01*
X115197383Y-115984483D01*
X115197383Y-115984484D01*
X115121845Y-115908946D01*
X115121046Y-115908412D01*
X115116117Y-115903500D01*
X115102077Y-115877893D01*
X115085646Y-115853770D01*
X115085481Y-115847625D01*
X115082526Y-115842235D01*
X115084557Y-115813110D01*
X115083777Y-115783926D01*
X115086961Y-115778667D01*
X115087389Y-115772534D01*
X115104845Y-115749130D01*
X115119966Y-115724158D01*
X115125487Y-115721455D01*
X115129163Y-115716528D01*
X115156502Y-115706276D01*
X115182723Y-115693444D01*
X115193071Y-115692564D01*
X115194585Y-115691997D01*
X115196044Y-115692311D01*
X115203646Y-115691666D01*
X115418054Y-115691666D01*
X115506443Y-115681052D01*
X115647095Y-115625586D01*
X115767564Y-115534230D01*
X115858920Y-115413761D01*
X115914386Y-115273109D01*
X115925000Y-115184719D01*
X115925000Y-114866666D01*
X114150000Y-114866666D01*
X114150000Y-115184719D01*
X114160613Y-115273109D01*
X114216080Y-115413763D01*
X114303761Y-115529387D01*
X114328584Y-115594698D01*
X114314156Y-115663062D01*
X114265059Y-115712773D01*
X114229155Y-115725928D01*
X114215463Y-115728652D01*
X114215452Y-115728655D01*
X114037931Y-115802186D01*
X114037929Y-115802187D01*
X113878155Y-115908945D01*
X113878151Y-115908948D01*
X113742282Y-116044817D01*
X113742279Y-116044821D01*
X113635521Y-116204595D01*
X113614561Y-116255199D01*
X113570720Y-116309602D01*
X113504426Y-116331667D01*
X113436726Y-116314388D01*
X113389116Y-116263250D01*
X113385439Y-116255199D01*
X113364478Y-116204595D01*
X113333154Y-116157716D01*
X113257720Y-116044821D01*
X113257717Y-116044817D01*
X113117538Y-115904638D01*
X113119338Y-115902837D01*
X113086259Y-115854283D01*
X113084383Y-115784439D01*
X113120565Y-115724668D01*
X113183318Y-115693946D01*
X113204255Y-115692166D01*
X113343097Y-115692166D01*
X113343102Y-115692166D01*
X113431564Y-115681543D01*
X113572342Y-115626027D01*
X113692922Y-115534588D01*
X113784361Y-115414008D01*
X113839877Y-115273230D01*
X113850500Y-115184768D01*
X113850500Y-114148564D01*
X113839877Y-114060102D01*
X113797769Y-113953323D01*
X113791487Y-113883736D01*
X113823824Y-113821800D01*
X113884513Y-113787179D01*
X113913123Y-113783833D01*
X114087415Y-113783833D01*
X114154454Y-113803518D01*
X114200209Y-113856322D01*
X114210153Y-113925480D01*
X114202769Y-113953323D01*
X114160614Y-114060219D01*
X114150000Y-114148612D01*
X114150000Y-114466666D01*
X115925000Y-114466666D01*
X115925000Y-114148612D01*
X115914385Y-114060219D01*
X115872231Y-113953323D01*
X115865949Y-113883736D01*
X115898286Y-113821800D01*
X115958974Y-113787179D01*
X115987585Y-113783833D01*
X124859308Y-113783833D01*
X124859309Y-113783833D01*
X124949673Y-113759619D01*
X124973887Y-113753132D01*
X125076614Y-113693822D01*
X126360489Y-112409947D01*
X126419798Y-112307220D01*
X126419799Y-112307219D01*
X126450500Y-112192642D01*
X126450500Y-108207357D01*
X126419799Y-108092780D01*
X126419799Y-108092779D01*
X126417110Y-108088122D01*
X126400500Y-108026126D01*
X126400500Y-107573569D01*
X126400500Y-107573564D01*
X126389877Y-107485102D01*
X126334361Y-107344324D01*
X126334360Y-107344323D01*
X126334360Y-107344322D01*
X126242922Y-107223743D01*
X126122343Y-107132305D01*
X125996109Y-107082525D01*
X125981564Y-107076789D01*
X125981563Y-107076788D01*
X125981561Y-107076788D01*
X125935926Y-107071308D01*
X125893102Y-107066166D01*
X125106898Y-107066166D01*
X125067853Y-107070854D01*
X125018438Y-107076788D01*
X124877656Y-107132305D01*
X124757077Y-107223743D01*
X124665639Y-107344322D01*
X124643935Y-107399360D01*
X124615353Y-107471837D01*
X124572449Y-107526980D01*
X124506541Y-107550173D01*
X124438556Y-107534052D01*
X124390080Y-107483736D01*
X124384648Y-107471844D01*
X124334361Y-107344324D01*
X124334360Y-107344323D01*
X124334360Y-107344322D01*
X124242922Y-107223743D01*
X124122343Y-107132305D01*
X123996109Y-107082525D01*
X123981564Y-107076789D01*
X123981563Y-107076788D01*
X123981561Y-107076788D01*
X123935926Y-107071308D01*
X123893102Y-107066166D01*
X123106898Y-107066166D01*
X123067853Y-107070854D01*
X123018438Y-107076788D01*
X122877656Y-107132305D01*
X122757076Y-107223744D01*
X122706510Y-107290426D01*
X122650318Y-107331949D01*
X122607707Y-107339500D01*
X121734500Y-107339500D01*
X121667461Y-107319815D01*
X121621706Y-107267011D01*
X121610500Y-107215500D01*
X121610500Y-105385379D01*
X121610501Y-105385366D01*
X121610501Y-105267291D01*
X121610501Y-105267290D01*
X121582525Y-105162886D01*
X121543871Y-105095934D01*
X121528486Y-105069286D01*
X121528480Y-105069278D01*
X121164054Y-104704852D01*
X121164046Y-104704846D01*
X121070453Y-104650811D01*
X121070450Y-104650809D01*
X121070447Y-104650808D01*
X120966043Y-104622833D01*
X120966041Y-104622833D01*
X120701397Y-104622833D01*
X120634358Y-104603148D01*
X120613716Y-104586514D01*
X120533138Y-104505936D01*
X120499653Y-104444613D01*
X120504637Y-104374921D01*
X120546509Y-104318988D01*
X120575328Y-104302900D01*
X120622342Y-104284361D01*
X120742922Y-104192922D01*
X120834361Y-104072342D01*
X120889877Y-103931564D01*
X120900500Y-103843102D01*
X120900500Y-102856898D01*
X120889877Y-102768436D01*
X120834361Y-102627658D01*
X120834360Y-102627657D01*
X120834360Y-102627656D01*
X120742922Y-102507077D01*
X120622343Y-102415639D01*
X120481561Y-102360122D01*
X120435926Y-102354642D01*
X120393102Y-102349500D01*
X119606898Y-102349500D01*
X119567853Y-102354188D01*
X119518438Y-102360122D01*
X119377656Y-102415639D01*
X119257077Y-102507077D01*
X119165639Y-102627656D01*
X119154105Y-102656905D01*
X119115353Y-102755171D01*
X119072449Y-102810314D01*
X119006541Y-102833507D01*
X118938556Y-102817386D01*
X118890080Y-102767070D01*
X118884648Y-102755178D01*
X118834361Y-102627658D01*
X118834360Y-102627657D01*
X118834360Y-102627656D01*
X118742922Y-102507077D01*
X118622343Y-102415639D01*
X118481561Y-102360122D01*
X118435926Y-102354642D01*
X118393102Y-102349500D01*
X117606898Y-102349500D01*
X117567853Y-102354188D01*
X117518438Y-102360122D01*
X117377656Y-102415639D01*
X117257077Y-102507077D01*
X117165639Y-102627656D01*
X117110122Y-102768438D01*
X117105094Y-102810314D01*
X117099500Y-102856898D01*
X117099500Y-103843102D01*
X117102309Y-103866492D01*
X117110122Y-103931561D01*
X117110122Y-103931563D01*
X117110123Y-103931564D01*
X117124320Y-103967564D01*
X117165639Y-104072343D01*
X117257077Y-104192922D01*
X117331138Y-104249084D01*
X117372662Y-104305277D01*
X117377213Y-104374998D01*
X117343894Y-104435569D01*
X117192949Y-104586515D01*
X117131629Y-104619999D01*
X117105270Y-104622833D01*
X114470711Y-104622833D01*
X114362624Y-104622833D01*
X114258220Y-104650808D01*
X114258218Y-104650808D01*
X114258218Y-104650809D01*
X114258213Y-104650811D01*
X114164620Y-104704846D01*
X114164612Y-104704852D01*
X113471519Y-105397945D01*
X113471513Y-105397953D01*
X113417478Y-105491546D01*
X113417475Y-105491551D01*
X113417475Y-105491553D01*
X113389500Y-105595957D01*
X113389500Y-105595959D01*
X113389500Y-107393558D01*
X113369815Y-107460597D01*
X113317011Y-107506352D01*
X113247853Y-107516296D01*
X113184297Y-107487271D01*
X113150939Y-107441011D01*
X113120776Y-107368191D01*
X113120771Y-107368182D01*
X113044114Y-107253458D01*
X113044111Y-107253454D01*
X112946545Y-107155888D01*
X112946541Y-107155885D01*
X112831817Y-107079228D01*
X112831804Y-107079221D01*
X112704332Y-107026421D01*
X112704322Y-107026418D01*
X112568995Y-106999500D01*
X112568993Y-106999500D01*
X112431007Y-106999500D01*
X112431005Y-106999500D01*
X112295677Y-107026418D01*
X112295667Y-107026421D01*
X112168195Y-107079221D01*
X112168182Y-107079228D01*
X112053458Y-107155885D01*
X112053454Y-107155888D01*
X111955888Y-107253454D01*
X111955885Y-107253458D01*
X111879228Y-107368182D01*
X111879221Y-107368195D01*
X111826421Y-107495667D01*
X111826418Y-107495677D01*
X111799500Y-107631004D01*
X111799500Y-107631007D01*
X111799500Y-107768993D01*
X111799500Y-107768995D01*
X111799499Y-107768995D01*
X111826418Y-107904322D01*
X111826421Y-107904332D01*
X111879221Y-108031804D01*
X111879228Y-108031817D01*
X111955885Y-108146541D01*
X111955888Y-108146545D01*
X112049662Y-108240319D01*
X112083147Y-108301642D01*
X112078163Y-108371334D01*
X112036291Y-108427267D01*
X111970827Y-108451684D01*
X111961981Y-108452000D01*
X110534500Y-108452000D01*
X110467461Y-108432315D01*
X110421706Y-108379511D01*
X110410500Y-108328000D01*
X110410500Y-106312625D01*
X110410500Y-106312623D01*
X110382525Y-106208219D01*
X110379705Y-106203334D01*
X110328486Y-106114619D01*
X110328483Y-106114615D01*
X110328482Y-106114613D01*
X110252053Y-106038184D01*
X110252051Y-106038183D01*
X110252046Y-106038179D01*
X110158453Y-105984144D01*
X110158450Y-105984142D01*
X110158447Y-105984141D01*
X110054043Y-105956166D01*
X109945957Y-105956166D01*
X109841553Y-105984141D01*
X109841551Y-105984141D01*
X109841551Y-105984142D01*
X109841546Y-105984144D01*
X109747953Y-106038179D01*
X109747945Y-106038185D01*
X109671519Y-106114611D01*
X109671517Y-106114614D01*
X109667742Y-106121153D01*
X109617173Y-106169367D01*
X109548566Y-106182588D01*
X109483702Y-106156619D01*
X109445001Y-106104640D01*
X109443368Y-106100500D01*
X109434361Y-106077658D01*
X109434360Y-106077657D01*
X109434360Y-106077656D01*
X109342922Y-105957077D01*
X109222343Y-105865639D01*
X109184339Y-105850652D01*
X109094826Y-105815353D01*
X109039685Y-105772449D01*
X109016492Y-105706541D01*
X109032612Y-105638557D01*
X109082929Y-105590080D01*
X109094814Y-105584651D01*
X109222342Y-105534361D01*
X109342922Y-105442922D01*
X109434361Y-105322342D01*
X109461307Y-105254009D01*
X109504213Y-105198866D01*
X109570120Y-105175673D01*
X109576662Y-105175500D01*
X111011429Y-105175500D01*
X111078468Y-105195185D01*
X111118816Y-105237500D01*
X111169505Y-105325297D01*
X111258036Y-105413828D01*
X111366464Y-105476428D01*
X111487399Y-105508833D01*
X111487401Y-105508833D01*
X111612599Y-105508833D01*
X111612601Y-105508833D01*
X111733536Y-105476428D01*
X111841964Y-105413828D01*
X111930495Y-105325297D01*
X111993095Y-105216869D01*
X112025500Y-105095934D01*
X112025500Y-104637399D01*
X112025500Y-104113916D01*
X112045185Y-104046877D01*
X112097989Y-104001122D01*
X112167147Y-103991178D01*
X112196950Y-103999354D01*
X112295672Y-104040246D01*
X112295676Y-104040246D01*
X112295677Y-104040247D01*
X112431004Y-104067166D01*
X112431007Y-104067166D01*
X112568995Y-104067166D01*
X112670992Y-104046877D01*
X112704328Y-104040246D01*
X112831811Y-103987441D01*
X112946542Y-103910780D01*
X113044114Y-103813208D01*
X113120775Y-103698477D01*
X113173580Y-103570994D01*
X113200500Y-103435659D01*
X113200500Y-103297673D01*
X113200500Y-103297670D01*
X113173581Y-103162343D01*
X113173580Y-103162342D01*
X113173580Y-103162338D01*
X113173578Y-103162333D01*
X113120778Y-103034861D01*
X113120771Y-103034848D01*
X113044114Y-102920124D01*
X113044111Y-102920120D01*
X112946545Y-102822554D01*
X112946541Y-102822551D01*
X112831817Y-102745894D01*
X112831804Y-102745887D01*
X112704332Y-102693087D01*
X112704322Y-102693084D01*
X112625560Y-102677417D01*
X112587755Y-102663189D01*
X112576872Y-102656906D01*
X112576871Y-102656905D01*
X112536558Y-102646103D01*
X112455935Y-102624500D01*
X112455933Y-102624500D01*
X107540616Y-102624500D01*
X107473577Y-102604815D01*
X107427822Y-102552011D01*
X107417500Y-102515282D01*
X107414877Y-102493438D01*
X107414877Y-102493436D01*
X107359361Y-102352658D01*
X107359360Y-102352657D01*
X107359360Y-102352656D01*
X107267922Y-102232077D01*
X107147343Y-102140639D01*
X107051192Y-102102722D01*
X107006564Y-102085123D01*
X107006563Y-102085122D01*
X107006561Y-102085122D01*
X106960926Y-102079642D01*
X106918102Y-102074500D01*
X106156898Y-102074500D01*
X106117853Y-102079188D01*
X106068438Y-102085122D01*
X105927656Y-102140639D01*
X105807077Y-102232077D01*
X105715639Y-102352656D01*
X105660122Y-102493438D01*
X105654188Y-102542853D01*
X105649500Y-102581898D01*
X105649500Y-103618102D01*
X105653671Y-103652837D01*
X105660122Y-103706561D01*
X105715639Y-103847343D01*
X105807077Y-103967922D01*
X105927656Y-104059360D01*
X105927657Y-104059360D01*
X105927658Y-104059361D01*
X106068436Y-104114877D01*
X106156898Y-104125500D01*
X106156903Y-104125500D01*
X106918097Y-104125500D01*
X106918102Y-104125500D01*
X107006564Y-104114877D01*
X107147342Y-104059361D01*
X107267922Y-103967922D01*
X107326071Y-103891240D01*
X107382263Y-103849718D01*
X107424875Y-103842166D01*
X107494564Y-103842166D01*
X107561603Y-103861851D01*
X107607358Y-103914655D01*
X107617302Y-103983813D01*
X107593368Y-104041091D01*
X107565639Y-104077656D01*
X107510122Y-104218438D01*
X107504188Y-104267853D01*
X107499500Y-104306898D01*
X107499500Y-104306903D01*
X107499500Y-104476478D01*
X107479815Y-104543517D01*
X107437501Y-104583865D01*
X107352686Y-104632833D01*
X107352683Y-104632835D01*
X107099502Y-104886016D01*
X107099500Y-104886019D01*
X107033608Y-105000145D01*
X107022016Y-105043408D01*
X107004817Y-105107595D01*
X106968454Y-105167253D01*
X106905608Y-105197783D01*
X106885044Y-105199500D01*
X102134107Y-105199500D01*
X102069284Y-105216868D01*
X102069285Y-105216869D01*
X102006812Y-105233608D01*
X101892686Y-105299500D01*
X101892683Y-105299502D01*
X101799498Y-105392688D01*
X100811681Y-106380504D01*
X100750358Y-106413989D01*
X100680666Y-106409005D01*
X100624733Y-106367133D01*
X100600316Y-106301669D01*
X100600000Y-106292823D01*
X100600000Y-103618053D01*
X103575000Y-103618053D01*
X103585613Y-103706443D01*
X103641079Y-103847095D01*
X103732435Y-103967564D01*
X103852904Y-104058920D01*
X103993556Y-104114386D01*
X104081946Y-104125000D01*
X104262500Y-104125000D01*
X104662500Y-104125000D01*
X104843054Y-104125000D01*
X104931443Y-104114386D01*
X105072095Y-104058920D01*
X105192564Y-103967564D01*
X105283920Y-103847095D01*
X105339386Y-103706443D01*
X105350000Y-103618053D01*
X105350000Y-103300000D01*
X104662500Y-103300000D01*
X104662500Y-104125000D01*
X104262500Y-104125000D01*
X104262500Y-103300000D01*
X103575000Y-103300000D01*
X103575000Y-103618053D01*
X100600000Y-103618053D01*
X100600000Y-102581946D01*
X103575000Y-102581946D01*
X103575000Y-102900000D01*
X104262500Y-102900000D01*
X104662500Y-102900000D01*
X105350000Y-102900000D01*
X105350000Y-102581946D01*
X105339386Y-102493556D01*
X105283920Y-102352904D01*
X105192564Y-102232435D01*
X105072095Y-102141079D01*
X104931443Y-102085613D01*
X104843054Y-102075000D01*
X104662500Y-102075000D01*
X104662500Y-102900000D01*
X104262500Y-102900000D01*
X104262500Y-102075000D01*
X104081946Y-102075000D01*
X103993556Y-102085613D01*
X103852904Y-102141079D01*
X103732435Y-102232435D01*
X103641079Y-102352904D01*
X103585613Y-102493556D01*
X103575000Y-102581946D01*
X100600000Y-102581946D01*
X100600000Y-101624000D01*
X100619685Y-101556961D01*
X100672489Y-101511206D01*
X100724000Y-101500000D01*
X132876000Y-101500000D01*
X132943039Y-101519685D01*
G37*
%TD.AperFunction*%
%TA.AperFunction,Conductor*%
G36*
X117542352Y-110663518D02*
G01*
X117562994Y-110680152D01*
X118114823Y-111231980D01*
X118107007Y-111234075D01*
X117992993Y-111299901D01*
X117899901Y-111392993D01*
X117834075Y-111507007D01*
X117831980Y-111514823D01*
X117250279Y-110933122D01*
X117250278Y-110933122D01*
X117188141Y-111018648D01*
X117095244Y-111200968D01*
X117032009Y-111395582D01*
X117000000Y-111597682D01*
X117000000Y-111802317D01*
X117032009Y-112004417D01*
X117095244Y-112199031D01*
X117188139Y-112381347D01*
X117250279Y-112466876D01*
X117831980Y-111885176D01*
X117834075Y-111892993D01*
X117899901Y-112007007D01*
X117992993Y-112100099D01*
X118107007Y-112165925D01*
X118114822Y-112168019D01*
X117532897Y-112749943D01*
X117518710Y-112817481D01*
X117469659Y-112867238D01*
X117409456Y-112882833D01*
X114623712Y-112882833D01*
X114556673Y-112863148D01*
X114510918Y-112810344D01*
X114501157Y-112748496D01*
X114500293Y-112748447D01*
X114500497Y-112744885D01*
X114500500Y-112744865D01*
X114500499Y-110767832D01*
X114520184Y-110700794D01*
X114572988Y-110655039D01*
X114624499Y-110643833D01*
X117475313Y-110643833D01*
X117542352Y-110663518D01*
G37*
%TD.AperFunction*%
%TA.AperFunction,Conductor*%
G36*
X119061443Y-103882612D02*
G01*
X119109920Y-103932929D01*
X119115348Y-103944814D01*
X119142166Y-104012819D01*
X119165639Y-104072343D01*
X119257077Y-104192922D01*
X119377656Y-104284360D01*
X119377657Y-104284360D01*
X119377658Y-104284361D01*
X119510991Y-104336941D01*
X119566134Y-104379846D01*
X119589327Y-104445754D01*
X119589500Y-104452295D01*
X119589500Y-104542422D01*
X119569815Y-104609461D01*
X119517011Y-104655216D01*
X119510990Y-104657776D01*
X119427660Y-104690637D01*
X119427658Y-104690638D01*
X119307077Y-104782077D01*
X119215639Y-104902656D01*
X119160122Y-105043438D01*
X119154188Y-105092853D01*
X119149500Y-105131898D01*
X119149500Y-106168102D01*
X119155126Y-106214954D01*
X119160122Y-106256561D01*
X119215639Y-106397343D01*
X119307077Y-106517922D01*
X119427656Y-106609360D01*
X119427657Y-106609360D01*
X119427658Y-106609361D01*
X119568436Y-106664877D01*
X119656898Y-106675500D01*
X119801103Y-106675500D01*
X119868142Y-106695185D01*
X119888784Y-106711819D01*
X120089784Y-106912819D01*
X120123269Y-106974142D01*
X120118285Y-107043834D01*
X120076413Y-107099767D01*
X120010949Y-107124184D01*
X120002103Y-107124500D01*
X119676724Y-107124500D01*
X119645450Y-107127432D01*
X119645448Y-107127432D01*
X119513714Y-107173529D01*
X119513705Y-107173534D01*
X119401411Y-107256410D01*
X119401410Y-107256411D01*
X119318534Y-107368705D01*
X119318529Y-107368714D01*
X119272432Y-107500448D01*
X119272432Y-107500450D01*
X119269500Y-107531723D01*
X119269500Y-107968276D01*
X119272432Y-107999548D01*
X119318531Y-108131289D01*
X119333659Y-108151787D01*
X119357629Y-108217417D01*
X119342313Y-108285587D01*
X119333661Y-108299050D01*
X119318978Y-108318945D01*
X119272930Y-108450544D01*
X119272929Y-108450549D01*
X119270000Y-108481786D01*
X119270000Y-108500000D01*
X121429999Y-108500000D01*
X121429999Y-108481795D01*
X121429903Y-108480771D01*
X121429942Y-108480570D01*
X121429864Y-108478903D01*
X121429999Y-108478896D01*
X121429999Y-108478894D01*
X121430056Y-108478894D01*
X121430270Y-108478883D01*
X121443246Y-108412187D01*
X121465675Y-108381525D01*
X121528482Y-108318719D01*
X121582525Y-108225113D01*
X121584034Y-108222500D01*
X121634601Y-108174285D01*
X121691421Y-108160500D01*
X122475500Y-108160500D01*
X122542539Y-108180185D01*
X122588294Y-108232989D01*
X122599500Y-108284500D01*
X122599500Y-108559768D01*
X122602309Y-108583158D01*
X122610122Y-108648227D01*
X122665639Y-108789009D01*
X122757077Y-108909588D01*
X122877656Y-109001026D01*
X122877657Y-109001026D01*
X122877658Y-109001027D01*
X123018436Y-109056543D01*
X123106898Y-109067166D01*
X123106903Y-109067166D01*
X123893097Y-109067166D01*
X123893102Y-109067166D01*
X123981564Y-109056543D01*
X124122342Y-109001027D01*
X124242922Y-108909588D01*
X124334361Y-108789008D01*
X124384646Y-108661492D01*
X124427551Y-108606351D01*
X124493459Y-108583158D01*
X124561443Y-108599278D01*
X124609920Y-108649595D01*
X124615348Y-108661480D01*
X124650652Y-108751005D01*
X124665639Y-108789009D01*
X124757077Y-108909588D01*
X124877656Y-109001026D01*
X124877657Y-109001026D01*
X124877658Y-109001027D01*
X125018436Y-109056543D01*
X125106898Y-109067166D01*
X125425500Y-109067166D01*
X125492539Y-109086851D01*
X125538294Y-109139655D01*
X125549500Y-109191166D01*
X125549500Y-111895368D01*
X125529815Y-111962407D01*
X125513181Y-111983049D01*
X124649716Y-112846514D01*
X124588393Y-112879999D01*
X124562035Y-112882833D01*
X119190543Y-112882833D01*
X119123504Y-112863148D01*
X119077749Y-112810344D01*
X119067067Y-112749909D01*
X118485177Y-112168019D01*
X118492993Y-112165925D01*
X118607007Y-112100099D01*
X118700099Y-112007007D01*
X118765925Y-111892993D01*
X118768019Y-111885177D01*
X119349718Y-112466877D01*
X119349719Y-112466876D01*
X119411859Y-112381349D01*
X119504755Y-112199031D01*
X119567990Y-112004417D01*
X119600000Y-111802317D01*
X119600000Y-111597682D01*
X119567990Y-111395582D01*
X119504755Y-111200968D01*
X119411858Y-111018649D01*
X119411852Y-111018640D01*
X119349720Y-110933122D01*
X119349719Y-110933121D01*
X118768019Y-111514821D01*
X118765925Y-111507007D01*
X118700099Y-111392993D01*
X118607007Y-111299901D01*
X118492993Y-111234075D01*
X118485176Y-111231980D01*
X119066876Y-110650279D01*
X118981347Y-110588139D01*
X118799031Y-110495244D01*
X118604418Y-110432010D01*
X118570445Y-110426629D01*
X118507311Y-110396699D01*
X118470380Y-110337387D01*
X118471378Y-110267525D01*
X118509989Y-110209292D01*
X118516193Y-110204398D01*
X118598589Y-110143589D01*
X118681469Y-110031289D01*
X118701965Y-109972716D01*
X118727567Y-109899551D01*
X118727567Y-109899549D01*
X118730500Y-109868276D01*
X118730500Y-109431723D01*
X119269500Y-109431723D01*
X119269500Y-109868276D01*
X119272432Y-109899549D01*
X119272432Y-109899551D01*
X119318529Y-110031285D01*
X119318534Y-110031294D01*
X119401410Y-110143588D01*
X119401411Y-110143589D01*
X119513705Y-110226465D01*
X119513707Y-110226466D01*
X119513711Y-110226469D01*
X119513714Y-110226470D01*
X119645449Y-110272567D01*
X119676724Y-110275500D01*
X119676728Y-110275500D01*
X119993603Y-110275500D01*
X120060642Y-110295185D01*
X120081284Y-110311819D01*
X120254851Y-110485386D01*
X120331280Y-110561815D01*
X120331282Y-110561816D01*
X120331286Y-110561819D01*
X120424879Y-110615854D01*
X120424886Y-110615858D01*
X120529290Y-110643833D01*
X120868481Y-110643833D01*
X120935520Y-110663518D01*
X120956162Y-110680152D01*
X121053454Y-110777444D01*
X121053458Y-110777447D01*
X121168182Y-110854104D01*
X121168195Y-110854111D01*
X121295667Y-110906911D01*
X121295672Y-110906913D01*
X121295676Y-110906913D01*
X121295677Y-110906914D01*
X121431004Y-110933833D01*
X121431007Y-110933833D01*
X121568995Y-110933833D01*
X121660041Y-110915722D01*
X121704328Y-110906913D01*
X121831811Y-110854108D01*
X121946542Y-110777447D01*
X122044114Y-110679875D01*
X122120775Y-110565144D01*
X122173580Y-110437661D01*
X122200500Y-110302326D01*
X122200500Y-110164340D01*
X122200500Y-110164337D01*
X122173581Y-110029010D01*
X122173580Y-110029009D01*
X122173580Y-110029005D01*
X122165786Y-110010188D01*
X122120778Y-109901528D01*
X122120771Y-109901515D01*
X122044114Y-109786791D01*
X122044111Y-109786787D01*
X121946545Y-109689221D01*
X121946541Y-109689218D01*
X121831817Y-109612561D01*
X121831804Y-109612554D01*
X121704332Y-109559754D01*
X121704322Y-109559751D01*
X121568995Y-109532833D01*
X121568993Y-109532833D01*
X121552897Y-109532833D01*
X121485858Y-109513148D01*
X121440103Y-109460344D01*
X121436620Y-109451911D01*
X121430500Y-109435391D01*
X121430500Y-109431728D01*
X121427567Y-109400451D01*
X121381469Y-109268711D01*
X121355925Y-109234099D01*
X121349833Y-109217656D01*
X121348580Y-109199590D01*
X121342369Y-109182583D01*
X121346215Y-109165461D01*
X121345002Y-109147954D01*
X121353714Y-109132080D01*
X121357684Y-109114413D01*
X121366342Y-109100941D01*
X121381023Y-109081050D01*
X121427068Y-108949462D01*
X121427070Y-108949450D01*
X121430000Y-108918213D01*
X121430000Y-108900000D01*
X119270001Y-108900000D01*
X119270001Y-108918202D01*
X119272931Y-108949459D01*
X119318977Y-109081051D01*
X119318978Y-109081053D01*
X119333659Y-109100945D01*
X119357629Y-109166575D01*
X119342313Y-109234745D01*
X119333661Y-109248207D01*
X119318531Y-109268708D01*
X119318530Y-109268711D01*
X119272433Y-109400448D01*
X119272432Y-109400450D01*
X119269500Y-109431723D01*
X118730500Y-109431723D01*
X118727567Y-109400450D01*
X118727567Y-109400448D01*
X118681470Y-109268714D01*
X118681469Y-109268711D01*
X118663988Y-109245025D01*
X118598589Y-109156411D01*
X118598588Y-109156410D01*
X118486294Y-109073534D01*
X118486285Y-109073529D01*
X118354550Y-109027432D01*
X118323276Y-109024500D01*
X118323272Y-109024500D01*
X116976728Y-109024500D01*
X116976724Y-109024500D01*
X116945450Y-109027432D01*
X116945448Y-109027432D01*
X116813714Y-109073529D01*
X116813705Y-109073534D01*
X116701411Y-109156410D01*
X116701410Y-109156411D01*
X116618534Y-109268705D01*
X116618529Y-109268714D01*
X116572432Y-109400448D01*
X116572432Y-109400450D01*
X116569500Y-109431723D01*
X116569500Y-109698833D01*
X116549815Y-109765872D01*
X116497011Y-109811627D01*
X116445500Y-109822833D01*
X114334500Y-109822833D01*
X114267461Y-109803148D01*
X114221706Y-109750344D01*
X114210500Y-109698833D01*
X114210500Y-107435661D01*
X115799499Y-107435661D01*
X115826418Y-107570988D01*
X115826421Y-107570998D01*
X115879221Y-107698470D01*
X115879228Y-107698483D01*
X115955885Y-107813207D01*
X115955888Y-107813211D01*
X116012921Y-107870244D01*
X116045014Y-107925828D01*
X116056904Y-107970200D01*
X116056905Y-107970202D01*
X116119505Y-108078630D01*
X116399505Y-108358630D01*
X116488036Y-108447161D01*
X116596464Y-108509761D01*
X116717399Y-108542166D01*
X116717401Y-108542166D01*
X117585933Y-108542166D01*
X117585935Y-108542166D01*
X117706870Y-108509761D01*
X117815298Y-108447161D01*
X117850640Y-108411819D01*
X117911963Y-108378334D01*
X117938321Y-108375500D01*
X118323276Y-108375500D01*
X118354549Y-108372567D01*
X118354551Y-108372567D01*
X118438399Y-108343226D01*
X118486289Y-108326469D01*
X118598589Y-108243589D01*
X118681469Y-108131289D01*
X118716278Y-108031811D01*
X118727567Y-107999551D01*
X118727567Y-107999549D01*
X118730500Y-107968276D01*
X118730500Y-107531723D01*
X118727567Y-107500450D01*
X118727567Y-107500448D01*
X118681470Y-107368714D01*
X118681469Y-107368711D01*
X118681088Y-107368195D01*
X118598589Y-107256411D01*
X118598588Y-107256410D01*
X118486294Y-107173534D01*
X118486285Y-107173529D01*
X118354550Y-107127432D01*
X118323276Y-107124500D01*
X118323272Y-107124500D01*
X117240761Y-107124500D01*
X117173722Y-107104815D01*
X117127967Y-107052011D01*
X117126199Y-107047950D01*
X117120776Y-107034858D01*
X117120775Y-107034855D01*
X117120773Y-107034852D01*
X117120771Y-107034848D01*
X117044114Y-106920124D01*
X117044111Y-106920120D01*
X116946545Y-106822554D01*
X116946541Y-106822551D01*
X116831817Y-106745894D01*
X116831804Y-106745887D01*
X116704332Y-106693087D01*
X116704322Y-106693084D01*
X116568995Y-106666166D01*
X116568993Y-106666166D01*
X116431007Y-106666166D01*
X116431005Y-106666166D01*
X116295677Y-106693084D01*
X116295667Y-106693087D01*
X116168195Y-106745887D01*
X116168182Y-106745894D01*
X116053458Y-106822551D01*
X116053454Y-106822554D01*
X115955888Y-106920120D01*
X115955885Y-106920124D01*
X115879228Y-107034848D01*
X115879221Y-107034861D01*
X115826421Y-107162333D01*
X115826418Y-107162343D01*
X115799500Y-107297670D01*
X115799500Y-107297673D01*
X115799500Y-107435659D01*
X115799500Y-107435661D01*
X115799499Y-107435661D01*
X114210500Y-107435661D01*
X114210500Y-106184500D01*
X114230185Y-106117461D01*
X114282989Y-106071706D01*
X114334500Y-106060500D01*
X116951579Y-106060500D01*
X117018618Y-106080185D01*
X117064373Y-106132989D01*
X117074693Y-106169710D01*
X117080544Y-106218436D01*
X117085122Y-106256561D01*
X117140639Y-106397343D01*
X117232077Y-106517922D01*
X117352656Y-106609360D01*
X117352657Y-106609360D01*
X117352658Y-106609361D01*
X117493436Y-106664877D01*
X117581898Y-106675500D01*
X117581903Y-106675500D01*
X118343097Y-106675500D01*
X118343102Y-106675500D01*
X118431564Y-106664877D01*
X118572342Y-106609361D01*
X118692922Y-106517922D01*
X118784361Y-106397342D01*
X118839877Y-106256564D01*
X118850500Y-106168102D01*
X118850500Y-105131898D01*
X118839877Y-105043436D01*
X118784361Y-104902658D01*
X118784360Y-104902657D01*
X118784360Y-104902656D01*
X118692922Y-104782077D01*
X118572341Y-104690638D01*
X118572339Y-104690637D01*
X118461854Y-104647067D01*
X118406710Y-104604161D01*
X118383517Y-104538254D01*
X118387568Y-104499624D01*
X118408156Y-104422788D01*
X118444520Y-104363131D01*
X118482435Y-104339533D01*
X118622342Y-104284361D01*
X118742922Y-104192922D01*
X118834361Y-104072342D01*
X118884646Y-103944826D01*
X118927551Y-103889685D01*
X118993459Y-103866492D01*
X119061443Y-103882612D01*
G37*
%TD.AperFunction*%
%TD*%
M02*
