M48
; DRILL file KiCad 10.0.6 date 2026-10-02T11:36:24
; FORMAT={-:-/ absolute / metric / decimal}
; #@! TF.CreationDate,2026-10-02T11:36:24+07:00
; #@! TF.GenerationSoftware,Kicad,Pcbnew,10.0.6
; #@! TF.FileFunction,Plated,1,2,PTH
FMAT,2
METRIC
; #@! TA.AperFunction,Plated,PTH,ViaDrill
T1C0.300
; #@! TA.AperFunction,Plated,PTH,ViaDrill
T2C0.400
; #@! TA.AperFunction,Plated,PTH,ComponentDrill
T3C0.800
; #@! TA.AperFunction,Plated,PTH,ComponentDrill
T4C1.000
%
G90
G05
T1
X103.5Y-103.7
X103.5Y-111.7
X166.5Y-103.7
X166.5Y-111.7
T2
X108.0Y-115.333
X112.5Y-103.367
X112.5Y-107.7
X116.5Y-107.367
X121.5Y-110.233
X148.5Y-107.367
X153.5Y-110.367
X153.5Y-114.667
X155.0Y-105.2
X157.5Y-103.367
X157.5Y-106.7
X162.0Y-115.333
T3
X110.5Y-116.667
X112.5Y-116.667
X114.5Y-116.667
X116.5Y-116.667
X153.5Y-116.667
X155.5Y-116.667
X157.5Y-116.667
X159.5Y-116.667
T4
X113.2Y-111.7
X118.3Y-111.7
X122.0Y-116.667
X124.54Y-116.667
X127.08Y-116.667
X129.62Y-116.667
X151.7Y-111.7
X156.8Y-111.7
M30
