%TF.GenerationSoftware,KiCad,Pcbnew,10.0.6*%
%TF.CreationDate,2026-10-02T11:36:23+07:00*%
%TF.ProjectId,bpw34_receiver,62707733-345f-4726-9563-65697665722e,rev?*%
%TF.SameCoordinates,Original*%
%TF.FileFunction,Legend,Bot*%
%TF.FilePolarity,Positive*%
%FSLAX46Y46*%
G04 Gerber Fmt 4.6, Leading zero omitted, Abs format (unit mm)*
G04 Created by KiCad (PCBNEW 10.0.6) date 2026-10-02 11:36:23*
%MOMM*%
%LPD*%
G01*
G04 APERTURE LIST*
%ADD10C,0.100000*%
%ADD11C,0.120000*%
G04 APERTURE END LIST*
D10*
X110252380Y-118764895D02*
X110519047Y-118383942D01*
X110709523Y-118764895D02*
X110709523Y-117964895D01*
X110709523Y-117964895D02*
X110404761Y-117964895D01*
X110404761Y-117964895D02*
X110328571Y-118002990D01*
X110328571Y-118002990D02*
X110290476Y-118041085D01*
X110290476Y-118041085D02*
X110252380Y-118117276D01*
X110252380Y-118117276D02*
X110252380Y-118231561D01*
X110252380Y-118231561D02*
X110290476Y-118307752D01*
X110290476Y-118307752D02*
X110328571Y-118345847D01*
X110328571Y-118345847D02*
X110404761Y-118383942D01*
X110404761Y-118383942D02*
X110709523Y-118383942D01*
X111409523Y-112064895D02*
X111409523Y-111264895D01*
X110952380Y-112064895D02*
X111295238Y-111607752D01*
X110952380Y-111264895D02*
X111409523Y-111722038D01*
X113128570Y-118764895D02*
X113128570Y-117964895D01*
X113128570Y-117964895D02*
X112671427Y-118764895D01*
X112671427Y-118764895D02*
X112671427Y-117964895D01*
X111833332Y-118688704D02*
X111871428Y-118726800D01*
X111871428Y-118726800D02*
X111985713Y-118764895D01*
X111985713Y-118764895D02*
X112061904Y-118764895D01*
X112061904Y-118764895D02*
X112176190Y-118726800D01*
X112176190Y-118726800D02*
X112252380Y-118650609D01*
X112252380Y-118650609D02*
X112290475Y-118574419D01*
X112290475Y-118574419D02*
X112328571Y-118422038D01*
X112328571Y-118422038D02*
X112328571Y-118307752D01*
X112328571Y-118307752D02*
X112290475Y-118155371D01*
X112290475Y-118155371D02*
X112252380Y-118079180D01*
X112252380Y-118079180D02*
X112176190Y-118002990D01*
X112176190Y-118002990D02*
X112061904Y-117964895D01*
X112061904Y-117964895D02*
X111985713Y-117964895D01*
X111985713Y-117964895D02*
X111871428Y-118002990D01*
X111871428Y-118002990D02*
X111833332Y-118041085D01*
X114766666Y-117964895D02*
X114499999Y-118764895D01*
X114499999Y-118764895D02*
X114233333Y-117964895D01*
X116690476Y-118002990D02*
X116766666Y-117964895D01*
X116766666Y-117964895D02*
X116880952Y-117964895D01*
X116880952Y-117964895D02*
X116995238Y-118002990D01*
X116995238Y-118002990D02*
X117071428Y-118079180D01*
X117071428Y-118079180D02*
X117109523Y-118155371D01*
X117109523Y-118155371D02*
X117147619Y-118307752D01*
X117147619Y-118307752D02*
X117147619Y-118422038D01*
X117147619Y-118422038D02*
X117109523Y-118574419D01*
X117109523Y-118574419D02*
X117071428Y-118650609D01*
X117071428Y-118650609D02*
X116995238Y-118726800D01*
X116995238Y-118726800D02*
X116880952Y-118764895D01*
X116880952Y-118764895D02*
X116804761Y-118764895D01*
X116804761Y-118764895D02*
X116690476Y-118726800D01*
X116690476Y-118726800D02*
X116652380Y-118688704D01*
X116652380Y-118688704D02*
X116652380Y-118422038D01*
X116652380Y-118422038D02*
X116804761Y-118422038D01*
X115852380Y-118764895D02*
X116119047Y-118383942D01*
X116309523Y-118764895D02*
X116309523Y-117964895D01*
X116309523Y-117964895D02*
X116004761Y-117964895D01*
X116004761Y-117964895D02*
X115928571Y-118002990D01*
X115928571Y-118002990D02*
X115890476Y-118041085D01*
X115890476Y-118041085D02*
X115852380Y-118117276D01*
X115852380Y-118117276D02*
X115852380Y-118231561D01*
X115852380Y-118231561D02*
X115890476Y-118307752D01*
X115890476Y-118307752D02*
X115928571Y-118345847D01*
X115928571Y-118345847D02*
X116004761Y-118383942D01*
X116004761Y-118383942D02*
X116309523Y-118383942D01*
X120490476Y-111836323D02*
X120109523Y-111836323D01*
X120566666Y-112064895D02*
X120299999Y-111264895D01*
X120299999Y-111264895D02*
X120033333Y-112064895D01*
X121752380Y-118764895D02*
X122019047Y-118383942D01*
X122209523Y-118764895D02*
X122209523Y-117964895D01*
X122209523Y-117964895D02*
X121904761Y-117964895D01*
X121904761Y-117964895D02*
X121828571Y-118002990D01*
X121828571Y-118002990D02*
X121790476Y-118041085D01*
X121790476Y-118041085D02*
X121752380Y-118117276D01*
X121752380Y-118117276D02*
X121752380Y-118231561D01*
X121752380Y-118231561D02*
X121790476Y-118307752D01*
X121790476Y-118307752D02*
X121828571Y-118345847D01*
X121828571Y-118345847D02*
X121904761Y-118383942D01*
X121904761Y-118383942D02*
X122209523Y-118383942D01*
X124730476Y-118002990D02*
X124806666Y-117964895D01*
X124806666Y-117964895D02*
X124920952Y-117964895D01*
X124920952Y-117964895D02*
X125035238Y-118002990D01*
X125035238Y-118002990D02*
X125111428Y-118079180D01*
X125111428Y-118079180D02*
X125149523Y-118155371D01*
X125149523Y-118155371D02*
X125187619Y-118307752D01*
X125187619Y-118307752D02*
X125187619Y-118422038D01*
X125187619Y-118422038D02*
X125149523Y-118574419D01*
X125149523Y-118574419D02*
X125111428Y-118650609D01*
X125111428Y-118650609D02*
X125035238Y-118726800D01*
X125035238Y-118726800D02*
X124920952Y-118764895D01*
X124920952Y-118764895D02*
X124844761Y-118764895D01*
X124844761Y-118764895D02*
X124730476Y-118726800D01*
X124730476Y-118726800D02*
X124692380Y-118688704D01*
X124692380Y-118688704D02*
X124692380Y-118422038D01*
X124692380Y-118422038D02*
X124844761Y-118422038D01*
X123892380Y-118764895D02*
X124159047Y-118383942D01*
X124349523Y-118764895D02*
X124349523Y-117964895D01*
X124349523Y-117964895D02*
X124044761Y-117964895D01*
X124044761Y-117964895D02*
X123968571Y-118002990D01*
X123968571Y-118002990D02*
X123930476Y-118041085D01*
X123930476Y-118041085D02*
X123892380Y-118117276D01*
X123892380Y-118117276D02*
X123892380Y-118231561D01*
X123892380Y-118231561D02*
X123930476Y-118307752D01*
X123930476Y-118307752D02*
X123968571Y-118345847D01*
X123968571Y-118345847D02*
X124044761Y-118383942D01*
X124044761Y-118383942D02*
X124349523Y-118383942D01*
X127079999Y-118764895D02*
X127079999Y-117964895D01*
X129600952Y-118002990D02*
X129677142Y-117964895D01*
X129677142Y-117964895D02*
X129791428Y-117964895D01*
X129791428Y-117964895D02*
X129905714Y-118002990D01*
X129905714Y-118002990D02*
X129981904Y-118079180D01*
X129981904Y-118079180D02*
X130019999Y-118155371D01*
X130019999Y-118155371D02*
X130058095Y-118307752D01*
X130058095Y-118307752D02*
X130058095Y-118422038D01*
X130058095Y-118422038D02*
X130019999Y-118574419D01*
X130019999Y-118574419D02*
X129981904Y-118650609D01*
X129981904Y-118650609D02*
X129905714Y-118726800D01*
X129905714Y-118726800D02*
X129791428Y-118764895D01*
X129791428Y-118764895D02*
X129715237Y-118764895D01*
X129715237Y-118764895D02*
X129600952Y-118726800D01*
X129600952Y-118726800D02*
X129562856Y-118688704D01*
X129562856Y-118688704D02*
X129562856Y-118422038D01*
X129562856Y-118422038D02*
X129715237Y-118422038D01*
X129219999Y-118764895D02*
X129219999Y-117964895D01*
X141342857Y-102364895D02*
X141342857Y-101564895D01*
X141342857Y-101564895D02*
X141152381Y-101564895D01*
X141152381Y-101564895D02*
X141038095Y-101602990D01*
X141038095Y-101602990D02*
X140961905Y-101679180D01*
X140961905Y-101679180D02*
X140923810Y-101755371D01*
X140923810Y-101755371D02*
X140885714Y-101907752D01*
X140885714Y-101907752D02*
X140885714Y-102022038D01*
X140885714Y-102022038D02*
X140923810Y-102174419D01*
X140923810Y-102174419D02*
X140961905Y-102250609D01*
X140961905Y-102250609D02*
X141038095Y-102326800D01*
X141038095Y-102326800D02*
X141152381Y-102364895D01*
X141152381Y-102364895D02*
X141342857Y-102364895D01*
X140580953Y-102136323D02*
X140200000Y-102136323D01*
X140657143Y-102364895D02*
X140390476Y-101564895D01*
X140390476Y-101564895D02*
X140123810Y-102364895D01*
X139971429Y-101564895D02*
X139514286Y-101564895D01*
X139742858Y-102364895D02*
X139742858Y-101564895D01*
X139247619Y-102364895D02*
X139247619Y-101564895D01*
X139247619Y-101564895D02*
X138790476Y-102364895D01*
X138790476Y-102364895D02*
X138790476Y-101564895D01*
X138409524Y-102288704D02*
X138371429Y-102326800D01*
X138371429Y-102326800D02*
X138409524Y-102364895D01*
X138409524Y-102364895D02*
X138447620Y-102326800D01*
X138447620Y-102326800D02*
X138409524Y-102288704D01*
X138409524Y-102288704D02*
X138409524Y-102364895D01*
X138409524Y-101869657D02*
X138371429Y-101907752D01*
X138371429Y-101907752D02*
X138409524Y-101945847D01*
X138409524Y-101945847D02*
X138447620Y-101907752D01*
X138447620Y-101907752D02*
X138409524Y-101869657D01*
X138409524Y-101869657D02*
X138409524Y-101945847D01*
X137419048Y-102364895D02*
X137419048Y-101564895D01*
X137419048Y-101564895D02*
X137114286Y-101564895D01*
X137114286Y-101564895D02*
X137038096Y-101602990D01*
X137038096Y-101602990D02*
X137000001Y-101641085D01*
X137000001Y-101641085D02*
X136961905Y-101717276D01*
X136961905Y-101717276D02*
X136961905Y-101831561D01*
X136961905Y-101831561D02*
X137000001Y-101907752D01*
X137000001Y-101907752D02*
X137038096Y-101945847D01*
X137038096Y-101945847D02*
X137114286Y-101983942D01*
X137114286Y-101983942D02*
X137419048Y-101983942D01*
X136619048Y-102364895D02*
X136619048Y-101564895D01*
X136619048Y-101564895D02*
X136314286Y-101564895D01*
X136314286Y-101564895D02*
X136238096Y-101602990D01*
X136238096Y-101602990D02*
X136200001Y-101641085D01*
X136200001Y-101641085D02*
X136161905Y-101717276D01*
X136161905Y-101717276D02*
X136161905Y-101831561D01*
X136161905Y-101831561D02*
X136200001Y-101907752D01*
X136200001Y-101907752D02*
X136238096Y-101945847D01*
X136238096Y-101945847D02*
X136314286Y-101983942D01*
X136314286Y-101983942D02*
X136619048Y-101983942D01*
X135400001Y-101602990D02*
X135476191Y-101564895D01*
X135476191Y-101564895D02*
X135590477Y-101564895D01*
X135590477Y-101564895D02*
X135704763Y-101602990D01*
X135704763Y-101602990D02*
X135780953Y-101679180D01*
X135780953Y-101679180D02*
X135819048Y-101755371D01*
X135819048Y-101755371D02*
X135857144Y-101907752D01*
X135857144Y-101907752D02*
X135857144Y-102022038D01*
X135857144Y-102022038D02*
X135819048Y-102174419D01*
X135819048Y-102174419D02*
X135780953Y-102250609D01*
X135780953Y-102250609D02*
X135704763Y-102326800D01*
X135704763Y-102326800D02*
X135590477Y-102364895D01*
X135590477Y-102364895D02*
X135514286Y-102364895D01*
X135514286Y-102364895D02*
X135400001Y-102326800D01*
X135400001Y-102326800D02*
X135361905Y-102288704D01*
X135361905Y-102288704D02*
X135361905Y-102022038D01*
X135361905Y-102022038D02*
X135514286Y-102022038D01*
X135019048Y-102060133D02*
X134409525Y-102060133D01*
X134066668Y-102326800D02*
X133952382Y-102364895D01*
X133952382Y-102364895D02*
X133761906Y-102364895D01*
X133761906Y-102364895D02*
X133685715Y-102326800D01*
X133685715Y-102326800D02*
X133647620Y-102288704D01*
X133647620Y-102288704D02*
X133609525Y-102212514D01*
X133609525Y-102212514D02*
X133609525Y-102136323D01*
X133609525Y-102136323D02*
X133647620Y-102060133D01*
X133647620Y-102060133D02*
X133685715Y-102022038D01*
X133685715Y-102022038D02*
X133761906Y-101983942D01*
X133761906Y-101983942D02*
X133914287Y-101945847D01*
X133914287Y-101945847D02*
X133990477Y-101907752D01*
X133990477Y-101907752D02*
X134028572Y-101869657D01*
X134028572Y-101869657D02*
X134066668Y-101793466D01*
X134066668Y-101793466D02*
X134066668Y-101717276D01*
X134066668Y-101717276D02*
X134028572Y-101641085D01*
X134028572Y-101641085D02*
X133990477Y-101602990D01*
X133990477Y-101602990D02*
X133914287Y-101564895D01*
X133914287Y-101564895D02*
X133723810Y-101564895D01*
X133723810Y-101564895D02*
X133609525Y-101602990D01*
X133266667Y-102364895D02*
X133266667Y-101831561D01*
X133266667Y-101564895D02*
X133304763Y-101602990D01*
X133304763Y-101602990D02*
X133266667Y-101641085D01*
X133266667Y-101641085D02*
X133228572Y-101602990D01*
X133228572Y-101602990D02*
X133266667Y-101564895D01*
X133266667Y-101564895D02*
X133266667Y-101641085D01*
X132885715Y-102364895D02*
X132885715Y-101831561D01*
X132885715Y-101907752D02*
X132847620Y-101869657D01*
X132847620Y-101869657D02*
X132771430Y-101831561D01*
X132771430Y-101831561D02*
X132657144Y-101831561D01*
X132657144Y-101831561D02*
X132580953Y-101869657D01*
X132580953Y-101869657D02*
X132542858Y-101945847D01*
X132542858Y-101945847D02*
X132542858Y-102364895D01*
X132542858Y-101945847D02*
X132504763Y-101869657D01*
X132504763Y-101869657D02*
X132428572Y-101831561D01*
X132428572Y-101831561D02*
X132314287Y-101831561D01*
X132314287Y-101831561D02*
X132238096Y-101869657D01*
X132238096Y-101869657D02*
X132200001Y-101945847D01*
X132200001Y-101945847D02*
X132200001Y-102364895D01*
X131476191Y-101831561D02*
X131476191Y-102364895D01*
X131819048Y-101831561D02*
X131819048Y-102250609D01*
X131819048Y-102250609D02*
X131780953Y-102326800D01*
X131780953Y-102326800D02*
X131704763Y-102364895D01*
X131704763Y-102364895D02*
X131590477Y-102364895D01*
X131590477Y-102364895D02*
X131514286Y-102326800D01*
X131514286Y-102326800D02*
X131476191Y-102288704D01*
X130980953Y-102364895D02*
X131057143Y-102326800D01*
X131057143Y-102326800D02*
X131095238Y-102250609D01*
X131095238Y-102250609D02*
X131095238Y-101564895D01*
X130333333Y-102364895D02*
X130333333Y-101945847D01*
X130333333Y-101945847D02*
X130371428Y-101869657D01*
X130371428Y-101869657D02*
X130447619Y-101831561D01*
X130447619Y-101831561D02*
X130600000Y-101831561D01*
X130600000Y-101831561D02*
X130676190Y-101869657D01*
X130333333Y-102326800D02*
X130409524Y-102364895D01*
X130409524Y-102364895D02*
X130600000Y-102364895D01*
X130600000Y-102364895D02*
X130676190Y-102326800D01*
X130676190Y-102326800D02*
X130714286Y-102250609D01*
X130714286Y-102250609D02*
X130714286Y-102174419D01*
X130714286Y-102174419D02*
X130676190Y-102098228D01*
X130676190Y-102098228D02*
X130600000Y-102060133D01*
X130600000Y-102060133D02*
X130409524Y-102060133D01*
X130409524Y-102060133D02*
X130333333Y-102022038D01*
X130066666Y-101831561D02*
X129761904Y-101831561D01*
X129952380Y-101564895D02*
X129952380Y-102250609D01*
X129952380Y-102250609D02*
X129914285Y-102326800D01*
X129914285Y-102326800D02*
X129838095Y-102364895D01*
X129838095Y-102364895D02*
X129761904Y-102364895D01*
X129380952Y-102364895D02*
X129457142Y-102326800D01*
X129457142Y-102326800D02*
X129495237Y-102288704D01*
X129495237Y-102288704D02*
X129533333Y-102212514D01*
X129533333Y-102212514D02*
X129533333Y-101983942D01*
X129533333Y-101983942D02*
X129495237Y-101907752D01*
X129495237Y-101907752D02*
X129457142Y-101869657D01*
X129457142Y-101869657D02*
X129380952Y-101831561D01*
X129380952Y-101831561D02*
X129266666Y-101831561D01*
X129266666Y-101831561D02*
X129190475Y-101869657D01*
X129190475Y-101869657D02*
X129152380Y-101907752D01*
X129152380Y-101907752D02*
X129114285Y-101983942D01*
X129114285Y-101983942D02*
X129114285Y-102212514D01*
X129114285Y-102212514D02*
X129152380Y-102288704D01*
X129152380Y-102288704D02*
X129190475Y-102326800D01*
X129190475Y-102326800D02*
X129266666Y-102364895D01*
X129266666Y-102364895D02*
X129380952Y-102364895D01*
X128771427Y-102364895D02*
X128771427Y-101831561D01*
X128771427Y-101983942D02*
X128733332Y-101907752D01*
X128733332Y-101907752D02*
X128695237Y-101869657D01*
X128695237Y-101869657D02*
X128619046Y-101831561D01*
X128619046Y-101831561D02*
X128542856Y-101831561D01*
X145800002Y-103964895D02*
X145800002Y-103164895D01*
X145800002Y-103164895D02*
X145342859Y-103964895D01*
X145342859Y-103964895D02*
X145342859Y-103164895D01*
X144619050Y-103431561D02*
X144619050Y-104079180D01*
X144619050Y-104079180D02*
X144657145Y-104155371D01*
X144657145Y-104155371D02*
X144695241Y-104193466D01*
X144695241Y-104193466D02*
X144771431Y-104231561D01*
X144771431Y-104231561D02*
X144885717Y-104231561D01*
X144885717Y-104231561D02*
X144961907Y-104193466D01*
X144619050Y-103926800D02*
X144695241Y-103964895D01*
X144695241Y-103964895D02*
X144847622Y-103964895D01*
X144847622Y-103964895D02*
X144923812Y-103926800D01*
X144923812Y-103926800D02*
X144961907Y-103888704D01*
X144961907Y-103888704D02*
X145000003Y-103812514D01*
X145000003Y-103812514D02*
X145000003Y-103583942D01*
X145000003Y-103583942D02*
X144961907Y-103507752D01*
X144961907Y-103507752D02*
X144923812Y-103469657D01*
X144923812Y-103469657D02*
X144847622Y-103431561D01*
X144847622Y-103431561D02*
X144695241Y-103431561D01*
X144695241Y-103431561D02*
X144619050Y-103469657D01*
X143895240Y-103431561D02*
X143895240Y-103964895D01*
X144238097Y-103431561D02*
X144238097Y-103850609D01*
X144238097Y-103850609D02*
X144200002Y-103926800D01*
X144200002Y-103926800D02*
X144123812Y-103964895D01*
X144123812Y-103964895D02*
X144009526Y-103964895D01*
X144009526Y-103964895D02*
X143933335Y-103926800D01*
X143933335Y-103926800D02*
X143895240Y-103888704D01*
X143590478Y-103431561D02*
X143400002Y-103964895D01*
X143209525Y-103431561D02*
X143400002Y-103964895D01*
X143400002Y-103964895D02*
X143476192Y-104155371D01*
X143476192Y-104155371D02*
X143514287Y-104193466D01*
X143514287Y-104193466D02*
X143590478Y-104231561D01*
X142600001Y-103926800D02*
X142676192Y-103964895D01*
X142676192Y-103964895D02*
X142828573Y-103964895D01*
X142828573Y-103964895D02*
X142904763Y-103926800D01*
X142904763Y-103926800D02*
X142942859Y-103850609D01*
X142942859Y-103850609D02*
X142942859Y-103545847D01*
X142942859Y-103545847D02*
X142904763Y-103469657D01*
X142904763Y-103469657D02*
X142828573Y-103431561D01*
X142828573Y-103431561D02*
X142676192Y-103431561D01*
X142676192Y-103431561D02*
X142600001Y-103469657D01*
X142600001Y-103469657D02*
X142561906Y-103545847D01*
X142561906Y-103545847D02*
X142561906Y-103622038D01*
X142561906Y-103622038D02*
X142942859Y-103698228D01*
X142219049Y-103431561D02*
X142219049Y-103964895D01*
X142219049Y-103507752D02*
X142180954Y-103469657D01*
X142180954Y-103469657D02*
X142104764Y-103431561D01*
X142104764Y-103431561D02*
X141990478Y-103431561D01*
X141990478Y-103431561D02*
X141914287Y-103469657D01*
X141914287Y-103469657D02*
X141876192Y-103545847D01*
X141876192Y-103545847D02*
X141876192Y-103964895D01*
X140885715Y-103964895D02*
X140885715Y-103164895D01*
X140885715Y-103164895D02*
X140428572Y-103964895D01*
X140428572Y-103964895D02*
X140428572Y-103164895D01*
X140047620Y-103964895D02*
X140047620Y-103164895D01*
X139704763Y-103964895D02*
X139704763Y-103545847D01*
X139704763Y-103545847D02*
X139742858Y-103469657D01*
X139742858Y-103469657D02*
X139819049Y-103431561D01*
X139819049Y-103431561D02*
X139933335Y-103431561D01*
X139933335Y-103431561D02*
X140009525Y-103469657D01*
X140009525Y-103469657D02*
X140047620Y-103507752D01*
X138980953Y-103964895D02*
X138980953Y-103545847D01*
X138980953Y-103545847D02*
X139019048Y-103469657D01*
X139019048Y-103469657D02*
X139095239Y-103431561D01*
X139095239Y-103431561D02*
X139247620Y-103431561D01*
X139247620Y-103431561D02*
X139323810Y-103469657D01*
X138980953Y-103926800D02*
X139057144Y-103964895D01*
X139057144Y-103964895D02*
X139247620Y-103964895D01*
X139247620Y-103964895D02*
X139323810Y-103926800D01*
X139323810Y-103926800D02*
X139361906Y-103850609D01*
X139361906Y-103850609D02*
X139361906Y-103774419D01*
X139361906Y-103774419D02*
X139323810Y-103698228D01*
X139323810Y-103698228D02*
X139247620Y-103660133D01*
X139247620Y-103660133D02*
X139057144Y-103660133D01*
X139057144Y-103660133D02*
X138980953Y-103622038D01*
X138714286Y-103431561D02*
X138409524Y-103431561D01*
X138600000Y-103164895D02*
X138600000Y-103850609D01*
X138600000Y-103850609D02*
X138561905Y-103926800D01*
X138561905Y-103926800D02*
X138485715Y-103964895D01*
X138485715Y-103964895D02*
X138409524Y-103964895D01*
X137533333Y-103964895D02*
X137533333Y-103164895D01*
X137533333Y-103545847D02*
X137076190Y-103545847D01*
X137076190Y-103964895D02*
X137076190Y-103164895D01*
X136352381Y-103431561D02*
X136352381Y-103964895D01*
X136695238Y-103431561D02*
X136695238Y-103850609D01*
X136695238Y-103850609D02*
X136657143Y-103926800D01*
X136657143Y-103926800D02*
X136580953Y-103964895D01*
X136580953Y-103964895D02*
X136466667Y-103964895D01*
X136466667Y-103964895D02*
X136390476Y-103926800D01*
X136390476Y-103926800D02*
X136352381Y-103888704D01*
X136047619Y-103431561D02*
X135857143Y-103964895D01*
X135666666Y-103431561D02*
X135857143Y-103964895D01*
X135857143Y-103964895D02*
X135933333Y-104155371D01*
X135933333Y-104155371D02*
X135971428Y-104193466D01*
X135971428Y-104193466D02*
X136047619Y-104231561D01*
X134752380Y-103660133D02*
X134142857Y-103660133D01*
X133152380Y-103964895D02*
X133152380Y-103164895D01*
X133152380Y-103164895D02*
X132847618Y-103164895D01*
X132847618Y-103164895D02*
X132771428Y-103202990D01*
X132771428Y-103202990D02*
X132733333Y-103241085D01*
X132733333Y-103241085D02*
X132695237Y-103317276D01*
X132695237Y-103317276D02*
X132695237Y-103431561D01*
X132695237Y-103431561D02*
X132733333Y-103507752D01*
X132733333Y-103507752D02*
X132771428Y-103545847D01*
X132771428Y-103545847D02*
X132847618Y-103583942D01*
X132847618Y-103583942D02*
X133152380Y-103583942D01*
X132352380Y-103964895D02*
X132352380Y-103164895D01*
X132009523Y-103964895D02*
X132009523Y-103545847D01*
X132009523Y-103545847D02*
X132047618Y-103469657D01*
X132047618Y-103469657D02*
X132123809Y-103431561D01*
X132123809Y-103431561D02*
X132238095Y-103431561D01*
X132238095Y-103431561D02*
X132314285Y-103469657D01*
X132314285Y-103469657D02*
X132352380Y-103507752D01*
X131285713Y-103964895D02*
X131285713Y-103545847D01*
X131285713Y-103545847D02*
X131323808Y-103469657D01*
X131323808Y-103469657D02*
X131399999Y-103431561D01*
X131399999Y-103431561D02*
X131552380Y-103431561D01*
X131552380Y-103431561D02*
X131628570Y-103469657D01*
X131285713Y-103926800D02*
X131361904Y-103964895D01*
X131361904Y-103964895D02*
X131552380Y-103964895D01*
X131552380Y-103964895D02*
X131628570Y-103926800D01*
X131628570Y-103926800D02*
X131666666Y-103850609D01*
X131666666Y-103850609D02*
X131666666Y-103774419D01*
X131666666Y-103774419D02*
X131628570Y-103698228D01*
X131628570Y-103698228D02*
X131552380Y-103660133D01*
X131552380Y-103660133D02*
X131361904Y-103660133D01*
X131361904Y-103660133D02*
X131285713Y-103622038D01*
X130904760Y-103964895D02*
X130904760Y-103431561D01*
X130904760Y-103507752D02*
X130866665Y-103469657D01*
X130866665Y-103469657D02*
X130790475Y-103431561D01*
X130790475Y-103431561D02*
X130676189Y-103431561D01*
X130676189Y-103431561D02*
X130599998Y-103469657D01*
X130599998Y-103469657D02*
X130561903Y-103545847D01*
X130561903Y-103545847D02*
X130561903Y-103964895D01*
X130561903Y-103545847D02*
X130523808Y-103469657D01*
X130523808Y-103469657D02*
X130447617Y-103431561D01*
X130447617Y-103431561D02*
X130333332Y-103431561D01*
X130333332Y-103431561D02*
X130257141Y-103469657D01*
X130257141Y-103469657D02*
X130219046Y-103545847D01*
X130219046Y-103545847D02*
X130219046Y-103964895D01*
X129342855Y-103164895D02*
X128885712Y-103164895D01*
X129114284Y-103964895D02*
X129114284Y-103164895D01*
X128619045Y-103964895D02*
X128619045Y-103164895D01*
X128276188Y-103964895D02*
X128276188Y-103545847D01*
X128276188Y-103545847D02*
X128314283Y-103469657D01*
X128314283Y-103469657D02*
X128390474Y-103431561D01*
X128390474Y-103431561D02*
X128504760Y-103431561D01*
X128504760Y-103431561D02*
X128580950Y-103469657D01*
X128580950Y-103469657D02*
X128619045Y-103507752D01*
X127552378Y-103964895D02*
X127552378Y-103545847D01*
X127552378Y-103545847D02*
X127590473Y-103469657D01*
X127590473Y-103469657D02*
X127666664Y-103431561D01*
X127666664Y-103431561D02*
X127819045Y-103431561D01*
X127819045Y-103431561D02*
X127895235Y-103469657D01*
X127552378Y-103926800D02*
X127628569Y-103964895D01*
X127628569Y-103964895D02*
X127819045Y-103964895D01*
X127819045Y-103964895D02*
X127895235Y-103926800D01*
X127895235Y-103926800D02*
X127933331Y-103850609D01*
X127933331Y-103850609D02*
X127933331Y-103774419D01*
X127933331Y-103774419D02*
X127895235Y-103698228D01*
X127895235Y-103698228D02*
X127819045Y-103660133D01*
X127819045Y-103660133D02*
X127628569Y-103660133D01*
X127628569Y-103660133D02*
X127552378Y-103622038D01*
X127171425Y-103431561D02*
X127171425Y-103964895D01*
X127171425Y-103507752D02*
X127133330Y-103469657D01*
X127133330Y-103469657D02*
X127057140Y-103431561D01*
X127057140Y-103431561D02*
X126942854Y-103431561D01*
X126942854Y-103431561D02*
X126866663Y-103469657D01*
X126866663Y-103469657D02*
X126828568Y-103545847D01*
X126828568Y-103545847D02*
X126828568Y-103964895D01*
X126447615Y-103964895D02*
X126447615Y-103164895D01*
X126104758Y-103964895D02*
X126104758Y-103545847D01*
X126104758Y-103545847D02*
X126142853Y-103469657D01*
X126142853Y-103469657D02*
X126219044Y-103431561D01*
X126219044Y-103431561D02*
X126333330Y-103431561D01*
X126333330Y-103431561D02*
X126409520Y-103469657D01*
X126409520Y-103469657D02*
X126447615Y-103507752D01*
X125228567Y-103164895D02*
X124961900Y-103964895D01*
X124961900Y-103964895D02*
X124695234Y-103164895D01*
X124504758Y-103431561D02*
X124314282Y-103964895D01*
X124123805Y-103431561D02*
X124314282Y-103964895D01*
X124314282Y-103964895D02*
X124390472Y-104155371D01*
X124390472Y-104155371D02*
X124428567Y-104193466D01*
X124428567Y-104193466D02*
X124504758Y-104231561D01*
X149909523Y-112064895D02*
X149909523Y-111264895D01*
X149452380Y-112064895D02*
X149795238Y-111607752D01*
X149452380Y-111264895D02*
X149909523Y-111722038D01*
X153499999Y-118764895D02*
X153499999Y-117964895D01*
X156128570Y-118764895D02*
X156128570Y-117964895D01*
X156128570Y-117964895D02*
X155671427Y-118764895D01*
X155671427Y-118764895D02*
X155671427Y-117964895D01*
X154833332Y-118688704D02*
X154871428Y-118726800D01*
X154871428Y-118726800D02*
X154985713Y-118764895D01*
X154985713Y-118764895D02*
X155061904Y-118764895D01*
X155061904Y-118764895D02*
X155176190Y-118726800D01*
X155176190Y-118726800D02*
X155252380Y-118650609D01*
X155252380Y-118650609D02*
X155290475Y-118574419D01*
X155290475Y-118574419D02*
X155328571Y-118422038D01*
X155328571Y-118422038D02*
X155328571Y-118307752D01*
X155328571Y-118307752D02*
X155290475Y-118155371D01*
X155290475Y-118155371D02*
X155252380Y-118079180D01*
X155252380Y-118079180D02*
X155176190Y-118002990D01*
X155176190Y-118002990D02*
X155061904Y-117964895D01*
X155061904Y-117964895D02*
X154985713Y-117964895D01*
X154985713Y-117964895D02*
X154871428Y-118002990D01*
X154871428Y-118002990D02*
X154833332Y-118041085D01*
X157766666Y-117964895D02*
X157499999Y-118764895D01*
X157499999Y-118764895D02*
X157233333Y-117964895D01*
X158990476Y-111836323D02*
X158609523Y-111836323D01*
X159066666Y-112064895D02*
X158799999Y-111264895D01*
X158799999Y-111264895D02*
X158533333Y-112064895D01*
X159480952Y-118002990D02*
X159557142Y-117964895D01*
X159557142Y-117964895D02*
X159671428Y-117964895D01*
X159671428Y-117964895D02*
X159785714Y-118002990D01*
X159785714Y-118002990D02*
X159861904Y-118079180D01*
X159861904Y-118079180D02*
X159899999Y-118155371D01*
X159899999Y-118155371D02*
X159938095Y-118307752D01*
X159938095Y-118307752D02*
X159938095Y-118422038D01*
X159938095Y-118422038D02*
X159899999Y-118574419D01*
X159899999Y-118574419D02*
X159861904Y-118650609D01*
X159861904Y-118650609D02*
X159785714Y-118726800D01*
X159785714Y-118726800D02*
X159671428Y-118764895D01*
X159671428Y-118764895D02*
X159595237Y-118764895D01*
X159595237Y-118764895D02*
X159480952Y-118726800D01*
X159480952Y-118726800D02*
X159442856Y-118688704D01*
X159442856Y-118688704D02*
X159442856Y-118422038D01*
X159442856Y-118422038D02*
X159595237Y-118422038D01*
X159099999Y-118764895D02*
X159099999Y-117964895D01*
%TO.C,C2*%
D11*
X150738748Y-104915000D02*
X151261252Y-104915000D01*
X150738748Y-106385000D02*
X151261252Y-106385000D01*
%TO.C,C8*%
X156738748Y-113931666D02*
X157261252Y-113931666D01*
X156738748Y-115401666D02*
X157261252Y-115401666D01*
%TO.C,R2*%
X150772936Y-102615000D02*
X151227064Y-102615000D01*
X150772936Y-104085000D02*
X151227064Y-104085000D01*
%TO.C,C7*%
X113738748Y-113931666D02*
X114261252Y-113931666D01*
X113738748Y-115401666D02*
X114261252Y-115401666D01*
%TO.C,R6*%
X160765000Y-105927064D02*
X160765000Y-105472936D01*
X162235000Y-105927064D02*
X162235000Y-105472936D01*
%TO.C,R3*%
X124272936Y-107331666D02*
X124727064Y-107331666D01*
X124272936Y-108801666D02*
X124727064Y-108801666D01*
%TO.C,U1*%
X118900000Y-107090000D02*
X118100000Y-107090000D01*
X118900000Y-107090000D02*
X119700000Y-107090000D01*
X119900000Y-110310000D02*
X118100000Y-110310000D01*
X120200000Y-107140000D02*
X120440000Y-106810000D01*
X119960000Y-106810000D01*
X120200000Y-107140000D01*
G36*
X120200000Y-107140000D02*
G01*
X119960000Y-106810000D01*
X120440000Y-106810000D01*
X120200000Y-107140000D01*
G37*
%TO.C,R4*%
X155272936Y-105965000D02*
X155727064Y-105965000D01*
X155272936Y-107435000D02*
X155727064Y-107435000D01*
%TO.C,C3*%
X104765000Y-109638748D02*
X104765000Y-110161252D01*
X106235000Y-109638748D02*
X106235000Y-110161252D01*
%TO.C,C4*%
X163765000Y-109638748D02*
X163765000Y-110161252D01*
X165235000Y-109638748D02*
X165235000Y-110161252D01*
%TO.C,R7*%
X107765000Y-110127064D02*
X107765000Y-109672936D01*
X109235000Y-110127064D02*
X109235000Y-109672936D01*
%TO.C,R1*%
X118772936Y-102615000D02*
X119227064Y-102615000D01*
X118772936Y-104085000D02*
X119227064Y-104085000D01*
%TO.C,C5*%
X105761252Y-102365000D02*
X105238748Y-102365000D01*
X105761252Y-103835000D02*
X105238748Y-103835000D01*
%TO.C,U2*%
X150900000Y-107090000D02*
X150100000Y-107090000D01*
X150900000Y-107090000D02*
X151700000Y-107090000D01*
X151900000Y-110310000D02*
X150100000Y-110310000D01*
X152200000Y-107140000D02*
X152440000Y-106810000D01*
X151960000Y-106810000D01*
X152200000Y-107140000D01*
G36*
X152200000Y-107140000D02*
G01*
X151960000Y-106810000D01*
X152440000Y-106810000D01*
X152200000Y-107140000D01*
G37*
%TO.C,R5*%
X107765000Y-105927064D02*
X107765000Y-105472936D01*
X109235000Y-105927064D02*
X109235000Y-105472936D01*
%TO.C,R8*%
X160765000Y-110127064D02*
X160765000Y-109672936D01*
X162235000Y-110127064D02*
X162235000Y-109672936D01*
%TO.C,C6*%
X164238748Y-102365000D02*
X164761252Y-102365000D01*
X164238748Y-103835000D02*
X164761252Y-103835000D01*
%TO.C,C1*%
X118738748Y-104915000D02*
X119261252Y-104915000D01*
X118738748Y-106385000D02*
X119261252Y-106385000D01*
%TD*%
M02*
